G04*
G04 #@! TF.GenerationSoftware,Altium Limited,Altium Designer,24.10.1 (45)*
G04*
G04 Layer_Physical_Order=3*
G04 Layer_Color=7250688*
%FSLAX25Y25*%
%MOIN*%
G70*
G04*
G04 #@! TF.SameCoordinates,CBAACD6F-12D9-4D4A-9EA7-E70620961981*
G04*
G04*
G04 #@! TF.FilePolarity,Positive*
G04*
G01*
G75*
%ADD57C,0.23622*%
%ADD58C,0.06299*%
%ADD59R,0.06299X0.06299*%
%ADD60R,0.10236X0.10236*%
%ADD61C,0.10236*%
%ADD62C,0.14567*%
G04:AMPARAMS|DCode=63|XSize=59.06mil|YSize=118.11mil|CornerRadius=14.76mil|HoleSize=0mil|Usage=FLASHONLY|Rotation=90.000|XOffset=0mil|YOffset=0mil|HoleType=Round|Shape=RoundedRectangle|*
%AMROUNDEDRECTD63*
21,1,0.05906,0.08858,0,0,90.0*
21,1,0.02953,0.11811,0,0,90.0*
1,1,0.02953,0.04429,0.01476*
1,1,0.02953,0.04429,-0.01476*
1,1,0.02953,-0.04429,-0.01476*
1,1,0.02953,-0.04429,0.01476*
%
%ADD63ROUNDEDRECTD63*%
%ADD64C,0.01968*%
G36*
X299213Y196048D02*
X300192D01*
X302134Y195792D01*
X304027Y195285D01*
X305837Y194535D01*
X307534Y193555D01*
X309088Y192363D01*
X310473Y190978D01*
X311666Y189423D01*
X312645Y187727D01*
X313395Y185917D01*
X313902Y184024D01*
X314158Y182082D01*
X314158Y181102D01*
X314158Y15748D01*
Y14769D01*
X313902Y12826D01*
X313395Y10934D01*
X312645Y9124D01*
X311666Y7427D01*
X310473Y5873D01*
X309088Y4487D01*
X307534Y3295D01*
X305837Y2315D01*
X304027Y1566D01*
X302134Y1058D01*
X300192Y803D01*
X14769D01*
X12826Y1058D01*
X10934Y1566D01*
X9124Y2315D01*
X7427Y3295D01*
X5873Y4487D01*
X4487Y5873D01*
X3295Y7427D01*
X2315Y9124D01*
X1566Y10934D01*
X1058Y12826D01*
X803Y14769D01*
Y15748D01*
X803Y181102D01*
Y182082D01*
X1058Y184024D01*
X1566Y185917D01*
X2315Y187727D01*
X3295Y189423D01*
X4487Y190978D01*
X5873Y192363D01*
X7427Y193555D01*
X9124Y194535D01*
X10934Y195285D01*
X12826Y195792D01*
X14769Y196048D01*
X15748Y196048D01*
X299213Y196048D01*
D02*
G37*
%LPC*%
G36*
X241339Y188927D02*
X241339Y188927D01*
X195997D01*
X195614Y188768D01*
X195416Y188571D01*
X195070Y188427D01*
X194694D01*
X194348Y188571D01*
X194150Y188768D01*
X193767Y188927D01*
X193767Y188927D01*
X180642D01*
X180260Y188768D01*
X180062Y188571D01*
X179715Y188427D01*
X179340D01*
X178993Y188571D01*
X178796Y188768D01*
X178413Y188927D01*
X178413Y188927D01*
X157677D01*
X157677Y188927D01*
X157294Y188768D01*
X153365Y184839D01*
X153207Y184457D01*
X153207Y184457D01*
Y184261D01*
X153063Y183915D01*
X152798Y183649D01*
X152451Y183506D01*
X152256D01*
X151873Y183347D01*
X151873Y183347D01*
X148043Y179517D01*
X147884Y179134D01*
X147884Y179134D01*
Y128741D01*
X147905Y128690D01*
X147894Y128636D01*
X147982Y128505D01*
X148043Y128359D01*
X148094Y128338D01*
X148125Y128291D01*
X148457Y128069D01*
X148512Y128058D01*
X148551Y128019D01*
X148708D01*
X148863Y127988D01*
X148909Y128019D01*
X148965D01*
X149009Y128037D01*
X149384D01*
X149731Y127894D01*
X149996Y127629D01*
X150140Y127282D01*
Y126907D01*
X149996Y126560D01*
X149731Y126295D01*
X149384Y126151D01*
X149009D01*
X148965Y126170D01*
X148909D01*
X148863Y126200D01*
X148708Y126170D01*
X148551D01*
X148512Y126130D01*
X148457Y126120D01*
X148125Y125897D01*
X148094Y125851D01*
X148043Y125830D01*
X147982Y125684D01*
X147894Y125553D01*
X147905Y125499D01*
X147884Y125447D01*
Y121878D01*
X144294Y118288D01*
X144273Y118237D01*
X144227Y118206D01*
X144196Y118051D01*
X144136Y117905D01*
X144157Y117854D01*
X144146Y117800D01*
X144208Y117491D01*
X144295Y117360D01*
X144356Y117214D01*
X144697Y116873D01*
X144841Y116526D01*
Y116151D01*
X144697Y115804D01*
X144432Y115539D01*
X144085Y115395D01*
X143710D01*
X143363Y115539D01*
X143022Y115881D01*
X142876Y115941D01*
X142745Y116029D01*
X142436Y116090D01*
X142382Y116079D01*
X142331Y116100D01*
X142185Y116040D01*
X142030Y116009D01*
X141999Y115963D01*
X141948Y115942D01*
X138501Y112495D01*
X138480Y112443D01*
X138434Y112413D01*
X138403Y112258D01*
X138342Y112112D01*
X138364Y112061D01*
X138353Y112006D01*
X138431Y111614D01*
X138462Y111568D01*
Y111512D01*
X138573Y111401D01*
X138661Y111270D01*
X138692Y111263D01*
X138988Y110967D01*
X139132Y110621D01*
Y110246D01*
X138988Y109899D01*
X138723Y109634D01*
X138377Y109490D01*
X138001D01*
X137655Y109634D01*
X137359Y109930D01*
X137352Y109961D01*
X137221Y110049D01*
X137110Y110161D01*
X137054D01*
X137008Y110191D01*
X136616Y110269D01*
X136561Y110258D01*
X136510Y110280D01*
X136364Y110219D01*
X136209Y110188D01*
X136179Y110142D01*
X136127Y110121D01*
X106901Y80895D01*
X106901Y80895D01*
X95832Y69826D01*
X61017D01*
X60634Y69667D01*
X60634Y69667D01*
X50798Y59832D01*
X50640Y59449D01*
X50640Y59449D01*
Y30610D01*
X50798Y30227D01*
X50915Y30110D01*
X51100Y29664D01*
X51124Y29640D01*
X51217Y29415D01*
X51217Y29415D01*
X61133Y19499D01*
X61516Y19341D01*
X61516Y19341D01*
X115194Y19341D01*
X115293Y19382D01*
X115401D01*
X115676Y19496D01*
X116051D01*
X116326Y19382D01*
X116434D01*
X116533Y19341D01*
X117126D01*
X151808Y19341D01*
X151907Y19382D01*
X152015D01*
X152290Y19496D01*
X152665D01*
X152940Y19382D01*
X153048D01*
X153147Y19341D01*
X182874Y19341D01*
X182874Y19341D01*
X183257Y19499D01*
X193394Y29637D01*
X193553Y30020D01*
X193553Y30020D01*
Y52490D01*
X193532Y52541D01*
X193543Y52596D01*
X193455Y52727D01*
X193394Y52873D01*
X193359Y52887D01*
X193354Y52900D01*
X193334Y52908D01*
X193313Y52940D01*
X193272Y52967D01*
X193117Y52998D01*
X192972Y53058D01*
X192489D01*
X192142Y53202D01*
X191877Y53467D01*
X191733Y53814D01*
Y54189D01*
X191877Y54536D01*
X192142Y54801D01*
X192489Y54944D01*
X192972D01*
X193117Y55005D01*
X193272Y55036D01*
X193313Y55063D01*
X193334Y55094D01*
X193354Y55103D01*
X193359Y55115D01*
X193394Y55130D01*
X193455Y55276D01*
X193543Y55407D01*
X193532Y55461D01*
X193553Y55512D01*
Y65118D01*
X197612Y68888D01*
X197617Y68897D01*
X197627Y68902D01*
X197703Y69085D01*
X197785Y69264D01*
X197781Y69274D01*
X197785Y69284D01*
Y105878D01*
X199338Y107431D01*
X199680D01*
X199779Y107472D01*
X199887D01*
X199963Y107549D01*
X200063Y107590D01*
X200104Y107689D01*
X200180Y107765D01*
X200283Y108015D01*
X200549Y108280D01*
X200895Y108423D01*
X201270D01*
X201617Y108280D01*
X201882Y108015D01*
X201985Y107765D01*
X202062Y107689D01*
X202103Y107590D01*
X202202Y107549D01*
X202278Y107472D01*
X202386D01*
X202485Y107431D01*
X206791D01*
X213386Y107431D01*
X213769Y107590D01*
X213769Y107590D01*
X215934Y109755D01*
X216092Y110137D01*
X216092Y110138D01*
Y133465D01*
X215934Y133847D01*
X215934Y133847D01*
X215320Y134461D01*
X215221Y134502D01*
X215144Y134578D01*
X215037D01*
X214937Y134620D01*
X214862Y134588D01*
X214379D01*
X214033Y134732D01*
X213768Y134997D01*
X213624Y135344D01*
Y135827D01*
X213655Y135902D01*
X213614Y136001D01*
Y136109D01*
X213538Y136185D01*
X213533Y136196D01*
Y141705D01*
X229653Y157825D01*
X240453D01*
X240836Y157983D01*
X245953Y163101D01*
X245953Y163101D01*
X246112Y163484D01*
X246112Y163484D01*
X246112Y184153D01*
X246112Y184153D01*
X245954Y184536D01*
X245953Y184536D01*
X241721Y188768D01*
X241721Y188768D01*
X241530Y188848D01*
X241339Y188927D01*
D02*
G37*
G36*
X81648Y180872D02*
X81381D01*
Y177523D01*
X84731D01*
Y177790D01*
X84489Y178693D01*
X84022Y179502D01*
X83361Y180163D01*
X82551Y180631D01*
X81648Y180872D01*
D02*
G37*
G36*
X80981D02*
X80714D01*
X79811Y180631D01*
X79002Y180163D01*
X78341Y179502D01*
X77873Y178693D01*
X77631Y177790D01*
Y177523D01*
X80981D01*
Y180872D01*
D02*
G37*
G36*
X84731Y177123D02*
X81381D01*
Y173773D01*
X81648D01*
X82551Y174015D01*
X83361Y174482D01*
X84022Y175143D01*
X84489Y175953D01*
X84731Y176856D01*
Y177123D01*
D02*
G37*
G36*
X80981D02*
X77631D01*
Y176856D01*
X77873Y175953D01*
X78341Y175143D01*
X79002Y174482D01*
X79811Y174015D01*
X80714Y173773D01*
X80981D01*
Y177123D01*
D02*
G37*
G36*
X71662Y180972D02*
X70701D01*
X69772Y180724D01*
X68940Y180243D01*
X68261Y179564D01*
X67780Y178732D01*
X67532Y177803D01*
Y176842D01*
X67780Y175914D01*
X68261Y175082D01*
X68940Y174402D01*
X69772Y173922D01*
X70701Y173673D01*
X71662D01*
X72590Y173922D01*
X73422Y174402D01*
X74102Y175082D01*
X74582Y175914D01*
X74831Y176842D01*
Y177803D01*
X74582Y178732D01*
X74102Y179564D01*
X73422Y180243D01*
X72590Y180724D01*
X71662Y180972D01*
D02*
G37*
G36*
X61662D02*
X60701D01*
X59772Y180724D01*
X58940Y180243D01*
X58261Y179564D01*
X57780Y178732D01*
X57531Y177803D01*
Y176842D01*
X57780Y175914D01*
X58261Y175082D01*
X58940Y174402D01*
X59772Y173922D01*
X60701Y173673D01*
X61662D01*
X62590Y173922D01*
X63422Y174402D01*
X64101Y175082D01*
X64582Y175914D01*
X64831Y176842D01*
Y177803D01*
X64582Y178732D01*
X64101Y179564D01*
X63422Y180243D01*
X62590Y180724D01*
X61662Y180972D01*
D02*
G37*
G36*
X51662D02*
X50701D01*
X49772Y180724D01*
X48940Y180243D01*
X48261Y179564D01*
X47780Y178732D01*
X47532Y177803D01*
Y176842D01*
X47780Y175914D01*
X48261Y175082D01*
X48940Y174402D01*
X49772Y173922D01*
X50701Y173673D01*
X51662D01*
X52590Y173922D01*
X53422Y174402D01*
X54102Y175082D01*
X54582Y175914D01*
X54831Y176842D01*
Y177803D01*
X54582Y178732D01*
X54102Y179564D01*
X53422Y180243D01*
X52590Y180724D01*
X51662Y180972D01*
D02*
G37*
G36*
X120768Y175992D02*
X120177D01*
X119632Y175766D01*
X119214Y175349D01*
X118988Y174803D01*
Y174213D01*
X119214Y173667D01*
X119632Y173250D01*
X120177Y173024D01*
X120768D01*
X121313Y173250D01*
X121731Y173667D01*
X121957Y174213D01*
Y174803D01*
X121731Y175349D01*
X121313Y175766D01*
X120768Y175992D01*
D02*
G37*
G36*
X103740Y175894D02*
X103150D01*
X102604Y175668D01*
X102187Y175250D01*
X101961Y174705D01*
Y174114D01*
X102187Y173569D01*
X102604Y173151D01*
X103150Y172925D01*
X103740D01*
X104286Y173151D01*
X104703Y173569D01*
X104929Y174114D01*
Y174705D01*
X104703Y175250D01*
X104286Y175668D01*
X103740Y175894D01*
D02*
G37*
G36*
X81648Y170872D02*
X81381D01*
Y167523D01*
X84731D01*
Y167790D01*
X84489Y168693D01*
X84022Y169502D01*
X83361Y170163D01*
X82551Y170631D01*
X81648Y170872D01*
D02*
G37*
G36*
X80981D02*
X80714D01*
X79811Y170631D01*
X79002Y170163D01*
X78341Y169502D01*
X77873Y168693D01*
X77631Y167790D01*
Y167523D01*
X80981D01*
Y170872D01*
D02*
G37*
G36*
X296245Y189476D02*
X294307D01*
X292393Y189173D01*
X290550Y188574D01*
X288823Y187695D01*
X287256Y186556D01*
X285885Y185185D01*
X284746Y183618D01*
X283867Y181891D01*
X283268Y180048D01*
X282965Y178134D01*
Y176197D01*
X283268Y174283D01*
X283867Y172440D01*
X284746Y170713D01*
X285885Y169145D01*
X287256Y167775D01*
X288823Y166636D01*
X290550Y165756D01*
X292393Y165157D01*
X294307Y164854D01*
X296245D01*
X298158Y165157D01*
X300001Y165756D01*
X301728Y166636D01*
X303296Y167775D01*
X304666Y169145D01*
X305805Y170713D01*
X306685Y172440D01*
X307283Y174283D01*
X307587Y176197D01*
Y178134D01*
X307283Y180048D01*
X306685Y181891D01*
X305805Y183618D01*
X304666Y185185D01*
X303296Y186556D01*
X301728Y187695D01*
X300001Y188574D01*
X298158Y189173D01*
X296245Y189476D01*
D02*
G37*
G36*
X20654D02*
X18716D01*
X16802Y189173D01*
X14959Y188574D01*
X13233Y187695D01*
X11665Y186556D01*
X10295Y185185D01*
X9156Y183618D01*
X8276Y181891D01*
X7677Y180048D01*
X7374Y178134D01*
Y176197D01*
X7677Y174283D01*
X8276Y172440D01*
X9156Y170713D01*
X10295Y169145D01*
X11665Y167775D01*
X13233Y166636D01*
X14959Y165756D01*
X16802Y165157D01*
X18716Y164854D01*
X20654D01*
X22568Y165157D01*
X24411Y165756D01*
X26137Y166636D01*
X27705Y167775D01*
X29075Y169145D01*
X30214Y170713D01*
X31094Y172440D01*
X31693Y174283D01*
X31996Y176197D01*
Y178134D01*
X31693Y180048D01*
X31094Y181891D01*
X30214Y183618D01*
X29075Y185185D01*
X27705Y186556D01*
X26137Y187695D01*
X24411Y188574D01*
X22568Y189173D01*
X20654Y189476D01*
D02*
G37*
G36*
X84731Y167123D02*
X81381D01*
Y163773D01*
X81648D01*
X82551Y164015D01*
X83361Y164482D01*
X84022Y165143D01*
X84489Y165953D01*
X84731Y166856D01*
Y167123D01*
D02*
G37*
G36*
X80981D02*
X77631D01*
Y166856D01*
X77873Y165953D01*
X78341Y165143D01*
X79002Y164482D01*
X79811Y164015D01*
X80714Y163773D01*
X80981D01*
Y167123D01*
D02*
G37*
G36*
X71662Y170972D02*
X70701D01*
X69772Y170724D01*
X68940Y170243D01*
X68261Y169564D01*
X67780Y168731D01*
X67532Y167803D01*
Y166842D01*
X67780Y165914D01*
X68261Y165082D01*
X68940Y164402D01*
X69772Y163922D01*
X70701Y163673D01*
X71662D01*
X72590Y163922D01*
X73422Y164402D01*
X74102Y165082D01*
X74582Y165914D01*
X74831Y166842D01*
Y167803D01*
X74582Y168731D01*
X74102Y169564D01*
X73422Y170243D01*
X72590Y170724D01*
X71662Y170972D01*
D02*
G37*
G36*
X61662D02*
X60701D01*
X59772Y170724D01*
X58940Y170243D01*
X58261Y169564D01*
X57780Y168731D01*
X57531Y167803D01*
Y166842D01*
X57780Y165914D01*
X58261Y165082D01*
X58940Y164402D01*
X59772Y163922D01*
X60701Y163673D01*
X61662D01*
X62590Y163922D01*
X63422Y164402D01*
X64101Y165082D01*
X64582Y165914D01*
X64831Y166842D01*
Y167803D01*
X64582Y168731D01*
X64101Y169564D01*
X63422Y170243D01*
X62590Y170724D01*
X61662Y170972D01*
D02*
G37*
G36*
X54831D02*
X47532D01*
Y163673D01*
X54831D01*
Y170972D01*
D02*
G37*
G36*
X103740Y166051D02*
X103150D01*
X102604Y165825D01*
X102187Y165408D01*
X101961Y164862D01*
Y164272D01*
X102187Y163726D01*
X102604Y163309D01*
X103150Y163083D01*
X103740D01*
X104286Y163309D01*
X104703Y163726D01*
X104929Y164272D01*
Y164862D01*
X104703Y165408D01*
X104286Y165825D01*
X103740Y166051D01*
D02*
G37*
G36*
X263976Y157193D02*
X263386D01*
X262840Y156967D01*
X262598Y156725D01*
X262356Y156967D01*
X261811Y157193D01*
X261221D01*
X260675Y156967D01*
X260258Y156549D01*
X260032Y156004D01*
Y155413D01*
X260258Y154868D01*
X260675Y154450D01*
X261221Y154224D01*
X261811D01*
X262356Y154450D01*
X262598Y154692D01*
X262840Y154450D01*
X263386Y154224D01*
X263976D01*
X264522Y154450D01*
X264939Y154868D01*
X265165Y155413D01*
Y156004D01*
X264939Y156549D01*
X264522Y156967D01*
X263976Y157193D01*
D02*
G37*
G36*
X246654Y155126D02*
X246063D01*
X245517Y154900D01*
X245226Y154609D01*
X244935Y154900D01*
X244390Y155126D01*
X243799D01*
X243254Y154900D01*
X242836Y154482D01*
X242610Y153937D01*
Y153347D01*
X242836Y152801D01*
X243254Y152383D01*
X243799Y152157D01*
X244390D01*
X244935Y152383D01*
X245226Y152675D01*
X245517Y152383D01*
X246063Y152157D01*
X246654D01*
X247199Y152383D01*
X247617Y152801D01*
X247843Y153347D01*
Y153937D01*
X247617Y154482D01*
X247199Y154900D01*
X246654Y155126D01*
D02*
G37*
G36*
X81749Y155541D02*
X81482D01*
Y152191D01*
X84832D01*
Y152458D01*
X84590Y153361D01*
X84123Y154170D01*
X83462Y154831D01*
X82652Y155299D01*
X81749Y155541D01*
D02*
G37*
G36*
X81082D02*
X80815D01*
X79912Y155299D01*
X79103Y154831D01*
X78442Y154170D01*
X77974Y153361D01*
X77733Y152458D01*
Y152191D01*
X81082D01*
Y155541D01*
D02*
G37*
G36*
X84832Y151791D02*
X81482D01*
Y148441D01*
X81749D01*
X82652Y148683D01*
X83462Y149151D01*
X84123Y149811D01*
X84590Y150621D01*
X84832Y151524D01*
Y151791D01*
D02*
G37*
G36*
X81082D02*
X77733D01*
Y151524D01*
X77974Y150621D01*
X78442Y149811D01*
X79103Y149151D01*
X79912Y148683D01*
X80815Y148441D01*
X81082D01*
Y151791D01*
D02*
G37*
G36*
X71763Y155640D02*
X70802D01*
X69873Y155392D01*
X69041Y154911D01*
X68362Y154232D01*
X67881Y153400D01*
X67633Y152471D01*
Y151510D01*
X67881Y150582D01*
X68362Y149750D01*
X69041Y149071D01*
X69873Y148590D01*
X70802Y148341D01*
X71763D01*
X72691Y148590D01*
X73523Y149071D01*
X74203Y149750D01*
X74683Y150582D01*
X74932Y151510D01*
Y152471D01*
X74683Y153400D01*
X74203Y154232D01*
X73523Y154911D01*
X72691Y155392D01*
X71763Y155640D01*
D02*
G37*
G36*
X61763D02*
X60802D01*
X59873Y155392D01*
X59041Y154911D01*
X58362Y154232D01*
X57881Y153400D01*
X57633Y152471D01*
Y151510D01*
X57881Y150582D01*
X58362Y149750D01*
X59041Y149071D01*
X59873Y148590D01*
X60802Y148341D01*
X61763D01*
X62691Y148590D01*
X63523Y149071D01*
X64203Y149750D01*
X64683Y150582D01*
X64932Y151510D01*
Y152471D01*
X64683Y153400D01*
X64203Y154232D01*
X63523Y154911D01*
X62691Y155392D01*
X61763Y155640D01*
D02*
G37*
G36*
X51763D02*
X50802D01*
X49874Y155392D01*
X49041Y154911D01*
X48362Y154232D01*
X47881Y153400D01*
X47633Y152471D01*
Y151510D01*
X47881Y150582D01*
X48362Y149750D01*
X49041Y149071D01*
X49874Y148590D01*
X50802Y148341D01*
X51763D01*
X52691Y148590D01*
X53523Y149071D01*
X54203Y149750D01*
X54683Y150582D01*
X54932Y151510D01*
Y152471D01*
X54683Y153400D01*
X54203Y154232D01*
X53523Y154911D01*
X52691Y155392D01*
X51763Y155640D01*
D02*
G37*
G36*
X138681Y143709D02*
X138091D01*
X137545Y143483D01*
X137127Y143065D01*
X136902Y142520D01*
Y141929D01*
X137127Y141384D01*
X137545Y140966D01*
X138091Y140740D01*
X138681D01*
X139227Y140966D01*
X139644Y141384D01*
X139870Y141929D01*
Y142520D01*
X139644Y143065D01*
X139227Y143483D01*
X138681Y143709D01*
D02*
G37*
G36*
X133268D02*
X132677D01*
X132132Y143483D01*
X131714Y143065D01*
X131488Y142520D01*
Y141929D01*
X131714Y141384D01*
X132132Y140966D01*
X132677Y140740D01*
X133268D01*
X133813Y140966D01*
X134231Y141384D01*
X134457Y141929D01*
Y142520D01*
X134231Y143065D01*
X133813Y143483D01*
X133268Y143709D01*
D02*
G37*
G36*
X128248D02*
X127657D01*
X127112Y143483D01*
X126695Y143065D01*
X126469Y142520D01*
Y141929D01*
X126695Y141384D01*
X127112Y140966D01*
X127657Y140740D01*
X128248D01*
X128794Y140966D01*
X129211Y141384D01*
X129437Y141929D01*
Y142520D01*
X129211Y143065D01*
X128794Y143483D01*
X128248Y143709D01*
D02*
G37*
G36*
X81763Y145641D02*
X80802D01*
X79874Y145392D01*
X79041Y144911D01*
X78362Y144232D01*
X77881Y143400D01*
X77633Y142471D01*
Y141510D01*
X77881Y140582D01*
X78362Y139750D01*
X79041Y139070D01*
X79874Y138590D01*
X80802Y138341D01*
X81763D01*
X82691Y138590D01*
X83523Y139070D01*
X84203Y139750D01*
X84683Y140582D01*
X84932Y141510D01*
Y142471D01*
X84683Y143400D01*
X84203Y144232D01*
X83523Y144911D01*
X82691Y145392D01*
X81763Y145641D01*
D02*
G37*
G36*
X71763D02*
X70802D01*
X69873Y145392D01*
X69041Y144911D01*
X68362Y144232D01*
X67881Y143400D01*
X67633Y142471D01*
Y141510D01*
X67881Y140582D01*
X68362Y139750D01*
X69041Y139070D01*
X69873Y138590D01*
X70802Y138341D01*
X71763D01*
X72691Y138590D01*
X73523Y139070D01*
X74203Y139750D01*
X74683Y140582D01*
X74932Y141510D01*
Y142471D01*
X74683Y143400D01*
X74203Y144232D01*
X73523Y144911D01*
X72691Y145392D01*
X71763Y145641D01*
D02*
G37*
G36*
X61763D02*
X60802D01*
X59873Y145392D01*
X59041Y144911D01*
X58362Y144232D01*
X57881Y143400D01*
X57633Y142471D01*
Y141510D01*
X57881Y140582D01*
X58362Y139750D01*
X59041Y139070D01*
X59873Y138590D01*
X60802Y138341D01*
X61763D01*
X62691Y138590D01*
X63523Y139070D01*
X64203Y139750D01*
X64683Y140582D01*
X64932Y141510D01*
Y142471D01*
X64683Y143400D01*
X64203Y144232D01*
X63523Y144911D01*
X62691Y145392D01*
X61763Y145641D01*
D02*
G37*
G36*
X54932D02*
X47633D01*
Y138341D01*
X54932D01*
Y145641D01*
D02*
G37*
G36*
X217323Y142035D02*
X216732D01*
X216187Y141809D01*
X215769Y141392D01*
X215543Y140846D01*
Y140256D01*
X215769Y139710D01*
X216180Y139299D01*
X215804Y138923D01*
X215579Y138378D01*
Y137787D01*
X215804Y137242D01*
X216222Y136824D01*
X216768Y136598D01*
X217358D01*
X217903Y136824D01*
X218321Y137242D01*
X218547Y137787D01*
Y138378D01*
X218321Y138923D01*
X217910Y139334D01*
X218286Y139710D01*
X218512Y140256D01*
Y140846D01*
X218286Y141392D01*
X217868Y141809D01*
X217323Y142035D01*
D02*
G37*
G36*
X132606Y133786D02*
X132016D01*
X131470Y133560D01*
X131053Y133142D01*
X130827Y132597D01*
Y132068D01*
X130243D01*
X130034Y131982D01*
X129636Y131988D01*
X129553Y132183D01*
X129408Y132534D01*
X128990Y132951D01*
X128445Y133177D01*
X127854D01*
X127309Y132951D01*
X126891Y132534D01*
X126665Y131988D01*
Y131398D01*
X126891Y130852D01*
X127309Y130435D01*
X127854Y130209D01*
X128445D01*
X128654Y130295D01*
X129052Y130289D01*
X129134Y130094D01*
X129280Y129743D01*
X129697Y129326D01*
X130243Y129100D01*
X130833D01*
X131379Y129326D01*
X131796Y129743D01*
X132022Y130289D01*
Y130817D01*
X132606D01*
X133152Y131043D01*
X133162Y131054D01*
X133476Y130991D01*
X133894Y130574D01*
X134439Y130348D01*
X135030D01*
X135222Y130428D01*
X135622Y130413D01*
X135848Y129868D01*
X136266Y129450D01*
X136811Y129224D01*
X137401D01*
X137947Y129450D01*
X138365Y129868D01*
X138560Y130341D01*
X138645Y130434D01*
X138991Y130563D01*
X139370Y130405D01*
X139961D01*
X140172Y130493D01*
X140457Y130303D01*
X140683Y129758D01*
X141100Y129340D01*
X141646Y129114D01*
X142236D01*
X142782Y129340D01*
X143199Y129758D01*
X143425Y130303D01*
Y130894D01*
X143199Y131439D01*
X142782Y131857D01*
X142236Y132083D01*
X141646D01*
X141434Y131995D01*
X141150Y132185D01*
X140924Y132730D01*
X140506Y133148D01*
X139961Y133374D01*
X139370D01*
X138825Y133148D01*
X138407Y132730D01*
X138211Y132258D01*
X138127Y132165D01*
X137781Y132036D01*
X137401Y132193D01*
X136811D01*
X136619Y132113D01*
X136219Y132127D01*
X135993Y132673D01*
X135575Y133090D01*
X135030Y133316D01*
X134439D01*
X133894Y133090D01*
X133883Y133080D01*
X133569Y133142D01*
X133152Y133560D01*
X132606Y133786D01*
D02*
G37*
G36*
X234646Y133079D02*
X234055D01*
X233510Y132853D01*
X233092Y132435D01*
X232866Y131890D01*
Y131299D01*
X233092Y130754D01*
X233510Y130336D01*
X234055Y130110D01*
X234646D01*
X235191Y130336D01*
X235609Y130754D01*
X235835Y131299D01*
Y131890D01*
X235609Y132435D01*
X235191Y132853D01*
X234646Y133079D01*
D02*
G37*
G36*
X124508Y132980D02*
X123917D01*
X123372Y132754D01*
X122954Y132337D01*
X122728Y131791D01*
Y131201D01*
X122954Y130655D01*
X123372Y130238D01*
X123917Y130012D01*
X124508D01*
X125053Y130238D01*
X125471Y130655D01*
X125697Y131201D01*
Y131791D01*
X125471Y132337D01*
X125053Y132754D01*
X124508Y132980D01*
D02*
G37*
G36*
X81749Y129950D02*
X81482D01*
Y126600D01*
X84832D01*
Y126868D01*
X84590Y127770D01*
X84123Y128580D01*
X83462Y129241D01*
X82652Y129708D01*
X81749Y129950D01*
D02*
G37*
G36*
X81082D02*
X80815D01*
X79912Y129708D01*
X79103Y129241D01*
X78442Y128580D01*
X77974Y127770D01*
X77733Y126868D01*
Y126600D01*
X81082D01*
Y129950D01*
D02*
G37*
G36*
X230118Y128551D02*
X229528D01*
X228982Y128325D01*
X228565Y127908D01*
X228339Y127362D01*
Y126772D01*
X228565Y126226D01*
X228982Y125809D01*
X229528Y125583D01*
X230118D01*
X230664Y125809D01*
X231081Y126226D01*
X231307Y126772D01*
Y127362D01*
X231081Y127908D01*
X230664Y128325D01*
X230118Y128551D01*
D02*
G37*
G36*
X84832Y126200D02*
X81482D01*
Y122851D01*
X81749D01*
X82652Y123093D01*
X83462Y123560D01*
X84123Y124221D01*
X84590Y125030D01*
X84832Y125933D01*
Y126200D01*
D02*
G37*
G36*
X81082D02*
X77733D01*
Y125933D01*
X77974Y125030D01*
X78442Y124221D01*
X79103Y123560D01*
X79912Y123093D01*
X80815Y122851D01*
X81082D01*
Y126200D01*
D02*
G37*
G36*
X71763Y130050D02*
X70802D01*
X69873Y129801D01*
X69041Y129321D01*
X68362Y128641D01*
X67881Y127809D01*
X67633Y126881D01*
Y125920D01*
X67881Y124992D01*
X68362Y124159D01*
X69041Y123480D01*
X69873Y123000D01*
X70802Y122751D01*
X71763D01*
X72691Y123000D01*
X73523Y123480D01*
X74203Y124159D01*
X74683Y124992D01*
X74932Y125920D01*
Y126881D01*
X74683Y127809D01*
X74203Y128641D01*
X73523Y129321D01*
X72691Y129801D01*
X71763Y130050D01*
D02*
G37*
G36*
X61763D02*
X60802D01*
X59873Y129801D01*
X59041Y129321D01*
X58362Y128641D01*
X57881Y127809D01*
X57633Y126881D01*
Y125920D01*
X57881Y124992D01*
X58362Y124159D01*
X59041Y123480D01*
X59873Y123000D01*
X60802Y122751D01*
X61763D01*
X62691Y123000D01*
X63523Y123480D01*
X64203Y124159D01*
X64683Y124992D01*
X64932Y125920D01*
Y126881D01*
X64683Y127809D01*
X64203Y128641D01*
X63523Y129321D01*
X62691Y129801D01*
X61763Y130050D01*
D02*
G37*
G36*
X51763D02*
X50802D01*
X49874Y129801D01*
X49041Y129321D01*
X48362Y128641D01*
X47881Y127809D01*
X47633Y126881D01*
Y125920D01*
X47881Y124992D01*
X48362Y124159D01*
X49041Y123480D01*
X49874Y123000D01*
X50802Y122751D01*
X51763D01*
X52691Y123000D01*
X53523Y123480D01*
X54203Y124159D01*
X54683Y124992D01*
X54932Y125920D01*
Y126881D01*
X54683Y127809D01*
X54203Y128641D01*
X53523Y129321D01*
X52691Y129801D01*
X51763Y130050D01*
D02*
G37*
G36*
X106201Y125157D02*
X105610D01*
X105065Y124931D01*
X104647Y124513D01*
X104421Y123968D01*
Y123377D01*
X104647Y122832D01*
X105065Y122414D01*
X105610Y122188D01*
X106201D01*
X106746Y122414D01*
X107164Y122832D01*
X107390Y123377D01*
Y123968D01*
X107164Y124513D01*
X106746Y124931D01*
X106201Y125157D01*
D02*
G37*
G36*
X100689Y124811D02*
X100099D01*
X99553Y124585D01*
X99135Y124168D01*
X98909Y123622D01*
Y123031D01*
X99135Y122486D01*
X99553Y122069D01*
X100099Y121843D01*
X100689D01*
X101234Y122069D01*
X101652Y122486D01*
X101878Y123031D01*
Y123622D01*
X101652Y124168D01*
X101234Y124585D01*
X100689Y124811D01*
D02*
G37*
G36*
X88681Y124182D02*
X88091D01*
X87545Y123956D01*
X87128Y123538D01*
X86902Y122993D01*
Y122403D01*
X87128Y121857D01*
X87545Y121440D01*
X88091Y121213D01*
X88681D01*
X89227Y121440D01*
X89644Y121857D01*
X89732Y122069D01*
X90165D01*
X90277Y121797D01*
X90695Y121379D01*
X91240Y121153D01*
X91831D01*
X92376Y121379D01*
X92794Y121797D01*
X93020Y122343D01*
Y122933D01*
X92794Y123479D01*
X92376Y123896D01*
X91831Y124122D01*
X91240D01*
X90695Y123896D01*
X90277Y123479D01*
X90189Y123267D01*
X89757D01*
X89644Y123538D01*
X89227Y123956D01*
X88681Y124182D01*
D02*
G37*
G36*
X114469Y123138D02*
X113878D01*
X113332Y122912D01*
X112915Y122494D01*
X112689Y121949D01*
Y121358D01*
X112915Y120813D01*
X113332Y120395D01*
X113878Y120169D01*
X114469D01*
X115014Y120395D01*
X115431Y120813D01*
X115657Y121358D01*
Y121949D01*
X115431Y122494D01*
X115014Y122912D01*
X114469Y123138D01*
D02*
G37*
G36*
X280267Y129043D02*
X278788D01*
X277359Y128660D01*
X276078Y127921D01*
X275032Y126875D01*
X274292Y125594D01*
X273909Y124165D01*
Y122686D01*
X274292Y121257D01*
X275032Y119976D01*
X276078Y118930D01*
X277359Y118190D01*
X278788Y117807D01*
X280267D01*
X281696Y118190D01*
X282977Y118930D01*
X284023Y119976D01*
X284763Y121257D01*
X285146Y122686D01*
Y124165D01*
X284763Y125594D01*
X284023Y126875D01*
X282977Y127921D01*
X281696Y128660D01*
X280267Y129043D01*
D02*
G37*
G36*
X123917Y120244D02*
X123327D01*
X122781Y120018D01*
X122364Y119600D01*
X122138Y119055D01*
Y118465D01*
X122364Y117919D01*
X122781Y117501D01*
X123327Y117276D01*
X123917D01*
X124463Y117501D01*
X124880Y117919D01*
X125106Y118465D01*
Y119055D01*
X124880Y119600D01*
X124463Y120018D01*
X123917Y120244D01*
D02*
G37*
G36*
X242913Y121563D02*
X242323D01*
X241777Y121337D01*
X241360Y120920D01*
X241134Y120374D01*
Y119783D01*
X241360Y119238D01*
X241602Y118996D01*
X241360Y118754D01*
X241134Y118209D01*
Y117618D01*
X241360Y117073D01*
X241777Y116655D01*
X242323Y116429D01*
X242913D01*
X243459Y116655D01*
X243876Y117073D01*
X244102Y117618D01*
Y118209D01*
X243876Y118754D01*
X243635Y118996D01*
X243876Y119238D01*
X244102Y119783D01*
Y120374D01*
X243876Y120920D01*
X243459Y121337D01*
X242913Y121563D01*
D02*
G37*
G36*
X121756Y116547D02*
X121166D01*
X120620Y116321D01*
X120202Y115904D01*
X119976Y115358D01*
Y114768D01*
X120202Y114222D01*
X120620Y113805D01*
X121166Y113579D01*
X121756D01*
X122301Y113805D01*
X122719Y114222D01*
X122945Y114768D01*
Y115358D01*
X122719Y115904D01*
X122301Y116321D01*
X121756Y116547D01*
D02*
G37*
G36*
X81763Y120050D02*
X80802D01*
X79874Y119801D01*
X79041Y119321D01*
X78362Y118641D01*
X77881Y117809D01*
X77633Y116881D01*
Y115920D01*
X77881Y114992D01*
X78362Y114159D01*
X79041Y113480D01*
X79874Y112999D01*
X80802Y112751D01*
X81763D01*
X82691Y112999D01*
X83523Y113480D01*
X84203Y114159D01*
X84683Y114992D01*
X84932Y115920D01*
Y116881D01*
X84683Y117809D01*
X84203Y118641D01*
X83523Y119321D01*
X82691Y119801D01*
X81763Y120050D01*
D02*
G37*
G36*
X71763D02*
X70802D01*
X69873Y119801D01*
X69041Y119321D01*
X68362Y118641D01*
X67881Y117809D01*
X67633Y116881D01*
Y115920D01*
X67881Y114992D01*
X68362Y114159D01*
X69041Y113480D01*
X69873Y112999D01*
X70802Y112751D01*
X71763D01*
X72691Y112999D01*
X73523Y113480D01*
X74203Y114159D01*
X74683Y114992D01*
X74932Y115920D01*
Y116881D01*
X74683Y117809D01*
X74203Y118641D01*
X73523Y119321D01*
X72691Y119801D01*
X71763Y120050D01*
D02*
G37*
G36*
X61763D02*
X60802D01*
X59873Y119801D01*
X59041Y119321D01*
X58362Y118641D01*
X57881Y117809D01*
X57633Y116881D01*
Y115920D01*
X57881Y114992D01*
X58362Y114159D01*
X59041Y113480D01*
X59873Y112999D01*
X60802Y112751D01*
X61763D01*
X62691Y112999D01*
X63523Y113480D01*
X64203Y114159D01*
X64683Y114992D01*
X64932Y115920D01*
Y116881D01*
X64683Y117809D01*
X64203Y118641D01*
X63523Y119321D01*
X62691Y119801D01*
X61763Y120050D01*
D02*
G37*
G36*
X54932D02*
X47633D01*
Y112751D01*
X54932D01*
Y120050D01*
D02*
G37*
G36*
X123917Y112705D02*
X123327D01*
X122781Y112479D01*
X122364Y112061D01*
X122138Y111516D01*
Y110925D01*
X122364Y110380D01*
X122781Y109962D01*
X123327Y109736D01*
X123917D01*
X124463Y109962D01*
X124880Y110380D01*
X125106Y110925D01*
Y111516D01*
X124880Y112061D01*
X124463Y112479D01*
X123917Y112705D01*
D02*
G37*
G36*
X202067Y106405D02*
X201476D01*
X200931Y106179D01*
X200513Y105762D01*
X200287Y105217D01*
Y104626D01*
X200513Y104080D01*
X200864Y103730D01*
X200903Y103494D01*
X200864Y103258D01*
X200513Y102908D01*
X200287Y102362D01*
Y101772D01*
X200513Y101226D01*
X200864Y100876D01*
X200903Y100640D01*
X200864Y100404D01*
X200513Y100053D01*
X200287Y99508D01*
Y98917D01*
X200513Y98372D01*
X200931Y97954D01*
X201476Y97728D01*
X202067D01*
X202612Y97954D01*
X203030Y98372D01*
X203256Y98917D01*
Y99508D01*
X203030Y100053D01*
X202680Y100404D01*
X202641Y100640D01*
X202680Y100876D01*
X203030Y101226D01*
X203256Y101772D01*
Y102362D01*
X203030Y102908D01*
X202680Y103258D01*
X202641Y103494D01*
X202680Y103730D01*
X203030Y104080D01*
X203256Y104626D01*
Y105217D01*
X203030Y105762D01*
X202612Y106179D01*
X202067Y106405D01*
D02*
G37*
G36*
X243209Y102665D02*
X242618D01*
X242073Y102439D01*
X241655Y102022D01*
X241429Y101476D01*
Y100886D01*
X241655Y100340D01*
X241897Y100098D01*
X241655Y99857D01*
X241429Y99311D01*
Y98721D01*
X241655Y98175D01*
X242073Y97758D01*
X242618Y97531D01*
X243209D01*
X243754Y97758D01*
X244172Y98175D01*
X244398Y98721D01*
Y99311D01*
X244172Y99857D01*
X243930Y100098D01*
X244172Y100340D01*
X244398Y100886D01*
Y101476D01*
X244172Y102022D01*
X243754Y102439D01*
X243209Y102665D01*
D02*
G37*
G36*
X81662Y104201D02*
X80701D01*
X79772Y103952D01*
X78940Y103472D01*
X78261Y102792D01*
X77780Y101960D01*
X77531Y101032D01*
Y100071D01*
X77780Y99142D01*
X78261Y98310D01*
X78940Y97631D01*
X79772Y97150D01*
X80701Y96902D01*
X81662D01*
X82590Y97150D01*
X83422Y97631D01*
X84101Y98310D01*
X84582Y99142D01*
X84831Y100071D01*
Y101032D01*
X84582Y101960D01*
X84101Y102792D01*
X83422Y103472D01*
X82590Y103952D01*
X81662Y104201D01*
D02*
G37*
G36*
X71662D02*
X70701D01*
X69772Y103952D01*
X68940Y103472D01*
X68261Y102792D01*
X67780Y101960D01*
X67532Y101032D01*
Y100071D01*
X67780Y99142D01*
X68261Y98310D01*
X68940Y97631D01*
X69772Y97150D01*
X70701Y96902D01*
X71662D01*
X72590Y97150D01*
X73422Y97631D01*
X74102Y98310D01*
X74582Y99142D01*
X74831Y100071D01*
Y101032D01*
X74582Y101960D01*
X74102Y102792D01*
X73422Y103472D01*
X72590Y103952D01*
X71662Y104201D01*
D02*
G37*
G36*
X61662D02*
X60701D01*
X59772Y103952D01*
X58940Y103472D01*
X58261Y102792D01*
X57780Y101960D01*
X57531Y101032D01*
Y100071D01*
X57780Y99142D01*
X58261Y98310D01*
X58940Y97631D01*
X59772Y97150D01*
X60701Y96902D01*
X61662D01*
X62590Y97150D01*
X63422Y97631D01*
X64101Y98310D01*
X64582Y99142D01*
X64831Y100071D01*
Y101032D01*
X64582Y101960D01*
X64101Y102792D01*
X63422Y103472D01*
X62590Y103952D01*
X61662Y104201D01*
D02*
G37*
G36*
X51662D02*
X50701D01*
X49772Y103952D01*
X48940Y103472D01*
X48261Y102792D01*
X47780Y101960D01*
X47532Y101032D01*
Y100071D01*
X47780Y99142D01*
X48261Y98310D01*
X48940Y97631D01*
X49772Y97150D01*
X50701Y96902D01*
X51662D01*
X52590Y97150D01*
X53422Y97631D01*
X54102Y98310D01*
X54582Y99142D01*
X54831Y100071D01*
Y101032D01*
X54582Y101960D01*
X54102Y102792D01*
X53422Y103472D01*
X52590Y103952D01*
X51662Y104201D01*
D02*
G37*
G36*
X102756Y97646D02*
X102165D01*
X101620Y97420D01*
X101202Y97002D01*
X100976Y96457D01*
Y95866D01*
X101202Y95321D01*
X101620Y94903D01*
X102165Y94677D01*
X102756D01*
X103301Y94903D01*
X103719Y95321D01*
X103945Y95866D01*
Y96457D01*
X103719Y97002D01*
X103301Y97420D01*
X102756Y97646D01*
D02*
G37*
G36*
X280267Y104043D02*
X278788D01*
X277359Y103660D01*
X276078Y102921D01*
X275032Y101875D01*
X274292Y100594D01*
X273909Y99165D01*
Y97686D01*
X274292Y96257D01*
X275032Y94976D01*
X276078Y93930D01*
X277359Y93190D01*
X278788Y92807D01*
X280267D01*
X281696Y93190D01*
X282977Y93930D01*
X284023Y94976D01*
X284763Y96257D01*
X285146Y97686D01*
Y99165D01*
X284763Y100594D01*
X284023Y101875D01*
X282977Y102921D01*
X281696Y103660D01*
X280267Y104043D01*
D02*
G37*
G36*
X81648Y94101D02*
X81381D01*
Y90751D01*
X84731D01*
Y91018D01*
X84489Y91921D01*
X84022Y92731D01*
X83361Y93392D01*
X82551Y93859D01*
X81648Y94101D01*
D02*
G37*
G36*
X80981D02*
X80714D01*
X79811Y93859D01*
X79002Y93392D01*
X78341Y92731D01*
X77873Y91921D01*
X77631Y91018D01*
Y90751D01*
X80981D01*
Y94101D01*
D02*
G37*
G36*
X71648D02*
X71381D01*
Y90751D01*
X74731D01*
Y91018D01*
X74489Y91921D01*
X74022Y92731D01*
X73361Y93392D01*
X72551Y93859D01*
X71648Y94101D01*
D02*
G37*
G36*
X70981D02*
X70714D01*
X69811Y93859D01*
X69002Y93392D01*
X68341Y92731D01*
X67873Y91921D01*
X67632Y91018D01*
Y90751D01*
X70981D01*
Y94101D01*
D02*
G37*
G36*
X84731Y90351D02*
X81381D01*
Y87002D01*
X81648D01*
X82551Y87243D01*
X83361Y87711D01*
X84022Y88372D01*
X84489Y89181D01*
X84731Y90084D01*
Y90351D01*
D02*
G37*
G36*
X80981D02*
X77631D01*
Y90084D01*
X77873Y89181D01*
X78341Y88372D01*
X79002Y87711D01*
X79811Y87243D01*
X80714Y87002D01*
X80981D01*
Y90351D01*
D02*
G37*
G36*
X74731D02*
X71381D01*
Y87002D01*
X71648D01*
X72551Y87243D01*
X73361Y87711D01*
X74022Y88372D01*
X74489Y89181D01*
X74731Y90084D01*
Y90351D01*
D02*
G37*
G36*
X70981D02*
X67632D01*
Y90084D01*
X67873Y89181D01*
X68341Y88372D01*
X69002Y87711D01*
X69811Y87243D01*
X70714Y87002D01*
X70981D01*
Y90351D01*
D02*
G37*
G36*
X61662Y94201D02*
X60701D01*
X59772Y93952D01*
X58940Y93472D01*
X58261Y92792D01*
X57780Y91960D01*
X57531Y91032D01*
Y90071D01*
X57780Y89143D01*
X58261Y88310D01*
X58940Y87631D01*
X59772Y87150D01*
X60701Y86902D01*
X61662D01*
X62590Y87150D01*
X63422Y87631D01*
X64101Y88310D01*
X64582Y89143D01*
X64831Y90071D01*
Y91032D01*
X64582Y91960D01*
X64101Y92792D01*
X63422Y93472D01*
X62590Y93952D01*
X61662Y94201D01*
D02*
G37*
G36*
X54831D02*
X47532D01*
Y86902D01*
X54831D01*
Y94201D01*
D02*
G37*
G36*
X20654Y110736D02*
X18716D01*
X16802Y110433D01*
X14959Y109834D01*
X13233Y108955D01*
X11665Y107816D01*
X10295Y106445D01*
X9156Y104878D01*
X8276Y103151D01*
X7677Y101308D01*
X7374Y99394D01*
Y97456D01*
X7677Y95542D01*
X8276Y93699D01*
X9156Y91973D01*
X10295Y90405D01*
X11665Y89035D01*
X13233Y87896D01*
X14959Y87016D01*
X16802Y86417D01*
X18716Y86114D01*
X20654D01*
X22568Y86417D01*
X24411Y87016D01*
X26137Y87896D01*
X27705Y89035D01*
X29075Y90405D01*
X30214Y91973D01*
X31094Y93699D01*
X31693Y95542D01*
X31996Y97456D01*
Y99394D01*
X31693Y101308D01*
X31094Y103151D01*
X30214Y104878D01*
X29075Y106445D01*
X27705Y107816D01*
X26137Y108955D01*
X24411Y109834D01*
X22568Y110433D01*
X20654Y110736D01*
D02*
G37*
G36*
X97146Y84260D02*
X96555D01*
X96010Y84034D01*
X95592Y83616D01*
X95366Y83071D01*
Y82480D01*
X95592Y81935D01*
X96010Y81517D01*
X96555Y81291D01*
X97146D01*
X97691Y81517D01*
X98109Y81935D01*
X98335Y82480D01*
Y83071D01*
X98109Y83616D01*
X97691Y84034D01*
X97146Y84260D01*
D02*
G37*
G36*
X211713Y80421D02*
X211122D01*
X210577Y80195D01*
X210159Y79778D01*
X209933Y79232D01*
Y78642D01*
X210159Y78096D01*
X210450Y77805D01*
X210159Y77514D01*
X209933Y76968D01*
Y76378D01*
X210159Y75832D01*
X210577Y75415D01*
X211122Y75189D01*
X211713D01*
X212258Y75415D01*
X212676Y75832D01*
X212902Y76378D01*
Y76968D01*
X212676Y77514D01*
X212385Y77805D01*
X212676Y78096D01*
X212902Y78642D01*
Y79232D01*
X212676Y79778D01*
X212258Y80195D01*
X211713Y80421D01*
D02*
G37*
G36*
X45768Y75342D02*
X36909D01*
X36138Y75188D01*
X35485Y74752D01*
X35048Y74098D01*
X34894Y73327D01*
Y70374D01*
X35048Y69603D01*
X35485Y68949D01*
X36138Y68512D01*
X36909Y68359D01*
X45768D01*
X46539Y68512D01*
X47193Y68949D01*
X47629Y69603D01*
X47783Y70374D01*
Y73327D01*
X47629Y74098D01*
X47193Y74752D01*
X46539Y75188D01*
X45768Y75342D01*
D02*
G37*
G36*
X285146Y79043D02*
X273909D01*
Y67807D01*
X285146D01*
Y79043D01*
D02*
G37*
G36*
X204626Y69102D02*
X204035D01*
X203490Y68876D01*
X203072Y68459D01*
X202847Y67913D01*
Y67323D01*
X203072Y66777D01*
X203250Y66600D01*
X203472Y66339D01*
X203250Y66077D01*
X203072Y65900D01*
X202847Y65354D01*
Y64764D01*
X203072Y64218D01*
X203490Y63801D01*
X204035Y63575D01*
X204626D01*
X205171Y63801D01*
X205589Y64218D01*
X205815Y64764D01*
Y65354D01*
X205589Y65900D01*
X205412Y66077D01*
X205189Y66339D01*
X205412Y66600D01*
X205589Y66777D01*
X205815Y67323D01*
Y67913D01*
X205589Y68459D01*
X205171Y68876D01*
X204626Y69102D01*
D02*
G37*
G36*
X234449Y65658D02*
X233858D01*
X233313Y65431D01*
X232895Y65014D01*
X232669Y64468D01*
Y63878D01*
X232895Y63332D01*
X233313Y62915D01*
X233858Y62689D01*
X234449D01*
X234994Y62915D01*
X235412Y63332D01*
X235638Y63878D01*
Y64468D01*
X235412Y65014D01*
X234994Y65431D01*
X234449Y65658D01*
D02*
G37*
G36*
X229626Y61130D02*
X229035D01*
X228490Y60904D01*
X228072Y60486D01*
X227847Y59941D01*
Y59350D01*
X228072Y58805D01*
X228490Y58387D01*
X229035Y58161D01*
X229626D01*
X230171Y58387D01*
X230589Y58805D01*
X230815Y59350D01*
Y59941D01*
X230589Y60486D01*
X230171Y60904D01*
X229626Y61130D01*
D02*
G37*
G36*
X211122Y63394D02*
X210531D01*
X209986Y63168D01*
X209569Y62750D01*
X209343Y62205D01*
Y61614D01*
X209569Y61069D01*
X209986Y60651D01*
X210030Y60633D01*
Y60233D01*
X209986Y60215D01*
X209569Y59798D01*
X209343Y59252D01*
Y58662D01*
X209569Y58116D01*
X209986Y57698D01*
X209965Y57274D01*
X209936Y57262D01*
X209519Y56845D01*
X209293Y56299D01*
Y55709D01*
X209519Y55163D01*
X209936Y54746D01*
X210482Y54520D01*
X211072D01*
X211618Y54746D01*
X212035Y55163D01*
X212261Y55709D01*
Y56299D01*
X212035Y56845D01*
X211618Y57262D01*
X211639Y57687D01*
X211667Y57698D01*
X212085Y58116D01*
X212311Y58662D01*
Y59252D01*
X212085Y59798D01*
X211667Y60215D01*
X211624Y60233D01*
Y60633D01*
X211667Y60651D01*
X212085Y61069D01*
X212311Y61614D01*
Y62205D01*
X212085Y62750D01*
X211667Y63168D01*
X211122Y63394D01*
D02*
G37*
G36*
X199803Y47646D02*
X199213D01*
X198667Y47420D01*
X198387Y47139D01*
X198130Y47046D01*
X197873Y47139D01*
X197593Y47420D01*
X197047Y47646D01*
X196457D01*
X195911Y47420D01*
X195494Y47002D01*
X195268Y46457D01*
Y45866D01*
X195494Y45321D01*
X195911Y44903D01*
X196457Y44677D01*
X197047D01*
X197593Y44903D01*
X197873Y45184D01*
X198130Y45277D01*
X198387Y45184D01*
X198667Y44903D01*
X199213Y44677D01*
X199803D01*
X200349Y44903D01*
X200766Y45321D01*
X200992Y45866D01*
Y46457D01*
X200766Y47002D01*
X200349Y47420D01*
X199803Y47646D01*
D02*
G37*
G36*
X243996Y44594D02*
X243406D01*
X242860Y44368D01*
X242442Y43951D01*
X242216Y43406D01*
Y42815D01*
X242442Y42270D01*
X242684Y42028D01*
X242442Y41786D01*
X242216Y41240D01*
Y40650D01*
X242442Y40104D01*
X242860Y39687D01*
X243406Y39461D01*
X243996D01*
X244542Y39687D01*
X244959Y40104D01*
X245185Y40650D01*
Y41240D01*
X244959Y41786D01*
X244717Y42028D01*
X244959Y42270D01*
X245185Y42815D01*
Y43406D01*
X244959Y43951D01*
X244542Y44368D01*
X243996Y44594D01*
D02*
G37*
G36*
X244193Y38098D02*
X243602D01*
X243057Y37872D01*
X242639Y37455D01*
X242413Y36909D01*
Y36319D01*
X242639Y35773D01*
X242931Y35482D01*
X242541Y35093D01*
X242315Y34547D01*
Y33957D01*
X242541Y33411D01*
X242958Y32994D01*
X243504Y32768D01*
X244094D01*
X244640Y32994D01*
X245058Y33411D01*
X245284Y33957D01*
Y34547D01*
X245058Y35093D01*
X244766Y35384D01*
X245156Y35773D01*
X245382Y36319D01*
Y36909D01*
X245156Y37455D01*
X244738Y37872D01*
X244193Y38098D01*
D02*
G37*
G36*
X211516Y36228D02*
X210925D01*
X210380Y36002D01*
X209962Y35585D01*
X209736Y35039D01*
Y34449D01*
X209962Y33903D01*
X210204Y33661D01*
X209962Y33419D01*
X209736Y32874D01*
Y32283D01*
X209962Y31738D01*
X210380Y31320D01*
X210925Y31095D01*
X211516D01*
X212061Y31320D01*
X212479Y31738D01*
X212705Y32283D01*
Y32874D01*
X212479Y33419D01*
X212237Y33661D01*
X212479Y33903D01*
X212705Y34449D01*
Y35039D01*
X212479Y35585D01*
X212061Y36002D01*
X211516Y36228D01*
D02*
G37*
G36*
X45768Y22192D02*
X36909D01*
X36138Y22039D01*
X35485Y21602D01*
X35048Y20948D01*
X34894Y20177D01*
Y17224D01*
X35048Y16453D01*
X35485Y15800D01*
X36138Y15363D01*
X36909Y15209D01*
X45768D01*
X46539Y15363D01*
X47193Y15800D01*
X47629Y16453D01*
X47783Y17224D01*
Y20177D01*
X47629Y20948D01*
X47193Y21602D01*
X46539Y22039D01*
X45768Y22192D01*
D02*
G37*
G36*
X296245Y31996D02*
X294307D01*
X292393Y31693D01*
X290550Y31094D01*
X288823Y30214D01*
X287256Y29075D01*
X285885Y27705D01*
X284746Y26137D01*
X283867Y24411D01*
X283268Y22568D01*
X282965Y20654D01*
Y18716D01*
X283268Y16802D01*
X283867Y14959D01*
X284746Y13233D01*
X285885Y11665D01*
X287256Y10295D01*
X288823Y9156D01*
X290550Y8276D01*
X292393Y7677D01*
X294307Y7374D01*
X296245D01*
X298158Y7677D01*
X300001Y8276D01*
X301728Y9156D01*
X303296Y10295D01*
X304666Y11665D01*
X305805Y13233D01*
X306685Y14959D01*
X307283Y16802D01*
X307587Y18716D01*
Y20654D01*
X307283Y22568D01*
X306685Y24411D01*
X305805Y26137D01*
X304666Y27705D01*
X303296Y29075D01*
X301728Y30214D01*
X300001Y31094D01*
X298158Y31693D01*
X296245Y31996D01*
D02*
G37*
%LPD*%
G36*
X245571Y184153D02*
X245571Y163484D01*
X240453Y158366D01*
X229429D01*
X212992Y141929D01*
Y136024D01*
X213114Y135902D01*
X213083Y135827D01*
Y135236D01*
X213309Y134691D01*
X213726Y134273D01*
X214272Y134047D01*
X214862D01*
X214937Y134078D01*
X215551Y133465D01*
Y110137D01*
X213386Y107972D01*
X206791Y107972D01*
X202485D01*
X202341Y108321D01*
X201923Y108739D01*
X201378Y108965D01*
X200787D01*
X200242Y108739D01*
X199824Y108321D01*
X199680Y107972D01*
X199114D01*
X197244Y106102D01*
Y69284D01*
X193012Y65354D01*
Y55512D01*
X192972Y55486D01*
X192381D01*
X191835Y55260D01*
X191418Y54842D01*
X191192Y54297D01*
Y53706D01*
X191418Y53161D01*
X191835Y52743D01*
X192381Y52517D01*
X192972D01*
X193012Y52490D01*
Y30020D01*
X182874Y19882D01*
X153147Y19882D01*
X152773Y20037D01*
X152182D01*
X151808Y19882D01*
X117126Y19882D01*
X116533D01*
X116159Y20037D01*
X115568D01*
X115194Y19882D01*
X61516Y19882D01*
X51600Y29798D01*
Y29872D01*
X51374Y30417D01*
X51181Y30610D01*
Y59449D01*
X61017Y69284D01*
X96056D01*
X107283Y80512D01*
X136510Y109739D01*
X136902Y109660D01*
X136931Y109592D01*
X137348Y109175D01*
X137894Y108949D01*
X138484D01*
X139030Y109175D01*
X139447Y109592D01*
X139673Y110138D01*
Y110728D01*
X139447Y111274D01*
X139030Y111691D01*
X138962Y111720D01*
X138884Y112112D01*
X142331Y115559D01*
X142639Y115498D01*
X143057Y115080D01*
X143602Y114854D01*
X144193D01*
X144738Y115080D01*
X145156Y115498D01*
X145382Y116043D01*
Y116634D01*
X145156Y117179D01*
X144738Y117597D01*
X144677Y117905D01*
X148425Y121653D01*
Y125447D01*
X148758Y125670D01*
X148901Y125610D01*
X149492D01*
X150037Y125836D01*
X150455Y126254D01*
X150681Y126799D01*
Y127390D01*
X150455Y127935D01*
X150037Y128353D01*
X149492Y128579D01*
X148901D01*
X148758Y128519D01*
X148425Y128741D01*
Y179134D01*
X152256Y182965D01*
X152559D01*
X153104Y183191D01*
X153522Y183608D01*
X153748Y184154D01*
Y184457D01*
X157677Y188386D01*
X178413D01*
X178687Y188112D01*
X179232Y187886D01*
X179823D01*
X180368Y188112D01*
X180642Y188386D01*
X193767D01*
X194041Y188112D01*
X194587Y187886D01*
X195177D01*
X195723Y188112D01*
X195997Y188386D01*
X241339D01*
X245571Y184153D01*
D02*
G37*
%LPC*%
G36*
X205315Y186327D02*
X204725D01*
X204179Y186101D01*
X203761Y185683D01*
X203535Y185138D01*
Y184547D01*
X203761Y184002D01*
X204179Y183584D01*
X204725Y183358D01*
X205315D01*
X205860Y183584D01*
X206278Y184002D01*
X206504Y184547D01*
Y185138D01*
X206278Y185683D01*
X205860Y186101D01*
X205315Y186327D01*
D02*
G37*
G36*
Y179831D02*
X204725D01*
X204179Y179605D01*
X203761Y179187D01*
X203535Y178642D01*
Y178051D01*
X203761Y177506D01*
X204179Y177088D01*
X204725Y176862D01*
X205315D01*
X205860Y177088D01*
X206278Y177506D01*
X206504Y178051D01*
Y178642D01*
X206278Y179187D01*
X205860Y179605D01*
X205315Y179831D01*
D02*
G37*
G36*
X192027Y177075D02*
X191437D01*
X190892Y176849D01*
X190474Y176431D01*
X190248Y175886D01*
Y175295D01*
X190474Y174750D01*
X190892Y174332D01*
X191437Y174106D01*
X192027D01*
X192573Y174332D01*
X192991Y174750D01*
X193217Y175295D01*
Y175886D01*
X192991Y176431D01*
X192573Y176849D01*
X192027Y177075D01*
D02*
G37*
G36*
X176673D02*
X176083D01*
X175537Y176849D01*
X175120Y176431D01*
X174894Y175886D01*
Y175295D01*
X175120Y174750D01*
X175537Y174332D01*
X176083Y174106D01*
X176673D01*
X177219Y174332D01*
X177636Y174750D01*
X177862Y175295D01*
Y175886D01*
X177636Y176431D01*
X177219Y176849D01*
X176673Y177075D01*
D02*
G37*
G36*
X193602Y170382D02*
X193012D01*
X192466Y170156D01*
X192049Y169738D01*
X191823Y169193D01*
Y168602D01*
X192049Y168057D01*
X192466Y167639D01*
X193012Y167413D01*
X193602D01*
X194148Y167639D01*
X194565Y168057D01*
X194791Y168602D01*
Y169193D01*
X194565Y169738D01*
X194148Y170156D01*
X193602Y170382D01*
D02*
G37*
G36*
X190059D02*
X189469D01*
X188923Y170156D01*
X188505Y169738D01*
X188279Y169193D01*
Y168602D01*
X188505Y168057D01*
X188923Y167639D01*
X189469Y167413D01*
X190059D01*
X190604Y167639D01*
X191022Y168057D01*
X191248Y168602D01*
Y169193D01*
X191022Y169738D01*
X190604Y170156D01*
X190059Y170382D01*
D02*
G37*
G36*
X186516D02*
X185925D01*
X185380Y170156D01*
X184962Y169738D01*
X184736Y169193D01*
Y168602D01*
X184962Y168057D01*
X185380Y167639D01*
X185925Y167413D01*
X186516D01*
X187061Y167639D01*
X187479Y168057D01*
X187705Y168602D01*
Y169193D01*
X187479Y169738D01*
X187061Y170156D01*
X186516Y170382D01*
D02*
G37*
G36*
X182972D02*
X182382D01*
X181836Y170156D01*
X181419Y169738D01*
X181193Y169193D01*
Y168602D01*
X181419Y168057D01*
X181836Y167639D01*
X182382Y167413D01*
X182972D01*
X183518Y167639D01*
X183935Y168057D01*
X184161Y168602D01*
Y169193D01*
X183935Y169738D01*
X183518Y170156D01*
X182972Y170382D01*
D02*
G37*
G36*
X179429D02*
X178839D01*
X178293Y170156D01*
X177876Y169738D01*
X177650Y169193D01*
Y168602D01*
X177876Y168057D01*
X178293Y167639D01*
X178839Y167413D01*
X179429D01*
X179975Y167639D01*
X180392Y168057D01*
X180618Y168602D01*
Y169193D01*
X180392Y169738D01*
X179975Y170156D01*
X179429Y170382D01*
D02*
G37*
G36*
X175886D02*
X175295D01*
X174750Y170156D01*
X174332Y169738D01*
X174106Y169193D01*
Y168602D01*
X174332Y168057D01*
X174750Y167639D01*
X175295Y167413D01*
X175886D01*
X176431Y167639D01*
X176849Y168057D01*
X177075Y168602D01*
Y169193D01*
X176849Y169738D01*
X176431Y170156D01*
X175886Y170382D01*
D02*
G37*
G36*
X204146Y170018D02*
X203556D01*
X203010Y169792D01*
X202593Y169375D01*
X202367Y168829D01*
Y168239D01*
X202593Y167693D01*
X203010Y167276D01*
X203556Y167050D01*
X204146D01*
X204692Y167276D01*
X205109Y167693D01*
X205335Y168239D01*
Y168829D01*
X205109Y169375D01*
X204692Y169792D01*
X204146Y170018D01*
D02*
G37*
G36*
X211417Y166937D02*
X210827D01*
X210281Y166711D01*
X209864Y166294D01*
X209638Y165748D01*
Y165157D01*
X209864Y164612D01*
X210281Y164195D01*
X210827Y163969D01*
X211417D01*
X211963Y164195D01*
X212380Y164612D01*
X212606Y165157D01*
Y165748D01*
X212380Y166294D01*
X211963Y166711D01*
X211417Y166937D01*
D02*
G37*
G36*
X193602Y166839D02*
X193012D01*
X192466Y166613D01*
X192049Y166195D01*
X191823Y165650D01*
Y165059D01*
X192049Y164514D01*
X192466Y164096D01*
X193012Y163870D01*
X193602D01*
X194148Y164096D01*
X194565Y164514D01*
X194791Y165059D01*
Y165650D01*
X194565Y166195D01*
X194148Y166613D01*
X193602Y166839D01*
D02*
G37*
G36*
X190059D02*
X189469D01*
X188923Y166613D01*
X188505Y166195D01*
X188279Y165650D01*
Y165059D01*
X188505Y164514D01*
X188923Y164096D01*
X189469Y163870D01*
X190059D01*
X190604Y164096D01*
X191022Y164514D01*
X191248Y165059D01*
Y165650D01*
X191022Y166195D01*
X190604Y166613D01*
X190059Y166839D01*
D02*
G37*
G36*
X186516D02*
X185925D01*
X185380Y166613D01*
X184962Y166195D01*
X184736Y165650D01*
Y165059D01*
X184962Y164514D01*
X185380Y164096D01*
X185925Y163870D01*
X186516D01*
X187061Y164096D01*
X187479Y164514D01*
X187705Y165059D01*
Y165650D01*
X187479Y166195D01*
X187061Y166613D01*
X186516Y166839D01*
D02*
G37*
G36*
X182972D02*
X182382D01*
X181836Y166613D01*
X181419Y166195D01*
X181193Y165650D01*
Y165059D01*
X181419Y164514D01*
X181836Y164096D01*
X182382Y163870D01*
X182972D01*
X183518Y164096D01*
X183935Y164514D01*
X184161Y165059D01*
Y165650D01*
X183935Y166195D01*
X183518Y166613D01*
X182972Y166839D01*
D02*
G37*
G36*
X179429D02*
X178839D01*
X178293Y166613D01*
X177876Y166195D01*
X177650Y165650D01*
Y165059D01*
X177876Y164514D01*
X178293Y164096D01*
X178839Y163870D01*
X179429D01*
X179975Y164096D01*
X180392Y164514D01*
X180618Y165059D01*
Y165650D01*
X180392Y166195D01*
X179975Y166613D01*
X179429Y166839D01*
D02*
G37*
G36*
X175886D02*
X175295D01*
X174750Y166613D01*
X174332Y166195D01*
X174106Y165650D01*
Y165059D01*
X174332Y164514D01*
X174750Y164096D01*
X175295Y163870D01*
X175886D01*
X176431Y164096D01*
X176849Y164514D01*
X177075Y165059D01*
Y165650D01*
X176849Y166195D01*
X176431Y166613D01*
X175886Y166839D01*
D02*
G37*
G36*
X172343D02*
X171752D01*
X171206Y166613D01*
X170789Y166195D01*
X170563Y165650D01*
Y165059D01*
X170789Y164514D01*
X171206Y164096D01*
X171752Y163870D01*
X172343D01*
X172888Y164096D01*
X173305Y164514D01*
X173531Y165059D01*
Y165650D01*
X173305Y166195D01*
X172888Y166613D01*
X172343Y166839D01*
D02*
G37*
G36*
X221752Y163591D02*
X221162D01*
X220616Y163365D01*
X220198Y162947D01*
X219972Y162401D01*
Y161811D01*
X220198Y161266D01*
X220616Y160848D01*
X221162Y160622D01*
X221752D01*
X222297Y160848D01*
X222715Y161266D01*
X222941Y161811D01*
Y162401D01*
X222715Y162947D01*
X222297Y163365D01*
X221752Y163591D01*
D02*
G37*
G36*
X182972Y163295D02*
X182382D01*
X181836Y163069D01*
X181419Y162652D01*
X181193Y162106D01*
Y161516D01*
X181419Y160970D01*
X181836Y160553D01*
X182382Y160327D01*
X182972D01*
X183518Y160553D01*
X183935Y160970D01*
X184161Y161516D01*
Y162106D01*
X183935Y162652D01*
X183518Y163069D01*
X182972Y163295D01*
D02*
G37*
G36*
X179429D02*
X178839D01*
X178293Y163069D01*
X177876Y162652D01*
X177650Y162106D01*
Y161516D01*
X177876Y160970D01*
X178293Y160553D01*
X178839Y160327D01*
X179429D01*
X179975Y160553D01*
X180392Y160970D01*
X180618Y161516D01*
Y162106D01*
X180392Y162652D01*
X179975Y163069D01*
X179429Y163295D01*
D02*
G37*
G36*
X175886D02*
X175295D01*
X174750Y163069D01*
X174332Y162652D01*
X174106Y162106D01*
Y161516D01*
X174332Y160970D01*
X174750Y160553D01*
X175295Y160327D01*
X175886D01*
X176431Y160553D01*
X176849Y160970D01*
X177075Y161516D01*
Y162106D01*
X176849Y162652D01*
X176431Y163069D01*
X175886Y163295D01*
D02*
G37*
G36*
X172343D02*
X171752D01*
X171206Y163069D01*
X170789Y162652D01*
X170563Y162106D01*
Y161516D01*
X170789Y160970D01*
X171206Y160553D01*
X171752Y160327D01*
X172343D01*
X172888Y160553D01*
X173305Y160970D01*
X173531Y161516D01*
Y162106D01*
X173305Y162652D01*
X172888Y163069D01*
X172343Y163295D01*
D02*
G37*
G36*
X182972Y159752D02*
X182382D01*
X181836Y159526D01*
X181419Y159108D01*
X181193Y158563D01*
Y157973D01*
X181419Y157427D01*
X181836Y157009D01*
X182382Y156783D01*
X182972D01*
X183518Y157009D01*
X183935Y157427D01*
X184161Y157973D01*
Y158563D01*
X183935Y159108D01*
X183518Y159526D01*
X182972Y159752D01*
D02*
G37*
G36*
X179429D02*
X178839D01*
X178293Y159526D01*
X177876Y159108D01*
X177650Y158563D01*
Y157973D01*
X177876Y157427D01*
X178293Y157009D01*
X178839Y156783D01*
X179429D01*
X179975Y157009D01*
X180392Y157427D01*
X180618Y157973D01*
Y158563D01*
X180392Y159108D01*
X179975Y159526D01*
X179429Y159752D01*
D02*
G37*
G36*
X175886D02*
X175295D01*
X174750Y159526D01*
X174332Y159108D01*
X174106Y158563D01*
Y157973D01*
X174332Y157427D01*
X174750Y157009D01*
X175295Y156783D01*
X175886D01*
X176431Y157009D01*
X176849Y157427D01*
X177075Y157973D01*
Y158563D01*
X176849Y159108D01*
X176431Y159526D01*
X175886Y159752D01*
D02*
G37*
G36*
X172343D02*
X171752D01*
X171206Y159526D01*
X170789Y159108D01*
X170563Y158563D01*
Y157973D01*
X170789Y157427D01*
X171206Y157009D01*
X171752Y156783D01*
X172343D01*
X172888Y157009D01*
X173305Y157427D01*
X173531Y157973D01*
Y158563D01*
X173305Y159108D01*
X172888Y159526D01*
X172343Y159752D01*
D02*
G37*
G36*
X168799D02*
X168209D01*
X167663Y159526D01*
X167246Y159108D01*
X167020Y158563D01*
Y157973D01*
X167246Y157427D01*
X167663Y157009D01*
X168209Y156783D01*
X168799D01*
X169345Y157009D01*
X169762Y157427D01*
X169988Y157973D01*
Y158563D01*
X169762Y159108D01*
X169345Y159526D01*
X168799Y159752D01*
D02*
G37*
G36*
X182972Y156209D02*
X182382D01*
X181836Y155983D01*
X181419Y155565D01*
X181193Y155020D01*
Y154429D01*
X181419Y153884D01*
X181836Y153466D01*
X182382Y153240D01*
X182972D01*
X183518Y153466D01*
X183935Y153884D01*
X184161Y154429D01*
Y155020D01*
X183935Y155565D01*
X183518Y155983D01*
X182972Y156209D01*
D02*
G37*
G36*
X179429D02*
X178839D01*
X178293Y155983D01*
X177876Y155565D01*
X177650Y155020D01*
Y154429D01*
X177876Y153884D01*
X178293Y153466D01*
X178839Y153240D01*
X179429D01*
X179975Y153466D01*
X180392Y153884D01*
X180618Y154429D01*
Y155020D01*
X180392Y155565D01*
X179975Y155983D01*
X179429Y156209D01*
D02*
G37*
G36*
X175886D02*
X175295D01*
X174750Y155983D01*
X174332Y155565D01*
X174106Y155020D01*
Y154429D01*
X174332Y153884D01*
X174750Y153466D01*
X175295Y153240D01*
X175886D01*
X176431Y153466D01*
X176849Y153884D01*
X177075Y154429D01*
Y155020D01*
X176849Y155565D01*
X176431Y155983D01*
X175886Y156209D01*
D02*
G37*
G36*
X172343D02*
X171752D01*
X171206Y155983D01*
X170789Y155565D01*
X170563Y155020D01*
Y154429D01*
X170789Y153884D01*
X171206Y153466D01*
X171752Y153240D01*
X172343D01*
X172888Y153466D01*
X173305Y153884D01*
X173531Y154429D01*
Y155020D01*
X173305Y155565D01*
X172888Y155983D01*
X172343Y156209D01*
D02*
G37*
G36*
X168799D02*
X168209D01*
X167663Y155983D01*
X167246Y155565D01*
X167020Y155020D01*
Y154429D01*
X167246Y153884D01*
X167663Y153466D01*
X168209Y153240D01*
X168799D01*
X169345Y153466D01*
X169762Y153884D01*
X169988Y154429D01*
Y155020D01*
X169762Y155565D01*
X169345Y155983D01*
X168799Y156209D01*
D02*
G37*
G36*
X221752Y155028D02*
X221162D01*
X220616Y154802D01*
X220198Y154384D01*
X219972Y153839D01*
Y153248D01*
X220198Y152702D01*
X220616Y152285D01*
X221162Y152059D01*
X221752D01*
X222297Y152285D01*
X222715Y152702D01*
X222941Y153248D01*
Y153839D01*
X222715Y154384D01*
X222297Y154802D01*
X221752Y155028D01*
D02*
G37*
G36*
X182972Y152665D02*
X182382D01*
X181836Y152439D01*
X181419Y152022D01*
X181193Y151476D01*
Y150886D01*
X181419Y150340D01*
X181836Y149923D01*
X182382Y149697D01*
X182972D01*
X183518Y149923D01*
X183935Y150340D01*
X184161Y150886D01*
Y151476D01*
X183935Y152022D01*
X183518Y152439D01*
X182972Y152665D01*
D02*
G37*
G36*
X179429D02*
X178839D01*
X178293Y152439D01*
X177876Y152022D01*
X177650Y151476D01*
Y150886D01*
X177876Y150340D01*
X178293Y149923D01*
X178839Y149697D01*
X179429D01*
X179975Y149923D01*
X180392Y150340D01*
X180618Y150886D01*
Y151476D01*
X180392Y152022D01*
X179975Y152439D01*
X179429Y152665D01*
D02*
G37*
G36*
X175886D02*
X175295D01*
X174750Y152439D01*
X174332Y152022D01*
X174106Y151476D01*
Y150886D01*
X174332Y150340D01*
X174750Y149923D01*
X175295Y149697D01*
X175886D01*
X176431Y149923D01*
X176849Y150340D01*
X177075Y150886D01*
Y151476D01*
X176849Y152022D01*
X176431Y152439D01*
X175886Y152665D01*
D02*
G37*
G36*
X172343D02*
X171752D01*
X171206Y152439D01*
X170789Y152022D01*
X170563Y151476D01*
Y150886D01*
X170789Y150340D01*
X171206Y149923D01*
X171752Y149697D01*
X172343D01*
X172888Y149923D01*
X173305Y150340D01*
X173531Y150886D01*
Y151476D01*
X173305Y152022D01*
X172888Y152439D01*
X172343Y152665D01*
D02*
G37*
G36*
X168799D02*
X168209D01*
X167663Y152439D01*
X167246Y152022D01*
X167020Y151476D01*
Y150886D01*
X167246Y150340D01*
X167663Y149923D01*
X168209Y149697D01*
X168799D01*
X169345Y149923D01*
X169762Y150340D01*
X169988Y150886D01*
Y151476D01*
X169762Y152022D01*
X169345Y152439D01*
X168799Y152665D01*
D02*
G37*
G36*
X193602Y149122D02*
X193012D01*
X192466Y148896D01*
X192049Y148479D01*
X191823Y147933D01*
Y147343D01*
X192049Y146797D01*
X192466Y146379D01*
X193012Y146153D01*
X193602D01*
X194148Y146379D01*
X194565Y146797D01*
X194791Y147343D01*
Y147933D01*
X194565Y148479D01*
X194148Y148896D01*
X193602Y149122D01*
D02*
G37*
G36*
X190059D02*
X189469D01*
X188923Y148896D01*
X188505Y148479D01*
X188279Y147933D01*
Y147343D01*
X188505Y146797D01*
X188923Y146379D01*
X189469Y146153D01*
X190059D01*
X190604Y146379D01*
X191022Y146797D01*
X191248Y147343D01*
Y147933D01*
X191022Y148479D01*
X190604Y148896D01*
X190059Y149122D01*
D02*
G37*
G36*
X186516D02*
X185925D01*
X185380Y148896D01*
X184962Y148479D01*
X184736Y147933D01*
Y147343D01*
X184962Y146797D01*
X185380Y146379D01*
X185925Y146153D01*
X186516D01*
X187061Y146379D01*
X187479Y146797D01*
X187705Y147343D01*
Y147933D01*
X187479Y148479D01*
X187061Y148896D01*
X186516Y149122D01*
D02*
G37*
G36*
X182972Y149122D02*
X182382D01*
X181836Y148896D01*
X181419Y148478D01*
X181193Y147933D01*
Y147343D01*
X181419Y146797D01*
X181836Y146379D01*
X182382Y146153D01*
X182972D01*
X183518Y146379D01*
X183935Y146797D01*
X184161Y147343D01*
Y147933D01*
X183935Y148478D01*
X183518Y148896D01*
X182972Y149122D01*
D02*
G37*
G36*
X179429D02*
X178839D01*
X178293Y148896D01*
X177876Y148478D01*
X177650Y147933D01*
Y147343D01*
X177876Y146797D01*
X178293Y146379D01*
X178839Y146153D01*
X179429D01*
X179975Y146379D01*
X180392Y146797D01*
X180618Y147343D01*
Y147933D01*
X180392Y148478D01*
X179975Y148896D01*
X179429Y149122D01*
D02*
G37*
G36*
X175886D02*
X175295D01*
X174750Y148896D01*
X174332Y148478D01*
X174106Y147933D01*
Y147343D01*
X174332Y146797D01*
X174750Y146379D01*
X175295Y146153D01*
X175886D01*
X176431Y146379D01*
X176849Y146797D01*
X177075Y147343D01*
Y147933D01*
X176849Y148478D01*
X176431Y148896D01*
X175886Y149122D01*
D02*
G37*
G36*
X172343D02*
X171752D01*
X171206Y148896D01*
X170789Y148478D01*
X170563Y147933D01*
Y147343D01*
X170789Y146797D01*
X171206Y146379D01*
X171752Y146153D01*
X172343D01*
X172888Y146379D01*
X173305Y146797D01*
X173531Y147343D01*
Y147933D01*
X173305Y148478D01*
X172888Y148896D01*
X172343Y149122D01*
D02*
G37*
G36*
X168799D02*
X168209D01*
X167663Y148896D01*
X167246Y148478D01*
X167020Y147933D01*
Y147343D01*
X167246Y146797D01*
X167663Y146379D01*
X168209Y146153D01*
X168799D01*
X169345Y146379D01*
X169762Y146797D01*
X169988Y147343D01*
Y147933D01*
X169762Y148478D01*
X169345Y148896D01*
X168799Y149122D01*
D02*
G37*
G36*
X209055Y148531D02*
X208465D01*
X207919Y148305D01*
X207502Y147888D01*
X207276Y147343D01*
Y146752D01*
X207502Y146206D01*
X207919Y145789D01*
X208465Y145563D01*
X209055D01*
X209601Y145789D01*
X210018Y146206D01*
X210244Y146752D01*
Y147343D01*
X210018Y147888D01*
X209601Y148305D01*
X209055Y148531D01*
D02*
G37*
G36*
X196260Y143807D02*
X195669D01*
X195124Y143581D01*
X194706Y143164D01*
X194480Y142618D01*
Y142028D01*
X194706Y141482D01*
X195124Y141065D01*
X195669Y140839D01*
X196260D01*
X196805Y141065D01*
X197223Y141482D01*
X197449Y142028D01*
Y142618D01*
X197223Y143164D01*
X196805Y143581D01*
X196260Y143807D01*
D02*
G37*
G36*
X174213Y143020D02*
X173622D01*
X173077Y142794D01*
X172659Y142376D01*
X172433Y141831D01*
Y141240D01*
X172659Y140695D01*
X173077Y140277D01*
X173622Y140051D01*
X174213D01*
X174758Y140277D01*
X175176Y140695D01*
X175402Y141240D01*
Y141831D01*
X175176Y142376D01*
X174758Y142794D01*
X174213Y143020D01*
D02*
G37*
G36*
X153051Y141642D02*
X152461D01*
X151915Y141416D01*
X151498Y140998D01*
X151272Y140453D01*
Y139862D01*
X151498Y139317D01*
X151915Y138899D01*
X152461Y138673D01*
X153051D01*
X153597Y138899D01*
X154014Y139317D01*
X154240Y139862D01*
Y140453D01*
X154014Y140998D01*
X153597Y141416D01*
X153051Y141642D01*
D02*
G37*
G36*
X180512Y139870D02*
X179921D01*
X179376Y139644D01*
X178958Y139227D01*
X178732Y138681D01*
Y138091D01*
X178958Y137545D01*
X179376Y137127D01*
X179921Y136902D01*
X180512D01*
X181057Y137127D01*
X181475Y137545D01*
X181701Y138091D01*
Y138681D01*
X181475Y139227D01*
X181057Y139644D01*
X180512Y139870D01*
D02*
G37*
G36*
X204527Y135146D02*
X203937D01*
X203392Y134920D01*
X202974Y134502D01*
X202748Y133957D01*
Y133366D01*
X202974Y132821D01*
X203392Y132403D01*
X203937Y132177D01*
X204527D01*
X205073Y132403D01*
X205491Y132821D01*
X205716Y133366D01*
Y133957D01*
X205491Y134502D01*
X205073Y134920D01*
X204527Y135146D01*
D02*
G37*
G36*
X190354Y132783D02*
X189764D01*
X189218Y132557D01*
X188801Y132140D01*
X188575Y131595D01*
Y131004D01*
X188801Y130458D01*
X189218Y130041D01*
X189764Y129815D01*
X190354D01*
X190900Y130041D01*
X191317Y130458D01*
X191543Y131004D01*
Y131595D01*
X191317Y132140D01*
X190900Y132557D01*
X190354Y132783D01*
D02*
G37*
G36*
X163976Y132390D02*
X163386D01*
X162840Y132164D01*
X162423Y131746D01*
X162197Y131201D01*
Y130610D01*
X162423Y130065D01*
X162840Y129647D01*
X163386Y129421D01*
X163976D01*
X164522Y129647D01*
X164939Y130065D01*
X165165Y130610D01*
Y131201D01*
X164939Y131746D01*
X164522Y132164D01*
X163976Y132390D01*
D02*
G37*
G36*
X170669Y130028D02*
X170079D01*
X169533Y129802D01*
X169116Y129384D01*
X168890Y128839D01*
Y128248D01*
X169116Y127702D01*
X169533Y127285D01*
X170079Y127059D01*
X170669D01*
X171215Y127285D01*
X171632Y127702D01*
X171858Y128248D01*
Y128839D01*
X171632Y129384D01*
X171215Y129802D01*
X170669Y130028D01*
D02*
G37*
G36*
X189764Y125598D02*
X189173D01*
X188628Y125373D01*
X188210Y124955D01*
X187984Y124409D01*
Y123819D01*
X188210Y123273D01*
X188628Y122856D01*
X189173Y122630D01*
X189764D01*
X190309Y122856D01*
X190727Y123273D01*
X190953Y123819D01*
Y124409D01*
X190727Y124955D01*
X190309Y125373D01*
X189764Y125598D01*
D02*
G37*
G36*
X156496Y125303D02*
X155905D01*
X155360Y125077D01*
X154943Y124660D01*
X154717Y124114D01*
Y123524D01*
X154943Y122978D01*
X155360Y122561D01*
X155905Y122335D01*
X156496D01*
X157042Y122561D01*
X157459Y122978D01*
X157685Y123524D01*
Y124114D01*
X157459Y124660D01*
X157042Y125077D01*
X156496Y125303D01*
D02*
G37*
G36*
X182480Y124909D02*
X181890D01*
X181344Y124683D01*
X180927Y124266D01*
X180701Y123720D01*
Y123130D01*
X180927Y122584D01*
X181344Y122167D01*
X181890Y121941D01*
X182480D01*
X183026Y122167D01*
X183443Y122584D01*
X183669Y123130D01*
Y123720D01*
X183443Y124266D01*
X183026Y124683D01*
X182480Y124909D01*
D02*
G37*
G36*
X189862Y118905D02*
X189272D01*
X188726Y118679D01*
X188309Y118262D01*
X188083Y117717D01*
Y117126D01*
X188309Y116580D01*
X188726Y116163D01*
X189272Y115937D01*
X189862D01*
X190408Y116163D01*
X190825Y116580D01*
X191051Y117126D01*
Y117717D01*
X190825Y118262D01*
X190408Y118679D01*
X189862Y118905D01*
D02*
G37*
G36*
X156299Y117724D02*
X155709D01*
X155163Y117499D01*
X154746Y117081D01*
X154520Y116535D01*
Y115945D01*
X154746Y115399D01*
X155163Y114982D01*
X155709Y114756D01*
X156299D01*
X156845Y114982D01*
X157262Y115399D01*
X157488Y115945D01*
Y116535D01*
X157262Y117081D01*
X156845Y117499D01*
X156299Y117724D01*
D02*
G37*
G36*
X174606Y117035D02*
X174016D01*
X173470Y116809D01*
X173053Y116392D01*
X172827Y115846D01*
Y115256D01*
X173053Y114710D01*
X173470Y114293D01*
X174016Y114067D01*
X174606D01*
X175152Y114293D01*
X175569Y114710D01*
X175795Y115256D01*
Y115846D01*
X175569Y116392D01*
X175152Y116809D01*
X174606Y117035D01*
D02*
G37*
G36*
X195965Y114673D02*
X195374D01*
X194828Y114447D01*
X194411Y114030D01*
X194185Y113484D01*
Y112894D01*
X194411Y112348D01*
X194828Y111931D01*
X195374Y111705D01*
X195965D01*
X196510Y111931D01*
X196928Y112348D01*
X197153Y112894D01*
Y113484D01*
X196928Y114030D01*
X196510Y114447D01*
X195965Y114673D01*
D02*
G37*
G36*
X144193Y111917D02*
X143602D01*
X143057Y111691D01*
X142639Y111274D01*
X142413Y110728D01*
Y110138D01*
X142639Y109592D01*
X143057Y109175D01*
X143602Y108949D01*
X144193D01*
X144738Y109175D01*
X145156Y109592D01*
X145382Y110138D01*
Y110728D01*
X145156Y111274D01*
X144738Y111691D01*
X144193Y111917D01*
D02*
G37*
G36*
X198622Y111819D02*
X198031D01*
X197486Y111593D01*
X197069Y111175D01*
X196843Y110630D01*
Y110039D01*
X197069Y109494D01*
X197486Y109076D01*
X198031Y108850D01*
X198622D01*
X199168Y109076D01*
X199585Y109494D01*
X199811Y110039D01*
Y110630D01*
X199585Y111175D01*
X199168Y111593D01*
X198622Y111819D01*
D02*
G37*
G36*
X157972Y107783D02*
X157382D01*
X156836Y107557D01*
X156419Y107140D01*
X156193Y106595D01*
Y106004D01*
X156419Y105458D01*
X156836Y105041D01*
X157382Y104815D01*
X157972D01*
X158518Y105041D01*
X158935Y105458D01*
X159161Y106004D01*
Y106595D01*
X158935Y107140D01*
X158518Y107557D01*
X157972Y107783D01*
D02*
G37*
G36*
X149492Y106334D02*
X148901D01*
X148356Y106109D01*
X147938Y105691D01*
X147712Y105146D01*
Y104555D01*
X147938Y104009D01*
X148356Y103592D01*
X148901Y103366D01*
X149492D01*
X150037Y103592D01*
X150455Y104009D01*
X150681Y104555D01*
Y105146D01*
X150455Y105691D01*
X150037Y106109D01*
X149492Y106334D01*
D02*
G37*
G36*
X189567Y106012D02*
X188976D01*
X188431Y105786D01*
X188013Y105368D01*
X187787Y104823D01*
Y104232D01*
X188013Y103687D01*
X188431Y103269D01*
X188976Y103043D01*
X189567D01*
X190112Y103269D01*
X190530Y103687D01*
X190756Y104232D01*
Y104823D01*
X190530Y105368D01*
X190112Y105786D01*
X189567Y106012D01*
D02*
G37*
G36*
X171052Y105921D02*
X170462D01*
X169916Y105695D01*
X169499Y105277D01*
X169273Y104732D01*
Y104141D01*
X169499Y103596D01*
X169916Y103178D01*
X170462Y102952D01*
X171052D01*
X171598Y103178D01*
X172015Y103596D01*
X172241Y104141D01*
Y104732D01*
X172015Y105277D01*
X171598Y105695D01*
X171052Y105921D01*
D02*
G37*
G36*
X155807Y102272D02*
X155217D01*
X154671Y102046D01*
X154253Y101628D01*
X154028Y101083D01*
Y100492D01*
X154253Y99947D01*
X154671Y99529D01*
X155217Y99303D01*
X155807D01*
X156353Y99529D01*
X156770Y99947D01*
X156996Y100492D01*
Y101083D01*
X156770Y101628D01*
X156353Y102046D01*
X155807Y102272D01*
D02*
G37*
G36*
X144699Y101070D02*
X144109D01*
X143563Y100844D01*
X143146Y100427D01*
X142920Y99881D01*
Y99291D01*
X143146Y98745D01*
X143563Y98328D01*
X144109Y98102D01*
X144699D01*
X145245Y98328D01*
X145662Y98745D01*
X145888Y99291D01*
Y99881D01*
X145662Y100427D01*
X145245Y100844D01*
X144699Y101070D01*
D02*
G37*
G36*
X168701Y100894D02*
X168110D01*
X167565Y100668D01*
X167147Y100250D01*
X166921Y99705D01*
Y99114D01*
X167147Y98569D01*
X167565Y98151D01*
X168110Y97925D01*
X168701D01*
X169246Y98151D01*
X169664Y98569D01*
X169890Y99114D01*
Y99705D01*
X169664Y100250D01*
X169246Y100668D01*
X168701Y100894D01*
D02*
G37*
G36*
X190059Y100697D02*
X189469D01*
X188923Y100471D01*
X188505Y100053D01*
X188279Y99508D01*
Y98917D01*
X188505Y98372D01*
X188923Y97954D01*
X189469Y97728D01*
X190059D01*
X190604Y97954D01*
X191022Y98372D01*
X191248Y98917D01*
Y99508D01*
X191022Y100053D01*
X190604Y100471D01*
X190059Y100697D01*
D02*
G37*
G36*
X186516D02*
X185925D01*
X185380Y100471D01*
X184962Y100053D01*
X184736Y99508D01*
Y98917D01*
X184962Y98372D01*
X185380Y97954D01*
X185925Y97728D01*
X186516D01*
X187061Y97954D01*
X187479Y98372D01*
X187705Y98917D01*
Y99508D01*
X187479Y100053D01*
X187061Y100471D01*
X186516Y100697D01*
D02*
G37*
G36*
X182972D02*
X182382D01*
X181836Y100471D01*
X181419Y100053D01*
X181193Y99508D01*
Y98917D01*
X181419Y98372D01*
X181836Y97954D01*
X182382Y97728D01*
X182972D01*
X183518Y97954D01*
X183935Y98372D01*
X184161Y98917D01*
Y99508D01*
X183935Y100053D01*
X183518Y100471D01*
X182972Y100697D01*
D02*
G37*
G36*
X179429D02*
X178839D01*
X178293Y100471D01*
X177876Y100053D01*
X177650Y99508D01*
Y98917D01*
X177876Y98372D01*
X178293Y97954D01*
X178839Y97728D01*
X179429D01*
X179975Y97954D01*
X180392Y98372D01*
X180618Y98917D01*
Y99508D01*
X180392Y100053D01*
X179975Y100471D01*
X179429Y100697D01*
D02*
G37*
G36*
X175886D02*
X175295D01*
X174750Y100471D01*
X174332Y100053D01*
X174106Y99508D01*
Y98917D01*
X174332Y98372D01*
X174750Y97954D01*
X175295Y97728D01*
X175886D01*
X176431Y97954D01*
X176849Y98372D01*
X177075Y98917D01*
Y99508D01*
X176849Y100053D01*
X176431Y100471D01*
X175886Y100697D01*
D02*
G37*
G36*
X132185Y97350D02*
X131595D01*
X131049Y97124D01*
X130631Y96707D01*
X130405Y96161D01*
Y95571D01*
X130631Y95025D01*
X131049Y94608D01*
X131595Y94382D01*
X132185D01*
X132730Y94608D01*
X133148Y95025D01*
X133374Y95571D01*
Y96161D01*
X133148Y96707D01*
X132730Y97124D01*
X132185Y97350D01*
D02*
G37*
G36*
X182972Y97154D02*
X182382D01*
X181836Y96928D01*
X181419Y96510D01*
X181193Y95964D01*
Y95374D01*
X181419Y94828D01*
X181836Y94411D01*
X182382Y94185D01*
X182972D01*
X183518Y94411D01*
X183935Y94828D01*
X184161Y95374D01*
Y95964D01*
X183935Y96510D01*
X183518Y96928D01*
X182972Y97154D01*
D02*
G37*
G36*
X179429D02*
X178839D01*
X178293Y96928D01*
X177876Y96510D01*
X177650Y95964D01*
Y95374D01*
X177876Y94828D01*
X178293Y94411D01*
X178839Y94185D01*
X179429D01*
X179975Y94411D01*
X180392Y94828D01*
X180618Y95374D01*
Y95964D01*
X180392Y96510D01*
X179975Y96928D01*
X179429Y97154D01*
D02*
G37*
G36*
X175886D02*
X175295D01*
X174750Y96928D01*
X174332Y96510D01*
X174106Y95964D01*
Y95374D01*
X174332Y94828D01*
X174750Y94411D01*
X175295Y94185D01*
X175886D01*
X176431Y94411D01*
X176849Y94828D01*
X177075Y95374D01*
Y95964D01*
X176849Y96510D01*
X176431Y96928D01*
X175886Y97154D01*
D02*
G37*
G36*
X164952Y97100D02*
X164361D01*
X163816Y96874D01*
X163398Y96456D01*
X163172Y95911D01*
Y95320D01*
X163398Y94775D01*
X163816Y94357D01*
X164361Y94131D01*
X164952D01*
X165497Y94357D01*
X165915Y94775D01*
X166141Y95320D01*
Y95911D01*
X165915Y96456D01*
X165497Y96874D01*
X164952Y97100D01*
D02*
G37*
G36*
X150984Y96957D02*
X150394D01*
X149848Y96731D01*
X149431Y96313D01*
X149205Y95768D01*
Y95177D01*
X149431Y94632D01*
X149848Y94214D01*
X150394Y93988D01*
X150984D01*
X151530Y94214D01*
X151947Y94632D01*
X152173Y95177D01*
Y95768D01*
X151947Y96313D01*
X151530Y96731D01*
X150984Y96957D01*
D02*
G37*
G36*
X123031Y94299D02*
X122441D01*
X121896Y94073D01*
X121478Y93656D01*
X121252Y93110D01*
Y92520D01*
X121478Y91974D01*
X121896Y91557D01*
X122441Y91331D01*
X123031D01*
X123577Y91557D01*
X123995Y91974D01*
X124221Y92520D01*
Y93110D01*
X123995Y93656D01*
X123577Y94073D01*
X123031Y94299D01*
D02*
G37*
G36*
X182972Y93610D02*
X182382D01*
X181836Y93384D01*
X181419Y92967D01*
X181193Y92421D01*
Y91831D01*
X181419Y91285D01*
X181836Y90868D01*
X182382Y90642D01*
X182972D01*
X183518Y90868D01*
X183935Y91285D01*
X184161Y91831D01*
Y92421D01*
X183935Y92967D01*
X183518Y93384D01*
X182972Y93610D01*
D02*
G37*
G36*
X179429D02*
X178839D01*
X178293Y93384D01*
X177876Y92967D01*
X177650Y92421D01*
Y91831D01*
X177876Y91285D01*
X178293Y90868D01*
X178839Y90642D01*
X179429D01*
X179975Y90868D01*
X180392Y91285D01*
X180618Y91831D01*
Y92421D01*
X180392Y92967D01*
X179975Y93384D01*
X179429Y93610D01*
D02*
G37*
G36*
X175886D02*
X175295D01*
X174750Y93384D01*
X174332Y92967D01*
X174106Y92421D01*
Y91831D01*
X174332Y91285D01*
X174750Y90868D01*
X175295Y90642D01*
X175886D01*
X176431Y90868D01*
X176849Y91285D01*
X177075Y91831D01*
Y92421D01*
X176849Y92967D01*
X176431Y93384D01*
X175886Y93610D01*
D02*
G37*
G36*
X170532Y91374D02*
X169942D01*
X169396Y91148D01*
X168979Y90731D01*
X168753Y90185D01*
Y89595D01*
X168979Y89049D01*
X169396Y88631D01*
X169942Y88406D01*
X170532D01*
X171078Y88631D01*
X171495Y89049D01*
X171721Y89595D01*
Y90185D01*
X171495Y90731D01*
X171078Y91148D01*
X170532Y91374D01*
D02*
G37*
G36*
X182972Y90067D02*
X182382D01*
X181836Y89841D01*
X181419Y89423D01*
X181193Y88878D01*
Y88287D01*
X181419Y87742D01*
X181836Y87324D01*
X182382Y87098D01*
X182972D01*
X183518Y87324D01*
X183935Y87742D01*
X184161Y88287D01*
Y88878D01*
X183935Y89423D01*
X183518Y89841D01*
X182972Y90067D01*
D02*
G37*
G36*
X179429D02*
X178839D01*
X178293Y89841D01*
X177876Y89423D01*
X177650Y88878D01*
Y88287D01*
X177876Y87742D01*
X178293Y87324D01*
X178839Y87098D01*
X179429D01*
X179975Y87324D01*
X180392Y87742D01*
X180618Y88287D01*
Y88878D01*
X180392Y89423D01*
X179975Y89841D01*
X179429Y90067D01*
D02*
G37*
G36*
X175886D02*
X175295D01*
X174750Y89841D01*
X174332Y89423D01*
X174106Y88878D01*
Y88287D01*
X174332Y87742D01*
X174750Y87324D01*
X175295Y87098D01*
X175886D01*
X176431Y87324D01*
X176849Y87742D01*
X177075Y88287D01*
Y88878D01*
X176849Y89423D01*
X176431Y89841D01*
X175886Y90067D01*
D02*
G37*
G36*
X144193Y89575D02*
X143602D01*
X143057Y89349D01*
X142639Y88931D01*
X142413Y88386D01*
Y87795D01*
X142639Y87250D01*
X143057Y86832D01*
X143602Y86606D01*
X144193D01*
X144738Y86832D01*
X144931Y87025D01*
X145222Y86734D01*
X145353Y86680D01*
X145243Y86310D01*
X144653D01*
X144107Y86084D01*
X143757Y85734D01*
X143521Y85695D01*
X143284Y85734D01*
X142934Y86084D01*
X142389Y86310D01*
X141798D01*
X141253Y86084D01*
X140835Y85667D01*
X140609Y85121D01*
Y84531D01*
X140835Y83985D01*
X141253Y83568D01*
X141798Y83342D01*
X142389D01*
X142934Y83568D01*
X143284Y83918D01*
X143521Y83957D01*
X143757Y83918D01*
X144107Y83568D01*
X144653Y83342D01*
X145243D01*
X145789Y83568D01*
X146206Y83985D01*
X146432Y84531D01*
Y85121D01*
X146206Y85667D01*
X145789Y86084D01*
X145658Y86138D01*
X145768Y86508D01*
X146358D01*
X146904Y86734D01*
X147321Y87151D01*
X147547Y87697D01*
Y88287D01*
X147321Y88833D01*
X146904Y89250D01*
X146358Y89476D01*
X145768D01*
X145222Y89250D01*
X145029Y89058D01*
X144738Y89349D01*
X144193Y89575D01*
D02*
G37*
G36*
X182972Y86524D02*
X182382D01*
X181836Y86298D01*
X181419Y85880D01*
X181193Y85335D01*
Y84744D01*
X181419Y84199D01*
X181836Y83781D01*
X182382Y83555D01*
X182972D01*
X183518Y83781D01*
X183935Y84199D01*
X184161Y84744D01*
Y85335D01*
X183935Y85880D01*
X183518Y86298D01*
X182972Y86524D01*
D02*
G37*
G36*
X179429D02*
X178839D01*
X178293Y86298D01*
X177876Y85880D01*
X177650Y85335D01*
Y84744D01*
X177876Y84199D01*
X178293Y83781D01*
X178839Y83555D01*
X179429D01*
X179975Y83781D01*
X180392Y84199D01*
X180618Y84744D01*
Y85335D01*
X180392Y85880D01*
X179975Y86298D01*
X179429Y86524D01*
D02*
G37*
G36*
X175886D02*
X175295D01*
X174750Y86298D01*
X174332Y85880D01*
X174106Y85335D01*
Y84744D01*
X174332Y84199D01*
X174750Y83781D01*
X175295Y83555D01*
X175886D01*
X176431Y83781D01*
X176849Y84199D01*
X177075Y84744D01*
Y85335D01*
X176849Y85880D01*
X176431Y86298D01*
X175886Y86524D01*
D02*
G37*
G36*
X159646Y85933D02*
X159055D01*
X158510Y85707D01*
X158092Y85290D01*
X157866Y84744D01*
Y84154D01*
X158092Y83608D01*
X158510Y83191D01*
X159055Y82965D01*
X159646D01*
X160191Y83191D01*
X160609Y83608D01*
X160835Y84154D01*
Y84744D01*
X160609Y85290D01*
X160191Y85707D01*
X159646Y85933D01*
D02*
G37*
G36*
X190059Y82980D02*
X189469D01*
X188923Y82754D01*
X188505Y82337D01*
X188279Y81791D01*
Y81201D01*
X188505Y80655D01*
X188923Y80238D01*
X189469Y80012D01*
X190059D01*
X190604Y80238D01*
X191022Y80655D01*
X191248Y81201D01*
Y81791D01*
X191022Y82337D01*
X190604Y82754D01*
X190059Y82980D01*
D02*
G37*
G36*
X186516D02*
X185925D01*
X185380Y82754D01*
X184962Y82337D01*
X184736Y81791D01*
Y81201D01*
X184962Y80655D01*
X185380Y80238D01*
X185925Y80012D01*
X186516D01*
X187061Y80238D01*
X187479Y80655D01*
X187705Y81201D01*
Y81791D01*
X187479Y82337D01*
X187061Y82754D01*
X186516Y82980D01*
D02*
G37*
G36*
X182972D02*
X182382D01*
X181836Y82754D01*
X181419Y82337D01*
X181193Y81791D01*
Y81201D01*
X181419Y80655D01*
X181836Y80238D01*
X182382Y80012D01*
X182972D01*
X183518Y80238D01*
X183935Y80655D01*
X184161Y81201D01*
Y81791D01*
X183935Y82337D01*
X183518Y82754D01*
X182972Y82980D01*
D02*
G37*
G36*
X179429D02*
X178839D01*
X178293Y82754D01*
X177876Y82337D01*
X177650Y81791D01*
Y81201D01*
X177876Y80655D01*
X178293Y80238D01*
X178839Y80012D01*
X179429D01*
X179975Y80238D01*
X180392Y80655D01*
X180618Y81201D01*
Y81791D01*
X180392Y82337D01*
X179975Y82754D01*
X179429Y82980D01*
D02*
G37*
G36*
X175886D02*
X175295D01*
X174750Y82754D01*
X174332Y82337D01*
X174106Y81791D01*
Y81201D01*
X174332Y80655D01*
X174750Y80238D01*
X175295Y80012D01*
X175886D01*
X176431Y80238D01*
X176849Y80655D01*
X177075Y81201D01*
Y81791D01*
X176849Y82337D01*
X176431Y82754D01*
X175886Y82980D01*
D02*
G37*
G36*
X190059Y79437D02*
X189469D01*
X188923Y79211D01*
X188505Y78794D01*
X188279Y78248D01*
Y77658D01*
X188505Y77112D01*
X188923Y76695D01*
X189469Y76468D01*
X190059D01*
X190604Y76695D01*
X191022Y77112D01*
X191248Y77658D01*
Y78248D01*
X191022Y78794D01*
X190604Y79211D01*
X190059Y79437D01*
D02*
G37*
G36*
X186516D02*
X185925D01*
X185380Y79211D01*
X184962Y78794D01*
X184736Y78248D01*
Y77658D01*
X184962Y77112D01*
X185380Y76695D01*
X185925Y76468D01*
X186516D01*
X187061Y76695D01*
X187479Y77112D01*
X187705Y77658D01*
Y78248D01*
X187479Y78794D01*
X187061Y79211D01*
X186516Y79437D01*
D02*
G37*
G36*
X182972D02*
X182382D01*
X181836Y79211D01*
X181419Y78794D01*
X181193Y78248D01*
Y77658D01*
X181419Y77112D01*
X181836Y76695D01*
X182382Y76468D01*
X182972D01*
X183518Y76695D01*
X183935Y77112D01*
X184161Y77658D01*
Y78248D01*
X183935Y78794D01*
X183518Y79211D01*
X182972Y79437D01*
D02*
G37*
G36*
X179429D02*
X178839D01*
X178293Y79211D01*
X177876Y78794D01*
X177650Y78248D01*
Y77658D01*
X177876Y77112D01*
X178293Y76695D01*
X178839Y76468D01*
X179429D01*
X179975Y76695D01*
X180392Y77112D01*
X180618Y77658D01*
Y78248D01*
X180392Y78794D01*
X179975Y79211D01*
X179429Y79437D01*
D02*
G37*
G36*
X175886D02*
X175295D01*
X174750Y79211D01*
X174332Y78794D01*
X174106Y78248D01*
Y77658D01*
X174332Y77112D01*
X174750Y76695D01*
X175295Y76468D01*
X175886D01*
X176431Y76695D01*
X176849Y77112D01*
X177075Y77658D01*
Y78248D01*
X176849Y78794D01*
X176431Y79211D01*
X175886Y79437D01*
D02*
G37*
G36*
X152559Y79240D02*
X151969D01*
X151423Y79014D01*
X151005Y78597D01*
X150779Y78051D01*
Y77461D01*
X151005Y76915D01*
X151423Y76498D01*
X151969Y76272D01*
X152559D01*
X153104Y76498D01*
X153522Y76915D01*
X153748Y77461D01*
Y78051D01*
X153522Y78597D01*
X153104Y79014D01*
X152559Y79240D01*
D02*
G37*
G36*
X135531Y78158D02*
X134941D01*
X134396Y77931D01*
X133978Y77514D01*
X133752Y76968D01*
Y76378D01*
X133978Y75832D01*
X134396Y75415D01*
X134941Y75189D01*
X135531D01*
X136077Y75415D01*
X136495Y75832D01*
X136721Y76378D01*
Y76968D01*
X136495Y77514D01*
X136077Y77931D01*
X135531Y78158D01*
D02*
G37*
G36*
X126673Y74221D02*
X126083D01*
X125537Y73994D01*
X125120Y73577D01*
X124894Y73032D01*
Y72441D01*
X125120Y71895D01*
X125537Y71478D01*
X126083Y71252D01*
X126673D01*
X127219Y71478D01*
X127636Y71895D01*
X127862Y72441D01*
Y73032D01*
X127636Y73577D01*
X127219Y73994D01*
X126673Y74221D01*
D02*
G37*
G36*
X192323Y72941D02*
X191732D01*
X191187Y72715D01*
X190769Y72298D01*
X190543Y71752D01*
Y71162D01*
X190769Y70616D01*
X191187Y70198D01*
X191732Y69972D01*
X192323D01*
X192868Y70198D01*
X193286Y70616D01*
X193512Y71162D01*
Y71752D01*
X193286Y72298D01*
X192868Y72715D01*
X192323Y72941D01*
D02*
G37*
G36*
X170784Y72570D02*
X170194D01*
X169648Y72344D01*
X169231Y71927D01*
X169005Y71381D01*
Y70791D01*
X169231Y70245D01*
X169648Y69828D01*
X170194Y69602D01*
X170784D01*
X171330Y69828D01*
X171747Y70245D01*
X171973Y70791D01*
Y71381D01*
X171747Y71927D01*
X171330Y72344D01*
X170784Y72570D01*
D02*
G37*
G36*
X144980Y72350D02*
X144390D01*
X143844Y72124D01*
X143427Y71707D01*
X143201Y71161D01*
Y70571D01*
X143427Y70025D01*
X143844Y69608D01*
X144390Y69382D01*
X144980D01*
X145526Y69608D01*
X145943Y70025D01*
X146169Y70571D01*
Y71161D01*
X145943Y71707D01*
X145526Y72124D01*
X144980Y72350D01*
D02*
G37*
G36*
X120374Y72252D02*
X119783D01*
X119238Y72026D01*
X118821Y71609D01*
X118595Y71063D01*
Y70473D01*
X118821Y69927D01*
X119238Y69509D01*
X119783Y69283D01*
X120374D01*
X120920Y69509D01*
X121337Y69927D01*
X121563Y70473D01*
Y71063D01*
X121337Y71609D01*
X120920Y72026D01*
X120374Y72252D01*
D02*
G37*
G36*
X159646Y68217D02*
X159055D01*
X158510Y67991D01*
X158092Y67573D01*
X157866Y67027D01*
Y66437D01*
X158092Y65891D01*
X158510Y65474D01*
X159055Y65248D01*
X159646D01*
X160191Y65474D01*
X160609Y65891D01*
X160835Y66437D01*
Y67027D01*
X160609Y67573D01*
X160191Y67991D01*
X159646Y68217D01*
D02*
G37*
G36*
X180905Y65461D02*
X180315D01*
X179770Y65235D01*
X179352Y64817D01*
X179126Y64272D01*
Y63681D01*
X179352Y63136D01*
X179770Y62718D01*
X180315Y62492D01*
X180905D01*
X181451Y62718D01*
X181869Y63136D01*
X182095Y63681D01*
Y64272D01*
X181869Y64817D01*
X181451Y65235D01*
X180905Y65461D01*
D02*
G37*
G36*
X161319Y60343D02*
X160728D01*
X160183Y60117D01*
X159765Y59699D01*
X159539Y59153D01*
Y58563D01*
X159765Y58017D01*
X160183Y57600D01*
X160728Y57374D01*
X161319D01*
X161864Y57600D01*
X162282Y58017D01*
X162508Y58563D01*
Y59153D01*
X162282Y59699D01*
X161864Y60117D01*
X161319Y60343D01*
D02*
G37*
G36*
X157775D02*
X157185D01*
X156640Y60117D01*
X156222Y59699D01*
X155996Y59153D01*
Y58563D01*
X156222Y58017D01*
X156640Y57600D01*
X157185Y57374D01*
X157775D01*
X158321Y57600D01*
X158739Y58017D01*
X158965Y58563D01*
Y59153D01*
X158739Y59699D01*
X158321Y60117D01*
X157775Y60343D01*
D02*
G37*
G36*
X154232D02*
X153642D01*
X153096Y60117D01*
X152679Y59699D01*
X152453Y59153D01*
Y58563D01*
X152679Y58017D01*
X153096Y57600D01*
X153642Y57374D01*
X154232D01*
X154778Y57600D01*
X155195Y58017D01*
X155421Y58563D01*
Y59153D01*
X155195Y59699D01*
X154778Y60117D01*
X154232Y60343D01*
D02*
G37*
G36*
X150689D02*
X150099D01*
X149553Y60117D01*
X149135Y59699D01*
X148909Y59153D01*
Y58563D01*
X149135Y58017D01*
X149553Y57600D01*
X150099Y57374D01*
X150689D01*
X151234Y57600D01*
X151652Y58017D01*
X151878Y58563D01*
Y59153D01*
X151652Y59699D01*
X151234Y60117D01*
X150689Y60343D01*
D02*
G37*
G36*
X165302Y58571D02*
X164711D01*
X164166Y58346D01*
X163748Y57928D01*
X163522Y57383D01*
Y56792D01*
X163748Y56247D01*
X164166Y55829D01*
X164711Y55603D01*
X165302D01*
X165847Y55829D01*
X166265Y56247D01*
X166491Y56792D01*
Y57383D01*
X166265Y57928D01*
X165847Y58346D01*
X165302Y58571D01*
D02*
G37*
G36*
X168772Y58533D02*
X168181D01*
X167636Y58307D01*
X167218Y57890D01*
X166992Y57344D01*
Y56754D01*
X167218Y56208D01*
X167636Y55791D01*
X168181Y55565D01*
X168772D01*
X169317Y55791D01*
X169735Y56208D01*
X169961Y56754D01*
Y57344D01*
X169735Y57890D01*
X169317Y58307D01*
X168772Y58533D01*
D02*
G37*
G36*
X161319Y56799D02*
X160728D01*
X160183Y56573D01*
X159765Y56156D01*
X159539Y55610D01*
Y55020D01*
X159765Y54474D01*
X160183Y54057D01*
X160728Y53831D01*
X161319D01*
X161864Y54057D01*
X162282Y54474D01*
X162508Y55020D01*
Y55610D01*
X162282Y56156D01*
X161864Y56573D01*
X161319Y56799D01*
D02*
G37*
G36*
X157775D02*
X157185D01*
X156640Y56573D01*
X156222Y56156D01*
X155996Y55610D01*
Y55020D01*
X156222Y54474D01*
X156640Y54057D01*
X157185Y53831D01*
X157775D01*
X158321Y54057D01*
X158739Y54474D01*
X158965Y55020D01*
Y55610D01*
X158739Y56156D01*
X158321Y56573D01*
X157775Y56799D01*
D02*
G37*
G36*
X154232D02*
X153642D01*
X153096Y56573D01*
X152679Y56156D01*
X152453Y55610D01*
Y55020D01*
X152679Y54474D01*
X153096Y54057D01*
X153642Y53831D01*
X154232D01*
X154778Y54057D01*
X155195Y54474D01*
X155421Y55020D01*
Y55610D01*
X155195Y56156D01*
X154778Y56573D01*
X154232Y56799D01*
D02*
G37*
G36*
X150689D02*
X150099D01*
X149553Y56573D01*
X149135Y56156D01*
X148909Y55610D01*
Y55020D01*
X149135Y54474D01*
X149553Y54057D01*
X150099Y53831D01*
X150689D01*
X151234Y54057D01*
X151652Y54474D01*
X151878Y55020D01*
Y55610D01*
X151652Y56156D01*
X151234Y56573D01*
X150689Y56799D01*
D02*
G37*
G36*
X165302Y54634D02*
X164711D01*
X164166Y54409D01*
X163748Y53991D01*
X163522Y53446D01*
Y52855D01*
X163748Y52310D01*
X164166Y51892D01*
X164711Y51666D01*
X165302D01*
X165847Y51892D01*
X166265Y52310D01*
X166491Y52855D01*
Y53446D01*
X166265Y53991D01*
X165847Y54409D01*
X165302Y54634D01*
D02*
G37*
G36*
X182972Y54634D02*
X182382D01*
X181836Y54408D01*
X181419Y53990D01*
X181193Y53445D01*
Y52854D01*
X181419Y52309D01*
X181836Y51891D01*
X182382Y51665D01*
X182972D01*
X183518Y51891D01*
X183935Y52309D01*
X184161Y52854D01*
Y53445D01*
X183935Y53990D01*
X183518Y54408D01*
X182972Y54634D01*
D02*
G37*
G36*
X179429D02*
X178839D01*
X178293Y54408D01*
X177876Y53990D01*
X177650Y53445D01*
Y52854D01*
X177876Y52309D01*
X178293Y51891D01*
X178839Y51665D01*
X179429D01*
X179975Y51891D01*
X180392Y52309D01*
X180618Y52854D01*
Y53445D01*
X180392Y53990D01*
X179975Y54408D01*
X179429Y54634D01*
D02*
G37*
G36*
X175886D02*
X175295D01*
X174750Y54408D01*
X174332Y53990D01*
X174106Y53445D01*
Y52854D01*
X174332Y52309D01*
X174750Y51891D01*
X175295Y51665D01*
X175886D01*
X176431Y51891D01*
X176849Y52309D01*
X177075Y52854D01*
Y53445D01*
X176849Y53990D01*
X176431Y54408D01*
X175886Y54634D01*
D02*
G37*
G36*
X172343D02*
X171752D01*
X171206Y54408D01*
X170789Y53990D01*
X170563Y53445D01*
Y52854D01*
X170789Y52309D01*
X171206Y51891D01*
X171752Y51665D01*
X172343D01*
X172888Y51891D01*
X173305Y52309D01*
X173531Y52854D01*
Y53445D01*
X173305Y53990D01*
X172888Y54408D01*
X172343Y54634D01*
D02*
G37*
G36*
X168799D02*
X168209D01*
X167663Y54408D01*
X167246Y53990D01*
X167020Y53445D01*
Y52854D01*
X167246Y52309D01*
X167663Y51891D01*
X168209Y51665D01*
X168799D01*
X169345Y51891D01*
X169762Y52309D01*
X169988Y52854D01*
Y53445D01*
X169762Y53990D01*
X169345Y54408D01*
X168799Y54634D01*
D02*
G37*
G36*
X165302Y51091D02*
X164711D01*
X164166Y50865D01*
X163748Y50448D01*
X163522Y49902D01*
Y49312D01*
X163748Y48766D01*
X164166Y48349D01*
X164711Y48123D01*
X165302D01*
X165847Y48349D01*
X166265Y48766D01*
X166491Y49312D01*
Y49902D01*
X166265Y50448D01*
X165847Y50865D01*
X165302Y51091D01*
D02*
G37*
G36*
X182972Y51091D02*
X182382D01*
X181836Y50865D01*
X181419Y50447D01*
X181193Y49902D01*
Y49311D01*
X181419Y48766D01*
X181836Y48348D01*
X182382Y48122D01*
X182972D01*
X183518Y48348D01*
X183935Y48766D01*
X184161Y49311D01*
Y49902D01*
X183935Y50447D01*
X183518Y50865D01*
X182972Y51091D01*
D02*
G37*
G36*
X179429D02*
X178839D01*
X178293Y50865D01*
X177876Y50447D01*
X177650Y49902D01*
Y49311D01*
X177876Y48766D01*
X178293Y48348D01*
X178839Y48122D01*
X179429D01*
X179975Y48348D01*
X180392Y48766D01*
X180618Y49311D01*
Y49902D01*
X180392Y50447D01*
X179975Y50865D01*
X179429Y51091D01*
D02*
G37*
G36*
X175886D02*
X175295D01*
X174750Y50865D01*
X174332Y50447D01*
X174106Y49902D01*
Y49311D01*
X174332Y48766D01*
X174750Y48348D01*
X175295Y48122D01*
X175886D01*
X176431Y48348D01*
X176849Y48766D01*
X177075Y49311D01*
Y49902D01*
X176849Y50447D01*
X176431Y50865D01*
X175886Y51091D01*
D02*
G37*
G36*
X172343D02*
X171752D01*
X171206Y50865D01*
X170789Y50447D01*
X170563Y49902D01*
Y49311D01*
X170789Y48766D01*
X171206Y48348D01*
X171752Y48122D01*
X172343D01*
X172888Y48348D01*
X173305Y48766D01*
X173531Y49311D01*
Y49902D01*
X173305Y50447D01*
X172888Y50865D01*
X172343Y51091D01*
D02*
G37*
G36*
X168799D02*
X168209D01*
X167663Y50865D01*
X167246Y50447D01*
X167020Y49902D01*
Y49311D01*
X167246Y48766D01*
X167663Y48348D01*
X168209Y48122D01*
X168799D01*
X169345Y48348D01*
X169762Y48766D01*
X169988Y49311D01*
Y49902D01*
X169762Y50447D01*
X169345Y50865D01*
X168799Y51091D01*
D02*
G37*
G36*
X172343Y47547D02*
X171752D01*
X171206Y47321D01*
X170789Y46904D01*
X170563Y46358D01*
Y45768D01*
X170676Y45494D01*
X170431Y45175D01*
X170110Y45199D01*
X169893Y45537D01*
X169988Y45768D01*
Y46358D01*
X169762Y46904D01*
X169345Y47321D01*
X168799Y47547D01*
X168209D01*
X167663Y47321D01*
X167246Y46904D01*
X167020Y46358D01*
Y45768D01*
X167246Y45222D01*
X167663Y44805D01*
X168209Y44579D01*
X168542D01*
X168812Y44184D01*
X168693Y43898D01*
Y43307D01*
X168919Y42762D01*
X169336Y42344D01*
X169882Y42118D01*
X170472D01*
X171018Y42344D01*
X171435Y42762D01*
X171661Y43307D01*
Y43898D01*
X171519Y44243D01*
X171633Y44408D01*
X171812Y44579D01*
X172343D01*
X172888Y44805D01*
X173305Y45222D01*
X173531Y45768D01*
Y46358D01*
X173305Y46904D01*
X172888Y47321D01*
X172343Y47547D01*
D02*
G37*
G36*
X182972D02*
X182382D01*
X181836Y47321D01*
X181419Y46904D01*
X181193Y46358D01*
Y45768D01*
X181419Y45222D01*
X181836Y44805D01*
X182382Y44579D01*
X182972D01*
X183518Y44805D01*
X183935Y45222D01*
X184161Y45768D01*
Y46358D01*
X183935Y46904D01*
X183518Y47321D01*
X182972Y47547D01*
D02*
G37*
G36*
X179429D02*
X178839D01*
X178293Y47321D01*
X177876Y46904D01*
X177650Y46358D01*
Y45768D01*
X177876Y45222D01*
X178293Y44805D01*
X178839Y44579D01*
X179429D01*
X179975Y44805D01*
X180392Y45222D01*
X180618Y45768D01*
Y46358D01*
X180392Y46904D01*
X179975Y47321D01*
X179429Y47547D01*
D02*
G37*
G36*
X175886D02*
X175295D01*
X174750Y47321D01*
X174332Y46904D01*
X174106Y46358D01*
Y45768D01*
X174332Y45222D01*
X174750Y44805D01*
X175295Y44579D01*
X175886D01*
X176431Y44805D01*
X176849Y45222D01*
X177075Y45768D01*
Y46358D01*
X176849Y46904D01*
X176431Y47321D01*
X175886Y47547D01*
D02*
G37*
G36*
X165302Y47548D02*
X164711D01*
X164166Y47322D01*
X163748Y46904D01*
X163522Y46359D01*
Y45768D01*
X163598Y45585D01*
X163331Y45185D01*
X163287D01*
X162742Y44959D01*
X162324Y44542D01*
X162098Y43996D01*
Y43406D01*
X162324Y42860D01*
X162742Y42443D01*
X163287Y42217D01*
X163878D01*
X164423Y42443D01*
X164841Y42860D01*
X165067Y43406D01*
Y43996D01*
X164991Y44179D01*
X165258Y44579D01*
X165302D01*
X165847Y44805D01*
X166265Y45223D01*
X166491Y45768D01*
Y46359D01*
X166265Y46904D01*
X165847Y47322D01*
X165302Y47548D01*
D02*
G37*
G36*
X182972Y44004D02*
X182382D01*
X181836Y43778D01*
X181419Y43360D01*
X181193Y42815D01*
Y42224D01*
X181419Y41679D01*
X181836Y41261D01*
X182382Y41035D01*
X182972D01*
X183518Y41261D01*
X183935Y41679D01*
X184161Y42224D01*
Y42815D01*
X183935Y43360D01*
X183518Y43778D01*
X182972Y44004D01*
D02*
G37*
G36*
X179429D02*
X178839D01*
X178293Y43778D01*
X177876Y43360D01*
X177650Y42815D01*
Y42224D01*
X177876Y41679D01*
X178293Y41261D01*
X178839Y41035D01*
X179429D01*
X179975Y41261D01*
X180392Y41679D01*
X180618Y42224D01*
Y42815D01*
X180392Y43360D01*
X179975Y43778D01*
X179429Y44004D01*
D02*
G37*
G36*
X175886D02*
X175295D01*
X174750Y43778D01*
X174332Y43360D01*
X174106Y42815D01*
Y42224D01*
X174332Y41679D01*
X174750Y41261D01*
X175295Y41035D01*
X175886D01*
X176431Y41261D01*
X176849Y41679D01*
X177075Y42224D01*
Y42815D01*
X176849Y43360D01*
X176431Y43778D01*
X175886Y44004D01*
D02*
G37*
G36*
X182972Y40461D02*
X182382D01*
X181836Y40235D01*
X181419Y39817D01*
X181193Y39272D01*
Y38681D01*
X181419Y38136D01*
X181836Y37718D01*
X182382Y37492D01*
X182972D01*
X183518Y37718D01*
X183935Y38136D01*
X184161Y38681D01*
Y39272D01*
X183935Y39817D01*
X183518Y40235D01*
X182972Y40461D01*
D02*
G37*
G36*
X179429D02*
X178839D01*
X178293Y40235D01*
X177876Y39817D01*
X177650Y39272D01*
Y38681D01*
X177876Y38136D01*
X178293Y37718D01*
X178839Y37492D01*
X179429D01*
X179975Y37718D01*
X180392Y38136D01*
X180618Y38681D01*
Y39272D01*
X180392Y39817D01*
X179975Y40235D01*
X179429Y40461D01*
D02*
G37*
G36*
X175886D02*
X175295D01*
X174750Y40235D01*
X174332Y39817D01*
X174106Y39272D01*
Y38681D01*
X174332Y38136D01*
X174750Y37718D01*
X175295Y37492D01*
X175886D01*
X176431Y37718D01*
X176849Y38136D01*
X177075Y38681D01*
Y39272D01*
X176849Y39817D01*
X176431Y40235D01*
X175886Y40461D01*
D02*
G37*
G36*
X190059Y39279D02*
X189469D01*
X188923Y39054D01*
X188505Y38636D01*
X188279Y38091D01*
Y37500D01*
X188505Y36955D01*
X188923Y36537D01*
X189469Y36311D01*
X190059D01*
X190604Y36537D01*
X191022Y36955D01*
X191248Y37500D01*
Y38091D01*
X191022Y38636D01*
X190604Y39054D01*
X190059Y39279D01*
D02*
G37*
G36*
X186516D02*
X185925D01*
X185380Y39054D01*
X184962Y38636D01*
X184736Y38091D01*
Y37500D01*
X184962Y36955D01*
X185380Y36537D01*
X185925Y36311D01*
X186516D01*
X187061Y36537D01*
X187479Y36955D01*
X187705Y37500D01*
Y38091D01*
X187479Y38636D01*
X187061Y39054D01*
X186516Y39279D01*
D02*
G37*
G36*
X65727Y38886D02*
X64194D01*
X62690Y38587D01*
X61274Y38000D01*
X59999Y37148D01*
X58915Y36064D01*
X58063Y34789D01*
X57476Y33373D01*
X57177Y31869D01*
Y30336D01*
X57476Y28832D01*
X58063Y27415D01*
X58915Y26141D01*
X59999Y25056D01*
X61274Y24205D01*
X62690Y23618D01*
X64194Y23319D01*
X65727D01*
X67231Y23618D01*
X68647Y24205D01*
X69922Y25056D01*
X71006Y26141D01*
X71858Y27415D01*
X72445Y28832D01*
X72744Y30336D01*
Y31869D01*
X72445Y33373D01*
X71858Y34789D01*
X71006Y36064D01*
X69922Y37148D01*
X68647Y38000D01*
X67231Y38587D01*
X65727Y38886D01*
D02*
G37*
%LPD*%
G36*
X67073Y38066D02*
X68391Y37520D01*
X69577Y36728D01*
X70586Y35719D01*
X71379Y34533D01*
X71925Y33215D01*
X72203Y31816D01*
Y30389D01*
X71925Y28990D01*
X71379Y27672D01*
X70586Y26486D01*
X69577Y25477D01*
X68391Y24684D01*
X67073Y24138D01*
X65674Y23860D01*
X64247D01*
X62848Y24138D01*
X61530Y24684D01*
X60344Y25477D01*
X59335Y26486D01*
X58543Y27672D01*
X57997Y28990D01*
X57718Y30389D01*
Y31816D01*
X57997Y33215D01*
X58543Y34533D01*
X59335Y35719D01*
X60344Y36728D01*
X61530Y37520D01*
X62848Y38066D01*
X64247Y38345D01*
X65674D01*
X67073Y38066D01*
D02*
G37*
D57*
X19685Y177165D02*
D03*
Y98425D02*
D03*
X295276Y177165D02*
D03*
Y19685D02*
D03*
D58*
X51181Y100551D02*
D03*
X81181D02*
D03*
X61181D02*
D03*
X71181D02*
D03*
X81181Y90551D02*
D03*
X61181D02*
D03*
X71181D02*
D03*
X71282Y141991D02*
D03*
X61282D02*
D03*
X81282D02*
D03*
X71282Y151991D02*
D03*
X61282D02*
D03*
X81282D02*
D03*
X51282D02*
D03*
X71282Y116400D02*
D03*
X61282D02*
D03*
X81282D02*
D03*
X71282Y126400D02*
D03*
X61282D02*
D03*
X81282D02*
D03*
X51282D02*
D03*
X71181Y167323D02*
D03*
X61181D02*
D03*
X81181D02*
D03*
X71181Y177323D02*
D03*
X61181D02*
D03*
X81181D02*
D03*
X51181D02*
D03*
D59*
Y90551D02*
D03*
X51282Y141991D02*
D03*
Y116400D02*
D03*
X51181Y167323D02*
D03*
D60*
X279528Y73425D02*
D03*
D61*
Y98425D02*
D03*
Y123425D02*
D03*
D62*
X64961Y31102D02*
D03*
Y59449D02*
D03*
D63*
X41339Y18701D02*
D03*
Y71850D02*
D03*
D64*
X211417Y78937D02*
D03*
Y76673D02*
D03*
X285827Y19685D02*
D03*
X304331D02*
D03*
X295276Y28740D02*
D03*
Y10630D02*
D03*
X288189Y25984D02*
D03*
X301969Y25591D02*
D03*
X288583Y13386D02*
D03*
X301969Y13780D02*
D03*
X285827Y177165D02*
D03*
X304331D02*
D03*
X295276Y186221D02*
D03*
Y168110D02*
D03*
X288189Y183465D02*
D03*
X301969Y183071D02*
D03*
X288583Y170866D02*
D03*
X301969Y171260D02*
D03*
X10236Y98425D02*
D03*
X28740D02*
D03*
X19685Y107480D02*
D03*
Y89370D02*
D03*
X12598Y104724D02*
D03*
X26378Y104331D02*
D03*
X12992Y92126D02*
D03*
X26378Y92520D02*
D03*
Y171260D02*
D03*
X12992Y170866D02*
D03*
X26378Y183071D02*
D03*
X12598Y183465D02*
D03*
X19685Y168110D02*
D03*
Y186221D02*
D03*
X28740Y177165D02*
D03*
X10236D02*
D03*
X131102Y88976D02*
D03*
X82579Y25394D02*
D03*
X79035D02*
D03*
Y28937D02*
D03*
X82579D02*
D03*
X111319Y48130D02*
D03*
X107776D02*
D03*
Y51673D02*
D03*
X111319D02*
D03*
X112106Y76083D02*
D03*
X108563D02*
D03*
Y72539D02*
D03*
X112106D02*
D03*
X82677Y51772D02*
D03*
X79134D02*
D03*
Y48228D02*
D03*
X82677D02*
D03*
X120965Y29724D02*
D03*
X117421D02*
D03*
Y26181D02*
D03*
X120965D02*
D03*
X98032Y37992D02*
D03*
X94488D02*
D03*
Y34449D02*
D03*
X98032D02*
D03*
X99705Y65748D02*
D03*
X96161D02*
D03*
Y62205D02*
D03*
X99705D02*
D03*
X198130Y43898D02*
D03*
X192676Y54001D02*
D03*
X222163Y123671D02*
D03*
X152478Y18553D02*
D03*
X94604Y71702D02*
D03*
X185155Y18946D02*
D03*
X115863Y18553D02*
D03*
X50115Y29576D02*
D03*
X50903Y61860D02*
D03*
X39485Y94537D02*
D03*
X29643Y114222D02*
D03*
X15864Y128001D02*
D03*
X41454D02*
D03*
X27674Y143750D02*
D03*
X37517Y157529D02*
D03*
X15864D02*
D03*
X27674Y11860D02*
D03*
X39485Y27608D02*
D03*
X13895D02*
D03*
X25706Y45324D02*
D03*
X11926Y59104D02*
D03*
X21769Y72883D02*
D03*
X41454Y57135D02*
D03*
X303265Y35482D02*
D03*
X39469Y1772D02*
D03*
X29331D02*
D03*
X19193D02*
D03*
X10039Y3051D02*
D03*
X25591Y195079D02*
D03*
X8366Y192913D02*
D03*
X15650Y195079D02*
D03*
X34843D02*
D03*
X44882D02*
D03*
X300000Y51575D02*
D03*
X114173Y133071D02*
D03*
X164657Y95616D02*
D03*
X177953Y26772D02*
D03*
X140551Y49213D02*
D03*
X287795Y59547D02*
D03*
X270965Y147343D02*
D03*
X72835Y195079D02*
D03*
X163583Y43701D02*
D03*
X137106Y130709D02*
D03*
X143898Y121850D02*
D03*
X152264Y184449D02*
D03*
X170374Y128543D02*
D03*
X133465Y34252D02*
D03*
X137008Y59842D02*
D03*
X270571Y83661D02*
D03*
X304429Y193996D02*
D03*
X143898Y88090D02*
D03*
X206693Y118110D02*
D03*
X200000Y112992D02*
D03*
X182283Y178347D02*
D03*
X199508Y78543D02*
D03*
X182677Y168898D02*
D03*
X147638Y34252D02*
D03*
X220079Y183071D02*
D03*
X221457Y74803D02*
D03*
X313189Y101673D02*
D03*
X144404Y99586D02*
D03*
X229331Y59646D02*
D03*
X180709Y73622D02*
D03*
X158268Y71260D02*
D03*
X152264Y77756D02*
D03*
X182677Y158268D02*
D03*
X175591Y49606D02*
D03*
X227165Y186614D02*
D03*
X167717D02*
D03*
X63681Y1772D02*
D03*
X1772Y68799D02*
D03*
X210827Y58957D02*
D03*
X201870Y68800D02*
D03*
X71161Y78937D02*
D03*
X175591Y165354D02*
D03*
X189764Y81496D02*
D03*
X230709Y172441D02*
D03*
X189567Y117421D02*
D03*
X141142Y1772D02*
D03*
X1772Y163386D02*
D03*
X92618Y164567D02*
D03*
X243898Y36614D02*
D03*
X172047Y151181D02*
D03*
Y49606D02*
D03*
X175591Y99213D02*
D03*
X206693Y111024D02*
D03*
X211122Y165453D02*
D03*
X230413Y1772D02*
D03*
X251772Y195079D02*
D03*
X90059Y96161D02*
D03*
X139665Y131890D02*
D03*
X150394Y58858D02*
D03*
X61980Y158188D02*
D03*
X179134Y42520D02*
D03*
X182677Y92126D02*
D03*
X196752Y46161D02*
D03*
X251772Y68012D02*
D03*
X3051Y10039D02*
D03*
X160630Y195079D02*
D03*
X120079Y70768D02*
D03*
X143799Y140453D02*
D03*
X121949Y144685D02*
D03*
X170489Y71086D02*
D03*
X177953Y30315D02*
D03*
X144095Y49213D02*
D03*
X287795Y52461D02*
D03*
X278839Y147047D02*
D03*
X81299Y195079D02*
D03*
X170177Y43602D02*
D03*
X134734Y131832D02*
D03*
X300000Y159449D02*
D03*
X141240Y176969D02*
D03*
X180217Y138386D02*
D03*
X137008Y34252D02*
D03*
X140551Y59842D02*
D03*
X262303Y79724D02*
D03*
X311122Y188386D02*
D03*
X146063Y87992D02*
D03*
X203150Y121653D02*
D03*
X132283Y121850D02*
D03*
X182283Y181890D02*
D03*
X192028Y71457D02*
D03*
X189764Y168898D02*
D03*
X147638Y37795D02*
D03*
X220079Y168898D02*
D03*
X269390Y112402D02*
D03*
X313189Y111909D02*
D03*
X201083Y107480D02*
D03*
X201772Y102067D02*
D03*
X180709Y70079D02*
D03*
X154724Y71260D02*
D03*
X204232Y133661D02*
D03*
X179134Y158268D02*
D03*
X175591Y46063D02*
D03*
X223622Y183071D02*
D03*
X167618Y173917D02*
D03*
X313189Y17913D02*
D03*
X1772Y58465D02*
D03*
X210827Y61910D02*
D03*
X183465Y116142D02*
D03*
X85335Y83268D02*
D03*
X175591Y161811D02*
D03*
X189764Y77953D02*
D03*
X230709Y175984D02*
D03*
X240945Y133392D02*
D03*
X132480Y1772D02*
D03*
X1772Y154429D02*
D03*
X98032Y164567D02*
D03*
X243799Y34252D02*
D03*
X168504Y151181D02*
D03*
X172047Y53150D02*
D03*
X179134Y99213D02*
D03*
X210236Y111024D02*
D03*
X208760Y147047D02*
D03*
X220472Y1772D02*
D03*
X264075Y195079D02*
D03*
X135630Y144882D02*
D03*
X105905Y123672D02*
D03*
X153937Y58858D02*
D03*
X76673Y158071D02*
D03*
X182677Y42520D02*
D03*
Y88583D02*
D03*
X198327Y110335D02*
D03*
X221358Y52067D02*
D03*
X48031Y3740D02*
D03*
X169291Y195079D02*
D03*
X135236Y76673D02*
D03*
X123819Y123130D02*
D03*
X204879Y109457D02*
D03*
X287008Y38583D02*
D03*
X96850Y144882D02*
D03*
X177953Y33858D02*
D03*
X140551Y45276D02*
D03*
X284646Y47539D02*
D03*
X283071Y143012D02*
D03*
X89862Y195079D02*
D03*
X263779Y153051D02*
D03*
X130538Y130584D02*
D03*
X279921Y159843D02*
D03*
X129429Y185236D02*
D03*
X195965Y142323D02*
D03*
X140551Y34252D02*
D03*
X137008Y63386D02*
D03*
X255413Y74114D02*
D03*
X310925Y8169D02*
D03*
X131890Y95866D02*
D03*
X203150Y128740D02*
D03*
X138091Y121850D02*
D03*
X185827Y181890D02*
D03*
X163681Y130905D02*
D03*
X186221Y168898D02*
D03*
X144095Y41339D02*
D03*
X220079Y175984D02*
D03*
X279331Y112402D02*
D03*
X313189Y122146D02*
D03*
X208465Y76673D02*
D03*
X201772Y104921D02*
D03*
X184252Y70079D02*
D03*
X154724Y74803D02*
D03*
X179528Y189370D02*
D03*
X179134Y161811D02*
D03*
X126378Y63386D02*
D03*
X230709Y183071D02*
D03*
X167717Y182185D02*
D03*
X313189Y27264D02*
D03*
X1772Y47343D02*
D03*
X204331Y65059D02*
D03*
X179921Y116142D02*
D03*
X61533Y84748D02*
D03*
X175591Y158268D02*
D03*
X186221Y77953D02*
D03*
X223622Y172441D02*
D03*
X249902Y116043D02*
D03*
X123524Y1772D02*
D03*
X1772Y144980D02*
D03*
X103445Y174409D02*
D03*
X224803Y67224D02*
D03*
X168504Y154724D02*
D03*
X179134Y147638D02*
D03*
X182677Y99213D02*
D03*
X234252Y168898D02*
D03*
X195669Y113189D02*
D03*
X209350Y1772D02*
D03*
X274508Y195079D02*
D03*
X130315Y144882D02*
D03*
X100394Y123327D02*
D03*
X153937Y55315D02*
D03*
X51083Y108858D02*
D03*
X182677Y46063D02*
D03*
X179134Y88583D02*
D03*
X242618Y120079D02*
D03*
X221358Y42717D02*
D03*
X54823Y1772D02*
D03*
X178839Y195079D02*
D03*
X126378Y72736D02*
D03*
X119783Y130512D02*
D03*
X97933Y133268D02*
D03*
X180610Y63976D02*
D03*
X177953Y22835D02*
D03*
X144095Y45276D02*
D03*
X280217Y43012D02*
D03*
X288287Y137795D02*
D03*
X98917Y195079D02*
D03*
X242913Y99016D02*
D03*
X128150Y131693D02*
D03*
X290551Y146457D02*
D03*
X112106Y186417D02*
D03*
X174311Y115551D02*
D03*
X181496Y33858D02*
D03*
X133465Y63386D02*
D03*
X249213Y73917D02*
D03*
X303051Y2362D02*
D03*
X156004Y116240D02*
D03*
X206693Y125197D02*
D03*
X159449Y168110D02*
D03*
X143898Y116339D02*
D03*
X173917Y141535D02*
D03*
X168504Y53150D02*
D03*
X140551Y41339D02*
D03*
X220079Y172441D02*
D03*
X287598Y109350D02*
D03*
X313189Y131988D02*
D03*
X208465Y78937D02*
D03*
X210236Y125197D02*
D03*
X202362Y147244D02*
D03*
X158268Y74803D02*
D03*
X191732Y175591D02*
D03*
X182677Y161811D02*
D03*
X133465Y66929D02*
D03*
X227165Y183071D02*
D03*
X167618Y178051D02*
D03*
X313090Y35433D02*
D03*
X1870Y38091D02*
D03*
X204331Y67618D02*
D03*
X179921Y119685D02*
D03*
X175591Y154724D02*
D03*
X179134Y77953D02*
D03*
X227165Y172441D02*
D03*
X261614Y112500D02*
D03*
X114665Y1772D02*
D03*
X1772Y134646D02*
D03*
X103445Y164567D02*
D03*
X242913Y101181D02*
D03*
X168504Y158268D02*
D03*
X182677Y147638D02*
D03*
X189764Y99213D02*
D03*
X234252Y175984D02*
D03*
X215945Y54528D02*
D03*
X198622Y1772D02*
D03*
X283957Y195079D02*
D03*
X101969Y98721D02*
D03*
X88386Y122698D02*
D03*
X161024Y55315D02*
D03*
X63287Y108858D02*
D03*
X179134Y46063D02*
D03*
Y85039D02*
D03*
X242618Y117913D02*
D03*
X221358Y31594D02*
D03*
X292520Y1772D02*
D03*
X189075Y195079D02*
D03*
X144685Y70866D02*
D03*
X124213Y131496D02*
D03*
X208479Y109356D02*
D03*
X46358Y158858D02*
D03*
X189272Y104528D02*
D03*
X181496Y22835D02*
D03*
X129921Y63386D02*
D03*
X275984Y38780D02*
D03*
X288583Y129232D02*
D03*
X107677Y195079D02*
D03*
X246358Y153642D02*
D03*
X138386Y142224D02*
D03*
X309449Y146850D02*
D03*
X90453Y186811D02*
D03*
X190059Y131299D02*
D03*
X185039Y33858D02*
D03*
X140551Y63386D02*
D03*
X242913Y73917D02*
D03*
X216831Y135138D02*
D03*
X156201Y123819D02*
D03*
X206693Y128740D02*
D03*
X137008Y101575D02*
D03*
X155905Y168110D02*
D03*
X143898Y110433D02*
D03*
X143602Y152559D02*
D03*
X168504Y49606D02*
D03*
X133465Y41339D02*
D03*
X220079Y179527D02*
D03*
X288386Y102264D02*
D03*
X313189Y142323D02*
D03*
X209252Y64468D02*
D03*
X203150Y125197D02*
D03*
X125591Y173228D02*
D03*
X159449Y25197D02*
D03*
X194882Y189370D02*
D03*
X186221Y147638D02*
D03*
X137008Y66929D02*
D03*
X223622Y186614D02*
D03*
X232185Y98524D02*
D03*
X313189Y44685D02*
D03*
X116437Y123819D02*
D03*
X201772Y99213D02*
D03*
X183465Y119685D02*
D03*
X97638Y125197D02*
D03*
X175591Y151181D02*
D03*
X182677Y77953D02*
D03*
X223622Y175984D02*
D03*
X264764Y113583D02*
D03*
X106299Y1772D02*
D03*
X1772Y124803D02*
D03*
X120472Y174508D02*
D03*
X165006Y53150D02*
D03*
X168504Y147638D02*
D03*
X175591D02*
D03*
X186221Y99213D02*
D03*
X234252Y172441D02*
D03*
X261516Y153051D02*
D03*
X187697Y1772D02*
D03*
X293898Y195079D02*
D03*
X93307Y83760D02*
D03*
X91535Y122638D02*
D03*
X157480Y55315D02*
D03*
X75098Y108858D02*
D03*
X179134Y49606D02*
D03*
X182677Y85039D02*
D03*
X261516Y155709D02*
D03*
X208465Y34744D02*
D03*
X282579Y1772D02*
D03*
X200000Y195079D02*
D03*
X102461Y96161D02*
D03*
X126969Y127165D02*
D03*
X276772Y29528D02*
D03*
X51083Y132874D02*
D03*
X170757Y104437D02*
D03*
X188976Y30315D02*
D03*
X129921Y66929D02*
D03*
X271850Y34646D02*
D03*
X288583Y119488D02*
D03*
X116043Y195079D02*
D03*
X243701Y40945D02*
D03*
X132972Y142224D02*
D03*
X300394Y132677D02*
D03*
X68799Y186811D02*
D03*
X182185Y123425D02*
D03*
X185039Y30315D02*
D03*
X144095Y59842D02*
D03*
X235138Y73917D02*
D03*
X214567Y135531D02*
D03*
X157677Y106299D02*
D03*
X213779Y128740D02*
D03*
X119390Y158563D02*
D03*
X138189Y110433D02*
D03*
X124705Y152559D02*
D03*
X168504Y46063D02*
D03*
X137008Y41339D02*
D03*
X140551Y56299D02*
D03*
X288386Y95472D02*
D03*
X313189Y151772D02*
D03*
X213386Y61122D02*
D03*
X206693Y121653D02*
D03*
X205020Y184843D02*
D03*
X155905Y25197D02*
D03*
X176378Y175591D02*
D03*
X193307Y147638D02*
D03*
X126378Y59842D02*
D03*
X230709Y186614D02*
D03*
X234055Y106988D02*
D03*
X313189Y55807D02*
D03*
X103150Y123524D02*
D03*
X217028Y140551D02*
D03*
X164567Y135433D02*
D03*
X116437Y112795D02*
D03*
X182677Y151181D02*
D03*
X175591Y77953D02*
D03*
X227165Y179527D02*
D03*
X255315Y119291D02*
D03*
X97539Y1772D02*
D03*
X1772Y114567D02*
D03*
X227658Y136122D02*
D03*
X165006Y49607D02*
D03*
X172047Y147638D02*
D03*
X186221Y165354D02*
D03*
X175591Y81496D02*
D03*
X234252Y179527D02*
D03*
X227953Y73819D02*
D03*
X177461Y1772D02*
D03*
X1772Y180709D02*
D03*
X92557Y174372D02*
D03*
X122736Y92815D02*
D03*
X157480Y58858D02*
D03*
X87697Y108858D02*
D03*
X182677Y49606D02*
D03*
X175591Y85039D02*
D03*
X263681Y155709D02*
D03*
X222342Y97638D02*
D03*
X273130Y1772D02*
D03*
X210728Y195079D02*
D03*
X123819Y107185D02*
D03*
X269291Y16142D02*
D03*
X66437Y131693D02*
D03*
X175591Y42520D02*
D03*
X188976Y33858D02*
D03*
X126378Y66929D02*
D03*
X267618Y30315D02*
D03*
X284449Y113779D02*
D03*
X124902Y195079D02*
D03*
X227067Y68898D02*
D03*
X127953Y142224D02*
D03*
X300394Y114961D02*
D03*
X52264Y184449D02*
D03*
X168405Y99410D02*
D03*
X181496Y30315D02*
D03*
X144095Y56299D02*
D03*
X287697Y79626D02*
D03*
X245374Y120079D02*
D03*
X155512Y100787D02*
D03*
X210236Y128740D02*
D03*
X109547Y158563D02*
D03*
X132283Y110433D02*
D03*
X281102Y185827D02*
D03*
X112500Y166732D02*
D03*
X168476Y57049D02*
D03*
X140551Y37795D02*
D03*
X137008Y56299D02*
D03*
X288386Y89173D02*
D03*
X313189Y160728D02*
D03*
X206693Y66339D02*
D03*
X210236Y118110D02*
D03*
X152756Y140157D02*
D03*
X155905Y28740D02*
D03*
X203851Y168534D02*
D03*
X189764Y147638D02*
D03*
X129921Y56299D02*
D03*
X234252Y186614D02*
D03*
X234055Y114370D02*
D03*
X313189Y66142D02*
D03*
X90059Y124666D02*
D03*
X217063Y138083D02*
D03*
X155905Y164567D02*
D03*
X161024Y135433D02*
D03*
X179134Y151181D02*
D03*
X182677Y53150D02*
D03*
X230709Y168898D02*
D03*
X244882Y129724D02*
D03*
X88484Y1772D02*
D03*
X1772Y104331D02*
D03*
X224902Y134449D02*
D03*
X172047Y161811D02*
D03*
X165006Y46064D02*
D03*
X189764Y165354D02*
D03*
X182677Y81496D02*
D03*
X230709Y179527D02*
D03*
X240945Y29429D02*
D03*
X167913Y1772D02*
D03*
X48031Y193110D02*
D03*
X97970Y174372D02*
D03*
X114173Y121653D02*
D03*
X212479Y114557D02*
D03*
X161024Y58858D02*
D03*
X101870Y108858D02*
D03*
X186221Y37795D02*
D03*
X175591Y88583D02*
D03*
X203150Y114567D02*
D03*
X221457Y144783D02*
D03*
X262697Y1772D02*
D03*
X221850Y195079D02*
D03*
X144948Y84826D02*
D03*
X119980Y108169D02*
D03*
X239370Y67323D02*
D03*
X58169Y147047D02*
D03*
X175591Y38976D02*
D03*
X182677Y95669D02*
D03*
X129921Y59842D02*
D03*
X224803Y54232D02*
D03*
X274410Y113583D02*
D03*
X133858Y195079D02*
D03*
X244094Y153642D02*
D03*
X123622Y118760D02*
D03*
X300394Y92913D02*
D03*
X87697Y155709D02*
D03*
X150689Y95472D02*
D03*
X185039Y26772D02*
D03*
X144095Y52756D02*
D03*
X287795Y71752D02*
D03*
X245374Y117913D02*
D03*
X56201Y195079D02*
D03*
X210236Y114567D02*
D03*
X99508Y158563D02*
D03*
X132283Y116339D02*
D03*
X133366Y165945D02*
D03*
X193307Y168898D02*
D03*
X137008Y37795D02*
D03*
X133465Y56299D02*
D03*
X285728Y84941D02*
D03*
X313189Y169291D02*
D03*
X231594Y131595D02*
D03*
X210236Y121653D02*
D03*
X213779Y121556D02*
D03*
X159449Y28740D02*
D03*
X204094Y54001D02*
D03*
X175591Y168898D02*
D03*
X144095Y34252D02*
D03*
X234252Y183071D02*
D03*
X221457Y88779D02*
D03*
X313189Y79035D02*
D03*
X149197Y127094D02*
D03*
X96850Y82776D02*
D03*
X159449Y164567D02*
D03*
X161024Y138976D02*
D03*
X159350Y84449D02*
D03*
X179134Y154724D02*
D03*
Y53150D02*
D03*
X227165Y168898D02*
D03*
X234055Y140256D02*
D03*
X79921Y1772D02*
D03*
X1772Y94095D02*
D03*
X234350Y131595D02*
D03*
X172047Y165354D02*
D03*
X165006Y57087D02*
D03*
X182677Y165354D02*
D03*
X179134Y81496D02*
D03*
X223622Y179527D02*
D03*
X238779Y29429D02*
D03*
X159252Y1772D02*
D03*
X3543Y187894D02*
D03*
X109585Y174569D02*
D03*
X211221Y34744D02*
D03*
X212579Y118157D02*
D03*
X172047Y158268D02*
D03*
X94784Y114764D02*
D03*
X189764Y37795D02*
D03*
X175591Y92126D02*
D03*
X213779Y125197D02*
D03*
X221457Y153543D02*
D03*
X250394Y1772D02*
D03*
X231791Y195079D02*
D03*
X142094Y84826D02*
D03*
X113386Y108169D02*
D03*
X214173Y69685D02*
D03*
X66437Y139961D02*
D03*
X182677Y38976D02*
D03*
X179134Y95669D02*
D03*
X208465Y32579D02*
D03*
X239665Y55905D02*
D03*
X1772Y29921D02*
D03*
X142520Y195079D02*
D03*
X243701Y43110D02*
D03*
X123622Y111221D02*
D03*
X300000Y66929D02*
D03*
X111417Y143701D02*
D03*
X170237Y89890D02*
D03*
X181496Y26772D02*
D03*
X140551Y52756D02*
D03*
X287795Y65158D02*
D03*
X264469Y150000D02*
D03*
X65059Y195079D02*
D03*
X206693Y114567D02*
D03*
X141941Y130598D02*
D03*
X138091Y116339D02*
D03*
X272441Y172835D02*
D03*
X146457Y167323D02*
D03*
X193307Y165354D02*
D03*
X133465Y37795D02*
D03*
Y59842D02*
D03*
X279626Y83563D02*
D03*
X313189Y178051D02*
D03*
X141240Y135630D02*
D03*
X203150Y118110D02*
D03*
X199606Y128740D02*
D03*
X185827Y178347D02*
D03*
X203051Y37992D02*
D03*
X179134Y168898D02*
D03*
X144095Y37795D02*
D03*
X220079Y186614D02*
D03*
X221358Y81102D02*
D03*
X313189Y91437D02*
D03*
X149197Y104850D02*
D03*
X229823Y127067D02*
D03*
X184252Y73622D02*
D03*
X164567Y138976D02*
D03*
X159350Y66732D02*
D03*
X182677Y154724D02*
D03*
X175591Y53150D02*
D03*
X223622Y168898D02*
D03*
X205020Y178347D02*
D03*
X71457Y1772D02*
D03*
X1772Y81693D02*
D03*
X210777Y56004D02*
D03*
X203937Y82480D02*
D03*
X51083Y78937D02*
D03*
X179134Y165354D02*
D03*
X186221Y81496D02*
D03*
X227165Y175984D02*
D03*
X189469Y124114D02*
D03*
X149705Y1772D02*
D03*
X1772Y171949D02*
D03*
X114998Y174569D02*
D03*
X172047Y154724D02*
D03*
Y46063D02*
D03*
X175591Y95669D02*
D03*
X203150Y111024D02*
D03*
X221457Y162106D02*
D03*
X240748Y1772D02*
D03*
X242126Y195079D02*
D03*
X211221Y32579D02*
D03*
X132311Y132302D02*
D03*
X212479Y111056D02*
D03*
X199508Y46161D02*
D03*
X150394Y55315D02*
D03*
X76279Y139961D02*
D03*
X179134Y38976D02*
D03*
Y92126D02*
D03*
X244882Y61024D02*
D03*
X1772Y20571D02*
D03*
X151083Y195079D02*
D03*
X234154Y64173D02*
D03*
X121461Y115063D02*
D03*
M02*
