G04*
G04 #@! TF.GenerationSoftware,Altium Limited,Altium Designer,24.10.1 (45)*
G04*
G04 Layer_Color=2752767*
%FSLAX25Y25*%
%MOIN*%
G70*
G04*
G04 #@! TF.SameCoordinates,CBAACD6F-12D9-4D4A-9EA7-E70620961981*
G04*
G04*
G04 #@! TF.FilePolarity,Positive*
G04*
G01*
G75*
%ADD11C,0.00500*%
%ADD67C,0.00667*%
D11*
X18685Y176165D02*
Y175165D01*
X20685D01*
Y176165D01*
X21685D01*
Y178165D01*
X20685D01*
Y179165D01*
X18685D01*
Y178165D01*
X17685D01*
Y176165D01*
X18685D01*
Y97425D02*
Y96425D01*
X20685D01*
Y97425D01*
X21685D01*
Y99425D01*
X20685D01*
Y100425D01*
X18685D01*
Y99425D01*
X17685D01*
Y97425D01*
X18685D01*
X51181Y98551D02*
X49181Y102551D01*
X53181D01*
X51181Y98551D01*
X81181D02*
X79181Y102551D01*
X83181D01*
X81181Y98551D01*
X61181D02*
X59181Y102551D01*
X63181D01*
X61181Y98551D01*
X71181D02*
X69181Y102551D01*
X73181D01*
X71181Y98551D01*
X81181Y88551D02*
X79181Y92551D01*
X83181D01*
X81181Y88551D01*
X51181D02*
X49181Y92551D01*
X53181D01*
X51181Y88551D01*
X61181D02*
X59181Y92551D01*
X63181D01*
X61181Y88551D01*
X71181D02*
X69181Y92551D01*
X73181D01*
X71181Y88551D01*
X294276Y176165D02*
Y175165D01*
X296276D01*
Y176165D01*
X297276D01*
Y178165D01*
X296276D01*
Y179165D01*
X294276D01*
Y178165D01*
X293276D01*
Y176165D01*
X294276D01*
X71282Y139991D02*
X69282Y143991D01*
X73282D01*
X71282Y139991D01*
X61282D02*
X59282Y143991D01*
X63282D01*
X61282Y139991D01*
X51282D02*
X49282Y143991D01*
X53282D01*
X51282Y139991D01*
X81282D02*
X79282Y143991D01*
X83282D01*
X81282Y139991D01*
X71282Y149991D02*
X69282Y153991D01*
X73282D01*
X71282Y149991D01*
X61282D02*
X59282Y153991D01*
X63282D01*
X61282Y149991D01*
X81282D02*
X79282Y153991D01*
X83282D01*
X81282Y149991D01*
X51282D02*
X49282Y153991D01*
X53282D01*
X51282Y149991D01*
X279528Y71425D02*
X280528Y72425D01*
X281528D01*
X280528Y73425D01*
X281528Y74425D01*
X280528D01*
X279528Y75425D01*
X278528Y74425D01*
X277528D01*
X278528Y73425D01*
X277528Y72425D01*
X278528D01*
X279528Y71425D01*
Y96425D02*
X280528Y97425D01*
X281528D01*
X280528Y98425D01*
X281528Y99425D01*
X280528D01*
X279528Y100425D01*
X278528Y99425D01*
X277528D01*
X278528Y98425D01*
X277528Y97425D01*
X278528D01*
X279528Y96425D01*
Y121425D02*
X280528Y122425D01*
X281528D01*
X280528Y123425D01*
X281528Y124425D01*
X280528D01*
X279528Y125425D01*
X278528Y124425D01*
X277528D01*
X278528Y123425D01*
X277528Y122425D01*
X278528D01*
X279528Y121425D01*
X39339Y16701D02*
Y20701D01*
X43339D01*
Y16701D01*
X39339D01*
Y69850D02*
Y73850D01*
X43339D01*
Y69850D01*
X39339D01*
X71282Y114400D02*
X69282Y118400D01*
X73282D01*
X71282Y114400D01*
X61282D02*
X59282Y118400D01*
X63282D01*
X61282Y114400D01*
X51282D02*
X49282Y118400D01*
X53282D01*
X51282Y114400D01*
X81282D02*
X79282Y118400D01*
X83282D01*
X81282Y114400D01*
X71282Y124400D02*
X69282Y128400D01*
X73282D01*
X71282Y124400D01*
X61282D02*
X59282Y128400D01*
X63282D01*
X61282Y124400D01*
X81282D02*
X79282Y128400D01*
X83282D01*
X81282Y124400D01*
X51282D02*
X49282Y128400D01*
X53282D01*
X51282Y124400D01*
X71181Y165323D02*
X69181Y169323D01*
X73181D01*
X71181Y165323D01*
X61181D02*
X59181Y169323D01*
X63181D01*
X61181Y165323D01*
X51181D02*
X49181Y169323D01*
X53181D01*
X51181Y165323D01*
X81181D02*
X79181Y169323D01*
X83181D01*
X81181Y165323D01*
X71181Y175323D02*
X69181Y179323D01*
X73181D01*
X71181Y175323D01*
X61181D02*
X59181Y179323D01*
X63181D01*
X61181Y175323D01*
X81181D02*
X79181Y179323D01*
X83181D01*
X81181Y175323D01*
X51181D02*
X49181Y179323D01*
X53181D01*
X51181Y175323D01*
X294276Y18685D02*
Y17685D01*
X296276D01*
Y18685D01*
X297276D01*
Y20685D01*
X296276D01*
Y21685D01*
X294276D01*
Y20685D01*
X293276D01*
Y18685D01*
X294276D01*
X209417Y76937D02*
X210417D01*
X211417Y77937D01*
X212417Y76937D01*
X213417D01*
Y77937D01*
X212417Y78937D01*
X213417Y79937D01*
Y80937D01*
X212417D01*
X211417Y79937D01*
X210417Y80937D01*
X209417D01*
Y79937D01*
X210417Y78937D01*
X209417Y77937D01*
Y76937D01*
Y74673D02*
X210417D01*
X211417Y75673D01*
X212417Y74673D01*
X213417D01*
Y75673D01*
X212417Y76673D01*
X213417Y77673D01*
Y78673D01*
X212417D01*
X211417Y77673D01*
X210417Y78673D01*
X209417D01*
Y77673D01*
X210417Y76673D01*
X209417Y75673D01*
Y74673D01*
X283827Y17685D02*
X284827D01*
X285827Y18685D01*
X286827Y17685D01*
X287827D01*
Y18685D01*
X286827Y19685D01*
X287827Y20685D01*
Y21685D01*
X286827D01*
X285827Y20685D01*
X284827Y21685D01*
X283827D01*
Y20685D01*
X284827Y19685D01*
X283827Y18685D01*
Y17685D01*
X302331D02*
X303331D01*
X304331Y18685D01*
X305331Y17685D01*
X306331D01*
Y18685D01*
X305331Y19685D01*
X306331Y20685D01*
Y21685D01*
X305331D01*
X304331Y20685D01*
X303331Y21685D01*
X302331D01*
Y20685D01*
X303331Y19685D01*
X302331Y18685D01*
Y17685D01*
X293276Y26740D02*
X294276D01*
X295276Y27740D01*
X296276Y26740D01*
X297276D01*
Y27740D01*
X296276Y28740D01*
X297276Y29740D01*
Y30740D01*
X296276D01*
X295276Y29740D01*
X294276Y30740D01*
X293276D01*
Y29740D01*
X294276Y28740D01*
X293276Y27740D01*
Y26740D01*
Y8630D02*
X294276D01*
X295276Y9630D01*
X296276Y8630D01*
X297276D01*
Y9630D01*
X296276Y10630D01*
X297276Y11630D01*
Y12630D01*
X296276D01*
X295276Y11630D01*
X294276Y12630D01*
X293276D01*
Y11630D01*
X294276Y10630D01*
X293276Y9630D01*
Y8630D01*
X286189Y23984D02*
X287189D01*
X288189Y24984D01*
X289189Y23984D01*
X290189D01*
Y24984D01*
X289189Y25984D01*
X290189Y26984D01*
Y27984D01*
X289189D01*
X288189Y26984D01*
X287189Y27984D01*
X286189D01*
Y26984D01*
X287189Y25984D01*
X286189Y24984D01*
Y23984D01*
X299969Y23591D02*
X300969D01*
X301969Y24591D01*
X302969Y23591D01*
X303969D01*
Y24591D01*
X302969Y25591D01*
X303969Y26591D01*
Y27591D01*
X302969D01*
X301969Y26591D01*
X300969Y27591D01*
X299969D01*
Y26591D01*
X300969Y25591D01*
X299969Y24591D01*
Y23591D01*
X286583Y11386D02*
X287583D01*
X288583Y12386D01*
X289583Y11386D01*
X290583D01*
Y12386D01*
X289583Y13386D01*
X290583Y14386D01*
Y15386D01*
X289583D01*
X288583Y14386D01*
X287583Y15386D01*
X286583D01*
Y14386D01*
X287583Y13386D01*
X286583Y12386D01*
Y11386D01*
X299969Y11779D02*
X300969D01*
X301969Y12779D01*
X302969Y11779D01*
X303969D01*
Y12779D01*
X302969Y13780D01*
X303969Y14780D01*
Y15779D01*
X302969D01*
X301969Y14780D01*
X300969Y15779D01*
X299969D01*
Y14780D01*
X300969Y13780D01*
X299969Y12779D01*
Y11779D01*
X283827Y175165D02*
X284827D01*
X285827Y176165D01*
X286827Y175165D01*
X287827D01*
Y176165D01*
X286827Y177165D01*
X287827Y178165D01*
Y179165D01*
X286827D01*
X285827Y178165D01*
X284827Y179165D01*
X283827D01*
Y178165D01*
X284827Y177165D01*
X283827Y176165D01*
Y175165D01*
X302331D02*
X303331D01*
X304331Y176165D01*
X305331Y175165D01*
X306331D01*
Y176165D01*
X305331Y177165D01*
X306331Y178165D01*
Y179165D01*
X305331D01*
X304331Y178165D01*
X303331Y179165D01*
X302331D01*
Y178165D01*
X303331Y177165D01*
X302331Y176165D01*
Y175165D01*
X293276Y184221D02*
X294276D01*
X295276Y185221D01*
X296276Y184221D01*
X297276D01*
Y185221D01*
X296276Y186221D01*
X297276Y187221D01*
Y188221D01*
X296276D01*
X295276Y187221D01*
X294276Y188221D01*
X293276D01*
Y187221D01*
X294276Y186221D01*
X293276Y185221D01*
Y184221D01*
Y166110D02*
X294276D01*
X295276Y167110D01*
X296276Y166110D01*
X297276D01*
Y167110D01*
X296276Y168110D01*
X297276Y169110D01*
Y170110D01*
X296276D01*
X295276Y169110D01*
X294276Y170110D01*
X293276D01*
Y169110D01*
X294276Y168110D01*
X293276Y167110D01*
Y166110D01*
X286189Y181465D02*
X287189D01*
X288189Y182465D01*
X289189Y181465D01*
X290189D01*
Y182465D01*
X289189Y183465D01*
X290189Y184465D01*
Y185465D01*
X289189D01*
X288189Y184465D01*
X287189Y185465D01*
X286189D01*
Y184465D01*
X287189Y183465D01*
X286189Y182465D01*
Y181465D01*
X299969Y181071D02*
X300969D01*
X301969Y182071D01*
X302969Y181071D01*
X303969D01*
Y182071D01*
X302969Y183071D01*
X303969Y184071D01*
Y185071D01*
X302969D01*
X301969Y184071D01*
X300969Y185071D01*
X299969D01*
Y184071D01*
X300969Y183071D01*
X299969Y182071D01*
Y181071D01*
X286583Y168866D02*
X287583D01*
X288583Y169866D01*
X289583Y168866D01*
X290583D01*
Y169866D01*
X289583Y170866D01*
X290583Y171866D01*
Y172866D01*
X289583D01*
X288583Y171866D01*
X287583Y172866D01*
X286583D01*
Y171866D01*
X287583Y170866D01*
X286583Y169866D01*
Y168866D01*
X299969Y169260D02*
X300969D01*
X301969Y170260D01*
X302969Y169260D01*
X303969D01*
Y170260D01*
X302969Y171260D01*
X303969Y172260D01*
Y173260D01*
X302969D01*
X301969Y172260D01*
X300969Y173260D01*
X299969D01*
Y172260D01*
X300969Y171260D01*
X299969Y170260D01*
Y169260D01*
X8236Y96425D02*
X9236D01*
X10236Y97425D01*
X11236Y96425D01*
X12236D01*
Y97425D01*
X11236Y98425D01*
X12236Y99425D01*
Y100425D01*
X11236D01*
X10236Y99425D01*
X9236Y100425D01*
X8236D01*
Y99425D01*
X9236Y98425D01*
X8236Y97425D01*
Y96425D01*
X26740D02*
X27740D01*
X28740Y97425D01*
X29740Y96425D01*
X30740D01*
Y97425D01*
X29740Y98425D01*
X30740Y99425D01*
Y100425D01*
X29740D01*
X28740Y99425D01*
X27740Y100425D01*
X26740D01*
Y99425D01*
X27740Y98425D01*
X26740Y97425D01*
Y96425D01*
X17685Y105480D02*
X18685D01*
X19685Y106480D01*
X20685Y105480D01*
X21685D01*
Y106480D01*
X20685Y107480D01*
X21685Y108480D01*
Y109480D01*
X20685D01*
X19685Y108480D01*
X18685Y109480D01*
X17685D01*
Y108480D01*
X18685Y107480D01*
X17685Y106480D01*
Y105480D01*
Y87370D02*
X18685D01*
X19685Y88370D01*
X20685Y87370D01*
X21685D01*
Y88370D01*
X20685Y89370D01*
X21685Y90370D01*
Y91370D01*
X20685D01*
X19685Y90370D01*
X18685Y91370D01*
X17685D01*
Y90370D01*
X18685Y89370D01*
X17685Y88370D01*
Y87370D01*
X10598Y102724D02*
X11598D01*
X12598Y103724D01*
X13598Y102724D01*
X14598D01*
Y103724D01*
X13598Y104724D01*
X14598Y105724D01*
Y106724D01*
X13598D01*
X12598Y105724D01*
X11598Y106724D01*
X10598D01*
Y105724D01*
X11598Y104724D01*
X10598Y103724D01*
Y102724D01*
X24378Y102331D02*
X25378D01*
X26378Y103331D01*
X27378Y102331D01*
X28378D01*
Y103331D01*
X27378Y104331D01*
X28378Y105331D01*
Y106331D01*
X27378D01*
X26378Y105331D01*
X25378Y106331D01*
X24378D01*
Y105331D01*
X25378Y104331D01*
X24378Y103331D01*
Y102331D01*
X10992Y90126D02*
X11992D01*
X12992Y91126D01*
X13992Y90126D01*
X14992D01*
Y91126D01*
X13992Y92126D01*
X14992Y93126D01*
Y94126D01*
X13992D01*
X12992Y93126D01*
X11992Y94126D01*
X10992D01*
Y93126D01*
X11992Y92126D01*
X10992Y91126D01*
Y90126D01*
X24378Y90520D02*
X25378D01*
X26378Y91520D01*
X27378Y90520D01*
X28378D01*
Y91520D01*
X27378Y92520D01*
X28378Y93520D01*
Y94520D01*
X27378D01*
X26378Y93520D01*
X25378Y94520D01*
X24378D01*
Y93520D01*
X25378Y92520D01*
X24378Y91520D01*
Y90520D01*
Y169260D02*
X25378D01*
X26378Y170260D01*
X27378Y169260D01*
X28378D01*
Y170260D01*
X27378Y171260D01*
X28378Y172260D01*
Y173260D01*
X27378D01*
X26378Y172260D01*
X25378Y173260D01*
X24378D01*
Y172260D01*
X25378Y171260D01*
X24378Y170260D01*
Y169260D01*
X10992Y168866D02*
X11992D01*
X12992Y169866D01*
X13992Y168866D01*
X14992D01*
Y169866D01*
X13992Y170866D01*
X14992Y171866D01*
Y172866D01*
X13992D01*
X12992Y171866D01*
X11992Y172866D01*
X10992D01*
Y171866D01*
X11992Y170866D01*
X10992Y169866D01*
Y168866D01*
X24378Y181071D02*
X25378D01*
X26378Y182071D01*
X27378Y181071D01*
X28378D01*
Y182071D01*
X27378Y183071D01*
X28378Y184071D01*
Y185071D01*
X27378D01*
X26378Y184071D01*
X25378Y185071D01*
X24378D01*
Y184071D01*
X25378Y183071D01*
X24378Y182071D01*
Y181071D01*
X10598Y181465D02*
X11598D01*
X12598Y182465D01*
X13598Y181465D01*
X14598D01*
Y182465D01*
X13598Y183465D01*
X14598Y184465D01*
Y185465D01*
X13598D01*
X12598Y184465D01*
X11598Y185465D01*
X10598D01*
Y184465D01*
X11598Y183465D01*
X10598Y182465D01*
Y181465D01*
X17685Y166110D02*
X18685D01*
X19685Y167110D01*
X20685Y166110D01*
X21685D01*
Y167110D01*
X20685Y168110D01*
X21685Y169110D01*
Y170110D01*
X20685D01*
X19685Y169110D01*
X18685Y170110D01*
X17685D01*
Y169110D01*
X18685Y168110D01*
X17685Y167110D01*
Y166110D01*
Y184221D02*
X18685D01*
X19685Y185221D01*
X20685Y184221D01*
X21685D01*
Y185221D01*
X20685Y186221D01*
X21685Y187221D01*
Y188221D01*
X20685D01*
X19685Y187221D01*
X18685Y188221D01*
X17685D01*
Y187221D01*
X18685Y186221D01*
X17685Y185221D01*
Y184221D01*
X26740Y175165D02*
X27740D01*
X28740Y176165D01*
X29740Y175165D01*
X30740D01*
Y176165D01*
X29740Y177165D01*
X30740Y178165D01*
Y179165D01*
X29740D01*
X28740Y178165D01*
X27740Y179165D01*
X26740D01*
Y178165D01*
X27740Y177165D01*
X26740Y176165D01*
Y175165D01*
X8236D02*
X9236D01*
X10236Y176165D01*
X11236Y175165D01*
X12236D01*
Y176165D01*
X11236Y177165D01*
X12236Y178165D01*
Y179165D01*
X11236D01*
X10236Y178165D01*
X9236Y179165D01*
X8236D01*
Y178165D01*
X9236Y177165D01*
X8236Y176165D01*
Y175165D01*
X129102Y86976D02*
X130102D01*
X131102Y87976D01*
X132102Y86976D01*
X133102D01*
Y87976D01*
X132102Y88976D01*
X133102Y89976D01*
Y90976D01*
X132102D01*
X131102Y89976D01*
X130102Y90976D01*
X129102D01*
Y89976D01*
X130102Y88976D01*
X129102Y87976D01*
Y86976D01*
X80579Y23394D02*
X81579D01*
X82579Y24394D01*
X83579Y23394D01*
X84579D01*
Y24394D01*
X83579Y25394D01*
X84579Y26394D01*
Y27394D01*
X83579D01*
X82579Y26394D01*
X81579Y27394D01*
X80579D01*
Y26394D01*
X81579Y25394D01*
X80579Y24394D01*
Y23394D01*
X77035D02*
X78035D01*
X79035Y24394D01*
X80035Y23394D01*
X81035D01*
Y24394D01*
X80035Y25394D01*
X81035Y26394D01*
Y27394D01*
X80035D01*
X79035Y26394D01*
X78035Y27394D01*
X77035D01*
Y26394D01*
X78035Y25394D01*
X77035Y24394D01*
Y23394D01*
Y26937D02*
X78035D01*
X79035Y27937D01*
X80035Y26937D01*
X81035D01*
Y27937D01*
X80035Y28937D01*
X81035Y29937D01*
Y30937D01*
X80035D01*
X79035Y29937D01*
X78035Y30937D01*
X77035D01*
Y29937D01*
X78035Y28937D01*
X77035Y27937D01*
Y26937D01*
X80579D02*
X81579D01*
X82579Y27937D01*
X83579Y26937D01*
X84579D01*
Y27937D01*
X83579Y28937D01*
X84579Y29937D01*
Y30937D01*
X83579D01*
X82579Y29937D01*
X81579Y30937D01*
X80579D01*
Y29937D01*
X81579Y28937D01*
X80579Y27937D01*
Y26937D01*
X109319Y46130D02*
X110319D01*
X111319Y47130D01*
X112319Y46130D01*
X113319D01*
Y47130D01*
X112319Y48130D01*
X113319Y49130D01*
Y50130D01*
X112319D01*
X111319Y49130D01*
X110319Y50130D01*
X109319D01*
Y49130D01*
X110319Y48130D01*
X109319Y47130D01*
Y46130D01*
X105776D02*
X106776D01*
X107776Y47130D01*
X108776Y46130D01*
X109776D01*
Y47130D01*
X108776Y48130D01*
X109776Y49130D01*
Y50130D01*
X108776D01*
X107776Y49130D01*
X106776Y50130D01*
X105776D01*
Y49130D01*
X106776Y48130D01*
X105776Y47130D01*
Y46130D01*
Y49673D02*
X106776D01*
X107776Y50673D01*
X108776Y49673D01*
X109776D01*
Y50673D01*
X108776Y51673D01*
X109776Y52673D01*
Y53673D01*
X108776D01*
X107776Y52673D01*
X106776Y53673D01*
X105776D01*
Y52673D01*
X106776Y51673D01*
X105776Y50673D01*
Y49673D01*
X109319D02*
X110319D01*
X111319Y50673D01*
X112319Y49673D01*
X113319D01*
Y50673D01*
X112319Y51673D01*
X113319Y52673D01*
Y53673D01*
X112319D01*
X111319Y52673D01*
X110319Y53673D01*
X109319D01*
Y52673D01*
X110319Y51673D01*
X109319Y50673D01*
Y49673D01*
X110106Y74083D02*
X111106D01*
X112106Y75083D01*
X113106Y74083D01*
X114106D01*
Y75083D01*
X113106Y76083D01*
X114106Y77083D01*
Y78083D01*
X113106D01*
X112106Y77083D01*
X111106Y78083D01*
X110106D01*
Y77083D01*
X111106Y76083D01*
X110106Y75083D01*
Y74083D01*
X106563D02*
X107563D01*
X108563Y75083D01*
X109563Y74083D01*
X110563D01*
Y75083D01*
X109563Y76083D01*
X110563Y77083D01*
Y78083D01*
X109563D01*
X108563Y77083D01*
X107563Y78083D01*
X106563D01*
Y77083D01*
X107563Y76083D01*
X106563Y75083D01*
Y74083D01*
Y70539D02*
X107563D01*
X108563Y71539D01*
X109563Y70539D01*
X110563D01*
Y71539D01*
X109563Y72539D01*
X110563Y73539D01*
Y74539D01*
X109563D01*
X108563Y73539D01*
X107563Y74539D01*
X106563D01*
Y73539D01*
X107563Y72539D01*
X106563Y71539D01*
Y70539D01*
X110106D02*
X111106D01*
X112106Y71539D01*
X113106Y70539D01*
X114106D01*
Y71539D01*
X113106Y72539D01*
X114106Y73539D01*
Y74539D01*
X113106D01*
X112106Y73539D01*
X111106Y74539D01*
X110106D01*
Y73539D01*
X111106Y72539D01*
X110106Y71539D01*
Y70539D01*
X80677Y49772D02*
X81677D01*
X82677Y50772D01*
X83677Y49772D01*
X84677D01*
Y50772D01*
X83677Y51772D01*
X84677Y52772D01*
Y53772D01*
X83677D01*
X82677Y52772D01*
X81677Y53772D01*
X80677D01*
Y52772D01*
X81677Y51772D01*
X80677Y50772D01*
Y49772D01*
X77134D02*
X78134D01*
X79134Y50772D01*
X80134Y49772D01*
X81134D01*
Y50772D01*
X80134Y51772D01*
X81134Y52772D01*
Y53772D01*
X80134D01*
X79134Y52772D01*
X78134Y53772D01*
X77134D01*
Y52772D01*
X78134Y51772D01*
X77134Y50772D01*
Y49772D01*
Y46228D02*
X78134D01*
X79134Y47228D01*
X80134Y46228D01*
X81134D01*
Y47228D01*
X80134Y48228D01*
X81134Y49228D01*
Y50228D01*
X80134D01*
X79134Y49228D01*
X78134Y50228D01*
X77134D01*
Y49228D01*
X78134Y48228D01*
X77134Y47228D01*
Y46228D01*
X80677D02*
X81677D01*
X82677Y47228D01*
X83677Y46228D01*
X84677D01*
Y47228D01*
X83677Y48228D01*
X84677Y49228D01*
Y50228D01*
X83677D01*
X82677Y49228D01*
X81677Y50228D01*
X80677D01*
Y49228D01*
X81677Y48228D01*
X80677Y47228D01*
Y46228D01*
X118965Y27724D02*
X119965D01*
X120965Y28724D01*
X121965Y27724D01*
X122965D01*
Y28724D01*
X121965Y29724D01*
X122965Y30724D01*
Y31724D01*
X121965D01*
X120965Y30724D01*
X119965Y31724D01*
X118965D01*
Y30724D01*
X119965Y29724D01*
X118965Y28724D01*
Y27724D01*
X115421D02*
X116421D01*
X117421Y28724D01*
X118421Y27724D01*
X119421D01*
Y28724D01*
X118421Y29724D01*
X119421Y30724D01*
Y31724D01*
X118421D01*
X117421Y30724D01*
X116421Y31724D01*
X115421D01*
Y30724D01*
X116421Y29724D01*
X115421Y28724D01*
Y27724D01*
Y24181D02*
X116421D01*
X117421Y25181D01*
X118421Y24181D01*
X119421D01*
Y25181D01*
X118421Y26181D01*
X119421Y27181D01*
Y28181D01*
X118421D01*
X117421Y27181D01*
X116421Y28181D01*
X115421D01*
Y27181D01*
X116421Y26181D01*
X115421Y25181D01*
Y24181D01*
X118965D02*
X119965D01*
X120965Y25181D01*
X121965Y24181D01*
X122965D01*
Y25181D01*
X121965Y26181D01*
X122965Y27181D01*
Y28181D01*
X121965D01*
X120965Y27181D01*
X119965Y28181D01*
X118965D01*
Y27181D01*
X119965Y26181D01*
X118965Y25181D01*
Y24181D01*
X96031Y35992D02*
X97031D01*
X98032Y36992D01*
X99032Y35992D01*
X100031D01*
Y36992D01*
X99032Y37992D01*
X100031Y38992D01*
Y39992D01*
X99032D01*
X98032Y38992D01*
X97031Y39992D01*
X96031D01*
Y38992D01*
X97031Y37992D01*
X96031Y36992D01*
Y35992D01*
X92488D02*
X93488D01*
X94488Y36992D01*
X95488Y35992D01*
X96488D01*
Y36992D01*
X95488Y37992D01*
X96488Y38992D01*
Y39992D01*
X95488D01*
X94488Y38992D01*
X93488Y39992D01*
X92488D01*
Y38992D01*
X93488Y37992D01*
X92488Y36992D01*
Y35992D01*
Y32449D02*
X93488D01*
X94488Y33449D01*
X95488Y32449D01*
X96488D01*
Y33449D01*
X95488Y34449D01*
X96488Y35449D01*
Y36449D01*
X95488D01*
X94488Y35449D01*
X93488Y36449D01*
X92488D01*
Y35449D01*
X93488Y34449D01*
X92488Y33449D01*
Y32449D01*
X96031D02*
X97031D01*
X98032Y33449D01*
X99032Y32449D01*
X100031D01*
Y33449D01*
X99032Y34449D01*
X100031Y35449D01*
Y36449D01*
X99032D01*
X98032Y35449D01*
X97031Y36449D01*
X96031D01*
Y35449D01*
X97031Y34449D01*
X96031Y33449D01*
Y32449D01*
X97705Y63748D02*
X98705D01*
X99705Y64748D01*
X100705Y63748D01*
X101705D01*
Y64748D01*
X100705Y65748D01*
X101705Y66748D01*
Y67748D01*
X100705D01*
X99705Y66748D01*
X98705Y67748D01*
X97705D01*
Y66748D01*
X98705Y65748D01*
X97705Y64748D01*
Y63748D01*
X94161D02*
X95161D01*
X96161Y64748D01*
X97161Y63748D01*
X98161D01*
Y64748D01*
X97161Y65748D01*
X98161Y66748D01*
Y67748D01*
X97161D01*
X96161Y66748D01*
X95161Y67748D01*
X94161D01*
Y66748D01*
X95161Y65748D01*
X94161Y64748D01*
Y63748D01*
Y60205D02*
X95161D01*
X96161Y61205D01*
X97161Y60205D01*
X98161D01*
Y61205D01*
X97161Y62205D01*
X98161Y63205D01*
Y64205D01*
X97161D01*
X96161Y63205D01*
X95161Y64205D01*
X94161D01*
Y63205D01*
X95161Y62205D01*
X94161Y61205D01*
Y60205D01*
X97705D02*
X98705D01*
X99705Y61205D01*
X100705Y60205D01*
X101705D01*
Y61205D01*
X100705Y62205D01*
X101705Y63205D01*
Y64205D01*
X100705D01*
X99705Y63205D01*
X98705Y64205D01*
X97705D01*
Y63205D01*
X98705Y62205D01*
X97705Y61205D01*
Y60205D01*
X196130Y41898D02*
X197130D01*
X198130Y42898D01*
X199130Y41898D01*
X200130D01*
Y42898D01*
X199130Y43898D01*
X200130Y44898D01*
Y45898D01*
X199130D01*
X198130Y44898D01*
X197130Y45898D01*
X196130D01*
Y44898D01*
X197130Y43898D01*
X196130Y42898D01*
Y41898D01*
X190676Y52001D02*
X191676D01*
X192676Y53001D01*
X193676Y52001D01*
X194676D01*
Y53001D01*
X193676Y54001D01*
X194676Y55001D01*
Y56001D01*
X193676D01*
X192676Y55001D01*
X191676Y56001D01*
X190676D01*
Y55001D01*
X191676Y54001D01*
X190676Y53001D01*
Y52001D01*
X220163Y121671D02*
X221163D01*
X222163Y122671D01*
X223163Y121671D01*
X224163D01*
Y122671D01*
X223163Y123671D01*
X224163Y124671D01*
Y125671D01*
X223163D01*
X222163Y124671D01*
X221163Y125671D01*
X220163D01*
Y124671D01*
X221163Y123671D01*
X220163Y122671D01*
Y121671D01*
X150478Y16553D02*
X151478D01*
X152478Y17553D01*
X153478Y16553D01*
X154478D01*
Y17553D01*
X153478Y18553D01*
X154478Y19553D01*
Y20553D01*
X153478D01*
X152478Y19553D01*
X151478Y20553D01*
X150478D01*
Y19553D01*
X151478Y18553D01*
X150478Y17553D01*
Y16553D01*
X92604Y69702D02*
X93604D01*
X94604Y70702D01*
X95604Y69702D01*
X96604D01*
Y70702D01*
X95604Y71702D01*
X96604Y72702D01*
Y73702D01*
X95604D01*
X94604Y72702D01*
X93604Y73702D01*
X92604D01*
Y72702D01*
X93604Y71702D01*
X92604Y70702D01*
Y69702D01*
X183155Y16946D02*
X184155D01*
X185155Y17946D01*
X186155Y16946D01*
X187155D01*
Y17946D01*
X186155Y18946D01*
X187155Y19946D01*
Y20946D01*
X186155D01*
X185155Y19946D01*
X184155Y20946D01*
X183155D01*
Y19946D01*
X184155Y18946D01*
X183155Y17946D01*
Y16946D01*
X113863Y16553D02*
X114863D01*
X115863Y17553D01*
X116863Y16553D01*
X117863D01*
Y17553D01*
X116863Y18553D01*
X117863Y19553D01*
Y20553D01*
X116863D01*
X115863Y19553D01*
X114863Y20553D01*
X113863D01*
Y19553D01*
X114863Y18553D01*
X113863Y17553D01*
Y16553D01*
X48115Y27576D02*
X49115D01*
X50115Y28576D01*
X51115Y27576D01*
X52115D01*
Y28576D01*
X51115Y29576D01*
X52115Y30576D01*
Y31576D01*
X51115D01*
X50115Y30576D01*
X49115Y31576D01*
X48115D01*
Y30576D01*
X49115Y29576D01*
X48115Y28576D01*
Y27576D01*
X48903Y59860D02*
X49903D01*
X50903Y60860D01*
X51903Y59860D01*
X52903D01*
Y60860D01*
X51903Y61860D01*
X52903Y62860D01*
Y63860D01*
X51903D01*
X50903Y62860D01*
X49903Y63860D01*
X48903D01*
Y62860D01*
X49903Y61860D01*
X48903Y60860D01*
Y59860D01*
X37486Y92537D02*
X38486D01*
X39485Y93537D01*
X40486Y92537D01*
X41486D01*
Y93537D01*
X40486Y94537D01*
X41486Y95537D01*
Y96537D01*
X40486D01*
X39485Y95537D01*
X38486Y96537D01*
X37486D01*
Y95537D01*
X38486Y94537D01*
X37486Y93537D01*
Y92537D01*
X27643Y112222D02*
X28643D01*
X29643Y113222D01*
X30643Y112222D01*
X31643D01*
Y113222D01*
X30643Y114222D01*
X31643Y115222D01*
Y116222D01*
X30643D01*
X29643Y115222D01*
X28643Y116222D01*
X27643D01*
Y115222D01*
X28643Y114222D01*
X27643Y113222D01*
Y112222D01*
X13863Y126002D02*
X14863D01*
X15864Y127002D01*
X16863Y126002D01*
X17864D01*
Y127002D01*
X16863Y128001D01*
X17864Y129001D01*
Y130001D01*
X16863D01*
X15864Y129001D01*
X14863Y130001D01*
X13863D01*
Y129001D01*
X14863Y128001D01*
X13863Y127002D01*
Y126002D01*
X39454D02*
X40454D01*
X41454Y127002D01*
X42454Y126002D01*
X43454D01*
Y127002D01*
X42454Y128001D01*
X43454Y129001D01*
Y130001D01*
X42454D01*
X41454Y129001D01*
X40454Y130001D01*
X39454D01*
Y129001D01*
X40454Y128001D01*
X39454Y127002D01*
Y126002D01*
X25675Y141750D02*
X26675D01*
X27674Y142750D01*
X28675Y141750D01*
X29675D01*
Y142750D01*
X28675Y143750D01*
X29675Y144750D01*
Y145750D01*
X28675D01*
X27674Y144750D01*
X26675Y145750D01*
X25675D01*
Y144750D01*
X26675Y143750D01*
X25675Y142750D01*
Y141750D01*
X35517Y155529D02*
X36517D01*
X37517Y156529D01*
X38517Y155529D01*
X39517D01*
Y156529D01*
X38517Y157529D01*
X39517Y158529D01*
Y159529D01*
X38517D01*
X37517Y158529D01*
X36517Y159529D01*
X35517D01*
Y158529D01*
X36517Y157529D01*
X35517Y156529D01*
Y155529D01*
X13863D02*
X14863D01*
X15864Y156529D01*
X16863Y155529D01*
X17864D01*
Y156529D01*
X16863Y157529D01*
X17864Y158529D01*
Y159529D01*
X16863D01*
X15864Y158529D01*
X14863Y159529D01*
X13863D01*
Y158529D01*
X14863Y157529D01*
X13863Y156529D01*
Y155529D01*
X25675Y9860D02*
X26675D01*
X27674Y10860D01*
X28675Y9860D01*
X29675D01*
Y10860D01*
X28675Y11860D01*
X29675Y12860D01*
Y13860D01*
X28675D01*
X27674Y12860D01*
X26675Y13860D01*
X25675D01*
Y12860D01*
X26675Y11860D01*
X25675Y10860D01*
Y9860D01*
X37486Y25608D02*
X38486D01*
X39485Y26608D01*
X40486Y25608D01*
X41486D01*
Y26608D01*
X40486Y27608D01*
X41486Y28608D01*
Y29608D01*
X40486D01*
X39485Y28608D01*
X38486Y29608D01*
X37486D01*
Y28608D01*
X38486Y27608D01*
X37486Y26608D01*
Y25608D01*
X11895D02*
X12895D01*
X13895Y26608D01*
X14895Y25608D01*
X15895D01*
Y26608D01*
X14895Y27608D01*
X15895Y28608D01*
Y29608D01*
X14895D01*
X13895Y28608D01*
X12895Y29608D01*
X11895D01*
Y28608D01*
X12895Y27608D01*
X11895Y26608D01*
Y25608D01*
X23706Y43324D02*
X24706D01*
X25706Y44324D01*
X26706Y43324D01*
X27706D01*
Y44324D01*
X26706Y45324D01*
X27706Y46324D01*
Y47324D01*
X26706D01*
X25706Y46324D01*
X24706Y47324D01*
X23706D01*
Y46324D01*
X24706Y45324D01*
X23706Y44324D01*
Y43324D01*
X9926Y57104D02*
X10926D01*
X11926Y58104D01*
X12926Y57104D01*
X13926D01*
Y58104D01*
X12926Y59104D01*
X13926Y60104D01*
Y61104D01*
X12926D01*
X11926Y60104D01*
X10926Y61104D01*
X9926D01*
Y60104D01*
X10926Y59104D01*
X9926Y58104D01*
Y57104D01*
X19769Y70883D02*
X20769D01*
X21769Y71883D01*
X22769Y70883D01*
X23769D01*
Y71883D01*
X22769Y72883D01*
X23769Y73883D01*
Y74883D01*
X22769D01*
X21769Y73883D01*
X20769Y74883D01*
X19769D01*
Y73883D01*
X20769Y72883D01*
X19769Y71883D01*
Y70883D01*
X39454Y55135D02*
X40454D01*
X41454Y56135D01*
X42454Y55135D01*
X43454D01*
Y56135D01*
X42454Y57135D01*
X43454Y58135D01*
Y59135D01*
X42454D01*
X41454Y58135D01*
X40454Y59135D01*
X39454D01*
Y58135D01*
X40454Y57135D01*
X39454Y56135D01*
Y55135D01*
X301265Y33482D02*
X302265D01*
X303265Y34482D01*
X304265Y33482D01*
X305265D01*
Y34482D01*
X304265Y35482D01*
X305265Y36482D01*
Y37482D01*
X304265D01*
X303265Y36482D01*
X302265Y37482D01*
X301265D01*
Y36482D01*
X302265Y35482D01*
X301265Y34482D01*
Y33482D01*
X37468Y-228D02*
X38469D01*
X39469Y772D01*
X40468Y-228D01*
X41469D01*
Y772D01*
X40468Y1772D01*
X41469Y2772D01*
Y3772D01*
X40468D01*
X39469Y2772D01*
X38469Y3772D01*
X37468D01*
Y2772D01*
X38469Y1772D01*
X37468Y772D01*
Y-228D01*
X27331D02*
X28331D01*
X29331Y772D01*
X30331Y-228D01*
X31331D01*
Y772D01*
X30331Y1772D01*
X31331Y2772D01*
Y3772D01*
X30331D01*
X29331Y2772D01*
X28331Y3772D01*
X27331D01*
Y2772D01*
X28331Y1772D01*
X27331Y772D01*
Y-228D01*
X17193D02*
X18193D01*
X19193Y772D01*
X20193Y-228D01*
X21193D01*
Y772D01*
X20193Y1772D01*
X21193Y2772D01*
Y3772D01*
X20193D01*
X19193Y2772D01*
X18193Y3772D01*
X17193D01*
Y2772D01*
X18193Y1772D01*
X17193Y772D01*
Y-228D01*
X8039Y1051D02*
X9039D01*
X10039Y2051D01*
X11039Y1051D01*
X12039D01*
Y2051D01*
X11039Y3051D01*
X12039Y4051D01*
Y5051D01*
X11039D01*
X10039Y4051D01*
X9039Y5051D01*
X8039D01*
Y4051D01*
X9039Y3051D01*
X8039Y2051D01*
Y1051D01*
X23591Y193079D02*
X24590D01*
X25591Y194079D01*
X26591Y193079D01*
X27591D01*
Y194079D01*
X26591Y195079D01*
X27591Y196079D01*
Y197079D01*
X26591D01*
X25591Y196079D01*
X24590Y197079D01*
X23591D01*
Y196079D01*
X24590Y195079D01*
X23591Y194079D01*
Y193079D01*
X6366Y190913D02*
X7366D01*
X8366Y191913D01*
X9366Y190913D01*
X10366D01*
Y191913D01*
X9366Y192913D01*
X10366Y193913D01*
Y194913D01*
X9366D01*
X8366Y193913D01*
X7366Y194913D01*
X6366D01*
Y193913D01*
X7366Y192913D01*
X6366Y191913D01*
Y190913D01*
X13650Y193079D02*
X14650D01*
X15650Y194079D01*
X16650Y193079D01*
X17650D01*
Y194079D01*
X16650Y195079D01*
X17650Y196079D01*
Y197079D01*
X16650D01*
X15650Y196079D01*
X14650Y197079D01*
X13650D01*
Y196079D01*
X14650Y195079D01*
X13650Y194079D01*
Y193079D01*
X32842D02*
X33843D01*
X34843Y194079D01*
X35842Y193079D01*
X36843D01*
Y194079D01*
X35842Y195079D01*
X36843Y196079D01*
Y197079D01*
X35842D01*
X34843Y196079D01*
X33843Y197079D01*
X32842D01*
Y196079D01*
X33843Y195079D01*
X32842Y194079D01*
Y193079D01*
X42882D02*
X43882D01*
X44882Y194079D01*
X45882Y193079D01*
X46882D01*
Y194079D01*
X45882Y195079D01*
X46882Y196079D01*
Y197079D01*
X45882D01*
X44882Y196079D01*
X43882Y197079D01*
X42882D01*
Y196079D01*
X43882Y195079D01*
X42882Y194079D01*
Y193079D01*
X298000Y49575D02*
X299000D01*
X300000Y50575D01*
X301000Y49575D01*
X302000D01*
Y50575D01*
X301000Y51575D01*
X302000Y52575D01*
Y53575D01*
X301000D01*
X300000Y52575D01*
X299000Y53575D01*
X298000D01*
Y52575D01*
X299000Y51575D01*
X298000Y50575D01*
Y49575D01*
X112173Y131071D02*
X113173D01*
X114173Y132071D01*
X115173Y131071D01*
X116173D01*
Y132071D01*
X115173Y133071D01*
X116173Y134071D01*
Y135071D01*
X115173D01*
X114173Y134071D01*
X113173Y135071D01*
X112173D01*
Y134071D01*
X113173Y133071D01*
X112173Y132071D01*
Y131071D01*
X162657Y93616D02*
X163657D01*
X164657Y94616D01*
X165657Y93616D01*
X166657D01*
Y94616D01*
X165657Y95616D01*
X166657Y96615D01*
Y97615D01*
X165657D01*
X164657Y96615D01*
X163657Y97615D01*
X162657D01*
Y96615D01*
X163657Y95616D01*
X162657Y94616D01*
Y93616D01*
X175953Y24772D02*
X176953D01*
X177953Y25772D01*
X178953Y24772D01*
X179953D01*
Y25772D01*
X178953Y26772D01*
X179953Y27772D01*
Y28772D01*
X178953D01*
X177953Y27772D01*
X176953Y28772D01*
X175953D01*
Y27772D01*
X176953Y26772D01*
X175953Y25772D01*
Y24772D01*
X138551Y47213D02*
X139551D01*
X140551Y48213D01*
X141551Y47213D01*
X142551D01*
Y48213D01*
X141551Y49213D01*
X142551Y50213D01*
Y51213D01*
X141551D01*
X140551Y50213D01*
X139551Y51213D01*
X138551D01*
Y50213D01*
X139551Y49213D01*
X138551Y48213D01*
Y47213D01*
X285795Y57547D02*
X286795D01*
X287795Y58547D01*
X288795Y57547D01*
X289795D01*
Y58547D01*
X288795Y59547D01*
X289795Y60547D01*
Y61547D01*
X288795D01*
X287795Y60547D01*
X286795Y61547D01*
X285795D01*
Y60547D01*
X286795Y59547D01*
X285795Y58547D01*
Y57547D01*
X268965Y145343D02*
X269965D01*
X270965Y146343D01*
X271965Y145343D01*
X272965D01*
Y146343D01*
X271965Y147343D01*
X272965Y148343D01*
Y149343D01*
X271965D01*
X270965Y148343D01*
X269965Y149343D01*
X268965D01*
Y148343D01*
X269965Y147343D01*
X268965Y146343D01*
Y145343D01*
X70835Y193079D02*
X71835D01*
X72835Y194079D01*
X73835Y193079D01*
X74835D01*
Y194079D01*
X73835Y195079D01*
X74835Y196079D01*
Y197079D01*
X73835D01*
X72835Y196079D01*
X71835Y197079D01*
X70835D01*
Y196079D01*
X71835Y195079D01*
X70835Y194079D01*
Y193079D01*
X161583Y41701D02*
X162583D01*
X163583Y42701D01*
X164583Y41701D01*
X165583D01*
Y42701D01*
X164583Y43701D01*
X165583Y44701D01*
Y45701D01*
X164583D01*
X163583Y44701D01*
X162583Y45701D01*
X161583D01*
Y44701D01*
X162583Y43701D01*
X161583Y42701D01*
Y41701D01*
X135106Y128709D02*
X136106D01*
X137106Y129709D01*
X138106Y128709D01*
X139106D01*
Y129709D01*
X138106Y130709D01*
X139106Y131709D01*
Y132709D01*
X138106D01*
X137106Y131709D01*
X136106Y132709D01*
X135106D01*
Y131709D01*
X136106Y130709D01*
X135106Y129709D01*
Y128709D01*
X141898Y119850D02*
X142898D01*
X143898Y120850D01*
X144898Y119850D01*
X145898D01*
Y120850D01*
X144898Y121850D01*
X145898Y122850D01*
Y123850D01*
X144898D01*
X143898Y122850D01*
X142898Y123850D01*
X141898D01*
Y122850D01*
X142898Y121850D01*
X141898Y120850D01*
Y119850D01*
X150264Y182449D02*
X151264D01*
X152264Y183449D01*
X153264Y182449D01*
X154264D01*
Y183449D01*
X153264Y184449D01*
X154264Y185449D01*
Y186449D01*
X153264D01*
X152264Y185449D01*
X151264Y186449D01*
X150264D01*
Y185449D01*
X151264Y184449D01*
X150264Y183449D01*
Y182449D01*
X168374Y126543D02*
X169374D01*
X170374Y127543D01*
X171374Y126543D01*
X172374D01*
Y127543D01*
X171374Y128543D01*
X172374Y129543D01*
Y130543D01*
X171374D01*
X170374Y129543D01*
X169374Y130543D01*
X168374D01*
Y129543D01*
X169374Y128543D01*
X168374Y127543D01*
Y126543D01*
X131465Y32252D02*
X132465D01*
X133465Y33252D01*
X134465Y32252D01*
X135465D01*
Y33252D01*
X134465Y34252D01*
X135465Y35252D01*
Y36252D01*
X134465D01*
X133465Y35252D01*
X132465Y36252D01*
X131465D01*
Y35252D01*
X132465Y34252D01*
X131465Y33252D01*
Y32252D01*
X135008Y57842D02*
X136008D01*
X137008Y58842D01*
X138008Y57842D01*
X139008D01*
Y58842D01*
X138008Y59842D01*
X139008Y60843D01*
Y61843D01*
X138008D01*
X137008Y60843D01*
X136008Y61843D01*
X135008D01*
Y60843D01*
X136008Y59842D01*
X135008Y58842D01*
Y57842D01*
X268571Y81661D02*
X269571D01*
X270571Y82661D01*
X271571Y81661D01*
X272571D01*
Y82661D01*
X271571Y83661D01*
X272571Y84661D01*
Y85661D01*
X271571D01*
X270571Y84661D01*
X269571Y85661D01*
X268571D01*
Y84661D01*
X269571Y83661D01*
X268571Y82661D01*
Y81661D01*
X302429Y191996D02*
X303429D01*
X304429Y192996D01*
X305429Y191996D01*
X306429D01*
Y192996D01*
X305429Y193996D01*
X306429Y194996D01*
Y195996D01*
X305429D01*
X304429Y194996D01*
X303429Y195996D01*
X302429D01*
Y194996D01*
X303429Y193996D01*
X302429Y192996D01*
Y191996D01*
X141898Y86090D02*
X142898D01*
X143898Y87090D01*
X144898Y86090D01*
X145898D01*
Y87090D01*
X144898Y88090D01*
X145898Y89091D01*
Y90091D01*
X144898D01*
X143898Y89091D01*
X142898Y90091D01*
X141898D01*
Y89091D01*
X142898Y88090D01*
X141898Y87090D01*
Y86090D01*
X204693Y116110D02*
X205693D01*
X206693Y117110D01*
X207693Y116110D01*
X208693D01*
Y117110D01*
X207693Y118110D01*
X208693Y119110D01*
Y120110D01*
X207693D01*
X206693Y119110D01*
X205693Y120110D01*
X204693D01*
Y119110D01*
X205693Y118110D01*
X204693Y117110D01*
Y116110D01*
X198000Y110992D02*
X199000D01*
X200000Y111992D01*
X201000Y110992D01*
X202000D01*
Y111992D01*
X201000Y112992D01*
X202000Y113992D01*
Y114992D01*
X201000D01*
X200000Y113992D01*
X199000Y114992D01*
X198000D01*
Y113992D01*
X199000Y112992D01*
X198000Y111992D01*
Y110992D01*
X180283Y176347D02*
X181283D01*
X182283Y177347D01*
X183283Y176347D01*
X184283D01*
Y177347D01*
X183283Y178347D01*
X184283Y179347D01*
Y180347D01*
X183283D01*
X182283Y179347D01*
X181283Y180347D01*
X180283D01*
Y179347D01*
X181283Y178347D01*
X180283Y177347D01*
Y176347D01*
X197508Y76543D02*
X198508D01*
X199508Y77543D01*
X200508Y76543D01*
X201508D01*
Y77543D01*
X200508Y78543D01*
X201508Y79543D01*
Y80543D01*
X200508D01*
X199508Y79543D01*
X198508Y80543D01*
X197508D01*
Y79543D01*
X198508Y78543D01*
X197508Y77543D01*
Y76543D01*
X180677Y166898D02*
X181677D01*
X182677Y167898D01*
X183677Y166898D01*
X184677D01*
Y167898D01*
X183677Y168898D01*
X184677Y169898D01*
Y170898D01*
X183677D01*
X182677Y169898D01*
X181677Y170898D01*
X180677D01*
Y169898D01*
X181677Y168898D01*
X180677Y167898D01*
Y166898D01*
X145638Y32252D02*
X146638D01*
X147638Y33252D01*
X148638Y32252D01*
X149638D01*
Y33252D01*
X148638Y34252D01*
X149638Y35252D01*
Y36252D01*
X148638D01*
X147638Y35252D01*
X146638Y36252D01*
X145638D01*
Y35252D01*
X146638Y34252D01*
X145638Y33252D01*
Y32252D01*
X218079Y181071D02*
X219079D01*
X220079Y182071D01*
X221079Y181071D01*
X222079D01*
Y182071D01*
X221079Y183071D01*
X222079Y184071D01*
Y185071D01*
X221079D01*
X220079Y184071D01*
X219079Y185071D01*
X218079D01*
Y184071D01*
X219079Y183071D01*
X218079Y182071D01*
Y181071D01*
X219457Y72803D02*
X220457D01*
X221457Y73803D01*
X222457Y72803D01*
X223457D01*
Y73803D01*
X222457Y74803D01*
X223457Y75803D01*
Y76803D01*
X222457D01*
X221457Y75803D01*
X220457Y76803D01*
X219457D01*
Y75803D01*
X220457Y74803D01*
X219457Y73803D01*
Y72803D01*
X311189Y99673D02*
X312189D01*
X313189Y100673D01*
X314189Y99673D01*
X315189D01*
Y100673D01*
X314189Y101673D01*
X315189Y102673D01*
Y103673D01*
X314189D01*
X313189Y102673D01*
X312189Y103673D01*
X311189D01*
Y102673D01*
X312189Y101673D01*
X311189Y100673D01*
Y99673D01*
X142404Y97586D02*
X143404D01*
X144404Y98586D01*
X145404Y97586D01*
X146404D01*
Y98586D01*
X145404Y99586D01*
X146404Y100586D01*
Y101586D01*
X145404D01*
X144404Y100586D01*
X143404Y101586D01*
X142404D01*
Y100586D01*
X143404Y99586D01*
X142404Y98586D01*
Y97586D01*
X227331Y57646D02*
X228331D01*
X229331Y58646D01*
X230331Y57646D01*
X231331D01*
Y58646D01*
X230331Y59646D01*
X231331Y60646D01*
Y61646D01*
X230331D01*
X229331Y60646D01*
X228331Y61646D01*
X227331D01*
Y60646D01*
X228331Y59646D01*
X227331Y58646D01*
Y57646D01*
X178709Y71622D02*
X179709D01*
X180709Y72622D01*
X181709Y71622D01*
X182709D01*
Y72622D01*
X181709Y73622D01*
X182709Y74622D01*
Y75622D01*
X181709D01*
X180709Y74622D01*
X179709Y75622D01*
X178709D01*
Y74622D01*
X179709Y73622D01*
X178709Y72622D01*
Y71622D01*
X156268Y69260D02*
X157268D01*
X158268Y70260D01*
X159268Y69260D01*
X160268D01*
Y70260D01*
X159268Y71260D01*
X160268Y72260D01*
Y73260D01*
X159268D01*
X158268Y72260D01*
X157268Y73260D01*
X156268D01*
Y72260D01*
X157268Y71260D01*
X156268Y70260D01*
Y69260D01*
X150264Y75756D02*
X151264D01*
X152264Y76756D01*
X153264Y75756D01*
X154264D01*
Y76756D01*
X153264Y77756D01*
X154264Y78756D01*
Y79756D01*
X153264D01*
X152264Y78756D01*
X151264Y79756D01*
X150264D01*
Y78756D01*
X151264Y77756D01*
X150264Y76756D01*
Y75756D01*
X180677Y156268D02*
X181677D01*
X182677Y157268D01*
X183677Y156268D01*
X184677D01*
Y157268D01*
X183677Y158268D01*
X184677Y159268D01*
Y160268D01*
X183677D01*
X182677Y159268D01*
X181677Y160268D01*
X180677D01*
Y159268D01*
X181677Y158268D01*
X180677Y157268D01*
Y156268D01*
X173591Y47606D02*
X174591D01*
X175591Y48606D01*
X176591Y47606D01*
X177591D01*
Y48606D01*
X176591Y49606D01*
X177591Y50606D01*
Y51606D01*
X176591D01*
X175591Y50606D01*
X174591Y51606D01*
X173591D01*
Y50606D01*
X174591Y49606D01*
X173591Y48606D01*
Y47606D01*
X225165Y184614D02*
X226165D01*
X227165Y185614D01*
X228165Y184614D01*
X229165D01*
Y185614D01*
X228165Y186614D01*
X229165Y187614D01*
Y188614D01*
X228165D01*
X227165Y187614D01*
X226165Y188614D01*
X225165D01*
Y187614D01*
X226165Y186614D01*
X225165Y185614D01*
Y184614D01*
X165717D02*
X166717D01*
X167717Y185614D01*
X168717Y184614D01*
X169717D01*
Y185614D01*
X168717Y186614D01*
X169717Y187614D01*
Y188614D01*
X168717D01*
X167717Y187614D01*
X166717Y188614D01*
X165717D01*
Y187614D01*
X166717Y186614D01*
X165717Y185614D01*
Y184614D01*
X61681Y-228D02*
X62681D01*
X63681Y772D01*
X64681Y-228D01*
X65681D01*
Y772D01*
X64681Y1772D01*
X65681Y2772D01*
Y3772D01*
X64681D01*
X63681Y2772D01*
X62681Y3772D01*
X61681D01*
Y2772D01*
X62681Y1772D01*
X61681Y772D01*
Y-228D01*
X-228Y66799D02*
X772D01*
X1772Y67799D01*
X2772Y66799D01*
X3772D01*
Y67799D01*
X2772Y68799D01*
X3772Y69799D01*
Y70799D01*
X2772D01*
X1772Y69799D01*
X772Y70799D01*
X-228D01*
Y69799D01*
X772Y68799D01*
X-228Y67799D01*
Y66799D01*
X208827Y56957D02*
X209827D01*
X210827Y57957D01*
X211827Y56957D01*
X212827D01*
Y57957D01*
X211827Y58957D01*
X212827Y59957D01*
Y60957D01*
X211827D01*
X210827Y59957D01*
X209827Y60957D01*
X208827D01*
Y59957D01*
X209827Y58957D01*
X208827Y57957D01*
Y56957D01*
X199870Y66800D02*
X200870D01*
X201870Y67800D01*
X202870Y66800D01*
X203870D01*
Y67800D01*
X202870Y68800D01*
X203870Y69800D01*
Y70800D01*
X202870D01*
X201870Y69800D01*
X200870Y70800D01*
X199870D01*
Y69800D01*
X200870Y68800D01*
X199870Y67800D01*
Y66800D01*
X69161Y76937D02*
X70161D01*
X71161Y77937D01*
X72161Y76937D01*
X73161D01*
Y77937D01*
X72161Y78937D01*
X73161Y79937D01*
Y80937D01*
X72161D01*
X71161Y79937D01*
X70161Y80937D01*
X69161D01*
Y79937D01*
X70161Y78937D01*
X69161Y77937D01*
Y76937D01*
X173591Y163354D02*
X174591D01*
X175591Y164354D01*
X176591Y163354D01*
X177591D01*
Y164354D01*
X176591Y165354D01*
X177591Y166354D01*
Y167354D01*
X176591D01*
X175591Y166354D01*
X174591Y167354D01*
X173591D01*
Y166354D01*
X174591Y165354D01*
X173591Y164354D01*
Y163354D01*
X187764Y79496D02*
X188764D01*
X189764Y80496D01*
X190764Y79496D01*
X191764D01*
Y80496D01*
X190764Y81496D01*
X191764Y82496D01*
Y83496D01*
X190764D01*
X189764Y82496D01*
X188764Y83496D01*
X187764D01*
Y82496D01*
X188764Y81496D01*
X187764Y80496D01*
Y79496D01*
X228709Y170441D02*
X229709D01*
X230709Y171441D01*
X231709Y170441D01*
X232709D01*
Y171441D01*
X231709Y172441D01*
X232709Y173441D01*
Y174441D01*
X231709D01*
X230709Y173441D01*
X229709Y174441D01*
X228709D01*
Y173441D01*
X229709Y172441D01*
X228709Y171441D01*
Y170441D01*
X187567Y115421D02*
X188567D01*
X189567Y116421D01*
X190567Y115421D01*
X191567D01*
Y116421D01*
X190567Y117421D01*
X191567Y118421D01*
Y119421D01*
X190567D01*
X189567Y118421D01*
X188567Y119421D01*
X187567D01*
Y118421D01*
X188567Y117421D01*
X187567Y116421D01*
Y115421D01*
X139142Y-228D02*
X140142D01*
X141142Y772D01*
X142142Y-228D01*
X143142D01*
Y772D01*
X142142Y1772D01*
X143142Y2772D01*
Y3772D01*
X142142D01*
X141142Y2772D01*
X140142Y3772D01*
X139142D01*
Y2772D01*
X140142Y1772D01*
X139142Y772D01*
Y-228D01*
X-228Y161386D02*
X772D01*
X1772Y162386D01*
X2772Y161386D01*
X3772D01*
Y162386D01*
X2772Y163386D01*
X3772Y164386D01*
Y165386D01*
X2772D01*
X1772Y164386D01*
X772Y165386D01*
X-228D01*
Y164386D01*
X772Y163386D01*
X-228Y162386D01*
Y161386D01*
X90618Y162567D02*
X91618D01*
X92618Y163567D01*
X93618Y162567D01*
X94618D01*
Y163567D01*
X93618Y164567D01*
X94618Y165567D01*
Y166567D01*
X93618D01*
X92618Y165567D01*
X91618Y166567D01*
X90618D01*
Y165567D01*
X91618Y164567D01*
X90618Y163567D01*
Y162567D01*
X241898Y34614D02*
X242898D01*
X243898Y35614D01*
X244898Y34614D01*
X245898D01*
Y35614D01*
X244898Y36614D01*
X245898Y37614D01*
Y38614D01*
X244898D01*
X243898Y37614D01*
X242898Y38614D01*
X241898D01*
Y37614D01*
X242898Y36614D01*
X241898Y35614D01*
Y34614D01*
X170047Y149181D02*
X171047D01*
X172047Y150181D01*
X173047Y149181D01*
X174047D01*
Y150181D01*
X173047Y151181D01*
X174047Y152181D01*
Y153181D01*
X173047D01*
X172047Y152181D01*
X171047Y153181D01*
X170047D01*
Y152181D01*
X171047Y151181D01*
X170047Y150181D01*
Y149181D01*
Y47606D02*
X171047D01*
X172047Y48606D01*
X173047Y47606D01*
X174047D01*
Y48606D01*
X173047Y49606D01*
X174047Y50606D01*
Y51606D01*
X173047D01*
X172047Y50606D01*
X171047Y51606D01*
X170047D01*
Y50606D01*
X171047Y49606D01*
X170047Y48606D01*
Y47606D01*
X173591Y97213D02*
X174591D01*
X175591Y98213D01*
X176591Y97213D01*
X177591D01*
Y98213D01*
X176591Y99213D01*
X177591Y100213D01*
Y101213D01*
X176591D01*
X175591Y100213D01*
X174591Y101213D01*
X173591D01*
Y100213D01*
X174591Y99213D01*
X173591Y98213D01*
Y97213D01*
X204693Y109024D02*
X205693D01*
X206693Y110024D01*
X207693Y109024D01*
X208693D01*
Y110024D01*
X207693Y111024D01*
X208693Y112024D01*
Y113024D01*
X207693D01*
X206693Y112024D01*
X205693Y113024D01*
X204693D01*
Y112024D01*
X205693Y111024D01*
X204693Y110024D01*
Y109024D01*
X209122Y163453D02*
X210122D01*
X211122Y164453D01*
X212122Y163453D01*
X213122D01*
Y164453D01*
X212122Y165453D01*
X213122Y166453D01*
Y167453D01*
X212122D01*
X211122Y166453D01*
X210122Y167453D01*
X209122D01*
Y166453D01*
X210122Y165453D01*
X209122Y164453D01*
Y163453D01*
X228413Y-228D02*
X229413D01*
X230413Y772D01*
X231413Y-228D01*
X232413D01*
Y772D01*
X231413Y1772D01*
X232413Y2772D01*
Y3772D01*
X231413D01*
X230413Y2772D01*
X229413Y3772D01*
X228413D01*
Y2772D01*
X229413Y1772D01*
X228413Y772D01*
Y-228D01*
X249772Y193079D02*
X250772D01*
X251772Y194079D01*
X252772Y193079D01*
X253772D01*
Y194079D01*
X252772Y195079D01*
X253772Y196079D01*
Y197079D01*
X252772D01*
X251772Y196079D01*
X250772Y197079D01*
X249772D01*
Y196079D01*
X250772Y195079D01*
X249772Y194079D01*
Y193079D01*
X88059Y94161D02*
X89059D01*
X90059Y95161D01*
X91059Y94161D01*
X92059D01*
Y95161D01*
X91059Y96161D01*
X92059Y97161D01*
Y98161D01*
X91059D01*
X90059Y97161D01*
X89059Y98161D01*
X88059D01*
Y97161D01*
X89059Y96161D01*
X88059Y95161D01*
Y94161D01*
X137665Y129890D02*
X138665D01*
X139665Y130890D01*
X140665Y129890D01*
X141665D01*
Y130890D01*
X140665Y131890D01*
X141665Y132890D01*
Y133890D01*
X140665D01*
X139665Y132890D01*
X138665Y133890D01*
X137665D01*
Y132890D01*
X138665Y131890D01*
X137665Y130890D01*
Y129890D01*
X148394Y56858D02*
X149394D01*
X150394Y57858D01*
X151394Y56858D01*
X152394D01*
Y57858D01*
X151394Y58858D01*
X152394Y59858D01*
Y60858D01*
X151394D01*
X150394Y59858D01*
X149394Y60858D01*
X148394D01*
Y59858D01*
X149394Y58858D01*
X148394Y57858D01*
Y56858D01*
X59980Y156188D02*
X60980D01*
X61980Y157188D01*
X62980Y156188D01*
X63980D01*
Y157188D01*
X62980Y158188D01*
X63980Y159188D01*
Y160188D01*
X62980D01*
X61980Y159188D01*
X60980Y160188D01*
X59980D01*
Y159188D01*
X60980Y158188D01*
X59980Y157188D01*
Y156188D01*
X177134Y40520D02*
X178134D01*
X179134Y41520D01*
X180134Y40520D01*
X181134D01*
Y41520D01*
X180134Y42520D01*
X181134Y43520D01*
Y44520D01*
X180134D01*
X179134Y43520D01*
X178134Y44520D01*
X177134D01*
Y43520D01*
X178134Y42520D01*
X177134Y41520D01*
Y40520D01*
X180677Y90126D02*
X181677D01*
X182677Y91126D01*
X183677Y90126D01*
X184677D01*
Y91126D01*
X183677Y92126D01*
X184677Y93126D01*
Y94126D01*
X183677D01*
X182677Y93126D01*
X181677Y94126D01*
X180677D01*
Y93126D01*
X181677Y92126D01*
X180677Y91126D01*
Y90126D01*
X194752Y44161D02*
X195752D01*
X196752Y45161D01*
X197752Y44161D01*
X198752D01*
Y45161D01*
X197752Y46161D01*
X198752Y47161D01*
Y48161D01*
X197752D01*
X196752Y47161D01*
X195752Y48161D01*
X194752D01*
Y47161D01*
X195752Y46161D01*
X194752Y45161D01*
Y44161D01*
X249772Y66012D02*
X250772D01*
X251772Y67012D01*
X252772Y66012D01*
X253772D01*
Y67012D01*
X252772Y68012D01*
X253772Y69012D01*
Y70012D01*
X252772D01*
X251772Y69012D01*
X250772Y70012D01*
X249772D01*
Y69012D01*
X250772Y68012D01*
X249772Y67012D01*
Y66012D01*
X1051Y8039D02*
X2051D01*
X3051Y9039D01*
X4051Y8039D01*
X5051D01*
Y9039D01*
X4051Y10039D01*
X5051Y11039D01*
Y12039D01*
X4051D01*
X3051Y11039D01*
X2051Y12039D01*
X1051D01*
Y11039D01*
X2051Y10039D01*
X1051Y9039D01*
Y8039D01*
X158630Y193079D02*
X159630D01*
X160630Y194079D01*
X161630Y193079D01*
X162630D01*
Y194079D01*
X161630Y195079D01*
X162630Y196079D01*
Y197079D01*
X161630D01*
X160630Y196079D01*
X159630Y197079D01*
X158630D01*
Y196079D01*
X159630Y195079D01*
X158630Y194079D01*
Y193079D01*
X118079Y68768D02*
X119079D01*
X120079Y69768D01*
X121079Y68768D01*
X122079D01*
Y69768D01*
X121079Y70768D01*
X122079Y71768D01*
Y72768D01*
X121079D01*
X120079Y71768D01*
X119079Y72768D01*
X118079D01*
Y71768D01*
X119079Y70768D01*
X118079Y69768D01*
Y68768D01*
X141799Y138453D02*
X142799D01*
X143799Y139453D01*
X144799Y138453D01*
X145799D01*
Y139453D01*
X144799Y140453D01*
X145799Y141453D01*
Y142453D01*
X144799D01*
X143799Y141453D01*
X142799Y142453D01*
X141799D01*
Y141453D01*
X142799Y140453D01*
X141799Y139453D01*
Y138453D01*
X119949Y142685D02*
X120949D01*
X121949Y143685D01*
X122949Y142685D01*
X123949D01*
Y143685D01*
X122949Y144685D01*
X123949Y145685D01*
Y146685D01*
X122949D01*
X121949Y145685D01*
X120949Y146685D01*
X119949D01*
Y145685D01*
X120949Y144685D01*
X119949Y143685D01*
Y142685D01*
X168489Y69086D02*
X169489D01*
X170489Y70086D01*
X171489Y69086D01*
X172489D01*
Y70086D01*
X171489Y71086D01*
X172489Y72086D01*
Y73086D01*
X171489D01*
X170489Y72086D01*
X169489Y73086D01*
X168489D01*
Y72086D01*
X169489Y71086D01*
X168489Y70086D01*
Y69086D01*
X175953Y28315D02*
X176953D01*
X177953Y29315D01*
X178953Y28315D01*
X179953D01*
Y29315D01*
X178953Y30315D01*
X179953Y31315D01*
Y32315D01*
X178953D01*
X177953Y31315D01*
X176953Y32315D01*
X175953D01*
Y31315D01*
X176953Y30315D01*
X175953Y29315D01*
Y28315D01*
X142095Y47213D02*
X143095D01*
X144095Y48213D01*
X145095Y47213D01*
X146095D01*
Y48213D01*
X145095Y49213D01*
X146095Y50213D01*
Y51213D01*
X145095D01*
X144095Y50213D01*
X143095Y51213D01*
X142095D01*
Y50213D01*
X143095Y49213D01*
X142095Y48213D01*
Y47213D01*
X285795Y50461D02*
X286795D01*
X287795Y51461D01*
X288795Y50461D01*
X289795D01*
Y51461D01*
X288795Y52461D01*
X289795Y53461D01*
Y54461D01*
X288795D01*
X287795Y53461D01*
X286795Y54461D01*
X285795D01*
Y53461D01*
X286795Y52461D01*
X285795Y51461D01*
Y50461D01*
X276839Y145047D02*
X277839D01*
X278839Y146047D01*
X279839Y145047D01*
X280839D01*
Y146047D01*
X279839Y147047D01*
X280839Y148047D01*
Y149047D01*
X279839D01*
X278839Y148047D01*
X277839Y149047D01*
X276839D01*
Y148047D01*
X277839Y147047D01*
X276839Y146047D01*
Y145047D01*
X79299Y193079D02*
X80299D01*
X81299Y194079D01*
X82299Y193079D01*
X83299D01*
Y194079D01*
X82299Y195079D01*
X83299Y196079D01*
Y197079D01*
X82299D01*
X81299Y196079D01*
X80299Y197079D01*
X79299D01*
Y196079D01*
X80299Y195079D01*
X79299Y194079D01*
Y193079D01*
X168177Y41602D02*
X169177D01*
X170177Y42602D01*
X171177Y41602D01*
X172177D01*
Y42602D01*
X171177Y43602D01*
X172177Y44602D01*
Y45602D01*
X171177D01*
X170177Y44602D01*
X169177Y45602D01*
X168177D01*
Y44602D01*
X169177Y43602D01*
X168177Y42602D01*
Y41602D01*
X132734Y129832D02*
X133734D01*
X134734Y130832D01*
X135734Y129832D01*
X136734D01*
Y130832D01*
X135734Y131832D01*
X136734Y132832D01*
Y133832D01*
X135734D01*
X134734Y132832D01*
X133734Y133832D01*
X132734D01*
Y132832D01*
X133734Y131832D01*
X132734Y130832D01*
Y129832D01*
X298000Y157449D02*
X299000D01*
X300000Y158449D01*
X301000Y157449D01*
X302000D01*
Y158449D01*
X301000Y159449D01*
X302000Y160449D01*
Y161449D01*
X301000D01*
X300000Y160449D01*
X299000Y161449D01*
X298000D01*
Y160449D01*
X299000Y159449D01*
X298000Y158449D01*
Y157449D01*
X139240Y174969D02*
X140240D01*
X141240Y175969D01*
X142240Y174969D01*
X143240D01*
Y175969D01*
X142240Y176969D01*
X143240Y177969D01*
Y178969D01*
X142240D01*
X141240Y177969D01*
X140240Y178969D01*
X139240D01*
Y177969D01*
X140240Y176969D01*
X139240Y175969D01*
Y174969D01*
X178217Y136386D02*
X179217D01*
X180217Y137386D01*
X181217Y136386D01*
X182217D01*
Y137386D01*
X181217Y138386D01*
X182217Y139386D01*
Y140386D01*
X181217D01*
X180217Y139386D01*
X179217Y140386D01*
X178217D01*
Y139386D01*
X179217Y138386D01*
X178217Y137386D01*
Y136386D01*
X135008Y32252D02*
X136008D01*
X137008Y33252D01*
X138008Y32252D01*
X139008D01*
Y33252D01*
X138008Y34252D01*
X139008Y35252D01*
Y36252D01*
X138008D01*
X137008Y35252D01*
X136008Y36252D01*
X135008D01*
Y35252D01*
X136008Y34252D01*
X135008Y33252D01*
Y32252D01*
X138551Y57842D02*
X139551D01*
X140551Y58842D01*
X141551Y57842D01*
X142551D01*
Y58842D01*
X141551Y59842D01*
X142551Y60843D01*
Y61843D01*
X141551D01*
X140551Y60843D01*
X139551Y61843D01*
X138551D01*
Y60843D01*
X139551Y59842D01*
X138551Y58842D01*
Y57842D01*
X260303Y77724D02*
X261303D01*
X262303Y78724D01*
X263303Y77724D01*
X264303D01*
Y78724D01*
X263303Y79724D01*
X264303Y80724D01*
Y81724D01*
X263303D01*
X262303Y80724D01*
X261303Y81724D01*
X260303D01*
Y80724D01*
X261303Y79724D01*
X260303Y78724D01*
Y77724D01*
X309122Y186386D02*
X310122D01*
X311122Y187386D01*
X312122Y186386D01*
X313122D01*
Y187386D01*
X312122Y188386D01*
X313122Y189386D01*
Y190386D01*
X312122D01*
X311122Y189386D01*
X310122Y190386D01*
X309122D01*
Y189386D01*
X310122Y188386D01*
X309122Y187386D01*
Y186386D01*
X144063Y85992D02*
X145063D01*
X146063Y86992D01*
X147063Y85992D01*
X148063D01*
Y86992D01*
X147063Y87992D01*
X148063Y88992D01*
Y89992D01*
X147063D01*
X146063Y88992D01*
X145063Y89992D01*
X144063D01*
Y88992D01*
X145063Y87992D01*
X144063Y86992D01*
Y85992D01*
X201150Y119653D02*
X202150D01*
X203150Y120653D01*
X204150Y119653D01*
X205150D01*
Y120653D01*
X204150Y121653D01*
X205150Y122653D01*
Y123653D01*
X204150D01*
X203150Y122653D01*
X202150Y123653D01*
X201150D01*
Y122653D01*
X202150Y121653D01*
X201150Y120653D01*
Y119653D01*
X130283Y119850D02*
X131283D01*
X132283Y120850D01*
X133283Y119850D01*
X134283D01*
Y120850D01*
X133283Y121850D01*
X134283Y122850D01*
Y123850D01*
X133283D01*
X132283Y122850D01*
X131283Y123850D01*
X130283D01*
Y122850D01*
X131283Y121850D01*
X130283Y120850D01*
Y119850D01*
X180283Y179890D02*
X181283D01*
X182283Y180890D01*
X183283Y179890D01*
X184283D01*
Y180890D01*
X183283Y181890D01*
X184283Y182890D01*
Y183890D01*
X183283D01*
X182283Y182890D01*
X181283Y183890D01*
X180283D01*
Y182890D01*
X181283Y181890D01*
X180283Y180890D01*
Y179890D01*
X190028Y69457D02*
X191028D01*
X192028Y70457D01*
X193028Y69457D01*
X194028D01*
Y70457D01*
X193028Y71457D01*
X194028Y72457D01*
Y73457D01*
X193028D01*
X192028Y72457D01*
X191028Y73457D01*
X190028D01*
Y72457D01*
X191028Y71457D01*
X190028Y70457D01*
Y69457D01*
X187764Y166898D02*
X188764D01*
X189764Y167898D01*
X190764Y166898D01*
X191764D01*
Y167898D01*
X190764Y168898D01*
X191764Y169898D01*
Y170898D01*
X190764D01*
X189764Y169898D01*
X188764Y170898D01*
X187764D01*
Y169898D01*
X188764Y168898D01*
X187764Y167898D01*
Y166898D01*
X145638Y35795D02*
X146638D01*
X147638Y36795D01*
X148638Y35795D01*
X149638D01*
Y36795D01*
X148638Y37795D01*
X149638Y38795D01*
Y39795D01*
X148638D01*
X147638Y38795D01*
X146638Y39795D01*
X145638D01*
Y38795D01*
X146638Y37795D01*
X145638Y36795D01*
Y35795D01*
X218079Y166898D02*
X219079D01*
X220079Y167898D01*
X221079Y166898D01*
X222079D01*
Y167898D01*
X221079Y168898D01*
X222079Y169898D01*
Y170898D01*
X221079D01*
X220079Y169898D01*
X219079Y170898D01*
X218079D01*
Y169898D01*
X219079Y168898D01*
X218079Y167898D01*
Y166898D01*
X267390Y110402D02*
X268390D01*
X269390Y111402D01*
X270390Y110402D01*
X271390D01*
Y111402D01*
X270390Y112402D01*
X271390Y113402D01*
Y114402D01*
X270390D01*
X269390Y113402D01*
X268390Y114402D01*
X267390D01*
Y113402D01*
X268390Y112402D01*
X267390Y111402D01*
Y110402D01*
X311189Y109909D02*
X312189D01*
X313189Y110909D01*
X314189Y109909D01*
X315189D01*
Y110909D01*
X314189Y111909D01*
X315189Y112909D01*
Y113909D01*
X314189D01*
X313189Y112909D01*
X312189Y113909D01*
X311189D01*
Y112909D01*
X312189Y111909D01*
X311189Y110909D01*
Y109909D01*
X199083Y105480D02*
X200083D01*
X201083Y106480D01*
X202083Y105480D01*
X203083D01*
Y106480D01*
X202083Y107480D01*
X203083Y108480D01*
Y109480D01*
X202083D01*
X201083Y108480D01*
X200083Y109480D01*
X199083D01*
Y108480D01*
X200083Y107480D01*
X199083Y106480D01*
Y105480D01*
X199772Y100067D02*
X200772D01*
X201772Y101067D01*
X202772Y100067D01*
X203772D01*
Y101067D01*
X202772Y102067D01*
X203772Y103067D01*
Y104067D01*
X202772D01*
X201772Y103067D01*
X200772Y104067D01*
X199772D01*
Y103067D01*
X200772Y102067D01*
X199772Y101067D01*
Y100067D01*
X178709Y68079D02*
X179709D01*
X180709Y69079D01*
X181709Y68079D01*
X182709D01*
Y69079D01*
X181709Y70079D01*
X182709Y71079D01*
Y72079D01*
X181709D01*
X180709Y71079D01*
X179709Y72079D01*
X178709D01*
Y71079D01*
X179709Y70079D01*
X178709Y69079D01*
Y68079D01*
X152724Y69260D02*
X153724D01*
X154724Y70260D01*
X155724Y69260D01*
X156724D01*
Y70260D01*
X155724Y71260D01*
X156724Y72260D01*
Y73260D01*
X155724D01*
X154724Y72260D01*
X153724Y73260D01*
X152724D01*
Y72260D01*
X153724Y71260D01*
X152724Y70260D01*
Y69260D01*
X202232Y131661D02*
X203232D01*
X204232Y132661D01*
X205232Y131661D01*
X206232D01*
Y132661D01*
X205232Y133661D01*
X206232Y134661D01*
Y135661D01*
X205232D01*
X204232Y134661D01*
X203232Y135661D01*
X202232D01*
Y134661D01*
X203232Y133661D01*
X202232Y132661D01*
Y131661D01*
X177134Y156268D02*
X178134D01*
X179134Y157268D01*
X180134Y156268D01*
X181134D01*
Y157268D01*
X180134Y158268D01*
X181134Y159268D01*
Y160268D01*
X180134D01*
X179134Y159268D01*
X178134Y160268D01*
X177134D01*
Y159268D01*
X178134Y158268D01*
X177134Y157268D01*
Y156268D01*
X173591Y44063D02*
X174591D01*
X175591Y45063D01*
X176591Y44063D01*
X177591D01*
Y45063D01*
X176591Y46063D01*
X177591Y47063D01*
Y48063D01*
X176591D01*
X175591Y47063D01*
X174591Y48063D01*
X173591D01*
Y47063D01*
X174591Y46063D01*
X173591Y45063D01*
Y44063D01*
X221622Y181071D02*
X222622D01*
X223622Y182071D01*
X224622Y181071D01*
X225622D01*
Y182071D01*
X224622Y183071D01*
X225622Y184071D01*
Y185071D01*
X224622D01*
X223622Y184071D01*
X222622Y185071D01*
X221622D01*
Y184071D01*
X222622Y183071D01*
X221622Y182071D01*
Y181071D01*
X165618Y171917D02*
X166618D01*
X167618Y172917D01*
X168618Y171917D01*
X169618D01*
Y172917D01*
X168618Y173917D01*
X169618Y174917D01*
Y175917D01*
X168618D01*
X167618Y174917D01*
X166618Y175917D01*
X165618D01*
Y174917D01*
X166618Y173917D01*
X165618Y172917D01*
Y171917D01*
X311189Y15913D02*
X312189D01*
X313189Y16913D01*
X314189Y15913D01*
X315189D01*
Y16913D01*
X314189Y17913D01*
X315189Y18913D01*
Y19913D01*
X314189D01*
X313189Y18913D01*
X312189Y19913D01*
X311189D01*
Y18913D01*
X312189Y17913D01*
X311189Y16913D01*
Y15913D01*
X-228Y56465D02*
X772D01*
X1772Y57465D01*
X2772Y56465D01*
X3772D01*
Y57465D01*
X2772Y58465D01*
X3772Y59465D01*
Y60465D01*
X2772D01*
X1772Y59465D01*
X772Y60465D01*
X-228D01*
Y59465D01*
X772Y58465D01*
X-228Y57465D01*
Y56465D01*
X208827Y59909D02*
X209827D01*
X210827Y60909D01*
X211827Y59909D01*
X212827D01*
Y60909D01*
X211827Y61910D01*
X212827Y62910D01*
Y63910D01*
X211827D01*
X210827Y62910D01*
X209827Y63910D01*
X208827D01*
Y62910D01*
X209827Y61910D01*
X208827Y60909D01*
Y59909D01*
X181465Y114142D02*
X182465D01*
X183465Y115142D01*
X184465Y114142D01*
X185465D01*
Y115142D01*
X184465Y116142D01*
X185465Y117142D01*
Y118142D01*
X184465D01*
X183465Y117142D01*
X182465Y118142D01*
X181465D01*
Y117142D01*
X182465Y116142D01*
X181465Y115142D01*
Y114142D01*
X83335Y81268D02*
X84335D01*
X85335Y82268D01*
X86335Y81268D01*
X87335D01*
Y82268D01*
X86335Y83268D01*
X87335Y84268D01*
Y85268D01*
X86335D01*
X85335Y84268D01*
X84335Y85268D01*
X83335D01*
Y84268D01*
X84335Y83268D01*
X83335Y82268D01*
Y81268D01*
X173591Y159811D02*
X174591D01*
X175591Y160811D01*
X176591Y159811D01*
X177591D01*
Y160811D01*
X176591Y161811D01*
X177591Y162811D01*
Y163811D01*
X176591D01*
X175591Y162811D01*
X174591Y163811D01*
X173591D01*
Y162811D01*
X174591Y161811D01*
X173591Y160811D01*
Y159811D01*
X187764Y75953D02*
X188764D01*
X189764Y76953D01*
X190764Y75953D01*
X191764D01*
Y76953D01*
X190764Y77953D01*
X191764Y78953D01*
Y79953D01*
X190764D01*
X189764Y78953D01*
X188764Y79953D01*
X187764D01*
Y78953D01*
X188764Y77953D01*
X187764Y76953D01*
Y75953D01*
X228709Y173984D02*
X229709D01*
X230709Y174984D01*
X231709Y173984D01*
X232709D01*
Y174984D01*
X231709Y175984D01*
X232709Y176984D01*
Y177984D01*
X231709D01*
X230709Y176984D01*
X229709Y177984D01*
X228709D01*
Y176984D01*
X229709Y175984D01*
X228709Y174984D01*
Y173984D01*
X238945Y131392D02*
X239945D01*
X240945Y132392D01*
X241945Y131392D01*
X242945D01*
Y132392D01*
X241945Y133392D01*
X242945Y134392D01*
Y135392D01*
X241945D01*
X240945Y134392D01*
X239945Y135392D01*
X238945D01*
Y134392D01*
X239945Y133392D01*
X238945Y132392D01*
Y131392D01*
X130480Y-228D02*
X131480D01*
X132480Y772D01*
X133480Y-228D01*
X134480D01*
Y772D01*
X133480Y1772D01*
X134480Y2772D01*
Y3772D01*
X133480D01*
X132480Y2772D01*
X131480Y3772D01*
X130480D01*
Y2772D01*
X131480Y1772D01*
X130480Y772D01*
Y-228D01*
X-228Y152429D02*
X772D01*
X1772Y153429D01*
X2772Y152429D01*
X3772D01*
Y153429D01*
X2772Y154429D01*
X3772Y155429D01*
Y156429D01*
X2772D01*
X1772Y155429D01*
X772Y156429D01*
X-228D01*
Y155429D01*
X772Y154429D01*
X-228Y153429D01*
Y152429D01*
X96031Y162567D02*
X97031D01*
X98032Y163567D01*
X99032Y162567D01*
X100031D01*
Y163567D01*
X99032Y164567D01*
X100031Y165567D01*
Y166567D01*
X99032D01*
X98032Y165567D01*
X97031Y166567D01*
X96031D01*
Y165567D01*
X97031Y164567D01*
X96031Y163567D01*
Y162567D01*
X241799Y32252D02*
X242799D01*
X243799Y33252D01*
X244799Y32252D01*
X245799D01*
Y33252D01*
X244799Y34252D01*
X245799Y35252D01*
Y36252D01*
X244799D01*
X243799Y35252D01*
X242799Y36252D01*
X241799D01*
Y35252D01*
X242799Y34252D01*
X241799Y33252D01*
Y32252D01*
X166504Y149181D02*
X167504D01*
X168504Y150181D01*
X169504Y149181D01*
X170504D01*
Y150181D01*
X169504Y151181D01*
X170504Y152181D01*
Y153181D01*
X169504D01*
X168504Y152181D01*
X167504Y153181D01*
X166504D01*
Y152181D01*
X167504Y151181D01*
X166504Y150181D01*
Y149181D01*
X170047Y51150D02*
X171047D01*
X172047Y52150D01*
X173047Y51150D01*
X174047D01*
Y52150D01*
X173047Y53150D01*
X174047Y54150D01*
Y55150D01*
X173047D01*
X172047Y54150D01*
X171047Y55150D01*
X170047D01*
Y54150D01*
X171047Y53150D01*
X170047Y52150D01*
Y51150D01*
X177134Y97213D02*
X178134D01*
X179134Y98213D01*
X180134Y97213D01*
X181134D01*
Y98213D01*
X180134Y99213D01*
X181134Y100213D01*
Y101213D01*
X180134D01*
X179134Y100213D01*
X178134Y101213D01*
X177134D01*
Y100213D01*
X178134Y99213D01*
X177134Y98213D01*
Y97213D01*
X208236Y109024D02*
X209236D01*
X210236Y110024D01*
X211236Y109024D01*
X212236D01*
Y110024D01*
X211236Y111024D01*
X212236Y112024D01*
Y113024D01*
X211236D01*
X210236Y112024D01*
X209236Y113024D01*
X208236D01*
Y112024D01*
X209236Y111024D01*
X208236Y110024D01*
Y109024D01*
X206760Y145047D02*
X207760D01*
X208760Y146047D01*
X209760Y145047D01*
X210760D01*
Y146047D01*
X209760Y147047D01*
X210760Y148047D01*
Y149047D01*
X209760D01*
X208760Y148047D01*
X207760Y149047D01*
X206760D01*
Y148047D01*
X207760Y147047D01*
X206760Y146047D01*
Y145047D01*
X218472Y-228D02*
X219472D01*
X220472Y772D01*
X221472Y-228D01*
X222472D01*
Y772D01*
X221472Y1772D01*
X222472Y2772D01*
Y3772D01*
X221472D01*
X220472Y2772D01*
X219472Y3772D01*
X218472D01*
Y2772D01*
X219472Y1772D01*
X218472Y772D01*
Y-228D01*
X262075Y193079D02*
X263075D01*
X264075Y194079D01*
X265075Y193079D01*
X266075D01*
Y194079D01*
X265075Y195079D01*
X266075Y196079D01*
Y197079D01*
X265075D01*
X264075Y196079D01*
X263075Y197079D01*
X262075D01*
Y196079D01*
X263075Y195079D01*
X262075Y194079D01*
Y193079D01*
X133630Y142882D02*
X134630D01*
X135630Y143882D01*
X136630Y142882D01*
X137630D01*
Y143882D01*
X136630Y144882D01*
X137630Y145882D01*
Y146882D01*
X136630D01*
X135630Y145882D01*
X134630Y146882D01*
X133630D01*
Y145882D01*
X134630Y144882D01*
X133630Y143882D01*
Y142882D01*
X103905Y121672D02*
X104905D01*
X105905Y122672D01*
X106905Y121672D01*
X107905D01*
Y122672D01*
X106905Y123672D01*
X107905Y124672D01*
Y125672D01*
X106905D01*
X105905Y124672D01*
X104905Y125672D01*
X103905D01*
Y124672D01*
X104905Y123672D01*
X103905Y122672D01*
Y121672D01*
X151937Y56858D02*
X152937D01*
X153937Y57858D01*
X154937Y56858D01*
X155937D01*
Y57858D01*
X154937Y58858D01*
X155937Y59858D01*
Y60858D01*
X154937D01*
X153937Y59858D01*
X152937Y60858D01*
X151937D01*
Y59858D01*
X152937Y58858D01*
X151937Y57858D01*
Y56858D01*
X74673Y156071D02*
X75673D01*
X76673Y157071D01*
X77673Y156071D01*
X78673D01*
Y157071D01*
X77673Y158071D01*
X78673Y159071D01*
Y160071D01*
X77673D01*
X76673Y159071D01*
X75673Y160071D01*
X74673D01*
Y159071D01*
X75673Y158071D01*
X74673Y157071D01*
Y156071D01*
X180677Y40520D02*
X181677D01*
X182677Y41520D01*
X183677Y40520D01*
X184677D01*
Y41520D01*
X183677Y42520D01*
X184677Y43520D01*
Y44520D01*
X183677D01*
X182677Y43520D01*
X181677Y44520D01*
X180677D01*
Y43520D01*
X181677Y42520D01*
X180677Y41520D01*
Y40520D01*
Y86583D02*
X181677D01*
X182677Y87583D01*
X183677Y86583D01*
X184677D01*
Y87583D01*
X183677Y88583D01*
X184677Y89583D01*
Y90583D01*
X183677D01*
X182677Y89583D01*
X181677Y90583D01*
X180677D01*
Y89583D01*
X181677Y88583D01*
X180677Y87583D01*
Y86583D01*
X196327Y108335D02*
X197327D01*
X198327Y109335D01*
X199327Y108335D01*
X200327D01*
Y109335D01*
X199327Y110335D01*
X200327Y111335D01*
Y112335D01*
X199327D01*
X198327Y111335D01*
X197327Y112335D01*
X196327D01*
Y111335D01*
X197327Y110335D01*
X196327Y109335D01*
Y108335D01*
X219358Y50067D02*
X220358D01*
X221358Y51067D01*
X222358Y50067D01*
X223358D01*
Y51067D01*
X222358Y52067D01*
X223358Y53067D01*
Y54067D01*
X222358D01*
X221358Y53067D01*
X220358Y54067D01*
X219358D01*
Y53067D01*
X220358Y52067D01*
X219358Y51067D01*
Y50067D01*
X46031Y1740D02*
X47032D01*
X48031Y2740D01*
X49031Y1740D01*
X50032D01*
Y2740D01*
X49031Y3740D01*
X50032Y4740D01*
Y5740D01*
X49031D01*
X48031Y4740D01*
X47032Y5740D01*
X46031D01*
Y4740D01*
X47032Y3740D01*
X46031Y2740D01*
Y1740D01*
X167291Y193079D02*
X168291D01*
X169291Y194079D01*
X170291Y193079D01*
X171291D01*
Y194079D01*
X170291Y195079D01*
X171291Y196079D01*
Y197079D01*
X170291D01*
X169291Y196079D01*
X168291Y197079D01*
X167291D01*
Y196079D01*
X168291Y195079D01*
X167291Y194079D01*
Y193079D01*
X133236Y74673D02*
X134236D01*
X135236Y75673D01*
X136236Y74673D01*
X137236D01*
Y75673D01*
X136236Y76673D01*
X137236Y77673D01*
Y78673D01*
X136236D01*
X135236Y77673D01*
X134236Y78673D01*
X133236D01*
Y77673D01*
X134236Y76673D01*
X133236Y75673D01*
Y74673D01*
X121819Y121130D02*
X122819D01*
X123819Y122130D01*
X124819Y121130D01*
X125819D01*
Y122130D01*
X124819Y123130D01*
X125819Y124130D01*
Y125130D01*
X124819D01*
X123819Y124130D01*
X122819Y125130D01*
X121819D01*
Y124130D01*
X122819Y123130D01*
X121819Y122130D01*
Y121130D01*
X202880Y107457D02*
X203879D01*
X204879Y108457D01*
X205879Y107457D01*
X206879D01*
Y108457D01*
X205879Y109457D01*
X206879Y110457D01*
Y111457D01*
X205879D01*
X204879Y110457D01*
X203879Y111457D01*
X202880D01*
Y110457D01*
X203879Y109457D01*
X202880Y108457D01*
Y107457D01*
X285008Y36583D02*
X286008D01*
X287008Y37583D01*
X288008Y36583D01*
X289008D01*
Y37583D01*
X288008Y38583D01*
X289008Y39583D01*
Y40583D01*
X288008D01*
X287008Y39583D01*
X286008Y40583D01*
X285008D01*
Y39583D01*
X286008Y38583D01*
X285008Y37583D01*
Y36583D01*
X94850Y142882D02*
X95850D01*
X96850Y143882D01*
X97850Y142882D01*
X98850D01*
Y143882D01*
X97850Y144882D01*
X98850Y145882D01*
Y146882D01*
X97850D01*
X96850Y145882D01*
X95850Y146882D01*
X94850D01*
Y145882D01*
X95850Y144882D01*
X94850Y143882D01*
Y142882D01*
X175953Y31858D02*
X176953D01*
X177953Y32858D01*
X178953Y31858D01*
X179953D01*
Y32858D01*
X178953Y33858D01*
X179953Y34858D01*
Y35858D01*
X178953D01*
X177953Y34858D01*
X176953Y35858D01*
X175953D01*
Y34858D01*
X176953Y33858D01*
X175953Y32858D01*
Y31858D01*
X138551Y43276D02*
X139551D01*
X140551Y44276D01*
X141551Y43276D01*
X142551D01*
Y44276D01*
X141551Y45276D01*
X142551Y46276D01*
Y47276D01*
X141551D01*
X140551Y46276D01*
X139551Y47276D01*
X138551D01*
Y46276D01*
X139551Y45276D01*
X138551Y44276D01*
Y43276D01*
X282646Y45539D02*
X283646D01*
X284646Y46539D01*
X285646Y45539D01*
X286646D01*
Y46539D01*
X285646Y47539D01*
X286646Y48539D01*
Y49539D01*
X285646D01*
X284646Y48539D01*
X283646Y49539D01*
X282646D01*
Y48539D01*
X283646Y47539D01*
X282646Y46539D01*
Y45539D01*
X281071Y141012D02*
X282071D01*
X283071Y142012D01*
X284071Y141012D01*
X285071D01*
Y142012D01*
X284071Y143012D01*
X285071Y144012D01*
Y145012D01*
X284071D01*
X283071Y144012D01*
X282071Y145012D01*
X281071D01*
Y144012D01*
X282071Y143012D01*
X281071Y142012D01*
Y141012D01*
X87862Y193079D02*
X88862D01*
X89862Y194079D01*
X90862Y193079D01*
X91862D01*
Y194079D01*
X90862Y195079D01*
X91862Y196079D01*
Y197079D01*
X90862D01*
X89862Y196079D01*
X88862Y197079D01*
X87862D01*
Y196079D01*
X88862Y195079D01*
X87862Y194079D01*
Y193079D01*
X261779Y151051D02*
X262779D01*
X263779Y152051D01*
X264779Y151051D01*
X265779D01*
Y152051D01*
X264779Y153051D01*
X265779Y154051D01*
Y155051D01*
X264779D01*
X263779Y154051D01*
X262779Y155051D01*
X261779D01*
Y154051D01*
X262779Y153051D01*
X261779Y152051D01*
Y151051D01*
X128538Y128584D02*
X129538D01*
X130538Y129584D01*
X131538Y128584D01*
X132538D01*
Y129584D01*
X131538Y130584D01*
X132538Y131584D01*
Y132584D01*
X131538D01*
X130538Y131584D01*
X129538Y132584D01*
X128538D01*
Y131584D01*
X129538Y130584D01*
X128538Y129584D01*
Y128584D01*
X277921Y157843D02*
X278921D01*
X279921Y158843D01*
X280921Y157843D01*
X281921D01*
Y158843D01*
X280921Y159843D01*
X281921Y160843D01*
Y161843D01*
X280921D01*
X279921Y160843D01*
X278921Y161843D01*
X277921D01*
Y160843D01*
X278921Y159843D01*
X277921Y158843D01*
Y157843D01*
X127429Y183236D02*
X128429D01*
X129429Y184236D01*
X130429Y183236D01*
X131429D01*
Y184236D01*
X130429Y185236D01*
X131429Y186236D01*
Y187236D01*
X130429D01*
X129429Y186236D01*
X128429Y187236D01*
X127429D01*
Y186236D01*
X128429Y185236D01*
X127429Y184236D01*
Y183236D01*
X193965Y140323D02*
X194965D01*
X195965Y141323D01*
X196965Y140323D01*
X197965D01*
Y141323D01*
X196965Y142323D01*
X197965Y143323D01*
Y144323D01*
X196965D01*
X195965Y143323D01*
X194965Y144323D01*
X193965D01*
Y143323D01*
X194965Y142323D01*
X193965Y141323D01*
Y140323D01*
X138551Y32252D02*
X139551D01*
X140551Y33252D01*
X141551Y32252D01*
X142551D01*
Y33252D01*
X141551Y34252D01*
X142551Y35252D01*
Y36252D01*
X141551D01*
X140551Y35252D01*
X139551Y36252D01*
X138551D01*
Y35252D01*
X139551Y34252D01*
X138551Y33252D01*
Y32252D01*
X135008Y61386D02*
X136008D01*
X137008Y62386D01*
X138008Y61386D01*
X139008D01*
Y62386D01*
X138008Y63386D01*
X139008Y64386D01*
Y65386D01*
X138008D01*
X137008Y64386D01*
X136008Y65386D01*
X135008D01*
Y64386D01*
X136008Y63386D01*
X135008Y62386D01*
Y61386D01*
X253413Y72114D02*
X254413D01*
X255413Y73114D01*
X256413Y72114D01*
X257413D01*
Y73114D01*
X256413Y74114D01*
X257413Y75114D01*
Y76114D01*
X256413D01*
X255413Y75114D01*
X254413Y76114D01*
X253413D01*
Y75114D01*
X254413Y74114D01*
X253413Y73114D01*
Y72114D01*
X308925Y6169D02*
X309925D01*
X310925Y7169D01*
X311925Y6169D01*
X312925D01*
Y7169D01*
X311925Y8169D01*
X312925Y9169D01*
Y10169D01*
X311925D01*
X310925Y9169D01*
X309925Y10169D01*
X308925D01*
Y9169D01*
X309925Y8169D01*
X308925Y7169D01*
Y6169D01*
X129890Y93866D02*
X130890D01*
X131890Y94866D01*
X132890Y93866D01*
X133890D01*
Y94866D01*
X132890Y95866D01*
X133890Y96866D01*
Y97866D01*
X132890D01*
X131890Y96866D01*
X130890Y97866D01*
X129890D01*
Y96866D01*
X130890Y95866D01*
X129890Y94866D01*
Y93866D01*
X201150Y126740D02*
X202150D01*
X203150Y127740D01*
X204150Y126740D01*
X205150D01*
Y127740D01*
X204150Y128740D01*
X205150Y129740D01*
Y130740D01*
X204150D01*
X203150Y129740D01*
X202150Y130740D01*
X201150D01*
Y129740D01*
X202150Y128740D01*
X201150Y127740D01*
Y126740D01*
X136091Y119850D02*
X137091D01*
X138091Y120850D01*
X139091Y119850D01*
X140091D01*
Y120850D01*
X139091Y121850D01*
X140091Y122850D01*
Y123850D01*
X139091D01*
X138091Y122850D01*
X137091Y123850D01*
X136091D01*
Y122850D01*
X137091Y121850D01*
X136091Y120850D01*
Y119850D01*
X183827Y179890D02*
X184827D01*
X185827Y180890D01*
X186827Y179890D01*
X187827D01*
Y180890D01*
X186827Y181890D01*
X187827Y182890D01*
Y183890D01*
X186827D01*
X185827Y182890D01*
X184827Y183890D01*
X183827D01*
Y182890D01*
X184827Y181890D01*
X183827Y180890D01*
Y179890D01*
X161681Y128905D02*
X162681D01*
X163681Y129905D01*
X164681Y128905D01*
X165681D01*
Y129905D01*
X164681Y130905D01*
X165681Y131905D01*
Y132905D01*
X164681D01*
X163681Y131905D01*
X162681Y132905D01*
X161681D01*
Y131905D01*
X162681Y130905D01*
X161681Y129905D01*
Y128905D01*
X184221Y166898D02*
X185221D01*
X186221Y167898D01*
X187221Y166898D01*
X188221D01*
Y167898D01*
X187221Y168898D01*
X188221Y169898D01*
Y170898D01*
X187221D01*
X186221Y169898D01*
X185221Y170898D01*
X184221D01*
Y169898D01*
X185221Y168898D01*
X184221Y167898D01*
Y166898D01*
X142095Y39339D02*
X143095D01*
X144095Y40339D01*
X145095Y39339D01*
X146095D01*
Y40339D01*
X145095Y41339D01*
X146095Y42339D01*
Y43339D01*
X145095D01*
X144095Y42339D01*
X143095Y43339D01*
X142095D01*
Y42339D01*
X143095Y41339D01*
X142095Y40339D01*
Y39339D01*
X218079Y173984D02*
X219079D01*
X220079Y174984D01*
X221079Y173984D01*
X222079D01*
Y174984D01*
X221079Y175984D01*
X222079Y176984D01*
Y177984D01*
X221079D01*
X220079Y176984D01*
X219079Y177984D01*
X218079D01*
Y176984D01*
X219079Y175984D01*
X218079Y174984D01*
Y173984D01*
X277331Y110402D02*
X278331D01*
X279331Y111402D01*
X280331Y110402D01*
X281331D01*
Y111402D01*
X280331Y112402D01*
X281331Y113402D01*
Y114402D01*
X280331D01*
X279331Y113402D01*
X278331Y114402D01*
X277331D01*
Y113402D01*
X278331Y112402D01*
X277331Y111402D01*
Y110402D01*
X311189Y120146D02*
X312189D01*
X313189Y121146D01*
X314189Y120146D01*
X315189D01*
Y121146D01*
X314189Y122146D01*
X315189Y123146D01*
Y124146D01*
X314189D01*
X313189Y123146D01*
X312189Y124146D01*
X311189D01*
Y123146D01*
X312189Y122146D01*
X311189Y121146D01*
Y120146D01*
X206465Y74673D02*
X207465D01*
X208465Y75673D01*
X209465Y74673D01*
X210465D01*
Y75673D01*
X209465Y76673D01*
X210465Y77673D01*
Y78673D01*
X209465D01*
X208465Y77673D01*
X207465Y78673D01*
X206465D01*
Y77673D01*
X207465Y76673D01*
X206465Y75673D01*
Y74673D01*
X199772Y102921D02*
X200772D01*
X201772Y103921D01*
X202772Y102921D01*
X203772D01*
Y103921D01*
X202772Y104921D01*
X203772Y105921D01*
Y106921D01*
X202772D01*
X201772Y105921D01*
X200772Y106921D01*
X199772D01*
Y105921D01*
X200772Y104921D01*
X199772Y103921D01*
Y102921D01*
X182252Y68079D02*
X183252D01*
X184252Y69079D01*
X185252Y68079D01*
X186252D01*
Y69079D01*
X185252Y70079D01*
X186252Y71079D01*
Y72079D01*
X185252D01*
X184252Y71079D01*
X183252Y72079D01*
X182252D01*
Y71079D01*
X183252Y70079D01*
X182252Y69079D01*
Y68079D01*
X152724Y72803D02*
X153724D01*
X154724Y73803D01*
X155724Y72803D01*
X156724D01*
Y73803D01*
X155724Y74803D01*
X156724Y75803D01*
Y76803D01*
X155724D01*
X154724Y75803D01*
X153724Y76803D01*
X152724D01*
Y75803D01*
X153724Y74803D01*
X152724Y73803D01*
Y72803D01*
X177528Y187370D02*
X178528D01*
X179528Y188370D01*
X180528Y187370D01*
X181528D01*
Y188370D01*
X180528Y189370D01*
X181528Y190370D01*
Y191370D01*
X180528D01*
X179528Y190370D01*
X178528Y191370D01*
X177528D01*
Y190370D01*
X178528Y189370D01*
X177528Y188370D01*
Y187370D01*
X177134Y159811D02*
X178134D01*
X179134Y160811D01*
X180134Y159811D01*
X181134D01*
Y160811D01*
X180134Y161811D01*
X181134Y162811D01*
Y163811D01*
X180134D01*
X179134Y162811D01*
X178134Y163811D01*
X177134D01*
Y162811D01*
X178134Y161811D01*
X177134Y160811D01*
Y159811D01*
X124378Y61386D02*
X125378D01*
X126378Y62386D01*
X127378Y61386D01*
X128378D01*
Y62386D01*
X127378Y63386D01*
X128378Y64386D01*
Y65386D01*
X127378D01*
X126378Y64386D01*
X125378Y65386D01*
X124378D01*
Y64386D01*
X125378Y63386D01*
X124378Y62386D01*
Y61386D01*
X228709Y181071D02*
X229709D01*
X230709Y182071D01*
X231709Y181071D01*
X232709D01*
Y182071D01*
X231709Y183071D01*
X232709Y184071D01*
Y185071D01*
X231709D01*
X230709Y184071D01*
X229709Y185071D01*
X228709D01*
Y184071D01*
X229709Y183071D01*
X228709Y182071D01*
Y181071D01*
X165717Y180185D02*
X166717D01*
X167717Y181185D01*
X168717Y180185D01*
X169717D01*
Y181185D01*
X168717Y182185D01*
X169717Y183185D01*
Y184185D01*
X168717D01*
X167717Y183185D01*
X166717Y184185D01*
X165717D01*
Y183185D01*
X166717Y182185D01*
X165717Y181185D01*
Y180185D01*
X311189Y25264D02*
X312189D01*
X313189Y26264D01*
X314189Y25264D01*
X315189D01*
Y26264D01*
X314189Y27264D01*
X315189Y28264D01*
Y29264D01*
X314189D01*
X313189Y28264D01*
X312189Y29264D01*
X311189D01*
Y28264D01*
X312189Y27264D01*
X311189Y26264D01*
Y25264D01*
X-228Y45342D02*
X772D01*
X1772Y46343D01*
X2772Y45342D01*
X3772D01*
Y46343D01*
X2772Y47343D01*
X3772Y48342D01*
Y49343D01*
X2772D01*
X1772Y48342D01*
X772Y49343D01*
X-228D01*
Y48342D01*
X772Y47343D01*
X-228Y46343D01*
Y45342D01*
X202331Y63059D02*
X203331D01*
X204331Y64059D01*
X205331Y63059D01*
X206331D01*
Y64059D01*
X205331Y65059D01*
X206331Y66059D01*
Y67059D01*
X205331D01*
X204331Y66059D01*
X203331Y67059D01*
X202331D01*
Y66059D01*
X203331Y65059D01*
X202331Y64059D01*
Y63059D01*
X177921Y114142D02*
X178921D01*
X179921Y115142D01*
X180921Y114142D01*
X181921D01*
Y115142D01*
X180921Y116142D01*
X181921Y117142D01*
Y118142D01*
X180921D01*
X179921Y117142D01*
X178921Y118142D01*
X177921D01*
Y117142D01*
X178921Y116142D01*
X177921Y115142D01*
Y114142D01*
X59533Y82748D02*
X60533D01*
X61533Y83748D01*
X62533Y82748D01*
X63533D01*
Y83748D01*
X62533Y84748D01*
X63533Y85748D01*
Y86748D01*
X62533D01*
X61533Y85748D01*
X60533Y86748D01*
X59533D01*
Y85748D01*
X60533Y84748D01*
X59533Y83748D01*
Y82748D01*
X173591Y156268D02*
X174591D01*
X175591Y157268D01*
X176591Y156268D01*
X177591D01*
Y157268D01*
X176591Y158268D01*
X177591Y159268D01*
Y160268D01*
X176591D01*
X175591Y159268D01*
X174591Y160268D01*
X173591D01*
Y159268D01*
X174591Y158268D01*
X173591Y157268D01*
Y156268D01*
X184221Y75953D02*
X185221D01*
X186221Y76953D01*
X187221Y75953D01*
X188221D01*
Y76953D01*
X187221Y77953D01*
X188221Y78953D01*
Y79953D01*
X187221D01*
X186221Y78953D01*
X185221Y79953D01*
X184221D01*
Y78953D01*
X185221Y77953D01*
X184221Y76953D01*
Y75953D01*
X221622Y170441D02*
X222622D01*
X223622Y171441D01*
X224622Y170441D01*
X225622D01*
Y171441D01*
X224622Y172441D01*
X225622Y173441D01*
Y174441D01*
X224622D01*
X223622Y173441D01*
X222622Y174441D01*
X221622D01*
Y173441D01*
X222622Y172441D01*
X221622Y171441D01*
Y170441D01*
X247902Y114043D02*
X248902D01*
X249902Y115043D01*
X250902Y114043D01*
X251902D01*
Y115043D01*
X250902Y116043D01*
X251902Y117043D01*
Y118043D01*
X250902D01*
X249902Y117043D01*
X248902Y118043D01*
X247902D01*
Y117043D01*
X248902Y116043D01*
X247902Y115043D01*
Y114043D01*
X121524Y-228D02*
X122524D01*
X123524Y772D01*
X124524Y-228D01*
X125524D01*
Y772D01*
X124524Y1772D01*
X125524Y2772D01*
Y3772D01*
X124524D01*
X123524Y2772D01*
X122524Y3772D01*
X121524D01*
Y2772D01*
X122524Y1772D01*
X121524Y772D01*
Y-228D01*
X-228Y142980D02*
X772D01*
X1772Y143980D01*
X2772Y142980D01*
X3772D01*
Y143980D01*
X2772Y144980D01*
X3772Y145980D01*
Y146980D01*
X2772D01*
X1772Y145980D01*
X772Y146980D01*
X-228D01*
Y145980D01*
X772Y144980D01*
X-228Y143980D01*
Y142980D01*
X101445Y172409D02*
X102445D01*
X103445Y173409D01*
X104445Y172409D01*
X105445D01*
Y173409D01*
X104445Y174409D01*
X105445Y175409D01*
Y176409D01*
X104445D01*
X103445Y175409D01*
X102445Y176409D01*
X101445D01*
Y175409D01*
X102445Y174409D01*
X101445Y173409D01*
Y172409D01*
X222803Y65224D02*
X223803D01*
X224803Y66224D01*
X225803Y65224D01*
X226803D01*
Y66224D01*
X225803Y67224D01*
X226803Y68224D01*
Y69224D01*
X225803D01*
X224803Y68224D01*
X223803Y69224D01*
X222803D01*
Y68224D01*
X223803Y67224D01*
X222803Y66224D01*
Y65224D01*
X166504Y152724D02*
X167504D01*
X168504Y153724D01*
X169504Y152724D01*
X170504D01*
Y153724D01*
X169504Y154724D01*
X170504Y155724D01*
Y156724D01*
X169504D01*
X168504Y155724D01*
X167504Y156724D01*
X166504D01*
Y155724D01*
X167504Y154724D01*
X166504Y153724D01*
Y152724D01*
X177134Y145638D02*
X178134D01*
X179134Y146638D01*
X180134Y145638D01*
X181134D01*
Y146638D01*
X180134Y147638D01*
X181134Y148638D01*
Y149638D01*
X180134D01*
X179134Y148638D01*
X178134Y149638D01*
X177134D01*
Y148638D01*
X178134Y147638D01*
X177134Y146638D01*
Y145638D01*
X180677Y97213D02*
X181677D01*
X182677Y98213D01*
X183677Y97213D01*
X184677D01*
Y98213D01*
X183677Y99213D01*
X184677Y100213D01*
Y101213D01*
X183677D01*
X182677Y100213D01*
X181677Y101213D01*
X180677D01*
Y100213D01*
X181677Y99213D01*
X180677Y98213D01*
Y97213D01*
X232252Y166898D02*
X233252D01*
X234252Y167898D01*
X235252Y166898D01*
X236252D01*
Y167898D01*
X235252Y168898D01*
X236252Y169898D01*
Y170898D01*
X235252D01*
X234252Y169898D01*
X233252Y170898D01*
X232252D01*
Y169898D01*
X233252Y168898D01*
X232252Y167898D01*
Y166898D01*
X193669Y111189D02*
X194669D01*
X195669Y112189D01*
X196669Y111189D01*
X197669D01*
Y112189D01*
X196669Y113189D01*
X197669Y114189D01*
Y115189D01*
X196669D01*
X195669Y114189D01*
X194669Y115189D01*
X193669D01*
Y114189D01*
X194669Y113189D01*
X193669Y112189D01*
Y111189D01*
X207350Y-228D02*
X208350D01*
X209350Y772D01*
X210350Y-228D01*
X211350D01*
Y772D01*
X210350Y1772D01*
X211350Y2772D01*
Y3772D01*
X210350D01*
X209350Y2772D01*
X208350Y3772D01*
X207350D01*
Y2772D01*
X208350Y1772D01*
X207350Y772D01*
Y-228D01*
X272508Y193079D02*
X273508D01*
X274508Y194079D01*
X275508Y193079D01*
X276508D01*
Y194079D01*
X275508Y195079D01*
X276508Y196079D01*
Y197079D01*
X275508D01*
X274508Y196079D01*
X273508Y197079D01*
X272508D01*
Y196079D01*
X273508Y195079D01*
X272508Y194079D01*
Y193079D01*
X128315Y142882D02*
X129315D01*
X130315Y143882D01*
X131315Y142882D01*
X132315D01*
Y143882D01*
X131315Y144882D01*
X132315Y145882D01*
Y146882D01*
X131315D01*
X130315Y145882D01*
X129315Y146882D01*
X128315D01*
Y145882D01*
X129315Y144882D01*
X128315Y143882D01*
Y142882D01*
X98394Y121327D02*
X99394D01*
X100394Y122327D01*
X101394Y121327D01*
X102394D01*
Y122327D01*
X101394Y123327D01*
X102394Y124327D01*
Y125327D01*
X101394D01*
X100394Y124327D01*
X99394Y125327D01*
X98394D01*
Y124327D01*
X99394Y123327D01*
X98394Y122327D01*
Y121327D01*
X151937Y53315D02*
X152937D01*
X153937Y54315D01*
X154937Y53315D01*
X155937D01*
Y54315D01*
X154937Y55315D01*
X155937Y56315D01*
Y57315D01*
X154937D01*
X153937Y56315D01*
X152937Y57315D01*
X151937D01*
Y56315D01*
X152937Y55315D01*
X151937Y54315D01*
Y53315D01*
X49083Y106858D02*
X50083D01*
X51083Y107858D01*
X52083Y106858D01*
X53083D01*
Y107858D01*
X52083Y108858D01*
X53083Y109858D01*
Y110858D01*
X52083D01*
X51083Y109858D01*
X50083Y110858D01*
X49083D01*
Y109858D01*
X50083Y108858D01*
X49083Y107858D01*
Y106858D01*
X180677Y44063D02*
X181677D01*
X182677Y45063D01*
X183677Y44063D01*
X184677D01*
Y45063D01*
X183677Y46063D01*
X184677Y47063D01*
Y48063D01*
X183677D01*
X182677Y47063D01*
X181677Y48063D01*
X180677D01*
Y47063D01*
X181677Y46063D01*
X180677Y45063D01*
Y44063D01*
X177134Y86583D02*
X178134D01*
X179134Y87583D01*
X180134Y86583D01*
X181134D01*
Y87583D01*
X180134Y88583D01*
X181134Y89583D01*
Y90583D01*
X180134D01*
X179134Y89583D01*
X178134Y90583D01*
X177134D01*
Y89583D01*
X178134Y88583D01*
X177134Y87583D01*
Y86583D01*
X240618Y118079D02*
X241618D01*
X242618Y119079D01*
X243618Y118079D01*
X244618D01*
Y119079D01*
X243618Y120079D01*
X244618Y121079D01*
Y122079D01*
X243618D01*
X242618Y121079D01*
X241618Y122079D01*
X240618D01*
Y121079D01*
X241618Y120079D01*
X240618Y119079D01*
Y118079D01*
X219358Y40716D02*
X220358D01*
X221358Y41717D01*
X222358Y40716D01*
X223358D01*
Y41717D01*
X222358Y42717D01*
X223358Y43716D01*
Y44717D01*
X222358D01*
X221358Y43716D01*
X220358Y44717D01*
X219358D01*
Y43716D01*
X220358Y42717D01*
X219358Y41717D01*
Y40716D01*
X52823Y-228D02*
X53823D01*
X54823Y772D01*
X55823Y-228D01*
X56823D01*
Y772D01*
X55823Y1772D01*
X56823Y2772D01*
Y3772D01*
X55823D01*
X54823Y2772D01*
X53823Y3772D01*
X52823D01*
Y2772D01*
X53823Y1772D01*
X52823Y772D01*
Y-228D01*
X176839Y193079D02*
X177839D01*
X178839Y194079D01*
X179839Y193079D01*
X180839D01*
Y194079D01*
X179839Y195079D01*
X180839Y196079D01*
Y197079D01*
X179839D01*
X178839Y196079D01*
X177839Y197079D01*
X176839D01*
Y196079D01*
X177839Y195079D01*
X176839Y194079D01*
Y193079D01*
X124378Y70736D02*
X125378D01*
X126378Y71736D01*
X127378Y70736D01*
X128378D01*
Y71736D01*
X127378Y72736D01*
X128378Y73736D01*
Y74736D01*
X127378D01*
X126378Y73736D01*
X125378Y74736D01*
X124378D01*
Y73736D01*
X125378Y72736D01*
X124378Y71736D01*
Y70736D01*
X117783Y128512D02*
X118783D01*
X119783Y129512D01*
X120783Y128512D01*
X121783D01*
Y129512D01*
X120783Y130512D01*
X121783Y131512D01*
Y132512D01*
X120783D01*
X119783Y131512D01*
X118783Y132512D01*
X117783D01*
Y131512D01*
X118783Y130512D01*
X117783Y129512D01*
Y128512D01*
X95933Y131268D02*
X96933D01*
X97933Y132268D01*
X98933Y131268D01*
X99933D01*
Y132268D01*
X98933Y133268D01*
X99933Y134268D01*
Y135268D01*
X98933D01*
X97933Y134268D01*
X96933Y135268D01*
X95933D01*
Y134268D01*
X96933Y133268D01*
X95933Y132268D01*
Y131268D01*
X178610Y61976D02*
X179610D01*
X180610Y62976D01*
X181610Y61976D01*
X182610D01*
Y62976D01*
X181610Y63976D01*
X182610Y64976D01*
Y65976D01*
X181610D01*
X180610Y64976D01*
X179610Y65976D01*
X178610D01*
Y64976D01*
X179610Y63976D01*
X178610Y62976D01*
Y61976D01*
X175953Y20835D02*
X176953D01*
X177953Y21835D01*
X178953Y20835D01*
X179953D01*
Y21835D01*
X178953Y22835D01*
X179953Y23835D01*
Y24835D01*
X178953D01*
X177953Y23835D01*
X176953Y24835D01*
X175953D01*
Y23835D01*
X176953Y22835D01*
X175953Y21835D01*
Y20835D01*
X142095Y43276D02*
X143095D01*
X144095Y44276D01*
X145095Y43276D01*
X146095D01*
Y44276D01*
X145095Y45276D01*
X146095Y46276D01*
Y47276D01*
X145095D01*
X144095Y46276D01*
X143095Y47276D01*
X142095D01*
Y46276D01*
X143095Y45276D01*
X142095Y44276D01*
Y43276D01*
X278217Y41012D02*
X279217D01*
X280217Y42012D01*
X281217Y41012D01*
X282217D01*
Y42012D01*
X281217Y43012D01*
X282217Y44012D01*
Y45012D01*
X281217D01*
X280217Y44012D01*
X279217Y45012D01*
X278217D01*
Y44012D01*
X279217Y43012D01*
X278217Y42012D01*
Y41012D01*
X286287Y135795D02*
X287287D01*
X288287Y136795D01*
X289287Y135795D01*
X290287D01*
Y136795D01*
X289287Y137795D01*
X290287Y138795D01*
Y139795D01*
X289287D01*
X288287Y138795D01*
X287287Y139795D01*
X286287D01*
Y138795D01*
X287287Y137795D01*
X286287Y136795D01*
Y135795D01*
X96917Y193079D02*
X97917D01*
X98917Y194079D01*
X99917Y193079D01*
X100917D01*
Y194079D01*
X99917Y195079D01*
X100917Y196079D01*
Y197079D01*
X99917D01*
X98917Y196079D01*
X97917Y197079D01*
X96917D01*
Y196079D01*
X97917Y195079D01*
X96917Y194079D01*
Y193079D01*
X240913Y97016D02*
X241913D01*
X242913Y98016D01*
X243913Y97016D01*
X244913D01*
Y98016D01*
X243913Y99016D01*
X244913Y100016D01*
Y101016D01*
X243913D01*
X242913Y100016D01*
X241913Y101016D01*
X240913D01*
Y100016D01*
X241913Y99016D01*
X240913Y98016D01*
Y97016D01*
X126150Y129693D02*
X127150D01*
X128150Y130693D01*
X129150Y129693D01*
X130150D01*
Y130693D01*
X129150Y131693D01*
X130150Y132693D01*
Y133693D01*
X129150D01*
X128150Y132693D01*
X127150Y133693D01*
X126150D01*
Y132693D01*
X127150Y131693D01*
X126150Y130693D01*
Y129693D01*
X288551Y144457D02*
X289551D01*
X290551Y145457D01*
X291551Y144457D01*
X292551D01*
Y145457D01*
X291551Y146457D01*
X292551Y147457D01*
Y148457D01*
X291551D01*
X290551Y147457D01*
X289551Y148457D01*
X288551D01*
Y147457D01*
X289551Y146457D01*
X288551Y145457D01*
Y144457D01*
X110106Y184417D02*
X111106D01*
X112106Y185417D01*
X113106Y184417D01*
X114106D01*
Y185417D01*
X113106Y186417D01*
X114106Y187417D01*
Y188417D01*
X113106D01*
X112106Y187417D01*
X111106Y188417D01*
X110106D01*
Y187417D01*
X111106Y186417D01*
X110106Y185417D01*
Y184417D01*
X172311Y113551D02*
X173311D01*
X174311Y114551D01*
X175311Y113551D01*
X176311D01*
Y114551D01*
X175311Y115551D01*
X176311Y116551D01*
Y117551D01*
X175311D01*
X174311Y116551D01*
X173311Y117551D01*
X172311D01*
Y116551D01*
X173311Y115551D01*
X172311Y114551D01*
Y113551D01*
X179496Y31858D02*
X180496D01*
X181496Y32858D01*
X182496Y31858D01*
X183496D01*
Y32858D01*
X182496Y33858D01*
X183496Y34858D01*
Y35858D01*
X182496D01*
X181496Y34858D01*
X180496Y35858D01*
X179496D01*
Y34858D01*
X180496Y33858D01*
X179496Y32858D01*
Y31858D01*
X131465Y61386D02*
X132465D01*
X133465Y62386D01*
X134465Y61386D01*
X135465D01*
Y62386D01*
X134465Y63386D01*
X135465Y64386D01*
Y65386D01*
X134465D01*
X133465Y64386D01*
X132465Y65386D01*
X131465D01*
Y64386D01*
X132465Y63386D01*
X131465Y62386D01*
Y61386D01*
X247213Y71917D02*
X248213D01*
X249213Y72917D01*
X250213Y71917D01*
X251213D01*
Y72917D01*
X250213Y73917D01*
X251213Y74917D01*
Y75917D01*
X250213D01*
X249213Y74917D01*
X248213Y75917D01*
X247213D01*
Y74917D01*
X248213Y73917D01*
X247213Y72917D01*
Y71917D01*
X301051Y362D02*
X302051D01*
X303051Y1362D01*
X304051Y362D01*
X305051D01*
Y1362D01*
X304051Y2362D01*
X305051Y3362D01*
Y4362D01*
X304051D01*
X303051Y3362D01*
X302051Y4362D01*
X301051D01*
Y3362D01*
X302051Y2362D01*
X301051Y1362D01*
Y362D01*
X154004Y114240D02*
X155004D01*
X156004Y115240D01*
X157004Y114240D01*
X158004D01*
Y115240D01*
X157004Y116240D01*
X158004Y117240D01*
Y118240D01*
X157004D01*
X156004Y117240D01*
X155004Y118240D01*
X154004D01*
Y117240D01*
X155004Y116240D01*
X154004Y115240D01*
Y114240D01*
X204693Y123197D02*
X205693D01*
X206693Y124197D01*
X207693Y123197D01*
X208693D01*
Y124197D01*
X207693Y125197D01*
X208693Y126197D01*
Y127197D01*
X207693D01*
X206693Y126197D01*
X205693Y127197D01*
X204693D01*
Y126197D01*
X205693Y125197D01*
X204693Y124197D01*
Y123197D01*
X157449Y166110D02*
X158449D01*
X159449Y167110D01*
X160449Y166110D01*
X161449D01*
Y167110D01*
X160449Y168110D01*
X161449Y169110D01*
Y170110D01*
X160449D01*
X159449Y169110D01*
X158449Y170110D01*
X157449D01*
Y169110D01*
X158449Y168110D01*
X157449Y167110D01*
Y166110D01*
X141898Y114339D02*
X142898D01*
X143898Y115339D01*
X144898Y114339D01*
X145898D01*
Y115339D01*
X144898Y116339D01*
X145898Y117339D01*
Y118339D01*
X144898D01*
X143898Y117339D01*
X142898Y118339D01*
X141898D01*
Y117339D01*
X142898Y116339D01*
X141898Y115339D01*
Y114339D01*
X171917Y139535D02*
X172917D01*
X173917Y140535D01*
X174917Y139535D01*
X175917D01*
Y140535D01*
X174917Y141535D01*
X175917Y142535D01*
Y143535D01*
X174917D01*
X173917Y142535D01*
X172917Y143535D01*
X171917D01*
Y142535D01*
X172917Y141535D01*
X171917Y140535D01*
Y139535D01*
X166504Y51150D02*
X167504D01*
X168504Y52150D01*
X169504Y51150D01*
X170504D01*
Y52150D01*
X169504Y53150D01*
X170504Y54150D01*
Y55150D01*
X169504D01*
X168504Y54150D01*
X167504Y55150D01*
X166504D01*
Y54150D01*
X167504Y53150D01*
X166504Y52150D01*
Y51150D01*
X138551Y39339D02*
X139551D01*
X140551Y40339D01*
X141551Y39339D01*
X142551D01*
Y40339D01*
X141551Y41339D01*
X142551Y42339D01*
Y43339D01*
X141551D01*
X140551Y42339D01*
X139551Y43339D01*
X138551D01*
Y42339D01*
X139551Y41339D01*
X138551Y40339D01*
Y39339D01*
X218079Y170441D02*
X219079D01*
X220079Y171441D01*
X221079Y170441D01*
X222079D01*
Y171441D01*
X221079Y172441D01*
X222079Y173441D01*
Y174441D01*
X221079D01*
X220079Y173441D01*
X219079Y174441D01*
X218079D01*
Y173441D01*
X219079Y172441D01*
X218079Y171441D01*
Y170441D01*
X285598Y107350D02*
X286598D01*
X287598Y108350D01*
X288598Y107350D01*
X289598D01*
Y108350D01*
X288598Y109350D01*
X289598Y110350D01*
Y111350D01*
X288598D01*
X287598Y110350D01*
X286598Y111350D01*
X285598D01*
Y110350D01*
X286598Y109350D01*
X285598Y108350D01*
Y107350D01*
X311189Y129988D02*
X312189D01*
X313189Y130988D01*
X314189Y129988D01*
X315189D01*
Y130988D01*
X314189Y131988D01*
X315189Y132988D01*
Y133988D01*
X314189D01*
X313189Y132988D01*
X312189Y133988D01*
X311189D01*
Y132988D01*
X312189Y131988D01*
X311189Y130988D01*
Y129988D01*
X206465Y76937D02*
X207465D01*
X208465Y77937D01*
X209465Y76937D01*
X210465D01*
Y77937D01*
X209465Y78937D01*
X210465Y79937D01*
Y80937D01*
X209465D01*
X208465Y79937D01*
X207465Y80937D01*
X206465D01*
Y79937D01*
X207465Y78937D01*
X206465Y77937D01*
Y76937D01*
X208236Y123197D02*
X209236D01*
X210236Y124197D01*
X211236Y123197D01*
X212236D01*
Y124197D01*
X211236Y125197D01*
X212236Y126197D01*
Y127197D01*
X211236D01*
X210236Y126197D01*
X209236Y127197D01*
X208236D01*
Y126197D01*
X209236Y125197D01*
X208236Y124197D01*
Y123197D01*
X200362Y145244D02*
X201362D01*
X202362Y146244D01*
X203362Y145244D01*
X204362D01*
Y146244D01*
X203362Y147244D01*
X204362Y148244D01*
Y149244D01*
X203362D01*
X202362Y148244D01*
X201362Y149244D01*
X200362D01*
Y148244D01*
X201362Y147244D01*
X200362Y146244D01*
Y145244D01*
X156268Y72803D02*
X157268D01*
X158268Y73803D01*
X159268Y72803D01*
X160268D01*
Y73803D01*
X159268Y74803D01*
X160268Y75803D01*
Y76803D01*
X159268D01*
X158268Y75803D01*
X157268Y76803D01*
X156268D01*
Y75803D01*
X157268Y74803D01*
X156268Y73803D01*
Y72803D01*
X189732Y173591D02*
X190732D01*
X191732Y174591D01*
X192732Y173591D01*
X193732D01*
Y174591D01*
X192732Y175591D01*
X193732Y176591D01*
Y177591D01*
X192732D01*
X191732Y176591D01*
X190732Y177591D01*
X189732D01*
Y176591D01*
X190732Y175591D01*
X189732Y174591D01*
Y173591D01*
X180677Y159811D02*
X181677D01*
X182677Y160811D01*
X183677Y159811D01*
X184677D01*
Y160811D01*
X183677Y161811D01*
X184677Y162811D01*
Y163811D01*
X183677D01*
X182677Y162811D01*
X181677Y163811D01*
X180677D01*
Y162811D01*
X181677Y161811D01*
X180677Y160811D01*
Y159811D01*
X131465Y64929D02*
X132465D01*
X133465Y65929D01*
X134465Y64929D01*
X135465D01*
Y65929D01*
X134465Y66929D01*
X135465Y67929D01*
Y68929D01*
X134465D01*
X133465Y67929D01*
X132465Y68929D01*
X131465D01*
Y67929D01*
X132465Y66929D01*
X131465Y65929D01*
Y64929D01*
X225165Y181071D02*
X226165D01*
X227165Y182071D01*
X228165Y181071D01*
X229165D01*
Y182071D01*
X228165Y183071D01*
X229165Y184071D01*
Y185071D01*
X228165D01*
X227165Y184071D01*
X226165Y185071D01*
X225165D01*
Y184071D01*
X226165Y183071D01*
X225165Y182071D01*
Y181071D01*
X165618Y176051D02*
X166618D01*
X167618Y177051D01*
X168618Y176051D01*
X169618D01*
Y177051D01*
X168618Y178051D01*
X169618Y179051D01*
Y180051D01*
X168618D01*
X167618Y179051D01*
X166618Y180051D01*
X165618D01*
Y179051D01*
X166618Y178051D01*
X165618Y177051D01*
Y176051D01*
X311090Y33433D02*
X312090D01*
X313090Y34433D01*
X314090Y33433D01*
X315090D01*
Y34433D01*
X314090Y35433D01*
X315090Y36433D01*
Y37433D01*
X314090D01*
X313090Y36433D01*
X312090Y37433D01*
X311090D01*
Y36433D01*
X312090Y35433D01*
X311090Y34433D01*
Y33433D01*
X-130Y36091D02*
X870D01*
X1870Y37091D01*
X2870Y36091D01*
X3870D01*
Y37091D01*
X2870Y38091D01*
X3870Y39091D01*
Y40091D01*
X2870D01*
X1870Y39091D01*
X870Y40091D01*
X-130D01*
Y39091D01*
X870Y38091D01*
X-130Y37091D01*
Y36091D01*
X202331Y65618D02*
X203331D01*
X204331Y66618D01*
X205331Y65618D01*
X206331D01*
Y66618D01*
X205331Y67618D01*
X206331Y68618D01*
Y69618D01*
X205331D01*
X204331Y68618D01*
X203331Y69618D01*
X202331D01*
Y68618D01*
X203331Y67618D01*
X202331Y66618D01*
Y65618D01*
X177921Y117685D02*
X178921D01*
X179921Y118685D01*
X180921Y117685D01*
X181921D01*
Y118685D01*
X180921Y119685D01*
X181921Y120685D01*
Y121685D01*
X180921D01*
X179921Y120685D01*
X178921Y121685D01*
X177921D01*
Y120685D01*
X178921Y119685D01*
X177921Y118685D01*
Y117685D01*
X173591Y152724D02*
X174591D01*
X175591Y153724D01*
X176591Y152724D01*
X177591D01*
Y153724D01*
X176591Y154724D01*
X177591Y155724D01*
Y156724D01*
X176591D01*
X175591Y155724D01*
X174591Y156724D01*
X173591D01*
Y155724D01*
X174591Y154724D01*
X173591Y153724D01*
Y152724D01*
X177134Y75953D02*
X178134D01*
X179134Y76953D01*
X180134Y75953D01*
X181134D01*
Y76953D01*
X180134Y77953D01*
X181134Y78953D01*
Y79953D01*
X180134D01*
X179134Y78953D01*
X178134Y79953D01*
X177134D01*
Y78953D01*
X178134Y77953D01*
X177134Y76953D01*
Y75953D01*
X225165Y170441D02*
X226165D01*
X227165Y171441D01*
X228165Y170441D01*
X229165D01*
Y171441D01*
X228165Y172441D01*
X229165Y173441D01*
Y174441D01*
X228165D01*
X227165Y173441D01*
X226165Y174441D01*
X225165D01*
Y173441D01*
X226165Y172441D01*
X225165Y171441D01*
Y170441D01*
X259614Y110500D02*
X260614D01*
X261614Y111500D01*
X262614Y110500D01*
X263614D01*
Y111500D01*
X262614Y112500D01*
X263614Y113500D01*
Y114500D01*
X262614D01*
X261614Y113500D01*
X260614Y114500D01*
X259614D01*
Y113500D01*
X260614Y112500D01*
X259614Y111500D01*
Y110500D01*
X112665Y-228D02*
X113665D01*
X114665Y772D01*
X115665Y-228D01*
X116665D01*
Y772D01*
X115665Y1772D01*
X116665Y2772D01*
Y3772D01*
X115665D01*
X114665Y2772D01*
X113665Y3772D01*
X112665D01*
Y2772D01*
X113665Y1772D01*
X112665Y772D01*
Y-228D01*
X-228Y132646D02*
X772D01*
X1772Y133646D01*
X2772Y132646D01*
X3772D01*
Y133646D01*
X2772Y134646D01*
X3772Y135646D01*
Y136646D01*
X2772D01*
X1772Y135646D01*
X772Y136646D01*
X-228D01*
Y135646D01*
X772Y134646D01*
X-228Y133646D01*
Y132646D01*
X101445Y162567D02*
X102445D01*
X103445Y163567D01*
X104445Y162567D01*
X105445D01*
Y163567D01*
X104445Y164567D01*
X105445Y165567D01*
Y166567D01*
X104445D01*
X103445Y165567D01*
X102445Y166567D01*
X101445D01*
Y165567D01*
X102445Y164567D01*
X101445Y163567D01*
Y162567D01*
X240913Y99181D02*
X241913D01*
X242913Y100181D01*
X243913Y99181D01*
X244913D01*
Y100181D01*
X243913Y101181D01*
X244913Y102181D01*
Y103181D01*
X243913D01*
X242913Y102181D01*
X241913Y103181D01*
X240913D01*
Y102181D01*
X241913Y101181D01*
X240913Y100181D01*
Y99181D01*
X166504Y156268D02*
X167504D01*
X168504Y157268D01*
X169504Y156268D01*
X170504D01*
Y157268D01*
X169504Y158268D01*
X170504Y159268D01*
Y160268D01*
X169504D01*
X168504Y159268D01*
X167504Y160268D01*
X166504D01*
Y159268D01*
X167504Y158268D01*
X166504Y157268D01*
Y156268D01*
X180677Y145638D02*
X181677D01*
X182677Y146638D01*
X183677Y145638D01*
X184677D01*
Y146638D01*
X183677Y147638D01*
X184677Y148638D01*
Y149638D01*
X183677D01*
X182677Y148638D01*
X181677Y149638D01*
X180677D01*
Y148638D01*
X181677Y147638D01*
X180677Y146638D01*
Y145638D01*
X187764Y97213D02*
X188764D01*
X189764Y98213D01*
X190764Y97213D01*
X191764D01*
Y98213D01*
X190764Y99213D01*
X191764Y100213D01*
Y101213D01*
X190764D01*
X189764Y100213D01*
X188764Y101213D01*
X187764D01*
Y100213D01*
X188764Y99213D01*
X187764Y98213D01*
Y97213D01*
X232252Y173984D02*
X233252D01*
X234252Y174984D01*
X235252Y173984D01*
X236252D01*
Y174984D01*
X235252Y175984D01*
X236252Y176984D01*
Y177984D01*
X235252D01*
X234252Y176984D01*
X233252Y177984D01*
X232252D01*
Y176984D01*
X233252Y175984D01*
X232252Y174984D01*
Y173984D01*
X213945Y52528D02*
X214945D01*
X215945Y53528D01*
X216945Y52528D01*
X217945D01*
Y53528D01*
X216945Y54528D01*
X217945Y55528D01*
Y56528D01*
X216945D01*
X215945Y55528D01*
X214945Y56528D01*
X213945D01*
Y55528D01*
X214945Y54528D01*
X213945Y53528D01*
Y52528D01*
X196622Y-228D02*
X197622D01*
X198622Y772D01*
X199622Y-228D01*
X200622D01*
Y772D01*
X199622Y1772D01*
X200622Y2772D01*
Y3772D01*
X199622D01*
X198622Y2772D01*
X197622Y3772D01*
X196622D01*
Y2772D01*
X197622Y1772D01*
X196622Y772D01*
Y-228D01*
X281957Y193079D02*
X282957D01*
X283957Y194079D01*
X284957Y193079D01*
X285957D01*
Y194079D01*
X284957Y195079D01*
X285957Y196079D01*
Y197079D01*
X284957D01*
X283957Y196079D01*
X282957Y197079D01*
X281957D01*
Y196079D01*
X282957Y195079D01*
X281957Y194079D01*
Y193079D01*
X99968Y96720D02*
X100969D01*
X101969Y97720D01*
X102969Y96720D01*
X103969D01*
Y97720D01*
X102969Y98721D01*
X103969Y99721D01*
Y100721D01*
X102969D01*
X101969Y99721D01*
X100969Y100721D01*
X99968D01*
Y99721D01*
X100969Y98721D01*
X99968Y97720D01*
Y96720D01*
X86386Y120698D02*
X87386D01*
X88386Y121698D01*
X89386Y120698D01*
X90386D01*
Y121698D01*
X89386Y122698D01*
X90386Y123698D01*
Y124698D01*
X89386D01*
X88386Y123698D01*
X87386Y124698D01*
X86386D01*
Y123698D01*
X87386Y122698D01*
X86386Y121698D01*
Y120698D01*
X159024Y53315D02*
X160024D01*
X161024Y54315D01*
X162024Y53315D01*
X163024D01*
Y54315D01*
X162024Y55315D01*
X163024Y56315D01*
Y57315D01*
X162024D01*
X161024Y56315D01*
X160024Y57315D01*
X159024D01*
Y56315D01*
X160024Y55315D01*
X159024Y54315D01*
Y53315D01*
X61287Y106858D02*
X62287D01*
X63287Y107858D01*
X64287Y106858D01*
X65287D01*
Y107858D01*
X64287Y108858D01*
X65287Y109858D01*
Y110858D01*
X64287D01*
X63287Y109858D01*
X62287Y110858D01*
X61287D01*
Y109858D01*
X62287Y108858D01*
X61287Y107858D01*
Y106858D01*
X177134Y44063D02*
X178134D01*
X179134Y45063D01*
X180134Y44063D01*
X181134D01*
Y45063D01*
X180134Y46063D01*
X181134Y47063D01*
Y48063D01*
X180134D01*
X179134Y47063D01*
X178134Y48063D01*
X177134D01*
Y47063D01*
X178134Y46063D01*
X177134Y45063D01*
Y44063D01*
Y83039D02*
X178134D01*
X179134Y84039D01*
X180134Y83039D01*
X181134D01*
Y84039D01*
X180134Y85039D01*
X181134Y86039D01*
Y87039D01*
X180134D01*
X179134Y86039D01*
X178134Y87039D01*
X177134D01*
Y86039D01*
X178134Y85039D01*
X177134Y84039D01*
Y83039D01*
X240618Y115913D02*
X241618D01*
X242618Y116913D01*
X243618Y115913D01*
X244618D01*
Y116913D01*
X243618Y117913D01*
X244618Y118913D01*
Y119913D01*
X243618D01*
X242618Y118913D01*
X241618Y119913D01*
X240618D01*
Y118913D01*
X241618Y117913D01*
X240618Y116913D01*
Y115913D01*
X219358Y29594D02*
X220358D01*
X221358Y30595D01*
X222358Y29594D01*
X223358D01*
Y30595D01*
X222358Y31594D01*
X223358Y32594D01*
Y33595D01*
X222358D01*
X221358Y32594D01*
X220358Y33595D01*
X219358D01*
Y32594D01*
X220358Y31594D01*
X219358Y30595D01*
Y29594D01*
X290520Y-228D02*
X291520D01*
X292520Y772D01*
X293520Y-228D01*
X294520D01*
Y772D01*
X293520Y1772D01*
X294520Y2772D01*
Y3772D01*
X293520D01*
X292520Y2772D01*
X291520Y3772D01*
X290520D01*
Y2772D01*
X291520Y1772D01*
X290520Y772D01*
Y-228D01*
X187075Y193079D02*
X188075D01*
X189075Y194079D01*
X190075Y193079D01*
X191075D01*
Y194079D01*
X190075Y195079D01*
X191075Y196079D01*
Y197079D01*
X190075D01*
X189075Y196079D01*
X188075Y197079D01*
X187075D01*
Y196079D01*
X188075Y195079D01*
X187075Y194079D01*
Y193079D01*
X142685Y68866D02*
X143685D01*
X144685Y69866D01*
X145685Y68866D01*
X146685D01*
Y69866D01*
X145685Y70866D01*
X146685Y71866D01*
Y72866D01*
X145685D01*
X144685Y71866D01*
X143685Y72866D01*
X142685D01*
Y71866D01*
X143685Y70866D01*
X142685Y69866D01*
Y68866D01*
X122213Y129496D02*
X123213D01*
X124213Y130496D01*
X125213Y129496D01*
X126213D01*
Y130496D01*
X125213Y131496D01*
X126213Y132496D01*
Y133496D01*
X125213D01*
X124213Y132496D01*
X123213Y133496D01*
X122213D01*
Y132496D01*
X123213Y131496D01*
X122213Y130496D01*
Y129496D01*
X206480Y107357D02*
X207480D01*
X208479Y108356D01*
X209479Y107357D01*
X210479D01*
Y108356D01*
X209479Y109356D01*
X210479Y110356D01*
Y111356D01*
X209479D01*
X208479Y110356D01*
X207480Y111356D01*
X206480D01*
Y110356D01*
X207480Y109356D01*
X206480Y108356D01*
Y107357D01*
X44358Y156858D02*
X45358D01*
X46358Y157858D01*
X47358Y156858D01*
X48358D01*
Y157858D01*
X47358Y158858D01*
X48358Y159858D01*
Y160858D01*
X47358D01*
X46358Y159858D01*
X45358Y160858D01*
X44358D01*
Y159858D01*
X45358Y158858D01*
X44358Y157858D01*
Y156858D01*
X187272Y102528D02*
X188272D01*
X189272Y103528D01*
X190272Y102528D01*
X191272D01*
Y103528D01*
X190272Y104528D01*
X191272Y105528D01*
Y106528D01*
X190272D01*
X189272Y105528D01*
X188272Y106528D01*
X187272D01*
Y105528D01*
X188272Y104528D01*
X187272Y103528D01*
Y102528D01*
X179496Y20835D02*
X180496D01*
X181496Y21835D01*
X182496Y20835D01*
X183496D01*
Y21835D01*
X182496Y22835D01*
X183496Y23835D01*
Y24835D01*
X182496D01*
X181496Y23835D01*
X180496Y24835D01*
X179496D01*
Y23835D01*
X180496Y22835D01*
X179496Y21835D01*
Y20835D01*
X127921Y61386D02*
X128921D01*
X129921Y62386D01*
X130921Y61386D01*
X131921D01*
Y62386D01*
X130921Y63386D01*
X131921Y64386D01*
Y65386D01*
X130921D01*
X129921Y64386D01*
X128921Y65386D01*
X127921D01*
Y64386D01*
X128921Y63386D01*
X127921Y62386D01*
Y61386D01*
X273984Y36779D02*
X274984D01*
X275984Y37780D01*
X276984Y36779D01*
X277984D01*
Y37780D01*
X276984Y38780D01*
X277984Y39779D01*
Y40780D01*
X276984D01*
X275984Y39779D01*
X274984Y40780D01*
X273984D01*
Y39779D01*
X274984Y38780D01*
X273984Y37780D01*
Y36779D01*
X286583Y127232D02*
X287583D01*
X288583Y128232D01*
X289583Y127232D01*
X290583D01*
Y128232D01*
X289583Y129232D01*
X290583Y130232D01*
Y131232D01*
X289583D01*
X288583Y130232D01*
X287583Y131232D01*
X286583D01*
Y130232D01*
X287583Y129232D01*
X286583Y128232D01*
Y127232D01*
X105677Y193079D02*
X106677D01*
X107677Y194079D01*
X108677Y193079D01*
X109677D01*
Y194079D01*
X108677Y195079D01*
X109677Y196079D01*
Y197079D01*
X108677D01*
X107677Y196079D01*
X106677Y197079D01*
X105677D01*
Y196079D01*
X106677Y195079D01*
X105677Y194079D01*
Y193079D01*
X244358Y151642D02*
X245358D01*
X246358Y152642D01*
X247358Y151642D01*
X248358D01*
Y152642D01*
X247358Y153642D01*
X248358Y154642D01*
Y155642D01*
X247358D01*
X246358Y154642D01*
X245358Y155642D01*
X244358D01*
Y154642D01*
X245358Y153642D01*
X244358Y152642D01*
Y151642D01*
X136386Y140224D02*
X137386D01*
X138386Y141224D01*
X139386Y140224D01*
X140386D01*
Y141224D01*
X139386Y142224D01*
X140386Y143224D01*
Y144224D01*
X139386D01*
X138386Y143224D01*
X137386Y144224D01*
X136386D01*
Y143224D01*
X137386Y142224D01*
X136386Y141224D01*
Y140224D01*
X307449Y144850D02*
X308449D01*
X309449Y145850D01*
X310449Y144850D01*
X311449D01*
Y145850D01*
X310449Y146850D01*
X311449Y147850D01*
Y148850D01*
X310449D01*
X309449Y147850D01*
X308449Y148850D01*
X307449D01*
Y147850D01*
X308449Y146850D01*
X307449Y145850D01*
Y144850D01*
X88453Y184811D02*
X89453D01*
X90453Y185811D01*
X91453Y184811D01*
X92453D01*
Y185811D01*
X91453Y186811D01*
X92453Y187811D01*
Y188811D01*
X91453D01*
X90453Y187811D01*
X89453Y188811D01*
X88453D01*
Y187811D01*
X89453Y186811D01*
X88453Y185811D01*
Y184811D01*
X188059Y129299D02*
X189059D01*
X190059Y130299D01*
X191059Y129299D01*
X192059D01*
Y130299D01*
X191059Y131299D01*
X192059Y132299D01*
Y133299D01*
X191059D01*
X190059Y132299D01*
X189059Y133299D01*
X188059D01*
Y132299D01*
X189059Y131299D01*
X188059Y130299D01*
Y129299D01*
X183039Y31858D02*
X184039D01*
X185039Y32858D01*
X186039Y31858D01*
X187039D01*
Y32858D01*
X186039Y33858D01*
X187039Y34858D01*
Y35858D01*
X186039D01*
X185039Y34858D01*
X184039Y35858D01*
X183039D01*
Y34858D01*
X184039Y33858D01*
X183039Y32858D01*
Y31858D01*
X138551Y61386D02*
X139551D01*
X140551Y62386D01*
X141551Y61386D01*
X142551D01*
Y62386D01*
X141551Y63386D01*
X142551Y64386D01*
Y65386D01*
X141551D01*
X140551Y64386D01*
X139551Y65386D01*
X138551D01*
Y64386D01*
X139551Y63386D01*
X138551Y62386D01*
Y61386D01*
X240913Y71917D02*
X241913D01*
X242913Y72917D01*
X243913Y71917D01*
X244913D01*
Y72917D01*
X243913Y73917D01*
X244913Y74917D01*
Y75917D01*
X243913D01*
X242913Y74917D01*
X241913Y75917D01*
X240913D01*
Y74917D01*
X241913Y73917D01*
X240913Y72917D01*
Y71917D01*
X214831Y133138D02*
X215831D01*
X216831Y134138D01*
X217831Y133138D01*
X218831D01*
Y134138D01*
X217831Y135138D01*
X218831Y136138D01*
Y137138D01*
X217831D01*
X216831Y136138D01*
X215831Y137138D01*
X214831D01*
Y136138D01*
X215831Y135138D01*
X214831Y134138D01*
Y133138D01*
X154201Y121819D02*
X155201D01*
X156201Y122819D01*
X157201Y121819D01*
X158201D01*
Y122819D01*
X157201Y123819D01*
X158201Y124819D01*
Y125819D01*
X157201D01*
X156201Y124819D01*
X155201Y125819D01*
X154201D01*
Y124819D01*
X155201Y123819D01*
X154201Y122819D01*
Y121819D01*
X204693Y126740D02*
X205693D01*
X206693Y127740D01*
X207693Y126740D01*
X208693D01*
Y127740D01*
X207693Y128740D01*
X208693Y129740D01*
Y130740D01*
X207693D01*
X206693Y129740D01*
X205693Y130740D01*
X204693D01*
Y129740D01*
X205693Y128740D01*
X204693Y127740D01*
Y126740D01*
X135008Y99575D02*
X136008D01*
X137008Y100575D01*
X138008Y99575D01*
X139008D01*
Y100575D01*
X138008Y101575D01*
X139008Y102575D01*
Y103575D01*
X138008D01*
X137008Y102575D01*
X136008Y103575D01*
X135008D01*
Y102575D01*
X136008Y101575D01*
X135008Y100575D01*
Y99575D01*
X153905Y166110D02*
X154905D01*
X155905Y167110D01*
X156905Y166110D01*
X157905D01*
Y167110D01*
X156905Y168110D01*
X157905Y169110D01*
Y170110D01*
X156905D01*
X155905Y169110D01*
X154905Y170110D01*
X153905D01*
Y169110D01*
X154905Y168110D01*
X153905Y167110D01*
Y166110D01*
X141898Y108433D02*
X142898D01*
X143898Y109433D01*
X144898Y108433D01*
X145898D01*
Y109433D01*
X144898Y110433D01*
X145898Y111433D01*
Y112433D01*
X144898D01*
X143898Y111433D01*
X142898Y112433D01*
X141898D01*
Y111433D01*
X142898Y110433D01*
X141898Y109433D01*
Y108433D01*
X141602Y150559D02*
X142602D01*
X143602Y151559D01*
X144602Y150559D01*
X145602D01*
Y151559D01*
X144602Y152559D01*
X145602Y153559D01*
Y154559D01*
X144602D01*
X143602Y153559D01*
X142602Y154559D01*
X141602D01*
Y153559D01*
X142602Y152559D01*
X141602Y151559D01*
Y150559D01*
X166504Y47606D02*
X167504D01*
X168504Y48606D01*
X169504Y47606D01*
X170504D01*
Y48606D01*
X169504Y49606D01*
X170504Y50606D01*
Y51606D01*
X169504D01*
X168504Y50606D01*
X167504Y51606D01*
X166504D01*
Y50606D01*
X167504Y49606D01*
X166504Y48606D01*
Y47606D01*
X131465Y39339D02*
X132465D01*
X133465Y40339D01*
X134465Y39339D01*
X135465D01*
Y40339D01*
X134465Y41339D01*
X135465Y42339D01*
Y43339D01*
X134465D01*
X133465Y42339D01*
X132465Y43339D01*
X131465D01*
Y42339D01*
X132465Y41339D01*
X131465Y40339D01*
Y39339D01*
X218079Y177527D02*
X219079D01*
X220079Y178527D01*
X221079Y177527D01*
X222079D01*
Y178527D01*
X221079Y179527D01*
X222079Y180527D01*
Y181527D01*
X221079D01*
X220079Y180527D01*
X219079Y181527D01*
X218079D01*
Y180527D01*
X219079Y179527D01*
X218079Y178527D01*
Y177527D01*
X286386Y100264D02*
X287386D01*
X288386Y101264D01*
X289386Y100264D01*
X290386D01*
Y101264D01*
X289386Y102264D01*
X290386Y103264D01*
Y104264D01*
X289386D01*
X288386Y103264D01*
X287386Y104264D01*
X286386D01*
Y103264D01*
X287386Y102264D01*
X286386Y101264D01*
Y100264D01*
X311189Y140323D02*
X312189D01*
X313189Y141323D01*
X314189Y140323D01*
X315189D01*
Y141323D01*
X314189Y142323D01*
X315189Y143323D01*
Y144323D01*
X314189D01*
X313189Y143323D01*
X312189Y144323D01*
X311189D01*
Y143323D01*
X312189Y142323D01*
X311189Y141323D01*
Y140323D01*
X207252Y62468D02*
X208252D01*
X209252Y63468D01*
X210252Y62468D01*
X211252D01*
Y63468D01*
X210252Y64468D01*
X211252Y65469D01*
Y66469D01*
X210252D01*
X209252Y65469D01*
X208252Y66469D01*
X207252D01*
Y65469D01*
X208252Y64468D01*
X207252Y63468D01*
Y62468D01*
X201150Y123197D02*
X202150D01*
X203150Y124197D01*
X204150Y123197D01*
X205150D01*
Y124197D01*
X204150Y125197D01*
X205150Y126197D01*
Y127197D01*
X204150D01*
X203150Y126197D01*
X202150Y127197D01*
X201150D01*
Y126197D01*
X202150Y125197D01*
X201150Y124197D01*
Y123197D01*
X123591Y171228D02*
X124591D01*
X125591Y172228D01*
X126591Y171228D01*
X127591D01*
Y172228D01*
X126591Y173228D01*
X127591Y174228D01*
Y175228D01*
X126591D01*
X125591Y174228D01*
X124591Y175228D01*
X123591D01*
Y174228D01*
X124591Y173228D01*
X123591Y172228D01*
Y171228D01*
X157449Y23197D02*
X158449D01*
X159449Y24197D01*
X160449Y23197D01*
X161449D01*
Y24197D01*
X160449Y25197D01*
X161449Y26197D01*
Y27197D01*
X160449D01*
X159449Y26197D01*
X158449Y27197D01*
X157449D01*
Y26197D01*
X158449Y25197D01*
X157449Y24197D01*
Y23197D01*
X192882Y187370D02*
X193882D01*
X194882Y188370D01*
X195882Y187370D01*
X196882D01*
Y188370D01*
X195882Y189370D01*
X196882Y190370D01*
Y191370D01*
X195882D01*
X194882Y190370D01*
X193882Y191370D01*
X192882D01*
Y190370D01*
X193882Y189370D01*
X192882Y188370D01*
Y187370D01*
X184221Y145638D02*
X185221D01*
X186221Y146638D01*
X187221Y145638D01*
X188221D01*
Y146638D01*
X187221Y147638D01*
X188221Y148638D01*
Y149638D01*
X187221D01*
X186221Y148638D01*
X185221Y149638D01*
X184221D01*
Y148638D01*
X185221Y147638D01*
X184221Y146638D01*
Y145638D01*
X135008Y64929D02*
X136008D01*
X137008Y65929D01*
X138008Y64929D01*
X139008D01*
Y65929D01*
X138008Y66929D01*
X139008Y67929D01*
Y68929D01*
X138008D01*
X137008Y67929D01*
X136008Y68929D01*
X135008D01*
Y67929D01*
X136008Y66929D01*
X135008Y65929D01*
Y64929D01*
X221622Y184614D02*
X222622D01*
X223622Y185614D01*
X224622Y184614D01*
X225622D01*
Y185614D01*
X224622Y186614D01*
X225622Y187614D01*
Y188614D01*
X224622D01*
X223622Y187614D01*
X222622Y188614D01*
X221622D01*
Y187614D01*
X222622Y186614D01*
X221622Y185614D01*
Y184614D01*
X230185Y96524D02*
X231185D01*
X232185Y97524D01*
X233185Y96524D01*
X234185D01*
Y97524D01*
X233185Y98524D01*
X234185Y99524D01*
Y100524D01*
X233185D01*
X232185Y99524D01*
X231185Y100524D01*
X230185D01*
Y99524D01*
X231185Y98524D01*
X230185Y97524D01*
Y96524D01*
X311189Y42685D02*
X312189D01*
X313189Y43685D01*
X314189Y42685D01*
X315189D01*
Y43685D01*
X314189Y44685D01*
X315189Y45685D01*
Y46685D01*
X314189D01*
X313189Y45685D01*
X312189Y46685D01*
X311189D01*
Y45685D01*
X312189Y44685D01*
X311189Y43685D01*
Y42685D01*
X114437Y121819D02*
X115437D01*
X116437Y122819D01*
X117437Y121819D01*
X118437D01*
Y122819D01*
X117437Y123819D01*
X118437Y124819D01*
Y125819D01*
X117437D01*
X116437Y124819D01*
X115437Y125819D01*
X114437D01*
Y124819D01*
X115437Y123819D01*
X114437Y122819D01*
Y121819D01*
X199772Y97213D02*
X200772D01*
X201772Y98213D01*
X202772Y97213D01*
X203772D01*
Y98213D01*
X202772Y99213D01*
X203772Y100213D01*
Y101213D01*
X202772D01*
X201772Y100213D01*
X200772Y101213D01*
X199772D01*
Y100213D01*
X200772Y99213D01*
X199772Y98213D01*
Y97213D01*
X181465Y117685D02*
X182465D01*
X183465Y118685D01*
X184465Y117685D01*
X185465D01*
Y118685D01*
X184465Y119685D01*
X185465Y120685D01*
Y121685D01*
X184465D01*
X183465Y120685D01*
X182465Y121685D01*
X181465D01*
Y120685D01*
X182465Y119685D01*
X181465Y118685D01*
Y117685D01*
X95638Y123197D02*
X96638D01*
X97638Y124197D01*
X98638Y123197D01*
X99638D01*
Y124197D01*
X98638Y125197D01*
X99638Y126197D01*
Y127197D01*
X98638D01*
X97638Y126197D01*
X96638Y127197D01*
X95638D01*
Y126197D01*
X96638Y125197D01*
X95638Y124197D01*
Y123197D01*
X173591Y149181D02*
X174591D01*
X175591Y150181D01*
X176591Y149181D01*
X177591D01*
Y150181D01*
X176591Y151181D01*
X177591Y152181D01*
Y153181D01*
X176591D01*
X175591Y152181D01*
X174591Y153181D01*
X173591D01*
Y152181D01*
X174591Y151181D01*
X173591Y150181D01*
Y149181D01*
X180677Y75953D02*
X181677D01*
X182677Y76953D01*
X183677Y75953D01*
X184677D01*
Y76953D01*
X183677Y77953D01*
X184677Y78953D01*
Y79953D01*
X183677D01*
X182677Y78953D01*
X181677Y79953D01*
X180677D01*
Y78953D01*
X181677Y77953D01*
X180677Y76953D01*
Y75953D01*
X221622Y173984D02*
X222622D01*
X223622Y174984D01*
X224622Y173984D01*
X225622D01*
Y174984D01*
X224622Y175984D01*
X225622Y176984D01*
Y177984D01*
X224622D01*
X223622Y176984D01*
X222622Y177984D01*
X221622D01*
Y176984D01*
X222622Y175984D01*
X221622Y174984D01*
Y173984D01*
X262764Y111583D02*
X263764D01*
X264764Y112583D01*
X265764Y111583D01*
X266764D01*
Y112583D01*
X265764Y113583D01*
X266764Y114583D01*
Y115583D01*
X265764D01*
X264764Y114583D01*
X263764Y115583D01*
X262764D01*
Y114583D01*
X263764Y113583D01*
X262764Y112583D01*
Y111583D01*
X104299Y-228D02*
X105299D01*
X106299Y772D01*
X107299Y-228D01*
X108299D01*
Y772D01*
X107299Y1772D01*
X108299Y2772D01*
Y3772D01*
X107299D01*
X106299Y2772D01*
X105299Y3772D01*
X104299D01*
Y2772D01*
X105299Y1772D01*
X104299Y772D01*
Y-228D01*
X-228Y122803D02*
X772D01*
X1772Y123803D01*
X2772Y122803D01*
X3772D01*
Y123803D01*
X2772Y124803D01*
X3772Y125803D01*
Y126803D01*
X2772D01*
X1772Y125803D01*
X772Y126803D01*
X-228D01*
Y125803D01*
X772Y124803D01*
X-228Y123803D01*
Y122803D01*
X118472Y172508D02*
X119472D01*
X120472Y173508D01*
X121472Y172508D01*
X122472D01*
Y173508D01*
X121472Y174508D01*
X122472Y175508D01*
Y176508D01*
X121472D01*
X120472Y175508D01*
X119472Y176508D01*
X118472D01*
Y175508D01*
X119472Y174508D01*
X118472Y173508D01*
Y172508D01*
X163006Y51150D02*
X164006D01*
X165006Y52150D01*
X166007Y51150D01*
X167007D01*
Y52150D01*
X166007Y53150D01*
X167007Y54150D01*
Y55150D01*
X166007D01*
X165006Y54150D01*
X164006Y55150D01*
X163006D01*
Y54150D01*
X164006Y53150D01*
X163006Y52150D01*
Y51150D01*
X166504Y145638D02*
X167504D01*
X168504Y146638D01*
X169504Y145638D01*
X170504D01*
Y146638D01*
X169504Y147638D01*
X170504Y148638D01*
Y149638D01*
X169504D01*
X168504Y148638D01*
X167504Y149638D01*
X166504D01*
Y148638D01*
X167504Y147638D01*
X166504Y146638D01*
Y145638D01*
X173591D02*
X174591D01*
X175591Y146638D01*
X176591Y145638D01*
X177591D01*
Y146638D01*
X176591Y147638D01*
X177591Y148638D01*
Y149638D01*
X176591D01*
X175591Y148638D01*
X174591Y149638D01*
X173591D01*
Y148638D01*
X174591Y147638D01*
X173591Y146638D01*
Y145638D01*
X184221Y97213D02*
X185221D01*
X186221Y98213D01*
X187221Y97213D01*
X188221D01*
Y98213D01*
X187221Y99213D01*
X188221Y100213D01*
Y101213D01*
X187221D01*
X186221Y100213D01*
X185221Y101213D01*
X184221D01*
Y100213D01*
X185221Y99213D01*
X184221Y98213D01*
Y97213D01*
X232252Y170441D02*
X233252D01*
X234252Y171441D01*
X235252Y170441D01*
X236252D01*
Y171441D01*
X235252Y172441D01*
X236252Y173441D01*
Y174441D01*
X235252D01*
X234252Y173441D01*
X233252Y174441D01*
X232252D01*
Y173441D01*
X233252Y172441D01*
X232252Y171441D01*
Y170441D01*
X259516Y151051D02*
X260516D01*
X261516Y152051D01*
X262516Y151051D01*
X263516D01*
Y152051D01*
X262516Y153051D01*
X263516Y154051D01*
Y155051D01*
X262516D01*
X261516Y154051D01*
X260516Y155051D01*
X259516D01*
Y154051D01*
X260516Y153051D01*
X259516Y152051D01*
Y151051D01*
X185697Y-228D02*
X186697D01*
X187697Y772D01*
X188697Y-228D01*
X189697D01*
Y772D01*
X188697Y1772D01*
X189697Y2772D01*
Y3772D01*
X188697D01*
X187697Y2772D01*
X186697Y3772D01*
X185697D01*
Y2772D01*
X186697Y1772D01*
X185697Y772D01*
Y-228D01*
X291898Y193079D02*
X292898D01*
X293898Y194079D01*
X294898Y193079D01*
X295898D01*
Y194079D01*
X294898Y195079D01*
X295898Y196079D01*
Y197079D01*
X294898D01*
X293898Y196079D01*
X292898Y197079D01*
X291898D01*
Y196079D01*
X292898Y195079D01*
X291898Y194079D01*
Y193079D01*
X91307Y81760D02*
X92307D01*
X93307Y82760D01*
X94307Y81760D01*
X95307D01*
Y82760D01*
X94307Y83760D01*
X95307Y84760D01*
Y85760D01*
X94307D01*
X93307Y84760D01*
X92307Y85760D01*
X91307D01*
Y84760D01*
X92307Y83760D01*
X91307Y82760D01*
Y81760D01*
X89535Y120638D02*
X90535D01*
X91535Y121638D01*
X92535Y120638D01*
X93535D01*
Y121638D01*
X92535Y122638D01*
X93535Y123638D01*
Y124638D01*
X92535D01*
X91535Y123638D01*
X90535Y124638D01*
X89535D01*
Y123638D01*
X90535Y122638D01*
X89535Y121638D01*
Y120638D01*
X155480Y53315D02*
X156480D01*
X157480Y54315D01*
X158480Y53315D01*
X159480D01*
Y54315D01*
X158480Y55315D01*
X159480Y56315D01*
Y57315D01*
X158480D01*
X157480Y56315D01*
X156480Y57315D01*
X155480D01*
Y56315D01*
X156480Y55315D01*
X155480Y54315D01*
Y53315D01*
X73098Y106858D02*
X74098D01*
X75098Y107858D01*
X76098Y106858D01*
X77098D01*
Y107858D01*
X76098Y108858D01*
X77098Y109858D01*
Y110858D01*
X76098D01*
X75098Y109858D01*
X74098Y110858D01*
X73098D01*
Y109858D01*
X74098Y108858D01*
X73098Y107858D01*
Y106858D01*
X177134Y47606D02*
X178134D01*
X179134Y48606D01*
X180134Y47606D01*
X181134D01*
Y48606D01*
X180134Y49606D01*
X181134Y50606D01*
Y51606D01*
X180134D01*
X179134Y50606D01*
X178134Y51606D01*
X177134D01*
Y50606D01*
X178134Y49606D01*
X177134Y48606D01*
Y47606D01*
X180677Y83039D02*
X181677D01*
X182677Y84039D01*
X183677Y83039D01*
X184677D01*
Y84039D01*
X183677Y85039D01*
X184677Y86039D01*
Y87039D01*
X183677D01*
X182677Y86039D01*
X181677Y87039D01*
X180677D01*
Y86039D01*
X181677Y85039D01*
X180677Y84039D01*
Y83039D01*
X259516Y153709D02*
X260516D01*
X261516Y154709D01*
X262516Y153709D01*
X263516D01*
Y154709D01*
X262516Y155709D01*
X263516Y156709D01*
Y157709D01*
X262516D01*
X261516Y156709D01*
X260516Y157709D01*
X259516D01*
Y156709D01*
X260516Y155709D01*
X259516Y154709D01*
Y153709D01*
X206465Y32744D02*
X207465D01*
X208465Y33744D01*
X209465Y32744D01*
X210465D01*
Y33744D01*
X209465Y34744D01*
X210465Y35744D01*
Y36744D01*
X209465D01*
X208465Y35744D01*
X207465Y36744D01*
X206465D01*
Y35744D01*
X207465Y34744D01*
X206465Y33744D01*
Y32744D01*
X280579Y-228D02*
X281579D01*
X282579Y772D01*
X283579Y-228D01*
X284579D01*
Y772D01*
X283579Y1772D01*
X284579Y2772D01*
Y3772D01*
X283579D01*
X282579Y2772D01*
X281579Y3772D01*
X280579D01*
Y2772D01*
X281579Y1772D01*
X280579Y772D01*
Y-228D01*
X198000Y193079D02*
X199000D01*
X200000Y194079D01*
X201000Y193079D01*
X202000D01*
Y194079D01*
X201000Y195079D01*
X202000Y196079D01*
Y197079D01*
X201000D01*
X200000Y196079D01*
X199000Y197079D01*
X198000D01*
Y196079D01*
X199000Y195079D01*
X198000Y194079D01*
Y193079D01*
X100461Y94161D02*
X101461D01*
X102461Y95161D01*
X103461Y94161D01*
X104461D01*
Y95161D01*
X103461Y96161D01*
X104461Y97161D01*
Y98161D01*
X103461D01*
X102461Y97161D01*
X101461Y98161D01*
X100461D01*
Y97161D01*
X101461Y96161D01*
X100461Y95161D01*
Y94161D01*
X124969Y125165D02*
X125969D01*
X126969Y126165D01*
X127969Y125165D01*
X128969D01*
Y126165D01*
X127969Y127165D01*
X128969Y128165D01*
Y129165D01*
X127969D01*
X126969Y128165D01*
X125969Y129165D01*
X124969D01*
Y128165D01*
X125969Y127165D01*
X124969Y126165D01*
Y125165D01*
X274772Y27528D02*
X275772D01*
X276772Y28528D01*
X277772Y27528D01*
X278772D01*
Y28528D01*
X277772Y29528D01*
X278772Y30528D01*
Y31528D01*
X277772D01*
X276772Y30528D01*
X275772Y31528D01*
X274772D01*
Y30528D01*
X275772Y29528D01*
X274772Y28528D01*
Y27528D01*
X49083Y130874D02*
X50083D01*
X51083Y131874D01*
X52083Y130874D01*
X53083D01*
Y131874D01*
X52083Y132874D01*
X53083Y133874D01*
Y134874D01*
X52083D01*
X51083Y133874D01*
X50083Y134874D01*
X49083D01*
Y133874D01*
X50083Y132874D01*
X49083Y131874D01*
Y130874D01*
X168757Y102437D02*
X169757D01*
X170757Y103437D01*
X171757Y102437D01*
X172757D01*
Y103437D01*
X171757Y104437D01*
X172757Y105437D01*
Y106437D01*
X171757D01*
X170757Y105437D01*
X169757Y106437D01*
X168757D01*
Y105437D01*
X169757Y104437D01*
X168757Y103437D01*
Y102437D01*
X186976Y28315D02*
X187976D01*
X188976Y29315D01*
X189976Y28315D01*
X190976D01*
Y29315D01*
X189976Y30315D01*
X190976Y31315D01*
Y32315D01*
X189976D01*
X188976Y31315D01*
X187976Y32315D01*
X186976D01*
Y31315D01*
X187976Y30315D01*
X186976Y29315D01*
Y28315D01*
X127921Y64929D02*
X128921D01*
X129921Y65929D01*
X130921Y64929D01*
X131921D01*
Y65929D01*
X130921Y66929D01*
X131921Y67929D01*
Y68929D01*
X130921D01*
X129921Y67929D01*
X128921Y68929D01*
X127921D01*
Y67929D01*
X128921Y66929D01*
X127921Y65929D01*
Y64929D01*
X269850Y32646D02*
X270850D01*
X271850Y33646D01*
X272850Y32646D01*
X273850D01*
Y33646D01*
X272850Y34646D01*
X273850Y35646D01*
Y36646D01*
X272850D01*
X271850Y35646D01*
X270850Y36646D01*
X269850D01*
Y35646D01*
X270850Y34646D01*
X269850Y33646D01*
Y32646D01*
X286583Y117488D02*
X287583D01*
X288583Y118488D01*
X289583Y117488D01*
X290583D01*
Y118488D01*
X289583Y119488D01*
X290583Y120488D01*
Y121488D01*
X289583D01*
X288583Y120488D01*
X287583Y121488D01*
X286583D01*
Y120488D01*
X287583Y119488D01*
X286583Y118488D01*
Y117488D01*
X114043Y193079D02*
X115043D01*
X116043Y194079D01*
X117043Y193079D01*
X118043D01*
Y194079D01*
X117043Y195079D01*
X118043Y196079D01*
Y197079D01*
X117043D01*
X116043Y196079D01*
X115043Y197079D01*
X114043D01*
Y196079D01*
X115043Y195079D01*
X114043Y194079D01*
Y193079D01*
X241701Y38945D02*
X242701D01*
X243701Y39945D01*
X244701Y38945D01*
X245701D01*
Y39945D01*
X244701Y40945D01*
X245701Y41945D01*
Y42945D01*
X244701D01*
X243701Y41945D01*
X242701Y42945D01*
X241701D01*
Y41945D01*
X242701Y40945D01*
X241701Y39945D01*
Y38945D01*
X130972Y140224D02*
X131972D01*
X132972Y141224D01*
X133972Y140224D01*
X134972D01*
Y141224D01*
X133972Y142224D01*
X134972Y143224D01*
Y144224D01*
X133972D01*
X132972Y143224D01*
X131972Y144224D01*
X130972D01*
Y143224D01*
X131972Y142224D01*
X130972Y141224D01*
Y140224D01*
X298394Y130677D02*
X299394D01*
X300394Y131677D01*
X301394Y130677D01*
X302394D01*
Y131677D01*
X301394Y132677D01*
X302394Y133677D01*
Y134677D01*
X301394D01*
X300394Y133677D01*
X299394Y134677D01*
X298394D01*
Y133677D01*
X299394Y132677D01*
X298394Y131677D01*
Y130677D01*
X66799Y184811D02*
X67799D01*
X68799Y185811D01*
X69799Y184811D01*
X70799D01*
Y185811D01*
X69799Y186811D01*
X70799Y187811D01*
Y188811D01*
X69799D01*
X68799Y187811D01*
X67799Y188811D01*
X66799D01*
Y187811D01*
X67799Y186811D01*
X66799Y185811D01*
Y184811D01*
X180185Y121425D02*
X181185D01*
X182185Y122425D01*
X183185Y121425D01*
X184185D01*
Y122425D01*
X183185Y123425D01*
X184185Y124425D01*
Y125425D01*
X183185D01*
X182185Y124425D01*
X181185Y125425D01*
X180185D01*
Y124425D01*
X181185Y123425D01*
X180185Y122425D01*
Y121425D01*
X183039Y28315D02*
X184039D01*
X185039Y29315D01*
X186039Y28315D01*
X187039D01*
Y29315D01*
X186039Y30315D01*
X187039Y31315D01*
Y32315D01*
X186039D01*
X185039Y31315D01*
X184039Y32315D01*
X183039D01*
Y31315D01*
X184039Y30315D01*
X183039Y29315D01*
Y28315D01*
X142095Y57842D02*
X143095D01*
X144095Y58842D01*
X145095Y57842D01*
X146095D01*
Y58842D01*
X145095Y59842D01*
X146095Y60843D01*
Y61843D01*
X145095D01*
X144095Y60843D01*
X143095Y61843D01*
X142095D01*
Y60843D01*
X143095Y59842D01*
X142095Y58842D01*
Y57842D01*
X233138Y71917D02*
X234138D01*
X235138Y72917D01*
X236138Y71917D01*
X237138D01*
Y72917D01*
X236138Y73917D01*
X237138Y74917D01*
Y75917D01*
X236138D01*
X235138Y74917D01*
X234138Y75917D01*
X233138D01*
Y74917D01*
X234138Y73917D01*
X233138Y72917D01*
Y71917D01*
X212567Y133531D02*
X213567D01*
X214567Y134531D01*
X215567Y133531D01*
X216567D01*
Y134531D01*
X215567Y135531D01*
X216567Y136531D01*
Y137531D01*
X215567D01*
X214567Y136531D01*
X213567Y137531D01*
X212567D01*
Y136531D01*
X213567Y135531D01*
X212567Y134531D01*
Y133531D01*
X155677Y104299D02*
X156677D01*
X157677Y105299D01*
X158677Y104299D01*
X159677D01*
Y105299D01*
X158677Y106299D01*
X159677Y107299D01*
Y108299D01*
X158677D01*
X157677Y107299D01*
X156677Y108299D01*
X155677D01*
Y107299D01*
X156677Y106299D01*
X155677Y105299D01*
Y104299D01*
X211779Y126740D02*
X212779D01*
X213779Y127740D01*
X214779Y126740D01*
X215779D01*
Y127740D01*
X214779Y128740D01*
X215779Y129740D01*
Y130740D01*
X214779D01*
X213779Y129740D01*
X212779Y130740D01*
X211779D01*
Y129740D01*
X212779Y128740D01*
X211779Y127740D01*
Y126740D01*
X117390Y156563D02*
X118390D01*
X119390Y157563D01*
X120390Y156563D01*
X121390D01*
Y157563D01*
X120390Y158563D01*
X121390Y159563D01*
Y160563D01*
X120390D01*
X119390Y159563D01*
X118390Y160563D01*
X117390D01*
Y159563D01*
X118390Y158563D01*
X117390Y157563D01*
Y156563D01*
X136189Y108433D02*
X137189D01*
X138189Y109433D01*
X139189Y108433D01*
X140189D01*
Y109433D01*
X139189Y110433D01*
X140189Y111433D01*
Y112433D01*
X139189D01*
X138189Y111433D01*
X137189Y112433D01*
X136189D01*
Y111433D01*
X137189Y110433D01*
X136189Y109433D01*
Y108433D01*
X122705Y150559D02*
X123705D01*
X124705Y151559D01*
X125705Y150559D01*
X126705D01*
Y151559D01*
X125705Y152559D01*
X126705Y153559D01*
Y154559D01*
X125705D01*
X124705Y153559D01*
X123705Y154559D01*
X122705D01*
Y153559D01*
X123705Y152559D01*
X122705Y151559D01*
Y150559D01*
X166504Y44063D02*
X167504D01*
X168504Y45063D01*
X169504Y44063D01*
X170504D01*
Y45063D01*
X169504Y46063D01*
X170504Y47063D01*
Y48063D01*
X169504D01*
X168504Y47063D01*
X167504Y48063D01*
X166504D01*
Y47063D01*
X167504Y46063D01*
X166504Y45063D01*
Y44063D01*
X135008Y39339D02*
X136008D01*
X137008Y40339D01*
X138008Y39339D01*
X139008D01*
Y40339D01*
X138008Y41339D01*
X139008Y42339D01*
Y43339D01*
X138008D01*
X137008Y42339D01*
X136008Y43339D01*
X135008D01*
Y42339D01*
X136008Y41339D01*
X135008Y40339D01*
Y39339D01*
X138551Y54299D02*
X139551D01*
X140551Y55299D01*
X141551Y54299D01*
X142551D01*
Y55299D01*
X141551Y56299D01*
X142551Y57299D01*
Y58299D01*
X141551D01*
X140551Y57299D01*
X139551Y58299D01*
X138551D01*
Y57299D01*
X139551Y56299D01*
X138551Y55299D01*
Y54299D01*
X286386Y93472D02*
X287386D01*
X288386Y94472D01*
X289386Y93472D01*
X290386D01*
Y94472D01*
X289386Y95472D01*
X290386Y96472D01*
Y97472D01*
X289386D01*
X288386Y96472D01*
X287386Y97472D01*
X286386D01*
Y96472D01*
X287386Y95472D01*
X286386Y94472D01*
Y93472D01*
X311189Y149772D02*
X312189D01*
X313189Y150772D01*
X314189Y149772D01*
X315189D01*
Y150772D01*
X314189Y151772D01*
X315189Y152772D01*
Y153772D01*
X314189D01*
X313189Y152772D01*
X312189Y153772D01*
X311189D01*
Y152772D01*
X312189Y151772D01*
X311189Y150772D01*
Y149772D01*
X211386Y59122D02*
X212386D01*
X213386Y60122D01*
X214386Y59122D01*
X215386D01*
Y60122D01*
X214386Y61122D01*
X215386Y62122D01*
Y63122D01*
X214386D01*
X213386Y62122D01*
X212386Y63122D01*
X211386D01*
Y62122D01*
X212386Y61122D01*
X211386Y60122D01*
Y59122D01*
X204693Y119653D02*
X205693D01*
X206693Y120653D01*
X207693Y119653D01*
X208693D01*
Y120653D01*
X207693Y121653D01*
X208693Y122653D01*
Y123653D01*
X207693D01*
X206693Y122653D01*
X205693Y123653D01*
X204693D01*
Y122653D01*
X205693Y121653D01*
X204693Y120653D01*
Y119653D01*
X203020Y182843D02*
X204020D01*
X205020Y183843D01*
X206020Y182843D01*
X207020D01*
Y183843D01*
X206020Y184843D01*
X207020Y185843D01*
Y186843D01*
X206020D01*
X205020Y185843D01*
X204020Y186843D01*
X203020D01*
Y185843D01*
X204020Y184843D01*
X203020Y183843D01*
Y182843D01*
X153905Y23197D02*
X154905D01*
X155905Y24197D01*
X156905Y23197D01*
X157905D01*
Y24197D01*
X156905Y25197D01*
X157905Y26197D01*
Y27197D01*
X156905D01*
X155905Y26197D01*
X154905Y27197D01*
X153905D01*
Y26197D01*
X154905Y25197D01*
X153905Y24197D01*
Y23197D01*
X174378Y173591D02*
X175378D01*
X176378Y174591D01*
X177378Y173591D01*
X178378D01*
Y174591D01*
X177378Y175591D01*
X178378Y176591D01*
Y177591D01*
X177378D01*
X176378Y176591D01*
X175378Y177591D01*
X174378D01*
Y176591D01*
X175378Y175591D01*
X174378Y174591D01*
Y173591D01*
X191307Y145638D02*
X192307D01*
X193307Y146638D01*
X194307Y145638D01*
X195307D01*
Y146638D01*
X194307Y147638D01*
X195307Y148638D01*
Y149638D01*
X194307D01*
X193307Y148638D01*
X192307Y149638D01*
X191307D01*
Y148638D01*
X192307Y147638D01*
X191307Y146638D01*
Y145638D01*
X124378Y57842D02*
X125378D01*
X126378Y58842D01*
X127378Y57842D01*
X128378D01*
Y58842D01*
X127378Y59842D01*
X128378Y60843D01*
Y61843D01*
X127378D01*
X126378Y60843D01*
X125378Y61843D01*
X124378D01*
Y60843D01*
X125378Y59842D01*
X124378Y58842D01*
Y57842D01*
X228709Y184614D02*
X229709D01*
X230709Y185614D01*
X231709Y184614D01*
X232709D01*
Y185614D01*
X231709Y186614D01*
X232709Y187614D01*
Y188614D01*
X231709D01*
X230709Y187614D01*
X229709Y188614D01*
X228709D01*
Y187614D01*
X229709Y186614D01*
X228709Y185614D01*
Y184614D01*
X232055Y104988D02*
X233055D01*
X234055Y105988D01*
X235055Y104988D01*
X236055D01*
Y105988D01*
X235055Y106988D01*
X236055Y107988D01*
Y108988D01*
X235055D01*
X234055Y107988D01*
X233055Y108988D01*
X232055D01*
Y107988D01*
X233055Y106988D01*
X232055Y105988D01*
Y104988D01*
X311189Y53807D02*
X312189D01*
X313189Y54807D01*
X314189Y53807D01*
X315189D01*
Y54807D01*
X314189Y55807D01*
X315189Y56807D01*
Y57807D01*
X314189D01*
X313189Y56807D01*
X312189Y57807D01*
X311189D01*
Y56807D01*
X312189Y55807D01*
X311189Y54807D01*
Y53807D01*
X101150Y121524D02*
X102150D01*
X103150Y122524D01*
X104150Y121524D01*
X105150D01*
Y122524D01*
X104150Y123524D01*
X105150Y124524D01*
Y125524D01*
X104150D01*
X103150Y124524D01*
X102150Y125524D01*
X101150D01*
Y124524D01*
X102150Y123524D01*
X101150Y122524D01*
Y121524D01*
X215028Y138551D02*
X216028D01*
X217028Y139551D01*
X218028Y138551D01*
X219028D01*
Y139551D01*
X218028Y140551D01*
X219028Y141551D01*
Y142551D01*
X218028D01*
X217028Y141551D01*
X216028Y142551D01*
X215028D01*
Y141551D01*
X216028Y140551D01*
X215028Y139551D01*
Y138551D01*
X162567Y133433D02*
X163567D01*
X164567Y134433D01*
X165567Y133433D01*
X166567D01*
Y134433D01*
X165567Y135433D01*
X166567Y136433D01*
Y137433D01*
X165567D01*
X164567Y136433D01*
X163567Y137433D01*
X162567D01*
Y136433D01*
X163567Y135433D01*
X162567Y134433D01*
Y133433D01*
X114437Y110795D02*
X115437D01*
X116437Y111795D01*
X117437Y110795D01*
X118437D01*
Y111795D01*
X117437Y112795D01*
X118437Y113795D01*
Y114795D01*
X117437D01*
X116437Y113795D01*
X115437Y114795D01*
X114437D01*
Y113795D01*
X115437Y112795D01*
X114437Y111795D01*
Y110795D01*
X180677Y149181D02*
X181677D01*
X182677Y150181D01*
X183677Y149181D01*
X184677D01*
Y150181D01*
X183677Y151181D01*
X184677Y152181D01*
Y153181D01*
X183677D01*
X182677Y152181D01*
X181677Y153181D01*
X180677D01*
Y152181D01*
X181677Y151181D01*
X180677Y150181D01*
Y149181D01*
X173591Y75953D02*
X174591D01*
X175591Y76953D01*
X176591Y75953D01*
X177591D01*
Y76953D01*
X176591Y77953D01*
X177591Y78953D01*
Y79953D01*
X176591D01*
X175591Y78953D01*
X174591Y79953D01*
X173591D01*
Y78953D01*
X174591Y77953D01*
X173591Y76953D01*
Y75953D01*
X225165Y177527D02*
X226165D01*
X227165Y178527D01*
X228165Y177527D01*
X229165D01*
Y178527D01*
X228165Y179527D01*
X229165Y180527D01*
Y181527D01*
X228165D01*
X227165Y180527D01*
X226165Y181527D01*
X225165D01*
Y180527D01*
X226165Y179527D01*
X225165Y178527D01*
Y177527D01*
X253315Y117291D02*
X254315D01*
X255315Y118291D01*
X256315Y117291D01*
X257315D01*
Y118291D01*
X256315Y119291D01*
X257315Y120291D01*
Y121291D01*
X256315D01*
X255315Y120291D01*
X254315Y121291D01*
X253315D01*
Y120291D01*
X254315Y119291D01*
X253315Y118291D01*
Y117291D01*
X95539Y-228D02*
X96539D01*
X97539Y772D01*
X98539Y-228D01*
X99539D01*
Y772D01*
X98539Y1772D01*
X99539Y2772D01*
Y3772D01*
X98539D01*
X97539Y2772D01*
X96539Y3772D01*
X95539D01*
Y2772D01*
X96539Y1772D01*
X95539Y772D01*
Y-228D01*
X-228Y112567D02*
X772D01*
X1772Y113567D01*
X2772Y112567D01*
X3772D01*
Y113567D01*
X2772Y114567D01*
X3772Y115567D01*
Y116567D01*
X2772D01*
X1772Y115567D01*
X772Y116567D01*
X-228D01*
Y115567D01*
X772Y114567D01*
X-228Y113567D01*
Y112567D01*
X225658Y134122D02*
X226658D01*
X227658Y135122D01*
X228658Y134122D01*
X229658D01*
Y135122D01*
X228658Y136122D01*
X229658Y137122D01*
Y138122D01*
X228658D01*
X227658Y137122D01*
X226658Y138122D01*
X225658D01*
Y137122D01*
X226658Y136122D01*
X225658Y135122D01*
Y134122D01*
X163006Y47607D02*
X164006D01*
X165006Y48607D01*
X166007Y47607D01*
X167007D01*
Y48607D01*
X166007Y49607D01*
X167007Y50607D01*
Y51607D01*
X166007D01*
X165006Y50607D01*
X164006Y51607D01*
X163006D01*
Y50607D01*
X164006Y49607D01*
X163006Y48607D01*
Y47607D01*
X170047Y145638D02*
X171047D01*
X172047Y146638D01*
X173047Y145638D01*
X174047D01*
Y146638D01*
X173047Y147638D01*
X174047Y148638D01*
Y149638D01*
X173047D01*
X172047Y148638D01*
X171047Y149638D01*
X170047D01*
Y148638D01*
X171047Y147638D01*
X170047Y146638D01*
Y145638D01*
X184221Y163354D02*
X185221D01*
X186221Y164354D01*
X187221Y163354D01*
X188221D01*
Y164354D01*
X187221Y165354D01*
X188221Y166354D01*
Y167354D01*
X187221D01*
X186221Y166354D01*
X185221Y167354D01*
X184221D01*
Y166354D01*
X185221Y165354D01*
X184221Y164354D01*
Y163354D01*
X173591Y79496D02*
X174591D01*
X175591Y80496D01*
X176591Y79496D01*
X177591D01*
Y80496D01*
X176591Y81496D01*
X177591Y82496D01*
Y83496D01*
X176591D01*
X175591Y82496D01*
X174591Y83496D01*
X173591D01*
Y82496D01*
X174591Y81496D01*
X173591Y80496D01*
Y79496D01*
X232252Y177527D02*
X233252D01*
X234252Y178527D01*
X235252Y177527D01*
X236252D01*
Y178527D01*
X235252Y179527D01*
X236252Y180527D01*
Y181527D01*
X235252D01*
X234252Y180527D01*
X233252Y181527D01*
X232252D01*
Y180527D01*
X233252Y179527D01*
X232252Y178527D01*
Y177527D01*
X225953Y71819D02*
X226953D01*
X227953Y72819D01*
X228953Y71819D01*
X229953D01*
Y72819D01*
X228953Y73819D01*
X229953Y74819D01*
Y75819D01*
X228953D01*
X227953Y74819D01*
X226953Y75819D01*
X225953D01*
Y74819D01*
X226953Y73819D01*
X225953Y72819D01*
Y71819D01*
X175461Y-228D02*
X176461D01*
X177461Y772D01*
X178461Y-228D01*
X179461D01*
Y772D01*
X178461Y1772D01*
X179461Y2772D01*
Y3772D01*
X178461D01*
X177461Y2772D01*
X176461Y3772D01*
X175461D01*
Y2772D01*
X176461Y1772D01*
X175461Y772D01*
Y-228D01*
X-228Y178709D02*
X772D01*
X1772Y179709D01*
X2772Y178709D01*
X3772D01*
Y179709D01*
X2772Y180709D01*
X3772Y181709D01*
Y182709D01*
X2772D01*
X1772Y181709D01*
X772Y182709D01*
X-228D01*
Y181709D01*
X772Y180709D01*
X-228Y179709D01*
Y178709D01*
X90557Y172372D02*
X91557D01*
X92557Y173372D01*
X93557Y172372D01*
X94557D01*
Y173372D01*
X93557Y174372D01*
X94557Y175372D01*
Y176372D01*
X93557D01*
X92557Y175372D01*
X91557Y176372D01*
X90557D01*
Y175372D01*
X91557Y174372D01*
X90557Y173372D01*
Y172372D01*
X120736Y90815D02*
X121736D01*
X122736Y91815D01*
X123736Y90815D01*
X124736D01*
Y91815D01*
X123736Y92815D01*
X124736Y93815D01*
Y94815D01*
X123736D01*
X122736Y93815D01*
X121736Y94815D01*
X120736D01*
Y93815D01*
X121736Y92815D01*
X120736Y91815D01*
Y90815D01*
X155480Y56858D02*
X156480D01*
X157480Y57858D01*
X158480Y56858D01*
X159480D01*
Y57858D01*
X158480Y58858D01*
X159480Y59858D01*
Y60858D01*
X158480D01*
X157480Y59858D01*
X156480Y60858D01*
X155480D01*
Y59858D01*
X156480Y58858D01*
X155480Y57858D01*
Y56858D01*
X85697Y106858D02*
X86697D01*
X87697Y107858D01*
X88697Y106858D01*
X89697D01*
Y107858D01*
X88697Y108858D01*
X89697Y109858D01*
Y110858D01*
X88697D01*
X87697Y109858D01*
X86697Y110858D01*
X85697D01*
Y109858D01*
X86697Y108858D01*
X85697Y107858D01*
Y106858D01*
X180677Y47606D02*
X181677D01*
X182677Y48606D01*
X183677Y47606D01*
X184677D01*
Y48606D01*
X183677Y49606D01*
X184677Y50606D01*
Y51606D01*
X183677D01*
X182677Y50606D01*
X181677Y51606D01*
X180677D01*
Y50606D01*
X181677Y49606D01*
X180677Y48606D01*
Y47606D01*
X173591Y83039D02*
X174591D01*
X175591Y84039D01*
X176591Y83039D01*
X177591D01*
Y84039D01*
X176591Y85039D01*
X177591Y86039D01*
Y87039D01*
X176591D01*
X175591Y86039D01*
X174591Y87039D01*
X173591D01*
Y86039D01*
X174591Y85039D01*
X173591Y84039D01*
Y83039D01*
X261681Y153709D02*
X262681D01*
X263681Y154709D01*
X264681Y153709D01*
X265681D01*
Y154709D01*
X264681Y155709D01*
X265681Y156709D01*
Y157709D01*
X264681D01*
X263681Y156709D01*
X262681Y157709D01*
X261681D01*
Y156709D01*
X262681Y155709D01*
X261681Y154709D01*
Y153709D01*
X220342Y95638D02*
X221342D01*
X222342Y96638D01*
X223342Y95638D01*
X224342D01*
Y96638D01*
X223342Y97638D01*
X224342Y98638D01*
Y99638D01*
X223342D01*
X222342Y98638D01*
X221342Y99638D01*
X220342D01*
Y98638D01*
X221342Y97638D01*
X220342Y96638D01*
Y95638D01*
X271130Y-228D02*
X272130D01*
X273130Y772D01*
X274130Y-228D01*
X275130D01*
Y772D01*
X274130Y1772D01*
X275130Y2772D01*
Y3772D01*
X274130D01*
X273130Y2772D01*
X272130Y3772D01*
X271130D01*
Y2772D01*
X272130Y1772D01*
X271130Y772D01*
Y-228D01*
X208728Y193079D02*
X209728D01*
X210728Y194079D01*
X211728Y193079D01*
X212728D01*
Y194079D01*
X211728Y195079D01*
X212728Y196079D01*
Y197079D01*
X211728D01*
X210728Y196079D01*
X209728Y197079D01*
X208728D01*
Y196079D01*
X209728Y195079D01*
X208728Y194079D01*
Y193079D01*
X121819Y105185D02*
X122819D01*
X123819Y106185D01*
X124819Y105185D01*
X125819D01*
Y106185D01*
X124819Y107185D01*
X125819Y108185D01*
Y109185D01*
X124819D01*
X123819Y108185D01*
X122819Y109185D01*
X121819D01*
Y108185D01*
X122819Y107185D01*
X121819Y106185D01*
Y105185D01*
X267291Y14142D02*
X268291D01*
X269291Y15142D01*
X270291Y14142D01*
X271291D01*
Y15142D01*
X270291Y16142D01*
X271291Y17142D01*
Y18142D01*
X270291D01*
X269291Y17142D01*
X268291Y18142D01*
X267291D01*
Y17142D01*
X268291Y16142D01*
X267291Y15142D01*
Y14142D01*
X64437Y129693D02*
X65437D01*
X66437Y130693D01*
X67437Y129693D01*
X68437D01*
Y130693D01*
X67437Y131693D01*
X68437Y132693D01*
Y133693D01*
X67437D01*
X66437Y132693D01*
X65437Y133693D01*
X64437D01*
Y132693D01*
X65437Y131693D01*
X64437Y130693D01*
Y129693D01*
X173591Y40520D02*
X174591D01*
X175591Y41520D01*
X176591Y40520D01*
X177591D01*
Y41520D01*
X176591Y42520D01*
X177591Y43520D01*
Y44520D01*
X176591D01*
X175591Y43520D01*
X174591Y44520D01*
X173591D01*
Y43520D01*
X174591Y42520D01*
X173591Y41520D01*
Y40520D01*
X186976Y31858D02*
X187976D01*
X188976Y32858D01*
X189976Y31858D01*
X190976D01*
Y32858D01*
X189976Y33858D01*
X190976Y34858D01*
Y35858D01*
X189976D01*
X188976Y34858D01*
X187976Y35858D01*
X186976D01*
Y34858D01*
X187976Y33858D01*
X186976Y32858D01*
Y31858D01*
X124378Y64929D02*
X125378D01*
X126378Y65929D01*
X127378Y64929D01*
X128378D01*
Y65929D01*
X127378Y66929D01*
X128378Y67929D01*
Y68929D01*
X127378D01*
X126378Y67929D01*
X125378Y68929D01*
X124378D01*
Y67929D01*
X125378Y66929D01*
X124378Y65929D01*
Y64929D01*
X265618Y28315D02*
X266618D01*
X267618Y29315D01*
X268618Y28315D01*
X269618D01*
Y29315D01*
X268618Y30315D01*
X269618Y31315D01*
Y32315D01*
X268618D01*
X267618Y31315D01*
X266618Y32315D01*
X265618D01*
Y31315D01*
X266618Y30315D01*
X265618Y29315D01*
Y28315D01*
X282449Y111779D02*
X283449D01*
X284449Y112779D01*
X285449Y111779D01*
X286449D01*
Y112779D01*
X285449Y113779D01*
X286449Y114779D01*
Y115779D01*
X285449D01*
X284449Y114779D01*
X283449Y115779D01*
X282449D01*
Y114779D01*
X283449Y113779D01*
X282449Y112779D01*
Y111779D01*
X122902Y193079D02*
X123902D01*
X124902Y194079D01*
X125902Y193079D01*
X126902D01*
Y194079D01*
X125902Y195079D01*
X126902Y196079D01*
Y197079D01*
X125902D01*
X124902Y196079D01*
X123902Y197079D01*
X122902D01*
Y196079D01*
X123902Y195079D01*
X122902Y194079D01*
Y193079D01*
X225067Y66898D02*
X226067D01*
X227067Y67898D01*
X228067Y66898D01*
X229067D01*
Y67898D01*
X228067Y68898D01*
X229067Y69898D01*
Y70898D01*
X228067D01*
X227067Y69898D01*
X226067Y70898D01*
X225067D01*
Y69898D01*
X226067Y68898D01*
X225067Y67898D01*
Y66898D01*
X125953Y140224D02*
X126953D01*
X127953Y141224D01*
X128953Y140224D01*
X129953D01*
Y141224D01*
X128953Y142224D01*
X129953Y143224D01*
Y144224D01*
X128953D01*
X127953Y143224D01*
X126953Y144224D01*
X125953D01*
Y143224D01*
X126953Y142224D01*
X125953Y141224D01*
Y140224D01*
X298394Y112961D02*
X299394D01*
X300394Y113961D01*
X301394Y112961D01*
X302394D01*
Y113961D01*
X301394Y114961D01*
X302394Y115961D01*
Y116961D01*
X301394D01*
X300394Y115961D01*
X299394Y116961D01*
X298394D01*
Y115961D01*
X299394Y114961D01*
X298394Y113961D01*
Y112961D01*
X50264Y182449D02*
X51264D01*
X52264Y183449D01*
X53264Y182449D01*
X54264D01*
Y183449D01*
X53264Y184449D01*
X54264Y185449D01*
Y186449D01*
X53264D01*
X52264Y185449D01*
X51264Y186449D01*
X50264D01*
Y185449D01*
X51264Y184449D01*
X50264Y183449D01*
Y182449D01*
X166405Y97409D02*
X167405D01*
X168405Y98409D01*
X169405Y97409D01*
X170405D01*
Y98409D01*
X169405Y99410D01*
X170405Y100409D01*
Y101409D01*
X169405D01*
X168405Y100409D01*
X167405Y101409D01*
X166405D01*
Y100409D01*
X167405Y99410D01*
X166405Y98409D01*
Y97409D01*
X179496Y28315D02*
X180496D01*
X181496Y29315D01*
X182496Y28315D01*
X183496D01*
Y29315D01*
X182496Y30315D01*
X183496Y31315D01*
Y32315D01*
X182496D01*
X181496Y31315D01*
X180496Y32315D01*
X179496D01*
Y31315D01*
X180496Y30315D01*
X179496Y29315D01*
Y28315D01*
X142095Y54299D02*
X143095D01*
X144095Y55299D01*
X145095Y54299D01*
X146095D01*
Y55299D01*
X145095Y56299D01*
X146095Y57299D01*
Y58299D01*
X145095D01*
X144095Y57299D01*
X143095Y58299D01*
X142095D01*
Y57299D01*
X143095Y56299D01*
X142095Y55299D01*
Y54299D01*
X285697Y77626D02*
X286697D01*
X287697Y78626D01*
X288697Y77626D01*
X289697D01*
Y78626D01*
X288697Y79626D01*
X289697Y80626D01*
Y81626D01*
X288697D01*
X287697Y80626D01*
X286697Y81626D01*
X285697D01*
Y80626D01*
X286697Y79626D01*
X285697Y78626D01*
Y77626D01*
X243374Y118079D02*
X244374D01*
X245374Y119079D01*
X246374Y118079D01*
X247374D01*
Y119079D01*
X246374Y120079D01*
X247374Y121079D01*
Y122079D01*
X246374D01*
X245374Y121079D01*
X244374Y122079D01*
X243374D01*
Y121079D01*
X244374Y120079D01*
X243374Y119079D01*
Y118079D01*
X153512Y98787D02*
X154512D01*
X155512Y99787D01*
X156512Y98787D01*
X157512D01*
Y99787D01*
X156512Y100787D01*
X157512Y101787D01*
Y102787D01*
X156512D01*
X155512Y101787D01*
X154512Y102787D01*
X153512D01*
Y101787D01*
X154512Y100787D01*
X153512Y99787D01*
Y98787D01*
X208236Y126740D02*
X209236D01*
X210236Y127740D01*
X211236Y126740D01*
X212236D01*
Y127740D01*
X211236Y128740D01*
X212236Y129740D01*
Y130740D01*
X211236D01*
X210236Y129740D01*
X209236Y130740D01*
X208236D01*
Y129740D01*
X209236Y128740D01*
X208236Y127740D01*
Y126740D01*
X107547Y156563D02*
X108547D01*
X109547Y157563D01*
X110547Y156563D01*
X111547D01*
Y157563D01*
X110547Y158563D01*
X111547Y159563D01*
Y160563D01*
X110547D01*
X109547Y159563D01*
X108547Y160563D01*
X107547D01*
Y159563D01*
X108547Y158563D01*
X107547Y157563D01*
Y156563D01*
X130283Y108433D02*
X131283D01*
X132283Y109433D01*
X133283Y108433D01*
X134283D01*
Y109433D01*
X133283Y110433D01*
X134283Y111433D01*
Y112433D01*
X133283D01*
X132283Y111433D01*
X131283Y112433D01*
X130283D01*
Y111433D01*
X131283Y110433D01*
X130283Y109433D01*
Y108433D01*
X279102Y183827D02*
X280102D01*
X281102Y184827D01*
X282102Y183827D01*
X283102D01*
Y184827D01*
X282102Y185827D01*
X283102Y186827D01*
Y187827D01*
X282102D01*
X281102Y186827D01*
X280102Y187827D01*
X279102D01*
Y186827D01*
X280102Y185827D01*
X279102Y184827D01*
Y183827D01*
X110500Y164732D02*
X111500D01*
X112500Y165732D01*
X113500Y164732D01*
X114500D01*
Y165732D01*
X113500Y166732D01*
X114500Y167732D01*
Y168732D01*
X113500D01*
X112500Y167732D01*
X111500Y168732D01*
X110500D01*
Y167732D01*
X111500Y166732D01*
X110500Y165732D01*
Y164732D01*
X166476Y55049D02*
X167476D01*
X168476Y56049D01*
X169476Y55049D01*
X170476D01*
Y56049D01*
X169476Y57049D01*
X170476Y58049D01*
Y59049D01*
X169476D01*
X168476Y58049D01*
X167476Y59049D01*
X166476D01*
Y58049D01*
X167476Y57049D01*
X166476Y56049D01*
Y55049D01*
X138551Y35795D02*
X139551D01*
X140551Y36795D01*
X141551Y35795D01*
X142551D01*
Y36795D01*
X141551Y37795D01*
X142551Y38795D01*
Y39795D01*
X141551D01*
X140551Y38795D01*
X139551Y39795D01*
X138551D01*
Y38795D01*
X139551Y37795D01*
X138551Y36795D01*
Y35795D01*
X135008Y54299D02*
X136008D01*
X137008Y55299D01*
X138008Y54299D01*
X139008D01*
Y55299D01*
X138008Y56299D01*
X139008Y57299D01*
Y58299D01*
X138008D01*
X137008Y57299D01*
X136008Y58299D01*
X135008D01*
Y57299D01*
X136008Y56299D01*
X135008Y55299D01*
Y54299D01*
X286386Y87173D02*
X287386D01*
X288386Y88173D01*
X289386Y87173D01*
X290386D01*
Y88173D01*
X289386Y89173D01*
X290386Y90173D01*
Y91173D01*
X289386D01*
X288386Y90173D01*
X287386Y91173D01*
X286386D01*
Y90173D01*
X287386Y89173D01*
X286386Y88173D01*
Y87173D01*
X311189Y158728D02*
X312189D01*
X313189Y159728D01*
X314189Y158728D01*
X315189D01*
Y159728D01*
X314189Y160728D01*
X315189Y161728D01*
Y162728D01*
X314189D01*
X313189Y161728D01*
X312189Y162728D01*
X311189D01*
Y161728D01*
X312189Y160728D01*
X311189Y159728D01*
Y158728D01*
X204693Y64339D02*
X205693D01*
X206693Y65339D01*
X207693Y64339D01*
X208693D01*
Y65339D01*
X207693Y66339D01*
X208693Y67339D01*
Y68339D01*
X207693D01*
X206693Y67339D01*
X205693Y68339D01*
X204693D01*
Y67339D01*
X205693Y66339D01*
X204693Y65339D01*
Y64339D01*
X208236Y116110D02*
X209236D01*
X210236Y117110D01*
X211236Y116110D01*
X212236D01*
Y117110D01*
X211236Y118110D01*
X212236Y119110D01*
Y120110D01*
X211236D01*
X210236Y119110D01*
X209236Y120110D01*
X208236D01*
Y119110D01*
X209236Y118110D01*
X208236Y117110D01*
Y116110D01*
X150756Y138157D02*
X151756D01*
X152756Y139157D01*
X153756Y138157D01*
X154756D01*
Y139157D01*
X153756Y140157D01*
X154756Y141157D01*
Y142157D01*
X153756D01*
X152756Y141157D01*
X151756Y142157D01*
X150756D01*
Y141157D01*
X151756Y140157D01*
X150756Y139157D01*
Y138157D01*
X153905Y26740D02*
X154905D01*
X155905Y27740D01*
X156905Y26740D01*
X157905D01*
Y27740D01*
X156905Y28740D01*
X157905Y29740D01*
Y30740D01*
X156905D01*
X155905Y29740D01*
X154905Y30740D01*
X153905D01*
Y29740D01*
X154905Y28740D01*
X153905Y27740D01*
Y26740D01*
X201851Y166534D02*
X202851D01*
X203851Y167534D01*
X204851Y166534D01*
X205851D01*
Y167534D01*
X204851Y168534D01*
X205851Y169534D01*
Y170534D01*
X204851D01*
X203851Y169534D01*
X202851Y170534D01*
X201851D01*
Y169534D01*
X202851Y168534D01*
X201851Y167534D01*
Y166534D01*
X187764Y145638D02*
X188764D01*
X189764Y146638D01*
X190764Y145638D01*
X191764D01*
Y146638D01*
X190764Y147638D01*
X191764Y148638D01*
Y149638D01*
X190764D01*
X189764Y148638D01*
X188764Y149638D01*
X187764D01*
Y148638D01*
X188764Y147638D01*
X187764Y146638D01*
Y145638D01*
X127921Y54299D02*
X128921D01*
X129921Y55299D01*
X130921Y54299D01*
X131921D01*
Y55299D01*
X130921Y56299D01*
X131921Y57299D01*
Y58299D01*
X130921D01*
X129921Y57299D01*
X128921Y58299D01*
X127921D01*
Y57299D01*
X128921Y56299D01*
X127921Y55299D01*
Y54299D01*
X232252Y184614D02*
X233252D01*
X234252Y185614D01*
X235252Y184614D01*
X236252D01*
Y185614D01*
X235252Y186614D01*
X236252Y187614D01*
Y188614D01*
X235252D01*
X234252Y187614D01*
X233252Y188614D01*
X232252D01*
Y187614D01*
X233252Y186614D01*
X232252Y185614D01*
Y184614D01*
X232055Y112370D02*
X233055D01*
X234055Y113370D01*
X235055Y112370D01*
X236055D01*
Y113370D01*
X235055Y114370D01*
X236055Y115370D01*
Y116370D01*
X235055D01*
X234055Y115370D01*
X233055Y116370D01*
X232055D01*
Y115370D01*
X233055Y114370D01*
X232055Y113370D01*
Y112370D01*
X311189Y64142D02*
X312189D01*
X313189Y65142D01*
X314189Y64142D01*
X315189D01*
Y65142D01*
X314189Y66142D01*
X315189Y67142D01*
Y68142D01*
X314189D01*
X313189Y67142D01*
X312189Y68142D01*
X311189D01*
Y67142D01*
X312189Y66142D01*
X311189Y65142D01*
Y64142D01*
X88059Y122666D02*
X89059D01*
X90059Y123666D01*
X91059Y122666D01*
X92059D01*
Y123666D01*
X91059Y124666D01*
X92059Y125666D01*
Y126666D01*
X91059D01*
X90059Y125666D01*
X89059Y126666D01*
X88059D01*
Y125666D01*
X89059Y124666D01*
X88059Y123666D01*
Y122666D01*
X215063Y136083D02*
X216063D01*
X217063Y137083D01*
X218063Y136083D01*
X219063D01*
Y137083D01*
X218063Y138083D01*
X219063Y139083D01*
Y140083D01*
X218063D01*
X217063Y139083D01*
X216063Y140083D01*
X215063D01*
Y139083D01*
X216063Y138083D01*
X215063Y137083D01*
Y136083D01*
X153905Y162567D02*
X154905D01*
X155905Y163567D01*
X156905Y162567D01*
X157905D01*
Y163567D01*
X156905Y164567D01*
X157905Y165567D01*
Y166567D01*
X156905D01*
X155905Y165567D01*
X154905Y166567D01*
X153905D01*
Y165567D01*
X154905Y164567D01*
X153905Y163567D01*
Y162567D01*
X159024Y133433D02*
X160024D01*
X161024Y134433D01*
X162024Y133433D01*
X163024D01*
Y134433D01*
X162024Y135433D01*
X163024Y136433D01*
Y137433D01*
X162024D01*
X161024Y136433D01*
X160024Y137433D01*
X159024D01*
Y136433D01*
X160024Y135433D01*
X159024Y134433D01*
Y133433D01*
X177134Y149181D02*
X178134D01*
X179134Y150181D01*
X180134Y149181D01*
X181134D01*
Y150181D01*
X180134Y151181D01*
X181134Y152181D01*
Y153181D01*
X180134D01*
X179134Y152181D01*
X178134Y153181D01*
X177134D01*
Y152181D01*
X178134Y151181D01*
X177134Y150181D01*
Y149181D01*
X180677Y51150D02*
X181677D01*
X182677Y52150D01*
X183677Y51150D01*
X184677D01*
Y52150D01*
X183677Y53150D01*
X184677Y54150D01*
Y55150D01*
X183677D01*
X182677Y54150D01*
X181677Y55150D01*
X180677D01*
Y54150D01*
X181677Y53150D01*
X180677Y52150D01*
Y51150D01*
X228709Y166898D02*
X229709D01*
X230709Y167898D01*
X231709Y166898D01*
X232709D01*
Y167898D01*
X231709Y168898D01*
X232709Y169898D01*
Y170898D01*
X231709D01*
X230709Y169898D01*
X229709Y170898D01*
X228709D01*
Y169898D01*
X229709Y168898D01*
X228709Y167898D01*
Y166898D01*
X242882Y127724D02*
X243882D01*
X244882Y128724D01*
X245882Y127724D01*
X246882D01*
Y128724D01*
X245882Y129724D01*
X246882Y130724D01*
Y131724D01*
X245882D01*
X244882Y130724D01*
X243882Y131724D01*
X242882D01*
Y130724D01*
X243882Y129724D01*
X242882Y128724D01*
Y127724D01*
X86484Y-228D02*
X87484D01*
X88484Y772D01*
X89484Y-228D01*
X90484D01*
Y772D01*
X89484Y1772D01*
X90484Y2772D01*
Y3772D01*
X89484D01*
X88484Y2772D01*
X87484Y3772D01*
X86484D01*
Y2772D01*
X87484Y1772D01*
X86484Y772D01*
Y-228D01*
X-228Y102331D02*
X772D01*
X1772Y103331D01*
X2772Y102331D01*
X3772D01*
Y103331D01*
X2772Y104331D01*
X3772Y105331D01*
Y106331D01*
X2772D01*
X1772Y105331D01*
X772Y106331D01*
X-228D01*
Y105331D01*
X772Y104331D01*
X-228Y103331D01*
Y102331D01*
X222902Y132449D02*
X223902D01*
X224902Y133449D01*
X225902Y132449D01*
X226902D01*
Y133449D01*
X225902Y134449D01*
X226902Y135449D01*
Y136449D01*
X225902D01*
X224902Y135449D01*
X223902Y136449D01*
X222902D01*
Y135449D01*
X223902Y134449D01*
X222902Y133449D01*
Y132449D01*
X170047Y159811D02*
X171047D01*
X172047Y160811D01*
X173047Y159811D01*
X174047D01*
Y160811D01*
X173047Y161811D01*
X174047Y162811D01*
Y163811D01*
X173047D01*
X172047Y162811D01*
X171047Y163811D01*
X170047D01*
Y162811D01*
X171047Y161811D01*
X170047Y160811D01*
Y159811D01*
X163006Y44064D02*
X164006D01*
X165006Y45064D01*
X166007Y44064D01*
X167007D01*
Y45064D01*
X166007Y46064D01*
X167007Y47064D01*
Y48064D01*
X166007D01*
X165006Y47064D01*
X164006Y48064D01*
X163006D01*
Y47064D01*
X164006Y46064D01*
X163006Y45064D01*
Y44064D01*
X187764Y163354D02*
X188764D01*
X189764Y164354D01*
X190764Y163354D01*
X191764D01*
Y164354D01*
X190764Y165354D01*
X191764Y166354D01*
Y167354D01*
X190764D01*
X189764Y166354D01*
X188764Y167354D01*
X187764D01*
Y166354D01*
X188764Y165354D01*
X187764Y164354D01*
Y163354D01*
X180677Y79496D02*
X181677D01*
X182677Y80496D01*
X183677Y79496D01*
X184677D01*
Y80496D01*
X183677Y81496D01*
X184677Y82496D01*
Y83496D01*
X183677D01*
X182677Y82496D01*
X181677Y83496D01*
X180677D01*
Y82496D01*
X181677Y81496D01*
X180677Y80496D01*
Y79496D01*
X228709Y177527D02*
X229709D01*
X230709Y178527D01*
X231709Y177527D01*
X232709D01*
Y178527D01*
X231709Y179527D01*
X232709Y180527D01*
Y181527D01*
X231709D01*
X230709Y180527D01*
X229709Y181527D01*
X228709D01*
Y180527D01*
X229709Y179527D01*
X228709Y178527D01*
Y177527D01*
X238945Y27429D02*
X239945D01*
X240945Y28429D01*
X241945Y27429D01*
X242945D01*
Y28429D01*
X241945Y29429D01*
X242945Y30429D01*
Y31429D01*
X241945D01*
X240945Y30429D01*
X239945Y31429D01*
X238945D01*
Y30429D01*
X239945Y29429D01*
X238945Y28429D01*
Y27429D01*
X165913Y-228D02*
X166913D01*
X167913Y772D01*
X168913Y-228D01*
X169913D01*
Y772D01*
X168913Y1772D01*
X169913Y2772D01*
Y3772D01*
X168913D01*
X167913Y2772D01*
X166913Y3772D01*
X165913D01*
Y2772D01*
X166913Y1772D01*
X165913Y772D01*
Y-228D01*
X46031Y191110D02*
X47032D01*
X48031Y192110D01*
X49031Y191110D01*
X50032D01*
Y192110D01*
X49031Y193110D01*
X50032Y194110D01*
Y195110D01*
X49031D01*
X48031Y194110D01*
X47032Y195110D01*
X46031D01*
Y194110D01*
X47032Y193110D01*
X46031Y192110D01*
Y191110D01*
X95970Y172372D02*
X96970D01*
X97970Y173372D01*
X98971Y172372D01*
X99971D01*
Y173372D01*
X98971Y174372D01*
X99971Y175372D01*
Y176372D01*
X98971D01*
X97970Y175372D01*
X96970Y176372D01*
X95970D01*
Y175372D01*
X96970Y174372D01*
X95970Y173372D01*
Y172372D01*
X112173Y119653D02*
X113173D01*
X114173Y120653D01*
X115173Y119653D01*
X116173D01*
Y120653D01*
X115173Y121653D01*
X116173Y122653D01*
Y123653D01*
X115173D01*
X114173Y122653D01*
X113173Y123653D01*
X112173D01*
Y122653D01*
X113173Y121653D01*
X112173Y120653D01*
Y119653D01*
X210479Y112557D02*
X211479D01*
X212479Y113557D01*
X213479Y112557D01*
X214479D01*
Y113557D01*
X213479Y114557D01*
X214479Y115557D01*
Y116557D01*
X213479D01*
X212479Y115557D01*
X211479Y116557D01*
X210479D01*
Y115557D01*
X211479Y114557D01*
X210479Y113557D01*
Y112557D01*
X159024Y56858D02*
X160024D01*
X161024Y57858D01*
X162024Y56858D01*
X163024D01*
Y57858D01*
X162024Y58858D01*
X163024Y59858D01*
Y60858D01*
X162024D01*
X161024Y59858D01*
X160024Y60858D01*
X159024D01*
Y59858D01*
X160024Y58858D01*
X159024Y57858D01*
Y56858D01*
X99870Y106858D02*
X100870D01*
X101870Y107858D01*
X102870Y106858D01*
X103870D01*
Y107858D01*
X102870Y108858D01*
X103870Y109858D01*
Y110858D01*
X102870D01*
X101870Y109858D01*
X100870Y110858D01*
X99870D01*
Y109858D01*
X100870Y108858D01*
X99870Y107858D01*
Y106858D01*
X184221Y35795D02*
X185221D01*
X186221Y36795D01*
X187221Y35795D01*
X188221D01*
Y36795D01*
X187221Y37795D01*
X188221Y38795D01*
Y39795D01*
X187221D01*
X186221Y38795D01*
X185221Y39795D01*
X184221D01*
Y38795D01*
X185221Y37795D01*
X184221Y36795D01*
Y35795D01*
X173591Y86583D02*
X174591D01*
X175591Y87583D01*
X176591Y86583D01*
X177591D01*
Y87583D01*
X176591Y88583D01*
X177591Y89583D01*
Y90583D01*
X176591D01*
X175591Y89583D01*
X174591Y90583D01*
X173591D01*
Y89583D01*
X174591Y88583D01*
X173591Y87583D01*
Y86583D01*
X201150Y112567D02*
X202150D01*
X203150Y113567D01*
X204150Y112567D01*
X205150D01*
Y113567D01*
X204150Y114567D01*
X205150Y115567D01*
Y116567D01*
X204150D01*
X203150Y115567D01*
X202150Y116567D01*
X201150D01*
Y115567D01*
X202150Y114567D01*
X201150Y113567D01*
Y112567D01*
X219457Y142783D02*
X220457D01*
X221457Y143783D01*
X222457Y142783D01*
X223457D01*
Y143783D01*
X222457Y144783D01*
X223457Y145783D01*
Y146783D01*
X222457D01*
X221457Y145783D01*
X220457Y146783D01*
X219457D01*
Y145783D01*
X220457Y144783D01*
X219457Y143783D01*
Y142783D01*
X260697Y-228D02*
X261697D01*
X262697Y772D01*
X263697Y-228D01*
X264697D01*
Y772D01*
X263697Y1772D01*
X264697Y2772D01*
Y3772D01*
X263697D01*
X262697Y2772D01*
X261697Y3772D01*
X260697D01*
Y2772D01*
X261697Y1772D01*
X260697Y772D01*
Y-228D01*
X219850Y193079D02*
X220850D01*
X221850Y194079D01*
X222850Y193079D01*
X223850D01*
Y194079D01*
X222850Y195079D01*
X223850Y196079D01*
Y197079D01*
X222850D01*
X221850Y196079D01*
X220850Y197079D01*
X219850D01*
Y196079D01*
X220850Y195079D01*
X219850Y194079D01*
Y193079D01*
X142948Y82826D02*
X143948D01*
X144948Y83826D01*
X145948Y82826D01*
X146948D01*
Y83826D01*
X145948Y84826D01*
X146948Y85826D01*
Y86826D01*
X145948D01*
X144948Y85826D01*
X143948Y86826D01*
X142948D01*
Y85826D01*
X143948Y84826D01*
X142948Y83826D01*
Y82826D01*
X117980Y106169D02*
X118980D01*
X119980Y107169D01*
X120980Y106169D01*
X121980D01*
Y107169D01*
X120980Y108169D01*
X121980Y109169D01*
Y110169D01*
X120980D01*
X119980Y109169D01*
X118980Y110169D01*
X117980D01*
Y109169D01*
X118980Y108169D01*
X117980Y107169D01*
Y106169D01*
X237370Y65323D02*
X238370D01*
X239370Y66323D01*
X240370Y65323D01*
X241370D01*
Y66323D01*
X240370Y67323D01*
X241370Y68323D01*
Y69323D01*
X240370D01*
X239370Y68323D01*
X238370Y69323D01*
X237370D01*
Y68323D01*
X238370Y67323D01*
X237370Y66323D01*
Y65323D01*
X56169Y145047D02*
X57169D01*
X58169Y146047D01*
X59169Y145047D01*
X60169D01*
Y146047D01*
X59169Y147047D01*
X60169Y148047D01*
Y149047D01*
X59169D01*
X58169Y148047D01*
X57169Y149047D01*
X56169D01*
Y148047D01*
X57169Y147047D01*
X56169Y146047D01*
Y145047D01*
X173591Y36976D02*
X174591D01*
X175591Y37976D01*
X176591Y36976D01*
X177591D01*
Y37976D01*
X176591Y38976D01*
X177591Y39976D01*
Y40976D01*
X176591D01*
X175591Y39976D01*
X174591Y40976D01*
X173591D01*
Y39976D01*
X174591Y38976D01*
X173591Y37976D01*
Y36976D01*
X180677Y93669D02*
X181677D01*
X182677Y94669D01*
X183677Y93669D01*
X184677D01*
Y94669D01*
X183677Y95669D01*
X184677Y96669D01*
Y97669D01*
X183677D01*
X182677Y96669D01*
X181677Y97669D01*
X180677D01*
Y96669D01*
X181677Y95669D01*
X180677Y94669D01*
Y93669D01*
X127921Y57842D02*
X128921D01*
X129921Y58842D01*
X130921Y57842D01*
X131921D01*
Y58842D01*
X130921Y59842D01*
X131921Y60843D01*
Y61843D01*
X130921D01*
X129921Y60843D01*
X128921Y61843D01*
X127921D01*
Y60843D01*
X128921Y59842D01*
X127921Y58842D01*
Y57842D01*
X222803Y52232D02*
X223803D01*
X224803Y53232D01*
X225803Y52232D01*
X226803D01*
Y53232D01*
X225803Y54232D01*
X226803Y55232D01*
Y56232D01*
X225803D01*
X224803Y55232D01*
X223803Y56232D01*
X222803D01*
Y55232D01*
X223803Y54232D01*
X222803Y53232D01*
Y52232D01*
X272410Y111583D02*
X273410D01*
X274410Y112583D01*
X275410Y111583D01*
X276410D01*
Y112583D01*
X275410Y113583D01*
X276410Y114583D01*
Y115583D01*
X275410D01*
X274410Y114583D01*
X273410Y115583D01*
X272410D01*
Y114583D01*
X273410Y113583D01*
X272410Y112583D01*
Y111583D01*
X131858Y193079D02*
X132858D01*
X133858Y194079D01*
X134858Y193079D01*
X135858D01*
Y194079D01*
X134858Y195079D01*
X135858Y196079D01*
Y197079D01*
X134858D01*
X133858Y196079D01*
X132858Y197079D01*
X131858D01*
Y196079D01*
X132858Y195079D01*
X131858Y194079D01*
Y193079D01*
X242094Y151642D02*
X243094D01*
X244094Y152642D01*
X245094Y151642D01*
X246094D01*
Y152642D01*
X245094Y153642D01*
X246094Y154642D01*
Y155642D01*
X245094D01*
X244094Y154642D01*
X243094Y155642D01*
X242094D01*
Y154642D01*
X243094Y153642D01*
X242094Y152642D01*
Y151642D01*
X121622Y116760D02*
X122622D01*
X123622Y117760D01*
X124622Y116760D01*
X125622D01*
Y117760D01*
X124622Y118760D01*
X125622Y119760D01*
Y120760D01*
X124622D01*
X123622Y119760D01*
X122622Y120760D01*
X121622D01*
Y119760D01*
X122622Y118760D01*
X121622Y117760D01*
Y116760D01*
X298394Y90913D02*
X299394D01*
X300394Y91913D01*
X301394Y90913D01*
X302394D01*
Y91913D01*
X301394Y92913D01*
X302394Y93913D01*
Y94913D01*
X301394D01*
X300394Y93913D01*
X299394Y94913D01*
X298394D01*
Y93913D01*
X299394Y92913D01*
X298394Y91913D01*
Y90913D01*
X85697Y153709D02*
X86697D01*
X87697Y154709D01*
X88697Y153709D01*
X89697D01*
Y154709D01*
X88697Y155709D01*
X89697Y156709D01*
Y157709D01*
X88697D01*
X87697Y156709D01*
X86697Y157709D01*
X85697D01*
Y156709D01*
X86697Y155709D01*
X85697Y154709D01*
Y153709D01*
X148689Y93472D02*
X149689D01*
X150689Y94472D01*
X151689Y93472D01*
X152689D01*
Y94472D01*
X151689Y95472D01*
X152689Y96472D01*
Y97472D01*
X151689D01*
X150689Y96472D01*
X149689Y97472D01*
X148689D01*
Y96472D01*
X149689Y95472D01*
X148689Y94472D01*
Y93472D01*
X183039Y24772D02*
X184039D01*
X185039Y25772D01*
X186039Y24772D01*
X187039D01*
Y25772D01*
X186039Y26772D01*
X187039Y27772D01*
Y28772D01*
X186039D01*
X185039Y27772D01*
X184039Y28772D01*
X183039D01*
Y27772D01*
X184039Y26772D01*
X183039Y25772D01*
Y24772D01*
X142095Y50756D02*
X143095D01*
X144095Y51756D01*
X145095Y50756D01*
X146095D01*
Y51756D01*
X145095Y52756D01*
X146095Y53756D01*
Y54756D01*
X145095D01*
X144095Y53756D01*
X143095Y54756D01*
X142095D01*
Y53756D01*
X143095Y52756D01*
X142095Y51756D01*
Y50756D01*
X285795Y69752D02*
X286795D01*
X287795Y70752D01*
X288795Y69752D01*
X289795D01*
Y70752D01*
X288795Y71752D01*
X289795Y72752D01*
Y73752D01*
X288795D01*
X287795Y72752D01*
X286795Y73752D01*
X285795D01*
Y72752D01*
X286795Y71752D01*
X285795Y70752D01*
Y69752D01*
X243374Y115913D02*
X244374D01*
X245374Y116913D01*
X246374Y115913D01*
X247374D01*
Y116913D01*
X246374Y117913D01*
X247374Y118913D01*
Y119913D01*
X246374D01*
X245374Y118913D01*
X244374Y119913D01*
X243374D01*
Y118913D01*
X244374Y117913D01*
X243374Y116913D01*
Y115913D01*
X54201Y193079D02*
X55201D01*
X56201Y194079D01*
X57201Y193079D01*
X58201D01*
Y194079D01*
X57201Y195079D01*
X58201Y196079D01*
Y197079D01*
X57201D01*
X56201Y196079D01*
X55201Y197079D01*
X54201D01*
Y196079D01*
X55201Y195079D01*
X54201Y194079D01*
Y193079D01*
X208236Y112567D02*
X209236D01*
X210236Y113567D01*
X211236Y112567D01*
X212236D01*
Y113567D01*
X211236Y114567D01*
X212236Y115567D01*
Y116567D01*
X211236D01*
X210236Y115567D01*
X209236Y116567D01*
X208236D01*
Y115567D01*
X209236Y114567D01*
X208236Y113567D01*
Y112567D01*
X97508Y156563D02*
X98508D01*
X99508Y157563D01*
X100508Y156563D01*
X101508D01*
Y157563D01*
X100508Y158563D01*
X101508Y159563D01*
Y160563D01*
X100508D01*
X99508Y159563D01*
X98508Y160563D01*
X97508D01*
Y159563D01*
X98508Y158563D01*
X97508Y157563D01*
Y156563D01*
X130283Y114339D02*
X131283D01*
X132283Y115339D01*
X133283Y114339D01*
X134283D01*
Y115339D01*
X133283Y116339D01*
X134283Y117339D01*
Y118339D01*
X133283D01*
X132283Y117339D01*
X131283Y118339D01*
X130283D01*
Y117339D01*
X131283Y116339D01*
X130283Y115339D01*
Y114339D01*
X131366Y163945D02*
X132366D01*
X133366Y164945D01*
X134366Y163945D01*
X135366D01*
Y164945D01*
X134366Y165945D01*
X135366Y166945D01*
Y167945D01*
X134366D01*
X133366Y166945D01*
X132366Y167945D01*
X131366D01*
Y166945D01*
X132366Y165945D01*
X131366Y164945D01*
Y163945D01*
X191307Y166898D02*
X192307D01*
X193307Y167898D01*
X194307Y166898D01*
X195307D01*
Y167898D01*
X194307Y168898D01*
X195307Y169898D01*
Y170898D01*
X194307D01*
X193307Y169898D01*
X192307Y170898D01*
X191307D01*
Y169898D01*
X192307Y168898D01*
X191307Y167898D01*
Y166898D01*
X135008Y35795D02*
X136008D01*
X137008Y36795D01*
X138008Y35795D01*
X139008D01*
Y36795D01*
X138008Y37795D01*
X139008Y38795D01*
Y39795D01*
X138008D01*
X137008Y38795D01*
X136008Y39795D01*
X135008D01*
Y38795D01*
X136008Y37795D01*
X135008Y36795D01*
Y35795D01*
X131465Y54299D02*
X132465D01*
X133465Y55299D01*
X134465Y54299D01*
X135465D01*
Y55299D01*
X134465Y56299D01*
X135465Y57299D01*
Y58299D01*
X134465D01*
X133465Y57299D01*
X132465Y58299D01*
X131465D01*
Y57299D01*
X132465Y56299D01*
X131465Y55299D01*
Y54299D01*
X283728Y82941D02*
X284728D01*
X285728Y83941D01*
X286728Y82941D01*
X287728D01*
Y83941D01*
X286728Y84941D01*
X287728Y85941D01*
Y86941D01*
X286728D01*
X285728Y85941D01*
X284728Y86941D01*
X283728D01*
Y85941D01*
X284728Y84941D01*
X283728Y83941D01*
Y82941D01*
X311189Y167291D02*
X312189D01*
X313189Y168291D01*
X314189Y167291D01*
X315189D01*
Y168291D01*
X314189Y169291D01*
X315189Y170291D01*
Y171291D01*
X314189D01*
X313189Y170291D01*
X312189Y171291D01*
X311189D01*
Y170291D01*
X312189Y169291D01*
X311189Y168291D01*
Y167291D01*
X229594Y129595D02*
X230594D01*
X231594Y130595D01*
X232594Y129595D01*
X233594D01*
Y130595D01*
X232594Y131595D01*
X233594Y132595D01*
Y133595D01*
X232594D01*
X231594Y132595D01*
X230594Y133595D01*
X229594D01*
Y132595D01*
X230594Y131595D01*
X229594Y130595D01*
Y129595D01*
X208236Y119653D02*
X209236D01*
X210236Y120653D01*
X211236Y119653D01*
X212236D01*
Y120653D01*
X211236Y121653D01*
X212236Y122653D01*
Y123653D01*
X211236D01*
X210236Y122653D01*
X209236Y123653D01*
X208236D01*
Y122653D01*
X209236Y121653D01*
X208236Y120653D01*
Y119653D01*
X211779Y119556D02*
X212779D01*
X213779Y120556D01*
X214779Y119556D01*
X215779D01*
Y120556D01*
X214779Y121556D01*
X215779Y122556D01*
Y123556D01*
X214779D01*
X213779Y122556D01*
X212779Y123556D01*
X211779D01*
Y122556D01*
X212779Y121556D01*
X211779Y120556D01*
Y119556D01*
X157449Y26740D02*
X158449D01*
X159449Y27740D01*
X160449Y26740D01*
X161449D01*
Y27740D01*
X160449Y28740D01*
X161449Y29740D01*
Y30740D01*
X160449D01*
X159449Y29740D01*
X158449Y30740D01*
X157449D01*
Y29740D01*
X158449Y28740D01*
X157449Y27740D01*
Y26740D01*
X202094Y52001D02*
X203094D01*
X204094Y53001D01*
X205094Y52001D01*
X206094D01*
Y53001D01*
X205094Y54001D01*
X206094Y55001D01*
Y56001D01*
X205094D01*
X204094Y55001D01*
X203094Y56001D01*
X202094D01*
Y55001D01*
X203094Y54001D01*
X202094Y53001D01*
Y52001D01*
X173591Y166898D02*
X174591D01*
X175591Y167898D01*
X176591Y166898D01*
X177591D01*
Y167898D01*
X176591Y168898D01*
X177591Y169898D01*
Y170898D01*
X176591D01*
X175591Y169898D01*
X174591Y170898D01*
X173591D01*
Y169898D01*
X174591Y168898D01*
X173591Y167898D01*
Y166898D01*
X142095Y32252D02*
X143095D01*
X144095Y33252D01*
X145095Y32252D01*
X146095D01*
Y33252D01*
X145095Y34252D01*
X146095Y35252D01*
Y36252D01*
X145095D01*
X144095Y35252D01*
X143095Y36252D01*
X142095D01*
Y35252D01*
X143095Y34252D01*
X142095Y33252D01*
Y32252D01*
X232252Y181071D02*
X233252D01*
X234252Y182071D01*
X235252Y181071D01*
X236252D01*
Y182071D01*
X235252Y183071D01*
X236252Y184071D01*
Y185071D01*
X235252D01*
X234252Y184071D01*
X233252Y185071D01*
X232252D01*
Y184071D01*
X233252Y183071D01*
X232252Y182071D01*
Y181071D01*
X219457Y86779D02*
X220457D01*
X221457Y87779D01*
X222457Y86779D01*
X223457D01*
Y87779D01*
X222457Y88779D01*
X223457Y89780D01*
Y90780D01*
X222457D01*
X221457Y89780D01*
X220457Y90780D01*
X219457D01*
Y89780D01*
X220457Y88779D01*
X219457Y87779D01*
Y86779D01*
X311189Y77035D02*
X312189D01*
X313189Y78035D01*
X314189Y77035D01*
X315189D01*
Y78035D01*
X314189Y79035D01*
X315189Y80035D01*
Y81035D01*
X314189D01*
X313189Y80035D01*
X312189Y81035D01*
X311189D01*
Y80035D01*
X312189Y79035D01*
X311189Y78035D01*
Y77035D01*
X147197Y125094D02*
X148197D01*
X149197Y126094D01*
X150197Y125094D01*
X151197D01*
Y126094D01*
X150197Y127094D01*
X151197Y128094D01*
Y129094D01*
X150197D01*
X149197Y128094D01*
X148197Y129094D01*
X147197D01*
Y128094D01*
X148197Y127094D01*
X147197Y126094D01*
Y125094D01*
X94850Y80776D02*
X95850D01*
X96850Y81776D01*
X97850Y80776D01*
X98850D01*
Y81776D01*
X97850Y82776D01*
X98850Y83776D01*
Y84776D01*
X97850D01*
X96850Y83776D01*
X95850Y84776D01*
X94850D01*
Y83776D01*
X95850Y82776D01*
X94850Y81776D01*
Y80776D01*
X157449Y162567D02*
X158449D01*
X159449Y163567D01*
X160449Y162567D01*
X161449D01*
Y163567D01*
X160449Y164567D01*
X161449Y165567D01*
Y166567D01*
X160449D01*
X159449Y165567D01*
X158449Y166567D01*
X157449D01*
Y165567D01*
X158449Y164567D01*
X157449Y163567D01*
Y162567D01*
X159024Y136976D02*
X160024D01*
X161024Y137976D01*
X162024Y136976D01*
X163024D01*
Y137976D01*
X162024Y138976D01*
X163024Y139976D01*
Y140976D01*
X162024D01*
X161024Y139976D01*
X160024Y140976D01*
X159024D01*
Y139976D01*
X160024Y138976D01*
X159024Y137976D01*
Y136976D01*
X157350Y82449D02*
X158350D01*
X159350Y83449D01*
X160350Y82449D01*
X161350D01*
Y83449D01*
X160350Y84449D01*
X161350Y85449D01*
Y86449D01*
X160350D01*
X159350Y85449D01*
X158350Y86449D01*
X157350D01*
Y85449D01*
X158350Y84449D01*
X157350Y83449D01*
Y82449D01*
X177134Y152724D02*
X178134D01*
X179134Y153724D01*
X180134Y152724D01*
X181134D01*
Y153724D01*
X180134Y154724D01*
X181134Y155724D01*
Y156724D01*
X180134D01*
X179134Y155724D01*
X178134Y156724D01*
X177134D01*
Y155724D01*
X178134Y154724D01*
X177134Y153724D01*
Y152724D01*
Y51150D02*
X178134D01*
X179134Y52150D01*
X180134Y51150D01*
X181134D01*
Y52150D01*
X180134Y53150D01*
X181134Y54150D01*
Y55150D01*
X180134D01*
X179134Y54150D01*
X178134Y55150D01*
X177134D01*
Y54150D01*
X178134Y53150D01*
X177134Y52150D01*
Y51150D01*
X225165Y166898D02*
X226165D01*
X227165Y167898D01*
X228165Y166898D01*
X229165D01*
Y167898D01*
X228165Y168898D01*
X229165Y169898D01*
Y170898D01*
X228165D01*
X227165Y169898D01*
X226165Y170898D01*
X225165D01*
Y169898D01*
X226165Y168898D01*
X225165Y167898D01*
Y166898D01*
X232055Y138256D02*
X233055D01*
X234055Y139256D01*
X235055Y138256D01*
X236055D01*
Y139256D01*
X235055Y140256D01*
X236055Y141256D01*
Y142256D01*
X235055D01*
X234055Y141256D01*
X233055Y142256D01*
X232055D01*
Y141256D01*
X233055Y140256D01*
X232055Y139256D01*
Y138256D01*
X77921Y-228D02*
X78921D01*
X79921Y772D01*
X80921Y-228D01*
X81921D01*
Y772D01*
X80921Y1772D01*
X81921Y2772D01*
Y3772D01*
X80921D01*
X79921Y2772D01*
X78921Y3772D01*
X77921D01*
Y2772D01*
X78921Y1772D01*
X77921Y772D01*
Y-228D01*
X-228Y92094D02*
X772D01*
X1772Y93094D01*
X2772Y92094D01*
X3772D01*
Y93094D01*
X2772Y94095D01*
X3772Y95095D01*
Y96095D01*
X2772D01*
X1772Y95095D01*
X772Y96095D01*
X-228D01*
Y95095D01*
X772Y94095D01*
X-228Y93094D01*
Y92094D01*
X232350Y129595D02*
X233350D01*
X234350Y130595D01*
X235350Y129595D01*
X236350D01*
Y130595D01*
X235350Y131595D01*
X236350Y132595D01*
Y133595D01*
X235350D01*
X234350Y132595D01*
X233350Y133595D01*
X232350D01*
Y132595D01*
X233350Y131595D01*
X232350Y130595D01*
Y129595D01*
X170047Y163354D02*
X171047D01*
X172047Y164354D01*
X173047Y163354D01*
X174047D01*
Y164354D01*
X173047Y165354D01*
X174047Y166354D01*
Y167354D01*
X173047D01*
X172047Y166354D01*
X171047Y167354D01*
X170047D01*
Y166354D01*
X171047Y165354D01*
X170047Y164354D01*
Y163354D01*
X163006Y55087D02*
X164006D01*
X165006Y56087D01*
X166007Y55087D01*
X167007D01*
Y56087D01*
X166007Y57087D01*
X167007Y58087D01*
Y59087D01*
X166007D01*
X165006Y58087D01*
X164006Y59087D01*
X163006D01*
Y58087D01*
X164006Y57087D01*
X163006Y56087D01*
Y55087D01*
X180677Y163354D02*
X181677D01*
X182677Y164354D01*
X183677Y163354D01*
X184677D01*
Y164354D01*
X183677Y165354D01*
X184677Y166354D01*
Y167354D01*
X183677D01*
X182677Y166354D01*
X181677Y167354D01*
X180677D01*
Y166354D01*
X181677Y165354D01*
X180677Y164354D01*
Y163354D01*
X177134Y79496D02*
X178134D01*
X179134Y80496D01*
X180134Y79496D01*
X181134D01*
Y80496D01*
X180134Y81496D01*
X181134Y82496D01*
Y83496D01*
X180134D01*
X179134Y82496D01*
X178134Y83496D01*
X177134D01*
Y82496D01*
X178134Y81496D01*
X177134Y80496D01*
Y79496D01*
X221622Y177527D02*
X222622D01*
X223622Y178527D01*
X224622Y177527D01*
X225622D01*
Y178527D01*
X224622Y179527D01*
X225622Y180527D01*
Y181527D01*
X224622D01*
X223622Y180527D01*
X222622Y181527D01*
X221622D01*
Y180527D01*
X222622Y179527D01*
X221622Y178527D01*
Y177527D01*
X236779Y27429D02*
X237779D01*
X238779Y28429D01*
X239779Y27429D01*
X240779D01*
Y28429D01*
X239779Y29429D01*
X240779Y30429D01*
Y31429D01*
X239779D01*
X238779Y30429D01*
X237779Y31429D01*
X236779D01*
Y30429D01*
X237779Y29429D01*
X236779Y28429D01*
Y27429D01*
X157252Y-228D02*
X158252D01*
X159252Y772D01*
X160252Y-228D01*
X161252D01*
Y772D01*
X160252Y1772D01*
X161252Y2772D01*
Y3772D01*
X160252D01*
X159252Y2772D01*
X158252Y3772D01*
X157252D01*
Y2772D01*
X158252Y1772D01*
X157252Y772D01*
Y-228D01*
X1543Y185894D02*
X2543D01*
X3543Y186894D01*
X4543Y185894D01*
X5543D01*
Y186894D01*
X4543Y187894D01*
X5543Y188894D01*
Y189894D01*
X4543D01*
X3543Y188894D01*
X2543Y189894D01*
X1543D01*
Y188894D01*
X2543Y187894D01*
X1543Y186894D01*
Y185894D01*
X107585Y172569D02*
X108585D01*
X109585Y173569D01*
X110585Y172569D01*
X111585D01*
Y173569D01*
X110585Y174569D01*
X111585Y175569D01*
Y176569D01*
X110585D01*
X109585Y175569D01*
X108585Y176569D01*
X107585D01*
Y175569D01*
X108585Y174569D01*
X107585Y173569D01*
Y172569D01*
X209221Y32744D02*
X210221D01*
X211221Y33744D01*
X212221Y32744D01*
X213221D01*
Y33744D01*
X212221Y34744D01*
X213221Y35744D01*
Y36744D01*
X212221D01*
X211221Y35744D01*
X210221Y36744D01*
X209221D01*
Y35744D01*
X210221Y34744D01*
X209221Y33744D01*
Y32744D01*
X210579Y116156D02*
X211579D01*
X212579Y117157D01*
X213580Y116156D01*
X214580D01*
Y117157D01*
X213580Y118157D01*
X214580Y119157D01*
Y120157D01*
X213580D01*
X212579Y119157D01*
X211579Y120157D01*
X210579D01*
Y119157D01*
X211579Y118157D01*
X210579Y117157D01*
Y116156D01*
X170047Y156268D02*
X171047D01*
X172047Y157268D01*
X173047Y156268D01*
X174047D01*
Y157268D01*
X173047Y158268D01*
X174047Y159268D01*
Y160268D01*
X173047D01*
X172047Y159268D01*
X171047Y160268D01*
X170047D01*
Y159268D01*
X171047Y158268D01*
X170047Y157268D01*
Y156268D01*
X92783Y112764D02*
X93783D01*
X94784Y113764D01*
X95784Y112764D01*
X96784D01*
Y113764D01*
X95784Y114764D01*
X96784Y115764D01*
Y116764D01*
X95784D01*
X94784Y115764D01*
X93783Y116764D01*
X92783D01*
Y115764D01*
X93783Y114764D01*
X92783Y113764D01*
Y112764D01*
X187764Y35795D02*
X188764D01*
X189764Y36795D01*
X190764Y35795D01*
X191764D01*
Y36795D01*
X190764Y37795D01*
X191764Y38795D01*
Y39795D01*
X190764D01*
X189764Y38795D01*
X188764Y39795D01*
X187764D01*
Y38795D01*
X188764Y37795D01*
X187764Y36795D01*
Y35795D01*
X173591Y90126D02*
X174591D01*
X175591Y91126D01*
X176591Y90126D01*
X177591D01*
Y91126D01*
X176591Y92126D01*
X177591Y93126D01*
Y94126D01*
X176591D01*
X175591Y93126D01*
X174591Y94126D01*
X173591D01*
Y93126D01*
X174591Y92126D01*
X173591Y91126D01*
Y90126D01*
X211779Y123197D02*
X212779D01*
X213779Y124197D01*
X214779Y123197D01*
X215779D01*
Y124197D01*
X214779Y125197D01*
X215779Y126197D01*
Y127197D01*
X214779D01*
X213779Y126197D01*
X212779Y127197D01*
X211779D01*
Y126197D01*
X212779Y125197D01*
X211779Y124197D01*
Y123197D01*
X219457Y151543D02*
X220457D01*
X221457Y152543D01*
X222457Y151543D01*
X223457D01*
Y152543D01*
X222457Y153543D01*
X223457Y154543D01*
Y155543D01*
X222457D01*
X221457Y154543D01*
X220457Y155543D01*
X219457D01*
Y154543D01*
X220457Y153543D01*
X219457Y152543D01*
Y151543D01*
X248394Y-228D02*
X249394D01*
X250394Y772D01*
X251394Y-228D01*
X252394D01*
Y772D01*
X251394Y1772D01*
X252394Y2772D01*
Y3772D01*
X251394D01*
X250394Y2772D01*
X249394Y3772D01*
X248394D01*
Y2772D01*
X249394Y1772D01*
X248394Y772D01*
Y-228D01*
X229791Y193079D02*
X230791D01*
X231791Y194079D01*
X232791Y193079D01*
X233791D01*
Y194079D01*
X232791Y195079D01*
X233791Y196079D01*
Y197079D01*
X232791D01*
X231791Y196079D01*
X230791Y197079D01*
X229791D01*
Y196079D01*
X230791Y195079D01*
X229791Y194079D01*
Y193079D01*
X140094Y82826D02*
X141094D01*
X142094Y83826D01*
X143094Y82826D01*
X144094D01*
Y83826D01*
X143094Y84826D01*
X144094Y85826D01*
Y86826D01*
X143094D01*
X142094Y85826D01*
X141094Y86826D01*
X140094D01*
Y85826D01*
X141094Y84826D01*
X140094Y83826D01*
Y82826D01*
X111386Y106169D02*
X112386D01*
X113386Y107169D01*
X114386Y106169D01*
X115386D01*
Y107169D01*
X114386Y108169D01*
X115386Y109169D01*
Y110169D01*
X114386D01*
X113386Y109169D01*
X112386Y110169D01*
X111386D01*
Y109169D01*
X112386Y108169D01*
X111386Y107169D01*
Y106169D01*
X212173Y67685D02*
X213173D01*
X214173Y68685D01*
X215173Y67685D01*
X216173D01*
Y68685D01*
X215173Y69685D01*
X216173Y70685D01*
Y71685D01*
X215173D01*
X214173Y70685D01*
X213173Y71685D01*
X212173D01*
Y70685D01*
X213173Y69685D01*
X212173Y68685D01*
Y67685D01*
X64437Y137961D02*
X65437D01*
X66437Y138961D01*
X67437Y137961D01*
X68437D01*
Y138961D01*
X67437Y139961D01*
X68437Y140961D01*
Y141961D01*
X67437D01*
X66437Y140961D01*
X65437Y141961D01*
X64437D01*
Y140961D01*
X65437Y139961D01*
X64437Y138961D01*
Y137961D01*
X180677Y36976D02*
X181677D01*
X182677Y37976D01*
X183677Y36976D01*
X184677D01*
Y37976D01*
X183677Y38976D01*
X184677Y39976D01*
Y40976D01*
X183677D01*
X182677Y39976D01*
X181677Y40976D01*
X180677D01*
Y39976D01*
X181677Y38976D01*
X180677Y37976D01*
Y36976D01*
X177134Y93669D02*
X178134D01*
X179134Y94669D01*
X180134Y93669D01*
X181134D01*
Y94669D01*
X180134Y95669D01*
X181134Y96669D01*
Y97669D01*
X180134D01*
X179134Y96669D01*
X178134Y97669D01*
X177134D01*
Y96669D01*
X178134Y95669D01*
X177134Y94669D01*
Y93669D01*
X206465Y30579D02*
X207465D01*
X208465Y31579D01*
X209465Y30579D01*
X210465D01*
Y31579D01*
X209465Y32579D01*
X210465Y33579D01*
Y34579D01*
X209465D01*
X208465Y33579D01*
X207465Y34579D01*
X206465D01*
Y33579D01*
X207465Y32579D01*
X206465Y31579D01*
Y30579D01*
X237665Y53905D02*
X238665D01*
X239665Y54905D01*
X240665Y53905D01*
X241665D01*
Y54905D01*
X240665Y55905D01*
X241665Y56906D01*
Y57906D01*
X240665D01*
X239665Y56906D01*
X238665Y57906D01*
X237665D01*
Y56906D01*
X238665Y55905D01*
X237665Y54905D01*
Y53905D01*
X-228Y27921D02*
X772D01*
X1772Y28921D01*
X2772Y27921D01*
X3772D01*
Y28921D01*
X2772Y29921D01*
X3772Y30921D01*
Y31921D01*
X2772D01*
X1772Y30921D01*
X772Y31921D01*
X-228D01*
Y30921D01*
X772Y29921D01*
X-228Y28921D01*
Y27921D01*
X140520Y193079D02*
X141520D01*
X142520Y194079D01*
X143520Y193079D01*
X144520D01*
Y194079D01*
X143520Y195079D01*
X144520Y196079D01*
Y197079D01*
X143520D01*
X142520Y196079D01*
X141520Y197079D01*
X140520D01*
Y196079D01*
X141520Y195079D01*
X140520Y194079D01*
Y193079D01*
X241701Y41110D02*
X242701D01*
X243701Y42110D01*
X244701Y41110D01*
X245701D01*
Y42110D01*
X244701Y43110D01*
X245701Y44110D01*
Y45110D01*
X244701D01*
X243701Y44110D01*
X242701Y45110D01*
X241701D01*
Y44110D01*
X242701Y43110D01*
X241701Y42110D01*
Y41110D01*
X121622Y109221D02*
X122622D01*
X123622Y110221D01*
X124622Y109221D01*
X125622D01*
Y110221D01*
X124622Y111221D01*
X125622Y112221D01*
Y113221D01*
X124622D01*
X123622Y112221D01*
X122622Y113221D01*
X121622D01*
Y112221D01*
X122622Y111221D01*
X121622Y110221D01*
Y109221D01*
X298000Y64929D02*
X299000D01*
X300000Y65929D01*
X301000Y64929D01*
X302000D01*
Y65929D01*
X301000Y66929D01*
X302000Y67929D01*
Y68929D01*
X301000D01*
X300000Y67929D01*
X299000Y68929D01*
X298000D01*
Y67929D01*
X299000Y66929D01*
X298000Y65929D01*
Y64929D01*
X109417Y141701D02*
X110417D01*
X111417Y142701D01*
X112417Y141701D01*
X113417D01*
Y142701D01*
X112417Y143701D01*
X113417Y144701D01*
Y145701D01*
X112417D01*
X111417Y144701D01*
X110417Y145701D01*
X109417D01*
Y144701D01*
X110417Y143701D01*
X109417Y142701D01*
Y141701D01*
X168237Y87890D02*
X169237D01*
X170237Y88890D01*
X171237Y87890D01*
X172237D01*
Y88890D01*
X171237Y89890D01*
X172237Y90890D01*
Y91890D01*
X171237D01*
X170237Y90890D01*
X169237Y91890D01*
X168237D01*
Y90890D01*
X169237Y89890D01*
X168237Y88890D01*
Y87890D01*
X179496Y24772D02*
X180496D01*
X181496Y25772D01*
X182496Y24772D01*
X183496D01*
Y25772D01*
X182496Y26772D01*
X183496Y27772D01*
Y28772D01*
X182496D01*
X181496Y27772D01*
X180496Y28772D01*
X179496D01*
Y27772D01*
X180496Y26772D01*
X179496Y25772D01*
Y24772D01*
X138551Y50756D02*
X139551D01*
X140551Y51756D01*
X141551Y50756D01*
X142551D01*
Y51756D01*
X141551Y52756D01*
X142551Y53756D01*
Y54756D01*
X141551D01*
X140551Y53756D01*
X139551Y54756D01*
X138551D01*
Y53756D01*
X139551Y52756D01*
X138551Y51756D01*
Y50756D01*
X285795Y63157D02*
X286795D01*
X287795Y64157D01*
X288795Y63157D01*
X289795D01*
Y64157D01*
X288795Y65158D01*
X289795Y66158D01*
Y67158D01*
X288795D01*
X287795Y66158D01*
X286795Y67158D01*
X285795D01*
Y66158D01*
X286795Y65158D01*
X285795Y64157D01*
Y63157D01*
X262469Y148000D02*
X263469D01*
X264469Y149000D01*
X265469Y148000D01*
X266469D01*
Y149000D01*
X265469Y150000D01*
X266469Y151000D01*
Y152000D01*
X265469D01*
X264469Y151000D01*
X263469Y152000D01*
X262469D01*
Y151000D01*
X263469Y150000D01*
X262469Y149000D01*
Y148000D01*
X63059Y193079D02*
X64059D01*
X65059Y194079D01*
X66059Y193079D01*
X67059D01*
Y194079D01*
X66059Y195079D01*
X67059Y196079D01*
Y197079D01*
X66059D01*
X65059Y196079D01*
X64059Y197079D01*
X63059D01*
Y196079D01*
X64059Y195079D01*
X63059Y194079D01*
Y193079D01*
X204693Y112567D02*
X205693D01*
X206693Y113567D01*
X207693Y112567D01*
X208693D01*
Y113567D01*
X207693Y114567D01*
X208693Y115567D01*
Y116567D01*
X207693D01*
X206693Y115567D01*
X205693Y116567D01*
X204693D01*
Y115567D01*
X205693Y114567D01*
X204693Y113567D01*
Y112567D01*
X139941Y128598D02*
X140941D01*
X141941Y129598D01*
X142941Y128598D01*
X143941D01*
Y129598D01*
X142941Y130598D01*
X143941Y131598D01*
Y132598D01*
X142941D01*
X141941Y131598D01*
X140941Y132598D01*
X139941D01*
Y131598D01*
X140941Y130598D01*
X139941Y129598D01*
Y128598D01*
X136091Y114339D02*
X137091D01*
X138091Y115339D01*
X139091Y114339D01*
X140091D01*
Y115339D01*
X139091Y116339D01*
X140091Y117339D01*
Y118339D01*
X139091D01*
X138091Y117339D01*
X137091Y118339D01*
X136091D01*
Y117339D01*
X137091Y116339D01*
X136091Y115339D01*
Y114339D01*
X270441Y170835D02*
X271441D01*
X272441Y171835D01*
X273441Y170835D01*
X274441D01*
Y171835D01*
X273441Y172835D01*
X274441Y173835D01*
Y174835D01*
X273441D01*
X272441Y173835D01*
X271441Y174835D01*
X270441D01*
Y173835D01*
X271441Y172835D01*
X270441Y171835D01*
Y170835D01*
X144457Y165323D02*
X145457D01*
X146457Y166323D01*
X147457Y165323D01*
X148457D01*
Y166323D01*
X147457Y167323D01*
X148457Y168323D01*
Y169323D01*
X147457D01*
X146457Y168323D01*
X145457Y169323D01*
X144457D01*
Y168323D01*
X145457Y167323D01*
X144457Y166323D01*
Y165323D01*
X191307Y163354D02*
X192307D01*
X193307Y164354D01*
X194307Y163354D01*
X195307D01*
Y164354D01*
X194307Y165354D01*
X195307Y166354D01*
Y167354D01*
X194307D01*
X193307Y166354D01*
X192307Y167354D01*
X191307D01*
Y166354D01*
X192307Y165354D01*
X191307Y164354D01*
Y163354D01*
X131465Y35795D02*
X132465D01*
X133465Y36795D01*
X134465Y35795D01*
X135465D01*
Y36795D01*
X134465Y37795D01*
X135465Y38795D01*
Y39795D01*
X134465D01*
X133465Y38795D01*
X132465Y39795D01*
X131465D01*
Y38795D01*
X132465Y37795D01*
X131465Y36795D01*
Y35795D01*
Y57842D02*
X132465D01*
X133465Y58842D01*
X134465Y57842D01*
X135465D01*
Y58842D01*
X134465Y59842D01*
X135465Y60843D01*
Y61843D01*
X134465D01*
X133465Y60843D01*
X132465Y61843D01*
X131465D01*
Y60843D01*
X132465Y59842D01*
X131465Y58842D01*
Y57842D01*
X277626Y81563D02*
X278626D01*
X279626Y82563D01*
X280626Y81563D01*
X281626D01*
Y82563D01*
X280626Y83563D01*
X281626Y84563D01*
Y85563D01*
X280626D01*
X279626Y84563D01*
X278626Y85563D01*
X277626D01*
Y84563D01*
X278626Y83563D01*
X277626Y82563D01*
Y81563D01*
X311189Y176051D02*
X312189D01*
X313189Y177051D01*
X314189Y176051D01*
X315189D01*
Y177051D01*
X314189Y178051D01*
X315189Y179051D01*
Y180051D01*
X314189D01*
X313189Y179051D01*
X312189Y180051D01*
X311189D01*
Y179051D01*
X312189Y178051D01*
X311189Y177051D01*
Y176051D01*
X139240Y133630D02*
X140240D01*
X141240Y134630D01*
X142240Y133630D01*
X143240D01*
Y134630D01*
X142240Y135630D01*
X143240Y136630D01*
Y137630D01*
X142240D01*
X141240Y136630D01*
X140240Y137630D01*
X139240D01*
Y136630D01*
X140240Y135630D01*
X139240Y134630D01*
Y133630D01*
X201150Y116110D02*
X202150D01*
X203150Y117110D01*
X204150Y116110D01*
X205150D01*
Y117110D01*
X204150Y118110D01*
X205150Y119110D01*
Y120110D01*
X204150D01*
X203150Y119110D01*
X202150Y120110D01*
X201150D01*
Y119110D01*
X202150Y118110D01*
X201150Y117110D01*
Y116110D01*
X197606Y126740D02*
X198606D01*
X199606Y127740D01*
X200606Y126740D01*
X201606D01*
Y127740D01*
X200606Y128740D01*
X201606Y129740D01*
Y130740D01*
X200606D01*
X199606Y129740D01*
X198606Y130740D01*
X197606D01*
Y129740D01*
X198606Y128740D01*
X197606Y127740D01*
Y126740D01*
X183827Y176347D02*
X184827D01*
X185827Y177347D01*
X186827Y176347D01*
X187827D01*
Y177347D01*
X186827Y178347D01*
X187827Y179347D01*
Y180347D01*
X186827D01*
X185827Y179347D01*
X184827Y180347D01*
X183827D01*
Y179347D01*
X184827Y178347D01*
X183827Y177347D01*
Y176347D01*
X201051Y35992D02*
X202051D01*
X203051Y36992D01*
X204051Y35992D01*
X205051D01*
Y36992D01*
X204051Y37992D01*
X205051Y38992D01*
Y39992D01*
X204051D01*
X203051Y38992D01*
X202051Y39992D01*
X201051D01*
Y38992D01*
X202051Y37992D01*
X201051Y36992D01*
Y35992D01*
X177134Y166898D02*
X178134D01*
X179134Y167898D01*
X180134Y166898D01*
X181134D01*
Y167898D01*
X180134Y168898D01*
X181134Y169898D01*
Y170898D01*
X180134D01*
X179134Y169898D01*
X178134Y170898D01*
X177134D01*
Y169898D01*
X178134Y168898D01*
X177134Y167898D01*
Y166898D01*
X142095Y35795D02*
X143095D01*
X144095Y36795D01*
X145095Y35795D01*
X146095D01*
Y36795D01*
X145095Y37795D01*
X146095Y38795D01*
Y39795D01*
X145095D01*
X144095Y38795D01*
X143095Y39795D01*
X142095D01*
Y38795D01*
X143095Y37795D01*
X142095Y36795D01*
Y35795D01*
X218079Y184614D02*
X219079D01*
X220079Y185614D01*
X221079Y184614D01*
X222079D01*
Y185614D01*
X221079Y186614D01*
X222079Y187614D01*
Y188614D01*
X221079D01*
X220079Y187614D01*
X219079Y188614D01*
X218079D01*
Y187614D01*
X219079Y186614D01*
X218079Y185614D01*
Y184614D01*
X219358Y79102D02*
X220358D01*
X221358Y80102D01*
X222358Y79102D01*
X223358D01*
Y80102D01*
X222358Y81102D01*
X223358Y82102D01*
Y83102D01*
X222358D01*
X221358Y82102D01*
X220358Y83102D01*
X219358D01*
Y82102D01*
X220358Y81102D01*
X219358Y80102D01*
Y79102D01*
X311189Y89437D02*
X312189D01*
X313189Y90437D01*
X314189Y89437D01*
X315189D01*
Y90437D01*
X314189Y91437D01*
X315189Y92437D01*
Y93437D01*
X314189D01*
X313189Y92437D01*
X312189Y93437D01*
X311189D01*
Y92437D01*
X312189Y91437D01*
X311189Y90437D01*
Y89437D01*
X147197Y102850D02*
X148197D01*
X149197Y103850D01*
X150197Y102850D01*
X151197D01*
Y103850D01*
X150197Y104850D01*
X151197Y105850D01*
Y106850D01*
X150197D01*
X149197Y105850D01*
X148197Y106850D01*
X147197D01*
Y105850D01*
X148197Y104850D01*
X147197Y103850D01*
Y102850D01*
X227823Y125067D02*
X228823D01*
X229823Y126067D01*
X230823Y125067D01*
X231823D01*
Y126067D01*
X230823Y127067D01*
X231823Y128067D01*
Y129067D01*
X230823D01*
X229823Y128067D01*
X228823Y129067D01*
X227823D01*
Y128067D01*
X228823Y127067D01*
X227823Y126067D01*
Y125067D01*
X182252Y71622D02*
X183252D01*
X184252Y72622D01*
X185252Y71622D01*
X186252D01*
Y72622D01*
X185252Y73622D01*
X186252Y74622D01*
Y75622D01*
X185252D01*
X184252Y74622D01*
X183252Y75622D01*
X182252D01*
Y74622D01*
X183252Y73622D01*
X182252Y72622D01*
Y71622D01*
X162567Y136976D02*
X163567D01*
X164567Y137976D01*
X165567Y136976D01*
X166567D01*
Y137976D01*
X165567Y138976D01*
X166567Y139976D01*
Y140976D01*
X165567D01*
X164567Y139976D01*
X163567Y140976D01*
X162567D01*
Y139976D01*
X163567Y138976D01*
X162567Y137976D01*
Y136976D01*
X157350Y64732D02*
X158350D01*
X159350Y65732D01*
X160350Y64732D01*
X161350D01*
Y65732D01*
X160350Y66732D01*
X161350Y67732D01*
Y68732D01*
X160350D01*
X159350Y67732D01*
X158350Y68732D01*
X157350D01*
Y67732D01*
X158350Y66732D01*
X157350Y65732D01*
Y64732D01*
X180677Y152724D02*
X181677D01*
X182677Y153724D01*
X183677Y152724D01*
X184677D01*
Y153724D01*
X183677Y154724D01*
X184677Y155724D01*
Y156724D01*
X183677D01*
X182677Y155724D01*
X181677Y156724D01*
X180677D01*
Y155724D01*
X181677Y154724D01*
X180677Y153724D01*
Y152724D01*
X173591Y51150D02*
X174591D01*
X175591Y52150D01*
X176591Y51150D01*
X177591D01*
Y52150D01*
X176591Y53150D01*
X177591Y54150D01*
Y55150D01*
X176591D01*
X175591Y54150D01*
X174591Y55150D01*
X173591D01*
Y54150D01*
X174591Y53150D01*
X173591Y52150D01*
Y51150D01*
X221622Y166898D02*
X222622D01*
X223622Y167898D01*
X224622Y166898D01*
X225622D01*
Y167898D01*
X224622Y168898D01*
X225622Y169898D01*
Y170898D01*
X224622D01*
X223622Y169898D01*
X222622Y170898D01*
X221622D01*
Y169898D01*
X222622Y168898D01*
X221622Y167898D01*
Y166898D01*
X203020Y176347D02*
X204020D01*
X205020Y177347D01*
X206020Y176347D01*
X207020D01*
Y177347D01*
X206020Y178347D01*
X207020Y179347D01*
Y180347D01*
X206020D01*
X205020Y179347D01*
X204020Y180347D01*
X203020D01*
Y179347D01*
X204020Y178347D01*
X203020Y177347D01*
Y176347D01*
X69457Y-228D02*
X70457D01*
X71457Y772D01*
X72457Y-228D01*
X73457D01*
Y772D01*
X72457Y1772D01*
X73457Y2772D01*
Y3772D01*
X72457D01*
X71457Y2772D01*
X70457Y3772D01*
X69457D01*
Y2772D01*
X70457Y1772D01*
X69457Y772D01*
Y-228D01*
X-228Y79693D02*
X772D01*
X1772Y80693D01*
X2772Y79693D01*
X3772D01*
Y80693D01*
X2772Y81693D01*
X3772Y82693D01*
Y83693D01*
X2772D01*
X1772Y82693D01*
X772Y83693D01*
X-228D01*
Y82693D01*
X772Y81693D01*
X-228Y80693D01*
Y79693D01*
X208777Y54004D02*
X209777D01*
X210777Y55004D01*
X211777Y54004D01*
X212777D01*
Y55004D01*
X211777Y56004D01*
X212777Y57004D01*
Y58004D01*
X211777D01*
X210777Y57004D01*
X209777Y58004D01*
X208777D01*
Y57004D01*
X209777Y56004D01*
X208777Y55004D01*
Y54004D01*
X201937Y80480D02*
X202937D01*
X203937Y81480D01*
X204937Y80480D01*
X205937D01*
Y81480D01*
X204937Y82480D01*
X205937Y83480D01*
Y84480D01*
X204937D01*
X203937Y83480D01*
X202937Y84480D01*
X201937D01*
Y83480D01*
X202937Y82480D01*
X201937Y81480D01*
Y80480D01*
X49083Y76937D02*
X50083D01*
X51083Y77937D01*
X52083Y76937D01*
X53083D01*
Y77937D01*
X52083Y78937D01*
X53083Y79937D01*
Y80937D01*
X52083D01*
X51083Y79937D01*
X50083Y80937D01*
X49083D01*
Y79937D01*
X50083Y78937D01*
X49083Y77937D01*
Y76937D01*
X177134Y163354D02*
X178134D01*
X179134Y164354D01*
X180134Y163354D01*
X181134D01*
Y164354D01*
X180134Y165354D01*
X181134Y166354D01*
Y167354D01*
X180134D01*
X179134Y166354D01*
X178134Y167354D01*
X177134D01*
Y166354D01*
X178134Y165354D01*
X177134Y164354D01*
Y163354D01*
X184221Y79496D02*
X185221D01*
X186221Y80496D01*
X187221Y79496D01*
X188221D01*
Y80496D01*
X187221Y81496D01*
X188221Y82496D01*
Y83496D01*
X187221D01*
X186221Y82496D01*
X185221Y83496D01*
X184221D01*
Y82496D01*
X185221Y81496D01*
X184221Y80496D01*
Y79496D01*
X225165Y173984D02*
X226165D01*
X227165Y174984D01*
X228165Y173984D01*
X229165D01*
Y174984D01*
X228165Y175984D01*
X229165Y176984D01*
Y177984D01*
X228165D01*
X227165Y176984D01*
X226165Y177984D01*
X225165D01*
Y176984D01*
X226165Y175984D01*
X225165Y174984D01*
Y173984D01*
X187469Y122114D02*
X188469D01*
X189469Y123114D01*
X190469Y122114D01*
X191469D01*
Y123114D01*
X190469Y124114D01*
X191469Y125114D01*
Y126114D01*
X190469D01*
X189469Y125114D01*
X188469Y126114D01*
X187469D01*
Y125114D01*
X188469Y124114D01*
X187469Y123114D01*
Y122114D01*
X147705Y-228D02*
X148705D01*
X149705Y772D01*
X150705Y-228D01*
X151705D01*
Y772D01*
X150705Y1772D01*
X151705Y2772D01*
Y3772D01*
X150705D01*
X149705Y2772D01*
X148705Y3772D01*
X147705D01*
Y2772D01*
X148705Y1772D01*
X147705Y772D01*
Y-228D01*
X-228Y169949D02*
X772D01*
X1772Y170949D01*
X2772Y169949D01*
X3772D01*
Y170949D01*
X2772Y171949D01*
X3772Y172949D01*
Y173949D01*
X2772D01*
X1772Y172949D01*
X772Y173949D01*
X-228D01*
Y172949D01*
X772Y171949D01*
X-228Y170949D01*
Y169949D01*
X112998Y172569D02*
X113998D01*
X114998Y173569D01*
X115998Y172569D01*
X116998D01*
Y173569D01*
X115998Y174569D01*
X116998Y175569D01*
Y176569D01*
X115998D01*
X114998Y175569D01*
X113998Y176569D01*
X112998D01*
Y175569D01*
X113998Y174569D01*
X112998Y173569D01*
Y172569D01*
X170047Y152724D02*
X171047D01*
X172047Y153724D01*
X173047Y152724D01*
X174047D01*
Y153724D01*
X173047Y154724D01*
X174047Y155724D01*
Y156724D01*
X173047D01*
X172047Y155724D01*
X171047Y156724D01*
X170047D01*
Y155724D01*
X171047Y154724D01*
X170047Y153724D01*
Y152724D01*
Y44063D02*
X171047D01*
X172047Y45063D01*
X173047Y44063D01*
X174047D01*
Y45063D01*
X173047Y46063D01*
X174047Y47063D01*
Y48063D01*
X173047D01*
X172047Y47063D01*
X171047Y48063D01*
X170047D01*
Y47063D01*
X171047Y46063D01*
X170047Y45063D01*
Y44063D01*
X173591Y93669D02*
X174591D01*
X175591Y94669D01*
X176591Y93669D01*
X177591D01*
Y94669D01*
X176591Y95669D01*
X177591Y96669D01*
Y97669D01*
X176591D01*
X175591Y96669D01*
X174591Y97669D01*
X173591D01*
Y96669D01*
X174591Y95669D01*
X173591Y94669D01*
Y93669D01*
X201150Y109024D02*
X202150D01*
X203150Y110024D01*
X204150Y109024D01*
X205150D01*
Y110024D01*
X204150Y111024D01*
X205150Y112024D01*
Y113024D01*
X204150D01*
X203150Y112024D01*
X202150Y113024D01*
X201150D01*
Y112024D01*
X202150Y111024D01*
X201150Y110024D01*
Y109024D01*
X219457Y160106D02*
X220457D01*
X221457Y161106D01*
X222457Y160106D01*
X223457D01*
Y161106D01*
X222457Y162106D01*
X223457Y163106D01*
Y164106D01*
X222457D01*
X221457Y163106D01*
X220457Y164106D01*
X219457D01*
Y163106D01*
X220457Y162106D01*
X219457Y161106D01*
Y160106D01*
X238748Y-228D02*
X239748D01*
X240748Y772D01*
X241748Y-228D01*
X242748D01*
Y772D01*
X241748Y1772D01*
X242748Y2772D01*
Y3772D01*
X241748D01*
X240748Y2772D01*
X239748Y3772D01*
X238748D01*
Y2772D01*
X239748Y1772D01*
X238748Y772D01*
Y-228D01*
X240126Y193079D02*
X241126D01*
X242126Y194079D01*
X243126Y193079D01*
X244126D01*
Y194079D01*
X243126Y195079D01*
X244126Y196079D01*
Y197079D01*
X243126D01*
X242126Y196079D01*
X241126Y197079D01*
X240126D01*
Y196079D01*
X241126Y195079D01*
X240126Y194079D01*
Y193079D01*
X209221Y30579D02*
X210221D01*
X211221Y31579D01*
X212221Y30579D01*
X213221D01*
Y31579D01*
X212221Y32579D01*
X213221Y33579D01*
Y34579D01*
X212221D01*
X211221Y33579D01*
X210221Y34579D01*
X209221D01*
Y33579D01*
X210221Y32579D01*
X209221Y31579D01*
Y30579D01*
X130311Y130302D02*
X131311D01*
X132311Y131302D01*
X133311Y130302D01*
X134311D01*
Y131302D01*
X133311Y132302D01*
X134311Y133302D01*
Y134302D01*
X133311D01*
X132311Y133302D01*
X131311Y134302D01*
X130311D01*
Y133302D01*
X131311Y132302D01*
X130311Y131302D01*
Y130302D01*
X210479Y109056D02*
X211479D01*
X212479Y110056D01*
X213479Y109056D01*
X214479D01*
Y110056D01*
X213479Y111056D01*
X214479Y112057D01*
Y113057D01*
X213479D01*
X212479Y112057D01*
X211479Y113057D01*
X210479D01*
Y112057D01*
X211479Y111056D01*
X210479Y110056D01*
Y109056D01*
X197508Y44161D02*
X198508D01*
X199508Y45161D01*
X200508Y44161D01*
X201508D01*
Y45161D01*
X200508Y46161D01*
X201508Y47161D01*
Y48161D01*
X200508D01*
X199508Y47161D01*
X198508Y48161D01*
X197508D01*
Y47161D01*
X198508Y46161D01*
X197508Y45161D01*
Y44161D01*
X148394Y53315D02*
X149394D01*
X150394Y54315D01*
X151394Y53315D01*
X152394D01*
Y54315D01*
X151394Y55315D01*
X152394Y56315D01*
Y57315D01*
X151394D01*
X150394Y56315D01*
X149394Y57315D01*
X148394D01*
Y56315D01*
X149394Y55315D01*
X148394Y54315D01*
Y53315D01*
X74279Y137961D02*
X75279D01*
X76279Y138961D01*
X77280Y137961D01*
X78280D01*
Y138961D01*
X77280Y139961D01*
X78280Y140961D01*
Y141961D01*
X77280D01*
X76279Y140961D01*
X75279Y141961D01*
X74279D01*
Y140961D01*
X75279Y139961D01*
X74279Y138961D01*
Y137961D01*
X177134Y36976D02*
X178134D01*
X179134Y37976D01*
X180134Y36976D01*
X181134D01*
Y37976D01*
X180134Y38976D01*
X181134Y39976D01*
Y40976D01*
X180134D01*
X179134Y39976D01*
X178134Y40976D01*
X177134D01*
Y39976D01*
X178134Y38976D01*
X177134Y37976D01*
Y36976D01*
Y90126D02*
X178134D01*
X179134Y91126D01*
X180134Y90126D01*
X181134D01*
Y91126D01*
X180134Y92126D01*
X181134Y93126D01*
Y94126D01*
X180134D01*
X179134Y93126D01*
X178134Y94126D01*
X177134D01*
Y93126D01*
X178134Y92126D01*
X177134Y91126D01*
Y90126D01*
X242882Y59024D02*
X243882D01*
X244882Y60024D01*
X245882Y59024D01*
X246882D01*
Y60024D01*
X245882Y61024D01*
X246882Y62024D01*
Y63024D01*
X245882D01*
X244882Y62024D01*
X243882Y63024D01*
X242882D01*
Y62024D01*
X243882Y61024D01*
X242882Y60024D01*
Y59024D01*
X-228Y18571D02*
X772D01*
X1772Y19571D01*
X2772Y18571D01*
X3772D01*
Y19571D01*
X2772Y20571D01*
X3772Y21571D01*
Y22571D01*
X2772D01*
X1772Y21571D01*
X772Y22571D01*
X-228D01*
Y21571D01*
X772Y20571D01*
X-228Y19571D01*
Y18571D01*
X149083Y193079D02*
X150083D01*
X151083Y194079D01*
X152083Y193079D01*
X153083D01*
Y194079D01*
X152083Y195079D01*
X153083Y196079D01*
Y197079D01*
X152083D01*
X151083Y196079D01*
X150083Y197079D01*
X149083D01*
Y196079D01*
X150083Y195079D01*
X149083Y194079D01*
Y193079D01*
X232154Y62173D02*
X233154D01*
X234154Y63173D01*
X235154Y62173D01*
X236154D01*
Y63173D01*
X235154Y64173D01*
X236154Y65173D01*
Y66173D01*
X235154D01*
X234154Y65173D01*
X233154Y66173D01*
X232154D01*
Y65173D01*
X233154Y64173D01*
X232154Y63173D01*
Y62173D01*
X119461Y113063D02*
X120461D01*
X121461Y114063D01*
X122461Y113063D01*
X123461D01*
Y114063D01*
X122461Y115063D01*
X123461Y116063D01*
Y117063D01*
X122461D01*
X121461Y116063D01*
X120461Y117063D01*
X119461D01*
Y116063D01*
X120461Y115063D01*
X119461Y114063D01*
Y113063D01*
D67*
X66961Y31102D02*
G03*
X66961Y31102I-2000J0D01*
G01*
Y59449D02*
G03*
X66961Y59449I-2000J0D01*
G01*
M02*
