G04*
G04 #@! TF.GenerationSoftware,Altium Limited,Altium Designer,24.10.1 (45)*
G04*
G04 Layer_Color=255*
%FSLAX25Y25*%
%MOIN*%
G70*
G04*
G04 #@! TF.SameCoordinates,CBAACD6F-12D9-4D4A-9EA7-E70620961981*
G04*
G04*
G04 #@! TF.FilePolarity,Positive*
G04*
G01*
G75*
G04:AMPARAMS|DCode=14|XSize=70.87mil|YSize=133.86mil|CornerRadius=5.32mil|HoleSize=0mil|Usage=FLASHONLY|Rotation=0.000|XOffset=0mil|YOffset=0mil|HoleType=Round|Shape=RoundedRectangle|*
%AMROUNDEDRECTD14*
21,1,0.07087,0.12323,0,0,0.0*
21,1,0.06024,0.13386,0,0,0.0*
1,1,0.01063,0.03012,-0.06161*
1,1,0.01063,-0.03012,-0.06161*
1,1,0.01063,-0.03012,0.06161*
1,1,0.01063,0.03012,0.06161*
%
%ADD14ROUNDEDRECTD14*%
G04:AMPARAMS|DCode=15|XSize=21.65mil|YSize=25.59mil|CornerRadius=1.62mil|HoleSize=0mil|Usage=FLASHONLY|Rotation=0.000|XOffset=0mil|YOffset=0mil|HoleType=Round|Shape=RoundedRectangle|*
%AMROUNDEDRECTD15*
21,1,0.02165,0.02234,0,0,0.0*
21,1,0.01841,0.02559,0,0,0.0*
1,1,0.00325,0.00920,-0.01117*
1,1,0.00325,-0.00920,-0.01117*
1,1,0.00325,-0.00920,0.01117*
1,1,0.00325,0.00920,0.01117*
%
%ADD15ROUNDEDRECTD15*%
G04:AMPARAMS|DCode=16|XSize=35.43mil|YSize=39.37mil|CornerRadius=2.66mil|HoleSize=0mil|Usage=FLASHONLY|Rotation=90.000|XOffset=0mil|YOffset=0mil|HoleType=Round|Shape=RoundedRectangle|*
%AMROUNDEDRECTD16*
21,1,0.03543,0.03406,0,0,90.0*
21,1,0.03012,0.03937,0,0,90.0*
1,1,0.00532,0.01703,0.01506*
1,1,0.00532,0.01703,-0.01506*
1,1,0.00532,-0.01703,-0.01506*
1,1,0.00532,-0.01703,0.01506*
%
%ADD16ROUNDEDRECTD16*%
G04:AMPARAMS|DCode=17|XSize=21.65mil|YSize=25.59mil|CornerRadius=1.62mil|HoleSize=0mil|Usage=FLASHONLY|Rotation=90.000|XOffset=0mil|YOffset=0mil|HoleType=Round|Shape=RoundedRectangle|*
%AMROUNDEDRECTD17*
21,1,0.02165,0.02234,0,0,90.0*
21,1,0.01841,0.02559,0,0,90.0*
1,1,0.00325,0.01117,0.00920*
1,1,0.00325,0.01117,-0.00920*
1,1,0.00325,-0.01117,-0.00920*
1,1,0.00325,-0.01117,0.00920*
%
%ADD17ROUNDEDRECTD17*%
G04:AMPARAMS|DCode=18|XSize=25.59mil|YSize=43.31mil|CornerRadius=1.92mil|HoleSize=0mil|Usage=FLASHONLY|Rotation=0.000|XOffset=0mil|YOffset=0mil|HoleType=Round|Shape=RoundedRectangle|*
%AMROUNDEDRECTD18*
21,1,0.02559,0.03947,0,0,0.0*
21,1,0.02175,0.04331,0,0,0.0*
1,1,0.00384,0.01088,-0.01973*
1,1,0.00384,-0.01088,-0.01973*
1,1,0.00384,-0.01088,0.01973*
1,1,0.00384,0.01088,0.01973*
%
%ADD18ROUNDEDRECTD18*%
G04:AMPARAMS|DCode=19|XSize=35.43mil|YSize=39.37mil|CornerRadius=2.66mil|HoleSize=0mil|Usage=FLASHONLY|Rotation=0.000|XOffset=0mil|YOffset=0mil|HoleType=Round|Shape=RoundedRectangle|*
%AMROUNDEDRECTD19*
21,1,0.03543,0.03406,0,0,0.0*
21,1,0.03012,0.03937,0,0,0.0*
1,1,0.00532,0.01506,-0.01703*
1,1,0.00532,-0.01506,-0.01703*
1,1,0.00532,-0.01506,0.01703*
1,1,0.00532,0.01506,0.01703*
%
%ADD19ROUNDEDRECTD19*%
%ADD20R,0.00500X0.00500*%
%ADD21R,0.01000X0.00500*%
G04:AMPARAMS|DCode=22|XSize=25.59mil|YSize=49.21mil|CornerRadius=0.64mil|HoleSize=0mil|Usage=FLASHONLY|Rotation=270.000|XOffset=0mil|YOffset=0mil|HoleType=Round|Shape=RoundedRectangle|*
%AMROUNDEDRECTD22*
21,1,0.02559,0.04793,0,0,270.0*
21,1,0.02431,0.04921,0,0,270.0*
1,1,0.00128,-0.02397,-0.01216*
1,1,0.00128,-0.02397,0.01216*
1,1,0.00128,0.02397,0.01216*
1,1,0.00128,0.02397,-0.01216*
%
%ADD22ROUNDEDRECTD22*%
G04:AMPARAMS|DCode=23|XSize=25.59mil|YSize=49.21mil|CornerRadius=0.64mil|HoleSize=0mil|Usage=FLASHONLY|Rotation=180.000|XOffset=0mil|YOffset=0mil|HoleType=Round|Shape=RoundedRectangle|*
%AMROUNDEDRECTD23*
21,1,0.02559,0.04793,0,0,180.0*
21,1,0.02431,0.04921,0,0,180.0*
1,1,0.00128,-0.01216,0.02397*
1,1,0.00128,0.01216,0.02397*
1,1,0.00128,0.01216,-0.02397*
1,1,0.00128,-0.01216,-0.02397*
%
%ADD23ROUNDEDRECTD23*%
G04:AMPARAMS|DCode=24|XSize=23.62mil|YSize=43.31mil|CornerRadius=1.77mil|HoleSize=0mil|Usage=FLASHONLY|Rotation=180.000|XOffset=0mil|YOffset=0mil|HoleType=Round|Shape=RoundedRectangle|*
%AMROUNDEDRECTD24*
21,1,0.02362,0.03976,0,0,180.0*
21,1,0.02008,0.04331,0,0,180.0*
1,1,0.00354,-0.01004,0.01988*
1,1,0.00354,0.01004,0.01988*
1,1,0.00354,0.01004,-0.01988*
1,1,0.00354,-0.01004,-0.01988*
%
%ADD24ROUNDEDRECTD24*%
G04:AMPARAMS|DCode=25|XSize=165.35mil|YSize=74.8mil|CornerRadius=5.61mil|HoleSize=0mil|Usage=FLASHONLY|Rotation=90.000|XOffset=0mil|YOffset=0mil|HoleType=Round|Shape=RoundedRectangle|*
%AMROUNDEDRECTD25*
21,1,0.16535,0.06358,0,0,90.0*
21,1,0.15413,0.07480,0,0,90.0*
1,1,0.01122,0.03179,0.07707*
1,1,0.01122,0.03179,-0.07707*
1,1,0.01122,-0.03179,-0.07707*
1,1,0.01122,-0.03179,0.07707*
%
%ADD25ROUNDEDRECTD25*%
G04:AMPARAMS|DCode=26|XSize=165.35mil|YSize=74.8mil|CornerRadius=5.61mil|HoleSize=0mil|Usage=FLASHONLY|Rotation=180.000|XOffset=0mil|YOffset=0mil|HoleType=Round|Shape=RoundedRectangle|*
%AMROUNDEDRECTD26*
21,1,0.16535,0.06358,0,0,180.0*
21,1,0.15413,0.07480,0,0,180.0*
1,1,0.01122,-0.07707,0.03179*
1,1,0.01122,0.07707,0.03179*
1,1,0.01122,0.07707,-0.03179*
1,1,0.01122,-0.07707,-0.03179*
%
%ADD26ROUNDEDRECTD26*%
G04:AMPARAMS|DCode=27|XSize=163.39mil|YSize=163.39mil|CornerRadius=1.63mil|HoleSize=0mil|Usage=FLASHONLY|Rotation=90.000|XOffset=0mil|YOffset=0mil|HoleType=Round|Shape=RoundedRectangle|*
%AMROUNDEDRECTD27*
21,1,0.16339,0.16012,0,0,90.0*
21,1,0.16012,0.16339,0,0,90.0*
1,1,0.00327,0.08006,0.08006*
1,1,0.00327,0.08006,-0.08006*
1,1,0.00327,-0.08006,-0.08006*
1,1,0.00327,-0.08006,0.08006*
%
%ADD27ROUNDEDRECTD27*%
G04:AMPARAMS|DCode=28|XSize=8.66mil|YSize=23.62mil|CornerRadius=1.95mil|HoleSize=0mil|Usage=FLASHONLY|Rotation=90.000|XOffset=0mil|YOffset=0mil|HoleType=Round|Shape=RoundedRectangle|*
%AMROUNDEDRECTD28*
21,1,0.00866,0.01972,0,0,90.0*
21,1,0.00476,0.02362,0,0,90.0*
1,1,0.00390,0.00986,0.00238*
1,1,0.00390,0.00986,-0.00238*
1,1,0.00390,-0.00986,-0.00238*
1,1,0.00390,-0.00986,0.00238*
%
%ADD28ROUNDEDRECTD28*%
G04:AMPARAMS|DCode=29|XSize=8.66mil|YSize=23.62mil|CornerRadius=1.95mil|HoleSize=0mil|Usage=FLASHONLY|Rotation=180.000|XOffset=0mil|YOffset=0mil|HoleType=Round|Shape=RoundedRectangle|*
%AMROUNDEDRECTD29*
21,1,0.00866,0.01972,0,0,180.0*
21,1,0.00476,0.02362,0,0,180.0*
1,1,0.00390,-0.00238,0.00986*
1,1,0.00390,0.00238,0.00986*
1,1,0.00390,0.00238,-0.00986*
1,1,0.00390,-0.00238,-0.00986*
%
%ADD29ROUNDEDRECTD29*%
%AMCUSTOMSHAPE51*
4,1,32,-0.08012,0.10630,-0.08012,0.09055,-0.08760,0.09055,-0.08760,-0.09055,-0.08012,-0.09055,-0.08012,-0.10630,-0.04862,-0.10630,-0.04862,-0.09055,0.01634,-0.09055,0.01634,-0.10630,0.04784,-0.10630,0.04784,-0.09055,0.08760,-0.09055,0.08760,-0.06201,0.06594,-0.06201,0.06594,-0.03740,0.08760,-0.03740,0.08760,-0.01221,0.06594,-0.01221,0.06594,0.01221,0.08760,0.01221,0.08760,0.03740,0.06594,0.03740,0.06594,0.06201,0.08760,0.06201,0.08760,0.09055,0.04784,0.09055,0.04784,0.10630,0.01634,0.10630,0.01634,0.09055,-0.04862,0.09055,-0.04862,0.10630,-0.08012,0.10630,0.0*%
%ADD51CUSTOMSHAPE51*%

%AMCUSTOMSHAPE52*
4,1,32,0.10630,0.08012,0.09055,0.08012,0.09055,0.08760,-0.09055,0.08760,-0.09055,0.08012,-0.10630,0.08012,-0.10630,0.04862,-0.09055,0.04862,-0.09055,-0.01634,-0.10630,-0.01634,-0.10630,-0.04784,-0.09055,-0.04784,-0.09055,-0.08760,-0.06201,-0.08760,-0.06201,-0.06594,-0.03740,-0.06594,-0.03740,-0.08760,-0.01221,-0.08760,-0.01221,-0.06594,0.01221,-0.06594,0.01221,-0.08760,0.03740,-0.08760,0.03740,-0.06594,0.06201,-0.06594,0.06201,-0.08760,0.09055,-0.08760,0.09055,-0.04784,0.10630,-0.04784,0.10630,-0.01634,0.09055,-0.01634,0.09055,0.04862,0.10630,0.04862,0.10630,0.08012,0.0*%
%ADD52CUSTOMSHAPE52*%

%AMCUSTOMSHAPE53*
4,1,32,0.08012,-0.10630,0.08012,-0.09055,0.08760,-0.09055,0.08760,0.09055,0.08012,0.09055,0.08012,0.10630,0.04862,0.10630,0.04862,0.09055,-0.01634,0.09055,-0.01634,0.10630,-0.04784,0.10630,-0.04784,0.09055,-0.08760,0.09055,-0.08760,0.06201,-0.06594,0.06201,-0.06594,0.03740,-0.08760,0.03740,-0.08760,0.01221,-0.06594,0.01221,-0.06594,-0.01221,-0.08760,-0.01221,-0.08760,-0.03740,-0.06594,-0.03740,-0.06594,-0.06201,-0.08760,-0.06201,-0.08760,-0.09055,-0.04784,-0.09055,-0.04784,-0.10630,-0.01634,-0.10630,-0.01634,-0.09055,0.04862,-0.09055,0.04862,-0.10630,0.08012,-0.10630,0.0*%
%ADD53CUSTOMSHAPE53*%

%AMCUSTOMSHAPE54*
4,1,32,-0.10630,-0.08012,-0.09055,-0.08012,-0.09055,-0.08760,0.09055,-0.08760,0.09055,-0.08012,0.10630,-0.08012,0.10630,-0.04862,0.09055,-0.04862,0.09055,0.01634,0.10630,0.01634,0.10630,0.04784,0.09055,0.04784,0.09055,0.08760,0.06201,0.08760,0.06201,0.06594,0.03740,0.06594,0.03740,0.08760,0.01221,0.08760,0.01221,0.06594,-0.01221,0.06594,-0.01221,0.08760,-0.03740,0.08760,-0.03740,0.06594,-0.06201,0.06594,-0.06201,0.08760,-0.09055,0.08760,-0.09055,0.04784,-0.10630,0.04784,-0.10630,0.01634,-0.09055,0.01634,-0.09055,-0.04862,-0.10630,-0.04862,-0.10630,-0.08012,0.0*%
%ADD54CUSTOMSHAPE54*%

%ADD57C,0.23622*%
%ADD58C,0.06299*%
%ADD59R,0.06299X0.06299*%
%ADD60R,0.10236X0.10236*%
%ADD61C,0.10236*%
%ADD62C,0.14567*%
G04:AMPARAMS|DCode=63|XSize=59.06mil|YSize=118.11mil|CornerRadius=14.76mil|HoleSize=0mil|Usage=FLASHONLY|Rotation=90.000|XOffset=0mil|YOffset=0mil|HoleType=Round|Shape=RoundedRectangle|*
%AMROUNDEDRECTD63*
21,1,0.05906,0.08858,0,0,90.0*
21,1,0.02953,0.11811,0,0,90.0*
1,1,0.02953,0.04429,0.01476*
1,1,0.02953,0.04429,-0.01476*
1,1,0.02953,-0.04429,-0.01476*
1,1,0.02953,-0.04429,0.01476*
%
%ADD63ROUNDEDRECTD63*%
D14*
X208366Y46161D02*
D03*
X187894D02*
D03*
X208465Y90354D02*
D03*
X187992D02*
D03*
Y156890D02*
D03*
X208465D02*
D03*
D15*
X165256Y123327D02*
D03*
X161319D02*
D03*
X92520Y158563D02*
D03*
X96457D02*
D03*
X112500D02*
D03*
X116437D02*
D03*
X125787Y92815D02*
D03*
X129724D02*
D03*
X125787Y98228D02*
D03*
X129724D02*
D03*
X161319Y112500D02*
D03*
X165256D02*
D03*
X112500Y153150D02*
D03*
X116437D02*
D03*
X161319Y117913D02*
D03*
X165256D02*
D03*
X154232Y88681D02*
D03*
X158169D02*
D03*
X102559Y153150D02*
D03*
X106496D02*
D03*
X102559Y158563D02*
D03*
X106496D02*
D03*
X161319Y107087D02*
D03*
X165256D02*
D03*
X154232Y94095D02*
D03*
X158169D02*
D03*
X92520Y153150D02*
D03*
X96457D02*
D03*
D16*
X144685Y74508D02*
D03*
Y80413D02*
D03*
X170177Y34055D02*
D03*
Y39961D02*
D03*
X220417Y66929D02*
D03*
Y61024D02*
D03*
X113386Y98622D02*
D03*
Y104528D02*
D03*
X135531Y97835D02*
D03*
Y91929D02*
D03*
X120079Y80413D02*
D03*
Y74508D02*
D03*
X119980Y98622D02*
D03*
Y104528D02*
D03*
X220574Y128543D02*
D03*
Y134449D02*
D03*
X163583Y34055D02*
D03*
Y39961D02*
D03*
X119783Y126870D02*
D03*
Y120965D02*
D03*
D17*
X115059Y181299D02*
D03*
Y177362D02*
D03*
X103445Y171555D02*
D03*
Y167618D02*
D03*
X93307Y86811D02*
D03*
Y90748D02*
D03*
X94882Y130413D02*
D03*
Y126476D02*
D03*
X138386Y139173D02*
D03*
Y135236D02*
D03*
X103445Y177264D02*
D03*
Y181201D02*
D03*
X92618Y167618D02*
D03*
Y171555D02*
D03*
X98032Y167618D02*
D03*
Y171555D02*
D03*
X143799Y137500D02*
D03*
Y133563D02*
D03*
X98032Y181201D02*
D03*
Y177264D02*
D03*
X93307Y96161D02*
D03*
Y100098D02*
D03*
X98721Y96161D02*
D03*
Y100098D02*
D03*
X105905Y130413D02*
D03*
Y126476D02*
D03*
X132972Y139173D02*
D03*
Y135236D02*
D03*
X126378Y79724D02*
D03*
Y75787D02*
D03*
X109646Y181299D02*
D03*
Y177362D02*
D03*
X92618Y181201D02*
D03*
Y177264D02*
D03*
X120472Y181299D02*
D03*
Y177362D02*
D03*
X98721Y86811D02*
D03*
Y90748D02*
D03*
X100394Y130413D02*
D03*
Y126476D02*
D03*
X127559Y139173D02*
D03*
Y135236D02*
D03*
D18*
X230456Y68701D02*
D03*
X234196Y59646D02*
D03*
X226716D02*
D03*
X226907Y127067D02*
D03*
X234388D02*
D03*
X230647Y136122D02*
D03*
D19*
X214665Y178248D02*
D03*
X208760D02*
D03*
X199114Y124114D02*
D03*
X193209D02*
D03*
X199114Y117421D02*
D03*
X193209D02*
D03*
X214665Y184843D02*
D03*
X208760D02*
D03*
D20*
X204876Y90354D02*
D03*
X204626D02*
D03*
X204921Y156890D02*
D03*
X204671D02*
D03*
X191285Y90354D02*
D03*
X191535D02*
D03*
X191228Y46161D02*
D03*
X191478D02*
D03*
X205073D02*
D03*
X204823D02*
D03*
X191285Y156890D02*
D03*
X191535D02*
D03*
D21*
X204126Y90354D02*
D03*
X204171Y156890D02*
D03*
X192035Y90354D02*
D03*
X191978Y46161D02*
D03*
X204323D02*
D03*
X192035Y156890D02*
D03*
D22*
X217224Y93701D02*
D03*
Y88701D02*
D03*
Y78701D02*
D03*
Y83701D02*
D03*
Y160256D02*
D03*
Y155256D02*
D03*
Y145256D02*
D03*
Y150256D02*
D03*
X217126Y49528D02*
D03*
Y44528D02*
D03*
Y34528D02*
D03*
Y39528D02*
D03*
X238287Y103130D02*
D03*
Y108130D02*
D03*
Y118130D02*
D03*
Y113130D02*
D03*
D23*
X261752Y35433D02*
D03*
X256752D02*
D03*
X246752D02*
D03*
X251752D02*
D03*
X246752Y159350D02*
D03*
X251752D02*
D03*
X261752D02*
D03*
X256752D02*
D03*
D24*
X135236Y72539D02*
D03*
X131496Y80807D02*
D03*
X138976D02*
D03*
D25*
X162598Y152756D02*
D03*
Y180315D02*
D03*
D26*
X155413Y48720D02*
D03*
X127854D02*
D03*
D27*
X138045Y116041D02*
D03*
D28*
X126627Y107183D02*
D03*
Y109151D02*
D03*
Y111120D02*
D03*
Y113089D02*
D03*
Y115057D02*
D03*
Y117025D02*
D03*
Y118994D02*
D03*
Y120963D02*
D03*
Y122931D02*
D03*
Y124899D02*
D03*
X149462D02*
D03*
Y122931D02*
D03*
Y120963D02*
D03*
Y118994D02*
D03*
Y117025D02*
D03*
Y115057D02*
D03*
Y113089D02*
D03*
Y111120D02*
D03*
Y109151D02*
D03*
Y107183D02*
D03*
D29*
X129186Y127459D02*
D03*
X131155D02*
D03*
X133123D02*
D03*
X135092D02*
D03*
X137060D02*
D03*
X139029D02*
D03*
X140997D02*
D03*
X142966D02*
D03*
X144934D02*
D03*
X146903D02*
D03*
Y104624D02*
D03*
X144934D02*
D03*
X142966D02*
D03*
X140997D02*
D03*
X139029D02*
D03*
X137060D02*
D03*
X135092D02*
D03*
X133123D02*
D03*
X131155D02*
D03*
X129186D02*
D03*
D51*
X231988Y86201D02*
D03*
Y152756D02*
D03*
X231890Y42028D02*
D03*
D52*
X254252Y20669D02*
D03*
D53*
X223524Y110630D02*
D03*
D54*
X254252Y174114D02*
D03*
D57*
X19685Y177165D02*
D03*
Y98425D02*
D03*
X295276Y177165D02*
D03*
Y19685D02*
D03*
D58*
X51181Y100551D02*
D03*
X81181D02*
D03*
X61181D02*
D03*
X71181D02*
D03*
X81181Y90551D02*
D03*
X61181D02*
D03*
X71181D02*
D03*
X71282Y141991D02*
D03*
X61282D02*
D03*
X81282D02*
D03*
X71282Y151991D02*
D03*
X61282D02*
D03*
X81282D02*
D03*
X51282D02*
D03*
X71282Y116400D02*
D03*
X61282D02*
D03*
X81282D02*
D03*
X71282Y126400D02*
D03*
X61282D02*
D03*
X81282D02*
D03*
X51282D02*
D03*
X71181Y167323D02*
D03*
X61181D02*
D03*
X81181D02*
D03*
X71181Y177323D02*
D03*
X61181D02*
D03*
X81181D02*
D03*
X51181D02*
D03*
D59*
Y90551D02*
D03*
X51282Y141991D02*
D03*
Y116400D02*
D03*
X51181Y167323D02*
D03*
D60*
X279528Y73425D02*
D03*
D61*
Y98425D02*
D03*
Y123425D02*
D03*
D62*
X64961Y31102D02*
D03*
Y59449D02*
D03*
D63*
X41339Y18701D02*
D03*
Y71850D02*
D03*
M02*
