G04*
G04 #@! TF.GenerationSoftware,Altium Limited,Altium Designer,24.10.1 (45)*
G04*
G04 Layer_Physical_Order=1*
G04 Layer_Color=255*
%FSLAX25Y25*%
%MOIN*%
G70*
G04*
G04 #@! TF.SameCoordinates,CBAACD6F-12D9-4D4A-9EA7-E70620961981*
G04*
G04*
G04 #@! TF.FilePolarity,Positive*
G04*
G01*
G75*
%ADD10C,0.00787*%
%ADD11C,0.00500*%
G04:AMPARAMS|DCode=14|XSize=70.87mil|YSize=133.86mil|CornerRadius=5.32mil|HoleSize=0mil|Usage=FLASHONLY|Rotation=0.000|XOffset=0mil|YOffset=0mil|HoleType=Round|Shape=RoundedRectangle|*
%AMROUNDEDRECTD14*
21,1,0.07087,0.12323,0,0,0.0*
21,1,0.06024,0.13386,0,0,0.0*
1,1,0.01063,0.03012,-0.06161*
1,1,0.01063,-0.03012,-0.06161*
1,1,0.01063,-0.03012,0.06161*
1,1,0.01063,0.03012,0.06161*
%
%ADD14ROUNDEDRECTD14*%
G04:AMPARAMS|DCode=15|XSize=21.65mil|YSize=25.59mil|CornerRadius=1.62mil|HoleSize=0mil|Usage=FLASHONLY|Rotation=0.000|XOffset=0mil|YOffset=0mil|HoleType=Round|Shape=RoundedRectangle|*
%AMROUNDEDRECTD15*
21,1,0.02165,0.02234,0,0,0.0*
21,1,0.01841,0.02559,0,0,0.0*
1,1,0.00325,0.00920,-0.01117*
1,1,0.00325,-0.00920,-0.01117*
1,1,0.00325,-0.00920,0.01117*
1,1,0.00325,0.00920,0.01117*
%
%ADD15ROUNDEDRECTD15*%
G04:AMPARAMS|DCode=16|XSize=35.43mil|YSize=39.37mil|CornerRadius=2.66mil|HoleSize=0mil|Usage=FLASHONLY|Rotation=90.000|XOffset=0mil|YOffset=0mil|HoleType=Round|Shape=RoundedRectangle|*
%AMROUNDEDRECTD16*
21,1,0.03543,0.03406,0,0,90.0*
21,1,0.03012,0.03937,0,0,90.0*
1,1,0.00532,0.01703,0.01506*
1,1,0.00532,0.01703,-0.01506*
1,1,0.00532,-0.01703,-0.01506*
1,1,0.00532,-0.01703,0.01506*
%
%ADD16ROUNDEDRECTD16*%
G04:AMPARAMS|DCode=17|XSize=21.65mil|YSize=25.59mil|CornerRadius=1.62mil|HoleSize=0mil|Usage=FLASHONLY|Rotation=90.000|XOffset=0mil|YOffset=0mil|HoleType=Round|Shape=RoundedRectangle|*
%AMROUNDEDRECTD17*
21,1,0.02165,0.02234,0,0,90.0*
21,1,0.01841,0.02559,0,0,90.0*
1,1,0.00325,0.01117,0.00920*
1,1,0.00325,0.01117,-0.00920*
1,1,0.00325,-0.01117,-0.00920*
1,1,0.00325,-0.01117,0.00920*
%
%ADD17ROUNDEDRECTD17*%
G04:AMPARAMS|DCode=18|XSize=25.59mil|YSize=43.31mil|CornerRadius=1.92mil|HoleSize=0mil|Usage=FLASHONLY|Rotation=0.000|XOffset=0mil|YOffset=0mil|HoleType=Round|Shape=RoundedRectangle|*
%AMROUNDEDRECTD18*
21,1,0.02559,0.03947,0,0,0.0*
21,1,0.02175,0.04331,0,0,0.0*
1,1,0.00384,0.01088,-0.01973*
1,1,0.00384,-0.01088,-0.01973*
1,1,0.00384,-0.01088,0.01973*
1,1,0.00384,0.01088,0.01973*
%
%ADD18ROUNDEDRECTD18*%
G04:AMPARAMS|DCode=19|XSize=35.43mil|YSize=39.37mil|CornerRadius=2.66mil|HoleSize=0mil|Usage=FLASHONLY|Rotation=0.000|XOffset=0mil|YOffset=0mil|HoleType=Round|Shape=RoundedRectangle|*
%AMROUNDEDRECTD19*
21,1,0.03543,0.03406,0,0,0.0*
21,1,0.03012,0.03937,0,0,0.0*
1,1,0.00532,0.01506,-0.01703*
1,1,0.00532,-0.01506,-0.01703*
1,1,0.00532,-0.01506,0.01703*
1,1,0.00532,0.01506,0.01703*
%
%ADD19ROUNDEDRECTD19*%
%ADD20R,0.00500X0.00500*%
%ADD21R,0.01000X0.00500*%
G04:AMPARAMS|DCode=22|XSize=25.59mil|YSize=49.21mil|CornerRadius=0.64mil|HoleSize=0mil|Usage=FLASHONLY|Rotation=270.000|XOffset=0mil|YOffset=0mil|HoleType=Round|Shape=RoundedRectangle|*
%AMROUNDEDRECTD22*
21,1,0.02559,0.04793,0,0,270.0*
21,1,0.02431,0.04921,0,0,270.0*
1,1,0.00128,-0.02397,-0.01216*
1,1,0.00128,-0.02397,0.01216*
1,1,0.00128,0.02397,0.01216*
1,1,0.00128,0.02397,-0.01216*
%
%ADD22ROUNDEDRECTD22*%
G04:AMPARAMS|DCode=23|XSize=25.59mil|YSize=49.21mil|CornerRadius=0.64mil|HoleSize=0mil|Usage=FLASHONLY|Rotation=180.000|XOffset=0mil|YOffset=0mil|HoleType=Round|Shape=RoundedRectangle|*
%AMROUNDEDRECTD23*
21,1,0.02559,0.04793,0,0,180.0*
21,1,0.02431,0.04921,0,0,180.0*
1,1,0.00128,-0.01216,0.02397*
1,1,0.00128,0.01216,0.02397*
1,1,0.00128,0.01216,-0.02397*
1,1,0.00128,-0.01216,-0.02397*
%
%ADD23ROUNDEDRECTD23*%
G04:AMPARAMS|DCode=24|XSize=23.62mil|YSize=43.31mil|CornerRadius=1.77mil|HoleSize=0mil|Usage=FLASHONLY|Rotation=180.000|XOffset=0mil|YOffset=0mil|HoleType=Round|Shape=RoundedRectangle|*
%AMROUNDEDRECTD24*
21,1,0.02362,0.03976,0,0,180.0*
21,1,0.02008,0.04331,0,0,180.0*
1,1,0.00354,-0.01004,0.01988*
1,1,0.00354,0.01004,0.01988*
1,1,0.00354,0.01004,-0.01988*
1,1,0.00354,-0.01004,-0.01988*
%
%ADD24ROUNDEDRECTD24*%
G04:AMPARAMS|DCode=25|XSize=165.35mil|YSize=74.8mil|CornerRadius=5.61mil|HoleSize=0mil|Usage=FLASHONLY|Rotation=90.000|XOffset=0mil|YOffset=0mil|HoleType=Round|Shape=RoundedRectangle|*
%AMROUNDEDRECTD25*
21,1,0.16535,0.06358,0,0,90.0*
21,1,0.15413,0.07480,0,0,90.0*
1,1,0.01122,0.03179,0.07707*
1,1,0.01122,0.03179,-0.07707*
1,1,0.01122,-0.03179,-0.07707*
1,1,0.01122,-0.03179,0.07707*
%
%ADD25ROUNDEDRECTD25*%
G04:AMPARAMS|DCode=26|XSize=165.35mil|YSize=74.8mil|CornerRadius=5.61mil|HoleSize=0mil|Usage=FLASHONLY|Rotation=180.000|XOffset=0mil|YOffset=0mil|HoleType=Round|Shape=RoundedRectangle|*
%AMROUNDEDRECTD26*
21,1,0.16535,0.06358,0,0,180.0*
21,1,0.15413,0.07480,0,0,180.0*
1,1,0.01122,-0.07707,0.03179*
1,1,0.01122,0.07707,0.03179*
1,1,0.01122,0.07707,-0.03179*
1,1,0.01122,-0.07707,-0.03179*
%
%ADD26ROUNDEDRECTD26*%
G04:AMPARAMS|DCode=27|XSize=163.39mil|YSize=163.39mil|CornerRadius=1.63mil|HoleSize=0mil|Usage=FLASHONLY|Rotation=90.000|XOffset=0mil|YOffset=0mil|HoleType=Round|Shape=RoundedRectangle|*
%AMROUNDEDRECTD27*
21,1,0.16339,0.16012,0,0,90.0*
21,1,0.16012,0.16339,0,0,90.0*
1,1,0.00327,0.08006,0.08006*
1,1,0.00327,0.08006,-0.08006*
1,1,0.00327,-0.08006,-0.08006*
1,1,0.00327,-0.08006,0.08006*
%
%ADD27ROUNDEDRECTD27*%
G04:AMPARAMS|DCode=28|XSize=8.66mil|YSize=23.62mil|CornerRadius=1.95mil|HoleSize=0mil|Usage=FLASHONLY|Rotation=90.000|XOffset=0mil|YOffset=0mil|HoleType=Round|Shape=RoundedRectangle|*
%AMROUNDEDRECTD28*
21,1,0.00866,0.01972,0,0,90.0*
21,1,0.00476,0.02362,0,0,90.0*
1,1,0.00390,0.00986,0.00238*
1,1,0.00390,0.00986,-0.00238*
1,1,0.00390,-0.00986,-0.00238*
1,1,0.00390,-0.00986,0.00238*
%
%ADD28ROUNDEDRECTD28*%
G04:AMPARAMS|DCode=29|XSize=8.66mil|YSize=23.62mil|CornerRadius=1.95mil|HoleSize=0mil|Usage=FLASHONLY|Rotation=180.000|XOffset=0mil|YOffset=0mil|HoleType=Round|Shape=RoundedRectangle|*
%AMROUNDEDRECTD29*
21,1,0.00866,0.01972,0,0,180.0*
21,1,0.00476,0.02362,0,0,180.0*
1,1,0.00390,-0.00238,0.00986*
1,1,0.00390,0.00238,0.00986*
1,1,0.00390,0.00238,-0.00986*
1,1,0.00390,-0.00238,-0.00986*
%
%ADD29ROUNDEDRECTD29*%
%AMCUSTOMSHAPE51*
4,1,32,-0.08012,0.10630,-0.08012,0.09055,-0.08760,0.09055,-0.08760,-0.09055,-0.08012,-0.09055,-0.08012,-0.10630,-0.04862,-0.10630,-0.04862,-0.09055,0.01634,-0.09055,0.01634,-0.10630,0.04784,-0.10630,0.04784,-0.09055,0.08760,-0.09055,0.08760,-0.06201,0.06594,-0.06201,0.06594,-0.03740,0.08760,-0.03740,0.08760,-0.01221,0.06594,-0.01221,0.06594,0.01221,0.08760,0.01221,0.08760,0.03740,0.06594,0.03740,0.06594,0.06201,0.08760,0.06201,0.08760,0.09055,0.04784,0.09055,0.04784,0.10630,0.01634,0.10630,0.01634,0.09055,-0.04862,0.09055,-0.04862,0.10630,-0.08012,0.10630,0.0*%
%ADD51CUSTOMSHAPE51*%

%AMCUSTOMSHAPE52*
4,1,32,0.10630,0.08012,0.09055,0.08012,0.09055,0.08760,-0.09055,0.08760,-0.09055,0.08012,-0.10630,0.08012,-0.10630,0.04862,-0.09055,0.04862,-0.09055,-0.01634,-0.10630,-0.01634,-0.10630,-0.04784,-0.09055,-0.04784,-0.09055,-0.08760,-0.06201,-0.08760,-0.06201,-0.06594,-0.03740,-0.06594,-0.03740,-0.08760,-0.01221,-0.08760,-0.01221,-0.06594,0.01221,-0.06594,0.01221,-0.08760,0.03740,-0.08760,0.03740,-0.06594,0.06201,-0.06594,0.06201,-0.08760,0.09055,-0.08760,0.09055,-0.04784,0.10630,-0.04784,0.10630,-0.01634,0.09055,-0.01634,0.09055,0.04862,0.10630,0.04862,0.10630,0.08012,0.0*%
%ADD52CUSTOMSHAPE52*%

%AMCUSTOMSHAPE53*
4,1,32,0.08012,-0.10630,0.08012,-0.09055,0.08760,-0.09055,0.08760,0.09055,0.08012,0.09055,0.08012,0.10630,0.04862,0.10630,0.04862,0.09055,-0.01634,0.09055,-0.01634,0.10630,-0.04784,0.10630,-0.04784,0.09055,-0.08760,0.09055,-0.08760,0.06201,-0.06594,0.06201,-0.06594,0.03740,-0.08760,0.03740,-0.08760,0.01221,-0.06594,0.01221,-0.06594,-0.01221,-0.08760,-0.01221,-0.08760,-0.03740,-0.06594,-0.03740,-0.06594,-0.06201,-0.08760,-0.06201,-0.08760,-0.09055,-0.04784,-0.09055,-0.04784,-0.10630,-0.01634,-0.10630,-0.01634,-0.09055,0.04862,-0.09055,0.04862,-0.10630,0.08012,-0.10630,0.0*%
%ADD53CUSTOMSHAPE53*%

%AMCUSTOMSHAPE54*
4,1,32,-0.10630,-0.08012,-0.09055,-0.08012,-0.09055,-0.08760,0.09055,-0.08760,0.09055,-0.08012,0.10630,-0.08012,0.10630,-0.04862,0.09055,-0.04862,0.09055,0.01634,0.10630,0.01634,0.10630,0.04784,0.09055,0.04784,0.09055,0.08760,0.06201,0.08760,0.06201,0.06594,0.03740,0.06594,0.03740,0.08760,0.01221,0.08760,0.01221,0.06594,-0.01221,0.06594,-0.01221,0.08760,-0.03740,0.08760,-0.03740,0.06594,-0.06201,0.06594,-0.06201,0.08760,-0.09055,0.08760,-0.09055,0.04784,-0.10630,0.04784,-0.10630,0.01634,-0.09055,0.01634,-0.09055,-0.04862,-0.10630,-0.04862,-0.10630,-0.08012,0.0*%
%ADD54CUSTOMSHAPE54*%

%ADD55C,0.01181*%
%ADD56C,0.01968*%
%ADD57C,0.23622*%
%ADD58C,0.06299*%
%ADD59R,0.06299X0.06299*%
%ADD60R,0.10236X0.10236*%
%ADD61C,0.10236*%
%ADD62C,0.14567*%
G04:AMPARAMS|DCode=63|XSize=59.06mil|YSize=118.11mil|CornerRadius=14.76mil|HoleSize=0mil|Usage=FLASHONLY|Rotation=90.000|XOffset=0mil|YOffset=0mil|HoleType=Round|Shape=RoundedRectangle|*
%AMROUNDEDRECTD63*
21,1,0.05906,0.08858,0,0,90.0*
21,1,0.02953,0.11811,0,0,90.0*
1,1,0.02953,0.04429,0.01476*
1,1,0.02953,0.04429,-0.01476*
1,1,0.02953,-0.04429,-0.01476*
1,1,0.02953,-0.04429,0.01476*
%
%ADD63ROUNDEDRECTD63*%
%ADD64C,0.01968*%
G36*
X299213Y196048D02*
X300192D01*
X302134Y195792D01*
X304027Y195285D01*
X305837Y194535D01*
X307534Y193555D01*
X309088Y192363D01*
X310473Y190978D01*
X311666Y189423D01*
X312645Y187727D01*
X313395Y185917D01*
X313902Y184024D01*
X314158Y182082D01*
X314158Y181102D01*
X314158Y15748D01*
Y14769D01*
X313902Y12826D01*
X313395Y10934D01*
X312645Y9124D01*
X311666Y7427D01*
X310473Y5873D01*
X309088Y4487D01*
X307534Y3295D01*
X305837Y2315D01*
X304027Y1566D01*
X302134Y1058D01*
X300192Y803D01*
X14769D01*
X12826Y1058D01*
X10934Y1566D01*
X9124Y2315D01*
X7427Y3295D01*
X5873Y4487D01*
X4487Y5873D01*
X3295Y7427D01*
X2315Y9124D01*
X1566Y10934D01*
X1058Y12826D01*
X803Y14769D01*
Y15748D01*
X803Y181102D01*
Y182082D01*
X1058Y184024D01*
X1566Y185917D01*
X2315Y187727D01*
X3295Y189423D01*
X4487Y190978D01*
X5873Y192363D01*
X7427Y193555D01*
X9124Y194535D01*
X10934Y195285D01*
X12826Y195792D01*
X14769Y196048D01*
X15748Y196048D01*
X299213Y196048D01*
D02*
G37*
%LPC*%
G36*
X262500Y191486D02*
X262500Y191486D01*
X227854Y191486D01*
X214567D01*
X214184Y191328D01*
X214184Y191328D01*
X212511Y189654D01*
X212352Y189272D01*
X212352Y189272D01*
X212352Y165945D01*
X212352Y165945D01*
X212511Y165562D01*
X212511Y165562D01*
X213580Y164493D01*
X213427Y164124D01*
X205217D01*
X204834Y163965D01*
X204504Y163772D01*
X204368Y163829D01*
X192028D01*
X191645Y163670D01*
X191486Y163287D01*
Y157540D01*
X191485D01*
Y156890D01*
Y156240D01*
X191486D01*
Y150965D01*
X191645Y150582D01*
X192028Y150423D01*
X196660D01*
Y148529D01*
X194073Y145942D01*
X181496D01*
X181203Y145884D01*
X180955Y145718D01*
X164250Y129013D01*
X156361D01*
X156069Y128955D01*
X155821Y128789D01*
X152698Y125666D01*
X150908D01*
X150719Y125792D01*
X150448Y125846D01*
X148476D01*
X148205Y125792D01*
X147975Y125639D01*
X147821Y125409D01*
X147767Y125138D01*
Y124661D01*
X147821Y124390D01*
X147975Y124160D01*
X147981Y124156D01*
Y123675D01*
X147975Y123670D01*
X147821Y123440D01*
X147767Y123169D01*
Y122693D01*
X147821Y122422D01*
X147975Y122192D01*
X147981Y122187D01*
Y121706D01*
X147975Y121702D01*
X147821Y121472D01*
X147767Y121201D01*
Y120724D01*
X147821Y120453D01*
X147975Y120223D01*
X147981Y120219D01*
Y119738D01*
X147975Y119733D01*
X147821Y119503D01*
X147767Y119232D01*
Y118756D01*
X147821Y118485D01*
X147975Y118255D01*
X147981Y118250D01*
Y117769D01*
X147975Y117765D01*
X147821Y117535D01*
X147767Y117264D01*
Y116787D01*
X147821Y116516D01*
X147975Y116286D01*
X147981Y116282D01*
Y115801D01*
X147975Y115796D01*
X147821Y115566D01*
X147767Y115295D01*
Y114819D01*
X147821Y114548D01*
X147975Y114318D01*
X147981Y114313D01*
Y113832D01*
X147975Y113828D01*
X147821Y113598D01*
X147767Y113327D01*
Y112850D01*
X147821Y112579D01*
X147975Y112349D01*
X147981Y112345D01*
Y111864D01*
X147975Y111859D01*
X147821Y111629D01*
X147767Y111358D01*
Y110882D01*
X147821Y110611D01*
X147975Y110381D01*
X147981Y110376D01*
Y109895D01*
X147975Y109891D01*
X147821Y109661D01*
X147767Y109390D01*
Y108913D01*
X147821Y108642D01*
X147975Y108412D01*
X147981Y108408D01*
Y107927D01*
X147975Y107922D01*
X147821Y107692D01*
X147767Y107421D01*
Y106945D01*
X147821Y106674D01*
X147975Y106444D01*
X148205Y106290D01*
X148476Y106236D01*
X150448D01*
X150719Y106290D01*
X150911Y106418D01*
X152110D01*
X157592Y100936D01*
X157840Y100770D01*
X158133Y100712D01*
X190038D01*
X193323Y97426D01*
X193170Y97057D01*
X192035D01*
X191653Y96898D01*
X191494Y96516D01*
Y91004D01*
X191485D01*
Y90354D01*
Y89704D01*
X191494D01*
Y84193D01*
X191653Y83810D01*
X192035Y83652D01*
X204376D01*
X204452Y83683D01*
X204539Y83476D01*
X204539Y83476D01*
X206015Y81999D01*
X206398Y81841D01*
X206398Y81841D01*
X219685D01*
X220068Y81999D01*
X220226Y82382D01*
Y82472D01*
X220232Y82485D01*
Y84916D01*
X220226Y84929D01*
Y87472D01*
X220232Y87485D01*
Y89916D01*
X220226Y89929D01*
Y92472D01*
X220232Y92485D01*
Y94916D01*
X220226Y94929D01*
Y95472D01*
X220226Y95472D01*
X220068Y95855D01*
X220068Y95855D01*
X218493Y97430D01*
X218493Y97430D01*
X218110Y97588D01*
X218110Y97588D01*
X205217Y97588D01*
X204834Y97430D01*
X204834Y97430D01*
X204539Y97135D01*
X204487Y97011D01*
X204376Y97057D01*
X197269D01*
X191309Y103017D01*
X191061Y103183D01*
X190769Y103241D01*
X158864D01*
X152434Y109671D01*
X152186Y109837D01*
X151893Y109895D01*
X151745Y110266D01*
X151750Y110295D01*
X152020Y110476D01*
X152436Y110892D01*
X153420D01*
X156590Y107722D01*
X156886Y107524D01*
X157234Y107455D01*
X159723D01*
Y105970D01*
X159775Y105711D01*
X159921Y105492D01*
X160140Y105345D01*
X160399Y105294D01*
X162239D01*
X162498Y105345D01*
X162717Y105492D01*
X162863Y105711D01*
X162915Y105970D01*
Y108204D01*
X162869Y108433D01*
X162872Y108476D01*
X163096Y108833D01*
X163478D01*
X163703Y108476D01*
X163706Y108433D01*
X163660Y108204D01*
Y105970D01*
X163712Y105711D01*
X163858Y105492D01*
X164077Y105345D01*
X164336Y105294D01*
X166176D01*
X166435Y105345D01*
X166654Y105492D01*
X166708Y105573D01*
X190220D01*
X197650Y98142D01*
X197650Y98142D01*
X198141Y97815D01*
X198721Y97699D01*
X198721Y97699D01*
X201772D01*
X201918Y97728D01*
X202067D01*
X202205Y97785D01*
X202351Y97815D01*
X202475Y97897D01*
X202612Y97954D01*
X202718Y98060D01*
X202842Y98142D01*
X202925Y98267D01*
X203030Y98372D01*
X203087Y98510D01*
X203170Y98633D01*
X203199Y98780D01*
X203256Y98917D01*
Y99066D01*
X203285Y99213D01*
X203256Y99359D01*
Y99508D01*
X203199Y99646D01*
X203170Y99792D01*
X203087Y99916D01*
X203030Y100053D01*
X202925Y100159D01*
X202842Y100283D01*
X202718Y100365D01*
X202680Y100404D01*
X202641Y100640D01*
X202680Y100876D01*
X202718Y100914D01*
X202842Y100997D01*
X202925Y101121D01*
X203030Y101226D01*
X203087Y101364D01*
X203170Y101488D01*
X203199Y101634D01*
X203256Y101772D01*
Y101921D01*
X203285Y102067D01*
X203256Y102213D01*
Y102362D01*
X203199Y102500D01*
X203170Y102646D01*
X203087Y102770D01*
X203030Y102908D01*
X202925Y103013D01*
X202842Y103137D01*
X202718Y103220D01*
X202680Y103258D01*
X202641Y103494D01*
X202680Y103730D01*
X202718Y103768D01*
X202842Y103851D01*
X202925Y103975D01*
X203030Y104080D01*
X203087Y104218D01*
X203170Y104342D01*
X203199Y104488D01*
X203256Y104626D01*
Y104775D01*
X203285Y104921D01*
X203256Y105068D01*
Y105217D01*
X203199Y105354D01*
X203170Y105500D01*
X203087Y105624D01*
X203030Y105762D01*
X202925Y105867D01*
X202842Y105991D01*
X202718Y106074D01*
X202612Y106179D01*
X202475Y106237D01*
X202351Y106319D01*
X202205Y106349D01*
X202067Y106405D01*
X201918D01*
X201772Y106435D01*
X200621D01*
X193485Y113570D01*
X192994Y113898D01*
X192415Y114013D01*
X192415Y114013D01*
X166708D01*
X166654Y114095D01*
X166435Y114241D01*
X166176Y114293D01*
X164336D01*
X164077Y114241D01*
X163858Y114095D01*
X163712Y113876D01*
X163660Y113617D01*
Y111383D01*
X163712Y111124D01*
X163758Y111055D01*
X163567Y110655D01*
X163008D01*
X162817Y111055D01*
X162863Y111124D01*
X162915Y111383D01*
Y113617D01*
X162863Y113876D01*
X162717Y114095D01*
X162498Y114241D01*
X162239Y114293D01*
X160399D01*
X160140Y114241D01*
X159921Y114095D01*
X159775Y113876D01*
X159723Y113617D01*
Y111996D01*
X159670Y111943D01*
X158637D01*
X155558Y115022D01*
X155262Y115220D01*
X154913Y115289D01*
X152436D01*
X152022Y115703D01*
X151776Y115868D01*
X151722Y116107D01*
X151718Y116311D01*
X151823Y116381D01*
X152238Y116795D01*
X154419D01*
X154768Y116865D01*
X155063Y117062D01*
X155068Y117069D01*
X156273Y118274D01*
X159723D01*
Y116796D01*
X159775Y116538D01*
X159921Y116319D01*
X160140Y116172D01*
X160399Y116121D01*
X162239D01*
X162498Y116172D01*
X162717Y116319D01*
X162863Y116538D01*
X162915Y116796D01*
Y119030D01*
X162900Y119103D01*
X163133Y119460D01*
X163287Y119487D01*
X163442Y119460D01*
X163675Y119103D01*
X163660Y119030D01*
Y116796D01*
X163712Y116538D01*
X163858Y116319D01*
X164077Y116172D01*
X164336Y116121D01*
X166176D01*
X166435Y116172D01*
X166654Y116319D01*
X166708Y116400D01*
X172139D01*
X172140Y116400D01*
X172719Y116515D01*
X173210Y116843D01*
X189188Y132821D01*
X199486D01*
X199486Y132821D01*
X200065Y132937D01*
X200556Y133265D01*
X203861Y136569D01*
X217063D01*
X217209Y136598D01*
X217358D01*
X217496Y136655D01*
X217642Y136685D01*
X217766Y136767D01*
X217903Y136824D01*
X218009Y136930D01*
X218133Y137013D01*
X218216Y137136D01*
X218321Y137242D01*
X218378Y137380D01*
X218461Y137504D01*
X218490Y137650D01*
X218547Y137787D01*
Y137936D01*
X218576Y138083D01*
X218547Y138229D01*
Y138378D01*
X218490Y138516D01*
X218461Y138662D01*
X218378Y138786D01*
X218321Y138923D01*
X218216Y139029D01*
X218192Y139065D01*
X218143Y139283D01*
X218165Y139581D01*
X218180Y139605D01*
X218286Y139710D01*
X218343Y139848D01*
X218426Y139972D01*
X218455Y140118D01*
X218512Y140256D01*
Y140405D01*
X218541Y140551D01*
X218512Y140697D01*
Y140846D01*
X218455Y140984D01*
X218426Y141130D01*
X218389Y141185D01*
X218452Y141386D01*
X218616Y141585D01*
X218996D01*
X219379Y141743D01*
X219379Y141743D01*
X220068Y142432D01*
X220068Y142432D01*
X220133Y142591D01*
X220226Y142815D01*
X220226Y142815D01*
Y144028D01*
X220232Y144040D01*
Y146472D01*
X220226Y146484D01*
Y146555D01*
X220068Y146938D01*
X219685Y147096D01*
X210925D01*
X210542Y146938D01*
X210542Y146938D01*
X209854Y146249D01*
X209695Y145866D01*
X209695Y145866D01*
Y144624D01*
X201280D01*
X201279Y144624D01*
X200700Y144508D01*
X200209Y144180D01*
X200209Y144180D01*
X196814Y140785D01*
X186516D01*
X186516Y140785D01*
X185937Y140670D01*
X185446Y140342D01*
X185446Y140342D01*
X169944Y124840D01*
X166708D01*
X166654Y124922D01*
X166435Y125068D01*
X166176Y125119D01*
X164336D01*
X164077Y125068D01*
X163858Y124922D01*
X163712Y124702D01*
X163660Y124444D01*
Y122210D01*
X163712Y121951D01*
X163824Y121784D01*
X163765Y121568D01*
X163660Y121384D01*
X162915D01*
X162810Y121568D01*
X162751Y121784D01*
X162863Y121951D01*
X162915Y122210D01*
Y124444D01*
X162863Y124702D01*
X162717Y124922D01*
X162498Y125068D01*
X162239Y125119D01*
X160399D01*
X160140Y125068D01*
X159921Y124922D01*
X159775Y124702D01*
X159723Y124444D01*
Y122823D01*
X159571Y122671D01*
X154829D01*
X154480Y122602D01*
X154185Y122404D01*
X152973Y121193D01*
X152340D01*
X151926Y121607D01*
X151684Y121768D01*
X151690Y121984D01*
X151751Y122168D01*
X152461D01*
X152753Y122227D01*
X153001Y122392D01*
X157092Y126483D01*
X164981D01*
X165274Y126542D01*
X165522Y126707D01*
X182227Y143412D01*
X194804D01*
X195097Y143471D01*
X195345Y143636D01*
X198966Y147258D01*
X199132Y147506D01*
X199190Y147798D01*
Y150423D01*
X204368D01*
X204403Y150438D01*
X204539Y150109D01*
X206113Y148535D01*
X206113Y148535D01*
X206496Y148376D01*
X206496Y148376D01*
X219685Y148376D01*
X220068Y148535D01*
X220226Y148917D01*
Y149028D01*
X220232Y149040D01*
Y151471D01*
X220226Y151484D01*
Y154028D01*
X220232Y154040D01*
Y156472D01*
X220226Y156484D01*
Y159028D01*
X220232Y159040D01*
Y161471D01*
X220226Y161484D01*
Y162008D01*
X220226Y162008D01*
X220068Y162391D01*
X220068Y162391D01*
X219294Y163164D01*
X219447Y163534D01*
X222777D01*
X222930Y163164D01*
X222846Y163080D01*
X222687Y162697D01*
X222687Y162697D01*
X222687Y142618D01*
X222846Y142235D01*
X223338Y141743D01*
X223338Y141743D01*
X223721Y141585D01*
X223721Y141585D01*
X234421Y141585D01*
X261133Y114873D01*
X261516Y114715D01*
X261516Y114715D01*
X283563D01*
X283946Y114873D01*
X283946Y114873D01*
X287194Y118121D01*
X287352Y118504D01*
X287352Y118504D01*
Y136909D01*
X287352Y136909D01*
X287194Y137292D01*
X287194Y137292D01*
X278434Y146052D01*
X278051Y146211D01*
X278051Y146211D01*
X266760Y146211D01*
X258612Y154358D01*
Y162008D01*
X258612Y162008D01*
X258454Y162391D01*
X258453Y162391D01*
X257680Y163164D01*
X257833Y163534D01*
X264173D01*
X264173Y163534D01*
X264556Y163692D01*
X264556Y163692D01*
X265343Y164479D01*
X265502Y164862D01*
X265502Y164862D01*
X265502Y188484D01*
X265502Y188484D01*
X265343Y188867D01*
X265343Y188867D01*
X262883Y191328D01*
X262771Y191374D01*
X262500Y191486D01*
D02*
G37*
G36*
X186122Y183374D02*
X185531D01*
X184986Y183148D01*
X184569Y182730D01*
X184343Y182185D01*
Y181595D01*
X184569Y181049D01*
X184986Y180631D01*
X185531Y180405D01*
X186122D01*
X186668Y180631D01*
X187085Y181049D01*
X187311Y181595D01*
Y182185D01*
X187085Y182730D01*
X186668Y183148D01*
X186122Y183374D01*
D02*
G37*
G36*
X182579D02*
X181988D01*
X181443Y183148D01*
X181025Y182730D01*
X180799Y182185D01*
Y181595D01*
X181025Y181049D01*
X181443Y180631D01*
X181988Y180405D01*
X182579D01*
X183124Y180631D01*
X183542Y181049D01*
X183768Y181595D01*
Y182185D01*
X183542Y182730D01*
X183124Y183148D01*
X182579Y183374D01*
D02*
G37*
G36*
X116176Y178891D02*
X115259D01*
Y177562D01*
X116785D01*
Y178282D01*
X116607Y178713D01*
X116176Y178891D01*
D02*
G37*
G36*
X110763D02*
X109846D01*
Y177562D01*
X111372D01*
Y178282D01*
X111193Y178713D01*
X110763Y178891D01*
D02*
G37*
G36*
X114859D02*
X113942D01*
X113512Y178713D01*
X113333Y178282D01*
Y177562D01*
X114859D01*
Y178891D01*
D02*
G37*
G36*
X109446D02*
X108528D01*
X108098Y178713D01*
X107920Y178282D01*
Y177562D01*
X109446D01*
Y178891D01*
D02*
G37*
G36*
X81648Y180872D02*
X81381D01*
Y177523D01*
X84731D01*
Y177790D01*
X84489Y178693D01*
X84022Y179502D01*
X83361Y180163D01*
X82551Y180631D01*
X81648Y180872D01*
D02*
G37*
G36*
X80981D02*
X80714D01*
X79811Y180631D01*
X79002Y180163D01*
X78341Y179502D01*
X77873Y178693D01*
X77631Y177790D01*
Y177523D01*
X80981D01*
Y180872D01*
D02*
G37*
G36*
X99149Y178793D02*
X98232D01*
Y177464D01*
X99757D01*
Y178184D01*
X99579Y178614D01*
X99149Y178793D01*
D02*
G37*
G36*
X93735D02*
X92818D01*
Y177464D01*
X94344D01*
Y178184D01*
X94166Y178614D01*
X93735Y178793D01*
D02*
G37*
G36*
X97831D02*
X96914D01*
X96484Y178614D01*
X96306Y178184D01*
Y177464D01*
X97831D01*
Y178793D01*
D02*
G37*
G36*
X92418D02*
X91501D01*
X91070Y178614D01*
X90892Y178184D01*
Y177464D01*
X92418D01*
Y178793D01*
D02*
G37*
G36*
X186122Y179831D02*
X185531D01*
X184986Y179605D01*
X184569Y179187D01*
X184343Y178642D01*
Y178051D01*
X184569Y177506D01*
X184986Y177088D01*
X185531Y176862D01*
X186122D01*
X186668Y177088D01*
X187085Y177506D01*
X187311Y178051D01*
Y178642D01*
X187085Y179187D01*
X186668Y179605D01*
X186122Y179831D01*
D02*
G37*
G36*
X182579D02*
X181988D01*
X181443Y179605D01*
X181025Y179187D01*
X180799Y178642D01*
Y178051D01*
X181025Y177506D01*
X181443Y177088D01*
X181988Y176862D01*
X182579D01*
X183124Y177088D01*
X183542Y177506D01*
X183768Y178051D01*
Y178642D01*
X183542Y179187D01*
X183124Y179605D01*
X182579Y179831D01*
D02*
G37*
G36*
X116785Y177162D02*
X115259D01*
Y175833D01*
X116176D01*
X116607Y176012D01*
X116785Y176442D01*
Y177162D01*
D02*
G37*
G36*
X114859D02*
X113333D01*
Y176442D01*
X113512Y176012D01*
X113942Y175833D01*
X114859D01*
Y177162D01*
D02*
G37*
G36*
X111372D02*
X109846D01*
Y175833D01*
X110763D01*
X111193Y176012D01*
X111372Y176442D01*
Y177162D01*
D02*
G37*
G36*
X109446D02*
X107920D01*
Y176442D01*
X108098Y176012D01*
X108528Y175833D01*
X109446D01*
Y177162D01*
D02*
G37*
G36*
X99757Y177064D02*
X98232D01*
Y175735D01*
X99149D01*
X99579Y175913D01*
X99757Y176344D01*
Y177064D01*
D02*
G37*
G36*
X97831D02*
X96306D01*
Y176344D01*
X96484Y175913D01*
X96914Y175735D01*
X97831D01*
Y177064D01*
D02*
G37*
G36*
X94344D02*
X92818D01*
Y175735D01*
X93735D01*
X94166Y175913D01*
X94344Y176344D01*
Y177064D01*
D02*
G37*
G36*
X92418D02*
X90892D01*
Y176344D01*
X91070Y175913D01*
X91501Y175735D01*
X92418D01*
Y177064D01*
D02*
G37*
G36*
X84731Y177123D02*
X81381D01*
Y173773D01*
X81648D01*
X82551Y174015D01*
X83361Y174482D01*
X84022Y175143D01*
X84489Y175953D01*
X84731Y176856D01*
Y177123D01*
D02*
G37*
G36*
X80981D02*
X77631D01*
Y176856D01*
X77873Y175953D01*
X78341Y175143D01*
X79002Y174482D01*
X79811Y174015D01*
X80714Y173773D01*
X80981D01*
Y177123D01*
D02*
G37*
G36*
X104940Y183798D02*
X76892D01*
X76599Y183740D01*
X76351Y183574D01*
X73167Y180390D01*
X72590Y180724D01*
X71662Y180972D01*
X70701D01*
X69772Y180724D01*
X68940Y180243D01*
X68261Y179564D01*
X67780Y178732D01*
X67532Y177803D01*
Y176842D01*
X67780Y175914D01*
X68261Y175082D01*
X68940Y174402D01*
X69772Y173922D01*
X70701Y173673D01*
X71662D01*
X72590Y173922D01*
X73422Y174402D01*
X74102Y175082D01*
X74582Y175914D01*
X74831Y176842D01*
Y177803D01*
X74582Y178732D01*
X74249Y179309D01*
X77209Y182269D01*
X88756D01*
X88811Y182109D01*
X88823Y181869D01*
X88633Y181741D01*
X86664Y179773D01*
X86498Y179525D01*
X86440Y179232D01*
Y174628D01*
X84935Y173123D01*
X68116D01*
X66513Y174726D01*
Y178937D01*
X66513Y178937D01*
X66454Y179230D01*
X66289Y179478D01*
X66289Y179478D01*
X63927Y181840D01*
X63678Y182006D01*
X63386Y182064D01*
X55216D01*
X54924Y182006D01*
X54676Y181840D01*
X53205Y180369D01*
X52590Y180724D01*
X51662Y180972D01*
X50701D01*
X49772Y180724D01*
X48940Y180243D01*
X48261Y179564D01*
X47780Y178732D01*
X47532Y177803D01*
Y176842D01*
X47780Y175914D01*
X48261Y175082D01*
X48940Y174402D01*
X49772Y173922D01*
X50701Y173673D01*
X51662D01*
X52590Y173922D01*
X53422Y174402D01*
X54102Y175082D01*
X54582Y175914D01*
X54831Y176842D01*
Y177803D01*
X54582Y178732D01*
X54270Y179271D01*
X55533Y180535D01*
X58678D01*
X58832Y180134D01*
X58261Y179564D01*
X57780Y178732D01*
X57531Y177803D01*
Y176842D01*
X57780Y175914D01*
X58261Y175082D01*
X58940Y174402D01*
X59772Y173922D01*
X60701Y173673D01*
X61662D01*
X62590Y173922D01*
X63167Y174255D01*
X66605Y170818D01*
X66853Y170652D01*
X67146Y170594D01*
X68820D01*
X68891Y170194D01*
X68261Y169564D01*
X67780Y168731D01*
X67532Y167803D01*
Y166842D01*
X67780Y165914D01*
X68261Y165082D01*
X68940Y164402D01*
X69772Y163922D01*
X70701Y163673D01*
X71662D01*
X72590Y163922D01*
X73167Y164255D01*
X74855Y162567D01*
X74702Y162198D01*
X67388D01*
X64249Y165337D01*
X64582Y165914D01*
X64831Y166842D01*
Y167803D01*
X64582Y168731D01*
X64101Y169564D01*
X63422Y170243D01*
X62590Y170724D01*
X61662Y170972D01*
X60701D01*
X59772Y170724D01*
X58940Y170243D01*
X58261Y169564D01*
X57780Y168731D01*
X57531Y167803D01*
Y166842D01*
X57780Y165914D01*
X58261Y165082D01*
X58940Y164402D01*
X59772Y163922D01*
X60701Y163673D01*
X61662D01*
X62590Y163922D01*
X63167Y164255D01*
X65855Y161567D01*
X65702Y161198D01*
X58388D01*
X54831Y164755D01*
Y170972D01*
X47532D01*
Y163673D01*
X53749D01*
X57530Y159892D01*
X57530Y159892D01*
X57778Y159727D01*
X58071Y159668D01*
X90530D01*
X90924Y159274D01*
Y157446D01*
X90975Y157187D01*
X91122Y156968D01*
X91341Y156822D01*
X91599Y156771D01*
X91755D01*
Y154942D01*
X91599D01*
X91341Y154891D01*
X91122Y154744D01*
X90975Y154525D01*
X90924Y154267D01*
Y152032D01*
X90975Y151774D01*
X91122Y151555D01*
X91341Y151409D01*
X91599Y151357D01*
X93440D01*
X93698Y151409D01*
X93918Y151555D01*
X94064Y151774D01*
X94115Y152032D01*
Y154267D01*
X94064Y154525D01*
X93918Y154744D01*
X93698Y154891D01*
X93440Y154942D01*
X93284D01*
Y156771D01*
X93440D01*
X93698Y156822D01*
X93918Y156968D01*
X94064Y157187D01*
X94115Y157446D01*
Y159680D01*
X94064Y159939D01*
X93918Y160158D01*
X93752Y160268D01*
X93757Y160482D01*
X93818Y160668D01*
X95487D01*
X95536Y160289D01*
X95106Y160111D01*
X94928Y159680D01*
Y158763D01*
X96457D01*
X97986D01*
Y159680D01*
X97807Y160111D01*
X97377Y160289D01*
X97426Y160668D01*
X99569D01*
X100963Y159274D01*
Y157446D01*
X101015Y157187D01*
X101161Y156968D01*
X101380Y156822D01*
X101639Y156771D01*
X101794D01*
Y154942D01*
X101639D01*
X101380Y154891D01*
X101161Y154744D01*
X101015Y154525D01*
X100963Y154267D01*
Y152032D01*
X101015Y151774D01*
X101161Y151555D01*
X101380Y151409D01*
X101639Y151357D01*
X103479D01*
X103738Y151409D01*
X103957Y151555D01*
X104103Y151774D01*
X104155Y152032D01*
Y154267D01*
X104103Y154525D01*
X103957Y154744D01*
X103738Y154891D01*
X103479Y154942D01*
X103324D01*
Y156771D01*
X103479D01*
X103738Y156822D01*
X103957Y156968D01*
X104103Y157187D01*
X104155Y157446D01*
Y159680D01*
X104103Y159939D01*
X103957Y160158D01*
X103738Y160304D01*
X103479Y160355D01*
X102045D01*
X101102Y161299D01*
X101255Y161668D01*
X108510D01*
X110904Y159274D01*
Y157446D01*
X110956Y157187D01*
X111102Y156968D01*
X111321Y156822D01*
X111580Y156771D01*
X111735D01*
Y154942D01*
X111580D01*
X111321Y154891D01*
X111102Y154744D01*
X110956Y154525D01*
X110904Y154267D01*
Y152032D01*
X110956Y151774D01*
X111102Y151555D01*
X111321Y151409D01*
X111580Y151357D01*
X113420D01*
X113679Y151409D01*
X113898Y151555D01*
X114044Y151774D01*
X114096Y152032D01*
Y154267D01*
X114044Y154525D01*
X113898Y154744D01*
X113679Y154891D01*
X113420Y154942D01*
X113265D01*
Y156771D01*
X113420D01*
X113679Y156822D01*
X113898Y156968D01*
X114044Y157187D01*
X114096Y157446D01*
Y159680D01*
X114044Y159939D01*
X113898Y160158D01*
X113679Y160304D01*
X113420Y160355D01*
X111986D01*
X109368Y162974D01*
X109119Y163140D01*
X108827Y163198D01*
X104741D01*
X104575Y163598D01*
X104703Y163726D01*
X104929Y164272D01*
Y164862D01*
X104703Y165408D01*
X104488Y165622D01*
X104526Y165828D01*
X104639Y166038D01*
X104821Y166074D01*
X105040Y166220D01*
X105186Y166439D01*
X105237Y166698D01*
Y168538D01*
X105186Y168797D01*
X105040Y169016D01*
X104821Y169162D01*
X104562Y169214D01*
X102328D01*
X102069Y169162D01*
X101850Y169016D01*
X101704Y168797D01*
X101652Y168538D01*
Y166698D01*
X101704Y166439D01*
X101850Y166220D01*
X102069Y166074D01*
X102251Y166038D01*
X102364Y165828D01*
X102401Y165622D01*
X102187Y165408D01*
X101961Y164862D01*
Y164272D01*
X102187Y163726D01*
X102315Y163598D01*
X102149Y163198D01*
X76388D01*
X74249Y165337D01*
X74582Y165914D01*
X74831Y166842D01*
Y167803D01*
X74582Y168731D01*
X74102Y169564D01*
X73472Y170194D01*
X73542Y170594D01*
X78974D01*
X79078Y170207D01*
X79002Y170163D01*
X78341Y169502D01*
X77873Y168693D01*
X77631Y167790D01*
Y167523D01*
X84731D01*
Y167790D01*
X84489Y168693D01*
X84022Y169502D01*
X83361Y170163D01*
X83284Y170207D01*
X83388Y170594D01*
X90834D01*
X90877Y170376D01*
X91023Y170157D01*
X91242Y170011D01*
X91501Y169959D01*
X93735D01*
X93994Y170011D01*
X94213Y170157D01*
X94359Y170376D01*
X94411Y170635D01*
Y170790D01*
X96239D01*
Y170635D01*
X96290Y170376D01*
X96437Y170157D01*
X96656Y170011D01*
X96914Y169959D01*
X99149D01*
X99407Y170011D01*
X99626Y170157D01*
X99773Y170376D01*
X99824Y170635D01*
Y170790D01*
X101652D01*
Y170635D01*
X101704Y170376D01*
X101850Y170157D01*
X102069Y170011D01*
X102328Y169959D01*
X104562D01*
X104821Y170011D01*
X105040Y170157D01*
X105186Y170376D01*
X105237Y170635D01*
Y172475D01*
X105186Y172734D01*
X105040Y172953D01*
X104821Y173099D01*
X104803Y173103D01*
X104671Y173537D01*
X104703Y173569D01*
X104929Y174114D01*
Y174705D01*
X104703Y175250D01*
X104671Y175282D01*
X104803Y175716D01*
X104821Y175719D01*
X105040Y175866D01*
X105186Y176085D01*
X105237Y176344D01*
Y178184D01*
X105186Y178443D01*
X105040Y178662D01*
X104821Y178808D01*
X104562Y178859D01*
X102328D01*
X102069Y178808D01*
X101850Y178662D01*
X101704Y178443D01*
X101652Y178184D01*
Y176344D01*
X101704Y176085D01*
X101850Y175866D01*
X102069Y175719D01*
X102087Y175716D01*
X102218Y175282D01*
X102187Y175250D01*
X101961Y174705D01*
Y174114D01*
X102187Y173569D01*
X102218Y173537D01*
X102087Y173103D01*
X102069Y173099D01*
X101850Y172953D01*
X101704Y172734D01*
X101652Y172475D01*
Y172320D01*
X99824D01*
Y172475D01*
X99773Y172734D01*
X99626Y172953D01*
X99407Y173099D01*
X99149Y173151D01*
X96914D01*
X96656Y173099D01*
X96437Y172953D01*
X96290Y172734D01*
X96239Y172475D01*
Y172320D01*
X94411D01*
Y172475D01*
X94359Y172734D01*
X94213Y172953D01*
X93994Y173099D01*
X93735Y173151D01*
X91501D01*
X91242Y173099D01*
X91023Y172953D01*
X90877Y172734D01*
X90826Y172475D01*
Y172123D01*
X86621D01*
X86468Y172493D01*
X87745Y173770D01*
X87911Y174018D01*
X87969Y174311D01*
Y178916D01*
X89490Y180436D01*
X90826D01*
Y180280D01*
X90877Y180022D01*
X91023Y179803D01*
X91242Y179657D01*
X91501Y179605D01*
X93735D01*
X93994Y179657D01*
X94213Y179803D01*
X94359Y180022D01*
X94411Y180280D01*
Y180436D01*
X96239D01*
Y180280D01*
X96290Y180022D01*
X96437Y179803D01*
X96656Y179657D01*
X96914Y179605D01*
X99149D01*
X99407Y179657D01*
X99626Y179803D01*
X99773Y180022D01*
X99824Y180280D01*
Y180436D01*
X101652D01*
Y180280D01*
X101704Y180022D01*
X101850Y179803D01*
X102069Y179657D01*
X102328Y179605D01*
X104562D01*
X104821Y179657D01*
X105040Y179803D01*
X105186Y180022D01*
X105237Y180280D01*
Y181132D01*
X105607Y181285D01*
X106133Y180759D01*
X106381Y180593D01*
X106674Y180535D01*
X107853D01*
Y180379D01*
X107905Y180121D01*
X108051Y179901D01*
X108270Y179755D01*
X108528Y179704D01*
X110763D01*
X111021Y179755D01*
X111240Y179901D01*
X111387Y180121D01*
X111438Y180379D01*
Y180535D01*
X113267D01*
Y180379D01*
X113318Y180121D01*
X113464Y179901D01*
X113683Y179755D01*
X113942Y179704D01*
X116176D01*
X116435Y179755D01*
X116654Y179901D01*
X116800Y180121D01*
X116852Y180379D01*
Y180535D01*
X118680D01*
Y180379D01*
X118731Y180121D01*
X118878Y179901D01*
X119097Y179755D01*
X119355Y179704D01*
X121590D01*
X121848Y179755D01*
X122067Y179901D01*
X122213Y180121D01*
X122265Y180379D01*
Y182220D01*
X122213Y182478D01*
X122067Y182697D01*
X121848Y182843D01*
X121590Y182895D01*
X119355D01*
X119097Y182843D01*
X118878Y182697D01*
X118731Y182478D01*
X118680Y182220D01*
Y182064D01*
X116852D01*
Y182220D01*
X116800Y182478D01*
X116654Y182697D01*
X116435Y182843D01*
X116176Y182895D01*
X113942D01*
X113683Y182843D01*
X113464Y182697D01*
X113318Y182478D01*
X113267Y182220D01*
Y182064D01*
X111438D01*
Y182220D01*
X111387Y182478D01*
X111240Y182697D01*
X111021Y182843D01*
X110763Y182895D01*
X108528D01*
X108270Y182843D01*
X108051Y182697D01*
X107905Y182478D01*
X107853Y182220D01*
Y182064D01*
X106991D01*
X105481Y183574D01*
X105233Y183740D01*
X104940Y183798D01*
D02*
G37*
G36*
X121590Y178958D02*
X119355D01*
X119097Y178906D01*
X118878Y178760D01*
X118731Y178541D01*
X118680Y178282D01*
Y176442D01*
X118731Y176183D01*
X118878Y175964D01*
X119097Y175818D01*
X119114Y175814D01*
X119246Y175381D01*
X119214Y175349D01*
X118988Y174803D01*
Y174213D01*
X119214Y173667D01*
X119632Y173250D01*
X120177Y173024D01*
X120768D01*
X121313Y173250D01*
X121731Y173667D01*
X121957Y174213D01*
Y174803D01*
X121731Y175349D01*
X121699Y175381D01*
X121831Y175814D01*
X121848Y175818D01*
X122067Y175964D01*
X122213Y176183D01*
X122265Y176442D01*
Y178282D01*
X122213Y178541D01*
X122067Y178760D01*
X121848Y178906D01*
X121590Y178958D01*
D02*
G37*
G36*
X168307Y189124D02*
X168307Y189124D01*
X159187D01*
X158804Y188965D01*
X158804Y188965D01*
X158476Y188637D01*
X158317Y188254D01*
X158317Y188254D01*
Y172343D01*
X158476Y171960D01*
X158476Y171960D01*
X158771Y171665D01*
X158771Y171665D01*
X158929Y171599D01*
X159153Y171506D01*
X159153Y171506D01*
X168307D01*
X168690Y171665D01*
X169477Y172452D01*
X169477Y172452D01*
X169636Y172835D01*
X169636Y172835D01*
X169636Y187795D01*
X169477Y188178D01*
X169477Y188178D01*
X168690Y188965D01*
X168690Y188965D01*
X168578Y189012D01*
X168307Y189124D01*
D02*
G37*
G36*
X99149Y169147D02*
X98232D01*
Y167818D01*
X99757D01*
Y168538D01*
X99579Y168969D01*
X99149Y169147D01*
D02*
G37*
G36*
X93735D02*
X92818D01*
Y167818D01*
X94344D01*
Y168538D01*
X94166Y168969D01*
X93735Y169147D01*
D02*
G37*
G36*
X97831D02*
X96914D01*
X96484Y168969D01*
X96306Y168538D01*
Y167818D01*
X97831D01*
Y169147D01*
D02*
G37*
G36*
X92418D02*
X91501D01*
X91070Y168969D01*
X90892Y168538D01*
Y167818D01*
X92418D01*
Y169147D01*
D02*
G37*
G36*
X159744Y169595D02*
X159154D01*
X158608Y169369D01*
X158191Y168951D01*
X157965Y168405D01*
Y167815D01*
X158191Y167270D01*
X158608Y166852D01*
X159154Y166626D01*
X159744D01*
X160290Y166852D01*
X160707Y167270D01*
X160933Y167815D01*
Y168405D01*
X160707Y168951D01*
X160290Y169369D01*
X159744Y169595D01*
D02*
G37*
G36*
X156201D02*
X155610D01*
X155065Y169369D01*
X154647Y168951D01*
X154421Y168405D01*
Y167815D01*
X154647Y167270D01*
X155065Y166852D01*
X155610Y166626D01*
X156201D01*
X156746Y166852D01*
X157164Y167270D01*
X157390Y167815D01*
Y168405D01*
X157164Y168951D01*
X156746Y169369D01*
X156201Y169595D01*
D02*
G37*
G36*
X99757Y167418D02*
X98232D01*
Y166089D01*
X99149D01*
X99579Y166267D01*
X99757Y166698D01*
Y167418D01*
D02*
G37*
G36*
X97831D02*
X96306D01*
Y166698D01*
X96484Y166267D01*
X96914Y166089D01*
X97831D01*
Y167418D01*
D02*
G37*
G36*
X94344D02*
X92818D01*
Y166089D01*
X93735D01*
X94166Y166267D01*
X94344Y166698D01*
Y167418D01*
D02*
G37*
G36*
X92418D02*
X90892D01*
Y166698D01*
X91070Y166267D01*
X91501Y166089D01*
X92418D01*
Y167418D01*
D02*
G37*
G36*
X296245Y189476D02*
X294307D01*
X292393Y189173D01*
X290550Y188574D01*
X288823Y187695D01*
X287256Y186556D01*
X285885Y185185D01*
X284746Y183618D01*
X283867Y181891D01*
X283268Y180048D01*
X282965Y178134D01*
Y176197D01*
X283268Y174283D01*
X283867Y172440D01*
X284746Y170713D01*
X285885Y169145D01*
X287256Y167775D01*
X288823Y166636D01*
X290550Y165756D01*
X292393Y165157D01*
X294307Y164854D01*
X296245D01*
X298158Y165157D01*
X300001Y165756D01*
X301728Y166636D01*
X303296Y167775D01*
X304666Y169145D01*
X305805Y170713D01*
X306685Y172440D01*
X307283Y174283D01*
X307587Y176197D01*
Y178134D01*
X307283Y180048D01*
X306685Y181891D01*
X305805Y183618D01*
X304666Y185185D01*
X303296Y186556D01*
X301728Y187695D01*
X300001Y188574D01*
X298158Y189173D01*
X296245Y189476D01*
D02*
G37*
G36*
X20654D02*
X18716D01*
X16802Y189173D01*
X14959Y188574D01*
X13233Y187695D01*
X11665Y186556D01*
X10295Y185185D01*
X9156Y183618D01*
X8276Y181891D01*
X7677Y180048D01*
X7374Y178134D01*
Y176197D01*
X7677Y174283D01*
X8276Y172440D01*
X9156Y170713D01*
X10295Y169145D01*
X11665Y167775D01*
X13233Y166636D01*
X14959Y165756D01*
X16802Y165157D01*
X18716Y164854D01*
X20654D01*
X22568Y165157D01*
X24411Y165756D01*
X26137Y166636D01*
X27705Y167775D01*
X29075Y169145D01*
X30214Y170713D01*
X31094Y172440D01*
X31693Y174283D01*
X31996Y176197D01*
Y178134D01*
X31693Y180048D01*
X31094Y181891D01*
X30214Y183618D01*
X29075Y185185D01*
X27705Y186556D01*
X26137Y187695D01*
X24411Y188574D01*
X22568Y189173D01*
X20654Y189476D01*
D02*
G37*
G36*
X84731Y167123D02*
X81381D01*
Y163773D01*
X81648D01*
X82551Y164015D01*
X83361Y164482D01*
X84022Y165143D01*
X84489Y165953D01*
X84731Y166856D01*
Y167123D01*
D02*
G37*
G36*
X80981D02*
X77631D01*
Y166856D01*
X77873Y165953D01*
X78341Y165143D01*
X79002Y164482D01*
X79811Y164015D01*
X80714Y163773D01*
X80981D01*
Y167123D01*
D02*
G37*
G36*
X159744Y166051D02*
X159154D01*
X158608Y165825D01*
X158191Y165408D01*
X157965Y164862D01*
Y164272D01*
X158191Y163726D01*
X158608Y163309D01*
X159154Y163083D01*
X159744D01*
X160290Y163309D01*
X160707Y163726D01*
X160933Y164272D01*
Y164862D01*
X160707Y165408D01*
X160290Y165825D01*
X159744Y166051D01*
D02*
G37*
G36*
X156201D02*
X155610D01*
X155065Y165825D01*
X154647Y165408D01*
X154421Y164862D01*
Y164272D01*
X154647Y163726D01*
X155065Y163309D01*
X155610Y163083D01*
X156201D01*
X156746Y163309D01*
X157164Y163726D01*
X157390Y164272D01*
Y164862D01*
X157164Y165408D01*
X156746Y165825D01*
X156201Y166051D01*
D02*
G37*
G36*
X117357Y160289D02*
X116637D01*
Y158763D01*
X117966D01*
Y159680D01*
X117788Y160111D01*
X117357Y160289D01*
D02*
G37*
G36*
X107416D02*
X106696D01*
Y158763D01*
X108025D01*
Y159680D01*
X107847Y160111D01*
X107416Y160289D01*
D02*
G37*
G36*
X116237D02*
X115517D01*
X115086Y160111D01*
X114908Y159680D01*
Y158763D01*
X116237D01*
Y160289D01*
D02*
G37*
G36*
X106296D02*
X105576D01*
X105145Y160111D01*
X104967Y159680D01*
Y158763D01*
X106296D01*
Y160289D01*
D02*
G37*
G36*
X191085Y157540D02*
X190635D01*
Y157090D01*
X191085D01*
Y157540D01*
D02*
G37*
G36*
X117966Y158363D02*
X116637D01*
Y156837D01*
X117357D01*
X117788Y157015D01*
X117966Y157446D01*
Y158363D01*
D02*
G37*
G36*
X116237D02*
X114908D01*
Y157446D01*
X115086Y157015D01*
X115517Y156837D01*
X116237D01*
Y158363D01*
D02*
G37*
G36*
X108025D02*
X106696D01*
Y156837D01*
X107416D01*
X107847Y157015D01*
X108025Y157446D01*
Y158363D01*
D02*
G37*
G36*
X106296D02*
X104967D01*
Y157446D01*
X105145Y157015D01*
X105576Y156837D01*
X106296D01*
Y158363D01*
D02*
G37*
G36*
X97986D02*
X96657D01*
Y156837D01*
X97377D01*
X97807Y157015D01*
X97986Y157446D01*
Y158363D01*
D02*
G37*
G36*
X96257D02*
X94928D01*
Y157446D01*
X95106Y157015D01*
X95536Y156837D01*
X96257D01*
Y158363D01*
D02*
G37*
G36*
X191085Y156690D02*
X190635D01*
Y156240D01*
X191085D01*
Y156690D01*
D02*
G37*
G36*
X262967Y162357D02*
X260536D01*
X260524Y162352D01*
X260433D01*
X260050Y162194D01*
X259892Y161811D01*
Y155315D01*
X259892Y155315D01*
X260050Y154932D01*
X260050Y154932D01*
X260739Y154243D01*
X260739Y154243D01*
X261122Y154085D01*
X261122Y154085D01*
X264075Y154085D01*
X264206Y154139D01*
X264457Y154243D01*
X264458Y154243D01*
X265245Y155031D01*
X265245Y155031D01*
X265403Y155413D01*
X265403Y155413D01*
X265403Y161122D01*
X265245Y161505D01*
X265245Y161505D01*
X264556Y162194D01*
X264556Y162194D01*
X264397Y162259D01*
X264173Y162352D01*
X264173Y162352D01*
X262980D01*
X262967Y162357D01*
D02*
G37*
G36*
X81749Y155541D02*
X81482D01*
Y152191D01*
X84832D01*
Y152458D01*
X84590Y153361D01*
X84123Y154170D01*
X83462Y154831D01*
X82652Y155299D01*
X81749Y155541D01*
D02*
G37*
G36*
X81082D02*
X80815D01*
X79912Y155299D01*
X79103Y154831D01*
X78442Y154170D01*
X77974Y153361D01*
X77733Y152458D01*
Y152191D01*
X81082D01*
Y155541D01*
D02*
G37*
G36*
X117357Y154942D02*
X115517D01*
X115258Y154891D01*
X115039Y154744D01*
X114893Y154525D01*
X114841Y154267D01*
Y152032D01*
X114893Y151774D01*
X115039Y151555D01*
X115258Y151409D01*
X115517Y151357D01*
X116951D01*
X118454Y149855D01*
X118300Y149485D01*
X111045D01*
X108092Y152439D01*
Y154267D01*
X108040Y154525D01*
X107894Y154744D01*
X107675Y154891D01*
X107416Y154942D01*
X105576D01*
X105317Y154891D01*
X105098Y154744D01*
X104952Y154525D01*
X104900Y154267D01*
Y152032D01*
X104952Y151774D01*
X105098Y151555D01*
X105317Y151409D01*
X105576Y151357D01*
X107010D01*
X109513Y148855D01*
X109360Y148485D01*
X102006D01*
X98052Y152439D01*
Y154267D01*
X98001Y154525D01*
X97855Y154744D01*
X97635Y154891D01*
X97377Y154942D01*
X95536D01*
X95278Y154891D01*
X95059Y154744D01*
X94912Y154525D01*
X94861Y154267D01*
Y152032D01*
X94912Y151774D01*
X95059Y151555D01*
X95278Y151409D01*
X95536Y151357D01*
X96971D01*
X101148Y147180D01*
X101148Y147180D01*
X101396Y147014D01*
X101689Y146956D01*
X101689Y146956D01*
X140768D01*
X145101Y142623D01*
Y139153D01*
X144916Y139029D01*
X143999D01*
Y137500D01*
Y135971D01*
X144916D01*
X145101Y135847D01*
Y135311D01*
X144916Y135159D01*
X142682D01*
X142424Y135107D01*
X142204Y134961D01*
X142058Y134742D01*
X142007Y134483D01*
Y132643D01*
X142039Y132483D01*
X141871Y132182D01*
X141779Y132083D01*
X141646D01*
X141516Y132029D01*
X141105Y132292D01*
X140924Y132730D01*
X140506Y133148D01*
X139988Y133362D01*
X139939Y133489D01*
X139884Y133774D01*
X139980Y133838D01*
X140127Y134057D01*
X140178Y134316D01*
Y136156D01*
X140127Y136415D01*
X139980Y136634D01*
X139761Y136781D01*
X139503Y136832D01*
X137269D01*
X137010Y136781D01*
X136791Y136634D01*
X136645Y136415D01*
X136593Y136156D01*
Y134611D01*
X136580Y134585D01*
X136194Y134313D01*
X136122Y134328D01*
X135159D01*
X134765Y134722D01*
Y136156D01*
X134713Y136415D01*
X134567Y136634D01*
X134348Y136781D01*
X134090Y136832D01*
X131855D01*
X131597Y136781D01*
X131378Y136634D01*
X131231Y136415D01*
X131180Y136156D01*
Y134316D01*
X131231Y134057D01*
X131317Y133929D01*
X131372Y133798D01*
X131312Y133402D01*
X131053Y133142D01*
X130949Y133122D01*
X129352Y134720D01*
Y136156D01*
X129300Y136415D01*
X129154Y136634D01*
X128935Y136781D01*
X128676Y136832D01*
X126442D01*
X126183Y136781D01*
X125964Y136634D01*
X125818Y136415D01*
X125767Y136156D01*
Y134316D01*
X125818Y134057D01*
X125964Y133838D01*
X126183Y133692D01*
X126442Y133641D01*
X127925D01*
X127967Y133577D01*
X127925Y133429D01*
X127775Y133144D01*
X127309Y132951D01*
X126891Y132534D01*
X126665Y131988D01*
Y131398D01*
X126891Y130852D01*
X127309Y130435D01*
X127385Y130403D01*
Y130217D01*
X127443Y129924D01*
X127609Y129676D01*
X128404Y128881D01*
X128294Y128716D01*
X128240Y128445D01*
Y126472D01*
X128294Y126201D01*
X128447Y125971D01*
X128677Y125818D01*
X128948Y125764D01*
X129424D01*
X129696Y125818D01*
X129925Y125971D01*
X129930Y125978D01*
X130411D01*
X130416Y125971D01*
X130645Y125818D01*
X130917Y125764D01*
X131393D01*
X131664Y125818D01*
X131894Y125971D01*
X131898Y125978D01*
X132379D01*
X132384Y125971D01*
X132614Y125818D01*
X132885Y125764D01*
X133361D01*
X133633Y125818D01*
X133862Y125971D01*
X133867Y125978D01*
X134348D01*
X134353Y125971D01*
X134582Y125818D01*
X134853Y125764D01*
X135330D01*
X135601Y125818D01*
X135831Y125971D01*
X135835Y125978D01*
X136317D01*
X136321Y125971D01*
X136551Y125818D01*
X136822Y125764D01*
X137298D01*
X137570Y125818D01*
X137799Y125971D01*
X137804Y125978D01*
X138285D01*
X138290Y125971D01*
X138519Y125818D01*
X138791Y125764D01*
X139267D01*
X139538Y125818D01*
X139768Y125971D01*
X139772Y125978D01*
X140253D01*
X140258Y125971D01*
X140488Y125818D01*
X140759Y125764D01*
X141235D01*
X141507Y125818D01*
X141736Y125971D01*
X141741Y125978D01*
X142222D01*
X142227Y125971D01*
X142456Y125818D01*
X142728Y125764D01*
X143204D01*
X143475Y125818D01*
X143705Y125971D01*
X143710Y125978D01*
X144191D01*
X144195Y125971D01*
X144425Y125818D01*
X144696Y125764D01*
X145173D01*
X145444Y125818D01*
X145673Y125971D01*
X145678Y125978D01*
X146159D01*
X146164Y125971D01*
X146393Y125818D01*
X146665Y125764D01*
X147141D01*
X147412Y125818D01*
X147642Y125971D01*
X147795Y126201D01*
X147849Y126472D01*
Y128445D01*
X147795Y128716D01*
X147668Y128908D01*
Y129952D01*
X148474Y130759D01*
X148640Y131007D01*
X148698Y131299D01*
Y143701D01*
X148640Y143993D01*
X148474Y144241D01*
X142454Y150261D01*
X142206Y150427D01*
X141913Y150485D01*
X119986D01*
X118033Y152439D01*
Y154267D01*
X117981Y154525D01*
X117835Y154744D01*
X117616Y154891D01*
X117357Y154942D01*
D02*
G37*
G36*
X84832Y151791D02*
X81482D01*
Y148441D01*
X81749D01*
X82652Y148683D01*
X83462Y149151D01*
X84123Y149811D01*
X84590Y150621D01*
X84832Y151524D01*
Y151791D01*
D02*
G37*
G36*
X81082D02*
X77733D01*
Y151524D01*
X77974Y150621D01*
X78442Y149811D01*
X79103Y149151D01*
X79912Y148683D01*
X80815Y148441D01*
X81082D01*
Y151791D01*
D02*
G37*
G36*
X71763Y155640D02*
X70802D01*
X69873Y155392D01*
X69041Y154911D01*
X68362Y154232D01*
X67881Y153400D01*
X67633Y152471D01*
Y151510D01*
X67881Y150582D01*
X68362Y149750D01*
X69041Y149071D01*
X69873Y148590D01*
X70802Y148341D01*
X71763D01*
X72691Y148590D01*
X73523Y149071D01*
X74203Y149750D01*
X74683Y150582D01*
X74932Y151510D01*
Y152471D01*
X74683Y153400D01*
X74203Y154232D01*
X73523Y154911D01*
X72691Y155392D01*
X71763Y155640D01*
D02*
G37*
G36*
X61763D02*
X60802D01*
X59873Y155392D01*
X59041Y154911D01*
X58362Y154232D01*
X57881Y153400D01*
X57633Y152471D01*
Y151510D01*
X57881Y150582D01*
X58362Y149750D01*
X59041Y149071D01*
X59873Y148590D01*
X60802Y148341D01*
X61763D01*
X62691Y148590D01*
X63523Y149071D01*
X64203Y149750D01*
X64683Y150582D01*
X64932Y151510D01*
Y152471D01*
X64683Y153400D01*
X64203Y154232D01*
X63523Y154911D01*
X62691Y155392D01*
X61763Y155640D01*
D02*
G37*
G36*
X51763D02*
X50802D01*
X49874Y155392D01*
X49041Y154911D01*
X48362Y154232D01*
X47881Y153400D01*
X47633Y152471D01*
Y151510D01*
X47881Y150582D01*
X48362Y149750D01*
X49041Y149071D01*
X49874Y148590D01*
X50802Y148341D01*
X51763D01*
X52691Y148590D01*
X53523Y149071D01*
X54203Y149750D01*
X54683Y150582D01*
X54932Y151510D01*
Y152471D01*
X54683Y153400D01*
X54203Y154232D01*
X53523Y154911D01*
X52691Y155392D01*
X51763Y155640D01*
D02*
G37*
G36*
X202657Y148728D02*
X202067D01*
X201521Y148502D01*
X201104Y148085D01*
X200878Y147539D01*
Y146949D01*
X201104Y146403D01*
X201521Y145986D01*
X202067Y145760D01*
X202657D01*
X203203Y145986D01*
X203621Y146403D01*
X203847Y146949D01*
Y147539D01*
X203621Y148085D01*
X203203Y148502D01*
X202657Y148728D01*
D02*
G37*
G36*
X81763Y145641D02*
X80802D01*
X79874Y145392D01*
X79041Y144911D01*
X78362Y144232D01*
X77881Y143400D01*
X77633Y142471D01*
Y141510D01*
X77881Y140582D01*
X78362Y139750D01*
X79041Y139070D01*
X79874Y138590D01*
X80802Y138341D01*
X81763D01*
X82691Y138590D01*
X83523Y139070D01*
X84203Y139750D01*
X84683Y140582D01*
X84932Y141510D01*
Y142471D01*
X84683Y143400D01*
X84203Y144232D01*
X83523Y144911D01*
X82691Y145392D01*
X81763Y145641D01*
D02*
G37*
G36*
X71763D02*
X70802D01*
X69873Y145392D01*
X69041Y144911D01*
X68362Y144232D01*
X67881Y143400D01*
X67633Y142471D01*
Y141510D01*
X67881Y140582D01*
X68362Y139750D01*
X69041Y139070D01*
X69873Y138590D01*
X70802Y138341D01*
X71763D01*
X72691Y138590D01*
X73523Y139070D01*
X74203Y139750D01*
X74683Y140582D01*
X74932Y141510D01*
Y142471D01*
X74683Y143400D01*
X74203Y144232D01*
X73523Y144911D01*
X72691Y145392D01*
X71763Y145641D01*
D02*
G37*
G36*
X61763D02*
X60802D01*
X59873Y145392D01*
X59041Y144911D01*
X58362Y144232D01*
X57881Y143400D01*
X57633Y142471D01*
Y141510D01*
X57881Y140582D01*
X58362Y139750D01*
X59041Y139070D01*
X59873Y138590D01*
X60802Y138341D01*
X61763D01*
X62691Y138590D01*
X63523Y139070D01*
X64203Y139750D01*
X64683Y140582D01*
X64932Y141510D01*
Y142471D01*
X64683Y143400D01*
X64203Y144232D01*
X63523Y144911D01*
X62691Y145392D01*
X61763Y145641D01*
D02*
G37*
G36*
X54932D02*
X47633D01*
Y138341D01*
X54932D01*
Y145641D01*
D02*
G37*
G36*
X143599Y139029D02*
X142682D01*
X142252Y138851D01*
X142073Y138420D01*
Y137700D01*
X143599D01*
Y139029D01*
D02*
G37*
G36*
X138681Y143709D02*
X138091D01*
X137545Y143483D01*
X137127Y143065D01*
X136902Y142520D01*
Y141929D01*
X137127Y141384D01*
X137342Y141169D01*
X137304Y140963D01*
X137192Y140754D01*
X137010Y140717D01*
X136791Y140571D01*
X136645Y140352D01*
X136593Y140094D01*
Y138253D01*
X136645Y137995D01*
X136791Y137775D01*
X137010Y137629D01*
X137269Y137578D01*
X139503D01*
X139761Y137629D01*
X139980Y137775D01*
X140127Y137995D01*
X140178Y138253D01*
Y140094D01*
X140127Y140352D01*
X139980Y140571D01*
X139761Y140717D01*
X139580Y140754D01*
X139467Y140963D01*
X139429Y141169D01*
X139644Y141384D01*
X139870Y141929D01*
Y142520D01*
X139644Y143065D01*
X139227Y143483D01*
X138681Y143709D01*
D02*
G37*
G36*
X133268D02*
X132677D01*
X132132Y143483D01*
X131714Y143065D01*
X131488Y142520D01*
Y141929D01*
X131714Y141384D01*
X131929Y141169D01*
X131891Y140963D01*
X131779Y140754D01*
X131597Y140717D01*
X131378Y140571D01*
X131231Y140352D01*
X131180Y140094D01*
Y138253D01*
X131231Y137995D01*
X131378Y137775D01*
X131597Y137629D01*
X131855Y137578D01*
X134090D01*
X134348Y137629D01*
X134567Y137775D01*
X134713Y137995D01*
X134765Y138253D01*
Y140094D01*
X134713Y140352D01*
X134567Y140571D01*
X134348Y140717D01*
X134166Y140754D01*
X134054Y140963D01*
X134016Y141169D01*
X134231Y141384D01*
X134457Y141929D01*
Y142520D01*
X134231Y143065D01*
X133813Y143483D01*
X133268Y143709D01*
D02*
G37*
G36*
X128248D02*
X127657D01*
X127112Y143483D01*
X126695Y143065D01*
X126469Y142520D01*
Y141929D01*
X126695Y141384D01*
X126909Y141169D01*
X126744Y140769D01*
X126442D01*
X126183Y140717D01*
X125964Y140571D01*
X125818Y140352D01*
X125767Y140094D01*
Y138253D01*
X125818Y137995D01*
X125964Y137775D01*
X126183Y137629D01*
X126442Y137578D01*
X128676D01*
X128935Y137629D01*
X129154Y137775D01*
X129300Y137995D01*
X129352Y138253D01*
Y140094D01*
X129300Y140352D01*
X129154Y140571D01*
X129021Y140660D01*
X128945Y141000D01*
X128950Y141122D01*
X129211Y141384D01*
X129437Y141929D01*
Y142520D01*
X129211Y143065D01*
X128794Y143483D01*
X128248Y143709D01*
D02*
G37*
G36*
X164862Y140461D02*
X164272D01*
X163726Y140235D01*
X163309Y139817D01*
X163083Y139272D01*
Y138681D01*
X163309Y138136D01*
X163726Y137718D01*
X164272Y137492D01*
X164862D01*
X165408Y137718D01*
X165825Y138136D01*
X166051Y138681D01*
Y139272D01*
X165825Y139817D01*
X165408Y140235D01*
X164862Y140461D01*
D02*
G37*
G36*
X161319D02*
X160728D01*
X160183Y140235D01*
X159765Y139817D01*
X159539Y139272D01*
Y138681D01*
X159765Y138136D01*
X160183Y137718D01*
X160728Y137492D01*
X161319D01*
X161864Y137718D01*
X162282Y138136D01*
X162508Y138681D01*
Y139272D01*
X162282Y139817D01*
X161864Y140235D01*
X161319Y140461D01*
D02*
G37*
G36*
X231735Y138736D02*
X230848D01*
Y136322D01*
X232376D01*
Y138095D01*
X232188Y138549D01*
X231735Y138736D01*
D02*
G37*
G36*
X230448D02*
X229560D01*
X229107Y138549D01*
X228919Y138095D01*
Y136322D01*
X230448D01*
Y138736D01*
D02*
G37*
G36*
X143599Y137300D02*
X142073D01*
Y136580D01*
X142252Y136149D01*
X142682Y135971D01*
X143599D01*
Y137300D01*
D02*
G37*
G36*
X222276Y136634D02*
X220774D01*
Y134649D01*
X222955D01*
Y135955D01*
X222904Y136214D01*
X222756Y136435D01*
X222536Y136582D01*
X222276Y136634D01*
D02*
G37*
G36*
X220374D02*
X218871D01*
X218611Y136582D01*
X218391Y136435D01*
X218244Y136214D01*
X218192Y135955D01*
Y134649D01*
X220374D01*
Y136634D01*
D02*
G37*
G36*
X164862Y136917D02*
X164272D01*
X163726Y136691D01*
X163309Y136274D01*
X163083Y135728D01*
Y135138D01*
X163309Y134592D01*
X163726Y134175D01*
X164272Y133949D01*
X164862D01*
X165408Y134175D01*
X165825Y134592D01*
X166051Y135138D01*
Y135728D01*
X165825Y136274D01*
X165408Y136691D01*
X164862Y136917D01*
D02*
G37*
G36*
X161319D02*
X160728D01*
X160183Y136691D01*
X159765Y136274D01*
X159539Y135728D01*
Y135138D01*
X159765Y134592D01*
X160183Y134175D01*
X160728Y133949D01*
X161319D01*
X161864Y134175D01*
X162282Y134592D01*
X162508Y135138D01*
Y135728D01*
X162282Y136274D01*
X161864Y136691D01*
X161319Y136917D01*
D02*
G37*
G36*
X232376Y135922D02*
X230848D01*
Y133508D01*
X231735D01*
X232188Y133696D01*
X232376Y134149D01*
Y135922D01*
D02*
G37*
G36*
X230448D02*
X228919D01*
Y134149D01*
X229107Y133696D01*
X229560Y133508D01*
X230448D01*
Y135922D01*
D02*
G37*
G36*
X222955Y134249D02*
X220774D01*
Y132264D01*
X222276D01*
X222536Y132316D01*
X222756Y132463D01*
X222904Y132683D01*
X222955Y132943D01*
Y134249D01*
D02*
G37*
G36*
X220374D02*
X218192D01*
Y132943D01*
X218244Y132683D01*
X218391Y132463D01*
X218611Y132316D01*
X218871Y132264D01*
X220374D01*
Y134249D01*
D02*
G37*
G36*
X78051Y133934D02*
X77759Y133876D01*
X77510Y133710D01*
X77510Y133710D01*
X73268Y129468D01*
X72691Y129801D01*
X71763Y130050D01*
X70802D01*
X69873Y129801D01*
X69041Y129321D01*
X68362Y128641D01*
X67881Y127809D01*
X67633Y126881D01*
Y125920D01*
X67881Y124992D01*
X68362Y124159D01*
X69041Y123480D01*
X69873Y123000D01*
X70802Y122751D01*
X71763D01*
X72691Y123000D01*
X73523Y123480D01*
X74203Y124159D01*
X74683Y124992D01*
X74932Y125920D01*
Y126881D01*
X74683Y127809D01*
X74350Y128386D01*
X78368Y132405D01*
X91612D01*
X93089Y130928D01*
Y129493D01*
X93141Y129235D01*
X93287Y129016D01*
X93506Y128869D01*
X93765Y128818D01*
X95999D01*
X96258Y128869D01*
X96477Y129016D01*
X96623Y129235D01*
X96674Y129493D01*
Y129649D01*
X98601D01*
Y129493D01*
X98653Y129235D01*
X98799Y129016D01*
X99018Y128869D01*
X99277Y128818D01*
X101511D01*
X101769Y128869D01*
X101988Y129016D01*
X102135Y129235D01*
X102186Y129493D01*
Y129649D01*
X104113D01*
Y129493D01*
X104164Y129235D01*
X104311Y129016D01*
X104530Y128869D01*
X104788Y128818D01*
X107023D01*
X107281Y128869D01*
X107500Y129016D01*
X107647Y129235D01*
X107698Y129493D01*
Y131334D01*
X107647Y131592D01*
X107500Y131811D01*
X107281Y131958D01*
X107023Y132009D01*
X104788D01*
X104530Y131958D01*
X104311Y131811D01*
X104164Y131592D01*
X104113Y131334D01*
Y131178D01*
X102186D01*
Y131334D01*
X102135Y131592D01*
X101988Y131811D01*
X101769Y131958D01*
X101511Y132009D01*
X99277D01*
X99018Y131958D01*
X98799Y131811D01*
X98653Y131592D01*
X98601Y131334D01*
Y131178D01*
X96674D01*
Y131334D01*
X96623Y131592D01*
X96477Y131811D01*
X96258Y131958D01*
X95999Y132009D01*
X94171D01*
X92470Y133710D01*
X92222Y133876D01*
X91929Y133934D01*
X78051D01*
X78051Y133934D01*
D02*
G37*
G36*
X121486Y129055D02*
X119983D01*
Y127070D01*
X122165D01*
Y128376D01*
X122113Y128636D01*
X121966Y128856D01*
X121746Y129003D01*
X121486Y129055D01*
D02*
G37*
G36*
X119583D02*
X118081D01*
X117821Y129003D01*
X117601Y128856D01*
X117454Y128636D01*
X117402Y128376D01*
Y127070D01*
X119583D01*
Y129055D01*
D02*
G37*
G36*
X81749Y129950D02*
X81482D01*
Y126600D01*
X84832D01*
Y126868D01*
X84590Y127770D01*
X84123Y128580D01*
X83462Y129241D01*
X82652Y129708D01*
X81749Y129950D01*
D02*
G37*
G36*
X81082D02*
X80815D01*
X79912Y129708D01*
X79103Y129241D01*
X78442Y128580D01*
X77974Y127770D01*
X77733Y126868D01*
Y126600D01*
X81082D01*
Y129950D01*
D02*
G37*
G36*
X222276Y130830D02*
X218871D01*
X218572Y130771D01*
X218319Y130601D01*
X218150Y130348D01*
X218090Y130049D01*
Y127037D01*
X218150Y126739D01*
X218319Y126485D01*
X218572Y126316D01*
X218871Y126257D01*
X221497D01*
X221821Y126040D01*
X222247Y125955D01*
X222247Y125955D01*
X225114D01*
Y125093D01*
X225168Y124823D01*
X225321Y124595D01*
X225550Y124442D01*
X225820Y124388D01*
X227995D01*
X228265Y124442D01*
X228494Y124595D01*
X228647Y124823D01*
X228700Y125093D01*
Y125525D01*
X228781Y125606D01*
X229100Y125760D01*
X229528Y125583D01*
X230118D01*
X230664Y125809D01*
X231081Y126226D01*
X231307Y126772D01*
Y127362D01*
X231081Y127908D01*
X230664Y128325D01*
X230118Y128551D01*
X229528D01*
X229100Y128374D01*
X228781Y128528D01*
X228700Y128609D01*
Y129040D01*
X228647Y129310D01*
X228494Y129539D01*
X228265Y129692D01*
X227995Y129746D01*
X225820D01*
X225550Y129692D01*
X225321Y129539D01*
X225168Y129310D01*
X225114Y129040D01*
Y128179D01*
X223057D01*
Y130049D01*
X222998Y130348D01*
X222829Y130601D01*
X222575Y130771D01*
X222276Y130830D01*
D02*
G37*
G36*
X122165Y126670D02*
X119983D01*
Y124685D01*
X121486D01*
X121746Y124737D01*
X121966Y124884D01*
X122113Y125104D01*
X122165Y125364D01*
Y126670D01*
D02*
G37*
G36*
X119583D02*
X117402D01*
Y125364D01*
X117454Y125104D01*
X117601Y124884D01*
X117821Y124737D01*
X118081Y124685D01*
X119583D01*
Y126670D01*
D02*
G37*
G36*
X234646Y133079D02*
X234055D01*
X233510Y132853D01*
X233092Y132435D01*
X232866Y131890D01*
Y131299D01*
X233092Y130754D01*
X233510Y130336D01*
X233586Y130305D01*
Y129746D01*
X233300D01*
X233030Y129692D01*
X232801Y129539D01*
X232648Y129310D01*
X232595Y129040D01*
Y125093D01*
X232648Y124823D01*
X232801Y124595D01*
X233030Y124442D01*
X233300Y124388D01*
X235475D01*
X235745Y124442D01*
X235974Y124595D01*
X236127Y124823D01*
X236181Y125093D01*
Y129040D01*
X236127Y129310D01*
X235974Y129539D01*
X235745Y129692D01*
X235475Y129746D01*
X235115D01*
Y130305D01*
X235191Y130336D01*
X235609Y130754D01*
X235835Y131299D01*
Y131890D01*
X235609Y132435D01*
X235191Y132853D01*
X234646Y133079D01*
D02*
G37*
G36*
X124508Y132980D02*
X123917D01*
X123372Y132754D01*
X122954Y132337D01*
X122728Y131791D01*
Y131201D01*
X122954Y130655D01*
X123288Y130321D01*
Y125848D01*
X123347Y125556D01*
X123512Y125308D01*
X124444Y124376D01*
X124444Y124376D01*
X124692Y124210D01*
X124985Y124152D01*
X125121Y124017D01*
X125186Y123625D01*
X124997Y123169D01*
Y123131D01*
X126627D01*
X128257D01*
Y123169D01*
X128069Y123625D01*
X128013Y123648D01*
X128000Y123682D01*
X128002Y124085D01*
X128114Y124160D01*
X128268Y124390D01*
X128322Y124661D01*
Y125138D01*
X128268Y125409D01*
X128114Y125639D01*
X127884Y125792D01*
X127613Y125846D01*
X125641D01*
X125370Y125792D01*
X125262Y125721D01*
X124818Y126165D01*
Y130140D01*
X125053Y130238D01*
X125471Y130655D01*
X125697Y131201D01*
Y131791D01*
X125471Y132337D01*
X125053Y132754D01*
X124508Y132980D01*
D02*
G37*
G36*
X84832Y126200D02*
X81482D01*
Y122851D01*
X81749D01*
X82652Y123093D01*
X83462Y123560D01*
X84123Y124221D01*
X84590Y125030D01*
X84832Y125933D01*
Y126200D01*
D02*
G37*
G36*
X81082D02*
X77733D01*
Y125933D01*
X77974Y125030D01*
X78442Y124221D01*
X79103Y123560D01*
X79912Y123093D01*
X80815Y122851D01*
X81082D01*
Y126200D01*
D02*
G37*
G36*
X51763Y130050D02*
X50802D01*
X49874Y129801D01*
X49041Y129321D01*
X48362Y128641D01*
X47881Y127809D01*
X47633Y126881D01*
Y125920D01*
X47881Y124992D01*
X48362Y124159D01*
X49041Y123480D01*
X49874Y123000D01*
X50802Y122751D01*
X51763D01*
X52691Y123000D01*
X53523Y123480D01*
X54203Y124159D01*
X54683Y124992D01*
X54932Y125920D01*
Y126881D01*
X54683Y127809D01*
X54203Y128641D01*
X53523Y129321D01*
X52691Y129801D01*
X51763Y130050D01*
D02*
G37*
G36*
X243209Y121801D02*
X243209Y121801D01*
X236516Y121801D01*
X236133Y121642D01*
X236133Y121642D01*
X235444Y120954D01*
X235444Y120954D01*
X235378Y120795D01*
X235286Y120571D01*
X235286Y120571D01*
Y119358D01*
X235280Y119345D01*
Y116914D01*
X235286Y116902D01*
Y116831D01*
X235444Y116448D01*
X235827Y116289D01*
X243110D01*
X243110Y116289D01*
X243493Y116448D01*
X244083Y117039D01*
X244242Y117421D01*
X244242Y117421D01*
X244242Y120768D01*
X244242Y120768D01*
X244083Y121150D01*
X244083Y121150D01*
X243591Y121642D01*
X243209Y121801D01*
D02*
G37*
G36*
X183760Y121169D02*
X183169D01*
X182624Y120943D01*
X182206Y120526D01*
X181980Y119980D01*
Y119390D01*
X182206Y118844D01*
X182624Y118427D01*
X183169Y118201D01*
X183760D01*
X184305Y118427D01*
X184723Y118844D01*
X184949Y119390D01*
Y119980D01*
X184723Y120526D01*
X184305Y120943D01*
X183760Y121169D01*
D02*
G37*
G36*
X180217D02*
X179626D01*
X179080Y120943D01*
X178663Y120526D01*
X178437Y119980D01*
Y119390D01*
X178663Y118844D01*
X179080Y118427D01*
X179626Y118201D01*
X180217D01*
X180762Y118427D01*
X181179Y118844D01*
X181405Y119390D01*
Y119980D01*
X181179Y120526D01*
X180762Y120943D01*
X180217Y121169D01*
D02*
G37*
G36*
X255906Y115010D02*
X255906Y115010D01*
X235827Y115010D01*
X235444Y114851D01*
X235286Y114469D01*
Y114358D01*
X235280Y114346D01*
Y111914D01*
X235286Y111902D01*
X235286Y109358D01*
X235280Y109345D01*
Y106914D01*
X235286Y106902D01*
Y104358D01*
X235280Y104346D01*
Y101914D01*
X235286Y101902D01*
Y100027D01*
X232650Y97392D01*
X223917D01*
X223786Y97337D01*
X223535Y97233D01*
X223535Y97233D01*
X222846Y96544D01*
X222687Y96161D01*
X222687Y96161D01*
Y95256D01*
Y77146D01*
Y76279D01*
X222687Y76279D01*
X222846Y75897D01*
X222846Y75897D01*
X223633Y75109D01*
X223633Y75109D01*
X224016Y74951D01*
X224016Y74951D01*
X254804Y74951D01*
X254898Y74990D01*
X254940Y74981D01*
X254951Y74984D01*
X255010Y75023D01*
X255105Y75042D01*
X255135Y75062D01*
X255159Y75098D01*
X255187Y75109D01*
X255189Y75116D01*
X255228Y75132D01*
X265185Y85089D01*
X283760Y85089D01*
X284142Y85247D01*
X287095Y88200D01*
X287095Y88200D01*
X287254Y88583D01*
X287254Y88583D01*
Y107874D01*
X287254Y107874D01*
X287095Y108257D01*
X284142Y111209D01*
X284142Y111209D01*
X283760Y111368D01*
X283760Y111368D01*
X259771D01*
X256288Y114851D01*
X255906Y115010D01*
D02*
G37*
G36*
X183760Y117626D02*
X183169D01*
X182624Y117400D01*
X182206Y116982D01*
X181980Y116437D01*
Y115847D01*
X182206Y115301D01*
X182624Y114883D01*
X183169Y114657D01*
X183760D01*
X184305Y114883D01*
X184723Y115301D01*
X184949Y115847D01*
Y116437D01*
X184723Y116982D01*
X184305Y117400D01*
X183760Y117626D01*
D02*
G37*
G36*
X180217D02*
X179626D01*
X179080Y117400D01*
X178663Y116982D01*
X178437Y116437D01*
Y115847D01*
X178663Y115301D01*
X179080Y114883D01*
X179626Y114657D01*
X180217D01*
X180762Y114883D01*
X181179Y115301D01*
X181405Y115847D01*
Y116437D01*
X181179Y116982D01*
X180762Y117400D01*
X180217Y117626D01*
D02*
G37*
G36*
X54932Y120050D02*
X47633D01*
Y112751D01*
X54932D01*
Y120050D01*
D02*
G37*
G36*
X61763Y130050D02*
X60802D01*
X59873Y129801D01*
X59041Y129321D01*
X58362Y128641D01*
X57881Y127809D01*
X57633Y126881D01*
Y125920D01*
X57881Y124992D01*
X58362Y124159D01*
X59041Y123480D01*
X59873Y123000D01*
X60802Y122751D01*
X61763D01*
X62691Y123000D01*
X63268Y123333D01*
X65022Y121579D01*
X65032Y121484D01*
X64939Y121097D01*
X64814Y121013D01*
X63268Y119468D01*
X62691Y119801D01*
X61763Y120050D01*
X60802D01*
X59873Y119801D01*
X59041Y119321D01*
X58362Y118641D01*
X57881Y117809D01*
X57633Y116881D01*
Y115920D01*
X57881Y114992D01*
X58362Y114159D01*
X59041Y113480D01*
X59873Y112999D01*
X60802Y112751D01*
X61763D01*
X62691Y112999D01*
X63523Y113480D01*
X64203Y114159D01*
X64683Y114992D01*
X64932Y115920D01*
Y116881D01*
X64683Y117809D01*
X64350Y118386D01*
X65671Y119708D01*
X68939D01*
X69025Y119388D01*
X69028Y119308D01*
X68362Y118641D01*
X67881Y117809D01*
X67633Y116881D01*
Y115920D01*
X67881Y114992D01*
X68362Y114159D01*
X69041Y113480D01*
X69873Y112999D01*
X70802Y112751D01*
X71763D01*
X72691Y112999D01*
X73523Y113480D01*
X74203Y114159D01*
X74683Y114992D01*
X74932Y115920D01*
Y116881D01*
X74683Y117809D01*
X74203Y118641D01*
X73536Y119308D01*
X73540Y119388D01*
X73626Y119708D01*
X78939D01*
X79025Y119388D01*
X79028Y119308D01*
X78362Y118641D01*
X77881Y117809D01*
X77633Y116881D01*
Y115920D01*
X77881Y114992D01*
X78362Y114159D01*
X79041Y113480D01*
X79874Y112999D01*
X80802Y112751D01*
X81763D01*
X82691Y112999D01*
X83523Y113480D01*
X84203Y114159D01*
X84683Y114992D01*
X84932Y115920D01*
Y116881D01*
X84683Y117809D01*
X84350Y118386D01*
X86065Y120101D01*
X89880D01*
X90173Y120160D01*
X90421Y120325D01*
X91249Y121153D01*
X91831D01*
X92376Y121379D01*
X92794Y121797D01*
X93020Y122343D01*
Y122933D01*
X92794Y123479D01*
X92376Y123896D01*
X91831Y124122D01*
X91240D01*
X90695Y123896D01*
X90277Y123479D01*
X90189Y123267D01*
X89757D01*
X89644Y123538D01*
X89227Y123956D01*
X88681Y124182D01*
X88091D01*
X87545Y123956D01*
X87128Y123538D01*
X87096Y123462D01*
X86681D01*
X86528Y123832D01*
X88407Y125712D01*
X93089D01*
Y125556D01*
X93141Y125298D01*
X93287Y125078D01*
X93506Y124932D01*
X93765Y124881D01*
X94117D01*
Y120768D01*
X94175Y120475D01*
X94341Y120227D01*
X100083Y114485D01*
X100331Y114319D01*
X100624Y114261D01*
X100624Y114261D01*
X117040D01*
X122690Y108611D01*
X122938Y108445D01*
X123230Y108387D01*
X125178D01*
X125252Y108337D01*
X125254Y107934D01*
X125242Y107900D01*
X125186Y107876D01*
X124997Y107421D01*
Y107383D01*
X126627D01*
X128257D01*
Y107421D01*
X128069Y107876D01*
X128013Y107900D01*
X128000Y107934D01*
X128002Y108337D01*
X128114Y108412D01*
X128268Y108642D01*
X128322Y108913D01*
Y109390D01*
X128268Y109661D01*
X128114Y109891D01*
X128108Y109895D01*
Y110376D01*
X128114Y110381D01*
X128268Y110611D01*
X128322Y110882D01*
Y111358D01*
X128268Y111629D01*
X128114Y111859D01*
X128108Y111864D01*
Y112345D01*
X128114Y112349D01*
X128268Y112579D01*
X128322Y112850D01*
Y113327D01*
X128268Y113598D01*
X128114Y113828D01*
X128108Y113832D01*
Y114313D01*
X128114Y114318D01*
X128268Y114548D01*
X128322Y114819D01*
Y115295D01*
X128268Y115566D01*
X128114Y115796D01*
X128108Y115801D01*
Y116282D01*
X128114Y116286D01*
X128268Y116516D01*
X128322Y116787D01*
Y117264D01*
X128268Y117535D01*
X128114Y117765D01*
X128108Y117769D01*
Y118250D01*
X128114Y118255D01*
X128268Y118485D01*
X128322Y118756D01*
Y119232D01*
X128268Y119503D01*
X128114Y119733D01*
X128108Y119738D01*
Y120219D01*
X128114Y120223D01*
X128268Y120453D01*
X128322Y120724D01*
Y121201D01*
X128268Y121472D01*
X128114Y121702D01*
X128002Y121777D01*
X128000Y122180D01*
X128013Y122214D01*
X128069Y122238D01*
X128257Y122693D01*
Y122731D01*
X126627D01*
X124997D01*
Y122693D01*
X125171Y122274D01*
X125027Y121874D01*
X122267D01*
Y122470D01*
X122207Y122769D01*
X122038Y123022D01*
X121785Y123192D01*
X121486Y123251D01*
X118081D01*
X117782Y123192D01*
X117529Y123022D01*
X117359Y122769D01*
X117300Y122470D01*
Y121907D01*
X116900Y121889D01*
X116491Y122298D01*
X116195Y122495D01*
X115847Y122565D01*
X115361D01*
X115014Y122912D01*
X114469Y123138D01*
X113878D01*
X113332Y122912D01*
X112915Y122494D01*
X112689Y121949D01*
Y121358D01*
X112915Y120813D01*
X113332Y120395D01*
X113878Y120169D01*
X114469D01*
X115014Y120395D01*
X115361Y120742D01*
X115469D01*
X115891Y120320D01*
X116187Y120123D01*
X116535Y120053D01*
X117300D01*
Y119459D01*
X117359Y119160D01*
X117529Y118907D01*
X117782Y118737D01*
X118081Y118678D01*
X121486D01*
X121738Y118728D01*
X121839Y118700D01*
X122138Y118492D01*
Y118465D01*
X122251Y118190D01*
X121984Y117790D01*
X118185D01*
X118185Y117790D01*
X110063D01*
X106670Y121183D01*
Y122382D01*
X106746Y122414D01*
X107164Y122832D01*
X107390Y123377D01*
Y123968D01*
X107168Y124502D01*
X107164Y124514D01*
X107279Y124926D01*
X107299Y124944D01*
X107500Y125078D01*
X107647Y125298D01*
X107698Y125556D01*
Y127397D01*
X107647Y127655D01*
X107500Y127874D01*
X107281Y128021D01*
X107023Y128072D01*
X104788D01*
X104530Y128021D01*
X104311Y127874D01*
X104164Y127655D01*
X104113Y127397D01*
Y125556D01*
X104164Y125298D01*
X104311Y125078D01*
X104512Y124944D01*
X104532Y124926D01*
X104647Y124514D01*
X104643Y124502D01*
X104421Y123968D01*
Y123377D01*
X104647Y122832D01*
X105065Y122414D01*
X105141Y122382D01*
Y120866D01*
X105199Y120573D01*
X105365Y120325D01*
X108530Y117160D01*
X108377Y116790D01*
X105515D01*
X101158Y121147D01*
Y122037D01*
X101234Y122069D01*
X101652Y122486D01*
X101878Y123031D01*
Y123622D01*
X101652Y124168D01*
X101339Y124481D01*
X101486Y124881D01*
X101511D01*
X101769Y124932D01*
X101988Y125078D01*
X102135Y125298D01*
X102186Y125556D01*
Y127397D01*
X102135Y127655D01*
X101988Y127874D01*
X101769Y128021D01*
X101511Y128072D01*
X99277D01*
X99018Y128021D01*
X98799Y127874D01*
X98653Y127655D01*
X98601Y127397D01*
Y125556D01*
X98653Y125298D01*
X98799Y125078D01*
X99018Y124932D01*
X99277Y124881D01*
X99301D01*
X99449Y124481D01*
X99135Y124168D01*
X98909Y123622D01*
Y123031D01*
X99135Y122486D01*
X99553Y122069D01*
X99629Y122037D01*
Y120830D01*
X99687Y120538D01*
X99853Y120290D01*
X103983Y116160D01*
X103830Y115790D01*
X100941D01*
X95647Y121084D01*
Y124881D01*
X95999D01*
X96258Y124932D01*
X96477Y125078D01*
X96623Y125298D01*
X96674Y125556D01*
Y127397D01*
X96623Y127655D01*
X96477Y127874D01*
X96258Y128021D01*
X95999Y128072D01*
X93765D01*
X93506Y128021D01*
X93287Y127874D01*
X93141Y127655D01*
X93089Y127397D01*
Y127241D01*
X88091D01*
X87798Y127183D01*
X87550Y127017D01*
X87550Y127017D01*
X82770Y122237D01*
X66527D01*
X64350Y124414D01*
X64683Y124992D01*
X64932Y125920D01*
Y126881D01*
X64683Y127809D01*
X64203Y128641D01*
X63523Y129321D01*
X62691Y129801D01*
X61763Y130050D01*
D02*
G37*
G36*
X128257Y106983D02*
X126827D01*
Y106301D01*
X127613D01*
X128069Y106490D01*
X128257Y106945D01*
Y106983D01*
D02*
G37*
G36*
X126427D02*
X124997D01*
Y106945D01*
X125186Y106490D01*
X125641Y106301D01*
X126427D01*
Y106983D01*
D02*
G37*
G36*
X147141Y106319D02*
X146665D01*
X146393Y106265D01*
X146164Y106111D01*
X146159Y106104D01*
X145678D01*
X145673Y106111D01*
X145444Y106265D01*
X145173Y106319D01*
X144696D01*
X144425Y106265D01*
X144195Y106111D01*
X144191Y106104D01*
X143710D01*
X143705Y106111D01*
X143475Y106265D01*
X143204Y106319D01*
X142728D01*
X142456Y106265D01*
X142227Y106111D01*
X142222Y106104D01*
X141741D01*
X141736Y106111D01*
X141507Y106265D01*
X141235Y106319D01*
X140759D01*
X140488Y106265D01*
X140258Y106111D01*
X140253Y106104D01*
X139772D01*
X139768Y106111D01*
X139538Y106265D01*
X139267Y106319D01*
X138791D01*
X138519Y106265D01*
X138290Y106111D01*
X138285Y106104D01*
X137804D01*
X137799Y106111D01*
X137570Y106265D01*
X137298Y106319D01*
X136822D01*
X136551Y106265D01*
X136321Y106111D01*
X136317Y106104D01*
X135835D01*
X135831Y106111D01*
X135601Y106265D01*
X135330Y106319D01*
X134853D01*
X134582Y106265D01*
X134353Y106111D01*
X134348Y106104D01*
X133867D01*
X133862Y106111D01*
X133633Y106265D01*
X133361Y106319D01*
X132885D01*
X132614Y106265D01*
X132384Y106111D01*
X132379Y106104D01*
X131898D01*
X131894Y106111D01*
X131664Y106265D01*
X131393Y106319D01*
X130917D01*
X130645Y106265D01*
X130416Y106111D01*
X130411Y106104D01*
X129930D01*
X129925Y106111D01*
X129696Y106265D01*
X129424Y106319D01*
X128948D01*
X128677Y106265D01*
X128447Y106111D01*
X128294Y105881D01*
X128240Y105610D01*
Y103638D01*
X128275Y103459D01*
Y102497D01*
X127969Y102191D01*
X126575D01*
X126226Y102121D01*
X125931Y101924D01*
X125143Y101137D01*
X124946Y100841D01*
X124876Y100492D01*
Y100021D01*
X124867D01*
X124609Y99969D01*
X124390Y99823D01*
X124243Y99604D01*
X124192Y99345D01*
Y97111D01*
X124243Y96853D01*
X124390Y96634D01*
X124609Y96487D01*
X124867Y96436D01*
X126708D01*
X126966Y96487D01*
X127185Y96634D01*
X127332Y96853D01*
X127383Y97111D01*
Y99345D01*
X127332Y99604D01*
X127185Y99823D01*
X127058Y99908D01*
X127041Y99968D01*
X127296Y100368D01*
X128347D01*
X128695Y100438D01*
X128991Y100635D01*
X129831Y101475D01*
X129843Y101494D01*
X130244Y101373D01*
Y100233D01*
X130031Y100021D01*
X128804D01*
X128546Y99969D01*
X128327Y99823D01*
X128180Y99604D01*
X128129Y99345D01*
Y97111D01*
X128180Y96853D01*
X128327Y96634D01*
X128546Y96487D01*
X128804Y96436D01*
X130645D01*
X130903Y96487D01*
X131122Y96634D01*
X131269Y96853D01*
X131320Y97111D01*
Y98732D01*
X131799Y99211D01*
X131962Y99455D01*
X132208Y99509D01*
X132405Y99512D01*
X132479Y99402D01*
X133048Y98833D01*
Y96329D01*
X133107Y96030D01*
X133277Y95777D01*
X133530Y95607D01*
X133829Y95548D01*
X137234D01*
X137533Y95607D01*
X137786Y95777D01*
X137956Y96030D01*
X138015Y96329D01*
Y99340D01*
X137956Y99639D01*
X137805Y99865D01*
X137790Y99915D01*
X137848Y100315D01*
X137858Y100326D01*
X138266Y100734D01*
X138399Y101054D01*
X138799Y100974D01*
Y93115D01*
X138868Y92766D01*
X139066Y92471D01*
X142031Y89505D01*
X142327Y89308D01*
X142675Y89238D01*
X152583D01*
X152637Y89185D01*
Y87564D01*
X152688Y87305D01*
X152834Y87086D01*
X153054Y86940D01*
X153312Y86889D01*
X155153D01*
X155411Y86940D01*
X155630Y87086D01*
X155777Y87305D01*
X155828Y87564D01*
Y89798D01*
X155777Y90057D01*
X155730Y90126D01*
X155921Y90526D01*
X156480D01*
X156671Y90126D01*
X156625Y90057D01*
X156574Y89798D01*
Y87564D01*
X156625Y87305D01*
X156772Y87086D01*
X156991Y86940D01*
X157249Y86889D01*
X159090D01*
X159348Y86940D01*
X159567Y87086D01*
X159622Y87168D01*
X160298D01*
X161479Y85987D01*
Y68012D01*
X161479Y68012D01*
X161594Y67433D01*
X161922Y66942D01*
X173446Y55418D01*
X173937Y55090D01*
X174516Y54975D01*
X174516Y54975D01*
X209666D01*
X209707Y54934D01*
X209831Y54851D01*
X209936Y54746D01*
X210074Y54689D01*
X210198Y54606D01*
X210344Y54577D01*
X210482Y54520D01*
X210631D01*
X210777Y54491D01*
X210923Y54520D01*
X211072D01*
X211210Y54577D01*
X211356Y54606D01*
X211480Y54689D01*
X211618Y54746D01*
X211723Y54851D01*
X211847Y54934D01*
X211930Y55058D01*
X212035Y55163D01*
X212092Y55301D01*
X212175Y55425D01*
X212204Y55571D01*
X212261Y55709D01*
Y55858D01*
X212290Y56004D01*
X212261Y56150D01*
Y56299D01*
X212204Y56437D01*
X212175Y56583D01*
X212092Y56707D01*
X212035Y56845D01*
X211930Y56950D01*
X211847Y57074D01*
X211668Y57253D01*
X211651Y57302D01*
X211667Y57698D01*
X211773Y57804D01*
X211897Y57887D01*
X211980Y58011D01*
X212085Y58116D01*
X212142Y58254D01*
X212225Y58378D01*
X212254Y58524D01*
X212311Y58662D01*
Y58811D01*
X212340Y58957D01*
X212311Y59103D01*
Y59252D01*
X212254Y59390D01*
X212225Y59536D01*
X212142Y59660D01*
X212085Y59798D01*
X211980Y59903D01*
X211897Y60027D01*
X211773Y60110D01*
X211667Y60215D01*
X211694Y60632D01*
X211698Y60641D01*
X211897Y60839D01*
X211980Y60963D01*
X212085Y61069D01*
X212142Y61206D01*
X212225Y61330D01*
X212254Y61476D01*
X212311Y61614D01*
Y61763D01*
X212340Y61910D01*
X212311Y62056D01*
Y62205D01*
X212254Y62342D01*
X212225Y62489D01*
X212142Y62612D01*
X212085Y62750D01*
X211980Y62856D01*
X211897Y62980D01*
X211773Y63062D01*
X211667Y63168D01*
X211530Y63225D01*
X211406Y63308D01*
X211260Y63337D01*
X211122Y63394D01*
X210973D01*
X210827Y63423D01*
X210681Y63394D01*
X210531D01*
X210394Y63337D01*
X210248Y63308D01*
X210124Y63225D01*
X209986Y63168D01*
X209881Y63062D01*
X209757Y62980D01*
X209716Y62938D01*
X177188D01*
X169442Y70684D01*
Y88659D01*
X169442Y88659D01*
X169327Y89238D01*
X168999Y89729D01*
X168999Y89729D01*
X163564Y95165D01*
X163073Y95493D01*
X162494Y95608D01*
X162494Y95608D01*
X159622D01*
X159567Y95689D01*
X159348Y95836D01*
X159090Y95887D01*
X157249D01*
X156991Y95836D01*
X156772Y95689D01*
X156625Y95470D01*
X156574Y95212D01*
Y92977D01*
X156619Y92748D01*
X156617Y92705D01*
X156392Y92348D01*
X156010D01*
X155785Y92705D01*
X155782Y92748D01*
X155828Y92977D01*
Y95212D01*
X155777Y95470D01*
X155630Y95689D01*
X155411Y95836D01*
X155153Y95887D01*
X153312D01*
X153054Y95836D01*
X152834Y95689D01*
X152688Y95470D01*
X152637Y95212D01*
Y93636D01*
X144464D01*
X143196Y94904D01*
Y101454D01*
X143610Y101869D01*
X143770Y102107D01*
X144005Y102097D01*
X144170Y102041D01*
Y101978D01*
X144228Y101686D01*
X144394Y101438D01*
X148832Y96999D01*
X149081Y96833D01*
X149373Y96775D01*
X164939D01*
X171283Y90431D01*
Y71913D01*
X171341Y71620D01*
X171507Y71372D01*
X177687Y65192D01*
X177935Y65026D01*
X178227Y64968D01*
X202847D01*
Y64764D01*
X203072Y64218D01*
X203490Y63801D01*
X204035Y63575D01*
X204626D01*
X205171Y63801D01*
X205589Y64218D01*
X205815Y64764D01*
Y65354D01*
X205589Y65900D01*
X205412Y66077D01*
X205189Y66339D01*
X205412Y66600D01*
X205589Y66777D01*
X205815Y67323D01*
Y67913D01*
X205589Y68459D01*
X205171Y68876D01*
X204626Y69102D01*
X204035D01*
X203490Y68876D01*
X203072Y68459D01*
X202847Y67913D01*
Y67497D01*
X178958D01*
X173895Y72561D01*
Y90945D01*
X173836Y91237D01*
X173780Y91322D01*
X173754Y91455D01*
X173588Y91703D01*
X166211Y99080D01*
X165963Y99246D01*
X165670Y99304D01*
X150104D01*
X147668Y101741D01*
Y103175D01*
X147795Y103367D01*
X147849Y103638D01*
Y105610D01*
X147795Y105881D01*
X147642Y106111D01*
X147412Y106265D01*
X147141Y106319D01*
D02*
G37*
G36*
X121683Y106712D02*
X120180D01*
Y104728D01*
X122362D01*
Y106034D01*
X122310Y106293D01*
X122163Y106513D01*
X121943Y106661D01*
X121683Y106712D01*
D02*
G37*
G36*
X115089D02*
X113586D01*
Y104728D01*
X115767D01*
Y106034D01*
X115716Y106293D01*
X115569Y106513D01*
X115348Y106661D01*
X115089Y106712D01*
D02*
G37*
G36*
X119780D02*
X118278D01*
X118018Y106661D01*
X117798Y106513D01*
X117650Y106293D01*
X117599Y106034D01*
Y104728D01*
X119780D01*
Y106712D01*
D02*
G37*
G36*
X113186D02*
X111683D01*
X111423Y106661D01*
X111203Y106513D01*
X111056Y106293D01*
X111004Y106034D01*
Y104728D01*
X113186D01*
Y106712D01*
D02*
G37*
G36*
X122362Y104328D02*
X120180D01*
Y102343D01*
X121683D01*
X121943Y102394D01*
X122163Y102542D01*
X122310Y102762D01*
X122362Y103022D01*
Y104328D01*
D02*
G37*
G36*
X119780D02*
X117599D01*
Y103022D01*
X117650Y102762D01*
X117798Y102542D01*
X118018Y102394D01*
X118278Y102343D01*
X119780D01*
Y104328D01*
D02*
G37*
G36*
X115767D02*
X113586D01*
Y102343D01*
X115089D01*
X115348Y102394D01*
X115569Y102542D01*
X115716Y102762D01*
X115767Y103022D01*
Y104328D01*
D02*
G37*
G36*
X113186D02*
X111004D01*
Y103022D01*
X111056Y102762D01*
X111203Y102542D01*
X111423Y102394D01*
X111683Y102343D01*
X113186D01*
Y104328D01*
D02*
G37*
G36*
X213878Y131545D02*
X213878Y131545D01*
X199902D01*
X199519Y131387D01*
X199519Y131387D01*
X196960Y128828D01*
X196801Y128445D01*
X196801Y128445D01*
X196801Y113681D01*
X196801Y113681D01*
X196960Y113298D01*
X204675Y105583D01*
Y102461D01*
X204834Y102078D01*
X204834Y102078D01*
X207295Y99617D01*
X207295Y99617D01*
X207677Y99459D01*
X207677Y99459D01*
X231594D01*
X231977Y99617D01*
X231977Y99617D01*
X232666Y100306D01*
X232825Y100689D01*
X232825Y100689D01*
Y101575D01*
X232825Y101575D01*
Y119685D01*
X232825Y119685D01*
Y120768D01*
X232825Y120768D01*
X232666Y121150D01*
X232666Y121150D01*
X232174Y121642D01*
X232174Y121642D01*
X231791Y121801D01*
X231791Y121801D01*
X231536D01*
X231535Y121801D01*
X228386D01*
X228386Y121801D01*
X221890D01*
X221890Y121801D01*
X221166D01*
X216978Y126179D01*
Y128445D01*
X216820Y128828D01*
X216820Y128828D01*
X214261Y131387D01*
X213878Y131545D01*
D02*
G37*
G36*
X51662Y104201D02*
X50701D01*
X49772Y103952D01*
X48940Y103472D01*
X48261Y102792D01*
X47780Y101960D01*
X47532Y101032D01*
Y100071D01*
X47780Y99142D01*
X48261Y98310D01*
X48940Y97631D01*
X49772Y97150D01*
X50701Y96902D01*
X51662D01*
X52590Y97150D01*
X53422Y97631D01*
X54102Y98310D01*
X54582Y99142D01*
X54831Y100071D01*
Y101032D01*
X54582Y101960D01*
X54102Y102792D01*
X53422Y103472D01*
X52590Y103952D01*
X51662Y104201D01*
D02*
G37*
G36*
X81662D02*
X80701D01*
X79772Y103952D01*
X78940Y103472D01*
X78261Y102792D01*
X77780Y101960D01*
X77531Y101032D01*
Y100071D01*
X77780Y99142D01*
X78261Y98310D01*
X78940Y97631D01*
X79772Y97150D01*
X80159Y97047D01*
X80107Y96647D01*
X72255D01*
X72203Y97047D01*
X72590Y97150D01*
X73422Y97631D01*
X74102Y98310D01*
X74582Y99142D01*
X74831Y100071D01*
Y101032D01*
X74582Y101960D01*
X74102Y102792D01*
X73422Y103472D01*
X72590Y103952D01*
X71662Y104201D01*
X70701D01*
X69772Y103952D01*
X68940Y103472D01*
X68261Y102792D01*
X67780Y101960D01*
X67532Y101032D01*
Y100071D01*
X67780Y99142D01*
X68261Y98310D01*
X68940Y97631D01*
X69772Y97150D01*
X70160Y97047D01*
X70107Y96647D01*
X62255D01*
X62203Y97047D01*
X62590Y97150D01*
X63422Y97631D01*
X64101Y98310D01*
X64582Y99142D01*
X64831Y100071D01*
Y101032D01*
X64582Y101960D01*
X64101Y102792D01*
X63422Y103472D01*
X62590Y103952D01*
X61662Y104201D01*
X60701D01*
X59772Y103952D01*
X58940Y103472D01*
X58261Y102792D01*
X57780Y101960D01*
X57531Y101032D01*
Y100071D01*
X57780Y99142D01*
X58261Y98310D01*
X58940Y97631D01*
X59772Y97150D01*
X60159Y97047D01*
X60107Y96647D01*
X56512D01*
X56219Y96588D01*
X55971Y96423D01*
X53749Y94201D01*
X47532D01*
Y86902D01*
X54831D01*
Y93119D01*
X56829Y95117D01*
X64143D01*
X64296Y94748D01*
X63167Y93619D01*
X62590Y93952D01*
X61662Y94201D01*
X60701D01*
X59772Y93952D01*
X58940Y93472D01*
X58261Y92792D01*
X57780Y91960D01*
X57531Y91032D01*
Y90071D01*
X57780Y89143D01*
X58261Y88310D01*
X58940Y87631D01*
X59772Y87150D01*
X60701Y86902D01*
X61662D01*
X62590Y87150D01*
X63422Y87631D01*
X64101Y88310D01*
X64582Y89143D01*
X64831Y90071D01*
Y91032D01*
X64582Y91960D01*
X64249Y92537D01*
X65829Y94117D01*
X69458D01*
X69566Y93717D01*
X69002Y93392D01*
X68341Y92731D01*
X67873Y91921D01*
X67632Y91018D01*
Y90751D01*
X74731D01*
Y91018D01*
X74489Y91921D01*
X74022Y92731D01*
X73361Y93392D01*
X72797Y93717D01*
X72904Y94117D01*
X79458D01*
X79566Y93717D01*
X79002Y93392D01*
X78341Y92731D01*
X77873Y91921D01*
X77631Y91018D01*
Y90751D01*
X84731D01*
Y91018D01*
X84489Y91921D01*
X84022Y92731D01*
X83361Y93392D01*
X82797Y93717D01*
X82904Y94117D01*
X86101D01*
X90010Y90207D01*
X90259Y90042D01*
X90551Y89983D01*
X91515D01*
Y89828D01*
X91566Y89569D01*
X91712Y89350D01*
X91931Y89204D01*
X92190Y89152D01*
X94424D01*
X94683Y89204D01*
X94902Y89350D01*
X95048Y89569D01*
X95100Y89828D01*
Y89983D01*
X96928D01*
Y89828D01*
X96979Y89569D01*
X97126Y89350D01*
X97345Y89204D01*
X97603Y89152D01*
X99838D01*
X100096Y89204D01*
X100315Y89350D01*
X100462Y89569D01*
X100513Y89828D01*
Y91668D01*
X100462Y91927D01*
X100315Y92146D01*
X100096Y92292D01*
X99838Y92344D01*
X97603D01*
X97345Y92292D01*
X97126Y92146D01*
X96979Y91927D01*
X96928Y91668D01*
Y91513D01*
X95100D01*
Y91668D01*
X95048Y91927D01*
X94902Y92146D01*
X94683Y92292D01*
X94424Y92344D01*
X92190D01*
X91931Y92292D01*
X91712Y92146D01*
X91566Y91927D01*
X91515Y91668D01*
Y91513D01*
X90868D01*
X87069Y95311D01*
X87072Y95341D01*
X91065Y99334D01*
X91515D01*
Y99178D01*
X91566Y98920D01*
X91712Y98701D01*
X91931Y98554D01*
X92190Y98503D01*
X94424D01*
X94683Y98554D01*
X94902Y98701D01*
X95048Y98920D01*
X95100Y99178D01*
Y99334D01*
X96928D01*
Y99178D01*
X96979Y98920D01*
X97126Y98701D01*
X97345Y98554D01*
X97603Y98503D01*
X99838D01*
X100096Y98554D01*
X100315Y98701D01*
X100462Y98920D01*
X100513Y99178D01*
Y101019D01*
X100462Y101277D01*
X100315Y101496D01*
X100096Y101643D01*
X99838Y101694D01*
X97603D01*
X97345Y101643D01*
X97126Y101496D01*
X96979Y101277D01*
X96928Y101019D01*
Y100863D01*
X95100D01*
Y101019D01*
X95048Y101277D01*
X94902Y101496D01*
X94683Y101643D01*
X94424Y101694D01*
X92190D01*
X91931Y101643D01*
X91712Y101496D01*
X91566Y101277D01*
X91515Y101019D01*
Y100863D01*
X90748D01*
X90455Y100805D01*
X90207Y100639D01*
X90207Y100639D01*
X86215Y96647D01*
X82255D01*
X82203Y97047D01*
X82590Y97150D01*
X83422Y97631D01*
X84101Y98310D01*
X84582Y99142D01*
X84831Y100071D01*
Y101032D01*
X84582Y101960D01*
X84101Y102792D01*
X83422Y103472D01*
X82590Y103952D01*
X81662Y104201D01*
D02*
G37*
G36*
X94424Y97690D02*
X93507D01*
Y96361D01*
X95033D01*
Y97082D01*
X94855Y97512D01*
X94424Y97690D01*
D02*
G37*
G36*
X93107D02*
X92190D01*
X91760Y97512D01*
X91581Y97082D01*
Y96361D01*
X93107D01*
Y97690D01*
D02*
G37*
G36*
X99838Y97757D02*
X97603D01*
X97345Y97706D01*
X97126Y97559D01*
X96979Y97340D01*
X96928Y97082D01*
Y95241D01*
X96979Y94983D01*
X97126Y94764D01*
X97345Y94617D01*
X97603Y94566D01*
X99838D01*
X100096Y94617D01*
X100315Y94764D01*
X100462Y94983D01*
X100513Y95241D01*
Y95397D01*
X101171D01*
X101202Y95321D01*
X101620Y94903D01*
X102165Y94677D01*
X102756D01*
X103301Y94903D01*
X103719Y95321D01*
X103945Y95866D01*
Y96457D01*
X103719Y97002D01*
X103301Y97420D01*
X102756Y97646D01*
X102165D01*
X101620Y97420D01*
X101202Y97002D01*
X101171Y96926D01*
X100513D01*
Y97082D01*
X100462Y97340D01*
X100315Y97559D01*
X100096Y97706D01*
X99838Y97757D01*
D02*
G37*
G36*
X95033Y95961D02*
X93507D01*
Y94632D01*
X94424D01*
X94855Y94811D01*
X95033Y95241D01*
Y95961D01*
D02*
G37*
G36*
X93107D02*
X91581D01*
Y95241D01*
X91760Y94811D01*
X92190Y94632D01*
X93107D01*
Y95961D01*
D02*
G37*
G36*
X126708Y94541D02*
X125987D01*
Y93015D01*
X127316D01*
Y93932D01*
X127138Y94362D01*
X126708Y94541D01*
D02*
G37*
G36*
X125587D02*
X124867D01*
X124437Y94362D01*
X124258Y93932D01*
Y93015D01*
X125587D01*
Y94541D01*
D02*
G37*
G36*
X127316Y92615D02*
X125987D01*
Y91089D01*
X126708D01*
X127138Y91267D01*
X127316Y91698D01*
Y92615D01*
D02*
G37*
G36*
X125587D02*
X124258D01*
Y91698D01*
X124437Y91267D01*
X124867Y91089D01*
X125587D01*
Y92615D01*
D02*
G37*
G36*
X191085Y91004D02*
X190635D01*
Y90554D01*
X191085D01*
Y91004D01*
D02*
G37*
G36*
Y90154D02*
X190635D01*
Y89704D01*
X191085D01*
Y90154D01*
D02*
G37*
G36*
X94424Y88340D02*
X93507D01*
Y87011D01*
X95033D01*
Y87731D01*
X94855Y88162D01*
X94424Y88340D01*
D02*
G37*
G36*
X93107D02*
X92190D01*
X91760Y88162D01*
X91581Y87731D01*
Y87011D01*
X93107D01*
Y88340D01*
D02*
G37*
G36*
X84731Y90351D02*
X81381D01*
Y87002D01*
X81648D01*
X82551Y87243D01*
X83361Y87711D01*
X84022Y88372D01*
X84489Y89181D01*
X84731Y90084D01*
Y90351D01*
D02*
G37*
G36*
X80981D02*
X77631D01*
Y90084D01*
X77873Y89181D01*
X78341Y88372D01*
X79002Y87711D01*
X79811Y87243D01*
X80714Y87002D01*
X80981D01*
Y90351D01*
D02*
G37*
G36*
X74731D02*
X71381D01*
Y87002D01*
X71648D01*
X72551Y87243D01*
X73361Y87711D01*
X74022Y88372D01*
X74489Y89181D01*
X74731Y90084D01*
Y90351D01*
D02*
G37*
G36*
X70981D02*
X67632D01*
Y90084D01*
X67873Y89181D01*
X68341Y88372D01*
X69002Y87711D01*
X69811Y87243D01*
X70714Y87002D01*
X70981D01*
Y90351D01*
D02*
G37*
G36*
X145571Y86860D02*
X145571Y86860D01*
X138878D01*
X138878Y86860D01*
X138654Y86767D01*
X138495Y86702D01*
X138495Y86702D01*
X137413Y85619D01*
X137413Y85619D01*
X137254Y85236D01*
X137254Y85236D01*
Y78642D01*
X137413Y78259D01*
X137795Y78101D01*
X146654D01*
X147036Y78259D01*
X147195Y78642D01*
Y85236D01*
X147036Y85619D01*
X145954Y86702D01*
X145954Y86702D01*
X145762Y86781D01*
X145571Y86860D01*
D02*
G37*
G36*
X20654Y110736D02*
X18716D01*
X16802Y110433D01*
X14959Y109834D01*
X13233Y108955D01*
X11665Y107816D01*
X10295Y106445D01*
X9156Y104878D01*
X8276Y103151D01*
X7677Y101308D01*
X7374Y99394D01*
Y97456D01*
X7677Y95542D01*
X8276Y93699D01*
X9156Y91973D01*
X10295Y90405D01*
X11665Y89035D01*
X13233Y87896D01*
X14959Y87016D01*
X16802Y86417D01*
X18716Y86114D01*
X20654D01*
X22568Y86417D01*
X24411Y87016D01*
X26137Y87896D01*
X27705Y89035D01*
X29075Y90405D01*
X30214Y91973D01*
X31094Y93699D01*
X31693Y95542D01*
X31996Y97456D01*
Y99394D01*
X31693Y101308D01*
X31094Y103151D01*
X30214Y104878D01*
X29075Y106445D01*
X27705Y107816D01*
X26137Y108955D01*
X24411Y109834D01*
X22568Y110433D01*
X20654Y110736D01*
D02*
G37*
G36*
X95033Y86611D02*
X93507D01*
Y85282D01*
X94424D01*
X94855Y85460D01*
X95033Y85891D01*
Y86611D01*
D02*
G37*
G36*
X93107D02*
X91581D01*
Y85891D01*
X91760Y85460D01*
X92190Y85282D01*
X93107D01*
Y86611D01*
D02*
G37*
G36*
X99838Y88407D02*
X97603D01*
X97345Y88355D01*
X97126Y88209D01*
X96979Y87990D01*
X96928Y87731D01*
Y85891D01*
X96979Y85632D01*
X97126Y85413D01*
X97345Y85267D01*
X97603Y85215D01*
X97643D01*
X97809Y84815D01*
X97222Y84228D01*
X97146Y84260D01*
X96555D01*
X96010Y84034D01*
X95592Y83616D01*
X95366Y83071D01*
Y82480D01*
X95592Y81935D01*
X96010Y81517D01*
X96555Y81291D01*
X97146D01*
X97691Y81517D01*
X98109Y81935D01*
X98335Y82480D01*
Y83071D01*
X98303Y83147D01*
X99261Y84105D01*
X99427Y84353D01*
X99485Y84646D01*
Y85215D01*
X99838D01*
X100096Y85267D01*
X100315Y85413D01*
X100462Y85632D01*
X100513Y85891D01*
Y87731D01*
X100462Y87990D01*
X100315Y88209D01*
X100096Y88355D01*
X99838Y88407D01*
D02*
G37*
G36*
X110236Y100935D02*
X109853Y100776D01*
X109853Y100776D01*
X105917Y96839D01*
X105758Y96457D01*
X105758Y96457D01*
X105758Y84968D01*
X98595Y77805D01*
X63484Y77805D01*
X63102Y77647D01*
X63102Y77647D01*
X51980Y66524D01*
X51821Y66142D01*
X51821Y66142D01*
Y62131D01*
X51842Y62080D01*
X51831Y62025D01*
X51864Y61860D01*
X51831Y61694D01*
X51842Y61640D01*
X51821Y61589D01*
Y13031D01*
X51900Y12842D01*
X51977Y12651D01*
X61015Y3507D01*
X61016Y3507D01*
X61017Y3505D01*
X61207Y3427D01*
X61397Y3347D01*
X61398Y3347D01*
X61400Y3347D01*
X263730D01*
X263730Y3347D01*
X264113Y3505D01*
X264113Y3505D01*
X265343Y4735D01*
X265502Y5118D01*
X265502Y5118D01*
X265502Y28642D01*
X265343Y29024D01*
X265343Y29024D01*
X265160Y29207D01*
X265269Y29664D01*
X265442Y29735D01*
X265442Y29735D01*
X286603Y50895D01*
X286603Y50895D01*
X286669Y51054D01*
X286762Y51278D01*
X286762Y51278D01*
Y78937D01*
X286603Y79320D01*
X283847Y82076D01*
X283465Y82234D01*
X283465Y82234D01*
X267815D01*
X267815Y82234D01*
X267432Y82076D01*
X267432Y82076D01*
X238555Y53199D01*
X223819D01*
X223819Y53199D01*
X223436Y53040D01*
X223436Y53040D01*
X222747Y52351D01*
X222747Y52351D01*
X222589Y51968D01*
X222589Y51968D01*
Y30906D01*
X222589Y30906D01*
X222747Y30523D01*
X222714Y30153D01*
X222679Y30069D01*
X208886D01*
X202745Y36209D01*
X202362Y36368D01*
X202362Y36368D01*
X151700D01*
X147096Y40972D01*
Y61221D01*
X147096Y61221D01*
X146938Y61603D01*
X139457Y69083D01*
X139075Y69242D01*
X139075Y69242D01*
X117842D01*
X116880Y70205D01*
Y77040D01*
X117940Y78101D01*
X132677Y78101D01*
X133060Y78259D01*
X133218Y78642D01*
X133218Y84126D01*
X137883Y88791D01*
X138041Y89173D01*
X138041Y89173D01*
X138041Y89173D01*
X138041Y93418D01*
X138041Y93418D01*
X137997Y93524D01*
X137956Y93734D01*
X137786Y93987D01*
X137533Y94156D01*
X137323Y94198D01*
X137217Y94242D01*
X137217Y94242D01*
X133787D01*
X133552Y94477D01*
X133169Y94636D01*
X133169Y94636D01*
X128642D01*
X128259Y94477D01*
X128101Y94095D01*
Y90972D01*
X127630Y90502D01*
X122960D01*
X122490Y90972D01*
Y91556D01*
X122469Y91607D01*
X122480Y91662D01*
X122392Y91793D01*
X122332Y91939D01*
X122280Y91960D01*
X122249Y92006D01*
X122056Y92135D01*
X121848Y92447D01*
X121775Y92815D01*
X121848Y93183D01*
X122056Y93495D01*
X122249Y93624D01*
X122280Y93670D01*
X122332Y93691D01*
X122392Y93837D01*
X122480Y93968D01*
X122469Y94023D01*
X122490Y94074D01*
X122490Y100394D01*
X122332Y100776D01*
X121949Y100935D01*
X110236D01*
X110236Y100935D01*
D02*
G37*
G36*
X127495Y77316D02*
X126578D01*
Y75987D01*
X128104D01*
Y76708D01*
X127926Y77138D01*
X127495Y77316D01*
D02*
G37*
G36*
X126178D02*
X125261D01*
X124830Y77138D01*
X124652Y76708D01*
Y75987D01*
X126178D01*
Y77316D01*
D02*
G37*
G36*
X219685Y80561D02*
X210925D01*
X210542Y80402D01*
X210542Y80402D01*
X209854Y79713D01*
X209695Y79331D01*
X209695Y79331D01*
Y76279D01*
X209695Y76279D01*
X209854Y75897D01*
X209854Y75897D01*
X210542Y75208D01*
X210925Y75049D01*
X210925Y75049D01*
X218996Y75049D01*
X219379Y75208D01*
X219379Y75208D01*
X220068Y75897D01*
X220068Y75897D01*
X220133Y76055D01*
X220226Y76279D01*
X220226Y76279D01*
Y77473D01*
X220232Y77485D01*
Y79916D01*
X220226Y79929D01*
Y80020D01*
X220068Y80402D01*
X219685Y80561D01*
D02*
G37*
G36*
X146388Y76693D02*
X144885D01*
Y74708D01*
X147067D01*
Y76014D01*
X147015Y76274D01*
X146868Y76494D01*
X146648Y76641D01*
X146388Y76693D01*
D02*
G37*
G36*
X121782D02*
X120279D01*
Y74708D01*
X122460D01*
Y76014D01*
X122409Y76274D01*
X122262Y76494D01*
X122041Y76641D01*
X121782Y76693D01*
D02*
G37*
G36*
X144485D02*
X142982D01*
X142722Y76641D01*
X142502Y76494D01*
X142355Y76274D01*
X142304Y76014D01*
Y74708D01*
X144485D01*
Y76693D01*
D02*
G37*
G36*
X119879D02*
X118376D01*
X118116Y76641D01*
X117896Y76494D01*
X117749Y76274D01*
X117697Y76014D01*
Y74708D01*
X119879D01*
Y76693D01*
D02*
G37*
G36*
X128104Y75587D02*
X126578D01*
Y74258D01*
X127495D01*
X127926Y74437D01*
X128104Y74867D01*
Y75587D01*
D02*
G37*
G36*
X126178D02*
X124652D01*
Y74867D01*
X124830Y74437D01*
X125261Y74258D01*
X126178D01*
Y75587D01*
D02*
G37*
G36*
X158563Y76287D02*
X157973D01*
X157427Y76061D01*
X157009Y75644D01*
X156783Y75098D01*
Y74508D01*
X157009Y73962D01*
X157427Y73545D01*
X157973Y73319D01*
X158563D01*
X159108Y73545D01*
X159526Y73962D01*
X159752Y74508D01*
Y75098D01*
X159526Y75644D01*
X159108Y76061D01*
X158563Y76287D01*
D02*
G37*
G36*
X155020D02*
X154429D01*
X153884Y76061D01*
X153466Y75644D01*
X153240Y75098D01*
Y74508D01*
X153466Y73962D01*
X153884Y73545D01*
X154429Y73319D01*
X155020D01*
X155565Y73545D01*
X155983Y73962D01*
X156209Y74508D01*
Y75098D01*
X155983Y75644D01*
X155565Y76061D01*
X155020Y76287D01*
D02*
G37*
G36*
X136240Y75152D02*
X135436D01*
Y72739D01*
X136865D01*
Y74528D01*
X136682Y74969D01*
X136240Y75152D01*
D02*
G37*
G36*
X135036D02*
X134232D01*
X133791Y74969D01*
X133608Y74528D01*
Y72739D01*
X135036D01*
Y75152D01*
D02*
G37*
G36*
X147067Y74308D02*
X144885D01*
Y72323D01*
X146388D01*
X146648Y72375D01*
X146868Y72522D01*
X147015Y72742D01*
X147067Y73002D01*
Y74308D01*
D02*
G37*
G36*
X144485D02*
X142304D01*
Y73002D01*
X142355Y72742D01*
X142502Y72522D01*
X142722Y72375D01*
X142982Y72323D01*
X144485D01*
Y74308D01*
D02*
G37*
G36*
X122460D02*
X120279D01*
Y72323D01*
X121782D01*
X122041Y72375D01*
X122262Y72522D01*
X122409Y72742D01*
X122460Y73002D01*
Y74308D01*
D02*
G37*
G36*
X119879D02*
X117697D01*
Y73002D01*
X117749Y72742D01*
X117896Y72522D01*
X118116Y72375D01*
X118376Y72323D01*
X119879D01*
Y74308D01*
D02*
G37*
G36*
X184547Y75106D02*
X183957D01*
X183411Y74880D01*
X182994Y74463D01*
X182768Y73917D01*
Y73327D01*
X182994Y72781D01*
X183411Y72364D01*
X183957Y72138D01*
X184547D01*
X185093Y72364D01*
X185510Y72781D01*
X185736Y73327D01*
Y73917D01*
X185510Y74463D01*
X185093Y74880D01*
X184547Y75106D01*
D02*
G37*
G36*
X181004D02*
X180413D01*
X179868Y74880D01*
X179450Y74463D01*
X179224Y73917D01*
Y73327D01*
X179450Y72781D01*
X179868Y72364D01*
X180413Y72138D01*
X181004D01*
X181549Y72364D01*
X181967Y72781D01*
X182193Y73327D01*
Y73917D01*
X181967Y74463D01*
X181549Y74880D01*
X181004Y75106D01*
D02*
G37*
G36*
X136865Y72339D02*
X135436D01*
Y69927D01*
X136240D01*
X136682Y70109D01*
X136865Y70551D01*
Y72339D01*
D02*
G37*
G36*
X135036D02*
X133608D01*
Y70551D01*
X133791Y70109D01*
X134232Y69927D01*
X135036D01*
Y72339D01*
D02*
G37*
G36*
X158563Y72744D02*
X157973D01*
X157427Y72518D01*
X157009Y72101D01*
X156783Y71555D01*
Y70965D01*
X157009Y70419D01*
X157427Y70002D01*
X157973Y69776D01*
X158563D01*
X159108Y70002D01*
X159526Y70419D01*
X159752Y70965D01*
Y71555D01*
X159526Y72101D01*
X159108Y72518D01*
X158563Y72744D01*
D02*
G37*
G36*
X155020D02*
X154429D01*
X153884Y72518D01*
X153466Y72101D01*
X153240Y71555D01*
Y70965D01*
X153466Y70419D01*
X153884Y70002D01*
X154429Y69776D01*
X155020D01*
X155565Y70002D01*
X155983Y70419D01*
X156209Y70965D01*
Y71555D01*
X155983Y72101D01*
X155565Y72518D01*
X155020Y72744D01*
D02*
G37*
G36*
X231544Y71315D02*
X230656D01*
Y68901D01*
X232185D01*
Y70674D01*
X231997Y71127D01*
X231544Y71315D01*
D02*
G37*
G36*
X230256D02*
X229369D01*
X228916Y71127D01*
X228728Y70674D01*
Y68901D01*
X230256D01*
Y71315D01*
D02*
G37*
G36*
X184547Y71563D02*
X183957D01*
X183411Y71337D01*
X182994Y70920D01*
X182768Y70374D01*
Y69784D01*
X182994Y69238D01*
X183411Y68821D01*
X183957Y68594D01*
X184547D01*
X185093Y68821D01*
X185510Y69238D01*
X185736Y69784D01*
Y70374D01*
X185510Y70920D01*
X185093Y71337D01*
X184547Y71563D01*
D02*
G37*
G36*
X181004D02*
X180413D01*
X179868Y71337D01*
X179450Y70920D01*
X179224Y70374D01*
Y69784D01*
X179450Y69238D01*
X179868Y68821D01*
X180413Y68594D01*
X181004D01*
X181549Y68821D01*
X181967Y69238D01*
X182193Y69784D01*
Y70374D01*
X181967Y70920D01*
X181549Y71337D01*
X181004Y71563D01*
D02*
G37*
G36*
X45768Y75342D02*
X36909D01*
X36138Y75188D01*
X35485Y74752D01*
X35048Y74098D01*
X34894Y73327D01*
Y70374D01*
X35048Y69603D01*
X35485Y68949D01*
X36138Y68512D01*
X36909Y68359D01*
X45768D01*
X46539Y68512D01*
X47193Y68949D01*
X47629Y69603D01*
X47783Y70374D01*
Y73327D01*
X47629Y74098D01*
X47193Y74752D01*
X46539Y75188D01*
X45768Y75342D01*
D02*
G37*
G36*
X222120Y69114D02*
X220617D01*
Y67129D01*
X222798D01*
Y68435D01*
X222747Y68695D01*
X222600Y68915D01*
X222379Y69062D01*
X222120Y69114D01*
D02*
G37*
G36*
X220217D02*
X218714D01*
X218454Y69062D01*
X218234Y68915D01*
X218087Y68695D01*
X218035Y68435D01*
Y67129D01*
X220217D01*
Y69114D01*
D02*
G37*
G36*
X232185Y68501D02*
X230656D01*
Y66087D01*
X231544D01*
X231997Y66274D01*
X232185Y66727D01*
Y68501D01*
D02*
G37*
G36*
X230256D02*
X228728D01*
Y66727D01*
X228916Y66274D01*
X229369Y66087D01*
X230256D01*
Y68501D01*
D02*
G37*
G36*
X222798Y66729D02*
X220617D01*
Y64744D01*
X222120D01*
X222379Y64796D01*
X222600Y64943D01*
X222747Y65163D01*
X222798Y65423D01*
Y66729D01*
D02*
G37*
G36*
X220217D02*
X218035D01*
Y65423D01*
X218087Y65163D01*
X218234Y64943D01*
X218454Y64796D01*
X218714Y64744D01*
X220217D01*
Y66729D01*
D02*
G37*
G36*
X222120Y63310D02*
X218714D01*
X218415Y63251D01*
X218162Y63082D01*
X217993Y62828D01*
X217933Y62529D01*
Y59518D01*
X217993Y59219D01*
X218162Y58966D01*
X218415Y58796D01*
X218714Y58737D01*
X221232D01*
X221701Y58269D01*
X221701Y58269D01*
X222061Y58028D01*
X222487Y57943D01*
X222487Y57943D01*
X224923D01*
Y57672D01*
X224977Y57402D01*
X225130Y57173D01*
X225359Y57020D01*
X225629Y56967D01*
X227804D01*
X228074Y57020D01*
X228303Y57173D01*
X228455Y57402D01*
X228509Y57672D01*
Y58019D01*
X228842Y58242D01*
X229035Y58161D01*
X229626D01*
X230171Y58387D01*
X230589Y58805D01*
X230815Y59350D01*
Y59941D01*
X230589Y60486D01*
X230171Y60904D01*
X229626Y61130D01*
X229035D01*
X228842Y61050D01*
X228509Y61272D01*
Y61619D01*
X228455Y61889D01*
X228303Y62118D01*
X228074Y62271D01*
X227804Y62325D01*
X225629D01*
X225359Y62271D01*
X225130Y62118D01*
X224977Y61889D01*
X224923Y61619D01*
Y60167D01*
X222947D01*
X222901Y60214D01*
Y62529D01*
X222841Y62828D01*
X222672Y63082D01*
X222418Y63251D01*
X222120Y63310D01*
D02*
G37*
G36*
X234449Y65658D02*
X233858D01*
X233313Y65431D01*
X232895Y65014D01*
X232669Y64468D01*
Y63878D01*
X232895Y63332D01*
X233313Y62915D01*
X233389Y62883D01*
Y62325D01*
X233109D01*
X232839Y62271D01*
X232610Y62118D01*
X232457Y61889D01*
X232403Y61619D01*
Y57672D01*
X232457Y57402D01*
X232610Y57173D01*
X232839Y57020D01*
X233109Y56967D01*
X235284D01*
X235554Y57020D01*
X235783Y57173D01*
X235936Y57402D01*
X235990Y57672D01*
Y61619D01*
X235936Y61889D01*
X235783Y62118D01*
X235554Y62271D01*
X235284Y62325D01*
X234918D01*
Y62883D01*
X234994Y62915D01*
X235412Y63332D01*
X235638Y63878D01*
Y64468D01*
X235412Y65014D01*
X234994Y65431D01*
X234449Y65658D01*
D02*
G37*
G36*
X218012Y53395D02*
X218012Y53395D01*
X205118D01*
X204987Y53341D01*
X204735Y53237D01*
X204735Y53237D01*
X204447Y52948D01*
X204270Y53022D01*
X191929D01*
X191546Y52863D01*
X191388Y52480D01*
Y46811D01*
X190578D01*
Y46361D01*
X191228D01*
Y45961D01*
X190578D01*
Y45511D01*
X191388D01*
Y40157D01*
X191546Y39775D01*
X191929Y39616D01*
X204270D01*
X204297Y39628D01*
X204440Y39283D01*
X205917Y37806D01*
X206299Y37648D01*
X206299Y37648D01*
X219587D01*
X219969Y37806D01*
X220128Y38189D01*
Y38299D01*
X220133Y38312D01*
Y40743D01*
X220128Y40756D01*
Y43299D01*
X220133Y43312D01*
Y45743D01*
X220128Y45756D01*
Y48299D01*
X220133Y48312D01*
Y50743D01*
X220128Y50756D01*
Y51279D01*
X220128Y51279D01*
X219969Y51662D01*
X219969Y51662D01*
X218394Y53237D01*
X218394Y53237D01*
X218203Y53316D01*
X218012Y53395D01*
D02*
G37*
G36*
X219587Y36368D02*
X210827D01*
X210444Y36209D01*
X210444Y36209D01*
X209755Y35520D01*
X209597Y35138D01*
X209597Y35138D01*
Y32087D01*
X209597Y32087D01*
X209755Y31704D01*
X209755Y31704D01*
X210444Y31015D01*
X210827Y30856D01*
X210827Y30856D01*
X218898Y30856D01*
X219280Y31015D01*
X219280Y31015D01*
X219969Y31704D01*
X219969Y31704D01*
X220035Y31862D01*
X220128Y32087D01*
X220128Y32087D01*
Y33299D01*
X220133Y33312D01*
Y35743D01*
X220128Y35756D01*
Y35827D01*
X219969Y36209D01*
X219587Y36368D01*
D02*
G37*
G36*
X45768Y22192D02*
X36909D01*
X36138Y22039D01*
X35485Y21602D01*
X35048Y20948D01*
X34894Y20177D01*
Y17224D01*
X35048Y16453D01*
X35485Y15800D01*
X36138Y15363D01*
X36909Y15209D01*
X45768D01*
X46539Y15363D01*
X47193Y15800D01*
X47629Y16453D01*
X47783Y17224D01*
Y20177D01*
X47629Y20948D01*
X47193Y21602D01*
X46539Y22039D01*
X45768Y22192D01*
D02*
G37*
G36*
X296245Y31996D02*
X294307D01*
X292393Y31693D01*
X290550Y31094D01*
X288823Y30214D01*
X287256Y29075D01*
X285885Y27705D01*
X284746Y26137D01*
X283867Y24411D01*
X283268Y22568D01*
X282965Y20654D01*
Y18716D01*
X283268Y16802D01*
X283867Y14959D01*
X284746Y13233D01*
X285885Y11665D01*
X287256Y10295D01*
X288823Y9156D01*
X290550Y8276D01*
X292393Y7677D01*
X294307Y7374D01*
X296245D01*
X298158Y7677D01*
X300001Y8276D01*
X301728Y9156D01*
X303296Y10295D01*
X304666Y11665D01*
X305805Y13233D01*
X306685Y14959D01*
X307283Y16802D01*
X307587Y18716D01*
Y20654D01*
X307283Y22568D01*
X306685Y24411D01*
X305805Y26137D01*
X304666Y27705D01*
X303296Y29075D01*
X301728Y30214D01*
X300001Y31094D01*
X298158Y31693D01*
X296245Y31996D01*
D02*
G37*
%LPD*%
G36*
X262500Y190945D02*
X264961Y188484D01*
X264961Y164862D01*
X264173Y164075D01*
X218229D01*
X218110Y164124D01*
X218110Y164124D01*
X214715D01*
X212894Y165945D01*
X212894Y189272D01*
X214567Y190945D01*
X227854D01*
X262500Y190945D01*
D02*
G37*
G36*
X219685Y162008D02*
Y148917D01*
X206496Y148917D01*
X204921Y150492D01*
Y156240D01*
X205571D01*
Y156690D01*
X204921D01*
Y157090D01*
X205571D01*
Y157540D01*
X204921D01*
Y163287D01*
X205217Y163583D01*
X218110D01*
X219685Y162008D01*
D02*
G37*
G36*
Y142815D02*
X218996Y142126D01*
X210925Y142126D01*
X210236Y142815D01*
Y145866D01*
X210925Y146555D01*
X219685D01*
Y142815D01*
D02*
G37*
G36*
X256693Y163386D02*
X258071Y162008D01*
Y154134D01*
X266535Y145669D01*
X278051Y145669D01*
X286811Y136909D01*
Y118504D01*
X283563Y115256D01*
X261516D01*
X234646Y142126D01*
X223721Y142126D01*
X223228Y142618D01*
X223228Y162697D01*
X223917Y163386D01*
X256693Y163386D01*
D02*
G37*
G36*
X218110Y97047D02*
X219685Y95472D01*
Y82382D01*
X206398D01*
X204921Y83858D01*
Y89704D01*
X205526D01*
Y91004D01*
X204921D01*
Y96752D01*
X205217Y97047D01*
X218110Y97047D01*
D02*
G37*
G36*
X169095Y187795D02*
X169095Y172835D01*
X168307Y172047D01*
X159153D01*
X158858Y172343D01*
Y188254D01*
X159187Y188583D01*
X168307D01*
X169095Y187795D01*
D02*
G37*
G36*
X264862Y161122D02*
X264862Y155413D01*
X264075Y154626D01*
X261122Y154626D01*
X260433Y155315D01*
Y161811D01*
X264173D01*
X264862Y161122D01*
D02*
G37*
G36*
X243209Y121260D02*
X243701Y120768D01*
X243701Y117421D01*
X243110Y116831D01*
X235827D01*
Y120571D01*
X236516Y121260D01*
X243209Y121260D01*
D02*
G37*
G36*
X255906Y114469D02*
X259547Y110827D01*
X283760D01*
X286713Y107874D01*
Y88583D01*
X283760Y85630D01*
X264961Y85630D01*
X254845Y75515D01*
X254834Y75512D01*
X254804Y75492D01*
X224016Y75492D01*
X223228Y76279D01*
Y96161D01*
X223917Y96850D01*
X232874D01*
X235827Y99803D01*
X235827Y114469D01*
X255906Y114469D01*
D02*
G37*
G36*
X216437Y128445D02*
Y125962D01*
X220935Y121260D01*
X231791D01*
X232283Y120768D01*
Y100689D01*
X231594Y100000D01*
X207677D01*
X205217Y102461D01*
Y105807D01*
X197343Y113681D01*
X197343Y128445D01*
X199902Y131004D01*
X213878D01*
X216437Y128445D01*
D02*
G37*
G36*
X146654Y85236D02*
Y78642D01*
X137795D01*
Y85236D01*
X138878Y86319D01*
X145571D01*
X146654Y85236D01*
D02*
G37*
G36*
X121949Y94074D02*
X121666Y93885D01*
X121338Y93394D01*
X121223Y92815D01*
X121338Y92236D01*
X121666Y91745D01*
X121949Y91556D01*
Y90748D01*
X122736Y89961D01*
X127854D01*
X128642Y90748D01*
Y94095D01*
X133169D01*
X133563Y93701D01*
X137217D01*
X137500Y93418D01*
X137500Y89173D01*
X132677Y84350D01*
X132677Y78642D01*
X117716Y78642D01*
X116339Y77264D01*
Y69980D01*
X117618Y68701D01*
X139075D01*
X146555Y61221D01*
Y40748D01*
X151476Y35827D01*
X202362D01*
X208661Y29528D01*
X237185D01*
X237266Y29429D01*
X237381Y28850D01*
X237709Y28359D01*
X238200Y28031D01*
X238779Y27916D01*
X239359Y28031D01*
X239534Y28148D01*
X239862Y28351D01*
X240190Y28148D01*
X240366Y28031D01*
X240945Y27916D01*
X241524Y28031D01*
X242015Y28359D01*
X242343Y28850D01*
X242458Y29429D01*
X242539Y29528D01*
X264075D01*
X264961Y28642D01*
X264961Y5118D01*
X263730Y3888D01*
X61400D01*
X52362Y13031D01*
Y61589D01*
X52416Y61860D01*
X52362Y62131D01*
Y66142D01*
X63484Y77264D01*
X98819Y77264D01*
X106299Y84744D01*
X106299Y96457D01*
X110236Y100394D01*
X121949D01*
X121949Y94074D01*
D02*
G37*
G36*
X286221Y78937D02*
Y51278D01*
X265059Y30118D01*
X242270D01*
X242015Y30499D01*
X241524Y30827D01*
X240945Y30942D01*
X240366Y30827D01*
X239875Y30499D01*
X239850D01*
X239359Y30827D01*
X238779Y30942D01*
X238200Y30827D01*
X237709Y30499D01*
X237455Y30118D01*
X223917D01*
X223130Y30906D01*
Y51968D01*
X223819Y52658D01*
X238779D01*
X267815Y81693D01*
X283465D01*
X286221Y78937D01*
D02*
G37*
%LPC*%
G36*
X94604Y73216D02*
X94024Y73100D01*
X93533Y72772D01*
X93205Y72281D01*
X93090Y71702D01*
X93205Y71123D01*
X93533Y70632D01*
X94024Y70304D01*
X94604Y70189D01*
X95183Y70304D01*
X95674Y70632D01*
X96002Y71123D01*
X96117Y71702D01*
X96002Y72281D01*
X95674Y72772D01*
X95183Y73100D01*
X94604Y73216D01*
D02*
G37*
G36*
X64961Y38923D02*
X63435Y38773D01*
X61968Y38328D01*
X60615Y37605D01*
X59430Y36633D01*
X58458Y35447D01*
X57735Y34095D01*
X57290Y32628D01*
X57139Y31102D01*
X57290Y29577D01*
X57735Y28109D01*
X58458Y26757D01*
X59430Y25572D01*
X60615Y24599D01*
X61968Y23877D01*
X63435Y23431D01*
X64961Y23281D01*
X66487Y23431D01*
X67954Y23877D01*
X69306Y24599D01*
X70491Y25572D01*
X71464Y26757D01*
X72186Y28109D01*
X72632Y29577D01*
X72782Y31102D01*
X72632Y32628D01*
X72186Y34095D01*
X71464Y35447D01*
X70491Y36633D01*
X69306Y37605D01*
X67954Y38328D01*
X66487Y38773D01*
X64961Y38923D01*
D02*
G37*
G36*
X185155Y20460D02*
X184576Y20345D01*
X184085Y20017D01*
X183757Y19525D01*
X183642Y18946D01*
X183757Y18367D01*
X184085Y17876D01*
X184576Y17548D01*
X185155Y17433D01*
X185734Y17548D01*
X186225Y17876D01*
X186553Y18367D01*
X186668Y18946D01*
X186553Y19525D01*
X186225Y20017D01*
X185734Y20345D01*
X185155Y20460D01*
D02*
G37*
G36*
X152478Y20066D02*
X151899Y19951D01*
X151408Y19623D01*
X151079Y19132D01*
X150964Y18553D01*
X151079Y17974D01*
X151408Y17483D01*
X151899Y17155D01*
X152478Y17039D01*
X153057Y17155D01*
X153548Y17483D01*
X153876Y17974D01*
X153991Y18553D01*
X153876Y19132D01*
X153548Y19623D01*
X153057Y19951D01*
X152478Y20066D01*
D02*
G37*
G36*
X115863D02*
X115284Y19951D01*
X114793Y19623D01*
X114465Y19132D01*
X114350Y18553D01*
X114465Y17974D01*
X114793Y17483D01*
X115284Y17155D01*
X115863Y17039D01*
X116443Y17155D01*
X116934Y17483D01*
X117262Y17974D01*
X117377Y18553D01*
X117262Y19132D01*
X116934Y19623D01*
X116443Y19951D01*
X115863Y20066D01*
D02*
G37*
%LPD*%
G36*
X66380Y38240D02*
X67746Y37826D01*
X69004Y37153D01*
X70107Y36248D01*
X71012Y35145D01*
X71684Y33887D01*
X72098Y32522D01*
X72238Y31102D01*
X72098Y29683D01*
X71684Y28317D01*
X71012Y27059D01*
X70107Y25956D01*
X69004Y25052D01*
X67746Y24379D01*
X66380Y23965D01*
X64961Y23825D01*
X63541Y23965D01*
X62176Y24379D01*
X60918Y25052D01*
X59815Y25956D01*
X58910Y27059D01*
X58237Y28317D01*
X57823Y29683D01*
X57683Y31102D01*
X57823Y32522D01*
X58237Y33887D01*
X58910Y35145D01*
X59815Y36248D01*
X60918Y37153D01*
X62176Y37826D01*
X63541Y38240D01*
X64961Y38380D01*
X66380Y38240D01*
D02*
G37*
%LPC*%
G36*
X247968Y38440D02*
X245536D01*
X245524Y38435D01*
X243012Y38435D01*
X242629Y38276D01*
X242629Y38276D01*
X242334Y37981D01*
X242175Y37598D01*
X242175Y37598D01*
Y33366D01*
X242175Y33366D01*
X242334Y32983D01*
X242334Y32983D01*
X242727Y32590D01*
X243110Y32431D01*
X243110Y32431D01*
X245524D01*
X245536Y32426D01*
X247968D01*
X247980Y32431D01*
X248031D01*
X248414Y32590D01*
X248573Y32972D01*
Y33024D01*
X248578Y33036D01*
Y37830D01*
X248573Y37843D01*
Y37894D01*
X248414Y38276D01*
X248031Y38435D01*
X247980D01*
X247968Y38440D01*
D02*
G37*
%LPD*%
G36*
X248031Y32972D02*
X243110D01*
X242717Y33366D01*
Y37598D01*
X243012Y37894D01*
X248031Y37894D01*
X248031Y32972D01*
D02*
G37*
G36*
X219685Y76279D02*
X218996Y75590D01*
X210925Y75591D01*
X210236Y76279D01*
Y79331D01*
X210925Y80020D01*
X219685D01*
Y76279D01*
D02*
G37*
G36*
X219587Y51279D02*
Y38189D01*
X206299D01*
X204823Y39665D01*
Y45511D01*
X204873D01*
Y46161D01*
Y46811D01*
X204823D01*
Y52559D01*
X205118Y52854D01*
X218012D01*
X219587Y51279D01*
D02*
G37*
%LPC*%
G36*
X205723Y46811D02*
X205273D01*
Y46361D01*
X205723D01*
Y46811D01*
D02*
G37*
G36*
Y45961D02*
X205273D01*
Y45511D01*
X205723D01*
Y45961D01*
D02*
G37*
%LPD*%
G36*
X219587Y32087D02*
X218898Y31398D01*
X210827Y31398D01*
X210138Y32087D01*
Y35138D01*
X210827Y35827D01*
X219587D01*
Y32087D01*
D02*
G37*
D10*
X154232Y93898D02*
Y94095D01*
X149462Y120963D02*
X151282D01*
X159949Y121760D02*
X161319Y123130D01*
X125787Y98228D02*
X125787Y98228D01*
X157677Y109744D02*
X167618D01*
X135092Y102069D02*
Y104624D01*
X153797Y111803D02*
X157234Y108366D01*
X129724Y98228D02*
Y98425D01*
X142285Y94526D02*
X144087Y92724D01*
X149462Y118994D02*
X153884D01*
X149464Y113091D02*
X154331D01*
X125787Y98228D02*
Y100492D01*
X154232Y88681D02*
Y88878D01*
X135092Y102069D02*
X135586Y101575D01*
X154913Y114378D02*
X158260Y111031D01*
X153059Y92724D02*
X154232Y93898D01*
X149462Y117025D02*
X151179D01*
X149462Y113089D02*
X149464Y113091D01*
X129186Y102119D02*
Y104624D01*
X139710Y93115D02*
Y101924D01*
X135586Y101575D02*
X137008D01*
X151378Y115059D02*
X152059Y114378D01*
X153884Y118994D02*
X155362Y120472D01*
X144087Y92724D02*
X153059D01*
X151179Y117025D02*
X151860Y117707D01*
X154331Y113091D02*
X157677Y109744D01*
X126575Y101279D02*
X128347D01*
X142285Y94526D02*
Y101832D01*
X137060Y101627D02*
Y104624D01*
X152059Y114378D02*
X154913D01*
X154419Y117707D02*
Y117709D01*
X151860Y117707D02*
X154419D01*
X161319Y107087D02*
Y107283D01*
X125787Y100492D02*
X126575Y101279D01*
X116535Y120965D02*
X119783D01*
X149464Y115059D02*
X151378D01*
X154419Y117709D02*
X155895Y119185D01*
X140997Y93648D02*
Y104624D01*
X157234Y108366D02*
X160236D01*
X128347Y101279D02*
X129186Y102119D01*
X115847Y121653D02*
X116535Y120965D01*
X155362Y120472D02*
X168012D01*
X160244Y119185D02*
X161319Y118110D01*
X142285Y101832D02*
X142966Y102513D01*
X160236Y108366D02*
X161319Y107283D01*
X133123Y100046D02*
X135304Y97865D01*
X114173Y121653D02*
X115847D01*
X143209Y91437D02*
X161024D01*
X155895Y119185D02*
X160244D01*
X161319Y112303D02*
Y112500D01*
X133123Y100046D02*
Y104624D01*
X142167Y130824D02*
X142832D01*
X140997Y93648D02*
X143209Y91437D01*
X119785Y120963D02*
X126627D01*
X161319Y117913D02*
Y118110D01*
X142966Y102513D02*
Y104624D01*
X140997Y127459D02*
Y129571D01*
X160047Y111031D02*
X161319Y112303D01*
X129724Y98425D02*
X130413Y99114D01*
X141941Y130598D02*
X142167Y130824D01*
X139710Y93115D02*
X142675Y90150D01*
X153350Y120281D02*
X154829Y121760D01*
X139029Y102605D02*
Y104624D01*
X140997Y129571D02*
X141941Y130515D01*
X158260Y111031D02*
X160047D01*
X131155Y99856D02*
Y104624D01*
X143768Y131761D02*
Y133532D01*
X152961Y90150D02*
X154232Y88878D01*
X151282Y120963D02*
X151963Y120281D01*
X161319Y123130D02*
Y123327D01*
X139029Y102605D02*
X139710Y101924D01*
X152059Y111803D02*
X153797D01*
X130413Y99114D02*
X130413D01*
X143768Y133532D02*
X143799Y133563D01*
X142675Y90150D02*
X152961D01*
X151963Y120281D02*
X153350D01*
X154829Y121760D02*
X159949D01*
X149462Y111120D02*
X151376D01*
X152059Y111803D01*
X130413Y99114D02*
X131155Y99856D01*
X142832Y130824D02*
X143768Y131761D01*
D11*
X121461Y115063D02*
X121464Y115060D01*
X61181Y167323D02*
X67071Y161433D01*
X92618Y181201D02*
X98032D01*
X165256Y97539D02*
X172047Y90748D01*
X109646Y181299D02*
X115059D01*
X181910Y144177D02*
X194804D01*
X137083Y127482D02*
Y130686D01*
X146903Y130269D02*
X147933Y131299D01*
X124053Y125848D02*
Y131336D01*
X63386Y181299D02*
X65748Y178937D01*
X130538Y130187D02*
Y132452D01*
X158547Y102476D02*
X190769D01*
X65512Y94882D02*
X86417D01*
X141941Y130515D02*
Y130598D01*
X61282Y116400D02*
X65354Y120472D01*
X134002Y134404D02*
X134843Y133563D01*
X152426Y107183D02*
X158133Y101476D01*
X196850Y90354D02*
X197819Y91323D01*
X234350Y127104D02*
Y131595D01*
X110728Y148721D02*
X141499D01*
X126624Y115060D02*
X126627Y115057D01*
X67071Y161433D02*
X99886D01*
X149373Y97539D02*
X165256D01*
X106674Y181299D02*
X109646D01*
X199508Y46161D02*
X203823D01*
X137060Y127459D02*
X137083Y127482D01*
X88091Y126476D02*
X94882D01*
X123622Y118760D02*
X123858Y118996D01*
X116437Y152953D02*
Y153150D01*
X149483Y109130D02*
X151893D01*
X131155Y127459D02*
Y129570D01*
X90551Y90748D02*
X98721D01*
X118185Y117025D02*
X118185Y117025D01*
X143701Y137598D02*
X143799Y137500D01*
X65354Y120472D02*
X83501D01*
X132972Y135236D02*
X133805Y134404D01*
X149462Y122931D02*
X149464Y122933D01*
X192323Y90354D02*
X196850D01*
X234350Y127104D02*
X234388Y127067D01*
X101689Y147721D02*
X141085D01*
X121464Y115060D02*
X126624D01*
X99886Y161433D02*
X102559Y158760D01*
X173130Y72244D02*
Y90945D01*
X149787Y98539D02*
X165670D01*
X89173Y181201D02*
X92618D01*
X136122Y133563D02*
X137141Y132544D01*
X85726Y122698D02*
X88386D01*
X123858Y118996D02*
X126625D01*
X116437Y152953D02*
X119669Y149721D01*
X149462Y107183D02*
X152426D01*
X130538Y130187D02*
X131155Y129570D01*
X98721Y96161D02*
X102461D01*
X118185Y117025D02*
X126627D01*
X138386Y139173D02*
Y142224D01*
X83501Y120472D02*
X85726Y122698D01*
X134843Y133563D02*
X136122D01*
X149464Y122933D02*
X152461D01*
X197819Y91323D02*
Y94012D01*
X145866Y132071D02*
Y142939D01*
X126610Y124917D02*
X126627Y124899D01*
X108827Y162433D02*
X112500Y158760D01*
X173047Y91028D02*
Y91162D01*
X165670Y98539D02*
X173047Y91162D01*
X51181Y177323D02*
X51240D01*
X137141Y130744D02*
Y132544D01*
X89880Y120866D02*
X91535Y122521D01*
X139052Y129603D02*
X139665Y130217D01*
X119669Y149721D02*
X141913D01*
X146903Y101424D02*
X149787Y98539D01*
X192323Y156890D02*
X196358D01*
X126575Y134941D02*
X128051D01*
X100394Y120830D02*
X105198Y116025D01*
X132972Y139173D02*
Y142224D01*
X83087Y121472D02*
X88091Y126476D01*
X133805Y134404D02*
X134002D01*
X149464Y124902D02*
X153015D01*
X192224Y46161D02*
X196752D01*
X141085Y147721D02*
X145866Y142939D01*
X71181Y167323D02*
X76071Y162433D01*
X124985Y124917D02*
X126610D01*
X173047Y91028D02*
X173130Y90945D01*
X87205Y174311D02*
Y179232D01*
X128051Y134941D02*
X128589Y134404D01*
X81282Y116400D02*
X85748Y120866D01*
X92421Y171358D02*
X92618Y171555D01*
X144934Y101978D02*
X149373Y97539D01*
X196358Y156890D02*
X197425Y155823D01*
X156361Y128248D02*
X164567D01*
X102559Y153150D02*
Y158760D01*
X71282Y126400D02*
X78051Y133169D01*
X100394Y120830D02*
Y122929D01*
X127953Y139567D02*
Y142224D01*
X61282Y126400D02*
X66210Y121472D01*
X138386Y133169D02*
Y135236D01*
X153015Y124902D02*
X156361Y128248D01*
X197425Y148213D02*
Y155823D01*
X142966Y129171D02*
X145866Y132071D01*
X124053Y125848D02*
X124985Y124917D01*
X76071Y162433D02*
X108827D01*
X146903Y101424D02*
Y104624D01*
X132311Y132302D02*
X132325Y132287D01*
X87205Y179232D02*
X89173Y181201D01*
X128589Y134401D02*
Y134404D01*
X85748Y120866D02*
X89880D01*
X67146Y171358D02*
X92421D01*
X203304Y66732D02*
X204189Y67618D01*
X198425Y155807D02*
X199508Y156890D01*
X156776Y127248D02*
X164981D01*
X112500Y153150D02*
Y158760D01*
X78051Y133169D02*
X91929D01*
X105198Y116025D02*
X117771D01*
X127559Y139173D02*
X127953Y139567D01*
X66210Y121472D02*
X83087D01*
X138386Y133169D02*
X139665Y131890D01*
X152461Y122933D02*
X156776Y127248D01*
X198425Y147798D02*
Y155807D01*
X141499Y148721D02*
X146866Y143353D01*
X126626Y107184D02*
X126627Y107183D01*
X51181Y167323D02*
Y167323D01*
X144934Y101978D02*
Y104624D01*
X132325Y130268D02*
X133123Y129470D01*
X61181Y90551D02*
X65512Y94882D01*
X128589Y134401D02*
X130538Y132452D01*
X105905Y120866D02*
Y126476D01*
X61181Y177323D02*
X67146Y171358D01*
X204189Y67618D02*
X204331D01*
X199508Y156890D02*
X203937D01*
X103445Y174409D02*
Y177264D01*
X92520Y153150D02*
Y158760D01*
X91535Y122521D02*
Y122638D01*
X119783Y120965D02*
X119785Y120963D01*
X55216Y181299D02*
X63386D01*
X234154Y59689D02*
Y64173D01*
X98721Y84646D02*
Y86811D01*
X181496Y145177D02*
X194390D01*
X146866Y131657D02*
Y143353D01*
X139665Y130217D02*
Y131890D01*
X117356Y115025D02*
X123230Y109151D01*
X141913Y149721D02*
X147933Y143701D01*
X58071Y160433D02*
X90847D01*
X133123Y127459D02*
Y129470D01*
X51181Y90551D02*
X56512Y95882D01*
X137083Y130686D02*
X137106Y130709D01*
X105905Y120866D02*
X109746Y117025D01*
X85252Y172358D02*
X87205Y174311D01*
X203977Y65059D02*
X204331D01*
X190769Y102476D02*
X198819Y94426D01*
X103445Y164567D02*
Y167618D01*
X96457Y152953D02*
Y153150D01*
X100394Y122929D02*
Y123327D01*
X51240Y177323D02*
X55216Y181299D01*
X234154Y59689D02*
X234196Y59646D01*
X96850Y82776D02*
X98721Y84646D01*
X194390Y145177D02*
X197425Y148213D01*
X144934Y127459D02*
Y129725D01*
X123230Y109151D02*
X126627D01*
X51181Y167323D02*
X54081Y164423D01*
X132325Y130268D02*
Y132287D01*
X86532Y95882D02*
X90748Y100098D01*
X137106Y130709D02*
X137141Y130744D01*
X109746Y117025D02*
X118185D01*
X67799Y172358D02*
X85252D01*
X203304Y65732D02*
X203977Y65059D01*
X199803Y90354D02*
X203839D01*
X120472Y174508D02*
Y177362D01*
X96457Y152953D02*
X101689Y147721D01*
X100394Y123327D02*
Y126476D01*
X126577Y111170D02*
X126627Y111120D01*
X92618Y171555D02*
X98032D01*
X115059Y181299D02*
X120472D01*
X172047Y71913D02*
X178227Y65732D01*
X164567Y128248D02*
X181496Y145177D01*
X144934Y129725D02*
X146866Y131657D01*
X120708Y113089D02*
X126627D01*
X54081Y164423D02*
X54081D01*
X94685Y130413D02*
X94882D01*
X135092Y127459D02*
Y129574D01*
X56512Y95882D02*
X86532D01*
X128150Y130217D02*
Y131693D01*
X100624Y115025D02*
X117356D01*
X65748Y174409D02*
X67799Y172358D01*
X178642Y66732D02*
X203304D01*
X198819Y91339D02*
Y94426D01*
X104940Y183034D02*
X106674Y181299D01*
X106496Y152953D02*
Y153150D01*
X123672Y111170D02*
X126577D01*
X92520Y158563D02*
Y158760D01*
X98032Y171555D02*
X103445D01*
X164981Y127248D02*
X181910Y144177D01*
X173130Y72244D02*
X178642Y66732D01*
X139029Y127459D02*
X139052Y127482D01*
X146903Y127459D02*
Y130269D01*
X117771Y116025D02*
X120708Y113089D01*
X54081Y164423D02*
X58071Y160433D01*
X91929Y133169D02*
X94685Y130413D01*
X134734Y129931D02*
Y131832D01*
X90748Y100098D02*
X98721D01*
X94882Y130413D02*
X100394D01*
X129186Y127459D02*
Y129180D01*
X94882Y120768D02*
X100624Y115025D01*
X178227Y65732D02*
X203304D01*
X198819Y91339D02*
X199803Y90354D01*
X76892Y183034D02*
X104940D01*
X106496Y152953D02*
X110728Y148721D01*
X123622Y111221D02*
X123672Y111170D01*
X90847Y160433D02*
X92520Y158760D01*
X98032Y181201D02*
X103445D01*
X172047Y71913D02*
Y90748D01*
X194804Y144177D02*
X198425Y147798D01*
X139052Y127482D02*
Y129603D01*
X147933Y131299D02*
Y143701D01*
X124053Y131336D02*
X124213Y131496D01*
X65748Y174409D02*
Y178937D01*
X134734Y129931D02*
X135092Y129574D01*
X158133Y101476D02*
X190354D01*
X86417Y94882D02*
X90551Y90748D01*
X100394Y130413D02*
X105905D01*
X128150Y130217D02*
X129186Y129180D01*
X94882Y120768D02*
Y126476D01*
X151893Y109130D02*
X158547Y102476D01*
X190354Y101476D02*
X197819Y94012D01*
X71181Y177323D02*
X76892Y183034D01*
X142966Y127459D02*
Y129171D01*
D14*
X208366Y46161D02*
D03*
X187894D02*
D03*
X208465Y90354D02*
D03*
X187992D02*
D03*
Y156890D02*
D03*
X208465D02*
D03*
D15*
X165256Y123327D02*
D03*
X161319D02*
D03*
X92520Y158563D02*
D03*
X96457D02*
D03*
X112500D02*
D03*
X116437D02*
D03*
X125787Y92815D02*
D03*
X129724D02*
D03*
X125787Y98228D02*
D03*
X129724D02*
D03*
X161319Y112500D02*
D03*
X165256D02*
D03*
X112500Y153150D02*
D03*
X116437D02*
D03*
X161319Y117913D02*
D03*
X165256D02*
D03*
X154232Y88681D02*
D03*
X158169D02*
D03*
X102559Y153150D02*
D03*
X106496D02*
D03*
X102559Y158563D02*
D03*
X106496D02*
D03*
X161319Y107087D02*
D03*
X165256D02*
D03*
X154232Y94095D02*
D03*
X158169D02*
D03*
X92520Y153150D02*
D03*
X96457D02*
D03*
D16*
X144685Y74508D02*
D03*
Y80413D02*
D03*
X170177Y34055D02*
D03*
Y39961D02*
D03*
X220417Y66929D02*
D03*
Y61024D02*
D03*
X113386Y98622D02*
D03*
Y104528D02*
D03*
X135531Y97835D02*
D03*
Y91929D02*
D03*
X120079Y80413D02*
D03*
Y74508D02*
D03*
X119980Y98622D02*
D03*
Y104528D02*
D03*
X220574Y128543D02*
D03*
Y134449D02*
D03*
X163583Y34055D02*
D03*
Y39961D02*
D03*
X119783Y126870D02*
D03*
Y120965D02*
D03*
D17*
X115059Y181299D02*
D03*
Y177362D02*
D03*
X103445Y171555D02*
D03*
Y167618D02*
D03*
X93307Y86811D02*
D03*
Y90748D02*
D03*
X94882Y130413D02*
D03*
Y126476D02*
D03*
X138386Y139173D02*
D03*
Y135236D02*
D03*
X103445Y177264D02*
D03*
Y181201D02*
D03*
X92618Y167618D02*
D03*
Y171555D02*
D03*
X98032Y167618D02*
D03*
Y171555D02*
D03*
X143799Y137500D02*
D03*
Y133563D02*
D03*
X98032Y181201D02*
D03*
Y177264D02*
D03*
X93307Y96161D02*
D03*
Y100098D02*
D03*
X98721Y96161D02*
D03*
Y100098D02*
D03*
X105905Y130413D02*
D03*
Y126476D02*
D03*
X132972Y139173D02*
D03*
Y135236D02*
D03*
X126378Y79724D02*
D03*
Y75787D02*
D03*
X109646Y181299D02*
D03*
Y177362D02*
D03*
X92618Y181201D02*
D03*
Y177264D02*
D03*
X120472Y181299D02*
D03*
Y177362D02*
D03*
X98721Y86811D02*
D03*
Y90748D02*
D03*
X100394Y130413D02*
D03*
Y126476D02*
D03*
X127559Y139173D02*
D03*
Y135236D02*
D03*
D18*
X230456Y68701D02*
D03*
X234196Y59646D02*
D03*
X226716D02*
D03*
X226907Y127067D02*
D03*
X234388D02*
D03*
X230647Y136122D02*
D03*
D19*
X214665Y178248D02*
D03*
X208760D02*
D03*
X199114Y124114D02*
D03*
X193209D02*
D03*
X199114Y117421D02*
D03*
X193209D02*
D03*
X214665Y184843D02*
D03*
X208760D02*
D03*
D20*
X204876Y90354D02*
D03*
X204626D02*
D03*
X204921Y156890D02*
D03*
X204671D02*
D03*
X191285Y90354D02*
D03*
X191535D02*
D03*
X191228Y46161D02*
D03*
X191478D02*
D03*
X205073D02*
D03*
X204823D02*
D03*
X191285Y156890D02*
D03*
X191535D02*
D03*
D21*
X204126Y90354D02*
D03*
X204171Y156890D02*
D03*
X192035Y90354D02*
D03*
X191978Y46161D02*
D03*
X204323D02*
D03*
X192035Y156890D02*
D03*
D22*
X217224Y93701D02*
D03*
Y88701D02*
D03*
Y78701D02*
D03*
Y83701D02*
D03*
Y160256D02*
D03*
Y155256D02*
D03*
Y145256D02*
D03*
Y150256D02*
D03*
X217126Y49528D02*
D03*
Y44528D02*
D03*
Y34528D02*
D03*
Y39528D02*
D03*
X238287Y103130D02*
D03*
Y108130D02*
D03*
Y118130D02*
D03*
Y113130D02*
D03*
D23*
X261752Y35433D02*
D03*
X256752D02*
D03*
X246752D02*
D03*
X251752D02*
D03*
X246752Y159350D02*
D03*
X251752D02*
D03*
X261752D02*
D03*
X256752D02*
D03*
D24*
X135236Y72539D02*
D03*
X131496Y80807D02*
D03*
X138976D02*
D03*
D25*
X162598Y152756D02*
D03*
Y180315D02*
D03*
D26*
X155413Y48720D02*
D03*
X127854D02*
D03*
D27*
X138045Y116041D02*
D03*
D28*
X126627Y107183D02*
D03*
Y109151D02*
D03*
Y111120D02*
D03*
Y113089D02*
D03*
Y115057D02*
D03*
Y117025D02*
D03*
Y118994D02*
D03*
Y120963D02*
D03*
Y122931D02*
D03*
Y124899D02*
D03*
X149462D02*
D03*
Y122931D02*
D03*
Y120963D02*
D03*
Y118994D02*
D03*
Y117025D02*
D03*
Y115057D02*
D03*
Y113089D02*
D03*
Y111120D02*
D03*
Y109151D02*
D03*
Y107183D02*
D03*
D29*
X129186Y127459D02*
D03*
X131155D02*
D03*
X133123D02*
D03*
X135092D02*
D03*
X137060D02*
D03*
X139029D02*
D03*
X140997D02*
D03*
X142966D02*
D03*
X144934D02*
D03*
X146903D02*
D03*
Y104624D02*
D03*
X144934D02*
D03*
X142966D02*
D03*
X140997D02*
D03*
X139029D02*
D03*
X137060D02*
D03*
X135092D02*
D03*
X133123D02*
D03*
X131155D02*
D03*
X129186D02*
D03*
D51*
X231988Y86201D02*
D03*
Y152756D02*
D03*
X231890Y42028D02*
D03*
D52*
X254252Y20669D02*
D03*
D53*
X223524Y110630D02*
D03*
D54*
X254252Y174114D02*
D03*
D55*
X222247Y127067D02*
X226907D01*
X220417Y61024D02*
X220614D01*
X220771Y128543D02*
X222247Y127067D01*
X221795Y59747D02*
X222487Y59055D01*
X226126D02*
X226716Y59646D01*
X220574Y128543D02*
X220771D01*
X220614Y61024D02*
X221795Y59842D01*
X226716Y59646D02*
X229331D01*
X226907Y127067D02*
X229823D01*
X222487Y59055D02*
X226126D01*
X226907Y127067D02*
X226907Y127067D01*
X221795Y59747D02*
Y59842D01*
D56*
X161759Y91339D02*
X165461Y87637D01*
X188561Y134335D02*
X199486D01*
X201279Y143110D02*
X213330D01*
X165461Y69034D02*
X175538Y58957D01*
X165256Y117913D02*
X172140D01*
X190847Y107087D02*
X198721Y99213D01*
X202211Y140551D02*
X217028D01*
X167929Y70057D02*
Y88659D01*
X172140Y117913D02*
X188561Y134335D01*
X198721Y99213D02*
X201772D01*
X203234Y138083D02*
X217063D01*
X162494Y94095D02*
X167929Y88659D01*
X187538Y136803D02*
X198463D01*
X161122Y91339D02*
X161759D01*
X165256Y107087D02*
X190847D01*
X167929Y70057D02*
X176561Y61425D01*
X168012Y120472D02*
X171207D01*
X158169Y94095D02*
X162494D01*
X167618Y109744D02*
X191680D01*
X158169Y88681D02*
X160925D01*
X171207Y120472D02*
X187538Y136803D01*
X199357Y102067D02*
X201772D01*
X165256Y123327D02*
X170571D01*
X162992Y68012D02*
Y86614D01*
X175538Y58957D02*
X210827D01*
X191680Y109744D02*
X199357Y102067D01*
X186516Y139272D02*
X197441D01*
X160925Y88681D02*
X162992Y86614D01*
X176561Y61425D02*
X210343D01*
X165256Y112500D02*
X192415D01*
X197441Y139272D02*
X201279Y143110D01*
X210343Y61425D02*
X210827Y61910D01*
X199994Y104921D02*
X201772D01*
X170571Y123327D02*
X186516Y139272D01*
X174516Y56488D02*
X210293D01*
X192415Y112500D02*
X199994Y104921D01*
X162992Y68012D02*
X174516Y56488D01*
X198463Y136803D02*
X202211Y140551D01*
X210293Y56488D02*
X210777Y56004D01*
X165461Y69034D02*
Y87637D01*
X199486Y134335D02*
X203234Y138083D01*
D57*
X19685Y177165D02*
D03*
Y98425D02*
D03*
X295276Y177165D02*
D03*
Y19685D02*
D03*
D58*
X51181Y100551D02*
D03*
X81181D02*
D03*
X61181D02*
D03*
X71181D02*
D03*
X81181Y90551D02*
D03*
X61181D02*
D03*
X71181D02*
D03*
X71282Y141991D02*
D03*
X61282D02*
D03*
X81282D02*
D03*
X71282Y151991D02*
D03*
X61282D02*
D03*
X81282D02*
D03*
X51282D02*
D03*
X71282Y116400D02*
D03*
X61282D02*
D03*
X81282D02*
D03*
X71282Y126400D02*
D03*
X61282D02*
D03*
X81282D02*
D03*
X51282D02*
D03*
X71181Y167323D02*
D03*
X61181D02*
D03*
X81181D02*
D03*
X71181Y177323D02*
D03*
X61181D02*
D03*
X81181D02*
D03*
X51181D02*
D03*
D59*
Y90551D02*
D03*
X51282Y141991D02*
D03*
Y116400D02*
D03*
X51181Y167323D02*
D03*
D60*
X279528Y73425D02*
D03*
D61*
Y98425D02*
D03*
Y123425D02*
D03*
D62*
X64961Y31102D02*
D03*
Y59449D02*
D03*
D63*
X41339Y18701D02*
D03*
Y71850D02*
D03*
D64*
X211417Y78937D02*
D03*
Y76673D02*
D03*
X285827Y19685D02*
D03*
X304331D02*
D03*
X295276Y28740D02*
D03*
Y10630D02*
D03*
X288189Y25984D02*
D03*
X301969Y25591D02*
D03*
X288583Y13386D02*
D03*
X301969Y13780D02*
D03*
X285827Y177165D02*
D03*
X304331D02*
D03*
X295276Y186221D02*
D03*
Y168110D02*
D03*
X288189Y183465D02*
D03*
X301969Y183071D02*
D03*
X288583Y170866D02*
D03*
X301969Y171260D02*
D03*
X10236Y98425D02*
D03*
X28740D02*
D03*
X19685Y107480D02*
D03*
Y89370D02*
D03*
X12598Y104724D02*
D03*
X26378Y104331D02*
D03*
X12992Y92126D02*
D03*
X26378Y92520D02*
D03*
Y171260D02*
D03*
X12992Y170866D02*
D03*
X26378Y183071D02*
D03*
X12598Y183465D02*
D03*
X19685Y168110D02*
D03*
Y186221D02*
D03*
X28740Y177165D02*
D03*
X10236D02*
D03*
X131102Y88976D02*
D03*
X82579Y25394D02*
D03*
X79035D02*
D03*
Y28937D02*
D03*
X82579D02*
D03*
X111319Y48130D02*
D03*
X107776D02*
D03*
Y51673D02*
D03*
X111319D02*
D03*
X112106Y76083D02*
D03*
X108563D02*
D03*
Y72539D02*
D03*
X112106D02*
D03*
X82677Y51772D02*
D03*
X79134D02*
D03*
Y48228D02*
D03*
X82677D02*
D03*
X120965Y29724D02*
D03*
X117421D02*
D03*
Y26181D02*
D03*
X120965D02*
D03*
X98032Y37992D02*
D03*
X94488D02*
D03*
Y34449D02*
D03*
X98032D02*
D03*
X99705Y65748D02*
D03*
X96161D02*
D03*
Y62205D02*
D03*
X99705D02*
D03*
X198130Y43898D02*
D03*
X192676Y54001D02*
D03*
X222163Y123671D02*
D03*
X152478Y18553D02*
D03*
X94604Y71702D02*
D03*
X185155Y18946D02*
D03*
X115863Y18553D02*
D03*
X50115Y29576D02*
D03*
X50903Y61860D02*
D03*
X39485Y94537D02*
D03*
X29643Y114222D02*
D03*
X15864Y128001D02*
D03*
X41454D02*
D03*
X27674Y143750D02*
D03*
X37517Y157529D02*
D03*
X15864D02*
D03*
X27674Y11860D02*
D03*
X39485Y27608D02*
D03*
X13895D02*
D03*
X25706Y45324D02*
D03*
X11926Y59104D02*
D03*
X21769Y72883D02*
D03*
X41454Y57135D02*
D03*
X303265Y35482D02*
D03*
X39469Y1772D02*
D03*
X29331D02*
D03*
X19193D02*
D03*
X10039Y3051D02*
D03*
X25591Y195079D02*
D03*
X8366Y192913D02*
D03*
X15650Y195079D02*
D03*
X34843D02*
D03*
X44882D02*
D03*
X300000Y51575D02*
D03*
X114173Y133071D02*
D03*
X164657Y95616D02*
D03*
X177953Y26772D02*
D03*
X140551Y49213D02*
D03*
X287795Y59547D02*
D03*
X270965Y147343D02*
D03*
X72835Y195079D02*
D03*
X163583Y43701D02*
D03*
X137106Y130709D02*
D03*
X143898Y121850D02*
D03*
X152264Y184449D02*
D03*
X170374Y128543D02*
D03*
X133465Y34252D02*
D03*
X137008Y59842D02*
D03*
X270571Y83661D02*
D03*
X304429Y193996D02*
D03*
X143898Y88090D02*
D03*
X206693Y118110D02*
D03*
X200000Y112992D02*
D03*
X182283Y178347D02*
D03*
X199508Y78543D02*
D03*
X182677Y168898D02*
D03*
X147638Y34252D02*
D03*
X220079Y183071D02*
D03*
X221457Y74803D02*
D03*
X313189Y101673D02*
D03*
X144404Y99586D02*
D03*
X229331Y59646D02*
D03*
X180709Y73622D02*
D03*
X158268Y71260D02*
D03*
X152264Y77756D02*
D03*
X182677Y158268D02*
D03*
X175591Y49606D02*
D03*
X227165Y186614D02*
D03*
X167717D02*
D03*
X63681Y1772D02*
D03*
X1772Y68799D02*
D03*
X210827Y58957D02*
D03*
X201870Y68800D02*
D03*
X71161Y78937D02*
D03*
X175591Y165354D02*
D03*
X189764Y81496D02*
D03*
X230709Y172441D02*
D03*
X189567Y117421D02*
D03*
X141142Y1772D02*
D03*
X1772Y163386D02*
D03*
X92618Y164567D02*
D03*
X243898Y36614D02*
D03*
X172047Y151181D02*
D03*
Y49606D02*
D03*
X175591Y99213D02*
D03*
X206693Y111024D02*
D03*
X211122Y165453D02*
D03*
X230413Y1772D02*
D03*
X251772Y195079D02*
D03*
X90059Y96161D02*
D03*
X139665Y131890D02*
D03*
X150394Y58858D02*
D03*
X61980Y158188D02*
D03*
X179134Y42520D02*
D03*
X182677Y92126D02*
D03*
X196752Y46161D02*
D03*
X251772Y68012D02*
D03*
X3051Y10039D02*
D03*
X160630Y195079D02*
D03*
X120079Y70768D02*
D03*
X143799Y140453D02*
D03*
X121949Y144685D02*
D03*
X170489Y71086D02*
D03*
X177953Y30315D02*
D03*
X144095Y49213D02*
D03*
X287795Y52461D02*
D03*
X278839Y147047D02*
D03*
X81299Y195079D02*
D03*
X170177Y43602D02*
D03*
X134734Y131832D02*
D03*
X300000Y159449D02*
D03*
X141240Y176969D02*
D03*
X180217Y138386D02*
D03*
X137008Y34252D02*
D03*
X140551Y59842D02*
D03*
X262303Y79724D02*
D03*
X311122Y188386D02*
D03*
X146063Y87992D02*
D03*
X203150Y121653D02*
D03*
X132283Y121850D02*
D03*
X182283Y181890D02*
D03*
X192028Y71457D02*
D03*
X189764Y168898D02*
D03*
X147638Y37795D02*
D03*
X220079Y168898D02*
D03*
X269390Y112402D02*
D03*
X313189Y111909D02*
D03*
X201083Y107480D02*
D03*
X201772Y102067D02*
D03*
X180709Y70079D02*
D03*
X154724Y71260D02*
D03*
X204232Y133661D02*
D03*
X179134Y158268D02*
D03*
X175591Y46063D02*
D03*
X223622Y183071D02*
D03*
X167618Y173917D02*
D03*
X313189Y17913D02*
D03*
X1772Y58465D02*
D03*
X210827Y61910D02*
D03*
X183465Y116142D02*
D03*
X85335Y83268D02*
D03*
X175591Y161811D02*
D03*
X189764Y77953D02*
D03*
X230709Y175984D02*
D03*
X240945Y133392D02*
D03*
X132480Y1772D02*
D03*
X1772Y154429D02*
D03*
X98032Y164567D02*
D03*
X243799Y34252D02*
D03*
X168504Y151181D02*
D03*
X172047Y53150D02*
D03*
X179134Y99213D02*
D03*
X210236Y111024D02*
D03*
X208760Y147047D02*
D03*
X220472Y1772D02*
D03*
X264075Y195079D02*
D03*
X135630Y144882D02*
D03*
X105905Y123672D02*
D03*
X153937Y58858D02*
D03*
X76673Y158071D02*
D03*
X182677Y42520D02*
D03*
Y88583D02*
D03*
X198327Y110335D02*
D03*
X221358Y52067D02*
D03*
X48031Y3740D02*
D03*
X169291Y195079D02*
D03*
X135236Y76673D02*
D03*
X123819Y123130D02*
D03*
X204879Y109457D02*
D03*
X287008Y38583D02*
D03*
X96850Y144882D02*
D03*
X177953Y33858D02*
D03*
X140551Y45276D02*
D03*
X284646Y47539D02*
D03*
X283071Y143012D02*
D03*
X89862Y195079D02*
D03*
X263779Y153051D02*
D03*
X130538Y130584D02*
D03*
X279921Y159843D02*
D03*
X129429Y185236D02*
D03*
X195965Y142323D02*
D03*
X140551Y34252D02*
D03*
X137008Y63386D02*
D03*
X255413Y74114D02*
D03*
X310925Y8169D02*
D03*
X131890Y95866D02*
D03*
X203150Y128740D02*
D03*
X138091Y121850D02*
D03*
X185827Y181890D02*
D03*
X163681Y130905D02*
D03*
X186221Y168898D02*
D03*
X144095Y41339D02*
D03*
X220079Y175984D02*
D03*
X279331Y112402D02*
D03*
X313189Y122146D02*
D03*
X208465Y76673D02*
D03*
X201772Y104921D02*
D03*
X184252Y70079D02*
D03*
X154724Y74803D02*
D03*
X179528Y189370D02*
D03*
X179134Y161811D02*
D03*
X126378Y63386D02*
D03*
X230709Y183071D02*
D03*
X167717Y182185D02*
D03*
X313189Y27264D02*
D03*
X1772Y47343D02*
D03*
X204331Y65059D02*
D03*
X179921Y116142D02*
D03*
X61533Y84748D02*
D03*
X175591Y158268D02*
D03*
X186221Y77953D02*
D03*
X223622Y172441D02*
D03*
X249902Y116043D02*
D03*
X123524Y1772D02*
D03*
X1772Y144980D02*
D03*
X103445Y174409D02*
D03*
X224803Y67224D02*
D03*
X168504Y154724D02*
D03*
X179134Y147638D02*
D03*
X182677Y99213D02*
D03*
X234252Y168898D02*
D03*
X195669Y113189D02*
D03*
X209350Y1772D02*
D03*
X274508Y195079D02*
D03*
X130315Y144882D02*
D03*
X100394Y123327D02*
D03*
X153937Y55315D02*
D03*
X51083Y108858D02*
D03*
X182677Y46063D02*
D03*
X179134Y88583D02*
D03*
X242618Y120079D02*
D03*
X221358Y42717D02*
D03*
X54823Y1772D02*
D03*
X178839Y195079D02*
D03*
X126378Y72736D02*
D03*
X119783Y130512D02*
D03*
X97933Y133268D02*
D03*
X180610Y63976D02*
D03*
X177953Y22835D02*
D03*
X144095Y45276D02*
D03*
X280217Y43012D02*
D03*
X288287Y137795D02*
D03*
X98917Y195079D02*
D03*
X242913Y99016D02*
D03*
X128150Y131693D02*
D03*
X290551Y146457D02*
D03*
X112106Y186417D02*
D03*
X174311Y115551D02*
D03*
X181496Y33858D02*
D03*
X133465Y63386D02*
D03*
X249213Y73917D02*
D03*
X303051Y2362D02*
D03*
X156004Y116240D02*
D03*
X206693Y125197D02*
D03*
X159449Y168110D02*
D03*
X143898Y116339D02*
D03*
X173917Y141535D02*
D03*
X168504Y53150D02*
D03*
X140551Y41339D02*
D03*
X220079Y172441D02*
D03*
X287598Y109350D02*
D03*
X313189Y131988D02*
D03*
X208465Y78937D02*
D03*
X210236Y125197D02*
D03*
X202362Y147244D02*
D03*
X158268Y74803D02*
D03*
X191732Y175591D02*
D03*
X182677Y161811D02*
D03*
X133465Y66929D02*
D03*
X227165Y183071D02*
D03*
X167618Y178051D02*
D03*
X313090Y35433D02*
D03*
X1870Y38091D02*
D03*
X204331Y67618D02*
D03*
X179921Y119685D02*
D03*
X175591Y154724D02*
D03*
X179134Y77953D02*
D03*
X227165Y172441D02*
D03*
X261614Y112500D02*
D03*
X114665Y1772D02*
D03*
X1772Y134646D02*
D03*
X103445Y164567D02*
D03*
X242913Y101181D02*
D03*
X168504Y158268D02*
D03*
X182677Y147638D02*
D03*
X189764Y99213D02*
D03*
X234252Y175984D02*
D03*
X215945Y54528D02*
D03*
X198622Y1772D02*
D03*
X283957Y195079D02*
D03*
X101969Y98721D02*
D03*
X88386Y122698D02*
D03*
X161024Y55315D02*
D03*
X63287Y108858D02*
D03*
X179134Y46063D02*
D03*
Y85039D02*
D03*
X242618Y117913D02*
D03*
X221358Y31594D02*
D03*
X292520Y1772D02*
D03*
X189075Y195079D02*
D03*
X144685Y70866D02*
D03*
X124213Y131496D02*
D03*
X208479Y109356D02*
D03*
X46358Y158858D02*
D03*
X189272Y104528D02*
D03*
X181496Y22835D02*
D03*
X129921Y63386D02*
D03*
X275984Y38780D02*
D03*
X288583Y129232D02*
D03*
X107677Y195079D02*
D03*
X246358Y153642D02*
D03*
X138386Y142224D02*
D03*
X309449Y146850D02*
D03*
X90453Y186811D02*
D03*
X190059Y131299D02*
D03*
X185039Y33858D02*
D03*
X140551Y63386D02*
D03*
X242913Y73917D02*
D03*
X216831Y135138D02*
D03*
X156201Y123819D02*
D03*
X206693Y128740D02*
D03*
X137008Y101575D02*
D03*
X155905Y168110D02*
D03*
X143898Y110433D02*
D03*
X143602Y152559D02*
D03*
X168504Y49606D02*
D03*
X133465Y41339D02*
D03*
X220079Y179527D02*
D03*
X288386Y102264D02*
D03*
X313189Y142323D02*
D03*
X209252Y64468D02*
D03*
X203150Y125197D02*
D03*
X125591Y173228D02*
D03*
X159449Y25197D02*
D03*
X194882Y189370D02*
D03*
X186221Y147638D02*
D03*
X137008Y66929D02*
D03*
X223622Y186614D02*
D03*
X232185Y98524D02*
D03*
X313189Y44685D02*
D03*
X116437Y123819D02*
D03*
X201772Y99213D02*
D03*
X183465Y119685D02*
D03*
X97638Y125197D02*
D03*
X175591Y151181D02*
D03*
X182677Y77953D02*
D03*
X223622Y175984D02*
D03*
X264764Y113583D02*
D03*
X106299Y1772D02*
D03*
X1772Y124803D02*
D03*
X120472Y174508D02*
D03*
X165006Y53150D02*
D03*
X168504Y147638D02*
D03*
X175591D02*
D03*
X186221Y99213D02*
D03*
X234252Y172441D02*
D03*
X261516Y153051D02*
D03*
X187697Y1772D02*
D03*
X293898Y195079D02*
D03*
X93307Y83760D02*
D03*
X91535Y122638D02*
D03*
X157480Y55315D02*
D03*
X75098Y108858D02*
D03*
X179134Y49606D02*
D03*
X182677Y85039D02*
D03*
X261516Y155709D02*
D03*
X208465Y34744D02*
D03*
X282579Y1772D02*
D03*
X200000Y195079D02*
D03*
X102461Y96161D02*
D03*
X126969Y127165D02*
D03*
X276772Y29528D02*
D03*
X51083Y132874D02*
D03*
X170757Y104437D02*
D03*
X188976Y30315D02*
D03*
X129921Y66929D02*
D03*
X271850Y34646D02*
D03*
X288583Y119488D02*
D03*
X116043Y195079D02*
D03*
X243701Y40945D02*
D03*
X132972Y142224D02*
D03*
X300394Y132677D02*
D03*
X68799Y186811D02*
D03*
X182185Y123425D02*
D03*
X185039Y30315D02*
D03*
X144095Y59842D02*
D03*
X235138Y73917D02*
D03*
X214567Y135531D02*
D03*
X157677Y106299D02*
D03*
X213779Y128740D02*
D03*
X119390Y158563D02*
D03*
X138189Y110433D02*
D03*
X124705Y152559D02*
D03*
X168504Y46063D02*
D03*
X137008Y41339D02*
D03*
X140551Y56299D02*
D03*
X288386Y95472D02*
D03*
X313189Y151772D02*
D03*
X213386Y61122D02*
D03*
X206693Y121653D02*
D03*
X205020Y184843D02*
D03*
X155905Y25197D02*
D03*
X176378Y175591D02*
D03*
X193307Y147638D02*
D03*
X126378Y59842D02*
D03*
X230709Y186614D02*
D03*
X234055Y106988D02*
D03*
X313189Y55807D02*
D03*
X103150Y123524D02*
D03*
X217028Y140551D02*
D03*
X164567Y135433D02*
D03*
X116437Y112795D02*
D03*
X182677Y151181D02*
D03*
X175591Y77953D02*
D03*
X227165Y179527D02*
D03*
X255315Y119291D02*
D03*
X97539Y1772D02*
D03*
X1772Y114567D02*
D03*
X227658Y136122D02*
D03*
X165006Y49607D02*
D03*
X172047Y147638D02*
D03*
X186221Y165354D02*
D03*
X175591Y81496D02*
D03*
X234252Y179527D02*
D03*
X227953Y73819D02*
D03*
X177461Y1772D02*
D03*
X1772Y180709D02*
D03*
X92557Y174372D02*
D03*
X122736Y92815D02*
D03*
X157480Y58858D02*
D03*
X87697Y108858D02*
D03*
X182677Y49606D02*
D03*
X175591Y85039D02*
D03*
X263681Y155709D02*
D03*
X222342Y97638D02*
D03*
X273130Y1772D02*
D03*
X210728Y195079D02*
D03*
X123819Y107185D02*
D03*
X269291Y16142D02*
D03*
X66437Y131693D02*
D03*
X175591Y42520D02*
D03*
X188976Y33858D02*
D03*
X126378Y66929D02*
D03*
X267618Y30315D02*
D03*
X284449Y113779D02*
D03*
X124902Y195079D02*
D03*
X227067Y68898D02*
D03*
X127953Y142224D02*
D03*
X300394Y114961D02*
D03*
X52264Y184449D02*
D03*
X168405Y99410D02*
D03*
X181496Y30315D02*
D03*
X144095Y56299D02*
D03*
X287697Y79626D02*
D03*
X245374Y120079D02*
D03*
X155512Y100787D02*
D03*
X210236Y128740D02*
D03*
X109547Y158563D02*
D03*
X132283Y110433D02*
D03*
X281102Y185827D02*
D03*
X112500Y166732D02*
D03*
X168476Y57049D02*
D03*
X140551Y37795D02*
D03*
X137008Y56299D02*
D03*
X288386Y89173D02*
D03*
X313189Y160728D02*
D03*
X206693Y66339D02*
D03*
X210236Y118110D02*
D03*
X152756Y140157D02*
D03*
X155905Y28740D02*
D03*
X203851Y168534D02*
D03*
X189764Y147638D02*
D03*
X129921Y56299D02*
D03*
X234252Y186614D02*
D03*
X234055Y114370D02*
D03*
X313189Y66142D02*
D03*
X90059Y124666D02*
D03*
X217063Y138083D02*
D03*
X155905Y164567D02*
D03*
X161024Y135433D02*
D03*
X179134Y151181D02*
D03*
X182677Y53150D02*
D03*
X230709Y168898D02*
D03*
X244882Y129724D02*
D03*
X88484Y1772D02*
D03*
X1772Y104331D02*
D03*
X224902Y134449D02*
D03*
X172047Y161811D02*
D03*
X165006Y46064D02*
D03*
X189764Y165354D02*
D03*
X182677Y81496D02*
D03*
X230709Y179527D02*
D03*
X240945Y29429D02*
D03*
X167913Y1772D02*
D03*
X48031Y193110D02*
D03*
X97970Y174372D02*
D03*
X114173Y121653D02*
D03*
X212479Y114557D02*
D03*
X161024Y58858D02*
D03*
X101870Y108858D02*
D03*
X186221Y37795D02*
D03*
X175591Y88583D02*
D03*
X203150Y114567D02*
D03*
X221457Y144783D02*
D03*
X262697Y1772D02*
D03*
X221850Y195079D02*
D03*
X144948Y84826D02*
D03*
X119980Y108169D02*
D03*
X239370Y67323D02*
D03*
X58169Y147047D02*
D03*
X175591Y38976D02*
D03*
X182677Y95669D02*
D03*
X129921Y59842D02*
D03*
X224803Y54232D02*
D03*
X274410Y113583D02*
D03*
X133858Y195079D02*
D03*
X244094Y153642D02*
D03*
X123622Y118760D02*
D03*
X300394Y92913D02*
D03*
X87697Y155709D02*
D03*
X150689Y95472D02*
D03*
X185039Y26772D02*
D03*
X144095Y52756D02*
D03*
X287795Y71752D02*
D03*
X245374Y117913D02*
D03*
X56201Y195079D02*
D03*
X210236Y114567D02*
D03*
X99508Y158563D02*
D03*
X132283Y116339D02*
D03*
X133366Y165945D02*
D03*
X193307Y168898D02*
D03*
X137008Y37795D02*
D03*
X133465Y56299D02*
D03*
X285728Y84941D02*
D03*
X313189Y169291D02*
D03*
X231594Y131595D02*
D03*
X210236Y121653D02*
D03*
X213779Y121556D02*
D03*
X159449Y28740D02*
D03*
X204094Y54001D02*
D03*
X175591Y168898D02*
D03*
X144095Y34252D02*
D03*
X234252Y183071D02*
D03*
X221457Y88779D02*
D03*
X313189Y79035D02*
D03*
X149197Y127094D02*
D03*
X96850Y82776D02*
D03*
X159449Y164567D02*
D03*
X161024Y138976D02*
D03*
X159350Y84449D02*
D03*
X179134Y154724D02*
D03*
Y53150D02*
D03*
X227165Y168898D02*
D03*
X234055Y140256D02*
D03*
X79921Y1772D02*
D03*
X1772Y94095D02*
D03*
X234350Y131595D02*
D03*
X172047Y165354D02*
D03*
X165006Y57087D02*
D03*
X182677Y165354D02*
D03*
X179134Y81496D02*
D03*
X223622Y179527D02*
D03*
X238779Y29429D02*
D03*
X159252Y1772D02*
D03*
X3543Y187894D02*
D03*
X109585Y174569D02*
D03*
X211221Y34744D02*
D03*
X212579Y118157D02*
D03*
X172047Y158268D02*
D03*
X94784Y114764D02*
D03*
X189764Y37795D02*
D03*
X175591Y92126D02*
D03*
X213779Y125197D02*
D03*
X221457Y153543D02*
D03*
X250394Y1772D02*
D03*
X231791Y195079D02*
D03*
X142094Y84826D02*
D03*
X113386Y108169D02*
D03*
X214173Y69685D02*
D03*
X66437Y139961D02*
D03*
X182677Y38976D02*
D03*
X179134Y95669D02*
D03*
X208465Y32579D02*
D03*
X239665Y55905D02*
D03*
X1772Y29921D02*
D03*
X142520Y195079D02*
D03*
X243701Y43110D02*
D03*
X123622Y111221D02*
D03*
X300000Y66929D02*
D03*
X111417Y143701D02*
D03*
X170237Y89890D02*
D03*
X181496Y26772D02*
D03*
X140551Y52756D02*
D03*
X287795Y65158D02*
D03*
X264469Y150000D02*
D03*
X65059Y195079D02*
D03*
X206693Y114567D02*
D03*
X141941Y130598D02*
D03*
X138091Y116339D02*
D03*
X272441Y172835D02*
D03*
X146457Y167323D02*
D03*
X193307Y165354D02*
D03*
X133465Y37795D02*
D03*
Y59842D02*
D03*
X279626Y83563D02*
D03*
X313189Y178051D02*
D03*
X141240Y135630D02*
D03*
X203150Y118110D02*
D03*
X199606Y128740D02*
D03*
X185827Y178347D02*
D03*
X203051Y37992D02*
D03*
X179134Y168898D02*
D03*
X144095Y37795D02*
D03*
X220079Y186614D02*
D03*
X221358Y81102D02*
D03*
X313189Y91437D02*
D03*
X149197Y104850D02*
D03*
X229823Y127067D02*
D03*
X184252Y73622D02*
D03*
X164567Y138976D02*
D03*
X159350Y66732D02*
D03*
X182677Y154724D02*
D03*
X175591Y53150D02*
D03*
X223622Y168898D02*
D03*
X205020Y178347D02*
D03*
X71457Y1772D02*
D03*
X1772Y81693D02*
D03*
X210777Y56004D02*
D03*
X203937Y82480D02*
D03*
X51083Y78937D02*
D03*
X179134Y165354D02*
D03*
X186221Y81496D02*
D03*
X227165Y175984D02*
D03*
X189469Y124114D02*
D03*
X149705Y1772D02*
D03*
X1772Y171949D02*
D03*
X114998Y174569D02*
D03*
X172047Y154724D02*
D03*
Y46063D02*
D03*
X175591Y95669D02*
D03*
X203150Y111024D02*
D03*
X221457Y162106D02*
D03*
X240748Y1772D02*
D03*
X242126Y195079D02*
D03*
X211221Y32579D02*
D03*
X132311Y132302D02*
D03*
X212479Y111056D02*
D03*
X199508Y46161D02*
D03*
X150394Y55315D02*
D03*
X76279Y139961D02*
D03*
X179134Y38976D02*
D03*
Y92126D02*
D03*
X244882Y61024D02*
D03*
X1772Y20571D02*
D03*
X151083Y195079D02*
D03*
X234154Y64173D02*
D03*
X121461Y115063D02*
D03*
M02*
