G04*
G04 #@! TF.GenerationSoftware,Altium Limited,Altium Designer,24.10.1 (45)*
G04*
G04 Layer_Physical_Order=2*
G04 Layer_Color=33789*
%FSLAX25Y25*%
%MOIN*%
G70*
G04*
G04 #@! TF.SameCoordinates,CBAACD6F-12D9-4D4A-9EA7-E70620961981*
G04*
G04*
G04 #@! TF.FilePolarity,Positive*
G04*
G01*
G75*
%ADD57C,0.23622*%
%ADD58C,0.06299*%
%ADD59R,0.06299X0.06299*%
%ADD60R,0.10236X0.10236*%
%ADD61C,0.10236*%
%ADD62C,0.14567*%
G04:AMPARAMS|DCode=63|XSize=59.06mil|YSize=118.11mil|CornerRadius=14.76mil|HoleSize=0mil|Usage=FLASHONLY|Rotation=90.000|XOffset=0mil|YOffset=0mil|HoleType=Round|Shape=RoundedRectangle|*
%AMROUNDEDRECTD63*
21,1,0.05906,0.08858,0,0,90.0*
21,1,0.02953,0.11811,0,0,90.0*
1,1,0.02953,0.04429,0.01476*
1,1,0.02953,0.04429,-0.01476*
1,1,0.02953,-0.04429,-0.01476*
1,1,0.02953,-0.04429,0.01476*
%
%ADD63ROUNDEDRECTD63*%
%ADD64C,0.01968*%
G36*
X299213Y196048D02*
X300192D01*
X302134Y195792D01*
X304027Y195285D01*
X305837Y194535D01*
X307534Y193555D01*
X309088Y192363D01*
X310473Y190978D01*
X311666Y189423D01*
X312645Y187727D01*
X313395Y185917D01*
X313902Y184024D01*
X314158Y182082D01*
X314158Y181102D01*
X314158Y15748D01*
Y14769D01*
X313902Y12826D01*
X313395Y10934D01*
X312645Y9124D01*
X311666Y7427D01*
X310473Y5873D01*
X309088Y4487D01*
X307534Y3295D01*
X305837Y2315D01*
X304027Y1566D01*
X302134Y1058D01*
X300192Y803D01*
X14769D01*
X12826Y1058D01*
X10934Y1566D01*
X9124Y2315D01*
X7427Y3295D01*
X5873Y4487D01*
X4487Y5873D01*
X3295Y7427D01*
X2315Y9124D01*
X1566Y10934D01*
X1058Y12826D01*
X803Y14769D01*
Y15748D01*
X803Y181102D01*
Y182082D01*
X1058Y184024D01*
X1566Y185917D01*
X2315Y187727D01*
X3295Y189423D01*
X4487Y190978D01*
X5873Y192363D01*
X7427Y193555D01*
X9124Y194535D01*
X10934Y195285D01*
X12826Y195792D01*
X14769Y196048D01*
X15748Y196048D01*
X299213Y196048D01*
D02*
G37*
%LPC*%
G36*
X234547Y188098D02*
X233957D01*
X233411Y187873D01*
X232994Y187455D01*
X232768Y186909D01*
Y186319D01*
X232994Y185773D01*
X233411Y185356D01*
X233957Y185130D01*
X234547D01*
X235093Y185356D01*
X235510Y185773D01*
X235736Y186319D01*
Y186909D01*
X235510Y187455D01*
X235093Y187873D01*
X234547Y188098D01*
D02*
G37*
G36*
X231004D02*
X230413D01*
X229868Y187873D01*
X229450Y187455D01*
X229224Y186909D01*
Y186319D01*
X229450Y185773D01*
X229868Y185356D01*
X230413Y185130D01*
X231004D01*
X231549Y185356D01*
X231967Y185773D01*
X232193Y186319D01*
Y186909D01*
X231967Y187455D01*
X231549Y187873D01*
X231004Y188098D01*
D02*
G37*
G36*
X227461D02*
X226870D01*
X226325Y187873D01*
X225907Y187455D01*
X225681Y186909D01*
Y186319D01*
X225907Y185773D01*
X226325Y185356D01*
X226870Y185130D01*
X227461D01*
X228006Y185356D01*
X228424Y185773D01*
X228650Y186319D01*
Y186909D01*
X228424Y187455D01*
X228006Y187873D01*
X227461Y188098D01*
D02*
G37*
G36*
X223917D02*
X223327D01*
X222781Y187873D01*
X222364Y187455D01*
X222138Y186909D01*
Y186319D01*
X222364Y185773D01*
X222781Y185356D01*
X223327Y185130D01*
X223917D01*
X224463Y185356D01*
X224880Y185773D01*
X225106Y186319D01*
Y186909D01*
X224880Y187455D01*
X224463Y187873D01*
X223917Y188098D01*
D02*
G37*
G36*
X220374D02*
X219783D01*
X219238Y187873D01*
X218820Y187455D01*
X218595Y186909D01*
Y186319D01*
X218820Y185773D01*
X219238Y185356D01*
X219783Y185130D01*
X220374D01*
X220919Y185356D01*
X221337Y185773D01*
X221563Y186319D01*
Y186909D01*
X221337Y187455D01*
X220919Y187873D01*
X220374Y188098D01*
D02*
G37*
G36*
X168012D02*
X167421D01*
X166876Y187873D01*
X166458Y187455D01*
X166232Y186909D01*
Y186319D01*
X166458Y185773D01*
X166876Y185356D01*
X167421Y185130D01*
X168012D01*
X168557Y185356D01*
X168975Y185773D01*
X169201Y186319D01*
Y186909D01*
X168975Y187455D01*
X168557Y187873D01*
X168012Y188098D01*
D02*
G37*
G36*
X234547Y184555D02*
X233957D01*
X233411Y184329D01*
X232994Y183912D01*
X232768Y183366D01*
Y182776D01*
X232994Y182230D01*
X233411Y181813D01*
X233957Y181587D01*
X234547D01*
X235093Y181813D01*
X235510Y182230D01*
X235736Y182776D01*
Y183366D01*
X235510Y183912D01*
X235093Y184329D01*
X234547Y184555D01*
D02*
G37*
G36*
X231004D02*
X230413D01*
X229868Y184329D01*
X229450Y183912D01*
X229224Y183366D01*
Y182776D01*
X229450Y182230D01*
X229868Y181813D01*
X230413Y181587D01*
X231004D01*
X231549Y181813D01*
X231967Y182230D01*
X232193Y182776D01*
Y183366D01*
X231967Y183912D01*
X231549Y184329D01*
X231004Y184555D01*
D02*
G37*
G36*
X227461D02*
X226870D01*
X226325Y184329D01*
X225907Y183912D01*
X225681Y183366D01*
Y182776D01*
X225907Y182230D01*
X226325Y181813D01*
X226870Y181587D01*
X227461D01*
X228006Y181813D01*
X228424Y182230D01*
X228650Y182776D01*
Y183366D01*
X228424Y183912D01*
X228006Y184329D01*
X227461Y184555D01*
D02*
G37*
G36*
X223917D02*
X223327D01*
X222781Y184329D01*
X222364Y183912D01*
X222138Y183366D01*
Y182776D01*
X222364Y182230D01*
X222781Y181813D01*
X223327Y181587D01*
X223917D01*
X224463Y181813D01*
X224880Y182230D01*
X225106Y182776D01*
Y183366D01*
X224880Y183912D01*
X224463Y184329D01*
X223917Y184555D01*
D02*
G37*
G36*
X220374D02*
X219783D01*
X219238Y184329D01*
X218820Y183912D01*
X218595Y183366D01*
Y182776D01*
X218820Y182230D01*
X219238Y181813D01*
X219783Y181587D01*
X220374D01*
X220919Y181813D01*
X221337Y182230D01*
X221563Y182776D01*
Y183366D01*
X221337Y183912D01*
X220919Y184329D01*
X220374Y184555D01*
D02*
G37*
G36*
X168012Y183669D02*
X167421D01*
X166876Y183443D01*
X166458Y183026D01*
X166232Y182480D01*
Y181890D01*
X166458Y181344D01*
X166876Y180927D01*
X167421Y180701D01*
X168012D01*
X168557Y180927D01*
X168975Y181344D01*
X169201Y181890D01*
Y182480D01*
X168975Y183026D01*
X168557Y183443D01*
X168012Y183669D01*
D02*
G37*
G36*
X186122Y183374D02*
X185531D01*
X184986Y183148D01*
X184569Y182730D01*
X184343Y182185D01*
Y181595D01*
X184569Y181049D01*
X184986Y180631D01*
X185531Y180405D01*
X186122D01*
X186668Y180631D01*
X187085Y181049D01*
X187311Y181595D01*
Y182185D01*
X187085Y182730D01*
X186668Y183148D01*
X186122Y183374D01*
D02*
G37*
G36*
X182579D02*
X181988D01*
X181443Y183148D01*
X181025Y182730D01*
X180799Y182185D01*
Y181595D01*
X181025Y181049D01*
X181443Y180631D01*
X181988Y180405D01*
X182579D01*
X183124Y180631D01*
X183542Y181049D01*
X183768Y181595D01*
Y182185D01*
X183542Y182730D01*
X183124Y183148D01*
X182579Y183374D01*
D02*
G37*
G36*
X234547Y181012D02*
X233957D01*
X233411Y180786D01*
X232994Y180368D01*
X232768Y179823D01*
Y179232D01*
X232994Y178687D01*
X233411Y178269D01*
X233957Y178043D01*
X234547D01*
X235093Y178269D01*
X235510Y178687D01*
X235736Y179232D01*
Y179823D01*
X235510Y180368D01*
X235093Y180786D01*
X234547Y181012D01*
D02*
G37*
G36*
X231004D02*
X230413D01*
X229868Y180786D01*
X229450Y180368D01*
X229224Y179823D01*
Y179232D01*
X229450Y178687D01*
X229868Y178269D01*
X230413Y178043D01*
X231004D01*
X231549Y178269D01*
X231967Y178687D01*
X232193Y179232D01*
Y179823D01*
X231967Y180368D01*
X231549Y180786D01*
X231004Y181012D01*
D02*
G37*
G36*
X227461D02*
X226870D01*
X226325Y180786D01*
X225907Y180368D01*
X225681Y179823D01*
Y179232D01*
X225907Y178687D01*
X226325Y178269D01*
X226870Y178043D01*
X227461D01*
X228006Y178269D01*
X228424Y178687D01*
X228650Y179232D01*
Y179823D01*
X228424Y180368D01*
X228006Y180786D01*
X227461Y181012D01*
D02*
G37*
G36*
X223917D02*
X223327D01*
X222781Y180786D01*
X222364Y180368D01*
X222138Y179823D01*
Y179232D01*
X222364Y178687D01*
X222781Y178269D01*
X223327Y178043D01*
X223917D01*
X224463Y178269D01*
X224880Y178687D01*
X225106Y179232D01*
Y179823D01*
X224880Y180368D01*
X224463Y180786D01*
X223917Y181012D01*
D02*
G37*
G36*
X220374D02*
X219783D01*
X219238Y180786D01*
X218820Y180368D01*
X218595Y179823D01*
Y179232D01*
X218820Y178687D01*
X219238Y178269D01*
X219783Y178043D01*
X220374D01*
X220919Y178269D01*
X221337Y178687D01*
X221563Y179232D01*
Y179823D01*
X221337Y180368D01*
X220919Y180786D01*
X220374Y181012D01*
D02*
G37*
G36*
X81648Y180872D02*
X81381D01*
Y177523D01*
X84731D01*
Y177790D01*
X84489Y178693D01*
X84022Y179502D01*
X83361Y180163D01*
X82551Y180631D01*
X81648Y180872D01*
D02*
G37*
G36*
X80981D02*
X80714D01*
X79811Y180631D01*
X79002Y180163D01*
X78341Y179502D01*
X77873Y178693D01*
X77631Y177790D01*
Y177523D01*
X80981D01*
Y180872D01*
D02*
G37*
G36*
X186122Y179831D02*
X185531D01*
X184986Y179605D01*
X184569Y179187D01*
X184343Y178642D01*
Y178051D01*
X184569Y177506D01*
X184986Y177088D01*
X185531Y176862D01*
X186122D01*
X186668Y177088D01*
X187085Y177506D01*
X187311Y178051D01*
Y178642D01*
X187085Y179187D01*
X186668Y179605D01*
X186122Y179831D01*
D02*
G37*
G36*
X182579D02*
X181988D01*
X181443Y179605D01*
X181025Y179187D01*
X180799Y178642D01*
Y178051D01*
X181025Y177506D01*
X181443Y177088D01*
X181988Y176862D01*
X182579D01*
X183124Y177088D01*
X183542Y177506D01*
X183768Y178051D01*
Y178642D01*
X183542Y179187D01*
X183124Y179605D01*
X182579Y179831D01*
D02*
G37*
G36*
X167913Y179535D02*
X167323D01*
X166777Y179309D01*
X166360Y178892D01*
X166134Y178346D01*
Y177756D01*
X166360Y177210D01*
X166777Y176793D01*
X167323Y176567D01*
X167913D01*
X168459Y176793D01*
X168876Y177210D01*
X169102Y177756D01*
Y178346D01*
X168876Y178892D01*
X168459Y179309D01*
X167913Y179535D01*
D02*
G37*
G36*
X234547Y177469D02*
X233957D01*
X233411Y177243D01*
X232994Y176825D01*
X232768Y176279D01*
Y175689D01*
X232994Y175144D01*
X233411Y174726D01*
X233957Y174500D01*
X234547D01*
X235093Y174726D01*
X235510Y175144D01*
X235736Y175689D01*
Y176279D01*
X235510Y176825D01*
X235093Y177243D01*
X234547Y177469D01*
D02*
G37*
G36*
X231004D02*
X230413D01*
X229868Y177243D01*
X229450Y176825D01*
X229224Y176279D01*
Y175689D01*
X229450Y175144D01*
X229868Y174726D01*
X230413Y174500D01*
X231004D01*
X231549Y174726D01*
X231967Y175144D01*
X232193Y175689D01*
Y176279D01*
X231967Y176825D01*
X231549Y177243D01*
X231004Y177469D01*
D02*
G37*
G36*
X227461D02*
X226870D01*
X226325Y177243D01*
X225907Y176825D01*
X225681Y176279D01*
Y175689D01*
X225907Y175144D01*
X226325Y174726D01*
X226870Y174500D01*
X227461D01*
X228006Y174726D01*
X228424Y175144D01*
X228650Y175689D01*
Y176279D01*
X228424Y176825D01*
X228006Y177243D01*
X227461Y177469D01*
D02*
G37*
G36*
X223917D02*
X223327D01*
X222781Y177243D01*
X222364Y176825D01*
X222138Y176279D01*
Y175689D01*
X222364Y175144D01*
X222781Y174726D01*
X223327Y174500D01*
X223917D01*
X224463Y174726D01*
X224880Y175144D01*
X225106Y175689D01*
Y176279D01*
X224880Y176825D01*
X224463Y177243D01*
X223917Y177469D01*
D02*
G37*
G36*
X220374D02*
X219783D01*
X219238Y177243D01*
X218820Y176825D01*
X218595Y176279D01*
Y175689D01*
X218820Y175144D01*
X219238Y174726D01*
X219783Y174500D01*
X220374D01*
X220919Y174726D01*
X221337Y175144D01*
X221563Y175689D01*
Y176279D01*
X221337Y176825D01*
X220919Y177243D01*
X220374Y177469D01*
D02*
G37*
G36*
X84731Y177123D02*
X81381D01*
Y173773D01*
X81648D01*
X82551Y174015D01*
X83361Y174482D01*
X84022Y175143D01*
X84489Y175953D01*
X84731Y176856D01*
Y177123D01*
D02*
G37*
G36*
X80981D02*
X77631D01*
Y176856D01*
X77873Y175953D01*
X78341Y175143D01*
X79002Y174482D01*
X79811Y174015D01*
X80714Y173773D01*
X80981D01*
Y177123D01*
D02*
G37*
G36*
X71662Y180972D02*
X70701D01*
X69772Y180724D01*
X68940Y180243D01*
X68261Y179564D01*
X67780Y178732D01*
X67532Y177803D01*
Y176842D01*
X67780Y175914D01*
X68261Y175082D01*
X68940Y174402D01*
X69772Y173922D01*
X70701Y173673D01*
X71662D01*
X72590Y173922D01*
X73422Y174402D01*
X74102Y175082D01*
X74582Y175914D01*
X74831Y176842D01*
Y177803D01*
X74582Y178732D01*
X74102Y179564D01*
X73422Y180243D01*
X72590Y180724D01*
X71662Y180972D01*
D02*
G37*
G36*
X61662D02*
X60701D01*
X59772Y180724D01*
X58940Y180243D01*
X58261Y179564D01*
X57780Y178732D01*
X57531Y177803D01*
Y176842D01*
X57780Y175914D01*
X58261Y175082D01*
X58940Y174402D01*
X59772Y173922D01*
X60701Y173673D01*
X61662D01*
X62590Y173922D01*
X63422Y174402D01*
X64101Y175082D01*
X64582Y175914D01*
X64831Y176842D01*
Y177803D01*
X64582Y178732D01*
X64101Y179564D01*
X63422Y180243D01*
X62590Y180724D01*
X61662Y180972D01*
D02*
G37*
G36*
X51662D02*
X50701D01*
X49772Y180724D01*
X48940Y180243D01*
X48261Y179564D01*
X47780Y178732D01*
X47532Y177803D01*
Y176842D01*
X47780Y175914D01*
X48261Y175082D01*
X48940Y174402D01*
X49772Y173922D01*
X50701Y173673D01*
X51662D01*
X52590Y173922D01*
X53422Y174402D01*
X54102Y175082D01*
X54582Y175914D01*
X54831Y176842D01*
Y177803D01*
X54582Y178732D01*
X54102Y179564D01*
X53422Y180243D01*
X52590Y180724D01*
X51662Y180972D01*
D02*
G37*
G36*
X120768Y175992D02*
X120177D01*
X119632Y175766D01*
X119214Y175349D01*
X118988Y174803D01*
Y174213D01*
X119214Y173667D01*
X119632Y173250D01*
X120177Y173024D01*
X120768D01*
X121313Y173250D01*
X121731Y173667D01*
X121957Y174213D01*
Y174803D01*
X121731Y175349D01*
X121313Y175766D01*
X120768Y175992D01*
D02*
G37*
G36*
X103740Y175894D02*
X103150D01*
X102604Y175668D01*
X102187Y175250D01*
X101961Y174705D01*
Y174114D01*
X102187Y173569D01*
X102604Y173151D01*
X103150Y172925D01*
X103740D01*
X104286Y173151D01*
X104703Y173569D01*
X104929Y174114D01*
Y174705D01*
X104703Y175250D01*
X104286Y175668D01*
X103740Y175894D01*
D02*
G37*
G36*
X167913Y175402D02*
X167323D01*
X166777Y175176D01*
X166360Y174758D01*
X166134Y174213D01*
Y173622D01*
X166360Y173077D01*
X166777Y172659D01*
X167323Y172433D01*
X167913D01*
X168459Y172659D01*
X168876Y173077D01*
X169102Y173622D01*
Y174213D01*
X168876Y174758D01*
X168459Y175176D01*
X167913Y175402D01*
D02*
G37*
G36*
X234547Y173925D02*
X233957D01*
X233411Y173699D01*
X232994Y173282D01*
X232768Y172736D01*
Y172146D01*
X232994Y171600D01*
X233411Y171183D01*
X233957Y170957D01*
X234547D01*
X235093Y171183D01*
X235510Y171600D01*
X235736Y172146D01*
Y172736D01*
X235510Y173282D01*
X235093Y173699D01*
X234547Y173925D01*
D02*
G37*
G36*
X231004D02*
X230413D01*
X229868Y173699D01*
X229450Y173282D01*
X229224Y172736D01*
Y172146D01*
X229450Y171600D01*
X229868Y171183D01*
X230413Y170957D01*
X231004D01*
X231549Y171183D01*
X231967Y171600D01*
X232193Y172146D01*
Y172736D01*
X231967Y173282D01*
X231549Y173699D01*
X231004Y173925D01*
D02*
G37*
G36*
X227461D02*
X226870D01*
X226325Y173699D01*
X225907Y173282D01*
X225681Y172736D01*
Y172146D01*
X225907Y171600D01*
X226325Y171183D01*
X226870Y170957D01*
X227461D01*
X228006Y171183D01*
X228424Y171600D01*
X228650Y172146D01*
Y172736D01*
X228424Y173282D01*
X228006Y173699D01*
X227461Y173925D01*
D02*
G37*
G36*
X223917D02*
X223327D01*
X222781Y173699D01*
X222364Y173282D01*
X222138Y172736D01*
Y172146D01*
X222364Y171600D01*
X222781Y171183D01*
X223327Y170957D01*
X223917D01*
X224463Y171183D01*
X224880Y171600D01*
X225106Y172146D01*
Y172736D01*
X224880Y173282D01*
X224463Y173699D01*
X223917Y173925D01*
D02*
G37*
G36*
X220374D02*
X219783D01*
X219238Y173699D01*
X218820Y173282D01*
X218595Y172736D01*
Y172146D01*
X218820Y171600D01*
X219238Y171183D01*
X219783Y170957D01*
X220374D01*
X220919Y171183D01*
X221337Y171600D01*
X221563Y172146D01*
Y172736D01*
X221337Y173282D01*
X220919Y173699D01*
X220374Y173925D01*
D02*
G37*
G36*
X81648Y170872D02*
X81381D01*
Y167523D01*
X84731D01*
Y167790D01*
X84489Y168693D01*
X84022Y169502D01*
X83361Y170163D01*
X82551Y170631D01*
X81648Y170872D01*
D02*
G37*
G36*
X80981D02*
X80714D01*
X79811Y170631D01*
X79002Y170163D01*
X78341Y169502D01*
X77873Y168693D01*
X77631Y167790D01*
Y167523D01*
X80981D01*
Y170872D01*
D02*
G37*
G36*
X234547Y170382D02*
X233957D01*
X233411Y170156D01*
X232994Y169738D01*
X232768Y169193D01*
Y168602D01*
X232994Y168057D01*
X233411Y167639D01*
X233957Y167413D01*
X234547D01*
X235093Y167639D01*
X235510Y168057D01*
X235736Y168602D01*
Y169193D01*
X235510Y169738D01*
X235093Y170156D01*
X234547Y170382D01*
D02*
G37*
G36*
X231004D02*
X230413D01*
X229868Y170156D01*
X229450Y169738D01*
X229224Y169193D01*
Y168602D01*
X229450Y168057D01*
X229868Y167639D01*
X230413Y167413D01*
X231004D01*
X231549Y167639D01*
X231967Y168057D01*
X232193Y168602D01*
Y169193D01*
X231967Y169738D01*
X231549Y170156D01*
X231004Y170382D01*
D02*
G37*
G36*
X227461D02*
X226870D01*
X226325Y170156D01*
X225907Y169738D01*
X225681Y169193D01*
Y168602D01*
X225907Y168057D01*
X226325Y167639D01*
X226870Y167413D01*
X227461D01*
X228006Y167639D01*
X228424Y168057D01*
X228650Y168602D01*
Y169193D01*
X228424Y169738D01*
X228006Y170156D01*
X227461Y170382D01*
D02*
G37*
G36*
X223917D02*
X223327D01*
X222781Y170156D01*
X222364Y169738D01*
X222138Y169193D01*
Y168602D01*
X222364Y168057D01*
X222781Y167639D01*
X223327Y167413D01*
X223917D01*
X224463Y167639D01*
X224880Y168057D01*
X225106Y168602D01*
Y169193D01*
X224880Y169738D01*
X224463Y170156D01*
X223917Y170382D01*
D02*
G37*
G36*
X220374D02*
X219783D01*
X219238Y170156D01*
X218820Y169738D01*
X218595Y169193D01*
Y168602D01*
X218820Y168057D01*
X219238Y167639D01*
X219783Y167413D01*
X220374D01*
X220919Y167639D01*
X221337Y168057D01*
X221563Y168602D01*
Y169193D01*
X221337Y169738D01*
X220919Y170156D01*
X220374Y170382D01*
D02*
G37*
G36*
X159744Y169595D02*
X159154D01*
X158608Y169369D01*
X158191Y168951D01*
X157965Y168405D01*
Y167815D01*
X158191Y167270D01*
X158608Y166852D01*
X159154Y166626D01*
X159744D01*
X160290Y166852D01*
X160707Y167270D01*
X160933Y167815D01*
Y168405D01*
X160707Y168951D01*
X160290Y169369D01*
X159744Y169595D01*
D02*
G37*
G36*
X156201D02*
X155610D01*
X155065Y169369D01*
X154647Y168951D01*
X154421Y168405D01*
Y167815D01*
X154647Y167270D01*
X155065Y166852D01*
X155610Y166626D01*
X156201D01*
X156746Y166852D01*
X157164Y167270D01*
X157390Y167815D01*
Y168405D01*
X157164Y168951D01*
X156746Y169369D01*
X156201Y169595D01*
D02*
G37*
G36*
X296245Y189476D02*
X294307D01*
X292393Y189173D01*
X290550Y188574D01*
X288823Y187695D01*
X287256Y186556D01*
X285885Y185185D01*
X284746Y183618D01*
X283867Y181891D01*
X283268Y180048D01*
X282965Y178134D01*
Y176197D01*
X283268Y174283D01*
X283867Y172440D01*
X284746Y170713D01*
X285885Y169145D01*
X287256Y167775D01*
X288823Y166636D01*
X290550Y165756D01*
X292393Y165157D01*
X294307Y164854D01*
X296245D01*
X298158Y165157D01*
X300001Y165756D01*
X301728Y166636D01*
X303296Y167775D01*
X304666Y169145D01*
X305805Y170713D01*
X306685Y172440D01*
X307283Y174283D01*
X307587Y176197D01*
Y178134D01*
X307283Y180048D01*
X306685Y181891D01*
X305805Y183618D01*
X304666Y185185D01*
X303296Y186556D01*
X301728Y187695D01*
X300001Y188574D01*
X298158Y189173D01*
X296245Y189476D01*
D02*
G37*
G36*
X20654D02*
X18716D01*
X16802Y189173D01*
X14959Y188574D01*
X13233Y187695D01*
X11665Y186556D01*
X10295Y185185D01*
X9156Y183618D01*
X8276Y181891D01*
X7677Y180048D01*
X7374Y178134D01*
Y176197D01*
X7677Y174283D01*
X8276Y172440D01*
X9156Y170713D01*
X10295Y169145D01*
X11665Y167775D01*
X13233Y166636D01*
X14959Y165756D01*
X16802Y165157D01*
X18716Y164854D01*
X20654D01*
X22568Y165157D01*
X24411Y165756D01*
X26137Y166636D01*
X27705Y167775D01*
X29075Y169145D01*
X30214Y170713D01*
X31094Y172440D01*
X31693Y174283D01*
X31996Y176197D01*
Y178134D01*
X31693Y180048D01*
X31094Y181891D01*
X30214Y183618D01*
X29075Y185185D01*
X27705Y186556D01*
X26137Y187695D01*
X24411Y188574D01*
X22568Y189173D01*
X20654Y189476D01*
D02*
G37*
G36*
X84731Y167123D02*
X81381D01*
Y163773D01*
X81648D01*
X82551Y164015D01*
X83361Y164482D01*
X84022Y165143D01*
X84489Y165953D01*
X84731Y166856D01*
Y167123D01*
D02*
G37*
G36*
X80981D02*
X77631D01*
Y166856D01*
X77873Y165953D01*
X78341Y165143D01*
X79002Y164482D01*
X79811Y164015D01*
X80714Y163773D01*
X80981D01*
Y167123D01*
D02*
G37*
G36*
X71662Y170972D02*
X70701D01*
X69772Y170724D01*
X68940Y170243D01*
X68261Y169564D01*
X67780Y168731D01*
X67532Y167803D01*
Y166842D01*
X67780Y165914D01*
X68261Y165082D01*
X68940Y164402D01*
X69772Y163922D01*
X70701Y163673D01*
X71662D01*
X72590Y163922D01*
X73422Y164402D01*
X74102Y165082D01*
X74582Y165914D01*
X74831Y166842D01*
Y167803D01*
X74582Y168731D01*
X74102Y169564D01*
X73422Y170243D01*
X72590Y170724D01*
X71662Y170972D01*
D02*
G37*
G36*
X61662D02*
X60701D01*
X59772Y170724D01*
X58940Y170243D01*
X58261Y169564D01*
X57780Y168731D01*
X57531Y167803D01*
Y166842D01*
X57780Y165914D01*
X58261Y165082D01*
X58940Y164402D01*
X59772Y163922D01*
X60701Y163673D01*
X61662D01*
X62590Y163922D01*
X63422Y164402D01*
X64101Y165082D01*
X64582Y165914D01*
X64831Y166842D01*
Y167803D01*
X64582Y168731D01*
X64101Y169564D01*
X63422Y170243D01*
X62590Y170724D01*
X61662Y170972D01*
D02*
G37*
G36*
X54831D02*
X47532D01*
Y163673D01*
X54831D01*
Y170972D01*
D02*
G37*
G36*
X159744Y166051D02*
X159154D01*
X158608Y165825D01*
X158191Y165408D01*
X157965Y164862D01*
Y164272D01*
X158191Y163726D01*
X158608Y163309D01*
X159154Y163083D01*
X159744D01*
X160290Y163309D01*
X160707Y163726D01*
X160933Y164272D01*
Y164862D01*
X160707Y165408D01*
X160290Y165825D01*
X159744Y166051D01*
D02*
G37*
G36*
X156201D02*
X155610D01*
X155065Y165825D01*
X154647Y165408D01*
X154421Y164862D01*
Y164272D01*
X154647Y163726D01*
X155065Y163309D01*
X155610Y163083D01*
X156201D01*
X156746Y163309D01*
X157164Y163726D01*
X157390Y164272D01*
Y164862D01*
X157164Y165408D01*
X156746Y165825D01*
X156201Y166051D01*
D02*
G37*
G36*
X103740D02*
X103150D01*
X102604Y165825D01*
X102187Y165408D01*
X101961Y164862D01*
Y164272D01*
X102187Y163726D01*
X102604Y163309D01*
X103150Y163083D01*
X103740D01*
X104286Y163309D01*
X104703Y163726D01*
X104929Y164272D01*
Y164862D01*
X104703Y165408D01*
X104286Y165825D01*
X103740Y166051D01*
D02*
G37*
G36*
X263976Y157193D02*
X263386D01*
X262840Y156967D01*
X262598Y156725D01*
X262356Y156967D01*
X261811Y157193D01*
X261221D01*
X260675Y156967D01*
X260258Y156549D01*
X260032Y156004D01*
Y155413D01*
X260258Y154868D01*
X260675Y154450D01*
X261221Y154224D01*
X261811D01*
X262356Y154450D01*
X262598Y154692D01*
X262840Y154450D01*
X263386Y154224D01*
X263976D01*
X264522Y154450D01*
X264939Y154868D01*
X265165Y155413D01*
Y156004D01*
X264939Y156549D01*
X264522Y156967D01*
X263976Y157193D01*
D02*
G37*
G36*
X246654Y155126D02*
X246063D01*
X245517Y154900D01*
X245226Y154609D01*
X244935Y154900D01*
X244390Y155126D01*
X243799D01*
X243254Y154900D01*
X242836Y154482D01*
X242610Y153937D01*
Y153347D01*
X242836Y152801D01*
X243254Y152383D01*
X243799Y152157D01*
X244390D01*
X244935Y152383D01*
X245226Y152675D01*
X245517Y152383D01*
X246063Y152157D01*
X246654D01*
X247199Y152383D01*
X247617Y152801D01*
X247843Y153347D01*
Y153937D01*
X247617Y154482D01*
X247199Y154900D01*
X246654Y155126D01*
D02*
G37*
G36*
X81749Y155541D02*
X81482D01*
Y152191D01*
X84832D01*
Y152458D01*
X84590Y153361D01*
X84123Y154170D01*
X83462Y154831D01*
X82652Y155299D01*
X81749Y155541D01*
D02*
G37*
G36*
X81082D02*
X80815D01*
X79912Y155299D01*
X79103Y154831D01*
X78442Y154170D01*
X77974Y153361D01*
X77733Y152458D01*
Y152191D01*
X81082D01*
Y155541D01*
D02*
G37*
G36*
X84832Y151791D02*
X81482D01*
Y148441D01*
X81749D01*
X82652Y148683D01*
X83462Y149151D01*
X84123Y149811D01*
X84590Y150621D01*
X84832Y151524D01*
Y151791D01*
D02*
G37*
G36*
X81082D02*
X77733D01*
Y151524D01*
X77974Y150621D01*
X78442Y149811D01*
X79103Y149151D01*
X79912Y148683D01*
X80815Y148441D01*
X81082D01*
Y151791D01*
D02*
G37*
G36*
X71763Y155640D02*
X70802D01*
X69873Y155392D01*
X69041Y154911D01*
X68362Y154232D01*
X67881Y153400D01*
X67633Y152471D01*
Y151510D01*
X67881Y150582D01*
X68362Y149750D01*
X69041Y149071D01*
X69873Y148590D01*
X70802Y148341D01*
X71763D01*
X72691Y148590D01*
X73523Y149071D01*
X74203Y149750D01*
X74683Y150582D01*
X74932Y151510D01*
Y152471D01*
X74683Y153400D01*
X74203Y154232D01*
X73523Y154911D01*
X72691Y155392D01*
X71763Y155640D01*
D02*
G37*
G36*
X61763D02*
X60802D01*
X59873Y155392D01*
X59041Y154911D01*
X58362Y154232D01*
X57881Y153400D01*
X57633Y152471D01*
Y151510D01*
X57881Y150582D01*
X58362Y149750D01*
X59041Y149071D01*
X59873Y148590D01*
X60802Y148341D01*
X61763D01*
X62691Y148590D01*
X63523Y149071D01*
X64203Y149750D01*
X64683Y150582D01*
X64932Y151510D01*
Y152471D01*
X64683Y153400D01*
X64203Y154232D01*
X63523Y154911D01*
X62691Y155392D01*
X61763Y155640D01*
D02*
G37*
G36*
X51763D02*
X50802D01*
X49874Y155392D01*
X49041Y154911D01*
X48362Y154232D01*
X47881Y153400D01*
X47633Y152471D01*
Y151510D01*
X47881Y150582D01*
X48362Y149750D01*
X49041Y149071D01*
X49874Y148590D01*
X50802Y148341D01*
X51763D01*
X52691Y148590D01*
X53523Y149071D01*
X54203Y149750D01*
X54683Y150582D01*
X54932Y151510D01*
Y152471D01*
X54683Y153400D01*
X54203Y154232D01*
X53523Y154911D01*
X52691Y155392D01*
X51763Y155640D01*
D02*
G37*
G36*
X202657Y148728D02*
X202067D01*
X201521Y148502D01*
X201104Y148085D01*
X200878Y147539D01*
Y146949D01*
X201104Y146403D01*
X201521Y145986D01*
X202067Y145760D01*
X202657D01*
X203203Y145986D01*
X203621Y146403D01*
X203847Y146949D01*
Y147539D01*
X203621Y148085D01*
X203203Y148502D01*
X202657Y148728D01*
D02*
G37*
G36*
X138681Y143709D02*
X138091D01*
X137545Y143483D01*
X137127Y143065D01*
X136902Y142520D01*
Y141929D01*
X137127Y141384D01*
X137545Y140966D01*
X138091Y140740D01*
X138681D01*
X139227Y140966D01*
X139644Y141384D01*
X139870Y141929D01*
Y142520D01*
X139644Y143065D01*
X139227Y143483D01*
X138681Y143709D01*
D02*
G37*
G36*
X133268D02*
X132677D01*
X132132Y143483D01*
X131714Y143065D01*
X131488Y142520D01*
Y141929D01*
X131714Y141384D01*
X132132Y140966D01*
X132677Y140740D01*
X133268D01*
X133813Y140966D01*
X134231Y141384D01*
X134457Y141929D01*
Y142520D01*
X134231Y143065D01*
X133813Y143483D01*
X133268Y143709D01*
D02*
G37*
G36*
X128248D02*
X127657D01*
X127112Y143483D01*
X126695Y143065D01*
X126469Y142520D01*
Y141929D01*
X126695Y141384D01*
X127112Y140966D01*
X127657Y140740D01*
X128248D01*
X128794Y140966D01*
X129211Y141384D01*
X129437Y141929D01*
Y142520D01*
X129211Y143065D01*
X128794Y143483D01*
X128248Y143709D01*
D02*
G37*
G36*
X81763Y145641D02*
X80802D01*
X79874Y145392D01*
X79041Y144911D01*
X78362Y144232D01*
X77881Y143400D01*
X77633Y142471D01*
Y141510D01*
X77881Y140582D01*
X78362Y139750D01*
X79041Y139070D01*
X79874Y138590D01*
X80802Y138341D01*
X81763D01*
X82691Y138590D01*
X83523Y139070D01*
X84203Y139750D01*
X84683Y140582D01*
X84932Y141510D01*
Y142471D01*
X84683Y143400D01*
X84203Y144232D01*
X83523Y144911D01*
X82691Y145392D01*
X81763Y145641D01*
D02*
G37*
G36*
X71763D02*
X70802D01*
X69873Y145392D01*
X69041Y144911D01*
X68362Y144232D01*
X67881Y143400D01*
X67633Y142471D01*
Y141510D01*
X67881Y140582D01*
X68362Y139750D01*
X69041Y139070D01*
X69873Y138590D01*
X70802Y138341D01*
X71763D01*
X72691Y138590D01*
X73523Y139070D01*
X74203Y139750D01*
X74683Y140582D01*
X74932Y141510D01*
Y142471D01*
X74683Y143400D01*
X74203Y144232D01*
X73523Y144911D01*
X72691Y145392D01*
X71763Y145641D01*
D02*
G37*
G36*
X61763D02*
X60802D01*
X59873Y145392D01*
X59041Y144911D01*
X58362Y144232D01*
X57881Y143400D01*
X57633Y142471D01*
Y141510D01*
X57881Y140582D01*
X58362Y139750D01*
X59041Y139070D01*
X59873Y138590D01*
X60802Y138341D01*
X61763D01*
X62691Y138590D01*
X63523Y139070D01*
X64203Y139750D01*
X64683Y140582D01*
X64932Y141510D01*
Y142471D01*
X64683Y143400D01*
X64203Y144232D01*
X63523Y144911D01*
X62691Y145392D01*
X61763Y145641D01*
D02*
G37*
G36*
X54932D02*
X47633D01*
Y138341D01*
X54932D01*
Y145641D01*
D02*
G37*
G36*
X164862Y140461D02*
X164272D01*
X163726Y140235D01*
X163309Y139817D01*
X163083Y139272D01*
Y138681D01*
X163309Y138136D01*
X163726Y137718D01*
X164272Y137492D01*
X164862D01*
X165408Y137718D01*
X165825Y138136D01*
X166051Y138681D01*
Y139272D01*
X165825Y139817D01*
X165408Y140235D01*
X164862Y140461D01*
D02*
G37*
G36*
X161319D02*
X160728D01*
X160183Y140235D01*
X159765Y139817D01*
X159539Y139272D01*
Y138681D01*
X159765Y138136D01*
X160183Y137718D01*
X160728Y137492D01*
X161319D01*
X161864Y137718D01*
X162282Y138136D01*
X162508Y138681D01*
Y139272D01*
X162282Y139817D01*
X161864Y140235D01*
X161319Y140461D01*
D02*
G37*
G36*
X217323Y142035D02*
X216732D01*
X216187Y141809D01*
X215769Y141392D01*
X215543Y140846D01*
Y140256D01*
X215769Y139710D01*
X216180Y139299D01*
X215804Y138923D01*
X215579Y138378D01*
Y137787D01*
X215804Y137242D01*
X216222Y136824D01*
X216768Y136598D01*
X217358D01*
X217903Y136824D01*
X218321Y137242D01*
X218547Y137787D01*
Y138378D01*
X218321Y138923D01*
X217910Y139334D01*
X218286Y139710D01*
X218512Y140256D01*
Y140846D01*
X218286Y141392D01*
X217868Y141809D01*
X217323Y142035D01*
D02*
G37*
G36*
X164862Y136917D02*
X164272D01*
X163726Y136691D01*
X163309Y136274D01*
X163083Y135728D01*
Y135138D01*
X163309Y134592D01*
X163726Y134175D01*
X164272Y133949D01*
X164862D01*
X165408Y134175D01*
X165825Y134592D01*
X166051Y135138D01*
Y135728D01*
X165825Y136274D01*
X165408Y136691D01*
X164862Y136917D01*
D02*
G37*
G36*
X161319D02*
X160728D01*
X160183Y136691D01*
X159765Y136274D01*
X159539Y135728D01*
Y135138D01*
X159765Y134592D01*
X160183Y134175D01*
X160728Y133949D01*
X161319D01*
X161864Y134175D01*
X162282Y134592D01*
X162508Y135138D01*
Y135728D01*
X162282Y136274D01*
X161864Y136691D01*
X161319Y136917D01*
D02*
G37*
G36*
X132606Y133786D02*
X132016D01*
X131470Y133560D01*
X131053Y133142D01*
X130827Y132597D01*
Y132068D01*
X130243D01*
X130034Y131982D01*
X129636Y131988D01*
X129553Y132183D01*
X129408Y132534D01*
X128990Y132951D01*
X128445Y133177D01*
X127854D01*
X127309Y132951D01*
X126891Y132534D01*
X126665Y131988D01*
Y131398D01*
X126891Y130852D01*
X127309Y130435D01*
X127854Y130209D01*
X128445D01*
X128654Y130295D01*
X129052Y130289D01*
X129134Y130094D01*
X129280Y129743D01*
X129697Y129326D01*
X130243Y129100D01*
X130833D01*
X131379Y129326D01*
X131796Y129743D01*
X132022Y130289D01*
Y130817D01*
X132606D01*
X133152Y131043D01*
X133162Y131054D01*
X133476Y130991D01*
X133894Y130574D01*
X134439Y130348D01*
X135030D01*
X135222Y130428D01*
X135622Y130413D01*
X135848Y129868D01*
X136266Y129450D01*
X136811Y129224D01*
X137401D01*
X137947Y129450D01*
X138365Y129868D01*
X138560Y130341D01*
X138645Y130434D01*
X138991Y130563D01*
X139370Y130405D01*
X139961D01*
X140090Y130459D01*
X140501Y130196D01*
X140683Y129758D01*
X141100Y129340D01*
X141646Y129114D01*
X142236D01*
X142782Y129340D01*
X143199Y129758D01*
X143425Y130303D01*
Y130894D01*
X143199Y131439D01*
X142782Y131857D01*
X142236Y132083D01*
X141646D01*
X141516Y132029D01*
X141105Y132292D01*
X140924Y132730D01*
X140506Y133148D01*
X139961Y133374D01*
X139370D01*
X138825Y133148D01*
X138407Y132730D01*
X138211Y132258D01*
X138127Y132165D01*
X137781Y132036D01*
X137401Y132193D01*
X136811D01*
X136619Y132113D01*
X136219Y132127D01*
X135993Y132673D01*
X135575Y133090D01*
X135030Y133316D01*
X134439D01*
X133894Y133090D01*
X133883Y133080D01*
X133569Y133142D01*
X133152Y133560D01*
X132606Y133786D01*
D02*
G37*
G36*
X234646Y133079D02*
X234055D01*
X233510Y132853D01*
X233092Y132435D01*
X232866Y131890D01*
Y131299D01*
X233092Y130754D01*
X233510Y130336D01*
X234055Y130110D01*
X234646D01*
X235191Y130336D01*
X235609Y130754D01*
X235835Y131299D01*
Y131890D01*
X235609Y132435D01*
X235191Y132853D01*
X234646Y133079D01*
D02*
G37*
G36*
X124508Y132980D02*
X123917D01*
X123372Y132754D01*
X122954Y132337D01*
X122728Y131791D01*
Y131201D01*
X122954Y130655D01*
X123372Y130238D01*
X123917Y130012D01*
X124508D01*
X125053Y130238D01*
X125471Y130655D01*
X125697Y131201D01*
Y131791D01*
X125471Y132337D01*
X125053Y132754D01*
X124508Y132980D01*
D02*
G37*
G36*
X214075Y130224D02*
X213484D01*
X212939Y129999D01*
X212521Y129581D01*
X212295Y129035D01*
Y128445D01*
X212521Y127899D01*
X212939Y127482D01*
X213484Y127256D01*
X214075D01*
X214620Y127482D01*
X215038Y127899D01*
X215264Y128445D01*
Y129035D01*
X215038Y129581D01*
X214620Y129999D01*
X214075Y130224D01*
D02*
G37*
G36*
X210531D02*
X209941D01*
X209396Y129999D01*
X208978Y129581D01*
X208752Y129035D01*
Y128445D01*
X208978Y127899D01*
X209396Y127482D01*
X209941Y127256D01*
X210531D01*
X211077Y127482D01*
X211494Y127899D01*
X211720Y128445D01*
Y129035D01*
X211494Y129581D01*
X211077Y129999D01*
X210531Y130224D01*
D02*
G37*
G36*
X206988D02*
X206398D01*
X205852Y129999D01*
X205435Y129581D01*
X205209Y129035D01*
Y128445D01*
X205435Y127899D01*
X205852Y127482D01*
X206398Y127256D01*
X206988D01*
X207534Y127482D01*
X207951Y127899D01*
X208177Y128445D01*
Y129035D01*
X207951Y129581D01*
X207534Y129999D01*
X206988Y130224D01*
D02*
G37*
G36*
X203445D02*
X202854D01*
X202309Y129999D01*
X201891Y129581D01*
X201665Y129035D01*
Y128445D01*
X201891Y127899D01*
X202309Y127482D01*
X202854Y127256D01*
X203445D01*
X203990Y127482D01*
X204408Y127899D01*
X204634Y128445D01*
Y129035D01*
X204408Y129581D01*
X203990Y129999D01*
X203445Y130224D01*
D02*
G37*
G36*
X199901D02*
X199311D01*
X198766Y129999D01*
X198348Y129581D01*
X198122Y129035D01*
Y128445D01*
X198348Y127899D01*
X198766Y127482D01*
X199311Y127256D01*
X199901D01*
X200447Y127482D01*
X200865Y127899D01*
X201091Y128445D01*
Y129035D01*
X200865Y129581D01*
X200447Y129999D01*
X199901Y130224D01*
D02*
G37*
G36*
X81749Y129950D02*
X81482D01*
Y126600D01*
X84832D01*
Y126868D01*
X84590Y127770D01*
X84123Y128580D01*
X83462Y129241D01*
X82652Y129708D01*
X81749Y129950D01*
D02*
G37*
G36*
X81082D02*
X80815D01*
X79912Y129708D01*
X79103Y129241D01*
X78442Y128580D01*
X77974Y127770D01*
X77733Y126868D01*
Y126600D01*
X81082D01*
Y129950D01*
D02*
G37*
G36*
X230118Y128551D02*
X229528D01*
X228982Y128325D01*
X228565Y127908D01*
X228339Y127362D01*
Y126772D01*
X228565Y126226D01*
X228982Y125809D01*
X229528Y125583D01*
X230118D01*
X230664Y125809D01*
X231081Y126226D01*
X231307Y126772D01*
Y127362D01*
X231081Y127908D01*
X230664Y128325D01*
X230118Y128551D01*
D02*
G37*
G36*
X214075Y126681D02*
X213484D01*
X212939Y126455D01*
X212521Y126038D01*
X212295Y125492D01*
Y124902D01*
X212521Y124356D01*
X212939Y123939D01*
X213484Y123713D01*
X214075D01*
X214620Y123939D01*
X215038Y124356D01*
X215264Y124902D01*
Y125492D01*
X215038Y126038D01*
X214620Y126455D01*
X214075Y126681D01*
D02*
G37*
G36*
X210531D02*
X209941D01*
X209396Y126455D01*
X208978Y126038D01*
X208752Y125492D01*
Y124902D01*
X208978Y124356D01*
X209396Y123939D01*
X209941Y123713D01*
X210531D01*
X211077Y123939D01*
X211494Y124356D01*
X211720Y124902D01*
Y125492D01*
X211494Y126038D01*
X211077Y126455D01*
X210531Y126681D01*
D02*
G37*
G36*
X206988D02*
X206398D01*
X205852Y126455D01*
X205435Y126038D01*
X205209Y125492D01*
Y124902D01*
X205435Y124356D01*
X205852Y123939D01*
X206398Y123713D01*
X206988D01*
X207534Y123939D01*
X207951Y124356D01*
X208177Y124902D01*
Y125492D01*
X207951Y126038D01*
X207534Y126455D01*
X206988Y126681D01*
D02*
G37*
G36*
X203445D02*
X202854D01*
X202309Y126455D01*
X201891Y126038D01*
X201665Y125492D01*
Y124902D01*
X201891Y124356D01*
X202309Y123939D01*
X202854Y123713D01*
X203445D01*
X203990Y123939D01*
X204408Y124356D01*
X204634Y124902D01*
Y125492D01*
X204408Y126038D01*
X203990Y126455D01*
X203445Y126681D01*
D02*
G37*
G36*
X84832Y126200D02*
X81482D01*
Y122851D01*
X81749D01*
X82652Y123093D01*
X83462Y123560D01*
X84123Y124221D01*
X84590Y125030D01*
X84832Y125933D01*
Y126200D01*
D02*
G37*
G36*
X81082D02*
X77733D01*
Y125933D01*
X77974Y125030D01*
X78442Y124221D01*
X79103Y123560D01*
X79912Y123093D01*
X80815Y122851D01*
X81082D01*
Y126200D01*
D02*
G37*
G36*
X71763Y130050D02*
X70802D01*
X69873Y129801D01*
X69041Y129321D01*
X68362Y128641D01*
X67881Y127809D01*
X67633Y126881D01*
Y125920D01*
X67881Y124992D01*
X68362Y124159D01*
X69041Y123480D01*
X69873Y123000D01*
X70802Y122751D01*
X71763D01*
X72691Y123000D01*
X73523Y123480D01*
X74203Y124159D01*
X74683Y124992D01*
X74932Y125920D01*
Y126881D01*
X74683Y127809D01*
X74203Y128641D01*
X73523Y129321D01*
X72691Y129801D01*
X71763Y130050D01*
D02*
G37*
G36*
X61763D02*
X60802D01*
X59873Y129801D01*
X59041Y129321D01*
X58362Y128641D01*
X57881Y127809D01*
X57633Y126881D01*
Y125920D01*
X57881Y124992D01*
X58362Y124159D01*
X59041Y123480D01*
X59873Y123000D01*
X60802Y122751D01*
X61763D01*
X62691Y123000D01*
X63523Y123480D01*
X64203Y124159D01*
X64683Y124992D01*
X64932Y125920D01*
Y126881D01*
X64683Y127809D01*
X64203Y128641D01*
X63523Y129321D01*
X62691Y129801D01*
X61763Y130050D01*
D02*
G37*
G36*
X51763D02*
X50802D01*
X49874Y129801D01*
X49041Y129321D01*
X48362Y128641D01*
X47881Y127809D01*
X47633Y126881D01*
Y125920D01*
X47881Y124992D01*
X48362Y124159D01*
X49041Y123480D01*
X49874Y123000D01*
X50802Y122751D01*
X51763D01*
X52691Y123000D01*
X53523Y123480D01*
X54203Y124159D01*
X54683Y124992D01*
X54932Y125920D01*
Y126881D01*
X54683Y127809D01*
X54203Y128641D01*
X53523Y129321D01*
X52691Y129801D01*
X51763Y130050D01*
D02*
G37*
G36*
X106201Y125157D02*
X105610D01*
X105065Y124931D01*
X104647Y124513D01*
X104421Y123968D01*
Y123377D01*
X104647Y122832D01*
X105065Y122414D01*
X105610Y122188D01*
X106201D01*
X106746Y122414D01*
X107164Y122832D01*
X107390Y123377D01*
Y123968D01*
X107164Y124513D01*
X106746Y124931D01*
X106201Y125157D01*
D02*
G37*
G36*
X100689Y124811D02*
X100099D01*
X99553Y124585D01*
X99135Y124168D01*
X98909Y123622D01*
Y123031D01*
X99135Y122486D01*
X99553Y122069D01*
X100099Y121843D01*
X100689D01*
X101234Y122069D01*
X101652Y122486D01*
X101878Y123031D01*
Y123622D01*
X101652Y124168D01*
X101234Y124585D01*
X100689Y124811D01*
D02*
G37*
G36*
X88681Y124182D02*
X88091D01*
X87545Y123956D01*
X87128Y123538D01*
X86902Y122993D01*
Y122403D01*
X87128Y121857D01*
X87545Y121440D01*
X88091Y121213D01*
X88681D01*
X89227Y121440D01*
X89644Y121857D01*
X89732Y122069D01*
X90165D01*
X90277Y121797D01*
X90695Y121379D01*
X91240Y121153D01*
X91831D01*
X92376Y121379D01*
X92794Y121797D01*
X93020Y122343D01*
Y122933D01*
X92794Y123479D01*
X92376Y123896D01*
X91831Y124122D01*
X91240D01*
X90695Y123896D01*
X90277Y123479D01*
X90189Y123267D01*
X89757D01*
X89644Y123538D01*
X89227Y123956D01*
X88681Y124182D01*
D02*
G37*
G36*
X210531Y123138D02*
X209941D01*
X209396Y122912D01*
X208978Y122494D01*
X208752Y121949D01*
Y121358D01*
X208978Y120813D01*
X209396Y120395D01*
X209941Y120169D01*
X210531D01*
X211077Y120395D01*
X211494Y120813D01*
X211720Y121358D01*
Y121949D01*
X211494Y122494D01*
X211077Y122912D01*
X210531Y123138D01*
D02*
G37*
G36*
X206988D02*
X206398D01*
X205852Y122912D01*
X205435Y122494D01*
X205209Y121949D01*
Y121358D01*
X205435Y120813D01*
X205852Y120395D01*
X206398Y120169D01*
X206988D01*
X207534Y120395D01*
X207951Y120813D01*
X208177Y121358D01*
Y121949D01*
X207951Y122494D01*
X207534Y122912D01*
X206988Y123138D01*
D02*
G37*
G36*
X203445D02*
X202854D01*
X202309Y122912D01*
X201891Y122494D01*
X201665Y121949D01*
Y121358D01*
X201891Y120813D01*
X202309Y120395D01*
X202854Y120169D01*
X203445D01*
X203990Y120395D01*
X204408Y120813D01*
X204634Y121358D01*
Y121949D01*
X204408Y122494D01*
X203990Y122912D01*
X203445Y123138D01*
D02*
G37*
G36*
X114469D02*
X113878D01*
X113332Y122912D01*
X112915Y122494D01*
X112689Y121949D01*
Y121358D01*
X112915Y120813D01*
X113332Y120395D01*
X113878Y120169D01*
X114469D01*
X115014Y120395D01*
X115431Y120813D01*
X115657Y121358D01*
Y121949D01*
X115431Y122494D01*
X115014Y122912D01*
X114469Y123138D01*
D02*
G37*
G36*
X214075Y123041D02*
X213484D01*
X212939Y122815D01*
X212521Y122397D01*
X212295Y121852D01*
Y121261D01*
X212521Y120716D01*
X212939Y120298D01*
X213484Y120072D01*
X214075D01*
X214620Y120298D01*
X215038Y120716D01*
X215264Y121261D01*
Y121852D01*
X215038Y122397D01*
X214620Y122815D01*
X214075Y123041D01*
D02*
G37*
G36*
X212875Y119641D02*
X212284D01*
X211739Y119415D01*
X211385Y119061D01*
X211077Y119369D01*
X210531Y119595D01*
X209941D01*
X209396Y119369D01*
X208978Y118951D01*
X208752Y118405D01*
Y117815D01*
X208978Y117270D01*
X209396Y116852D01*
X209941Y116626D01*
X210531D01*
X211077Y116852D01*
X211431Y117206D01*
X211739Y116898D01*
X212284Y116672D01*
X212875D01*
X213420Y116898D01*
X213838Y117316D01*
X214064Y117861D01*
Y118452D01*
X213838Y118997D01*
X213420Y119415D01*
X212875Y119641D01*
D02*
G37*
G36*
X183760Y121169D02*
X183169D01*
X182624Y120943D01*
X182206Y120526D01*
X181980Y119980D01*
Y119390D01*
X182206Y118844D01*
X182624Y118427D01*
X183169Y118201D01*
X183760D01*
X184305Y118427D01*
X184723Y118844D01*
X184949Y119390D01*
Y119980D01*
X184723Y120526D01*
X184305Y120943D01*
X183760Y121169D01*
D02*
G37*
G36*
X180217D02*
X179626D01*
X179080Y120943D01*
X178663Y120526D01*
X178437Y119980D01*
Y119390D01*
X178663Y118844D01*
X179080Y118427D01*
X179626Y118201D01*
X180217D01*
X180762Y118427D01*
X181179Y118844D01*
X181405Y119390D01*
Y119980D01*
X181179Y120526D01*
X180762Y120943D01*
X180217Y121169D01*
D02*
G37*
G36*
X280267Y129043D02*
X278788D01*
X277359Y128660D01*
X276078Y127921D01*
X275032Y126875D01*
X274292Y125594D01*
X273909Y124165D01*
Y122686D01*
X274292Y121257D01*
X275032Y119976D01*
X276078Y118930D01*
X277359Y118190D01*
X278788Y117807D01*
X280267D01*
X281696Y118190D01*
X282977Y118930D01*
X284023Y119976D01*
X284763Y121257D01*
X285146Y122686D01*
Y124165D01*
X284763Y125594D01*
X284023Y126875D01*
X282977Y127921D01*
X281696Y128660D01*
X280267Y129043D01*
D02*
G37*
G36*
X123917Y120244D02*
X123327D01*
X122781Y120018D01*
X122364Y119600D01*
X122138Y119055D01*
Y118465D01*
X122364Y117919D01*
X122781Y117501D01*
X123327Y117276D01*
X123917D01*
X124463Y117501D01*
X124880Y117919D01*
X125106Y118465D01*
Y119055D01*
X124880Y119600D01*
X124463Y120018D01*
X123917Y120244D01*
D02*
G37*
G36*
X206988Y119595D02*
X206398D01*
X205852Y119369D01*
X205435Y118951D01*
X205209Y118405D01*
Y117815D01*
X205435Y117270D01*
X205852Y116852D01*
X206398Y116626D01*
X206988D01*
X207534Y116852D01*
X207951Y117270D01*
X208177Y117815D01*
Y118405D01*
X207951Y118951D01*
X207534Y119369D01*
X206988Y119595D01*
D02*
G37*
G36*
X203445D02*
X202854D01*
X202309Y119369D01*
X201891Y118951D01*
X201665Y118405D01*
Y117815D01*
X201891Y117270D01*
X202309Y116852D01*
X202854Y116626D01*
X203445D01*
X203990Y116852D01*
X204408Y117270D01*
X204634Y117815D01*
Y118405D01*
X204408Y118951D01*
X203990Y119369D01*
X203445Y119595D01*
D02*
G37*
G36*
X242913Y121563D02*
X242323D01*
X241777Y121337D01*
X241360Y120920D01*
X241134Y120374D01*
Y119783D01*
X241360Y119238D01*
X241602Y118996D01*
X241360Y118754D01*
X241134Y118209D01*
Y117618D01*
X241360Y117073D01*
X241777Y116655D01*
X242323Y116429D01*
X242913D01*
X243459Y116655D01*
X243876Y117073D01*
X244102Y117618D01*
Y118209D01*
X243876Y118754D01*
X243635Y118996D01*
X243876Y119238D01*
X244102Y119783D01*
Y120374D01*
X243876Y120920D01*
X243459Y121337D01*
X242913Y121563D01*
D02*
G37*
G36*
X183760Y117626D02*
X183169D01*
X182624Y117400D01*
X182206Y116982D01*
X181980Y116437D01*
Y115847D01*
X182206Y115301D01*
X182624Y114883D01*
X183169Y114657D01*
X183760D01*
X184305Y114883D01*
X184723Y115301D01*
X184949Y115847D01*
Y116437D01*
X184723Y116982D01*
X184305Y117400D01*
X183760Y117626D01*
D02*
G37*
G36*
X180217D02*
X179626D01*
X179080Y117400D01*
X178663Y116982D01*
X178437Y116437D01*
Y115847D01*
X178663Y115301D01*
X179080Y114883D01*
X179626Y114657D01*
X180217D01*
X180762Y114883D01*
X181179Y115301D01*
X181405Y115847D01*
Y116437D01*
X181179Y116982D01*
X180762Y117400D01*
X180217Y117626D01*
D02*
G37*
G36*
X121756Y116547D02*
X121166D01*
X120620Y116321D01*
X120202Y115904D01*
X119976Y115358D01*
Y114768D01*
X120202Y114222D01*
X120620Y113805D01*
X121166Y113579D01*
X121756D01*
X122301Y113805D01*
X122719Y114222D01*
X122945Y114768D01*
Y115358D01*
X122719Y115904D01*
X122301Y116321D01*
X121756Y116547D01*
D02*
G37*
G36*
X206988Y116051D02*
X206398D01*
X205852Y115825D01*
X205435Y115408D01*
X205209Y114862D01*
Y114272D01*
X205435Y113726D01*
X205852Y113309D01*
X206398Y113083D01*
X206988D01*
X207534Y113309D01*
X207951Y113726D01*
X208177Y114272D01*
Y114862D01*
X207951Y115408D01*
X207534Y115825D01*
X206988Y116051D01*
D02*
G37*
G36*
X203445D02*
X202854D01*
X202309Y115825D01*
X201891Y115408D01*
X201665Y114862D01*
Y114272D01*
X201891Y113726D01*
X202309Y113309D01*
X202854Y113083D01*
X203445D01*
X203990Y113309D01*
X204408Y113726D01*
X204634Y114272D01*
Y114862D01*
X204408Y115408D01*
X203990Y115825D01*
X203445Y116051D01*
D02*
G37*
G36*
X210531D02*
X209941D01*
X209396Y115825D01*
X208978Y115408D01*
X208752Y114862D01*
Y114272D01*
X208978Y113726D01*
X209396Y113309D01*
X209941Y113083D01*
X210531D01*
X211077Y113309D01*
X211353Y113584D01*
X211639Y113298D01*
X212184Y113072D01*
X212775D01*
X213320Y113298D01*
X213738Y113716D01*
X213964Y114261D01*
Y114852D01*
X213738Y115397D01*
X213320Y115815D01*
X212775Y116041D01*
X212184D01*
X211639Y115815D01*
X211363Y115539D01*
X211077Y115825D01*
X210531Y116051D01*
D02*
G37*
G36*
X81763Y120050D02*
X80802D01*
X79874Y119801D01*
X79041Y119321D01*
X78362Y118641D01*
X77881Y117809D01*
X77633Y116881D01*
Y115920D01*
X77881Y114992D01*
X78362Y114159D01*
X79041Y113480D01*
X79874Y112999D01*
X80802Y112751D01*
X81763D01*
X82691Y112999D01*
X83523Y113480D01*
X84203Y114159D01*
X84683Y114992D01*
X84932Y115920D01*
Y116881D01*
X84683Y117809D01*
X84203Y118641D01*
X83523Y119321D01*
X82691Y119801D01*
X81763Y120050D01*
D02*
G37*
G36*
X71763D02*
X70802D01*
X69873Y119801D01*
X69041Y119321D01*
X68362Y118641D01*
X67881Y117809D01*
X67633Y116881D01*
Y115920D01*
X67881Y114992D01*
X68362Y114159D01*
X69041Y113480D01*
X69873Y112999D01*
X70802Y112751D01*
X71763D01*
X72691Y112999D01*
X73523Y113480D01*
X74203Y114159D01*
X74683Y114992D01*
X74932Y115920D01*
Y116881D01*
X74683Y117809D01*
X74203Y118641D01*
X73523Y119321D01*
X72691Y119801D01*
X71763Y120050D01*
D02*
G37*
G36*
X61763D02*
X60802D01*
X59873Y119801D01*
X59041Y119321D01*
X58362Y118641D01*
X57881Y117809D01*
X57633Y116881D01*
Y115920D01*
X57881Y114992D01*
X58362Y114159D01*
X59041Y113480D01*
X59873Y112999D01*
X60802Y112751D01*
X61763D01*
X62691Y112999D01*
X63523Y113480D01*
X64203Y114159D01*
X64683Y114992D01*
X64932Y115920D01*
Y116881D01*
X64683Y117809D01*
X64203Y118641D01*
X63523Y119321D01*
X62691Y119801D01*
X61763Y120050D01*
D02*
G37*
G36*
X54932D02*
X47633D01*
Y112751D01*
X54932D01*
Y120050D01*
D02*
G37*
G36*
X212775Y112541D02*
X212184D01*
X211639Y112315D01*
X211341Y112018D01*
X211077Y112282D01*
X210531Y112508D01*
X209941D01*
X209396Y112282D01*
X208978Y111864D01*
X208752Y111319D01*
Y110841D01*
X208184D01*
X208177Y110845D01*
Y111319D01*
X207951Y111864D01*
X207534Y112282D01*
X206988Y112508D01*
X206398D01*
X205852Y112282D01*
X205435Y111864D01*
X205209Y111319D01*
Y110963D01*
X205175Y110941D01*
X204634D01*
Y111319D01*
X204408Y111864D01*
X203990Y112282D01*
X203445Y112508D01*
X202854D01*
X202309Y112282D01*
X201891Y111864D01*
X201665Y111319D01*
Y110728D01*
X201891Y110183D01*
X202309Y109765D01*
X202854Y109539D01*
X203395D01*
Y109161D01*
X203621Y108616D01*
X204039Y108198D01*
X204584Y107972D01*
X205175D01*
X205720Y108198D01*
X206138Y108616D01*
X206364Y109161D01*
Y109517D01*
X206398Y109539D01*
X206988D01*
X206995Y109535D01*
Y109061D01*
X207221Y108516D01*
X207639Y108098D01*
X208184Y107872D01*
X208775D01*
X209320Y108098D01*
X209738Y108516D01*
X209964Y109061D01*
Y109539D01*
X210531D01*
X211077Y109765D01*
X211374Y110063D01*
X211639Y109798D01*
X212184Y109572D01*
X212775D01*
X213320Y109798D01*
X213738Y110216D01*
X213964Y110761D01*
Y111352D01*
X213738Y111897D01*
X213320Y112315D01*
X212775Y112541D01*
D02*
G37*
G36*
X200295Y114476D02*
X199705D01*
X199159Y114250D01*
X198742Y113833D01*
X198516Y113287D01*
Y112697D01*
X198742Y112151D01*
X199159Y111734D01*
X199705Y111508D01*
X200295D01*
X200841Y111734D01*
X201258Y112151D01*
X201484Y112697D01*
Y113287D01*
X201258Y113833D01*
X200841Y114250D01*
X200295Y114476D01*
D02*
G37*
G36*
X123917Y112705D02*
X123327D01*
X122781Y112479D01*
X122364Y112061D01*
X122138Y111516D01*
Y110925D01*
X122364Y110380D01*
X122781Y109962D01*
X123327Y109736D01*
X123917D01*
X124463Y109962D01*
X124880Y110380D01*
X125106Y110925D01*
Y111516D01*
X124880Y112061D01*
X124463Y112479D01*
X123917Y112705D01*
D02*
G37*
G36*
X137303Y103059D02*
X136713D01*
X136167Y102833D01*
X135750Y102416D01*
X135524Y101870D01*
Y101280D01*
X135750Y100734D01*
X136167Y100317D01*
X136713Y100091D01*
X137303D01*
X137849Y100317D01*
X138266Y100734D01*
X138492Y101280D01*
Y101870D01*
X138266Y102416D01*
X137849Y102833D01*
X137303Y103059D01*
D02*
G37*
G36*
X202067Y106405D02*
X201476D01*
X200931Y106179D01*
X200513Y105762D01*
X200287Y105217D01*
Y104626D01*
X200513Y104080D01*
X200864Y103730D01*
X200903Y103494D01*
X200864Y103258D01*
X200513Y102908D01*
X200287Y102362D01*
Y101772D01*
X200513Y101226D01*
X200864Y100876D01*
X200903Y100640D01*
X200864Y100404D01*
X200513Y100053D01*
X200287Y99508D01*
Y98917D01*
X200513Y98372D01*
X200931Y97954D01*
X201476Y97728D01*
X202067D01*
X202612Y97954D01*
X203030Y98372D01*
X203256Y98917D01*
Y99508D01*
X203030Y100053D01*
X202680Y100404D01*
X202641Y100640D01*
X202680Y100876D01*
X203030Y101226D01*
X203256Y101772D01*
Y102362D01*
X203030Y102908D01*
X202680Y103258D01*
X202641Y103494D01*
X202680Y103730D01*
X203030Y104080D01*
X203256Y104626D01*
Y105217D01*
X203030Y105762D01*
X202612Y106179D01*
X202067Y106405D01*
D02*
G37*
G36*
X243209Y102665D02*
X242618D01*
X242073Y102439D01*
X241655Y102022D01*
X241429Y101476D01*
Y100886D01*
X241655Y100340D01*
X241897Y100098D01*
X241655Y99857D01*
X241429Y99311D01*
Y98721D01*
X241655Y98175D01*
X242073Y97758D01*
X242618Y97531D01*
X243209D01*
X243754Y97758D01*
X244172Y98175D01*
X244398Y98721D01*
Y99311D01*
X244172Y99857D01*
X243930Y100098D01*
X244172Y100340D01*
X244398Y100886D01*
Y101476D01*
X244172Y102022D01*
X243754Y102439D01*
X243209Y102665D01*
D02*
G37*
G36*
X81662Y104201D02*
X80701D01*
X79772Y103952D01*
X78940Y103472D01*
X78261Y102792D01*
X77780Y101960D01*
X77531Y101032D01*
Y100071D01*
X77780Y99142D01*
X78261Y98310D01*
X78940Y97631D01*
X79772Y97150D01*
X80701Y96902D01*
X81662D01*
X82590Y97150D01*
X83422Y97631D01*
X84101Y98310D01*
X84582Y99142D01*
X84831Y100071D01*
Y101032D01*
X84582Y101960D01*
X84101Y102792D01*
X83422Y103472D01*
X82590Y103952D01*
X81662Y104201D01*
D02*
G37*
G36*
X71662D02*
X70701D01*
X69772Y103952D01*
X68940Y103472D01*
X68261Y102792D01*
X67780Y101960D01*
X67532Y101032D01*
Y100071D01*
X67780Y99142D01*
X68261Y98310D01*
X68940Y97631D01*
X69772Y97150D01*
X70701Y96902D01*
X71662D01*
X72590Y97150D01*
X73422Y97631D01*
X74102Y98310D01*
X74582Y99142D01*
X74831Y100071D01*
Y101032D01*
X74582Y101960D01*
X74102Y102792D01*
X73422Y103472D01*
X72590Y103952D01*
X71662Y104201D01*
D02*
G37*
G36*
X61662D02*
X60701D01*
X59772Y103952D01*
X58940Y103472D01*
X58261Y102792D01*
X57780Y101960D01*
X57531Y101032D01*
Y100071D01*
X57780Y99142D01*
X58261Y98310D01*
X58940Y97631D01*
X59772Y97150D01*
X60701Y96902D01*
X61662D01*
X62590Y97150D01*
X63422Y97631D01*
X64101Y98310D01*
X64582Y99142D01*
X64831Y100071D01*
Y101032D01*
X64582Y101960D01*
X64101Y102792D01*
X63422Y103472D01*
X62590Y103952D01*
X61662Y104201D01*
D02*
G37*
G36*
X51662D02*
X50701D01*
X49772Y103952D01*
X48940Y103472D01*
X48261Y102792D01*
X47780Y101960D01*
X47532Y101032D01*
Y100071D01*
X47780Y99142D01*
X48261Y98310D01*
X48940Y97631D01*
X49772Y97150D01*
X50701Y96902D01*
X51662D01*
X52590Y97150D01*
X53422Y97631D01*
X54102Y98310D01*
X54582Y99142D01*
X54831Y100071D01*
Y101032D01*
X54582Y101960D01*
X54102Y102792D01*
X53422Y103472D01*
X52590Y103952D01*
X51662Y104201D01*
D02*
G37*
G36*
X102756Y97646D02*
X102165D01*
X101620Y97420D01*
X101202Y97002D01*
X100976Y96457D01*
Y95866D01*
X101202Y95321D01*
X101620Y94903D01*
X102165Y94677D01*
X102756D01*
X103301Y94903D01*
X103719Y95321D01*
X103945Y95866D01*
Y96457D01*
X103719Y97002D01*
X103301Y97420D01*
X102756Y97646D01*
D02*
G37*
G36*
X280267Y104043D02*
X278788D01*
X277359Y103660D01*
X276078Y102921D01*
X275032Y101875D01*
X274292Y100594D01*
X273909Y99165D01*
Y97686D01*
X274292Y96257D01*
X275032Y94976D01*
X276078Y93930D01*
X277359Y93190D01*
X278788Y92807D01*
X280267D01*
X281696Y93190D01*
X282977Y93930D01*
X284023Y94976D01*
X284763Y96257D01*
X285146Y97686D01*
Y99165D01*
X284763Y100594D01*
X284023Y101875D01*
X282977Y102921D01*
X281696Y103660D01*
X280267Y104043D01*
D02*
G37*
G36*
X81648Y94101D02*
X81381D01*
Y90751D01*
X84731D01*
Y91018D01*
X84489Y91921D01*
X84022Y92731D01*
X83361Y93392D01*
X82551Y93859D01*
X81648Y94101D01*
D02*
G37*
G36*
X80981D02*
X80714D01*
X79811Y93859D01*
X79002Y93392D01*
X78341Y92731D01*
X77873Y91921D01*
X77631Y91018D01*
Y90751D01*
X80981D01*
Y94101D01*
D02*
G37*
G36*
X71648D02*
X71381D01*
Y90751D01*
X74731D01*
Y91018D01*
X74489Y91921D01*
X74022Y92731D01*
X73361Y93392D01*
X72551Y93859D01*
X71648Y94101D01*
D02*
G37*
G36*
X70981D02*
X70714D01*
X69811Y93859D01*
X69002Y93392D01*
X68341Y92731D01*
X67873Y91921D01*
X67632Y91018D01*
Y90751D01*
X70981D01*
Y94101D01*
D02*
G37*
G36*
X131398Y90461D02*
X130807D01*
X130262Y90235D01*
X129844Y89817D01*
X129618Y89272D01*
Y88681D01*
X129844Y88136D01*
X130262Y87718D01*
X130807Y87492D01*
X131398D01*
X131943Y87718D01*
X132361Y88136D01*
X132587Y88681D01*
Y89272D01*
X132361Y89817D01*
X131943Y90235D01*
X131398Y90461D01*
D02*
G37*
G36*
X84731Y90351D02*
X81381D01*
Y87002D01*
X81648D01*
X82551Y87243D01*
X83361Y87711D01*
X84022Y88372D01*
X84489Y89181D01*
X84731Y90084D01*
Y90351D01*
D02*
G37*
G36*
X80981D02*
X77631D01*
Y90084D01*
X77873Y89181D01*
X78341Y88372D01*
X79002Y87711D01*
X79811Y87243D01*
X80714Y87002D01*
X80981D01*
Y90351D01*
D02*
G37*
G36*
X74731D02*
X71381D01*
Y87002D01*
X71648D01*
X72551Y87243D01*
X73361Y87711D01*
X74022Y88372D01*
X74489Y89181D01*
X74731Y90084D01*
Y90351D01*
D02*
G37*
G36*
X70981D02*
X67632D01*
Y90084D01*
X67873Y89181D01*
X68341Y88372D01*
X69002Y87711D01*
X69811Y87243D01*
X70714Y87002D01*
X70981D01*
Y90351D01*
D02*
G37*
G36*
X61662Y94201D02*
X60701D01*
X59772Y93952D01*
X58940Y93472D01*
X58261Y92792D01*
X57780Y91960D01*
X57531Y91032D01*
Y90071D01*
X57780Y89143D01*
X58261Y88310D01*
X58940Y87631D01*
X59772Y87150D01*
X60701Y86902D01*
X61662D01*
X62590Y87150D01*
X63422Y87631D01*
X64101Y88310D01*
X64582Y89143D01*
X64831Y90071D01*
Y91032D01*
X64582Y91960D01*
X64101Y92792D01*
X63422Y93472D01*
X62590Y93952D01*
X61662Y94201D01*
D02*
G37*
G36*
X54831D02*
X47532D01*
Y86902D01*
X54831D01*
Y94201D01*
D02*
G37*
G36*
X20654Y110736D02*
X18716D01*
X16802Y110433D01*
X14959Y109834D01*
X13233Y108955D01*
X11665Y107816D01*
X10295Y106445D01*
X9156Y104878D01*
X8276Y103151D01*
X7677Y101308D01*
X7374Y99394D01*
Y97456D01*
X7677Y95542D01*
X8276Y93699D01*
X9156Y91973D01*
X10295Y90405D01*
X11665Y89035D01*
X13233Y87896D01*
X14959Y87016D01*
X16802Y86417D01*
X18716Y86114D01*
X20654D01*
X22568Y86417D01*
X24411Y87016D01*
X26137Y87896D01*
X27705Y89035D01*
X29075Y90405D01*
X30214Y91973D01*
X31094Y93699D01*
X31693Y95542D01*
X31996Y97456D01*
Y99394D01*
X31693Y101308D01*
X31094Y103151D01*
X30214Y104878D01*
X29075Y106445D01*
X27705Y107816D01*
X26137Y108955D01*
X24411Y109834D01*
X22568Y110433D01*
X20654Y110736D01*
D02*
G37*
G36*
X145243Y86310D02*
X144653D01*
X144107Y86084D01*
X143757Y85734D01*
X143521Y85695D01*
X143284Y85734D01*
X142934Y86084D01*
X142389Y86310D01*
X141798D01*
X141253Y86084D01*
X140835Y85667D01*
X140609Y85121D01*
Y84531D01*
X140835Y83985D01*
X141253Y83568D01*
X141798Y83342D01*
X142389D01*
X142934Y83568D01*
X143284Y83918D01*
X143521Y83957D01*
X143757Y83918D01*
X144107Y83568D01*
X144653Y83342D01*
X145243D01*
X145789Y83568D01*
X146206Y83985D01*
X146432Y84531D01*
Y85121D01*
X146206Y85667D01*
X145789Y86084D01*
X145243Y86310D01*
D02*
G37*
G36*
X97146Y84260D02*
X96555D01*
X96010Y84034D01*
X95592Y83616D01*
X95366Y83071D01*
Y82480D01*
X95592Y81935D01*
X96010Y81517D01*
X96555Y81291D01*
X97146D01*
X97691Y81517D01*
X98109Y81935D01*
X98335Y82480D01*
Y83071D01*
X98109Y83616D01*
X97691Y84034D01*
X97146Y84260D01*
D02*
G37*
G36*
X211713Y80421D02*
X211122D01*
X210577Y80195D01*
X210159Y79778D01*
X209933Y79232D01*
Y78642D01*
X210159Y78096D01*
X210450Y77805D01*
X210159Y77514D01*
X209933Y76968D01*
Y76378D01*
X210159Y75832D01*
X210577Y75415D01*
X211122Y75189D01*
X211713D01*
X212258Y75415D01*
X212676Y75832D01*
X212902Y76378D01*
Y76968D01*
X212676Y77514D01*
X212385Y77805D01*
X212676Y78096D01*
X212902Y78642D01*
Y79232D01*
X212676Y79778D01*
X212258Y80195D01*
X211713Y80421D01*
D02*
G37*
G36*
X112401Y77567D02*
X111811D01*
X111266Y77341D01*
X110848Y76923D01*
X110622Y76378D01*
Y75787D01*
X110848Y75242D01*
X111266Y74824D01*
X111811Y74598D01*
X112401D01*
X112947Y74824D01*
X113365Y75242D01*
X113591Y75787D01*
Y76378D01*
X113365Y76923D01*
X112947Y77341D01*
X112401Y77567D01*
D02*
G37*
G36*
X108858D02*
X108268D01*
X107722Y77341D01*
X107305Y76923D01*
X107079Y76378D01*
Y75787D01*
X107305Y75242D01*
X107722Y74824D01*
X108268Y74598D01*
X108858D01*
X109404Y74824D01*
X109821Y75242D01*
X110047Y75787D01*
Y76378D01*
X109821Y76923D01*
X109404Y77341D01*
X108858Y77567D01*
D02*
G37*
G36*
X158563Y76287D02*
X157973D01*
X157427Y76061D01*
X157009Y75644D01*
X156783Y75098D01*
Y74508D01*
X157009Y73962D01*
X157427Y73545D01*
X157973Y73319D01*
X158563D01*
X159108Y73545D01*
X159526Y73962D01*
X159752Y74508D01*
Y75098D01*
X159526Y75644D01*
X159108Y76061D01*
X158563Y76287D01*
D02*
G37*
G36*
X155020D02*
X154429D01*
X153884Y76061D01*
X153466Y75644D01*
X153240Y75098D01*
Y74508D01*
X153466Y73962D01*
X153884Y73545D01*
X154429Y73319D01*
X155020D01*
X155565Y73545D01*
X155983Y73962D01*
X156209Y74508D01*
Y75098D01*
X155983Y75644D01*
X155565Y76061D01*
X155020Y76287D01*
D02*
G37*
G36*
X184547Y75106D02*
X183957D01*
X183411Y74880D01*
X182994Y74463D01*
X182768Y73917D01*
Y73327D01*
X182994Y72781D01*
X183411Y72364D01*
X183957Y72138D01*
X184547D01*
X185093Y72364D01*
X185510Y72781D01*
X185736Y73327D01*
Y73917D01*
X185510Y74463D01*
X185093Y74880D01*
X184547Y75106D01*
D02*
G37*
G36*
X181004D02*
X180413D01*
X179868Y74880D01*
X179450Y74463D01*
X179224Y73917D01*
Y73327D01*
X179450Y72781D01*
X179868Y72364D01*
X180413Y72138D01*
X181004D01*
X181549Y72364D01*
X181967Y72781D01*
X182193Y73327D01*
Y73917D01*
X181967Y74463D01*
X181549Y74880D01*
X181004Y75106D01*
D02*
G37*
G36*
X112401Y74024D02*
X111811D01*
X111266Y73798D01*
X110848Y73380D01*
X110622Y72835D01*
Y72244D01*
X110848Y71699D01*
X111266Y71281D01*
X111811Y71055D01*
X112401D01*
X112947Y71281D01*
X113365Y71699D01*
X113591Y72244D01*
Y72835D01*
X113365Y73380D01*
X112947Y73798D01*
X112401Y74024D01*
D02*
G37*
G36*
X108858D02*
X108268D01*
X107722Y73798D01*
X107305Y73380D01*
X107079Y72835D01*
Y72244D01*
X107305Y71699D01*
X107722Y71281D01*
X108268Y71055D01*
X108858D01*
X109404Y71281D01*
X109821Y71699D01*
X110047Y72244D01*
Y72835D01*
X109821Y73380D01*
X109404Y73798D01*
X108858Y74024D01*
D02*
G37*
G36*
X158563Y72744D02*
X157973D01*
X157427Y72518D01*
X157009Y72101D01*
X156783Y71555D01*
Y70965D01*
X157009Y70419D01*
X157427Y70002D01*
X157973Y69776D01*
X158563D01*
X159108Y70002D01*
X159526Y70419D01*
X159752Y70965D01*
Y71555D01*
X159526Y72101D01*
X159108Y72518D01*
X158563Y72744D01*
D02*
G37*
G36*
X155020D02*
X154429D01*
X153884Y72518D01*
X153466Y72101D01*
X153240Y71555D01*
Y70965D01*
X153466Y70419D01*
X153884Y70002D01*
X154429Y69776D01*
X155020D01*
X155565Y70002D01*
X155983Y70419D01*
X156209Y70965D01*
Y71555D01*
X155983Y72101D01*
X155565Y72518D01*
X155020Y72744D01*
D02*
G37*
G36*
X184547Y71563D02*
X183957D01*
X183411Y71337D01*
X182994Y70920D01*
X182768Y70374D01*
Y69784D01*
X182994Y69238D01*
X183411Y68821D01*
X183957Y68594D01*
X184547D01*
X185093Y68821D01*
X185510Y69238D01*
X185736Y69784D01*
Y70374D01*
X185510Y70920D01*
X185093Y71337D01*
X184547Y71563D01*
D02*
G37*
G36*
X181004D02*
X180413D01*
X179868Y71337D01*
X179450Y70920D01*
X179224Y70374D01*
Y69784D01*
X179450Y69238D01*
X179868Y68821D01*
X180413Y68594D01*
X181004D01*
X181549Y68821D01*
X181967Y69238D01*
X182193Y69784D01*
Y70374D01*
X181967Y70920D01*
X181549Y71337D01*
X181004Y71563D01*
D02*
G37*
G36*
X45768Y75342D02*
X36909D01*
X36138Y75188D01*
X35485Y74752D01*
X35048Y74098D01*
X34894Y73327D01*
Y70374D01*
X35048Y69603D01*
X35485Y68949D01*
X36138Y68512D01*
X36909Y68359D01*
X45768D01*
X46539Y68512D01*
X47193Y68949D01*
X47629Y69603D01*
X47783Y70374D01*
Y73327D01*
X47629Y74098D01*
X47193Y74752D01*
X46539Y75188D01*
X45768Y75342D01*
D02*
G37*
G36*
X285146Y79043D02*
X273909D01*
Y67807D01*
X285146D01*
Y79043D01*
D02*
G37*
G36*
X137303Y68413D02*
X136713D01*
X136167Y68187D01*
X135750Y67770D01*
X135524Y67224D01*
Y66634D01*
X135750Y66088D01*
X136167Y65671D01*
X136713Y65445D01*
X137303D01*
X137849Y65671D01*
X138266Y66088D01*
X138492Y66634D01*
Y67224D01*
X138266Y67770D01*
X137849Y68187D01*
X137303Y68413D01*
D02*
G37*
G36*
X133760D02*
X133169D01*
X132624Y68187D01*
X132206Y67770D01*
X131980Y67224D01*
Y66634D01*
X132206Y66088D01*
X132624Y65671D01*
X133169Y65445D01*
X133760D01*
X134305Y65671D01*
X134723Y66088D01*
X134949Y66634D01*
Y67224D01*
X134723Y67770D01*
X134305Y68187D01*
X133760Y68413D01*
D02*
G37*
G36*
X130217D02*
X129626D01*
X129080Y68187D01*
X128663Y67770D01*
X128437Y67224D01*
Y66634D01*
X128663Y66088D01*
X129080Y65671D01*
X129626Y65445D01*
X130217D01*
X130762Y65671D01*
X131179Y66088D01*
X131405Y66634D01*
Y67224D01*
X131179Y67770D01*
X130762Y68187D01*
X130217Y68413D01*
D02*
G37*
G36*
X126673D02*
X126083D01*
X125537Y68187D01*
X125120Y67770D01*
X124894Y67224D01*
Y66634D01*
X125120Y66088D01*
X125537Y65671D01*
X126083Y65445D01*
X126673D01*
X127219Y65671D01*
X127636Y66088D01*
X127862Y66634D01*
Y67224D01*
X127636Y67770D01*
X127219Y68187D01*
X126673Y68413D01*
D02*
G37*
G36*
X100000Y67232D02*
X99410D01*
X98864Y67006D01*
X98446Y66589D01*
X98220Y66043D01*
Y65453D01*
X98446Y64907D01*
X98864Y64490D01*
X99410Y64264D01*
X100000D01*
X100546Y64490D01*
X100963Y64907D01*
X101189Y65453D01*
Y66043D01*
X100963Y66589D01*
X100546Y67006D01*
X100000Y67232D01*
D02*
G37*
G36*
X96457D02*
X95866D01*
X95321Y67006D01*
X94903Y66589D01*
X94677Y66043D01*
Y65453D01*
X94903Y64907D01*
X95321Y64490D01*
X95866Y64264D01*
X96457D01*
X97002Y64490D01*
X97420Y64907D01*
X97646Y65453D01*
Y66043D01*
X97420Y66589D01*
X97002Y67006D01*
X96457Y67232D01*
D02*
G37*
G36*
X204626Y69102D02*
X204035D01*
X203490Y68876D01*
X203072Y68459D01*
X202847Y67913D01*
Y67323D01*
X203072Y66777D01*
X203250Y66600D01*
X203472Y66339D01*
X203250Y66077D01*
X203072Y65900D01*
X202847Y65354D01*
Y64764D01*
X203072Y64218D01*
X203490Y63801D01*
X204035Y63575D01*
X204626D01*
X205171Y63801D01*
X205589Y64218D01*
X205815Y64764D01*
Y65354D01*
X205589Y65900D01*
X205412Y66077D01*
X205189Y66339D01*
X205412Y66600D01*
X205589Y66777D01*
X205815Y67323D01*
Y67913D01*
X205589Y68459D01*
X205171Y68876D01*
X204626Y69102D01*
D02*
G37*
G36*
X234449Y65658D02*
X233858D01*
X233313Y65431D01*
X232895Y65014D01*
X232669Y64468D01*
Y63878D01*
X232895Y63332D01*
X233313Y62915D01*
X233858Y62689D01*
X234449D01*
X234994Y62915D01*
X235412Y63332D01*
X235638Y63878D01*
Y64468D01*
X235412Y65014D01*
X234994Y65431D01*
X234449Y65658D01*
D02*
G37*
G36*
X140846Y64870D02*
X140256D01*
X139710Y64644D01*
X139293Y64227D01*
X139067Y63681D01*
Y63091D01*
X139293Y62545D01*
X139710Y62128D01*
X140256Y61902D01*
X140846D01*
X141392Y62128D01*
X141809Y62545D01*
X142035Y63091D01*
Y63681D01*
X141809Y64227D01*
X141392Y64644D01*
X140846Y64870D01*
D02*
G37*
G36*
X137303D02*
X136713D01*
X136167Y64644D01*
X135750Y64227D01*
X135524Y63681D01*
Y63091D01*
X135750Y62545D01*
X136167Y62128D01*
X136713Y61902D01*
X137303D01*
X137849Y62128D01*
X138266Y62545D01*
X138492Y63091D01*
Y63681D01*
X138266Y64227D01*
X137849Y64644D01*
X137303Y64870D01*
D02*
G37*
G36*
X133760D02*
X133169D01*
X132624Y64644D01*
X132206Y64227D01*
X131980Y63681D01*
Y63091D01*
X132206Y62545D01*
X132624Y62128D01*
X133169Y61902D01*
X133760D01*
X134305Y62128D01*
X134723Y62545D01*
X134949Y63091D01*
Y63681D01*
X134723Y64227D01*
X134305Y64644D01*
X133760Y64870D01*
D02*
G37*
G36*
X130217D02*
X129626D01*
X129080Y64644D01*
X128663Y64227D01*
X128437Y63681D01*
Y63091D01*
X128663Y62545D01*
X129080Y62128D01*
X129626Y61902D01*
X130217D01*
X130762Y62128D01*
X131179Y62545D01*
X131405Y63091D01*
Y63681D01*
X131179Y64227D01*
X130762Y64644D01*
X130217Y64870D01*
D02*
G37*
G36*
X126673Y64870D02*
X126083D01*
X125537Y64644D01*
X125120Y64227D01*
X124894Y63681D01*
Y63091D01*
X125120Y62545D01*
X125537Y62128D01*
X126083Y61902D01*
X126673D01*
X127219Y62128D01*
X127636Y62545D01*
X127862Y63091D01*
Y63681D01*
X127636Y64227D01*
X127219Y64644D01*
X126673Y64870D01*
D02*
G37*
G36*
X100000Y63689D02*
X99410D01*
X98864Y63463D01*
X98446Y63046D01*
X98220Y62500D01*
Y61910D01*
X98446Y61364D01*
X98864Y60946D01*
X99410Y60720D01*
X100000D01*
X100546Y60946D01*
X100963Y61364D01*
X101189Y61910D01*
Y62500D01*
X100963Y63046D01*
X100546Y63463D01*
X100000Y63689D01*
D02*
G37*
G36*
X96457D02*
X95866D01*
X95321Y63463D01*
X94903Y63046D01*
X94677Y62500D01*
Y61910D01*
X94903Y61364D01*
X95321Y60946D01*
X95866Y60720D01*
X96457D01*
X97002Y60946D01*
X97420Y61364D01*
X97646Y61910D01*
Y62500D01*
X97420Y63046D01*
X97002Y63463D01*
X96457Y63689D01*
D02*
G37*
G36*
X144390Y61327D02*
X143799D01*
X143254Y61101D01*
X142836Y60683D01*
X142610Y60138D01*
Y59547D01*
X142836Y59002D01*
X143254Y58584D01*
X143799Y58358D01*
X144390D01*
X144935Y58584D01*
X145353Y59002D01*
X145579Y59547D01*
Y60138D01*
X145353Y60683D01*
X144935Y61101D01*
X144390Y61327D01*
D02*
G37*
G36*
X140846D02*
X140256D01*
X139710Y61101D01*
X139293Y60683D01*
X139067Y60138D01*
Y59547D01*
X139293Y59002D01*
X139710Y58584D01*
X140256Y58358D01*
X140846D01*
X141392Y58584D01*
X141809Y59002D01*
X142035Y59547D01*
Y60138D01*
X141809Y60683D01*
X141392Y61101D01*
X140846Y61327D01*
D02*
G37*
G36*
X137303D02*
X136713D01*
X136167Y61101D01*
X135750Y60683D01*
X135524Y60138D01*
Y59547D01*
X135750Y59002D01*
X136167Y58584D01*
X136713Y58358D01*
X137303D01*
X137849Y58584D01*
X138266Y59002D01*
X138492Y59547D01*
Y60138D01*
X138266Y60683D01*
X137849Y61101D01*
X137303Y61327D01*
D02*
G37*
G36*
X133760D02*
X133169D01*
X132624Y61101D01*
X132206Y60683D01*
X131980Y60138D01*
Y59547D01*
X132206Y59002D01*
X132624Y58584D01*
X133169Y58358D01*
X133760D01*
X134305Y58584D01*
X134723Y59002D01*
X134949Y59547D01*
Y60138D01*
X134723Y60683D01*
X134305Y61101D01*
X133760Y61327D01*
D02*
G37*
G36*
X130217D02*
X129626D01*
X129080Y61101D01*
X128663Y60683D01*
X128437Y60138D01*
Y59547D01*
X128663Y59002D01*
X129080Y58584D01*
X129626Y58358D01*
X130217D01*
X130762Y58584D01*
X131179Y59002D01*
X131405Y59547D01*
Y60138D01*
X131179Y60683D01*
X130762Y61101D01*
X130217Y61327D01*
D02*
G37*
G36*
X126673Y61327D02*
X126083D01*
X125537Y61101D01*
X125120Y60683D01*
X124894Y60138D01*
Y59547D01*
X125120Y59002D01*
X125537Y58584D01*
X126083Y58358D01*
X126673D01*
X127219Y58584D01*
X127636Y59002D01*
X127862Y59547D01*
Y60138D01*
X127636Y60683D01*
X127219Y61101D01*
X126673Y61327D01*
D02*
G37*
G36*
X229626Y61130D02*
X229035D01*
X228490Y60904D01*
X228072Y60486D01*
X227847Y59941D01*
Y59350D01*
X228072Y58805D01*
X228490Y58387D01*
X229035Y58161D01*
X229626D01*
X230171Y58387D01*
X230589Y58805D01*
X230815Y59350D01*
Y59941D01*
X230589Y60486D01*
X230171Y60904D01*
X229626Y61130D01*
D02*
G37*
G36*
X144390Y57784D02*
X143799D01*
X143254Y57557D01*
X142836Y57140D01*
X142610Y56594D01*
Y56004D01*
X142836Y55458D01*
X143254Y55041D01*
X143799Y54815D01*
X144390D01*
X144935Y55041D01*
X145353Y55458D01*
X145579Y56004D01*
Y56594D01*
X145353Y57140D01*
X144935Y57557D01*
X144390Y57784D01*
D02*
G37*
G36*
X140846D02*
X140256D01*
X139710Y57557D01*
X139293Y57140D01*
X139067Y56594D01*
Y56004D01*
X139293Y55458D01*
X139710Y55041D01*
X140256Y54815D01*
X140846D01*
X141392Y55041D01*
X141809Y55458D01*
X142035Y56004D01*
Y56594D01*
X141809Y57140D01*
X141392Y57557D01*
X140846Y57784D01*
D02*
G37*
G36*
X137303D02*
X136713D01*
X136167Y57557D01*
X135750Y57140D01*
X135524Y56594D01*
Y56004D01*
X135750Y55458D01*
X136167Y55041D01*
X136713Y54815D01*
X137303D01*
X137849Y55041D01*
X138266Y55458D01*
X138492Y56004D01*
Y56594D01*
X138266Y57140D01*
X137849Y57557D01*
X137303Y57784D01*
D02*
G37*
G36*
X133760D02*
X133169D01*
X132624Y57557D01*
X132206Y57140D01*
X131980Y56594D01*
Y56004D01*
X132206Y55458D01*
X132624Y55041D01*
X133169Y54815D01*
X133760D01*
X134305Y55041D01*
X134723Y55458D01*
X134949Y56004D01*
Y56594D01*
X134723Y57140D01*
X134305Y57557D01*
X133760Y57784D01*
D02*
G37*
G36*
X130217D02*
X129626D01*
X129080Y57557D01*
X128663Y57140D01*
X128437Y56594D01*
Y56004D01*
X128663Y55458D01*
X129080Y55041D01*
X129626Y54815D01*
X130217D01*
X130762Y55041D01*
X131179Y55458D01*
X131405Y56004D01*
Y56594D01*
X131179Y57140D01*
X130762Y57557D01*
X130217Y57784D01*
D02*
G37*
G36*
X211122Y63394D02*
X210531D01*
X209986Y63168D01*
X209569Y62750D01*
X209343Y62205D01*
Y61614D01*
X209569Y61069D01*
X209986Y60651D01*
X210030Y60633D01*
Y60233D01*
X209986Y60215D01*
X209569Y59798D01*
X209343Y59252D01*
Y58662D01*
X209569Y58116D01*
X209986Y57698D01*
X209965Y57274D01*
X209936Y57262D01*
X209519Y56845D01*
X209293Y56299D01*
Y55709D01*
X209519Y55163D01*
X209936Y54746D01*
X210482Y54520D01*
X211072D01*
X211618Y54746D01*
X212035Y55163D01*
X212261Y55709D01*
Y56299D01*
X212035Y56845D01*
X211618Y57262D01*
X211639Y57687D01*
X211667Y57698D01*
X212085Y58116D01*
X212311Y58662D01*
Y59252D01*
X212085Y59798D01*
X211667Y60215D01*
X211624Y60233D01*
Y60633D01*
X211667Y60651D01*
X212085Y61069D01*
X212311Y61614D01*
Y62205D01*
X212085Y62750D01*
X211667Y63168D01*
X211122Y63394D01*
D02*
G37*
G36*
X65727Y67232D02*
X64194D01*
X62690Y66933D01*
X61274Y66346D01*
X59999Y65495D01*
X58915Y64411D01*
X58063Y63136D01*
X57476Y61719D01*
X57177Y60215D01*
Y58682D01*
X57476Y57178D01*
X58063Y55762D01*
X58915Y54487D01*
X59999Y53403D01*
X61274Y52551D01*
X62690Y51964D01*
X64194Y51665D01*
X65727D01*
X67231Y51964D01*
X68647Y52551D01*
X69922Y53403D01*
X71006Y54487D01*
X71858Y55762D01*
X72445Y57178D01*
X72744Y58682D01*
Y60215D01*
X72445Y61719D01*
X71858Y63136D01*
X71006Y64411D01*
X69922Y65495D01*
X68647Y66346D01*
X67231Y66933D01*
X65727Y67232D01*
D02*
G37*
G36*
X144390Y54240D02*
X143799D01*
X143254Y54014D01*
X142836Y53597D01*
X142610Y53051D01*
Y52461D01*
X142836Y51915D01*
X143254Y51498D01*
X143799Y51272D01*
X144390D01*
X144935Y51498D01*
X145353Y51915D01*
X145579Y52461D01*
Y53051D01*
X145353Y53597D01*
X144935Y54014D01*
X144390Y54240D01*
D02*
G37*
G36*
X140846D02*
X140256D01*
X139710Y54014D01*
X139293Y53597D01*
X139067Y53051D01*
Y52461D01*
X139293Y51915D01*
X139710Y51498D01*
X140256Y51272D01*
X140846D01*
X141392Y51498D01*
X141809Y51915D01*
X142035Y52461D01*
Y53051D01*
X141809Y53597D01*
X141392Y54014D01*
X140846Y54240D01*
D02*
G37*
G36*
X82972Y53256D02*
X82382D01*
X81836Y53030D01*
X81419Y52612D01*
X81193Y52067D01*
Y51476D01*
X81419Y50931D01*
X81836Y50513D01*
X82382Y50287D01*
X82972D01*
X83518Y50513D01*
X83935Y50931D01*
X84161Y51476D01*
Y52067D01*
X83935Y52612D01*
X83518Y53030D01*
X82972Y53256D01*
D02*
G37*
G36*
X79429D02*
X78839D01*
X78293Y53030D01*
X77876Y52612D01*
X77650Y52067D01*
Y51476D01*
X77876Y50931D01*
X78293Y50513D01*
X78839Y50287D01*
X79429D01*
X79975Y50513D01*
X80392Y50931D01*
X80618Y51476D01*
Y52067D01*
X80392Y52612D01*
X79975Y53030D01*
X79429Y53256D01*
D02*
G37*
G36*
X111614Y53158D02*
X111024D01*
X110478Y52931D01*
X110061Y52514D01*
X109835Y51968D01*
Y51378D01*
X110061Y50832D01*
X110478Y50415D01*
X111024Y50189D01*
X111614D01*
X112160Y50415D01*
X112577Y50832D01*
X112803Y51378D01*
Y51968D01*
X112577Y52514D01*
X112160Y52931D01*
X111614Y53158D01*
D02*
G37*
G36*
X108071D02*
X107480D01*
X106935Y52931D01*
X106517Y52514D01*
X106291Y51968D01*
Y51378D01*
X106517Y50832D01*
X106935Y50415D01*
X107480Y50189D01*
X108071D01*
X108616Y50415D01*
X109034Y50832D01*
X109260Y51378D01*
Y51968D01*
X109034Y52514D01*
X108616Y52931D01*
X108071Y53158D01*
D02*
G37*
G36*
X144390Y50697D02*
X143799D01*
X143254Y50471D01*
X142836Y50053D01*
X142610Y49508D01*
Y48917D01*
X142836Y48372D01*
X143254Y47954D01*
X143799Y47728D01*
X144390D01*
X144935Y47954D01*
X145353Y48372D01*
X145579Y48917D01*
Y49508D01*
X145353Y50053D01*
X144935Y50471D01*
X144390Y50697D01*
D02*
G37*
G36*
X140846D02*
X140256D01*
X139710Y50471D01*
X139293Y50053D01*
X139067Y49508D01*
Y48917D01*
X139293Y48372D01*
X139710Y47954D01*
X140256Y47728D01*
X140846D01*
X141392Y47954D01*
X141809Y48372D01*
X142035Y48917D01*
Y49508D01*
X141809Y50053D01*
X141392Y50471D01*
X140846Y50697D01*
D02*
G37*
G36*
X199803Y47646D02*
X199213D01*
X198667Y47420D01*
X198387Y47139D01*
X198130Y47046D01*
X197873Y47139D01*
X197593Y47420D01*
X197047Y47646D01*
X196457D01*
X195911Y47420D01*
X195494Y47002D01*
X195268Y46457D01*
Y45866D01*
X195494Y45321D01*
X195911Y44903D01*
X196457Y44677D01*
X197047D01*
X197593Y44903D01*
X197873Y45184D01*
X198130Y45277D01*
X198387Y45184D01*
X198667Y44903D01*
X199213Y44677D01*
X199803D01*
X200349Y44903D01*
X200766Y45321D01*
X200992Y45866D01*
Y46457D01*
X200766Y47002D01*
X200349Y47420D01*
X199803Y47646D01*
D02*
G37*
G36*
X82972Y49713D02*
X82382D01*
X81836Y49487D01*
X81419Y49069D01*
X81193Y48524D01*
Y47933D01*
X81419Y47388D01*
X81836Y46970D01*
X82382Y46744D01*
X82972D01*
X83518Y46970D01*
X83935Y47388D01*
X84161Y47933D01*
Y48524D01*
X83935Y49069D01*
X83518Y49487D01*
X82972Y49713D01*
D02*
G37*
G36*
X79429D02*
X78839D01*
X78293Y49487D01*
X77876Y49069D01*
X77650Y48524D01*
Y47933D01*
X77876Y47388D01*
X78293Y46970D01*
X78839Y46744D01*
X79429D01*
X79975Y46970D01*
X80392Y47388D01*
X80618Y47933D01*
Y48524D01*
X80392Y49069D01*
X79975Y49487D01*
X79429Y49713D01*
D02*
G37*
G36*
X111614Y49614D02*
X111024D01*
X110478Y49388D01*
X110061Y48971D01*
X109835Y48425D01*
Y47835D01*
X110061Y47289D01*
X110478Y46872D01*
X111024Y46646D01*
X111614D01*
X112160Y46872D01*
X112577Y47289D01*
X112803Y47835D01*
Y48425D01*
X112577Y48971D01*
X112160Y49388D01*
X111614Y49614D01*
D02*
G37*
G36*
X108071D02*
X107480D01*
X106935Y49388D01*
X106517Y48971D01*
X106291Y48425D01*
Y47835D01*
X106517Y47289D01*
X106935Y46872D01*
X107480Y46646D01*
X108071D01*
X108616Y46872D01*
X109034Y47289D01*
X109260Y47835D01*
Y48425D01*
X109034Y48971D01*
X108616Y49388D01*
X108071Y49614D01*
D02*
G37*
G36*
X144390Y46760D02*
X143799D01*
X143254Y46534D01*
X142836Y46116D01*
X142610Y45571D01*
Y44980D01*
X142836Y44435D01*
X143254Y44017D01*
X143799Y43791D01*
X144390D01*
X144935Y44017D01*
X145353Y44435D01*
X145579Y44980D01*
Y45571D01*
X145353Y46116D01*
X144935Y46534D01*
X144390Y46760D01*
D02*
G37*
G36*
X140846D02*
X140256D01*
X139710Y46534D01*
X139293Y46116D01*
X139067Y45571D01*
Y44980D01*
X139293Y44435D01*
X139710Y44017D01*
X140256Y43791D01*
X140846D01*
X141392Y44017D01*
X141809Y44435D01*
X142035Y44980D01*
Y45571D01*
X141809Y46116D01*
X141392Y46534D01*
X140846Y46760D01*
D02*
G37*
G36*
X144390Y42823D02*
X143799D01*
X143254Y42597D01*
X142836Y42179D01*
X142610Y41634D01*
Y41043D01*
X142836Y40498D01*
X143254Y40080D01*
X143799Y39854D01*
X144390D01*
X144935Y40080D01*
X145353Y40498D01*
X145579Y41043D01*
Y41634D01*
X145353Y42179D01*
X144935Y42597D01*
X144390Y42823D01*
D02*
G37*
G36*
X140846D02*
X140256D01*
X139710Y42597D01*
X139293Y42179D01*
X139067Y41634D01*
Y41043D01*
X139293Y40498D01*
X139710Y40080D01*
X140256Y39854D01*
X140846D01*
X141392Y40080D01*
X141809Y40498D01*
X142035Y41043D01*
Y41634D01*
X141809Y42179D01*
X141392Y42597D01*
X140846Y42823D01*
D02*
G37*
G36*
X137303D02*
X136713D01*
X136167Y42597D01*
X135750Y42179D01*
X135524Y41634D01*
Y41043D01*
X135750Y40498D01*
X136167Y40080D01*
X136713Y39854D01*
X137303D01*
X137849Y40080D01*
X138266Y40498D01*
X138492Y41043D01*
Y41634D01*
X138266Y42179D01*
X137849Y42597D01*
X137303Y42823D01*
D02*
G37*
G36*
X133760D02*
X133169D01*
X132624Y42597D01*
X132206Y42179D01*
X131980Y41634D01*
Y41043D01*
X132206Y40498D01*
X132624Y40080D01*
X133169Y39854D01*
X133760D01*
X134305Y40080D01*
X134723Y40498D01*
X134949Y41043D01*
Y41634D01*
X134723Y42179D01*
X134305Y42597D01*
X133760Y42823D01*
D02*
G37*
G36*
X243996Y44594D02*
X243406D01*
X242860Y44368D01*
X242442Y43951D01*
X242216Y43406D01*
Y42815D01*
X242442Y42270D01*
X242684Y42028D01*
X242442Y41786D01*
X242216Y41240D01*
Y40650D01*
X242442Y40104D01*
X242860Y39687D01*
X243406Y39461D01*
X243996D01*
X244542Y39687D01*
X244959Y40104D01*
X245185Y40650D01*
Y41240D01*
X244959Y41786D01*
X244717Y42028D01*
X244959Y42270D01*
X245185Y42815D01*
Y43406D01*
X244959Y43951D01*
X244542Y44368D01*
X243996Y44594D01*
D02*
G37*
G36*
X98327Y39476D02*
X97736D01*
X97191Y39250D01*
X96773Y38833D01*
X96547Y38287D01*
Y37697D01*
X96773Y37151D01*
X97191Y36734D01*
X97736Y36508D01*
X98327D01*
X98872Y36734D01*
X99290Y37151D01*
X99516Y37697D01*
Y38287D01*
X99290Y38833D01*
X98872Y39250D01*
X98327Y39476D01*
D02*
G37*
G36*
X94783D02*
X94193D01*
X93647Y39250D01*
X93230Y38833D01*
X93004Y38287D01*
Y37697D01*
X93230Y37151D01*
X93647Y36734D01*
X94193Y36508D01*
X94783D01*
X95329Y36734D01*
X95746Y37151D01*
X95972Y37697D01*
Y38287D01*
X95746Y38833D01*
X95329Y39250D01*
X94783Y39476D01*
D02*
G37*
G36*
X147933Y39279D02*
X147343D01*
X146797Y39054D01*
X146379Y38636D01*
X146153Y38091D01*
Y37500D01*
X146379Y36955D01*
X146797Y36537D01*
X147343Y36311D01*
X147933D01*
X148479Y36537D01*
X148896Y36955D01*
X149122Y37500D01*
Y38091D01*
X148896Y38636D01*
X148479Y39054D01*
X147933Y39279D01*
D02*
G37*
G36*
X144390Y39279D02*
X143799D01*
X143254Y39054D01*
X142836Y38636D01*
X142610Y38091D01*
Y37500D01*
X142836Y36955D01*
X143254Y36537D01*
X143799Y36311D01*
X144390D01*
X144935Y36537D01*
X145353Y36955D01*
X145579Y37500D01*
Y38091D01*
X145353Y38636D01*
X144935Y39054D01*
X144390Y39279D01*
D02*
G37*
G36*
X140846D02*
X140256D01*
X139710Y39054D01*
X139293Y38636D01*
X139067Y38091D01*
Y37500D01*
X139293Y36955D01*
X139710Y36537D01*
X140256Y36311D01*
X140846D01*
X141392Y36537D01*
X141809Y36955D01*
X142035Y37500D01*
Y38091D01*
X141809Y38636D01*
X141392Y39054D01*
X140846Y39279D01*
D02*
G37*
G36*
X137303D02*
X136713D01*
X136167Y39054D01*
X135750Y38636D01*
X135524Y38091D01*
Y37500D01*
X135750Y36955D01*
X136167Y36537D01*
X136713Y36311D01*
X137303D01*
X137849Y36537D01*
X138266Y36955D01*
X138492Y37500D01*
Y38091D01*
X138266Y38636D01*
X137849Y39054D01*
X137303Y39279D01*
D02*
G37*
G36*
X133760D02*
X133169D01*
X132624Y39054D01*
X132206Y38636D01*
X131980Y38091D01*
Y37500D01*
X132206Y36955D01*
X132624Y36537D01*
X133169Y36311D01*
X133760D01*
X134305Y36537D01*
X134723Y36955D01*
X134949Y37500D01*
Y38091D01*
X134723Y38636D01*
X134305Y39054D01*
X133760Y39279D01*
D02*
G37*
G36*
X98327Y35933D02*
X97736D01*
X97191Y35707D01*
X96773Y35290D01*
X96547Y34744D01*
Y34154D01*
X96773Y33608D01*
X97191Y33191D01*
X97736Y32965D01*
X98327D01*
X98872Y33191D01*
X99290Y33608D01*
X99516Y34154D01*
Y34744D01*
X99290Y35290D01*
X98872Y35707D01*
X98327Y35933D01*
D02*
G37*
G36*
X94783D02*
X94193D01*
X93647Y35707D01*
X93230Y35290D01*
X93004Y34744D01*
Y34154D01*
X93230Y33608D01*
X93647Y33191D01*
X94193Y32965D01*
X94783D01*
X95329Y33191D01*
X95746Y33608D01*
X95972Y34154D01*
Y34744D01*
X95746Y35290D01*
X95329Y35707D01*
X94783Y35933D01*
D02*
G37*
G36*
X147933Y35736D02*
X147343D01*
X146797Y35510D01*
X146379Y35093D01*
X146153Y34547D01*
Y33957D01*
X146379Y33411D01*
X146797Y32994D01*
X147343Y32768D01*
X147933D01*
X148479Y32994D01*
X148896Y33411D01*
X149122Y33957D01*
Y34547D01*
X148896Y35093D01*
X148479Y35510D01*
X147933Y35736D01*
D02*
G37*
G36*
X244193Y38098D02*
X243602D01*
X243057Y37872D01*
X242639Y37455D01*
X242413Y36909D01*
Y36319D01*
X242639Y35773D01*
X242931Y35482D01*
X242541Y35093D01*
X242315Y34547D01*
Y33957D01*
X242541Y33411D01*
X242958Y32994D01*
X243504Y32768D01*
X244094D01*
X244640Y32994D01*
X245058Y33411D01*
X245284Y33957D01*
Y34547D01*
X245058Y35093D01*
X244766Y35384D01*
X245156Y35773D01*
X245382Y36319D01*
Y36909D01*
X245156Y37455D01*
X244738Y37872D01*
X244193Y38098D01*
D02*
G37*
G36*
X144390Y35736D02*
X143799D01*
X143254Y35510D01*
X142836Y35093D01*
X142610Y34547D01*
Y33957D01*
X142836Y33411D01*
X143254Y32994D01*
X143799Y32768D01*
X144390D01*
X144935Y32994D01*
X145353Y33411D01*
X145579Y33957D01*
Y34547D01*
X145353Y35093D01*
X144935Y35510D01*
X144390Y35736D01*
D02*
G37*
G36*
X140846D02*
X140256D01*
X139710Y35510D01*
X139293Y35093D01*
X139067Y34547D01*
Y33957D01*
X139293Y33411D01*
X139710Y32994D01*
X140256Y32768D01*
X140846D01*
X141392Y32994D01*
X141809Y33411D01*
X142035Y33957D01*
Y34547D01*
X141809Y35093D01*
X141392Y35510D01*
X140846Y35736D01*
D02*
G37*
G36*
X137303D02*
X136713D01*
X136167Y35510D01*
X135750Y35093D01*
X135524Y34547D01*
Y33957D01*
X135750Y33411D01*
X136167Y32994D01*
X136713Y32768D01*
X137303D01*
X137849Y32994D01*
X138266Y33411D01*
X138492Y33957D01*
Y34547D01*
X138266Y35093D01*
X137849Y35510D01*
X137303Y35736D01*
D02*
G37*
G36*
X133760D02*
X133169D01*
X132624Y35510D01*
X132206Y35093D01*
X131980Y34547D01*
Y33957D01*
X132206Y33411D01*
X132624Y32994D01*
X133169Y32768D01*
X133760D01*
X134305Y32994D01*
X134723Y33411D01*
X134949Y33957D01*
Y34547D01*
X134723Y35093D01*
X134305Y35510D01*
X133760Y35736D01*
D02*
G37*
G36*
X189272Y35342D02*
X188681D01*
X188136Y35117D01*
X187718Y34699D01*
X187492Y34154D01*
Y33563D01*
X187718Y33018D01*
X188136Y32600D01*
X188681Y32374D01*
X189272D01*
X189817Y32600D01*
X190235Y33018D01*
X190461Y33563D01*
Y34154D01*
X190235Y34699D01*
X189817Y35117D01*
X189272Y35342D01*
D02*
G37*
G36*
X185335D02*
X184744D01*
X184199Y35117D01*
X183781Y34699D01*
X183555Y34154D01*
Y33563D01*
X183781Y33018D01*
X184199Y32600D01*
X184744Y32374D01*
X185335D01*
X185880Y32600D01*
X186298Y33018D01*
X186524Y33563D01*
Y34154D01*
X186298Y34699D01*
X185880Y35117D01*
X185335Y35342D01*
D02*
G37*
G36*
X181791D02*
X181201D01*
X180655Y35117D01*
X180238Y34699D01*
X180012Y34154D01*
Y33563D01*
X180238Y33018D01*
X180655Y32600D01*
X181201Y32374D01*
X181791D01*
X182337Y32600D01*
X182754Y33018D01*
X182980Y33563D01*
Y34154D01*
X182754Y34699D01*
X182337Y35117D01*
X181791Y35342D01*
D02*
G37*
G36*
X178248D02*
X177657D01*
X177112Y35117D01*
X176695Y34699D01*
X176469Y34154D01*
Y33563D01*
X176695Y33018D01*
X177112Y32600D01*
X177657Y32374D01*
X178248D01*
X178794Y32600D01*
X179211Y33018D01*
X179437Y33563D01*
Y34154D01*
X179211Y34699D01*
X178794Y35117D01*
X178248Y35342D01*
D02*
G37*
G36*
X211516Y36228D02*
X210925D01*
X210380Y36002D01*
X209962Y35585D01*
X209736Y35039D01*
Y34449D01*
X209962Y33903D01*
X210204Y33661D01*
X209962Y33419D01*
X209736Y32874D01*
Y32283D01*
X209962Y31738D01*
X210380Y31320D01*
X210925Y31095D01*
X211516D01*
X212061Y31320D01*
X212479Y31738D01*
X212705Y32283D01*
Y32874D01*
X212479Y33419D01*
X212237Y33661D01*
X212479Y33903D01*
X212705Y34449D01*
Y35039D01*
X212479Y35585D01*
X212061Y36002D01*
X211516Y36228D01*
D02*
G37*
G36*
X189272Y31799D02*
X188681D01*
X188136Y31573D01*
X187718Y31156D01*
X187492Y30610D01*
Y30020D01*
X187718Y29474D01*
X188136Y29057D01*
X188681Y28831D01*
X189272D01*
X189817Y29057D01*
X190235Y29474D01*
X190461Y30020D01*
Y30610D01*
X190235Y31156D01*
X189817Y31573D01*
X189272Y31799D01*
D02*
G37*
G36*
X185335D02*
X184744D01*
X184199Y31573D01*
X183781Y31156D01*
X183555Y30610D01*
Y30020D01*
X183781Y29474D01*
X184199Y29057D01*
X184744Y28831D01*
X185335D01*
X185880Y29057D01*
X186298Y29474D01*
X186524Y30020D01*
Y30610D01*
X186298Y31156D01*
X185880Y31573D01*
X185335Y31799D01*
D02*
G37*
G36*
X181791D02*
X181201D01*
X180655Y31573D01*
X180238Y31156D01*
X180012Y30610D01*
Y30020D01*
X180238Y29474D01*
X180655Y29057D01*
X181201Y28831D01*
X181791D01*
X182337Y29057D01*
X182754Y29474D01*
X182980Y30020D01*
Y30610D01*
X182754Y31156D01*
X182337Y31573D01*
X181791Y31799D01*
D02*
G37*
G36*
X178248D02*
X177657D01*
X177112Y31573D01*
X176695Y31156D01*
X176469Y30610D01*
Y30020D01*
X176695Y29474D01*
X177112Y29057D01*
X177657Y28831D01*
X178248D01*
X178794Y29057D01*
X179211Y29474D01*
X179437Y30020D01*
Y30610D01*
X179211Y31156D01*
X178794Y31573D01*
X178248Y31799D01*
D02*
G37*
G36*
X121260Y31209D02*
X120669D01*
X120124Y30983D01*
X119706Y30565D01*
X119480Y30020D01*
Y29429D01*
X119706Y28884D01*
X120124Y28466D01*
X120669Y28240D01*
X121260D01*
X121805Y28466D01*
X122223Y28884D01*
X122449Y29429D01*
Y30020D01*
X122223Y30565D01*
X121805Y30983D01*
X121260Y31209D01*
D02*
G37*
G36*
X117717D02*
X117126D01*
X116580Y30983D01*
X116163Y30565D01*
X115937Y30020D01*
Y29429D01*
X116163Y28884D01*
X116580Y28466D01*
X117126Y28240D01*
X117717D01*
X118262Y28466D01*
X118679Y28884D01*
X118905Y29429D01*
Y30020D01*
X118679Y30565D01*
X118262Y30983D01*
X117717Y31209D01*
D02*
G37*
G36*
X82874Y30421D02*
X82284D01*
X81738Y30195D01*
X81320Y29778D01*
X81094Y29232D01*
Y28642D01*
X81320Y28096D01*
X81738Y27679D01*
X82284Y27453D01*
X82874D01*
X83420Y27679D01*
X83837Y28096D01*
X84063Y28642D01*
Y29232D01*
X83837Y29778D01*
X83420Y30195D01*
X82874Y30421D01*
D02*
G37*
G36*
X79331D02*
X78740D01*
X78195Y30195D01*
X77777Y29778D01*
X77551Y29232D01*
Y28642D01*
X77777Y28096D01*
X78195Y27679D01*
X78740Y27453D01*
X79331D01*
X79876Y27679D01*
X80294Y28096D01*
X80520Y28642D01*
Y29232D01*
X80294Y29778D01*
X79876Y30195D01*
X79331Y30421D01*
D02*
G37*
G36*
X159744Y30224D02*
X159154D01*
X158608Y29998D01*
X158191Y29581D01*
X157965Y29035D01*
Y28445D01*
X158191Y27899D01*
X158608Y27482D01*
X159154Y27256D01*
X159744D01*
X160290Y27482D01*
X160707Y27899D01*
X160933Y28445D01*
Y29035D01*
X160707Y29581D01*
X160290Y29998D01*
X159744Y30224D01*
D02*
G37*
G36*
X156201D02*
X155610D01*
X155065Y29998D01*
X154647Y29581D01*
X154421Y29035D01*
Y28445D01*
X154647Y27899D01*
X155065Y27482D01*
X155610Y27256D01*
X156201D01*
X156746Y27482D01*
X157164Y27899D01*
X157390Y28445D01*
Y29035D01*
X157164Y29581D01*
X156746Y29998D01*
X156201Y30224D01*
D02*
G37*
G36*
X185335Y28256D02*
X184744D01*
X184199Y28030D01*
X183781Y27612D01*
X183555Y27067D01*
Y26476D01*
X183781Y25931D01*
X184199Y25513D01*
X184744Y25287D01*
X185335D01*
X185880Y25513D01*
X186298Y25931D01*
X186524Y26476D01*
Y27067D01*
X186298Y27612D01*
X185880Y28030D01*
X185335Y28256D01*
D02*
G37*
G36*
X181791D02*
X181201D01*
X180655Y28030D01*
X180238Y27612D01*
X180012Y27067D01*
Y26476D01*
X180238Y25931D01*
X180655Y25513D01*
X181201Y25287D01*
X181791D01*
X182337Y25513D01*
X182754Y25931D01*
X182980Y26476D01*
Y27067D01*
X182754Y27612D01*
X182337Y28030D01*
X181791Y28256D01*
D02*
G37*
G36*
X178248D02*
X177657D01*
X177112Y28030D01*
X176695Y27612D01*
X176469Y27067D01*
Y26476D01*
X176695Y25931D01*
X177112Y25513D01*
X177657Y25287D01*
X178248D01*
X178794Y25513D01*
X179211Y25931D01*
X179437Y26476D01*
Y27067D01*
X179211Y27612D01*
X178794Y28030D01*
X178248Y28256D01*
D02*
G37*
G36*
X121260Y27665D02*
X120669D01*
X120124Y27439D01*
X119706Y27022D01*
X119480Y26476D01*
Y25886D01*
X119706Y25340D01*
X120124Y24923D01*
X120669Y24697D01*
X121260D01*
X121805Y24923D01*
X122223Y25340D01*
X122449Y25886D01*
Y26476D01*
X122223Y27022D01*
X121805Y27439D01*
X121260Y27665D01*
D02*
G37*
G36*
X117717D02*
X117126D01*
X116580Y27439D01*
X116163Y27022D01*
X115937Y26476D01*
Y25886D01*
X116163Y25340D01*
X116580Y24923D01*
X117126Y24697D01*
X117717D01*
X118262Y24923D01*
X118679Y25340D01*
X118905Y25886D01*
Y26476D01*
X118679Y27022D01*
X118262Y27439D01*
X117717Y27665D01*
D02*
G37*
G36*
X82874Y26878D02*
X82284D01*
X81738Y26652D01*
X81320Y26234D01*
X81094Y25689D01*
Y25098D01*
X81320Y24553D01*
X81738Y24135D01*
X82284Y23909D01*
X82874D01*
X83420Y24135D01*
X83837Y24553D01*
X84063Y25098D01*
Y25689D01*
X83837Y26234D01*
X83420Y26652D01*
X82874Y26878D01*
D02*
G37*
G36*
X79331D02*
X78740D01*
X78195Y26652D01*
X77777Y26234D01*
X77551Y25689D01*
Y25098D01*
X77777Y24553D01*
X78195Y24135D01*
X78740Y23909D01*
X79331D01*
X79876Y24135D01*
X80294Y24553D01*
X80520Y25098D01*
Y25689D01*
X80294Y26234D01*
X79876Y26652D01*
X79331Y26878D01*
D02*
G37*
G36*
X159744Y26681D02*
X159154D01*
X158608Y26455D01*
X158191Y26038D01*
X157965Y25492D01*
Y24902D01*
X158191Y24356D01*
X158608Y23939D01*
X159154Y23713D01*
X159744D01*
X160290Y23939D01*
X160707Y24356D01*
X160933Y24902D01*
Y25492D01*
X160707Y26038D01*
X160290Y26455D01*
X159744Y26681D01*
D02*
G37*
G36*
X156201D02*
X155610D01*
X155065Y26455D01*
X154647Y26038D01*
X154421Y25492D01*
Y24902D01*
X154647Y24356D01*
X155065Y23939D01*
X155610Y23713D01*
X156201D01*
X156746Y23939D01*
X157164Y24356D01*
X157390Y24902D01*
Y25492D01*
X157164Y26038D01*
X156746Y26455D01*
X156201Y26681D01*
D02*
G37*
G36*
X181791Y24319D02*
X181201D01*
X180655Y24093D01*
X180238Y23675D01*
X180012Y23130D01*
Y22539D01*
X180238Y21994D01*
X180655Y21576D01*
X181201Y21350D01*
X181791D01*
X182337Y21576D01*
X182754Y21994D01*
X182980Y22539D01*
Y23130D01*
X182754Y23675D01*
X182337Y24093D01*
X181791Y24319D01*
D02*
G37*
G36*
X178248D02*
X177657D01*
X177112Y24093D01*
X176695Y23675D01*
X176469Y23130D01*
Y22539D01*
X176695Y21994D01*
X177112Y21576D01*
X177657Y21350D01*
X178248D01*
X178794Y21576D01*
X179211Y21994D01*
X179437Y22539D01*
Y23130D01*
X179211Y23675D01*
X178794Y24093D01*
X178248Y24319D01*
D02*
G37*
G36*
X45768Y22192D02*
X36909D01*
X36138Y22039D01*
X35485Y21602D01*
X35048Y20948D01*
X34894Y20177D01*
Y17224D01*
X35048Y16453D01*
X35485Y15800D01*
X36138Y15363D01*
X36909Y15209D01*
X45768D01*
X46539Y15363D01*
X47193Y15800D01*
X47629Y16453D01*
X47783Y17224D01*
Y20177D01*
X47629Y20948D01*
X47193Y21602D01*
X46539Y22039D01*
X45768Y22192D01*
D02*
G37*
G36*
X296245Y31996D02*
X294307D01*
X292393Y31693D01*
X290550Y31094D01*
X288823Y30214D01*
X287256Y29075D01*
X285885Y27705D01*
X284746Y26137D01*
X283867Y24411D01*
X283268Y22568D01*
X282965Y20654D01*
Y18716D01*
X283268Y16802D01*
X283867Y14959D01*
X284746Y13233D01*
X285885Y11665D01*
X287256Y10295D01*
X288823Y9156D01*
X290550Y8276D01*
X292393Y7677D01*
X294307Y7374D01*
X296245D01*
X298158Y7677D01*
X300001Y8276D01*
X301728Y9156D01*
X303296Y10295D01*
X304666Y11665D01*
X305805Y13233D01*
X306685Y14959D01*
X307283Y16802D01*
X307587Y18716D01*
Y20654D01*
X307283Y22568D01*
X306685Y24411D01*
X305805Y26137D01*
X304666Y27705D01*
X303296Y29075D01*
X301728Y30214D01*
X300001Y31094D01*
X298158Y31693D01*
X296245Y31996D01*
D02*
G37*
%LPD*%
D57*
X19685Y177165D02*
D03*
Y98425D02*
D03*
X295276Y177165D02*
D03*
Y19685D02*
D03*
D58*
X51181Y100551D02*
D03*
X81181D02*
D03*
X61181D02*
D03*
X71181D02*
D03*
X81181Y90551D02*
D03*
X61181D02*
D03*
X71181D02*
D03*
X71282Y141991D02*
D03*
X61282D02*
D03*
X81282D02*
D03*
X71282Y151991D02*
D03*
X61282D02*
D03*
X81282D02*
D03*
X51282D02*
D03*
X71282Y116400D02*
D03*
X61282D02*
D03*
X81282D02*
D03*
X71282Y126400D02*
D03*
X61282D02*
D03*
X81282D02*
D03*
X51282D02*
D03*
X71181Y167323D02*
D03*
X61181D02*
D03*
X81181D02*
D03*
X71181Y177323D02*
D03*
X61181D02*
D03*
X81181D02*
D03*
X51181D02*
D03*
D59*
Y90551D02*
D03*
X51282Y141991D02*
D03*
Y116400D02*
D03*
X51181Y167323D02*
D03*
D60*
X279528Y73425D02*
D03*
D61*
Y98425D02*
D03*
Y123425D02*
D03*
D62*
X64961Y31102D02*
D03*
Y59449D02*
D03*
D63*
X41339Y18701D02*
D03*
Y71850D02*
D03*
D64*
X211417Y78937D02*
D03*
Y76673D02*
D03*
X285827Y19685D02*
D03*
X304331D02*
D03*
X295276Y28740D02*
D03*
Y10630D02*
D03*
X288189Y25984D02*
D03*
X301969Y25591D02*
D03*
X288583Y13386D02*
D03*
X301969Y13780D02*
D03*
X285827Y177165D02*
D03*
X304331D02*
D03*
X295276Y186221D02*
D03*
Y168110D02*
D03*
X288189Y183465D02*
D03*
X301969Y183071D02*
D03*
X288583Y170866D02*
D03*
X301969Y171260D02*
D03*
X10236Y98425D02*
D03*
X28740D02*
D03*
X19685Y107480D02*
D03*
Y89370D02*
D03*
X12598Y104724D02*
D03*
X26378Y104331D02*
D03*
X12992Y92126D02*
D03*
X26378Y92520D02*
D03*
Y171260D02*
D03*
X12992Y170866D02*
D03*
X26378Y183071D02*
D03*
X12598Y183465D02*
D03*
X19685Y168110D02*
D03*
Y186221D02*
D03*
X28740Y177165D02*
D03*
X10236D02*
D03*
X131102Y88976D02*
D03*
X82579Y25394D02*
D03*
X79035D02*
D03*
Y28937D02*
D03*
X82579D02*
D03*
X111319Y48130D02*
D03*
X107776D02*
D03*
Y51673D02*
D03*
X111319D02*
D03*
X112106Y76083D02*
D03*
X108563D02*
D03*
Y72539D02*
D03*
X112106D02*
D03*
X82677Y51772D02*
D03*
X79134D02*
D03*
Y48228D02*
D03*
X82677D02*
D03*
X120965Y29724D02*
D03*
X117421D02*
D03*
Y26181D02*
D03*
X120965D02*
D03*
X98032Y37992D02*
D03*
X94488D02*
D03*
Y34449D02*
D03*
X98032D02*
D03*
X99705Y65748D02*
D03*
X96161D02*
D03*
Y62205D02*
D03*
X99705D02*
D03*
X198130Y43898D02*
D03*
X192676Y54001D02*
D03*
X222163Y123671D02*
D03*
X152478Y18553D02*
D03*
X94604Y71702D02*
D03*
X185155Y18946D02*
D03*
X115863Y18553D02*
D03*
X50115Y29576D02*
D03*
X50903Y61860D02*
D03*
X39485Y94537D02*
D03*
X29643Y114222D02*
D03*
X15864Y128001D02*
D03*
X41454D02*
D03*
X27674Y143750D02*
D03*
X37517Y157529D02*
D03*
X15864D02*
D03*
X27674Y11860D02*
D03*
X39485Y27608D02*
D03*
X13895D02*
D03*
X25706Y45324D02*
D03*
X11926Y59104D02*
D03*
X21769Y72883D02*
D03*
X41454Y57135D02*
D03*
X303265Y35482D02*
D03*
X39469Y1772D02*
D03*
X29331D02*
D03*
X19193D02*
D03*
X10039Y3051D02*
D03*
X25591Y195079D02*
D03*
X8366Y192913D02*
D03*
X15650Y195079D02*
D03*
X34843D02*
D03*
X44882D02*
D03*
X300000Y51575D02*
D03*
X114173Y133071D02*
D03*
X164657Y95616D02*
D03*
X177953Y26772D02*
D03*
X140551Y49213D02*
D03*
X287795Y59547D02*
D03*
X270965Y147343D02*
D03*
X72835Y195079D02*
D03*
X163583Y43701D02*
D03*
X137106Y130709D02*
D03*
X143898Y121850D02*
D03*
X152264Y184449D02*
D03*
X170374Y128543D02*
D03*
X133465Y34252D02*
D03*
X137008Y59842D02*
D03*
X270571Y83661D02*
D03*
X304429Y193996D02*
D03*
X143898Y88090D02*
D03*
X206693Y118110D02*
D03*
X200000Y112992D02*
D03*
X182283Y178347D02*
D03*
X199508Y78543D02*
D03*
X182677Y168898D02*
D03*
X147638Y34252D02*
D03*
X220079Y183071D02*
D03*
X221457Y74803D02*
D03*
X313189Y101673D02*
D03*
X144404Y99586D02*
D03*
X229331Y59646D02*
D03*
X180709Y73622D02*
D03*
X158268Y71260D02*
D03*
X152264Y77756D02*
D03*
X182677Y158268D02*
D03*
X175591Y49606D02*
D03*
X227165Y186614D02*
D03*
X167717D02*
D03*
X63681Y1772D02*
D03*
X1772Y68799D02*
D03*
X210827Y58957D02*
D03*
X201870Y68800D02*
D03*
X71161Y78937D02*
D03*
X175591Y165354D02*
D03*
X189764Y81496D02*
D03*
X230709Y172441D02*
D03*
X189567Y117421D02*
D03*
X141142Y1772D02*
D03*
X1772Y163386D02*
D03*
X92618Y164567D02*
D03*
X243898Y36614D02*
D03*
X172047Y151181D02*
D03*
Y49606D02*
D03*
X175591Y99213D02*
D03*
X206693Y111024D02*
D03*
X211122Y165453D02*
D03*
X230413Y1772D02*
D03*
X251772Y195079D02*
D03*
X90059Y96161D02*
D03*
X139665Y131890D02*
D03*
X150394Y58858D02*
D03*
X61980Y158188D02*
D03*
X179134Y42520D02*
D03*
X182677Y92126D02*
D03*
X196752Y46161D02*
D03*
X251772Y68012D02*
D03*
X3051Y10039D02*
D03*
X160630Y195079D02*
D03*
X120079Y70768D02*
D03*
X143799Y140453D02*
D03*
X121949Y144685D02*
D03*
X170489Y71086D02*
D03*
X177953Y30315D02*
D03*
X144095Y49213D02*
D03*
X287795Y52461D02*
D03*
X278839Y147047D02*
D03*
X81299Y195079D02*
D03*
X170177Y43602D02*
D03*
X134734Y131832D02*
D03*
X300000Y159449D02*
D03*
X141240Y176969D02*
D03*
X180217Y138386D02*
D03*
X137008Y34252D02*
D03*
X140551Y59842D02*
D03*
X262303Y79724D02*
D03*
X311122Y188386D02*
D03*
X146063Y87992D02*
D03*
X203150Y121653D02*
D03*
X132283Y121850D02*
D03*
X182283Y181890D02*
D03*
X192028Y71457D02*
D03*
X189764Y168898D02*
D03*
X147638Y37795D02*
D03*
X220079Y168898D02*
D03*
X269390Y112402D02*
D03*
X313189Y111909D02*
D03*
X201083Y107480D02*
D03*
X201772Y102067D02*
D03*
X180709Y70079D02*
D03*
X154724Y71260D02*
D03*
X204232Y133661D02*
D03*
X179134Y158268D02*
D03*
X175591Y46063D02*
D03*
X223622Y183071D02*
D03*
X167618Y173917D02*
D03*
X313189Y17913D02*
D03*
X1772Y58465D02*
D03*
X210827Y61910D02*
D03*
X183465Y116142D02*
D03*
X85335Y83268D02*
D03*
X175591Y161811D02*
D03*
X189764Y77953D02*
D03*
X230709Y175984D02*
D03*
X240945Y133392D02*
D03*
X132480Y1772D02*
D03*
X1772Y154429D02*
D03*
X98032Y164567D02*
D03*
X243799Y34252D02*
D03*
X168504Y151181D02*
D03*
X172047Y53150D02*
D03*
X179134Y99213D02*
D03*
X210236Y111024D02*
D03*
X208760Y147047D02*
D03*
X220472Y1772D02*
D03*
X264075Y195079D02*
D03*
X135630Y144882D02*
D03*
X105905Y123672D02*
D03*
X153937Y58858D02*
D03*
X76673Y158071D02*
D03*
X182677Y42520D02*
D03*
Y88583D02*
D03*
X198327Y110335D02*
D03*
X221358Y52067D02*
D03*
X48031Y3740D02*
D03*
X169291Y195079D02*
D03*
X135236Y76673D02*
D03*
X123819Y123130D02*
D03*
X204879Y109457D02*
D03*
X287008Y38583D02*
D03*
X96850Y144882D02*
D03*
X177953Y33858D02*
D03*
X140551Y45276D02*
D03*
X284646Y47539D02*
D03*
X283071Y143012D02*
D03*
X89862Y195079D02*
D03*
X263779Y153051D02*
D03*
X130538Y130584D02*
D03*
X279921Y159843D02*
D03*
X129429Y185236D02*
D03*
X195965Y142323D02*
D03*
X140551Y34252D02*
D03*
X137008Y63386D02*
D03*
X255413Y74114D02*
D03*
X310925Y8169D02*
D03*
X131890Y95866D02*
D03*
X203150Y128740D02*
D03*
X138091Y121850D02*
D03*
X185827Y181890D02*
D03*
X163681Y130905D02*
D03*
X186221Y168898D02*
D03*
X144095Y41339D02*
D03*
X220079Y175984D02*
D03*
X279331Y112402D02*
D03*
X313189Y122146D02*
D03*
X208465Y76673D02*
D03*
X201772Y104921D02*
D03*
X184252Y70079D02*
D03*
X154724Y74803D02*
D03*
X179528Y189370D02*
D03*
X179134Y161811D02*
D03*
X126378Y63386D02*
D03*
X230709Y183071D02*
D03*
X167717Y182185D02*
D03*
X313189Y27264D02*
D03*
X1772Y47343D02*
D03*
X204331Y65059D02*
D03*
X179921Y116142D02*
D03*
X61533Y84748D02*
D03*
X175591Y158268D02*
D03*
X186221Y77953D02*
D03*
X223622Y172441D02*
D03*
X249902Y116043D02*
D03*
X123524Y1772D02*
D03*
X1772Y144980D02*
D03*
X103445Y174409D02*
D03*
X224803Y67224D02*
D03*
X168504Y154724D02*
D03*
X179134Y147638D02*
D03*
X182677Y99213D02*
D03*
X234252Y168898D02*
D03*
X195669Y113189D02*
D03*
X209350Y1772D02*
D03*
X274508Y195079D02*
D03*
X130315Y144882D02*
D03*
X100394Y123327D02*
D03*
X153937Y55315D02*
D03*
X51083Y108858D02*
D03*
X182677Y46063D02*
D03*
X179134Y88583D02*
D03*
X242618Y120079D02*
D03*
X221358Y42717D02*
D03*
X54823Y1772D02*
D03*
X178839Y195079D02*
D03*
X126378Y72736D02*
D03*
X119783Y130512D02*
D03*
X97933Y133268D02*
D03*
X180610Y63976D02*
D03*
X177953Y22835D02*
D03*
X144095Y45276D02*
D03*
X280217Y43012D02*
D03*
X288287Y137795D02*
D03*
X98917Y195079D02*
D03*
X242913Y99016D02*
D03*
X128150Y131693D02*
D03*
X290551Y146457D02*
D03*
X112106Y186417D02*
D03*
X174311Y115551D02*
D03*
X181496Y33858D02*
D03*
X133465Y63386D02*
D03*
X249213Y73917D02*
D03*
X303051Y2362D02*
D03*
X156004Y116240D02*
D03*
X206693Y125197D02*
D03*
X159449Y168110D02*
D03*
X143898Y116339D02*
D03*
X173917Y141535D02*
D03*
X168504Y53150D02*
D03*
X140551Y41339D02*
D03*
X220079Y172441D02*
D03*
X287598Y109350D02*
D03*
X313189Y131988D02*
D03*
X208465Y78937D02*
D03*
X210236Y125197D02*
D03*
X202362Y147244D02*
D03*
X158268Y74803D02*
D03*
X191732Y175591D02*
D03*
X182677Y161811D02*
D03*
X133465Y66929D02*
D03*
X227165Y183071D02*
D03*
X167618Y178051D02*
D03*
X313090Y35433D02*
D03*
X1870Y38091D02*
D03*
X204331Y67618D02*
D03*
X179921Y119685D02*
D03*
X175591Y154724D02*
D03*
X179134Y77953D02*
D03*
X227165Y172441D02*
D03*
X261614Y112500D02*
D03*
X114665Y1772D02*
D03*
X1772Y134646D02*
D03*
X103445Y164567D02*
D03*
X242913Y101181D02*
D03*
X168504Y158268D02*
D03*
X182677Y147638D02*
D03*
X189764Y99213D02*
D03*
X234252Y175984D02*
D03*
X215945Y54528D02*
D03*
X198622Y1772D02*
D03*
X283957Y195079D02*
D03*
X101969Y98721D02*
D03*
X88386Y122698D02*
D03*
X161024Y55315D02*
D03*
X63287Y108858D02*
D03*
X179134Y46063D02*
D03*
Y85039D02*
D03*
X242618Y117913D02*
D03*
X221358Y31594D02*
D03*
X292520Y1772D02*
D03*
X189075Y195079D02*
D03*
X144685Y70866D02*
D03*
X124213Y131496D02*
D03*
X208479Y109356D02*
D03*
X46358Y158858D02*
D03*
X189272Y104528D02*
D03*
X181496Y22835D02*
D03*
X129921Y63386D02*
D03*
X275984Y38780D02*
D03*
X288583Y129232D02*
D03*
X107677Y195079D02*
D03*
X246358Y153642D02*
D03*
X138386Y142224D02*
D03*
X309449Y146850D02*
D03*
X90453Y186811D02*
D03*
X190059Y131299D02*
D03*
X185039Y33858D02*
D03*
X140551Y63386D02*
D03*
X242913Y73917D02*
D03*
X216831Y135138D02*
D03*
X156201Y123819D02*
D03*
X206693Y128740D02*
D03*
X137008Y101575D02*
D03*
X155905Y168110D02*
D03*
X143898Y110433D02*
D03*
X143602Y152559D02*
D03*
X168504Y49606D02*
D03*
X133465Y41339D02*
D03*
X220079Y179527D02*
D03*
X288386Y102264D02*
D03*
X313189Y142323D02*
D03*
X209252Y64468D02*
D03*
X203150Y125197D02*
D03*
X125591Y173228D02*
D03*
X159449Y25197D02*
D03*
X194882Y189370D02*
D03*
X186221Y147638D02*
D03*
X137008Y66929D02*
D03*
X223622Y186614D02*
D03*
X232185Y98524D02*
D03*
X313189Y44685D02*
D03*
X116437Y123819D02*
D03*
X201772Y99213D02*
D03*
X183465Y119685D02*
D03*
X97638Y125197D02*
D03*
X175591Y151181D02*
D03*
X182677Y77953D02*
D03*
X223622Y175984D02*
D03*
X264764Y113583D02*
D03*
X106299Y1772D02*
D03*
X1772Y124803D02*
D03*
X120472Y174508D02*
D03*
X165006Y53150D02*
D03*
X168504Y147638D02*
D03*
X175591D02*
D03*
X186221Y99213D02*
D03*
X234252Y172441D02*
D03*
X261516Y153051D02*
D03*
X187697Y1772D02*
D03*
X293898Y195079D02*
D03*
X93307Y83760D02*
D03*
X91535Y122638D02*
D03*
X157480Y55315D02*
D03*
X75098Y108858D02*
D03*
X179134Y49606D02*
D03*
X182677Y85039D02*
D03*
X261516Y155709D02*
D03*
X208465Y34744D02*
D03*
X282579Y1772D02*
D03*
X200000Y195079D02*
D03*
X102461Y96161D02*
D03*
X126969Y127165D02*
D03*
X276772Y29528D02*
D03*
X51083Y132874D02*
D03*
X170757Y104437D02*
D03*
X188976Y30315D02*
D03*
X129921Y66929D02*
D03*
X271850Y34646D02*
D03*
X288583Y119488D02*
D03*
X116043Y195079D02*
D03*
X243701Y40945D02*
D03*
X132972Y142224D02*
D03*
X300394Y132677D02*
D03*
X68799Y186811D02*
D03*
X182185Y123425D02*
D03*
X185039Y30315D02*
D03*
X144095Y59842D02*
D03*
X235138Y73917D02*
D03*
X214567Y135531D02*
D03*
X157677Y106299D02*
D03*
X213779Y128740D02*
D03*
X119390Y158563D02*
D03*
X138189Y110433D02*
D03*
X124705Y152559D02*
D03*
X168504Y46063D02*
D03*
X137008Y41339D02*
D03*
X140551Y56299D02*
D03*
X288386Y95472D02*
D03*
X313189Y151772D02*
D03*
X213386Y61122D02*
D03*
X206693Y121653D02*
D03*
X205020Y184843D02*
D03*
X155905Y25197D02*
D03*
X176378Y175591D02*
D03*
X193307Y147638D02*
D03*
X126378Y59842D02*
D03*
X230709Y186614D02*
D03*
X234055Y106988D02*
D03*
X313189Y55807D02*
D03*
X103150Y123524D02*
D03*
X217028Y140551D02*
D03*
X164567Y135433D02*
D03*
X116437Y112795D02*
D03*
X182677Y151181D02*
D03*
X175591Y77953D02*
D03*
X227165Y179527D02*
D03*
X255315Y119291D02*
D03*
X97539Y1772D02*
D03*
X1772Y114567D02*
D03*
X227658Y136122D02*
D03*
X165006Y49607D02*
D03*
X172047Y147638D02*
D03*
X186221Y165354D02*
D03*
X175591Y81496D02*
D03*
X234252Y179527D02*
D03*
X227953Y73819D02*
D03*
X177461Y1772D02*
D03*
X1772Y180709D02*
D03*
X92557Y174372D02*
D03*
X122736Y92815D02*
D03*
X157480Y58858D02*
D03*
X87697Y108858D02*
D03*
X182677Y49606D02*
D03*
X175591Y85039D02*
D03*
X263681Y155709D02*
D03*
X222342Y97638D02*
D03*
X273130Y1772D02*
D03*
X210728Y195079D02*
D03*
X123819Y107185D02*
D03*
X269291Y16142D02*
D03*
X66437Y131693D02*
D03*
X175591Y42520D02*
D03*
X188976Y33858D02*
D03*
X126378Y66929D02*
D03*
X267618Y30315D02*
D03*
X284449Y113779D02*
D03*
X124902Y195079D02*
D03*
X227067Y68898D02*
D03*
X127953Y142224D02*
D03*
X300394Y114961D02*
D03*
X52264Y184449D02*
D03*
X168405Y99410D02*
D03*
X181496Y30315D02*
D03*
X144095Y56299D02*
D03*
X287697Y79626D02*
D03*
X245374Y120079D02*
D03*
X155512Y100787D02*
D03*
X210236Y128740D02*
D03*
X109547Y158563D02*
D03*
X132283Y110433D02*
D03*
X281102Y185827D02*
D03*
X112500Y166732D02*
D03*
X168476Y57049D02*
D03*
X140551Y37795D02*
D03*
X137008Y56299D02*
D03*
X288386Y89173D02*
D03*
X313189Y160728D02*
D03*
X206693Y66339D02*
D03*
X210236Y118110D02*
D03*
X152756Y140157D02*
D03*
X155905Y28740D02*
D03*
X203851Y168534D02*
D03*
X189764Y147638D02*
D03*
X129921Y56299D02*
D03*
X234252Y186614D02*
D03*
X234055Y114370D02*
D03*
X313189Y66142D02*
D03*
X90059Y124666D02*
D03*
X217063Y138083D02*
D03*
X155905Y164567D02*
D03*
X161024Y135433D02*
D03*
X179134Y151181D02*
D03*
X182677Y53150D02*
D03*
X230709Y168898D02*
D03*
X244882Y129724D02*
D03*
X88484Y1772D02*
D03*
X1772Y104331D02*
D03*
X224902Y134449D02*
D03*
X172047Y161811D02*
D03*
X165006Y46064D02*
D03*
X189764Y165354D02*
D03*
X182677Y81496D02*
D03*
X230709Y179527D02*
D03*
X240945Y29429D02*
D03*
X167913Y1772D02*
D03*
X48031Y193110D02*
D03*
X97970Y174372D02*
D03*
X114173Y121653D02*
D03*
X212479Y114557D02*
D03*
X161024Y58858D02*
D03*
X101870Y108858D02*
D03*
X186221Y37795D02*
D03*
X175591Y88583D02*
D03*
X203150Y114567D02*
D03*
X221457Y144783D02*
D03*
X262697Y1772D02*
D03*
X221850Y195079D02*
D03*
X144948Y84826D02*
D03*
X119980Y108169D02*
D03*
X239370Y67323D02*
D03*
X58169Y147047D02*
D03*
X175591Y38976D02*
D03*
X182677Y95669D02*
D03*
X129921Y59842D02*
D03*
X224803Y54232D02*
D03*
X274410Y113583D02*
D03*
X133858Y195079D02*
D03*
X244094Y153642D02*
D03*
X123622Y118760D02*
D03*
X300394Y92913D02*
D03*
X87697Y155709D02*
D03*
X150689Y95472D02*
D03*
X185039Y26772D02*
D03*
X144095Y52756D02*
D03*
X287795Y71752D02*
D03*
X245374Y117913D02*
D03*
X56201Y195079D02*
D03*
X210236Y114567D02*
D03*
X99508Y158563D02*
D03*
X132283Y116339D02*
D03*
X133366Y165945D02*
D03*
X193307Y168898D02*
D03*
X137008Y37795D02*
D03*
X133465Y56299D02*
D03*
X285728Y84941D02*
D03*
X313189Y169291D02*
D03*
X231594Y131595D02*
D03*
X210236Y121653D02*
D03*
X213779Y121556D02*
D03*
X159449Y28740D02*
D03*
X204094Y54001D02*
D03*
X175591Y168898D02*
D03*
X144095Y34252D02*
D03*
X234252Y183071D02*
D03*
X221457Y88779D02*
D03*
X313189Y79035D02*
D03*
X149197Y127094D02*
D03*
X96850Y82776D02*
D03*
X159449Y164567D02*
D03*
X161024Y138976D02*
D03*
X159350Y84449D02*
D03*
X179134Y154724D02*
D03*
Y53150D02*
D03*
X227165Y168898D02*
D03*
X234055Y140256D02*
D03*
X79921Y1772D02*
D03*
X1772Y94095D02*
D03*
X234350Y131595D02*
D03*
X172047Y165354D02*
D03*
X165006Y57087D02*
D03*
X182677Y165354D02*
D03*
X179134Y81496D02*
D03*
X223622Y179527D02*
D03*
X238779Y29429D02*
D03*
X159252Y1772D02*
D03*
X3543Y187894D02*
D03*
X109585Y174569D02*
D03*
X211221Y34744D02*
D03*
X212579Y118157D02*
D03*
X172047Y158268D02*
D03*
X94784Y114764D02*
D03*
X189764Y37795D02*
D03*
X175591Y92126D02*
D03*
X213779Y125197D02*
D03*
X221457Y153543D02*
D03*
X250394Y1772D02*
D03*
X231791Y195079D02*
D03*
X142094Y84826D02*
D03*
X113386Y108169D02*
D03*
X214173Y69685D02*
D03*
X66437Y139961D02*
D03*
X182677Y38976D02*
D03*
X179134Y95669D02*
D03*
X208465Y32579D02*
D03*
X239665Y55905D02*
D03*
X1772Y29921D02*
D03*
X142520Y195079D02*
D03*
X243701Y43110D02*
D03*
X123622Y111221D02*
D03*
X300000Y66929D02*
D03*
X111417Y143701D02*
D03*
X170237Y89890D02*
D03*
X181496Y26772D02*
D03*
X140551Y52756D02*
D03*
X287795Y65158D02*
D03*
X264469Y150000D02*
D03*
X65059Y195079D02*
D03*
X206693Y114567D02*
D03*
X141941Y130598D02*
D03*
X138091Y116339D02*
D03*
X272441Y172835D02*
D03*
X146457Y167323D02*
D03*
X193307Y165354D02*
D03*
X133465Y37795D02*
D03*
Y59842D02*
D03*
X279626Y83563D02*
D03*
X313189Y178051D02*
D03*
X141240Y135630D02*
D03*
X203150Y118110D02*
D03*
X199606Y128740D02*
D03*
X185827Y178347D02*
D03*
X203051Y37992D02*
D03*
X179134Y168898D02*
D03*
X144095Y37795D02*
D03*
X220079Y186614D02*
D03*
X221358Y81102D02*
D03*
X313189Y91437D02*
D03*
X149197Y104850D02*
D03*
X229823Y127067D02*
D03*
X184252Y73622D02*
D03*
X164567Y138976D02*
D03*
X159350Y66732D02*
D03*
X182677Y154724D02*
D03*
X175591Y53150D02*
D03*
X223622Y168898D02*
D03*
X205020Y178347D02*
D03*
X71457Y1772D02*
D03*
X1772Y81693D02*
D03*
X210777Y56004D02*
D03*
X203937Y82480D02*
D03*
X51083Y78937D02*
D03*
X179134Y165354D02*
D03*
X186221Y81496D02*
D03*
X227165Y175984D02*
D03*
X189469Y124114D02*
D03*
X149705Y1772D02*
D03*
X1772Y171949D02*
D03*
X114998Y174569D02*
D03*
X172047Y154724D02*
D03*
Y46063D02*
D03*
X175591Y95669D02*
D03*
X203150Y111024D02*
D03*
X221457Y162106D02*
D03*
X240748Y1772D02*
D03*
X242126Y195079D02*
D03*
X211221Y32579D02*
D03*
X132311Y132302D02*
D03*
X212479Y111056D02*
D03*
X199508Y46161D02*
D03*
X150394Y55315D02*
D03*
X76279Y139961D02*
D03*
X179134Y38976D02*
D03*
Y92126D02*
D03*
X244882Y61024D02*
D03*
X1772Y20571D02*
D03*
X151083Y195079D02*
D03*
X234154Y64173D02*
D03*
X121461Y115063D02*
D03*
M02*
