M48
;Layer_Color=9474304
;FILE_FORMAT=2:4
INCH,TZ
;TYPE=PLATED
T01F00S00C0.0118
T03F00S00C0.0433
T04F00S00C0.0512
T05F00S00C0.1063
T06F00S00C0.1339
%
T01
X305Y1004
X177Y2057
Y2992
X187Y3809
X177Y4734
Y5846
Y6880
Y8169
Y9409
Y10433
Y11457
Y12480
Y13465
Y14498
Y15443
X2767Y14375
X1586Y12800
X1969Y10748
X1260Y10472
X1024Y9843
X1299Y9213
X1969Y8937
X2638Y9252
X2874Y9843
X2638Y10433
X2964Y11422
X4145Y12800
X5108Y13287
X6644Y13169
Y13996
X7628
X5817Y14705
X8770Y15571
X9685Y14488
X9793Y13327
X9764Y12520
X10039Y12333
X10315Y12352
X10591Y12367
X11417Y12165
X11644Y12382
X12382Y12313
X12362Y11876
X12146Y11506
X12362Y11122
X12382Y10718
X11998Y10817
X11339
X11644Y11280
X13228Y11043
X13819
X14390
Y11634
Y12185
X13809
Y11634
X13228
Y12185
X13231Y13230
X13473Y13183
X13711Y13071
X13967Y13189
X14194Y13060
X14124Y13563
X14380Y14045
X13839Y14222
X13563Y14488
X13032
X12795Y14222
X13297
X12195Y14468
X12470Y15256
X14360
X15276Y14016
X14920Y12709
X15620Y12382
X15600Y11624
X15551Y10079
X15069Y9547
X14440Y9959
X13701Y10157
X13189Y9587
X13110Y8898
X12274Y9281
X10246Y9616
X10197Y9872
X10187Y10886
X9478Y11476
X9154Y12264
X8839Y12270
X9006Y12467
X8770Y10886
X7510
X6329
X5108
X3949Y9454
X5108Y7894
X6153Y8475
X7116Y7894
X8533Y8327
X9331Y8376
X9685Y8278
X9460Y7170
X9616Y6575
X9970
Y6220
X9616
X10778Y5167
X11132
Y4813
X10778
X9803Y3799
X9449
Y3445
X9803
X8258Y2894
X7904
Y2539
X8258
X8268Y4823
X7913
Y5177
X8268
X5090Y6186
X4145Y5714
X2571Y4532
X1193Y5910
X2177Y7288
X1390Y2761
X3949
X5012Y2958
X4803Y374
X5482Y177
X6368
X7146
X7992
X8848
X9754
X10630
X11467
X12352
X13248
X14114
X14970
X15248Y1855
X15591Y2520
Y2874
X14764Y3425
Y3780
X14409Y3780
Y4134
X14055
X13701
X13346
Y3780
X13701
Y3425
X13346
X14055
Y3780
X14409Y3425
Y4528
X14055
Y4921
X14409
Y5276
Y5630
Y5984
X14055
X13701
X13346
Y6339
X13701
X14055
X13701Y6693
X13346
X12992
Y6339
Y5984
Y5630
X13346
X13701
X14055
Y5276
X15039Y5531
Y5886
X15394
Y5531
X15472Y7126
Y7480
X15226Y7776
X14495Y8483
X14209
X14390Y8809
X14606Y8799
X14468Y7087
X13524Y7667
X12638Y7274
Y6693
Y6339
Y5984
X12008Y7077
X11211Y7254
X10856
Y7608
X11211
X9006Y9616
X11417Y13307
X11978Y13051
X12421Y13150
X12815Y13169
X13054Y13058
X12697Y12717
X11142Y14370
X14920Y10485
X12096Y2972
X11742
Y2618
X12096
X11586Y1855
X3947Y177
X2933
X1919
X1004Y305
X2767Y1186
X15925Y177
X16791
X17746
X18770
X19862
X20935
X22047
X23041
X24075
X25039
X26270
X27313
X28258
X29252
X30305Y236
X30197Y1378
X30433Y1969
X30197Y2559
X29528Y2874
X28819Y2598
X28583Y1969
X28858Y1339
X29528Y1063
X31093Y817
X30326Y3548
X30000Y5157
X28780Y5246
Y5955
Y6516
Y7175
X28770Y7963
X28573Y8494
X28839Y8917
Y9547
Y10226
X28760Y10935
X28445Y11378
X27933Y11240
X27441Y11358
X26939Y11240
X26476Y11358
X26161Y11250
X25531Y11929
X24990Y11604
X24537Y11791
Y12008
X24262
Y11791
X23406Y11437
Y10699
X23219Y9852
X22234Y9764
X22146Y8878
X22136Y8110
X22146Y7480
X22795Y7382
X22707Y6890
X22480Y6722
X22933Y5965
X23415Y6417
X23937Y6732
X24291Y7392
X24921
X25541Y7411
X25177Y6801
X24488Y6102
X23967Y5591
X22480Y5423
X22136Y5207
X21594Y5453
X21078Y5600
X21083Y5896
Y6191
X21339Y6112
X20925Y6447
X20669Y6634
X20433Y6506
Y6762
X20187Y6880
X19951Y7854
X20394Y8248
X20846Y7894
Y7667
X21142
Y7894
X21417Y6969
X19203Y7146
X18976Y7795
Y8150
X18622
Y7795
X18268
X17913
Y8150
X18268
Y8504
X17913
Y8858
X18268
Y9213
X17913
Y9567
Y9921
X17559
Y9567
Y9213
Y8858
Y8504
Y8150
Y7795
X18071Y7362
X18425
Y7008
X18071
X18061Y6398
X17913Y5315
Y4961
Y4606
X18268
Y4252
X17913
X17559
Y4606
Y4961
X17205
Y4606
X16850
X16501Y4606
Y4961
X16850Y4961
Y5315
X16501Y5315
Y5709
X16848Y5705
X17205Y5315
X17559
X18268
Y4961
X18268Y3898
X17913
X17559
X17795Y3386
Y3031
Y2677
X18150
Y3031
Y3386
X18504
Y3031
Y2677
X18150Y2283
X17795
X18515Y1895
X18898Y3031
Y3386
X18976Y3780
X18622
X20305Y3799
X20846Y3474
Y3258
X21122
Y3474
X22136Y3159
Y4272
X24370Y4311
Y4094
X24390Y3661
X24380Y3425
X24094Y2943
X23878
X26762Y3031
X27185Y3465
X27598Y3878
X28022Y4301
X28465Y4754
X28701Y3858
X27677Y2953
X26929Y1614
X27057Y8366
X27963Y8356
X26230Y7972
X23514Y7392
X24291Y9902
Y10118
X24488Y12972
X24094Y13339
X23435Y13159
X23159
X22982Y12707
X22216Y12367
X21378Y12520
X21024
X20669
X20315
Y12165
X20669
Y11811
X20315
Y11457
X20669
Y11102
X20488Y10946
X20315Y11102
X20000Y11299
X19833Y11033
X19567Y11319
X18957Y11742
X18947Y12411
X19006Y13130
X19961Y12874
X20315
X20669
X21024
X21378
Y12156
X21024Y12165
Y11811
X21258Y11816
X21248Y11456
X21024Y11457
Y11102
X21248Y11106
X20848Y10936
X20108Y10748
X20177Y10492
Y10207
Y9921
X18976
X18622
X18268
Y9567
X18927Y10453
X18346Y11614
X17992
Y11968
X18346
X18219Y12343
X17431Y11555
X17076Y10444
X16841Y9941
X16466Y9562
X17024Y8989
X15935Y8445
X15827Y7480
Y7126
X15935Y6673
X16102Y5886
Y5531
X15748
Y5886
X16358Y4370
X17018Y4360
X15945Y2874
Y2520
X17049Y7109
X19268Y5400
X20409
X19951Y4616
X19675
X19813Y4390
X20423Y13366
X21457Y13553
X21683Y13514
X21706Y13808
X21703Y14055
X22146Y14478
Y15354
X20876Y14705
X20236Y14724
X19331Y14764
X18976
X18622
X18268Y14764
X17913
X17559
X17205
Y15118
X17559
Y15472
X17205
X16850
Y15118
Y14764
X17392Y14154
X18022Y13839
X17913Y15118
X18268
Y15472
X17913
X19596Y14232
X16457Y13898
X16102
Y13543
X16457
X16368Y13091
X17037Y12854
X15768Y10630
X22490Y13445
X22766Y13612
X23406Y14026
X24409Y15364
X24636
X26152Y15305
X26378
X26368Y15571
X26152
X26447Y15000
X27096Y14734
X27884Y14705
X28307Y14301
X28829Y13780
X28858Y12923
Y11949
X30039Y11496
Y13268
X30945Y14685
X29055Y14646
X30039Y9291
X30000Y6693
X31319Y6614
Y5581
Y4469
X31309Y3543
X31319Y2726
Y1791
Y7904
Y9144
Y10167
Y11191
Y12215
Y13199
Y14232
Y15177
Y16073
Y16929
Y17805
X30433Y17717
X30197Y17126
X29528Y16811
X28858Y17087
X28583Y17717
X28819Y18346
X28110Y18583
X28396Y19508
X27451
X26407
X25177
X24213
X23179
X23071Y18661
X22717
X22362
Y18307
X22717
X23071
Y17953
Y17598
Y17244
X22717
X22362
Y17598
X22717
Y17953
X22362
X22008
Y18307
Y18661
X22185Y19508
X21073
X20000
X19488Y18937
X18907Y19508
X17884
X17953Y18937
X18228Y18189
X18583
Y17835
X18228
X17638Y17559
X17559Y16890
Y16535
X17205
Y16181
X17559
Y15827
X17205
X16850
X17913
X18268
X18268Y16181
X17913
Y16535
X18268
X18622
Y16890
X18268
X17913
X18976
Y16535
X19331
Y16890
X19173Y17559
X20502Y17835
Y18484
X20385Y16853
X21112Y16545
X22008Y16890
Y17244
Y17598
X22362Y16890
X22717
X23071
X23425
Y17244
Y17598
Y17953
Y18307
Y18661
X22146Y16211
X27992Y15984
X30000Y15945
X30197Y18307
X29528Y18622
X29390Y19508
X30443Y19400
X31112Y18839
X27244Y17283
X16762Y17392
Y17805
X16772Y18218
Y18661
X16929Y19508
X16063
X15945Y16811
Y16457
X15591
Y16811
X14646Y16732
X13337Y16594
X12559Y17323
X12047Y17451
X11500Y17457
X10958
X10344Y17441
X9797Y17437
X9256
X9262Y16457
X9803
X10344
X9951Y15856
X10955
X11939
X11250Y16673
X11211Y18642
X11604Y19508
X10768
X9892
X8986
X8130
X7283
X6506
X5620
X4803Y19311
X4488Y19508
X3484
X2559
X1565
X837Y19291
X354Y18789
X177Y18071
Y17195
Y16339
X1299Y17087
X1024Y17717
X1260Y18346
X1969Y18622
X2638Y18307
X2874Y17717
X2638Y17126
X1969Y16811
X1586Y15753
X3752
X4636Y15886
X6198Y15819
X7667Y15807
X6880Y18681
X5226Y18445
X9045Y18681
X12943Y18524
X13386Y19508
X14252
X15108
X15226Y18445
X14124Y17697
X12490Y19508
T03
X5118Y9055
Y10055
X6118
X7118
X8118
Y9055
X7118
X6118
X6128Y11640
X7128
X8128
Y12640
X7128
X6128
X5128
Y11640
Y14199
X6128
X7128
X8128
Y15199
X7128
X6128
X5128
X5118Y16732
X6118
X7118
X8118
Y17732
X7118
X6118
X5118
T04
X27953Y7343
Y9843
Y12343
T05
X6496Y3110
Y5945
T06
X1969Y9843
X29528Y1969
Y17717
X1969
M30
